<?xml version="1.0" encoding="UTF-8"?>
<svg version="1.1" viewBox="0 0 1200 1200" width="1200" height="1200" xmlns="http://www.w3.org/2000/svg">
<path transform="translate(1172,730)" d="m0 0 1 2-9 34-12 36-11 28-11 24-13 26-14 24-12 19-11 16-14 19-13 16-11 13-12 13-11 12-14 14-8 7-13 12-11 9-15 12-19 14-18 12-21 13-21 12-21 11-29 13-31 12-34 11-26 7-34 7-33 5-31 3-20 1h-39l-33-2-34-4-38-7-36-9-35-11-26-10-23-10-25-12-23-12-17-11-19-14-13-12-15-15-13-17-10-17-7-16-6-21-2-16v-15l2-16 6-21 8-17 10-15 9-11 18-18 16-12 20-12 25-12 25-9 21-6 36-7 25-3 32-2h33l35 2 36 4 43 7 42 9 42 11 34 9 42 9 35 6 32 4 25 2 24 1h22l35-2 30-4 29-6 27-8 28-11 20-10 20-12 18-13 13-11 8-7 21-21 9-11z" fill="#E49F15"/>
<path transform="translate(581,13)" d="m0 0h40l32 2 34 4 34 6 33 8 27 8 29 10 29 12 27 13 16 8 19 11 16 11 14 11 12 11 14 14 13 17 9 15 7 15 5 15 4 20v26l-3 17-6 18-11 21-10 13-9 10-12 12-16 12-16 10-21 11-23 9-26 8-26 6-26 4-18 2-15 1h-62l-37-3-37-5-38-7-40-9-56-15-39-9-38-7-37-5-37-3h-54l-34 3-29 5-25 6-30 10-25 11-22 12-12 8-14 10-13 11-8 7-9 8-7 8-11 12-13 17-1-3 8-31 12-36 11-28 15-33 16-30 14-23 17-25 12-16 11-14 11-13 9-10 7-8 33-33 8-7 14-12 14-11 20-15 24-16 25-15 22-12 22-11 33-14 34-12 31-9 34-8 36-6 40-4z" fill="#E49F15"/>
<path transform="translate(291,365)" d="m0 0h37l30 2 40 5 7 2v401l-1 1-29 5-32 8-29 10-20 9-21 11-18 12-14 11-13 12-11 12-12 17-8 14-8 19-5 19-2 13v34l3 18 5 17-1 3-19-19-7-8-10-11-9-11-11-14-14-19-14-21-13-21-16-29-13-27-12-29-10-28-8-26-9-36-6-33-4-31v-47l3-24 6-27 6-20 10-24 12-23 12-18 11-14 11-12 14-14 11-9 18-13 21-12 21-10 25-9 30-8 30-5 19-2z" fill="#E49F15"/>
<path transform="translate(1011,180)" d="m0 0 7 6 9 9 7 8 12 13 9 11 12 15 14 19 12 18 12 19 14 25 10 19 14 31 11 29 10 30 9 34 7 35 5 35 1 10v46l-3 24-5 24-7 22-6 16-11 23-13 21-10 13-12 14-17 17-14 11-14 10-15 9-17 9-25 10-26 8-22 5-26 4-23 2h-56l-34-3-29-4-5-2v-399l6-2 28-5 31-8 26-9 20-9 23-12 12-8 16-12 12-11 12-12 12-16 12-21 8-21 5-22 1-9v-28l-3-19-6-20z" fill="#E49F15"/>
<path transform="translate(190,1020)" d="m0 0" fill="#E49F15"/>
</svg>
