<?xml version="1.0" encoding="UTF-8"?>
<svg version="1.1" viewBox="0 0 2048 1280" width="1280" height="1280" xmlns="http://www.w3.org/2000/svg">
<path transform="translate(747,84)" d="m0 0 4 1 176 176v2h2l7 8 86 86 4-1 272-272 4 1 217 217v2h2v2l3 1 7 8 304 304v2l4 2 1 3 3 1v2l4 2 2 2-1 5-548 548-7-6-114-114-2-1v-2l-4-2-116-116-2-1v-2h-2v-2l-4-2-25-25-7 6-8 7-5 6h-2l-2 4-249 249h-4l-11-12-18-18-7-6v-2l-4-2-258-258-3-2v-2l-3-1v-2h-2v-2l-4-2-239-239 1-5zm276 275-77 77v2l-4 2-1 3h-2l-7 8-132 132v2l-3 1-7 8-40 40 1 4 112 112 7 8 128 128 1 2h2l2 4 19 19 4-1 7-8 263-263 3-2-1-4-274-274z" fill="#EF1F24"/>
</svg>
