<?xml version="1.0" encoding="UTF-8"?>
<svg version="1.1" viewBox="0 0 800 800" width="1280" height="1280" xmlns="http://www.w3.org/2000/svg">
<path transform="translate(385,51)" d="m0 0h29l26 2 32 5 28 7 29 10 24 11 23 12 19 12 19 14 11 9 10 9 8 7 14 14 7 8 14 17 14 20 11 18 12 23 9 20 9 25 7 25 5 25 3 25 1 17v28l-2 27-4 27-7 29-10 29-9 21-2 2-33-16-33-14-35-13-36-11-32-8-42-8-3-1v-180l-202 1-1 175-2 5-38 7-44 11-35 11-34 13-25 11-25 12-11 5-6-12-11-30-8-29-5-27-2-16-1-16v-37l2-25 5-30 6-24 9-27 9-21 9-19 16-27 10-14 10-13 11-13 11-12 17-17 11-9 15-12 19-13 20-12 19-10 29-12 28-9 26-6 26-4z" fill="#005992"/>
<path transform="translate(371,518)" d="m0 0h56l40 3 42 6 34 7 31 8 37 12 28 11 25 11 25 12 2 3-3 7-10 13-13 16-12 13-21 21-11 9-15 12-21 14-17 10-17 9-26 11-27 9-28 7-31 5-26 2h-28l-25-2-31-5-24-6-33-11-27-12-19-10-21-13-19-14-13-11-10-9-12-11-7-7-7-8-11-13-14-19-3-6 1-4 29-14 33-14 34-12 30-9 38-9 41-7 39-4z" fill="#D71049"/>
</svg>
