<?xml version="1.0" encoding="UTF-8"?>
<svg version="1.1" viewBox="0 0 1537 1537" width="1537" height="1537" xmlns="http://www.w3.org/2000/svg">
<path transform="translate(0)" d="m0 0h1537v1537h-1537z" fill="#FEDE00"/>
<path transform="translate(409,701)" d="m0 0h54l15 34 18 42 2 4v3h2l3-9 9-22 5-11 17-40 1-1h54l1 1v134h-36l-1-1-1-80-14 31-13 30-7 16-3 4h-32l-7-14-7-16-8-18-14-32-2-1v81h-37v-134z" fill="#0270B9"/>
<path transform="translate(840,701)" d="m0 0h88l14 2 9 3 8 6 5 8 2 8v23l-4 9-3 4v3l5 4 4 7 2 8v19l-3 11-5 8-7 6-10 4-9 2h-96z" fill="#0270B9"/>
<path transform="translate(88,701)" d="m0 0h56l14 23 12 20 6 9 6 11 8 13 7 12 1-5v-81l1-2h36l1 3v131l-1 1h-56l-19-32-33-55h-1l-1 87h-37z" fill="#0270B9"/>
<path transform="translate(1139,701)" d="m0 0h54l4 5 13 22 6 9 6 11 14 23 10 17 2 1v-88h36l1 1v133l-1 1h-54l-5-6-8-14-12-20-7-12-17-28-5-8-1 87-1 1h-36v-134z" fill="#0270B9"/>
<path transform="translate(1025,701)" d="m0 0h49l4 8 12 30 15 37 23 57v3h-40l-4-9-5-12v-2l-56 1-9 22h-40l-1-3 15-38 6-15 14-36 9-22 6-16z" fill="#0270B9"/>
<path transform="translate(296,701)" d="m0 0h48l4 8 16 40 16 39 18 45v3h-40l-4-8-5-13-1-1h-55l-9 22h-41l1-5 12-31 6-16 5-12 15-38 12-30z" fill="#0270B9"/>
<path transform="translate(689,701)" d="m0 0h48l3 5 14 34 20 50 7 18 5 12 6 15-1 1h-40l-9-22h-56l-8 20-1 2h-40l1-7 11-27 6-16 17-43 12-31 4-10z" fill="#0270B9"/>
<path transform="translate(1300,701)" d="m0 0h38l1 51 6-2 5-6h2l2-4 4-4h2l2-4 13-13 1-2h2v-2h2l2-4 10-10h48v3l-8 8-7 8-38 38-1 2h-2v2h-2v2h-2l-1 4 5 4 40 40 10 9 13 13v2h-50l-1-3-4-2-14-14-2-1v-2l-4-2-27-27-4-1-2 1-1 51h-39v-134z" fill="#0270B9"/>
<path transform="translate(880,782)" d="m0 0h42l7 2 1 1 1 10-2 7-2 2-7 1h-41l-1-3v-17z" fill="#FEDE00"/>
<path transform="translate(879,733)" d="m0 0h43l5 3v11l-2 4-8 2h-38l-1-2v-15z" fill="#FEDE00"/>
<path transform="translate(320,742)" d="m0 0 3 3 11 28 3 11h-33l3-10 12-31z" fill="#FEDE00"/>
<path transform="translate(1050,742)" d="m0 0 2 1 14 36 1 5h-33l3-10 8-20 4-11z" fill="#FEDE00"/>
<path transform="translate(713,742)" d="m0 0 3 2 14 36v4h-32l1-6 9-24z" fill="#FEDE00"/>
</svg>
