<?xml version="1.0" encoding="UTF-8"?>
<svg version="1.1" viewBox="0 0 2048 1280" width="1280" height="1280" xmlns="http://www.w3.org/2000/svg">
<path transform="translate(1208,526)" d="m0 0 25 2 47 6 54 9 34 7 30 7 36 10 26 8 31 11 21 9 17 8 18 10 18 12 13 11 5 5 7 8 7 14 1 5v8l-4 10-6 8-415 415-7 8-133 133h-2l-2 4-3 3-4-2-384-384-8-7-2-4-4-2-150-150v-2l5 2 17 12 20 11 28 13 23 9 22 8 33 10 38 10 35 8 43 8 53 8 52 6 46 4 53 3 28 1h104l48-2 49-3 37-3z" fill="#F49D1A"/>
<path transform="translate(1022,15)" d="m0 0 4 1 121 121 8 7 33 33 11 12 4 3v2l3 1 15 15v2l4 2 13 13 9 10 6 5 7 8 6 5 7 8 5 4 7 8 7 6 7 8 2 1v2l3 1 7 8 18 18 12 11 221 221 8 7 5 6v2l-5-2-12-9-19-11-16-8-24-11-29-11-44-14-60-15-52-10-45-7-48-6-41-4-25-2-57-3h-146l-57 3-49 4h-5v285l-2 1-58-7-57-9-36-7-43-10-42-12-41-14-24-10-21-10-24-14-16-12-12-11-9-12-4-9-1-4v-10l4-10 6-8 350-350 7-8 4-2 1-3h2l2-4 6-6h2l2-4 24-24h2l2-4 22-22h2l2-4 57-57h2l2-4 9-9h2l2-4z" fill="#309ED5"/>
<path transform="translate(847,198)" d="m0 0 1 3-2 4-1 8-2 5h2l-1 7-3 6 9-2-2 5 1 6h2l4 4 2 3h1l2 6 4 8v9l2 2 2 7 5 10 1 3 2 32-2 24-5 21-5 8-4 11-5 6-3 3-5 8h2l2 4 4 5v2h4v2l5 1v2l4-1 3 3 10 1v2l5 2 4 3v2l21 4 5 3 5 4 6 1-1 3-10 5h-17l-24 4-17 2-17 1v285l-2 1-58-7-57-9-36-7-43-10-42-12-41-14-24-10-21-10-24-14-16-12-12-11-9-12-4-9-1-4v-10l4-10 6-8 350-350 7-8 4-2 1-3h2l2-4 6-1 3-5h3 2l1-4h2z" fill="#309ED5"/>
<path transform="translate(1208,526)" d="m0 0 25 2 47 6 54 9 34 7 30 7 36 10 26 8 31 11 21 9 17 8 18 10 18 12 13 11 5 5 7 8 7 14 1 5v8l-4 10-6 8-16 16-7 1-9 6-23 13-28 13-24 10-29 10-33 10-31 8-36 8-25 5-39 7-60 8-15 1-5 1z" fill="#FBC911"/>
<path transform="translate(847,198)" d="m0 0 1 3-2 4-1 8-2 5h2l-1 7-3 6 9-2-2 5 1 6h2l4 4 2 3h1l2 6 4 8v9l2 2 2 7 5 10 1 3 2 32-2 24-5 21-5 8-4 11-5 6-3 3-5 8h2l2 4 4 5v2h4v2l5 1v2l4-1 3 3 10 1v2l5 2 4 3v2l21 4 5 3 5 4 6 1-1 3-10 5h-17l-24 4-17 2-47 5-38 5-49 8-53 11-36 9-35 10-38 13-29 12-15 7-25 14-11 8h-2l1-4 330-330 7-8 4-2 1-3h2l2-4 6-1 3-5h3 2l1-4h2z" fill="#1483C2"/>
<path transform="translate(474,706)" d="m0 0 5 2 17 12 20 11 28 13 23 9 22 8 33 10 38 10 35 8 43 8 53 8 52 6 46 4 16 1 2 2-30-1-17-1h-12l-4 1-18-2v2l16 1 10 8 8 5 6 5-1 7-2 5-1 4-13 8-10 8-4 7-3 9-3 3-10 1h-4v-2l-4-2-4-1-4 2-4 4-5 11h-2l1 10 1 3 3 3 3 7 4 16 3 9-1 8 2 1-1 10 2 11 2 1v10l-7 3v7l7 4-4 13-1 3 1 2-3-1v-2h-2l-2 2h-1l6 8 7 8 5 6 5 4 7 10 4 2 6 10 8 7 1 4 4 2 1 3 4 2 4 5 22 22-1 2-244-244-8-7-2-4-4-2-150-150z" fill="#FBC911"/>
<path transform="translate(1208,526)" d="m0 0 25 2 47 6 54 9 34 7 30 7 36 10 13 4 8 4 15 6 3 4v3h2v5l-4 1-6 3-8 1-4 4-7 1-5 4h-2v2l-7 3-4 3-10 8-9 5-10 7-11 7-4 3 2 2-12 8-6 1-4 11h-2v2l-6 2h-9l-4 2-2 4-2 5-8 2-2 5-20 5-10 3-10 4-7 6-10 4-8 7-18 12h-2l-2 5-10 8-6 2-2 4-6 8-2 4-3-1-3-9-1-15-1-37z" fill="#F49D1A"/>
<path transform="translate(834,534)" d="m0 0 2 3v2h2l2 8 1 198-2 1-58-7-57-9-36-7-43-10-21-6-2-2-20-6-17-6-5-2 1-3 6 1 11-3 2-4 2-2h3v-2l18-8 18-7 20-9 13-7 1-2 4-2 5-5 11-8 15-8 7-4 15-12 4-4 11-6 10-4 16-6 8-5 7-6 8-6 5-4 5-5h2l2-4 3-3 5-3 3-5h2v-2l6-2 4-4z" fill="#1483C2"/>
<path transform="translate(677,368)" d="m0 0 5 3v3l-4 4v6h2l5-2 1 3-3 8-2 4 4 1-1 2 3 1-2 11v15l4 9 1 4h14l3-1 7 1 3 5 4 4v2l4 1 4 2v2l6 2 2 4-6 9-8 4-25 6-14 3h-4v2l-37 9-33 9-40 13-37 15-15 7-25 14-11 8h-2l1-4 156-156 5-3 22-22 5 1 1-2 6-5z" fill="#0B78B9"/>
<path transform="translate(680,488)" d="m0 0 7 2-2 9-9 8-21 12-27 14-18 10-16 8-23 12-22 12-5 4-9 5-10 7-10 6-11 7-7 5-14 6-10 7-1 3h-2l1 4 1 5 3 1 5 5v2l4 2 3 2-1 2-10-8-10-9-8-10-6-12-1-4v-10l4-10 6-8 6-5 5-2 4-2v-2l18-12 11-6 22-11 25-11 22-8 18-7 26-8 26-7z" fill="#4EBBED"/>
<path transform="translate(824,622)" d="m0 0 4 1 3 4v3h2l1-2 5 27 1 19 1 71-2 1-58-7-39-6-3-1v-2l-12-1-25-5-9-5-2-3 4-1 6 1v-4l4-1v-3l4-6 3-3h4l2-4 9-3 5-1 23-2 4-1h6v-2l9-5h2l1-3 8-4 3-4 2-12 7-9 6-4 7-4h2l2-6 5-2 3-8z" fill="#0B78B9"/>
<path transform="translate(1324,315)" d="m0 0 3 1 4 5 8 7 223 223 8 7 5 6v2l-5-2-12-9-19-11-16-8-24-11-29-11-44-14-31-8 1-2 15 3 4-1 6 2 4 2v2l4-1 3-2-11-5-4-1-6-6 5-2-2-6 1-2v-7l-3-4-1-4-3-3-7-12-5-5-3-6-2-2-2-7-5-9 1-3 2-2-9-16-1-5-6-10-2-6-5-10v-3l-2-1-5-6v-2l-3-1-5-7-2-1v-2l-4-2-11-12-7-7z" fill="#4EBBED"/>
<path transform="translate(1022,15)" d="m0 0 3 1-8 7-53 53v-3zm-61 61 2 1-12 12v-3zm-13 13 2 1-60 60v-3zm-61 61 2 1-25 25v-3zm-26 26 2 1-26 26-4 7-4 1v-3l4-4h2l2-4z" fill="#3EACE0"/>
<path transform="translate(525,513)" d="m0 0v3l-7 8-8 7-14 14 7-1 5-4 24-12 13-4 16-6 11-4 4 1-21 8-22 9-15 7-25 14-11 8h-2l1-4z" fill="#1382C1"/>
<path transform="translate(635,403)" d="m0 0v3l-7 8-6 5-51 51-4 5-8 7-31 31-2-1z" fill="#208EC9"/>
<path transform="translate(525,513)" d="m0 0v3l-7 8-8 7-29 29v-3z" fill="#1F8DC9"/>
<path transform="translate(899,452)" d="m0 0 15 1-1 2-31 2h-7v-1l18-3z" fill="#36A4DA"/>
<path transform="translate(572,514)" d="m0 0 4 1-21 8-12 5-3-1 5-3 16-6z" fill="#1483C2"/>
<path transform="translate(479,559)" d="m0 0 1 2h2v2l-4 3h-2v2l-7 5h-2l2-4z" fill="#32A0D7"/>
<path transform="translate(840,735)" d="m0 0h1v10l-2 1-18-2v-1l16-1 2-2z" fill="#2B99D3"/>
<path transform="translate(574,464)" d="m0 0 2 1-9 10-8 7h-3z" fill="#1E8CC8"/>
<path transform="translate(660,380)" d="m0 0 2 1-2 6-5 3-3-1 6-7z" fill="#1483C2"/>
<path transform="translate(827,210)" d="m0 0 1 3-8 8-5 2 5-6h2l1-3h2z" fill="#34A2D9"/>
<path transform="translate(836,201)" d="m0 0 2 1-5 8-4 1v-3l4-4h2z" fill="#37A5DB"/>
<path transform="translate(894,453)" d="m0 0m-3 0 3 1-2 2-17 1v-1z" fill="#329FD6"/>
<path transform="translate(650,390)" d="m0 0v3l-3 5h-3v2l-3-1z" fill="#1382C1"/>
</svg>
