<?xml version="1.0" encoding="UTF-8"?>
<svg version="1.1" viewBox="0 0 1680 2048" width="452" height="551" xmlns="http://www.w3.org/2000/svg">
<path transform="translate(301)" d="m0 0h178l15 6 6 5 5 8 2 7 1 20v185l1 25 4 11 6 10 12 17 13 18 15 22 13 18 9 13 13 18 10 14 12 17 8 16 3 11 1 14v249l2 8 4 4 3 1 39 1 8-3 4-5 2-7v-159l5-15 7-11 11-13 8-8 7-8 10-11 9-11 6-7h2l2-4 9-10 8-10 4-8 1-4v-78l-2-4-2-1-55-1-13-3-8-6-6-10-3-10v-27l3-29 6-29 8-27 11-28 14-28 15-24 16-21 9-10 7-8 13-13 11-9 14-11 20-13 25-13 24-9 28-7 38-5h305l13 5 6 4 5 6 4 10 1 5 1 20v101l-1 23-3 12-5 8-6 5-8 3-13 1-95 1-8 2-10 6-8 7-7 8-6 7h-2l-2 4-1 5 10 21 12 28 13 30 32 72 10 22 2 11-4 5-16 8-15 9-9 6-5-1-6-8-20-46-13-30-9-20-19-45-8-16-2-3-7 1-10 7-10 9-8 10-7 14-4 13-2 15v36l3 22 4 14 7 16 9 14 10 11 7 8 13 13 7 8 11 12 36 42 7 8 12 14 9 10 7 10 4 8 3 11 1 11 1 88 1 3 4 2 96 1 21 1 10 3 6 4 6 8 3 9 1 7v141l-3 12-6 9-5 4-8 3-6 1-16 1h-42l-4 2-3 5-4 28-20 180-7 61-21 189-4 37v11l3 6 10 4 18 6 17 8 16 8 13 5 16 4 14 2h28l20-4 18-6 17-8 15-7 19-7 18-5 21-4 26-3h26l28 3 24 4 21 6 18 8 12 7 10 7 11 9 12 11 9 10 11 15 10 16 12 25 8 25 4 19 3 26 1 69v89l-1 76-4 30-5 21-7 20-11 23-7 11-10 14-10 13-17 17-13 10-18 11-18 8-17 5-15 3-14 2-23 1h-40l-26-1-20-3-18-5-28-11-19-9-19-6-17-3h-17l-20 3-20 6-28 11-31 10-27 6-21 4h-52l-15-3-24-3-20-5-20-8-12-6-12-9-12-11-7-8-5-6-11-8-14-3-690-1-14-3-9-8-4-8-4-17-6-51-8-73-9-80-10-88-16-142-18-158-13-115-17-147-18-158-3-6-6-3h-52l-12-2-10-5-6-7-6-17v-139l6-18 8-9 7-4 11-2 112-1 5-4 1-3 1-40v-190l1-40 5-14 6-11 10-14 36-51 14-20 36-51 8-13 3-13v-154l1-67 3-13 6-9 6-4zm651 67-23 2-23 5-17 6-16 7-18 11-14 10-13 11-13 12-9 11-8 9-16 24-12 23-10 26-5 18-3 16v11l3 4 3 1h214l9-3 9-7 8-8 8-7 18-18 8-7 7-7 11-9 19-14 14-12 12-14 8-14 5-13 3-16 1-13-2-35-3-9-3-1zm229 0-9 3-4 6-1 7v38l2 8 4 6 7 2h36l8-3 3-3 2-11v-32l-1-11-3-6-4-3-5-1zm-842 0-7 1-2 2-1 4v159l3 6 2 1h111l5-6v-160l-3-5-2-2zm-22 239-5 2-9 12-11 16-12 17-13 18-13 19-9 13-1 6 150 1h142l-1-6-8-12-36-51-11-15-11-16-5-4zm558 33-18 1-9 2-8 7-3 12v39l3 7 3 3 2 1h47l37 1h20l6-4 3-4 2-10v-24l-1-24-2-5-2-1-39-1zm-658 137-6 3-2 5v228l3 4 3 1 31 1h308l10-1 5-5 1-4v-222l-3-8-5-2zm610 0-9 4-6 5-9 11-9 10-9 11-15 16-9 11-7 7-6 11-1 4v142l2 5 5 4 117 1h128l104-1 5-3 1-3 1-70-2-13-6-9-12-14-11-12-9-11-13-14-7-8-26-30-10-11-9-11-11-12-7-8-9-9-8-3zm-753 304-10 5-5 6-2 6v22l1 22 3 10 5 3 222 1 6-2 5-5 3-7 1-11-2-38-4-6-3-3-5-1h-176l-27-2zm779 0-9 3-6 7-2 7v17l1 29 3 8 5 3h386l15-2 7-4 4-7 2-18v-28l-3-8-5-4-373-1zm-479 2-10 2-4 5-2 8v723l2 30 4 15 5 10 8 11h2v2l13 9 13 6 10 1 5-5 1-11 1-274 3-9 6-5 10-2h23l9 1 4 4v290l4 9 8 4h19l16-1h7l7-3 2-4 1-7v-199l1-76 2-10 5-5 5-2 6-1h27l8 2 2 3 1 13-1 247-1 26 2 8 7 8 3 1h20l5-1h19l6-3 2-4 1-18v-213l1-54 3-9 5-4 9-2h26l9 2 2 3 1 289 1 8 3 3 3 1h7l15-6 11-8 7-7 8-13 5-14 3-17 1-340 2-14 4-11 6-7 6-3 4-1h8l13 4 20 11 19 11 23 13 26 15 22 12 14 7 7 2h9l11-4 8-6v-2h2l6-9 4-14v-19l-3-10-5-8-6-7-15-10-28-16-25-14-24-14-27-15-62-35-10-9-6-10-3-11-1-234-4-6-3-2-8-1zm-216 137-4 4-1 2 1 16 11 95 10 90 10 88 15 131 12 107 11 98 9 80 11 97 10 91 8 68 3 17 6 7 7 2 173 1h358l100-1 1-1-1-9-4-28-3-38-1-64 1-136 3-33 6-29 8-23 11-24 12-19 8-10 9-11 12-11 13-10 17-10 19-9 23-7 23-4 30-2 9-4 4-6 3-20 10-88 18-160 12-109 9-80 4-36-1-8-5-4h-312l-5 3-3 4-1 4 1 68 3 6 8 6 17 10 27 15 24 14 27 15 17 10 28 16 19 12 10 8 4 2 2 4 8 9 9 15 7 17 4 19 1 10v15l-3 21-7 21-9 17-10 13-8 8-14 10-15 7-10 3-8 1h-19l-14-3-13-5-16-8-22-12-24-14-20-11-3-1-1 243-1 48-2 22-4 17-6 17-8 16-7 11-11 13-11 10-11 7-15 8-16 5-19 3-63 1h-145l-111-1-16-3-16-6-16-9-10-8-12-11-13-17-9-17-6-16-5-21-2-15-1-14v-602l-2-5-5-5zm949 579-37 2-19 3-16 5-16 8-14 11-12 12-10 13-8 14-6 12-7 21-4 20-1 8v27l3 17 4 15 6 16 8 15 10 14 9 10 8 7 12 9 16 8 19 6 23 4 7 1h47l23-4 20-6 16-6 30-14 19-7 14-4 18-3h37l22 4 19 6 45 20 18 6 21 5 28 3h25l31-3 16-4 13-5 15-8 11-8 13-13 7-8 11-18 8-18 6-22 3-19v-34l-4-21-5-15-8-16-10-16-10-11-5-6-10-8-11-7-17-8-19-5-23-4-10-1h-37l-20 3-20 5-16 6-18 8-19 9-21 7-19 4-20 2h-18l-25-3-19-5-22-8-27-13-18-7-21-5-14-2zm-150 291v61l3 22 5 19 6 16 10 19 10 13 7 8h2v2l8 7 14 9 18 8 17 4 23 4 22 2h18l17-2 22-5 19-7 29-14 25-9 16-4 19-3h40l20 3 19 5 22 8 27 13 18 7 22 5 19 2h22l29-3 24-4 13-4 15-8 14-11 14-14 11-15 9-17 6-17 4-16 3-21v-61l-5 2-11 8-15 11-16 8-18 8-18 6-22 5-22 3h-40l-27-4-20-5-25-9-36-15-22-6-10-2-10-1h-31l-18 3-17 5-21 9-21 10-21 7-24 5-18 2h-40l-33-4-26-5-15-5-21-11-17-12-11-9-8-6z" fill="#2A2C30"/>
<path transform="translate(1480,1570)" d="m0 0h31l9 2 5 5 1 6v40l-3 9-4 3-13 2h-23l-9-2-4-5-2-6v-40l3-9 5-4z" fill="#2A2C30"/>
<path transform="translate(1183,1570)" d="m0 0h26l10 2 6 4 1 3v50l-5 6-14 2h-22l-10-2-4-5-2-7v-40l3-8 7-4z" fill="#2A2C30"/>
<path transform="translate(1364,1604)" d="m0 0h28l9 2 3 3 2 6 1 29-1 14-4 8-3 3-8 1h-29l-9-2-3-4-1-4v-48l3-5 5-2z" fill="#2A2C30"/>
<path transform="translate(1065,1604)" d="m0 0h28l9 2 4 4 1 4v46l-5 8-2 1-9 1h-31l-6-2-3-4-1-5v-45l3-6 6-3z" fill="#2A2C30"/>
</svg>
