<svg xmlns="http://www.w3.org/2000/svg" xmlns:xlink="http://www.w3.org/1999/xlink" width="2000" zoomAndPan="magnify" viewBox="0 0 1500 1499.999933" height="2000" preserveAspectRatio="xMidYMid meet" version="1.0"><defs><clipPath id="5e2114d014"><path d="M 726 421 L 1312.5 421 L 1312.5 1079 L 726 1079 Z M 726 421 " clip-rule="nonzero"/></clipPath><clipPath id="aa5f10bc90"><path d="M 187.5 0 L 1149 0 L 1149 1500 L 187.5 1500 Z M 187.5 0 " clip-rule="nonzero"/></clipPath></defs><g clip-path="url(#5e2114d014)"><path fill="#fffdfd" d="M 1242.1875 421.875 L 796.875 421.875 C 758.203125 421.875 726.5625 453.515625 726.5625 492.1875 L 726.5625 1007.8125 C 726.5625 1046.484375 758.203125 1078.125 796.875 1078.125 L 1242.1875 1078.125 C 1280.859375 1078.125 1312.5 1046.484375 1312.5 1007.8125 L 1312.5 492.1875 C 1312.5 453.515625 1280.859375 421.875 1242.1875 421.875 Z M 1265.625 1007.8125 C 1265.625 1020.703125 1255.078125 1031.25 1242.1875 1031.25 L 796.875 1031.25 C 783.984375 1031.25 773.4375 1020.703125 773.4375 1007.8125 L 773.4375 492.1875 C 773.4375 479.296875 783.984375 468.75 796.875 468.75 L 1242.1875 468.75 C 1255.078125 468.75 1265.625 479.296875 1265.625 492.1875 Z M 1265.625 1007.8125 " fill-opacity="1" fill-rule="nonzero"/></g><path fill="#fffdfd" d="M 421.875 512.109375 C 421.875 486.328125 400.78125 465.234375 375 465.234375 L 328.125 465.234375 C 302.34375 465.234375 281.25 486.328125 281.25 512.109375 L 281.25 558.984375 C 281.25 584.765625 302.34375 605.859375 328.125 605.859375 L 375 605.859375 C 400.78125 605.859375 421.875 584.765625 421.875 558.984375 Z M 328.125 558.984375 L 328.125 512.109375 L 375 512.109375 L 375 558.984375 Z M 328.125 558.984375 " fill-opacity="1" fill-rule="nonzero"/><path fill="#fffdfd" d="M 656.25 480.46875 L 492.1875 480.46875 C 479.296875 480.46875 468.75 491.015625 468.75 503.90625 C 468.75 516.796875 479.296875 527.34375 492.1875 527.34375 L 656.25 527.34375 C 669.140625 527.34375 679.6875 516.796875 679.6875 503.90625 C 679.6875 491.015625 669.140625 480.46875 656.25 480.46875 Z M 656.25 480.46875 " fill-opacity="1" fill-rule="nonzero"/><path fill="#fffdfd" d="M 492.1875 597.65625 L 609.375 597.65625 C 622.265625 597.65625 632.8125 587.109375 632.8125 574.21875 C 632.8125 561.328125 622.265625 550.78125 609.375 550.78125 L 492.1875 550.78125 C 479.296875 550.78125 468.75 561.328125 468.75 574.21875 C 468.75 587.109375 479.296875 597.65625 492.1875 597.65625 Z M 492.1875 597.65625 " fill-opacity="1" fill-rule="nonzero"/><path fill="#fffdfd" d="M 421.875 699.609375 C 421.875 673.828125 400.78125 652.734375 375 652.734375 L 328.125 652.734375 C 302.34375 652.734375 281.25 673.828125 281.25 699.609375 L 281.25 746.484375 C 281.25 772.265625 302.34375 793.359375 328.125 793.359375 L 375 793.359375 C 400.78125 793.359375 421.875 772.265625 421.875 746.484375 Z M 328.125 746.484375 L 328.125 699.609375 L 375 699.609375 L 375 746.484375 Z M 328.125 746.484375 " fill-opacity="1" fill-rule="nonzero"/><path fill="#fffdfd" d="M 492.1875 714.84375 L 656.25 714.84375 C 669.140625 714.84375 679.6875 704.296875 679.6875 691.40625 C 679.6875 678.515625 669.140625 667.96875 656.25 667.96875 L 492.1875 667.96875 C 479.296875 667.96875 468.75 678.515625 468.75 691.40625 C 468.75 704.296875 479.296875 714.84375 492.1875 714.84375 Z M 492.1875 714.84375 " fill-opacity="1" fill-rule="nonzero"/><path fill="#fffdfd" d="M 492.1875 785.15625 L 609.375 785.15625 C 622.265625 785.15625 632.8125 774.609375 632.8125 761.71875 C 632.8125 748.828125 622.265625 738.28125 609.375 738.28125 L 492.1875 738.28125 C 479.296875 738.28125 468.75 748.828125 468.75 761.71875 C 468.75 774.609375 479.296875 785.15625 492.1875 785.15625 Z M 492.1875 785.15625 " fill-opacity="1" fill-rule="nonzero"/><path fill="#fffdfd" d="M 421.875 887.109375 C 421.875 861.328125 400.78125 840.234375 375 840.234375 L 328.125 840.234375 C 302.34375 840.234375 281.25 861.328125 281.25 887.109375 L 281.25 933.984375 C 281.25 959.765625 302.34375 980.859375 328.125 980.859375 L 375 980.859375 C 400.78125 980.859375 421.875 959.765625 421.875 933.984375 Z M 328.125 933.984375 L 328.125 887.109375 L 375 887.109375 L 375 933.984375 Z M 328.125 933.984375 " fill-opacity="1" fill-rule="nonzero"/><path fill="#fffdfd" d="M 492.1875 902.34375 L 656.25 902.34375 C 669.140625 902.34375 679.6875 891.796875 679.6875 878.90625 C 679.6875 866.015625 669.140625 855.46875 656.25 855.46875 L 492.1875 855.46875 C 479.296875 855.46875 468.75 866.015625 468.75 878.90625 C 468.75 891.796875 479.296875 902.34375 492.1875 902.34375 Z M 492.1875 902.34375 " fill-opacity="1" fill-rule="nonzero"/><path fill="#fffdfd" d="M 492.1875 972.65625 L 609.375 972.65625 C 622.265625 972.65625 632.8125 962.109375 632.8125 949.21875 C 632.8125 936.328125 622.265625 925.78125 609.375 925.78125 L 492.1875 925.78125 C 479.296875 925.78125 468.75 936.328125 468.75 949.21875 C 468.75 962.109375 479.296875 972.65625 492.1875 972.65625 Z M 492.1875 972.65625 " fill-opacity="1" fill-rule="nonzero"/><path fill="#fffdfd" d="M 421.875 1074.609375 C 421.875 1048.828125 400.78125 1027.734375 375 1027.734375 L 328.125 1027.734375 C 302.34375 1027.734375 281.25 1048.828125 281.25 1074.609375 L 281.25 1121.484375 C 281.25 1147.265625 302.34375 1168.359375 328.125 1168.359375 L 375 1168.359375 C 400.78125 1168.359375 421.875 1147.265625 421.875 1121.484375 Z M 328.125 1121.484375 L 328.125 1074.609375 L 375 1074.609375 L 375 1121.484375 Z M 328.125 1121.484375 " fill-opacity="1" fill-rule="nonzero"/><path fill="#fffdfd" d="M 492.1875 1089.84375 L 656.25 1089.84375 C 669.140625 1089.84375 679.6875 1079.296875 679.6875 1066.40625 C 679.6875 1053.515625 669.140625 1042.96875 656.25 1042.96875 L 492.1875 1042.96875 C 479.296875 1042.96875 468.75 1053.515625 468.75 1066.40625 C 468.75 1079.296875 479.296875 1089.84375 492.1875 1089.84375 Z M 492.1875 1089.84375 " fill-opacity="1" fill-rule="nonzero"/><path fill="#fffdfd" d="M 492.1875 1160.15625 L 609.375 1160.15625 C 622.265625 1160.15625 632.8125 1149.609375 632.8125 1136.71875 C 632.8125 1123.828125 622.265625 1113.28125 609.375 1113.28125 L 492.1875 1113.28125 C 479.296875 1113.28125 468.75 1123.828125 468.75 1136.71875 C 468.75 1149.609375 479.296875 1160.15625 492.1875 1160.15625 Z M 492.1875 1160.15625 " fill-opacity="1" fill-rule="nonzero"/><path fill="#fffdfd" d="M 375 1215.234375 L 328.125 1215.234375 C 302.34375 1215.234375 281.25 1236.328125 281.25 1262.109375 L 281.25 1308.984375 C 281.25 1334.765625 302.34375 1355.859375 328.125 1355.859375 L 375 1355.859375 C 400.78125 1355.859375 421.875 1334.765625 421.875 1308.984375 L 421.875 1262.109375 C 421.875 1236.328125 400.78125 1215.234375 375 1215.234375 Z M 328.125 1308.984375 L 328.125 1262.109375 L 375 1262.109375 L 375 1308.984375 Z M 328.125 1308.984375 " fill-opacity="1" fill-rule="nonzero"/><path fill="#fffdfd" d="M 890.625 1230.46875 L 492.1875 1230.46875 C 479.296875 1230.46875 468.75 1241.015625 468.75 1253.90625 C 468.75 1266.796875 479.296875 1277.34375 492.1875 1277.34375 L 890.625 1277.34375 C 903.515625 1277.34375 914.0625 1266.796875 914.0625 1253.90625 C 914.0625 1241.015625 903.515625 1230.46875 890.625 1230.46875 Z M 890.625 1230.46875 " fill-opacity="1" fill-rule="nonzero"/><path fill="#fffdfd" d="M 468.75 1324.21875 C 468.75 1337.109375 479.296875 1347.65625 492.1875 1347.65625 L 984.375 1347.65625 C 997.265625 1347.65625 1007.8125 1337.109375 1007.8125 1324.21875 C 1007.8125 1311.328125 997.265625 1300.78125 984.375 1300.78125 L 492.1875 1300.78125 C 479.296875 1300.78125 468.75 1311.328125 468.75 1324.21875 Z M 468.75 1324.21875 " fill-opacity="1" fill-rule="nonzero"/><path fill="#fffdfd" d="M 1166.015625 604.6875 L 943.359375 844.921875 L 873.046875 769.921875 C 863.671875 760.546875 849.609375 759.375 840.234375 768.75 C 830.859375 778.125 829.6875 792.1875 839.0625 801.5625 L 926.953125 895.3125 C 931.640625 900 937.5 902.34375 944.53125 902.34375 C 951.5625 902.34375 957.421875 900 962.109375 895.3125 L 1202.34375 637.5 C 1211.71875 628.125 1210.546875 612.890625 1201.171875 604.6875 C 1190.625 595.3125 1175.390625 595.3125 1166.015625 604.6875 Z M 1166.015625 604.6875 " fill-opacity="1" fill-rule="nonzero"/><g clip-path="url(#aa5f10bc90)"><path fill="#fffdfd" d="M 1101.5625 1429.6875 C 1101.5625 1442.578125 1091.015625 1453.125 1078.125 1453.125 L 257.8125 1453.125 C 244.921875 1453.125 234.375 1442.578125 234.375 1429.6875 L 234.375 304.6875 C 234.375 291.796875 244.921875 281.25 257.8125 281.25 L 398.4375 281.25 L 398.4375 339.84375 C 398.4375 352.734375 408.984375 363.28125 421.875 363.28125 L 914.0625 363.28125 C 926.953125 363.28125 937.5 352.734375 937.5 339.84375 L 937.5 281.25 L 1078.125 281.25 C 1091.015625 281.25 1101.5625 291.796875 1101.5625 304.6875 L 1101.5625 375 L 1148.4375 375 L 1148.4375 304.6875 C 1148.4375 266.015625 1116.796875 234.375 1078.125 234.375 L 937.5 234.375 L 937.5 175.78125 C 937.5 162.890625 926.953125 152.34375 914.0625 152.34375 L 830.859375 152.34375 C 825 66.796875 754.6875 0 667.96875 0 C 581.25 0 510.9375 66.796875 505.078125 152.34375 L 421.875 152.34375 C 408.984375 152.34375 398.4375 162.890625 398.4375 175.78125 L 398.4375 234.375 L 257.8125 234.375 C 219.140625 234.375 187.5 266.015625 187.5 304.6875 L 187.5 1429.6875 C 187.5 1468.359375 219.140625 1500 257.8125 1500 L 1078.125 1500 C 1116.796875 1500 1148.4375 1468.359375 1148.4375 1429.6875 L 1148.4375 1125 L 1101.5625 1125 Z M 667.96875 46.875 C 728.90625 46.875 778.125 93.75 783.984375 152.34375 L 551.953125 152.34375 C 557.8125 93.75 607.03125 46.875 667.96875 46.875 Z M 445.3125 199.21875 L 890.625 199.21875 L 890.625 316.40625 L 445.3125 316.40625 Z M 445.3125 199.21875 " fill-opacity="1" fill-rule="nonzero"/></g></svg>