<?xml version="1.0" encoding="UTF-8"?>
<svg version="1.1" viewBox="0 0 2048 1312" width="512" height="328" xmlns="http://www.w3.org/2000/svg">
<path transform="translate(1941)" d="m0 0 11 1 18 5 16 8 13 10 12 12 9 13 9 16 6 15 4 15 2 21-2 18-5 15-8 15-7 9-2 3h-2l-2 4-10 8-15 9-21 11-60 30-52 25-64 32-23 11-33 16-54 27-28 13-17 8-19 10-16 8-27 13-23 11-60 30-18 6-10 2h-20l-22-4-18-7-14-5 7 28 7 24 5 23 3 16 3 19 4 46v42l-4 45-6 36-6 28-10 35-11 32-15 37-16 34-10 18-6 12-17 28-16 24-12 17-12 16-7 9-11 13-8 10-13 14-7 8-34 34-11 9-8 8-22 18-12 10-15 11-20 14-19 13-19 12-22 13-17 10-26 14-32 16-42 18-28 11-34 12-42 12-32 8-46 9-35 5-44 5-12 2h-86l-21-4-31-3-44-6-46-9-24-6-30-9-32-11-27-11-18-8-17-8-22-12-20-12-19-12-17-12-19-14-15-13-14-12-8-8-8-7-36-36-9-11-8-9-9-12-12-17-15-24-10-18-12-23-13-28-11-30-3-11-3-9v-20l5-17 8-20 13-24 8-12 8-10 10-12 3-6v-8l-10-37-8-41-4-29-2-26v-12l2-21 5-15 8-14 9-11 12-9 16-8 16-4 16-3 6-3 5-6 2-9 1-237 3-16 6-17 10-18 10-13 11-10 16-11 16-7 16-4 9-1h18l15 2 18 6 14 7 16 12 10 10 9 13 8 15 5 16 3 21v87l2 46 5 54 6 39 7 35 4 12 5 3 8-1 24-11 28-13 50-22 24-10 7-6v-13l-4-26-2-17-1-31 3-32 5-25 11-33 9-20 13-25 14-22 13-18 6-7 3-2 5 1 5 4v2l4 2 8 8 11 9 6 8 3 8-3 9-7 9-10 11-9 15-8 16-6 14-6 18-4 17-3 18-1 14v21l2 21 4 17 3 6 6-1 27-10 26-9 31-11 48-15 40-12 43-12 66-17 54-12 45-9 49-9 40-6 51-5 30-2 27-1h50l29 2 26 3 25 5 21 6 17 6 7 3h6l4-4 1-6-3-31 2-26 4-15 8-17 8-11 9-10 7-7 17-12 14-8 19-9 41-18 28-13 29-13 19-9 24-11 32-15 60-28 28-13 25-12 25-11 25-12 18-8 26-12 17-8 33-15 23-10 17-8 14-5 16-3zm-8 63-16 6-34 16-35 16-34 16-65 30-18 8-15 7-36 17-35 16-18 8-16 8-36 16-41 20-10 5 1 4 7 7 10 13 8 14 5 12 4 15 4 19 5 1 19-10 39-19 19-10 66-33 44-21 80-40 23-11 41-20 27-13 16-8 21-11 9-7 5-6 2-6v-17l-4-12-9-16-10-10-9-4zm-1703 193-13 4-11 7-8 9-6 12-1 4-1 16-1 225-3 21-6 15-7 11-9 10-11 8-10 5-16 5-20 4-10 5-5 8-1 10 3 35 4 28 7 33 8 27 11 31 12 26 12 22 10 15 11 14 12 14 8 8 14 11 14 10 19 11 21 9 18 6 14 3 17 3h26l25-3 71-11 50-10 52-13 9-4-2-4-22-12-19-12-16-11-16-12-11-9-14-12-18-18-9-11-11-13-14-19-11-17-11-18-13-23-8-16-9-20-13-36-13-43-8-32-9-48-6-44-4-48-1-27v-97l-3-12-5-10-9-10-10-6-14-4zm1215 32-9 2-10 5-8 7-7 10-5 13-1 8h7l16-5 6-1h11l10 4 6 7 5 13-1 8-5 12-9 13v3l10-1 10-3 10-5 10-9 6-9 3-9 1-5v-15l-5-15-6-9-4-5-8-6-10-5-14-3zm-289 129-44 3-70 8-46 7-52 10-55 12-42 10-54 15-41 12-22 7-38 12-41 14-24 8-17 8-4 4-1 9 6 12 13 19 1 6-7 8-13 13-14 9-5 2-6-1-7-4-13-18-12-21-6-8-2-1h-8l-19 8-57 26-39 17-18 8-6 4-3 5 1 10 6 15 8 17 13 23 9 15 10 14 9 12 11 13 7 8 13 14 8 7 11 10 13 10 23 16 18 10 16 8 20 9 36 12 25 6h7l19-5 37-12 59-21 45-17 20-8 41-16 30-12 28-11 17-8 16-10 12-9 11-9 5-4 7-8 12-13 11-15 13-20 7-12 11-23 9-21 8-25 8-34 5-28 5-16 7-14 9-12 11-11 14-9 8-4 15-5 12-2h20l20 4 18 8 12 9 9 8 8 11 8 15 5 15 4 21 1 10 3 3 6-4 12-12 8-11 10-11 11-16 8-15 4-14v-14l-5-10-5-6-11-7-13-6-19-6-20-4-22-3-43-3zm20 97-9 1-11 6-5 6-7 14-5 21-5 25-9 32-9 26-11 26-1 6 5-1 18-11 20-12 21-12 11-7 10-9 9-14 6-18 5-28v-26l-6-12-5-5-8-5-5-2zm177 54-8 6-36 36-11 9-12 11-14 11-18 14-20 14-29 19-19 12-28 17-22 13-25 14-22 12-25 13-19 10-26 13-28 13-23 11-36 16-36 15-50 20-35 13-42 15-44 15-38 12-59 18-50 14-64 16-65 14-40 7-59 9-45 5-40 3-19 1h-63l-48-4-13-2h-10l1 5 7 11 13 18 13 16 11 12 7 8 17 17 8 7 8 8 11 9 16 13 18 13 27 18 15 9 19 11 30 15 38 16 36 12 32 9 37 8 32 5 34 4 24 2h87l31-2 35-4 40-6 38-8 37-10 29-9 30-11 36-15 26-12 30-15 16-9 14-8 18-11 14-9 15-10 16-11 19-14 14-11 10-8 13-11 11-9 16-15 7-7 2-1v-2l4-2 10-10v-2h2l7-8 9-9 7-8 8-9 7-9 10-12 13-18 12-17 7-11 13-21 14-25 11-22 14-33 6-15 11-34 6-22 7-31 6-36 2-16 1-16v-45l-2-22zm-1269 284-7 6-8 14-4 8-3 11v12l3 8 7 8 7 6 19 9 16 5 25 5 6 1h11l1-2-9-11-12-13-9-10-13-17-12-18-10-14-7-8z" fill="#282A2E"/>
<path transform="translate(269,774)" d="m0 0 8 2 6 4 6 7 7 15 8 16 7 10 12 14 10 9 14 11 12 9 5 6-1 7-12 17-9 14-5 6-5 4-5-1-13-9-13-11-8-7-10-9-10-10-9-11-10-13-8-13-8-15-6-15-7-25v-8l3-1 34-2z" fill="#282A2E"/>
</svg>
