<?xml version="1.0" encoding="UTF-8"?>
<svg version="1.1" viewBox="0 0 2048 607" width="1200" height="356" xmlns="http://www.w3.org/2000/svg">
<path transform="translate(0)" d="m0 0h2048v607h-2048z" fill="#FCFCFD"/>
<path transform="translate(651,68)" d="m0 0h1294l15 4 17 9 12 11 9 13 5 11 4 15v340l-2 10-5 13-6 10-9 10-7 7-13 8-15 5-7 1h-1295l2-5 13-21 12-21 12-23 12-28 10-28 8-30 5-26 3-25v-57l-4-31-8-36-9-29-12-30-16-33-13-23-12-19z" fill="#0182CA"/>
<path transform="translate(326,2)" d="m0 0h24l34 3 26 5 25 7 22 8 24 11 18 10 15 10 16 12 14 12 21 21 9 11 12 16 13 20 7 12-1 5-10 6-183 183-8 7-80 80-6 4-4-2-113-113-8-7-21-21-10-6-3-1h-12l-7 3-6 4-13 12-14 14-6 9-2 8 1 9 5 10 116 116 8 7 70 70 10 6 4 1h7l10-3 8-6 80-80 8-7 157-157 8-7 40-40 5-6h2l3 26v34l-3 29-5 26-7 24-8 22-12 24-12 20-11 16-11 14-12 14-11 12-8 7-13 11-15 11-19 12-21 11-24 10-21 7-28 7-25 4-10 1-30 1-30-2-30-5-25-7-19-7-18-8-25-13-19-12-17-13-13-11-21-21-9-11-10-13-13-20-10-18-10-21-9-24-7-23-5-25-2-14-1-13v-35l3-27 6-29 8-27 11-27 9-19 12-20 10-14 11-14 14-15 13-13 22-18 18-12 13-8 25-13 27-11 27-8 23-5z" fill="#0182CA"/>
<path transform="translate(824,334)" d="m0 0h1090l3 3-1 7-2 2h-1091l-1-1v-9z" fill="#F2FBFE"/>
<path transform="translate(829,142)" d="m0 0h37l16 1 12 5 8 7 5 9 2 9v89l-2 10-5 10-7 7-12 5-5 1h-56l-1-1-1-62-9-6v-15l7-2h3v-66z" fill="#FCFCFD"/>
<path transform="translate(1629,142)" d="m0 0h40l14 2 12 5 7 7 4 9v31l-5 9-7 6h-2l13 13 4 10 1 9v19l-2 9-5 10-8 8-8 4-10 2h-56l-1-10v-49l1-93z" fill="#FCFCFD"/>
<path transform="translate(1307,140)" d="m0 0h10l17 4 9 6 6 7 4 9 2 12 1 34v18l-1 24-2 16-3 9-9 10-11 5-8 2h-25l-12-4-8-6-5-6-4-10-1-5v-72l1-26 4-10 7-8 12-6z" fill="#FCFCFD"/>
<path transform="translate(1866,140)" d="m0 0h11l13 3 12 6 8 9 3 8 1 6 1 40v23l-1 27-3 14-5 8-7 6-12 5-5 1h-25l-12-4-6-4-7-8-4-10-2-11v-41l1-48 3-10 6-8 8-6 11-4z" fill="#FCFCFD"/>
<path transform="translate(1381,142)" d="m0 0h20l7 2 4 8 16 51 6 18 1 2 1-80 6-1h17l4 4 1 6-1 2v130l-1 10-1 1h-27l-5-6-9-29-14-43-7-22v-2h-2l1 13v87l-1 2h-20l-5-4-1-4v-141l2-3z" fill="#FCFCFD"/>
<path transform="translate(950,142)" d="m0 0h29l8 1 4 5 7 36 14 74 6 32v4l-2 1h-24l-5-4-2-11-1-8-4-3h-29l-4 21-4 5h-24l-1-5 19-100 8-42 2-5z" fill="#FCFCFD"/>
<path transform="translate(1752,142)" d="m0 0h32l6 2 5 22 9 49 14 73v7h-27l-3-4-3-10-1-9-1-2-30-1-3 7-3 15-4 4h-23l-1-1 1-13 8-42 9-47 8-44 3-5z" fill="#FCFCFD"/>
<path transform="translate(1165,142)" d="m0 0h21l4 4v60l30 1v-63l6-2h18l6 1v151l-1 1h-26l-4-5-1-7 1-1 1-51-28 1-2 6-1 56-1 1h-27l-1-1v-150z" fill="#FCFCFD"/>
<path transform="translate(1516,140)" d="m0 0h11l16 4 10 6 6 7 4 9 1 9v13l-1 5-4 2h-21l-2-2-1-18-3-8-6-2h-8l-7 4-1 1v97l4 4 5 1 13-2 3-9 1-28h-10l-3-3v-16l4-4 21-2h10l5 3 2 4-1 48-2 11-4 8-7 7-10 5-8 2-16 1-13-2-10-4-10-9-4-11-1-4-1-14v-66l1-18 4-12 7-8 11-6z" fill="#FCFCFD"/>
<path transform="translate(1739,387)" d="m0 0h7l4 4-2 9-3 6-8 7-2 1 1 5 3 16v20l-3 12-6 11-7 7-10 5-6 2h-12l-13-5-8-7-5-7-4-10-3-16 1-9 1-10 4-13 8-11 11-7 10-3h9l12 4 8 5h7l2-6h2v-8z" fill="#F2FBFD"/>
<path transform="translate(1073,142)" d="m0 0h71l5 2 2 2v16l-2 4h-28v126l-3 3h-24l-4-5v-123l-27-2-2-3v-17l1-2z" fill="#FCFCFD"/>
<path transform="translate(827,395)" d="m0 0h7l2 1 32 1 7 3 6 5 4 8 1 4v8l-4 8-5 6h-2l4 5 5 5 4 7 1 8-4 13-7 8-9 4-16 1h-27l-3-3v-88z" fill="#F2FBFD"/>
<path transform="translate(1763,395)" d="m0 0h5l8 9 12 19 18 27 7 12v2h2v-66l5-3 6 1 3 2v90l-5 2h-7l-5-4-10-16-15-23-12-18-4-4v63l-1 1h-13v-92z" fill="#F2FBFD"/>
<path transform="translate(1204,395)" d="m0 0 6 1 6 5 6 10 33 51v2h2v-66l4-3 6 1 4 2v90l-7 2-8-1-7-10-11-18-21-32-2-5h-2v60l-1 4-8 2-5-1-1-86-1-5z" fill="#F2FBFD"/>
<path transform="translate(1656,391)" d="m0 0h10l2 3-2 11-4 7-9 6-8 3-1 44-4 11-7 8-8 5-11 3h-10l-11-3-8-6-6-7-3-9-1-6v-62l4-4 7 1 4 3v62l2 10 7 6 8 2h8l8-4 5-6 1-4v-12l1-1-1-33 1-6-1-2v-11l5-5 7 1 3 2v9l6-2 3-3z" fill="#F2FBFD"/>
<path transform="translate(1865,163)" d="m0 0h11l6 4 3 6 1 31v30l-1 31-3 5-5 4-10 1-7-3-4-6-1-4v-86l2-7 5-5z" fill="#0182CA"/>
<path transform="translate(1880,394)" d="m0 0h8l12 3 6 3 6 5 5 8 2 6v5l-4 1h-7l-4-5-6-9-5-3h-15l-7 3-5 6-3 8-2 14v9l3 15 6 10 6 4 7 2h10l9-3 2-3v-18h-16l-4-4v-5l4-4h28l3 4 1 4v15l-2 11-3 6-7 6-9 3-6 1h-11l-12-3-11-7-8-11-4-16-1-11v-9l3-16 5-10 9-9 11-5z" fill="#F2FBFD"/>
<path transform="translate(1320,394)" d="m0 0h8l13 3 8 5 6 7 4 9v6l-11 1-6-9-5-6-3-2h-17l-7 4-4 5-3 9-1 7v21l4 13 6 7 7 4 12 1 10-2 4-6-1-14-1-1-15-1-3-2v-7l4-4h27l3 4v27l-3 8-8 7-9 3-7 1h-9l-13-3-11-7-7-10-4-12-1-15v-12l2-13 5-10 8-9 10-5z" fill="#F2FBFD"/>
<path transform="translate(937,405)" d="m0 0 12 2 7 5 5 8 3 13v20l-2 11-6 10-9 6-3 1h-11l-10-5-6-9-4-15v-18l4-15 4-6 6-5z" fill="#0182CA"/>
<path transform="translate(1138,406)" d="m0 0h12l7 3 7 6 4 10 1 5v26l-3 12-5 7-6 4-7 2-11-1-8-4-5-6-4-11-2-8v-16l4-14 4-8 8-6z" fill="#0182CA"/>
<path transform="translate(1697,405)" d="m0 0h9l10 5 7 8 2 6 1 7v27l-4 11-7 8-10 4h-8l-9-3-7-8-4-11-1-5v-22l3-11 4-8 6-5z" fill="#0182CA"/>
<path transform="translate(1305,163)" d="m0 0h11l6 4 3 5 1 49 2 3h-2l-1 42-6 7-2 1h-13l-6-4-2-5-1-20v-66l2-10 6-5z" fill="#0182CA"/>
<path transform="translate(1491,395)" d="m0 0 5 1 3 2 1 36h43v-36l6-3 6 1 3 3-1 90h-13l-1-13v-28h-40l-3 1-1 40h-14v-91z" fill="#F2FBFD"/>
<path transform="translate(854,164)" d="m0 0h14l7 2 4 5 1 47v37l-1 11-5 5-8 3h-12l-5-5v-39l5-2 9-1 3-3v-13l-12-1-5-3v-41z" fill="#0182CA"/>
<path transform="translate(1139,394)" d="m0 0h9l12 3 9 7 6 7 4 8 3 11v26l-3 11-6 11-7 7-12 6-4 1h-13l-11-4-10-9-5-8-5-15-1-4v-17l4-15 6-12 4-5 10-6zm-1 12-7 3-5 4-5 10-3 12v16l4 15 5 8 5 4 10 3 10-1 6-3 5-5 3-4 3-12v-26l-4-13-6-7-5-3-4-1z" fill="#F2FBFD"/>
<path transform="translate(935,394)" d="m0 0 13 1 9 4 8 6 6 8 4 11 1 7v25l-3 13-6 9-4 5-10 6-8 3h-14l-12-5-8-7-6-10-4-13-1-6v-17l4-15 5-10 5-6 9-6zm2 11-10 3-8 7-4 10-2 9v18l4 15 6 9 10 5h11l3-1 9-6 6-10 2-11v-20l-3-13-6-9-6-4z" fill="#F2FBFD"/>
<path transform="translate(1055,394)" d="m0 0h8l12 3 9 6 7 9 3 8v6l-5 2h-6l-10-16-5-4h-16l-8 4-4 8v5h-2l-1 2v31l4 12 5 5 5 3h17l6-4 8-16 11 1 1 1-1 8-6 12-8 7-10 4-6 1h-9l-13-4-10-9-5-8-3-9-1-5v-30l3-10 7-11 8-7 10-4z" fill="#F2FBFD"/>
<path transform="translate(1404,395)" d="m0 0h66l3 2 1 7-1 3-27 1-1 2-1 79h-14l-1-79-1-2-27-1v-10z" fill="#F2FBFD"/>
<path transform="translate(1654,225)" d="m0 0h13l8 3 5 6 1 7v19l-2 7-6 5-4 2h-17l-3-5v-42z" fill="#0182CA"/>
<path transform="translate(123,238)" d="m0 0h16l8 4 7 8 1 3v10l-4 8-6 5-3 1h-14l-9-4-7-8-2-5v-7l3-7 5-5z" fill="#F2FBFE"/>
<path transform="translate(351,70)" d="m0 0 10 1 6 4 4 5 2 7v10l-3 10-8 7-2 1h-12l-8-5-4-6-2-7v-9l3-8 6-7z" fill="#F2FBFD"/>
<path transform="translate(138,190)" d="m0 0 7 1 29 15 3 2-3 9-2 2-17 1-6 2 15 8 1 4-5 7-6-2-14-8-17-9 1-7 3-4 11-1h14v-2l-6-2-11-6-1-4z" fill="#F2FBFD"/>
<path transform="translate(215,111)" d="m0 0 5 1 14 19 9 12v3l-6 5h-6l-18-8 6 10 2 6-4 6h-4l-7-8-14-19-3-7 6-5 4-1 21 9-9-14 1-6z" fill="#F2FBFD"/>
<path transform="translate(487,112)" d="m0 0 6 1 3 3-1 24 4-4 7-9 4-1 5 7-2 5-14 19-7 9-5-1-5-5v-7l2-15 1-2-5 4-6 8-1 1h-7l-4-3 1-4 14-19 7-9z" fill="#F2FBFD"/>
<path transform="translate(990,112)" d="m0 0 5 2 6 4 2 4-6 9-6 4-4 1h-13l-13-3h-8l-6 5-10-5-3-3 1-7 4-5 8-4 3-1h12l14 4 5-1z" fill="#F2FBFD"/>
<path transform="translate(842,445)" d="m0 0h16l9 2 7 6 2 5v9l-4 7-7 5-9 1h-14l-5-2-1-8v-21l3-3z" fill="#0182CA"/>
<path transform="translate(304,74)" d="m0 0h10l6 3 4 6-1 4-2 1h-6l-7-4h-5l-1 4v11l4 8 1 1h6l1-5-5-3-1-5 7-3h7l6 4 1 10-3 7-6 4-8 2-10-1-7-4-5-10-1-3v-14l4-7 5-4z" fill="#F2FBFD"/>
<path transform="translate(1765,173)" d="m0 0 2 1 3 9 9 51 2 13h-27l-1-4 10-57z" fill="#0182CA"/>
<path transform="translate(1301,111)" d="m0 0 22 1 9 7 7 8 6 5 1 4h-23l-7-4-5-6-5 4-5 5-2 1h-18l-5-1 2-4 9-10 9-8z" fill="#F2FBFD"/>
<path transform="translate(966,174)" d="m0 0 2 2 3 13 9 49 1 9h-27l-1-7 11-57z" fill="#0182CA"/>
<path transform="translate(1654,164)" d="m0 0h11l8 3 4 4 2 6v10l-2 8-5 5-5 4-11 3-5-3-2-2v-35z" fill="#0182CA"/>
<path transform="translate(843,406)" d="m0 0h17l7 3 4 4 2 4v8l-4 7-4 3h-4l-1 3h-11l-9-1-3-3-1-17 2-8z" fill="#0182CA"/>
<path transform="translate(250,92)" d="m0 0h7l2 2-1 4-5 4-8 4h-2l3 5 6-1 4-2 6 1 1 4-4 5-7 3 1 5 3 1 9-4 7 1 3 4-3 3-22 11-4-2-15-30-1-8 17-9z" fill="#F2FBFD"/>
<path transform="translate(383,71)" d="m0 0 8 1 3 4 3 22 1 1 10-21 7-1 5 2-1 7-14 25-5 7-7 1-5-2-2-4-5-37v-4z" fill="#F2FBFD"/>
<path transform="translate(442,88)" d="m0 0 7 1 3 3-1 14-3 12 6-5 9-11 4-3 7 2 3 2-1 4-13 13-7 8-8 7h-8l-5-3 1-10 4-31z" fill="#F2FBFD"/>
<path transform="translate(154,170)" d="m0 0 4 1 14 10 6 5h5l4-6 3-3h5l4 3-2 4-8 11-4 5-7 1-9-6-15-12-6-5 1-5z" fill="#F2FBFE"/>
<path transform="translate(1820,395)" d="m0 0 6 1 3 2v90l-5 2h-7l-5-4-1-5 1 2 5 2 5-1 3-4v-42l-1-16v-11l1-10h-5l-2 2 1 6v47l-3 4-1-26v-36z" fill="#F9FCFD"/>
<path transform="translate(1770,112)" d="m0 0h28l1 2-8 7-11 10-8 5h-16l-2-1 2-5 9-12z" fill="#F2FBFD"/>
<path transform="translate(177,140)" d="m0 0 5 2 22 22 6 5-2 4-5 4-7-4-23-23-1-3z" fill="#F2FBFD"/>
<path transform="translate(350,79)" d="m0 0h6l4 2 2 4 1 9-2 9-5 4h-6l-3-3-2-7v-7l3-9z" fill="#0182CA"/>
<path transform="translate(123,248)" d="m0 0h11l8 3 5 8-2 4-5 4-8-1-7-2-5-3-1-2v-7z" fill="#0182CA"/>
<path transform="translate(371,85)" d="m0 0 2 2v10l-3 10-8 7-2 1h-12l-8-5-4-6 1-3 2 4 17 1 4-3 3-15 5 4 2-2z" fill="#FAFCFD"/>
<path transform="translate(1138,373)" d="m0 0h12l5 5 8 9v3h-9l-8-7-3-2-4 6-3 3-11 1 1-4z" fill="#F2FBFE"/>
<path transform="translate(933,373)" d="m0 0h11l7 6 7 8v3h-10l-6-5-2-4h-2l-7 8-7 2-4-1 1-4 6-8z" fill="#F2FBFE"/>
<path transform="translate(1316,112)" d="m0 0h7l9 7 7 8 6 5 1 4h-23l-7-4-5-6v-3h5l9 6h5l-1-5-4-5-9-6z" fill="#FBFCFD"/>
<path transform="translate(1758,406)" d="m0 0h1l1 6 1 22v42l1 5 5-1 2-1v-45h1v55h-10l-2-1z" fill="#FCFCFD"/>
<path transform="translate(316,600)" d="m0 0h48v2l-7 1-1 4h-37z" fill="#F2FBFE"/>
<path transform="translate(1261,395)" d="m0 0 6 1 3 1v18h-1l-1-12-4-4-4 3 1 9v47l-3 3-1-47v-16z" fill="#FDFDFD"/>
<path transform="translate(936,497)" d="m0 0h5l4 4 1 7-5 5-7-1-3-4v-8z" fill="#F2FBFE"/>
<path transform="translate(192,156)" d="m0 0 4 2v3l-3 3 2 4 7-1 3-1 5 3-2 4-5 4-7-4-9-9 1-4z" fill="#FBFCFD"/>
<path transform="translate(1308,124)" d="m0 0 1 3-5 6-5 3h-18l-5-1 2-4 4 1 16-3z" fill="#FAFCFD"/>
<path transform="translate(1372,144)" d="m0 0h1l1 8-1 2-1 133h-1v-141z" fill="#F2FBFE"/>
<path transform="translate(1902,335)" d="m0 0h13l2 2-1 7-1 1h-16v-3l3-2z" fill="#FCFCFD"/>
<path transform="translate(990,112)" d="m0 0 5 2 6 4 2 4-6 9-6 4h-7l5-5 5-4h2v-9l-6-1-2-1v-2z" fill="#FBFCFD"/>
<path transform="translate(1772,113)" d="m0 0h27l-12 12-6 5-3-1 6-8h2l-1-4-13-3z" fill="#FBFCFD"/>
<path transform="translate(1816,403)" d="m0 0 3 6v47l-3 4z" fill="#FDFDFD"/>
<path transform="translate(1269,474)" d="m0 0h1l1 5v9l-7 2-8-1-3-4 1-3 7 3 6-2z" fill="#FBFCFD"/>
<path transform="translate(1442,470)" d="m0 0h1v18l-2 1h-9l-1-1v-8l4 2 4-1 2-4z" fill="#FDFDFD"/>
<path transform="translate(1307,140)" d="m0 0h10v1l-8 1 1 2 6 1v1l-9 1 7 2 3 2-3 1h-10l-3-1 1-5h2v-3l-4-2z" fill="#F2FBFE"/>
<path transform="translate(1261,395)" d="m0 0 6 1 3 1v18h-1l-1-12-4-4-4 3-2 12h-1v-16z" fill="#F9FCFD"/>
<path transform="translate(415,114)" d="m0 0 5 1 1 4-3 5-1 1h-5l-2-5 2-4z" fill="#FAFCFD"/>
<path transform="translate(280,116)" d="m0 0 5 1 3 3-1 5-5 2-4-4v-5z" fill="#FAFCFD"/>
<path transform="translate(1211,479)" d="m0 0h1v9l-8 2-5-1 1-8 1 2h7z" fill="#FBFCFD"/>
<path transform="translate(1904,417)" d="m0 0 9 2 5-1 1 1v5l-4 1h-7l-4-5z" fill="#FAFCFD"/>
<path transform="translate(217,154)" d="m0 0h3l1 5-4 6h-4l-3-3v-3l5-3z" fill="#FBFCFD"/>
<path transform="translate(465,139)" d="m0 0h2l1 3 7 3-2 4h-7l-4-3 1-4z" fill="#FBFCFD"/>
<path transform="translate(349,600)" d="m0 0h15v2l-7 1-1 4h-8l-1-2z" fill="#F2FBFE"/>
<path transform="translate(1069,151)" d="m0 0h12l2 1-1 4-2 1h-7l-5-5z" fill="#F2FBFE"/>
<path transform="translate(250,92)" d="m0 0h7l2 2-1 4-5 4h-4z" fill="#FAFCFD"/>
<path transform="translate(931,504)" d="m0 0 4 2 1 1h9l-1 4-3 2-7-1-3-4z" fill="#FAFCFD"/>
<path transform="translate(1755,131)" d="m0 0h3l1 2h8l8-2 1 3-4 2h-16l-2-1z" fill="#F8FCFD"/>
<path transform="translate(1062,143)" d="m0 0 4 1h-3l1 3-1 3 4 1-1 3h-2l-1 10-2-2v-17z" fill="#F2FBFE"/>
<path transform="translate(487,112)" d="m0 0 6 1 3 3v7l-2 2-4-8-4-2z" fill="#FAFCFD"/>
<path transform="translate(1472,399)" d="m0 0 2 1-1 7-11-1 3-3z" fill="#FBFCFD"/>
<path transform="translate(851,398)" d="m0 0 8 2 2 2v3l-11-1-3-1v-3h4z" fill="#FDFDFD"/>
<path transform="translate(1357,418)" d="m0 0h2v6l-11 1-2-2 1-3 5 1z" fill="#FAFCFD"/>
<path transform="translate(1358,463)" d="m0 0h1v10l-3 8-4 2 3-10z" fill="#FAFCFD"/>
<path transform="translate(473,102)" d="m0 0 4 1-1 4-9 9h-2l2-5 3-3 2-1z" fill="#F9FCFD"/>
<path transform="translate(846,439)" d="m0 0h12l-2 4-10 1z" fill="#FDFDFD"/>
<path transform="translate(257,109)" d="m0 0h5l1 4-3 4h-3l-1-7z" fill="#FBFCFD"/>
<path transform="translate(345,601)" d="m0 0 4 1-1 5h-13l3-2 5-2z" fill="#FDFDFD"/>
<path transform="translate(1289,429)" d="m0 0 1 3v16l-2 1-1-4v-12z" fill="#F9FCFD"/>
<path transform="translate(884,418)" d="m0 0h1v10l-4 6h-2l1-6 3-5z" fill="#FAFCFD"/>
<path transform="translate(100,337)" d="m0 0h1v20l-2-3-1-9z" fill="#F2FBFE"/>
<path transform="translate(884,473)" d="m0 0 1 4-7 8-4 2-3-1 5-3h2l2-4z" fill="#F9FCFD"/>
<path transform="translate(963,254)" d="m0 0 10 2 4-1v2l-2 1h-12z" fill="#F2FBFE"/>
<path transform="translate(1496,483)" d="m0 0h2v5l-6 1-1-3z" fill="#FDFDFD"/>
<path transform="translate(1658,411)" d="m0 0 2 1v2l-5 3h-4l1-3z" fill="#FAFCFD"/>
<path transform="translate(823,335)" d="m0 0h2l1 7-2 3h-2v-9z" fill="#F9FCFD"/>
<path transform="translate(1519,272)" d="m0 0h10l-4 3h-6l-2-2z" fill="#F2FBFE"/>
</svg>
