<?xml version="1.0" encoding="UTF-8"?>
<svg version="1.1" viewBox="0 0 2048 2048" width="1280" height="1280" xmlns="http://www.w3.org/2000/svg">
<path transform="translate(0,338)" d="m0 0h153l780 1 79 2 62 1 232 2h197l465-2h80v1367h-32l-98-1h-156l-1557 1h-205z" fill="#2A59B7"/>
<path transform="translate(179,1192)" d="m0 0h900l855 1h88l26 1v515h-32l-98-1h-156l-1557 1h-205v-516z" fill="#D5022D"/>
<path transform="translate(179,1192)" d="m0 0h900l855 1h88l26 1v170l-32 1-76 1h-1940v-173z" fill="#D5022D"/>
<path transform="translate(2016,1364)" d="m0 0h32v170h-2048v-168l1940-1z" fill="#F9F9F9"/>
<path transform="translate(2036,1023)" d="m0 0h12v171h-162l-848-1h-1038v-116h855l160-1 6-2v-40l1-10h43l93 1h142l193-1h84l148 1h126z" fill="#F9F9F9"/>
<path transform="translate(1025,850)" d="m0 0 18 2h955l50 1v170l-4 1-202 2h-117l-156-1h-76l-193 1h-142l-93-1-42-1-1-3 1-81z" fill="#D5022D"/>
<path transform="translate(1025,509)" d="m0 0 52 1h662l309 1v172h-1013l-11-1v-140z" fill="#D5022D"/>
<path transform="translate(1025,682)" d="m0 0h1017l6 1v170h-1007l-15-2-1-1-2-43-1-35v-36l1-52z" fill="#F9F9F9"/>
<path transform="translate(1021,342)" d="m0 0h53l232 2h197l465-2h80v169h-971l-46-1-6-1-2-15-2-54z" fill="#F9F9F9"/>
<path transform="translate(0,1697)" d="m0 0h45l5 1h20l17-1h12l9 1 2 1v-2l9 1 1-1 11 1 1-1h67l3 1 8-1h45l3 1 5-1 2 1 5-1h53l2 1 12-1 9 1h48l6 1 13-1 3 1 9-1 1 1h5l4-1 11 2 1-2h18l4 2 8-1h9l1 3h2v-2l11-1h36l7-1 6 1h30 2 12l8 1 10-1h3l6 1 8-1h25l3 2 1-1 5-2 5 1v2l13-3 1 2 4-2v2l4 1 6-2h11l3 3v-2l9-1h9v3h2l-1-3 7 1h2l8-1h8l2 1v2h2v-2l12-1h32l1 1 6-2 9 1h38l2-1v2l5-1h25 3l5 1v2h2v-2l15-1h50l2 2 1-1 17-1 2 2 12-2 7 1v2l2-2 21-1h60l6 1 16-1 1 1 4-1 1 1h5v2h2v-2l10-1h22l2 1v2h2v-2h6v2h2v-2l14-1 4 1v2h2v-2h17l3 2v-2h19 1 26v2l4-2 2-2v2l6-1 8 1v2h2v-2h3l1-2v2l4-1 10 1v2h2v-2l10-1 8 1v2h2v-2l16-1 4 3v-2h8l8-1 2 1v2h2v-2h18v2h2v-2h9l1 1 2-2h4l6 1 6-1v2l10-1h12v2h3v-2h5v2h2v-2h15l5-1 4 2 7-1 6-1 7 2 1-1h17v2h3v-2h10l5-1 3 2 1-1 21-1h22l13 1 13-1 9 1 10-1h4l4 1 12-1h3l8 1 7-1h18 3l23-1h8l4 1 4-1h30l5-1 15 1 4-1 5 1 3-1 5 1 1-1h76 4 23l3 1h57 4l11 1 3-1 7 1 2-1 8 1h34v2l10-1h9l4-1 5 1 13-1 4 1v9h-32l-98-1h-156l-1557 1h-205z" fill="#F22650"/>
<path transform="translate(199,1187)" d="m0 0h1164l202 1h345l59 1 28 1 46 1 5 1v2h-162l-848-1h-1038v-3l114-2z" fill="#DEC9D3"/>
<path transform="translate(849,476)" d="m0 0h7l5 5 5 17 5 8v2l15-2h8l9 3 4 5v10l-5 5h-2v2l-10 4-4 1v2l-8 4v8l8 16 6 13 1 8-3 3-5-2-8-5v-2l-4-2-14-10-5-4h-7l-8 6-5 2v2l-9 6-10 4h-7v-5l5-8 4-10 2-10v-10h-2l-5-5-10-6-8-7-1-6 3-6 6-3 5-1h25l1-6 3-12 6-9 5-4z" fill="#F8F7F8"/>
<path transform="translate(622,476)" d="m0 0h7l6 4 2 6 2 11 7 11h24l8 3 4 5 1 7-5 6-4 2-12 3-8 4-1 1v10l8 16 7 15v6l-4 1-20-10-12-9-3-3-7-1-7 5h-2l-1 3-10 7-11 5h-8l-1-4 2-3h2l1-5 3-4 3-11v-15l-1-4h-2v-2l-5-2-12-6-5-4v-6l4-6 6-3 9-1h21l2-16 6-12z" fill="#F8F7F8"/>
<path transform="translate(396,475)" d="m0 0 7 1 5 4 3 7 2 11 6 8v2h23l10 3 4 3 1 7-2 5-3 3-20 6-4 1-1 11 11 23 3 11-1 5-6-1-9-4-9-6-12-9-2-1h-6l-8 5h-2v2l-8 6h-3v2h-3v2l-5 3-6 1-5-2v-5l7-10 4-12v-18l-2-3-17-7-6-5v-6l4-6 4-2 6-1 27-1 1-1 1-19 4-7 5-5z" fill="#F8F7F8"/>
<path transform="translate(1021,349)" d="m0 0h1l1 80 2 60 2 19 296-2 46-1 130-1h22l65-1 66-3 38-1 38 1 54-1 40 1h27l15 1h24l9 1 51 2 38 2 56 2 6 1v2h-971l-46-1-6-1-2-15-2-54z" fill="#EEDCDC"/>
<path transform="translate(169,473)" d="m0 0 4 1 3 1v2l4 1 4 7 2 12 6 9v2l12 1h16l7 3 4 3v8l-2 4-23 8-4 3v8l7 16 4 10 1 1v11l-5 1-9-3-11-6-9-7-7-5-5 1-11 9-13 10-5 2-6-1-3-3 1-5 8-10 4-11v-13l-3-7-20-8-5-5 1-7 4-4 6-2 25-1 9-2 1-23 4-8z" fill="#F8F7F8"/>
<path transform="translate(0,338)" d="m0 0h153l780 1 79 2v1l-47 2-98 1-249 1h-293l-325-1z" fill="#756DAF"/>
<path transform="translate(849,659)" d="m0 0h7l4 6 6 24 3 4 13-1 13-3 7 1 6 4 1 5-5 7-10 6-7 4h-2v2l-5 3-2 3v8l4 9 7 15v2h2l2 5v6l-4 1-10-4-10-8-8-6-7-4h-8l-5 3h-2l-1 3h-2v2l-8 7-9 4h-6l-4-3 1-6 6-8 6-18v-10l-5-2-11-8-12-7-6-7v-4l3-2h18l26 1 2-4 2-11 1-1 2-14 4-3z" fill="#F8F8F8"/>
<path transform="translate(394,658)" d="m0 0h6l7 7 5 14 2 13 13 1 10-1v-2l5-1h9l6 4 1 7-3 3h-2l-1 3-10 6-12 8-4 5 3 13 8 16 2 5v6l-2 2h-6l-7-5-10-6-5-5-7-3h-8l-5 3h-2v2l-5 3-3 5-9 4-3 2h-6l-5-3-1-4 7-8 5-8 3-10v-8l-3-5-12-9-11-7-7-5v-6l3-3 12 1 33 1 2-7 1-18 2-8z" fill="#F8F7F8"/>
<path transform="translate(169,656)" d="m0 0 5 1 5 5 5 10 4 17 1 3h13l9-2 1-1h15l5 3v7l-3 5-6 4h-2v2l-17 10-3 3 1 9 8 19 3 8v7l-1 1h-7l-8-4-13-11-9-4h-8l-9 7-5 5-3 1v2l-9 4-6-1-5-4 1-5 5-5 4-2 1-4 2-3 1-14v-7l-4-2-14-11-12-8-2-2 1-6 1-1 13 1h28l6-1 2-26 1-7z" fill="#F8F7F8"/>
<path transform="translate(621,658)" d="m0 0h6l4 2 4 8 5 19v5h12l14-3h10l2 1v2l4 2 2 2-1 5-10 8h-3v2l-3 2h-3v2l-9 6-2 3v10l4 10 8 15 1 7-1 1h-7l-11-6-17-13h-8l-9 5-4 2-2 4-5 4-10 3h-4l-4-2-1-5 2-4 4-4 4-9 3-10 1-8-4-2-10-8-15-10-6-6 1-4 3-1 45 1 2-13 2-17 4-5z" fill="#F8F6F7"/>
<path transform="translate(394,841)" d="m0 0h6l6 3 2 3 2 15 1 6h2l4 7 10 2h20l7 3 2 2-1 8-5 5-11 4-9 4h-2v2h-2v9l13 26-1 9-5 1-12-4-10-9-5-6-3-2-5 1-14 11h-2l-1 3-7 3h-3v2l-3 2h-6l-8-4 1-5 8-7h2l1-8 4-16v-8l-5-2-16-6-4-5v-9l3-3 3-1 33-1 1-3 1-18 4-9z" fill="#F7F6F7"/>
<path transform="translate(167,838)" d="m0 0 5 1 8 7 3 9 3 12 4 8 3 1 31 1 5 3 1 1v7l-4 6-11 5-12 5-1 1v10l8 18 3 6v8l-2 2h-10l-8-4-8-7-3-4v-2l-6-2-6 1-6 4h-2l-1 3h-2l-2 4-3 1v2l-9 5-4 1-10-4-1-5 3-4h2l2-4 3-3 2-4 1-9v-14l-4-3-14-5-6-6v-7l4-4 21-2 17-1 1-23 1-10 2-4z" fill="#F8F7F8"/>
<path transform="translate(622,842)" d="m0 0h6l6 6 2 13 8 16h30l5 3 1 1-1 9-3 5-17 6-5 3h-2l-1 8 5 12 6 11 2 3 1 15-5-1-9-3v-2l-5-2v-2l-5-2-7-7-4-5h-6l-14 12-8 6-10 3-4-1-8-3v-3l7-6 4-7 2-12 2-5v-10l-16-7-6-2-3-3v-9l5-4 29-2 4-1 1-2h2l1-14 4-11 4-5z" fill="#F8F7F8"/>
<path transform="translate(851,841)" d="m0 0h4l4 6 3 12 2 10 4 5 1 3h10l8-1h13l4 2 1 2v6l-4 9-17 7-5 3-1 1v10l4 9 6 13 2 8v9l-2 1-7-4v-2l-4-1-2-1v-2l-4-1-5-5-5-4v-2l-4-2v-2l-7-1-8 6h-2l-2 4-6 4h-2v2l-6 3-11 2-5-2 1-5 5-11 6-20v-8l-4-2-17-8-3-3v-6l4-4h3v-2l5-1 22-2 6-1 1-6 1-2 1-11 5-9 5-5z" fill="#F8F7F8"/>
<path transform="translate(1477,845)" d="m0 0h221l213 1 74 1 48 2 15 1v3h-1007l-15-2v-3l25 1h83l194-2z" fill="#EDDBDB"/>
<path transform="translate(1017,1072)" d="m0 0h5l-1 3-6 2-160 1h-728l-127-1v-3l445-1h552z" fill="#746CAF"/>
<path transform="translate(252,1531)" d="m0 0h1568l216 1 6 1v1h-2007v-1l25-1z" fill="#CFB7CB"/>
<path transform="translate(179,1192)" d="m0 0h900l855 1h88v1l-124 2h-510l-364-1h-1009l-15-1v-1z" fill="#F32550"/>
<path transform="translate(1027,509)" d="m0 0 50 1h662l308 1v1l-25 1-100 1h-206l-4-1-1 2-15-1h-132l-8-1-1 2v-2l-3 1h-78l-1 1h-5v-2h-11l-13 1h-11l-13-1-18 1-1-1-2 2-3-1-21-1-108-1h-66l-72 1-19 1-6 2h-25v2l-5 1-3-3-4 1v1h-7l1-3h-4v-3l-7 1h-14l-7 1h-3z" fill="#F32550"/>
<path transform="translate(1026,851)" d="m0 0 17 1h955l29 1v1l-6 1h-689l-168-1h-133l-5-2z" fill="#F32550"/>
<path transform="translate(1490,849)" d="m0 0h285l188 1h42l43 1v2h-1007l-11-1v-1h31l124-1z" fill="#C2A7C4"/>
<path transform="translate(593,339)" d="m0 0h340l79 2v1l-47 2-98 1h-178l-1-1h-83l-31-1h-28l1-3h43z" fill="#7970B0"/>
<path transform="translate(1020,1072)" d="m0 0h2l-1 3-6 2-160 1h-728l-127-1v-2h817l197-1z" fill="#C2A7C4"/>
<path transform="translate(1238,508)" d="m0 0h619l167 1 24 1v1h-413l-509-1v-1z" fill="#C2A7C4"/>
<path transform="translate(1022,1072)" d="m0 0 1 3-7 4-5 1h-21l-61-1-124 1h-595l-111-1-32-1v-1h788l160-1 6-2z" fill="#EEDCDC"/>
<path transform="translate(1321,1531)" d="m0 0h499l216 1 6 1v1h-223l-19-1h-633v-1z" fill="#EDDBDB"/>
<path transform="translate(593,339)" d="m0 0h120v2h9l1 2-35 1h-83l-31-1h-28l1-3h43z" fill="#B9A0C1"/>
<path transform="translate(761,1531)" d="m0 0h395l10 1v1l-263 1h-142l-3-2z" fill="#E9D6D9"/>
<path transform="translate(1027,509)" d="m0 0 50 1h124v2l-72 1-19 1-6 2h-25v2l-5 1-3-3-4 1v1h-7l1-3h-4v-3l-7 1h-14l-7 1h-3z" fill="#F2244F"/>
<path transform="translate(2016,1364)" d="m0 0h32v2l-19 1-82 1h-91l-44-1v-1l128-1z" fill="#DFCAD3"/>
<path transform="translate(1816,1531)" d="m0 0 220 1 6 1v1h-223l-3-1z" fill="#D8C1D0"/>
<path transform="translate(1021,349)" d="m0 0h1l1 80 2 60 2 19h98v2l-5 1h-43l-46-1-6-1-2-15-2-54z" fill="#C1ACC7"/>
<path transform="translate(836,691)" d="m0 0 1 3-7 2-11 1-2 1h-16l-13-2v-2l3-2h18l26 1z" fill="#DAC4D1"/>
<path transform="translate(2016,1364)" d="m0 0h32v2l-19 1h-21l-68-1v-1z" fill="#D0B8CB"/>
<path transform="translate(761,1531)" d="m0 0h70l1 2-7 1h-64l-3-2z" fill="#EAD8DA"/>
<path transform="translate(163,661)" d="m0 0h1l-1 21-2 10-6 2h-28l-12-2v-1h41l3-1 3-27z" fill="#8B7DB5"/>
<path transform="translate(838,859)" d="m0 0h1v8l-3 8-6 2-22 2h-5v2l-5 2-1 2v6l2 3-4-2v-9l4-5 5-2 8-1 19-1 4-4 1-4h2z" fill="#7C72B1"/>
<path transform="translate(838,678)" d="m0 0 1 3-2 10-2 3-26-1h-18-3l5-3h35l5-1 1-3h2z" fill="#756DAF"/>
<path transform="translate(162,847)" d="m0 0h1l-1 23-1 6-4 1-27 2-9 1 1-2 4-2 32-2 1-2 1-18z" fill="#9D8DBB"/>
<path transform="translate(567,690)" d="m0 0 44 2v2l-9 1-38-1 1-3z" fill="#9A89B9"/>
<path transform="translate(529,339)" d="m0 0 9 1 7 1v2h-39l1-3h16l3 1z" fill="#C2A7C4"/>
<path transform="translate(903,1531)" d="m0 0h34l2 2-10 1h-27l-5-1v-1z" fill="#E5D1D7"/>
<path transform="translate(812,937)" d="m0 0 2 4 2 5h11l-3 2-11 2-5-2 1-5z" fill="#DAC4D1"/>
<path transform="translate(895,689)" d="m0 0 7 1 6 4-1 2-4-3-19 1-1 1h-12v-1z" fill="#D4BDCE"/>
<path transform="translate(547,340)" d="m0 0h24l4 2-1 1h-28z" fill="#C2A7C4"/>
<path transform="translate(384,490)" d="m0 0h1v17l-2 2h-27v-1l9-1h17l-1-3 2-3z" fill="#746CAF"/>
<path transform="translate(587,937)" d="m0 0 3 9 4 3-5 1-9-4v-3z" fill="#E8D5D9"/>
<path transform="translate(797,1531)" d="m0 0h34l1 2-7 1h-21l-9-1z" fill="#E8D5D9"/>
<path transform="translate(587,508)" d="m0 0h17v1l-12 2-15 1-5 3-2 1 2-4 6-3z" fill="#D4BECF"/>
<path transform="translate(356,509)" d="m0 0h24v1l-18 2h-14l2-2z" fill="#D8C1D0"/>
<path transform="translate(662,937)" d="m0 0 2 1 1 15-5-1-9-3v-2l10 2 1-10z" fill="#C6AEC7"/>
<path transform="translate(805,877)" d="m0 0h17v1l-19 1v2l-5 2-1 2v6l2 3-4-2v-9l4-4z" fill="#C3ABC6"/>
<path transform="translate(162,847)" d="m0 0h1l-1 23-1 6h-3l1-4 1-18z" fill="#9F8EBB"/>
<path transform="translate(886,874)" d="m0 0h9l2 2-18 2h-10l-1-2h7z" fill="#9484B7"/>
<path transform="translate(115,691)" d="m0 0h14v2h26v1h-28l-12-2z" fill="#B59DC0"/>
<path transform="translate(529,339)" d="m0 0 9 1 7 1v2h-19z" fill="#C0A5C3"/>
<path transform="translate(212,714)" d="m0 0 2 1-8 6-3 5-1 6-2-4v-5l7-6z" fill="#9081B6"/>
<path transform="translate(160,487)" d="m0 0h1v18l-1 2h-2v-2l-2-1 2-4 1-12z" fill="#9182B7"/>
<path transform="translate(141,902)" d="m0 0 3 2v14l-1 9-3 5-1-2 2-7 1-16z" fill="#935C94"/>
<path transform="translate(807,508)" d="m0 0h12l-4 2-17 3-3 2 2-4z" fill="#D6BFCE"/>
<path transform="translate(487,340)" d="m0 0h15l3 1v2h-19z" fill="#C2A7C4"/>
<path transform="translate(702,339)" d="m0 0h11v2h9l1 2h-17l1-3h-5z" fill="#C2A7C4"/>
<path transform="translate(607,504)" d="m0 0h2l-1 4-29 1v-1l7-1 19-1z" fill="#8176B2"/>
<path transform="translate(213,573)" d="m0 0h1v11l-5 1-9-3 2-1h10z" fill="#CAB3CA"/>
<path transform="translate(384,490)" d="m0 0h1v17l-2 2-3-1h2l-1-4 2-3z" fill="#8478B3"/>
<path transform="translate(888,941)" d="m0 0h1l1 5v9l-2 1-5-3 2-1 3 1z" fill="#D4BDCE"/>
<path transform="translate(838,859)" d="m0 0h1v8l-3 8-4 1 2-4 2-6h2z" fill="#A18EBB"/>
<path transform="translate(434,716)" d="m0 0 2 1-6 5-2 3-1 6h-1l-1-7z" fill="#8D7EB5"/>
<path transform="translate(761,1531)" d="m0 0h7v2l4 1h-11l-3-2z" fill="#D5BECE"/>
<path transform="translate(748,1531)" d="m0 0h13l-3 2-5 1-7-1z" fill="#E8D5D9"/>
</svg>
