<?xml version="1.0" encoding="UTF-8"?>
<svg version="1.1" viewBox="0 0 2048 2048" width="1280" height="1280" xmlns="http://www.w3.org/2000/svg">
<path transform="translate(2033,341)" d="m0 0h15v1365h-2048v-1364z" fill="#D50227"/>
<path transform="translate(1023,633)" d="m0 0 3 3 16 49 20 61 14 43 11 35 11 33 8 25 8 24 7 2 63 1h101l120-1-2 4-11 7-19 14-11 8-15 11-11 8-17 12-8 6-15 11-18 13-11 8-15 11-18 13-11 8-36 26-13 10-2 2 1 8 11 33 10 31 14 43 20 62 8 25 18 56 5 15v3l-5-2v-2l-5-2-18-13-15-11-33-24-19-14-14-10-99-72-20-14-7-4-12 7-13 10-13 9-34 25-10 7-15 11-14 10h-2v2l-13 9-30 22-54 39-17 12-5 5h-4l3-9 10-32 10-31 23-70 10-31 16-49 16-50 1-6-5-2-14-10-16-12-11-8-17-12-19-14-36-26-19-14-54-39-19-14-19-13-5-4v-2h289l2-2 12-36 13-41 17-53 12-36 23-71z" fill="#FED94B"/>
</svg>
