<?xml version="1.0" encoding="UTF-8"?>
<svg version="1.1" viewBox="0 0 2048 2048" width="1280" height="1280" xmlns="http://www.w3.org/2000/svg">
<path transform="translate(0,340)" d="m0 0h2048v1367h-2048z" fill="#0051B2"/>
<path transform="translate(0,340)" d="m0 0h2048v456l-2039 1-9-1z" fill="#D50325"/>
<path transform="translate(0,1252)" d="m0 0h2047l1 1v454h-2048z" fill="#D50325"/>
<path transform="translate(1019,834)" d="m0 0h11l23 2 20 4 24 8 17 8 19 12 13 10 10 9 10 10 11 14 7 10 9 15 9 21 5 16 4 17 2 11 1 11v27l-4 25-6 21-8 20-9 17-11 16-12 14-9 10-8 7-13 10-14 9-15 8-20 8-22 6-18 3-11 1h-21l-22-3-22-5-22-8-23-12-17-12-14-12-9-9-9-11-9-12-9-15-9-19-8-24-4-19-2-17v-28l4-25 6-21 8-20 10-18 9-13 8-10 9-10 8-8 11-9 14-10 17-10 21-9 20-6 22-4z" fill="#FDFDFD"/>
<path transform="translate(0,340)" d="m0 0h2048l-1 3h-2047z" fill="#B80933"/>
<path transform="translate(2035,340)" d="m0 0h13l-1 3h-51v-2z" fill="#BA0933"/>
<path transform="translate(2035,340)" d="m0 0h13l-1 3h-21v-2z" fill="#811E59"/>
</svg>
