<svg xmlns="http://www.w3.org/2000/svg" xmlns:xlink="http://www.w3.org/1999/xlink" width="2000" zoomAndPan="magnify" viewBox="0 0 1500 1499.999933" height="2000" preserveAspectRatio="xMidYMid meet" version="1.0"><defs><clipPath id="3597e17bad"><path d="M 2 56.25 L 1489 56.25 L 1489 1500 L 2 1500 Z M 2 56.25 " clip-rule="nonzero"/></clipPath></defs><g clip-path="url(#3597e17bad)"><path fill="#ffffff" d="M 1484.851562 1092.625 C 1478.144531 1070.460938 1463.855469 1051.214844 1444.316406 1038.386719 C 1424.78125 1025.847656 1401.453125 1020.597656 1378.414062 1023.804688 C 1378.414062 1023.804688 863.433594 1094.082031 863.433594 1094.082031 C 866.351562 1093.5 865.476562 1073.378906 865.476562 1070.753906 C 864.601562 1024.097656 830.773438 982.6875 785.867188 971.605469 L 531.878906 911.242188 C 510.007812 905.996094 487.261719 906.871094 465.972656 912.992188 L 187.195312 996.101562 L 183.699219 984.144531 C 175.242188 955.566406 144.914062 939.238281 116.335938 947.695312 L 40.808594 970.148438 C 27.105469 974.230469 15.441406 983.5625 8.734375 996.101562 C 2.027344 1008.933594 0.277344 1023.511719 4.652344 1037.21875 L 131.207031 1461.507812 C 135.289062 1475.214844 144.621094 1486.878906 157.160156 1493.585938 C 165.035156 1497.957031 173.78125 1500 182.824219 1500 C 214.023438 1500 244.644531 1483.960938 274.097656 1475.214844 C 302.671875 1466.757812 319.003906 1436.429688 310.546875 1407.851562 L 308.796875 1402.3125 L 360.996094 1386.855469 C 392.78125 1377.234375 426.605469 1376.066406 458.683594 1382.773438 L 657.269531 1424.472656 C 679.140625 1429.140625 701.300781 1431.179688 723.464844 1431.179688 C 758.75 1431.179688 793.742188 1425.347656 827.277344 1413.976562 L 1423.03125 1211.601562 C 1472.605469 1195.851562 1499.722656 1143.070312 1484.851562 1092.625 Z M 260.097656 1431.179688 L 184.574219 1453.632812 C 182.238281 1454.507812 180.199219 1453.632812 179.03125 1453.050781 C 177.867188 1452.46875 176.40625 1451.007812 175.53125 1448.675781 L 48.976562 1024.679688 C 48.390625 1022.347656 48.976562 1020.304688 49.558594 1019.140625 C 50.140625 1017.972656 51.597656 1016.515625 53.933594 1015.640625 L 129.457031 993.183594 C 130.042969 992.894531 130.917969 992.894531 131.5 992.894531 C 134.707031 992.894531 137.332031 994.933594 138.207031 997.851562 L 148.414062 1032.261719 L 256.308594 1394.144531 L 264.472656 1421.847656 C 265.929688 1425.929688 263.890625 1430.015625 260.097656 1431.179688 Z M 1407.574219 1168.441406 L 811.820312 1370.527344 C 765.164062 1386.273438 714.714844 1389.480469 666.308594 1379.273438 C 666.308594 1379.273438 467.722656 1337.574219 467.722656 1337.574219 C 398.320312 1329.699219 332.710938 1344.574219 294.800781 1358.277344 C 294.800781 1358.277344 200.320312 1041.300781 200.320312 1041.300781 L 479.097656 958.191406 C 492.511719 954.109375 507.089844 953.820312 520.796875 957.027344 C 520.796875 957.027344 523.421875 957.609375 523.710938 957.609375 C 523.710938 957.609375 774.496094 1017.097656 774.785156 1017.097656 C 804.820312 1024.097656 824.359375 1055.882812 817.359375 1085.917969 C 810.363281 1115.660156 778.867188 1135.199219 748.832031 1127.910156 L 547.625 1080.085938 C 535.085938 1077.167969 522.253906 1084.75 519.339844 1097.582031 C 516.421875 1110.121094 524.003906 1122.953125 536.835938 1125.867188 C 536.835938 1125.867188 737.753906 1173.691406 737.753906 1173.691406 C 772.746094 1182.148438 810.945312 1171.359375 836.316406 1145.113281 L 1385.121094 1070.460938 C 1397.078125 1068.710938 1409.035156 1071.628906 1419.238281 1078.042969 C 1429.738281 1084.75 1437.027344 1094.375 1440.527344 1106.328125 C 1447.816406 1132.28125 1433.527344 1159.695312 1407.574219 1168.441406 Z M 691.386719 868.378906 C 746.5 900.453125 809.78125 917.367188 874.226562 917.367188 C 938.671875 917.367188 1001.949219 900.453125 1057.355469 868.378906 C 1076.308594 857.296875 1093.515625 844.757812 1109.550781 831.34375 L 1109.550781 875.375 C 1109.550781 898.703125 1128.507812 917.367188 1151.542969 917.367188 L 1281.015625 917.367188 C 1304.347656 917.367188 1323.007812 898.414062 1323.007812 875.375 L 1323.007812 394.515625 L 1394.160156 394.515625 C 1409.90625 394.515625 1424.195312 385.765625 1431.488281 371.769531 C 1438.777344 357.773438 1437.609375 341.152344 1428.570312 328.320312 L 1250.691406 74.039062 C 1242.816406 62.957031 1229.984375 56.25 1216.28125 56.25 C 1202.574219 56.25 1189.746094 62.957031 1181.871094 74.039062 L 1065.519531 240.253906 C 1008.074219 204.679688 942.460938 186.015625 873.933594 186.015625 C 672.140625 186.015625 508.257812 350.191406 508.257812 551.691406 C 508.257812 645.589844 543.832031 734.820312 608.277344 802.765625 C 631.898438 827.84375 659.601562 850.007812 691.386719 868.378906 Z M 1091.472656 285.746094 L 1216.863281 106.699219 L 1385.703125 347.859375 L 1318.925781 347.859375 C 1295.597656 347.859375 1276.933594 366.8125 1276.933594 389.847656 L 1276.933594 870.417969 L 1240.484375 870.417969 L 1240.484375 533.027344 C 1240.484375 520.199219 1229.984375 509.699219 1217.15625 509.699219 C 1204.324219 509.699219 1193.828125 520.199219 1193.828125 533.027344 L 1193.828125 870.417969 L 1157.085938 870.417969 L 1157.085938 389.847656 C 1157.085938 366.519531 1138.128906 347.859375 1115.09375 347.859375 L 1048.316406 347.859375 Z M 1103.71875 551.691406 C 1103.71875 610.597656 1081.558594 666.292969 1040.734375 709.160156 C 1026.152344 724.90625 1008.949219 738.613281 989.117188 750.277344 C 920.007812 790.519531 828.734375 790.226562 759.914062 750.277344 C 740.085938 738.613281 722.589844 724.90625 708.007812 708.867188 C 667.476562 666.292969 645.3125 610.304688 645.3125 551.398438 C 645.3125 424.84375 748.25 322.195312 874.515625 322.195312 C 918.257812 322.195312 960.539062 334.445312 997.28125 357.773438 C 998.742188 368.5625 1004.574219 378.769531 1013.320312 385.476562 C 1021.488281 391.890625 1031.402344 394.515625 1041.609375 394.515625 C 1081.558594 437.382812 1103.71875 492.785156 1103.71875 551.691406 Z M 874.226562 232.964844 C 933.128906 232.964844 989.410156 248.710938 1038.984375 278.746094 L 1017.988281 308.492188 L 1014.195312 313.738281 C 971.914062 288.660156 923.796875 275.539062 873.933594 275.539062 C 721.714844 275.539062 597.78125 399.472656 597.78125 551.691406 C 597.78125 622.550781 624.609375 689.914062 673.308594 741.238281 C 691.09375 760.191406 712.089844 777.105469 735.710938 790.808594 C 777.410156 815.011719 825.234375 827.84375 873.933594 827.84375 C 922.632812 827.84375 970.457031 815.011719 1012.15625 790.808594 C 1036.066406 776.8125 1057.0625 760.191406 1074.269531 741.238281 C 1087.683594 727.238281 1099.347656 711.785156 1109.261719 695.453125 L 1109.261719 766.316406 C 1107.800781 767.773438 1106.636719 769.230469 1105.179688 770.6875 C 1084.765625 792.558594 1060.5625 811.804688 1033.441406 827.84375 C 985.328125 855.839844 929.921875 870.417969 873.933594 870.417969 C 817.652344 870.417969 762.539062 855.546875 714.421875 827.84375 C 686.722656 811.804688 662.515625 792.558594 642.398438 770.398438 C 586.117188 711.199219 555.207031 633.339844 555.207031 551.398438 C 555.496094 375.851562 698.675781 232.964844 874.226562 232.964844 Z M 941.292969 540.609375 C 932.253906 536.527344 917.382812 531.863281 895.804688 526.613281 L 895.804688 442.921875 C 906.300781 444.964844 915.050781 448.753906 921.171875 453.710938 C 928.464844 459.835938 937.796875 471.207031 939.546875 491.910156 C 939.835938 498.035156 942.460938 503.867188 947.125 507.949219 C 951.792969 512.03125 957.625 514.074219 963.75 513.492188 C 969.582031 512.90625 974.828125 509.992188 978.621094 505.324219 C 982.410156 500.660156 984.160156 494.535156 983.578125 488.996094 C 982.996094 471.5 978.039062 455.753906 968.996094 442.046875 C 959.957031 428.339844 946.835938 417.550781 929.921875 410.554688 C 920.589844 406.472656 909.800781 403.847656 895.804688 402.097656 L 895.804688 385.183594 C 895.804688 373.519531 886.179688 363.894531 874.515625 363.894531 C 862.851562 363.894531 853.230469 373.519531 853.230469 385.183594 L 853.230469 401.804688 C 839.523438 403.261719 828.441406 406.179688 818.527344 409.96875 C 802.199219 416.675781 789.367188 426.882812 780.910156 440.003906 C 772.453125 453.128906 768.078125 467.417969 768.078125 482.582031 C 768.078125 496.285156 771.578125 509.117188 778.578125 520.199219 C 785.578125 531.277344 796.367188 540.609375 810.65625 548.191406 C 819.402344 552.859375 833.398438 557.523438 853.230469 562.773438 L 853.230469 658.417969 C 847.980469 657.253906 843.023438 655.503906 838.648438 653.460938 C 826.402344 648.214844 817.363281 641.214844 811.53125 632.464844 C 801.90625 618.46875 800.449219 604.472656 800.449219 599.222656 C 800.449219 593.101562 797.824219 587.269531 793.160156 583.183594 C 788.785156 579.101562 782.660156 577.0625 777.121094 577.351562 C 771.289062 577.644531 765.457031 580.851562 761.664062 585.519531 C 757.875 590.476562 756.125 596.890625 757 602.429688 C 757.582031 622.261719 763.121094 640.046875 773.328125 655.796875 C 783.535156 671.542969 798.117188 683.5 816.195312 691.371094 C 825.816406 695.453125 837.773438 698.371094 853.230469 700.410156 L 853.230469 717.617188 C 853.230469 729.28125 862.851562 738.902344 874.515625 738.902344 C 886.179688 738.902344 895.804688 729.28125 895.804688 717.617188 L 895.804688 701.578125 C 912.71875 700.121094 927.007812 696.910156 939.253906 691.078125 C 956.167969 683.207031 969.289062 672.417969 978.328125 658.417969 C 987.367188 644.421875 992.035156 629.257812 992.035156 613.21875 C 992.035156 597.183594 987.953125 582.894531 979.496094 570.355469 C 971.332031 558.980469 958.5 548.484375 941.292969 540.609375 Z M 852.9375 516.117188 C 833.109375 510.28125 824.941406 505.617188 821.734375 502.703125 C 815.027344 496.871094 811.820312 489.289062 811.820312 480.246094 C 811.820312 469.457031 816.488281 460.417969 826.109375 452.835938 C 832.234375 447.878906 841.273438 444.378906 852.9375 442.628906 Z M 940.710938 639.464844 C 935.753906 646.464844 927.878906 651.714844 917.675781 655.796875 C 911.550781 658.128906 904.550781 659.585938 895.804688 660.753906 L 895.804688 573.855469 C 906.011719 576.476562 913.007812 578.8125 917.089844 580.269531 C 928.464844 584.644531 936.335938 589.890625 941.292969 596.015625 C 945.960938 602.140625 948.292969 609.136719 948.292969 617.304688 C 948.292969 625.175781 945.667969 632.46875 940.710938 639.464844 Z M 145.207031 1207.808594 C 135 1207.808594 125.667969 1201.101562 122.75 1191.1875 L 83.09375 1058.503906 C 79.300781 1045.964844 86.59375 1033.136719 98.839844 1029.34375 C 111.085938 1025.554688 124.210938 1032.550781 128 1045.089844 L 167.660156 1177.773438 C 171.449219 1190.3125 164.160156 1203.144531 151.914062 1206.933594 C 149.871094 1207.515625 147.539062 1207.808594 145.207031 1207.808594 Z M 195.070312 1269.628906 C 198.863281 1282.167969 191.570312 1295 179.324219 1298.789062 C 176.992188 1299.375 174.949219 1299.664062 172.617188 1299.664062 C 162.410156 1299.664062 153.078125 1292.957031 150.164062 1283.042969 L 140.832031 1252.132812 C 137.039062 1239.59375 144.332031 1226.761719 156.578125 1222.972656 C 168.824219 1219.179688 181.949219 1226.179688 185.738281 1238.71875 Z M 195.070312 1269.628906 " fill-opacity="1" fill-rule="nonzero"/></g></svg>