<svg width="445" height="626" viewBox="0 0 445 626" fill="none" xmlns="http://www.w3.org/2000/svg">
<path d="M133.032 541.234L26.1783 577.755L90.0895 392.443C90.0121 392.443 89.9348 392.443 89.7801 392.443C84.596 392.443 80.263 390.973 76.9359 388.11C69.1984 381.378 70.2043 370.469 71.1328 360.797C71.4423 357.857 71.8292 353.292 71.597 350.893C69.2758 350.351 64.6333 350.119 61.7704 349.964C52.0986 349.5 41.1115 348.959 35.5405 340.37C30.0469 331.781 34.0704 321.568 37.6297 312.593C38.7129 309.807 40.4151 305.552 40.8794 303.153C38.7903 301.915 34.4574 300.445 31.7493 299.516C22.5417 296.344 12.0961 292.707 9.23327 282.803C6.37042 273.054 13.102 264.466 19.0599 256.883C20.9168 254.562 23.7797 250.848 24.8629 248.681C23.2381 246.979 19.5241 244.348 17.2028 242.646C9.23326 236.92 0.257812 230.498 0.257812 220.208C0.257812 209.839 9.23326 203.417 17.2028 197.769C19.5241 196.067 23.2381 193.436 24.8629 191.734C23.7797 189.567 20.8395 185.853 19.0599 183.532C13.102 175.949 6.37042 167.361 9.23327 157.612C12.0961 147.708 22.5417 144.071 31.7493 140.899C34.5347 139.97 38.7903 138.423 40.8794 137.262C40.4151 134.864 38.7129 130.531 37.6297 127.823C34.0704 118.847 30.0469 108.634 35.5405 100.045C41.1115 91.4566 52.0986 90.9149 61.7704 90.4507C64.7107 90.2959 69.2758 90.0638 71.597 89.5222C71.8292 87.1236 71.3649 82.5585 71.1328 79.6183C70.2043 69.9465 69.1984 59.0367 76.9359 52.3051C80.263 49.4422 84.5186 47.9721 89.7801 47.9721C94.6547 47.9721 99.8386 49.2101 104.791 50.3707C108.427 51.2219 112.141 52.1504 114.54 52.2277C115.468 49.9839 116.319 45.4962 116.861 42.6333C118.718 33.1162 120.807 22.2838 130.169 18.0282C132.336 17.0224 134.735 16.5581 137.21 16.5581C144.174 16.5581 150.828 20.3495 157.25 24.0634C159.804 25.5336 163.827 27.8548 166.149 28.6285C167.619 26.7715 169.708 22.7481 171.023 20.1173C175.511 11.4514 180.618 1.62486 190.831 0.154749C191.605 0.0773743 192.378 0 193.075 0C202.05 0 208.627 6.88632 215.049 13.5405C217.138 15.707 220.465 19.1889 222.477 20.5816C224.489 19.1889 227.816 15.7844 229.905 13.5405C236.25 6.88632 242.904 0 251.879 0C252.653 0 253.427 0.0773743 254.123 0.154749C264.337 1.62486 269.443 11.4514 273.931 20.1173C275.246 22.6707 277.336 26.6942 278.806 28.6285C281.05 27.8548 285.15 25.5336 287.704 24.0634C294.126 20.3495 300.857 16.5581 307.744 16.5581C310.297 16.5581 312.618 17.0997 314.785 18.0282C324.147 22.2838 326.236 33.1162 328.093 42.6333C328.635 45.4962 329.486 49.9839 330.414 52.2277C332.89 52.1504 336.604 51.2219 340.164 50.3707C345.116 49.2101 350.3 47.9721 355.174 47.9721C360.358 47.9721 364.691 49.4422 368.018 52.3051C375.756 59.0367 374.75 69.9465 373.821 79.6183C373.512 82.5585 373.125 87.1236 373.357 89.5222C375.678 90.0638 380.321 90.2959 383.184 90.4507C392.856 90.9149 403.843 91.4566 409.414 100.045C414.907 108.634 410.884 118.847 407.325 127.823C406.241 130.608 404.539 134.864 404.075 137.262C406.164 138.423 410.497 139.97 413.205 140.899C422.413 144.071 432.858 147.708 435.721 157.612C438.584 167.361 431.852 175.949 425.894 183.532C424.037 185.853 421.175 189.567 420.091 191.734C421.716 193.436 425.43 196.067 427.751 197.769C435.721 203.495 444.696 209.917 444.696 220.208C444.696 230.576 435.721 236.998 427.751 242.646C425.43 244.348 421.716 246.979 420.091 248.681C421.175 250.848 424.115 254.562 425.894 256.883C431.852 264.466 438.584 273.054 435.721 282.803C432.858 292.707 422.413 296.344 413.205 299.516C410.42 300.445 406.164 301.992 404.075 303.153C404.539 305.552 406.241 309.807 407.325 312.593C410.884 321.568 414.907 331.781 409.414 340.37C403.843 348.959 392.856 349.5 383.184 349.964C380.244 350.119 375.678 350.351 373.357 350.893C373.125 353.292 373.589 357.857 373.821 360.797C374.75 370.469 375.756 381.378 368.018 388.11C364.691 390.973 360.436 392.443 355.174 392.443C354.091 392.443 353.008 392.366 351.924 392.288L411.735 573.654L311.612 536.746L250.951 623.793L223.406 531.407L188.123 625.263L133.032 541.234Z" fill="white"/>
<path d="M434.476 220.125C434.476 210.453 410.876 202.561 409.561 193.199C408.168 183.682 428.595 169.445 425.965 160.392C423.256 151.184 398.342 150.256 394.473 141.59C390.45 132.847 406.079 113.426 400.895 105.456C395.711 97.4093 371.57 103.522 365.38 96.326C359.113 89.1302 368.63 66.0727 361.434 59.8827C354.238 53.6154 332.806 66.3048 324.759 61.1207C316.789 55.9366 319.42 31.2542 310.677 27.2307C302.088 23.2846 285.066 41.4676 275.858 38.7595C266.805 36.1288 262.318 11.6011 252.801 10.2857C243.516 8.97034 232.296 31.1768 222.625 31.1768C212.953 31.1768 201.811 8.97034 192.449 10.2857C182.931 11.6784 178.444 36.1288 169.391 38.7595C160.183 41.4676 143.161 23.2846 134.572 27.2307C125.829 31.2542 128.537 55.9366 120.49 61.1207C112.443 66.3048 91.0107 53.6154 83.8149 59.8827C76.6191 66.15 86.0587 89.1302 79.8687 96.326C73.6014 103.522 49.538 97.4093 44.3539 105.456C39.1698 113.426 54.7995 132.847 50.776 141.59C46.8299 150.179 21.9154 151.107 19.2847 160.392C16.6539 169.445 37.0807 183.682 35.688 193.199C34.3726 202.484 10.7734 210.453 10.7734 220.125C10.7734 229.797 34.3726 237.689 35.688 247.051C37.0807 256.568 16.6539 270.805 19.2847 279.858C21.9928 289.066 46.9073 289.994 50.776 298.66C54.7995 307.403 39.1698 326.824 44.3539 334.794C49.538 342.841 73.6788 336.728 79.8687 343.924C86.1361 351.12 76.6191 374.178 83.8149 380.367C88.0705 384.004 97.2006 381.219 105.634 379.284L42.8838 561.191L137.358 528.926L185.717 602.664L224.714 499.137L254.89 600.343L307.891 524.284L395.402 556.549L336.752 378.665C345.882 380.445 356.714 384.468 361.434 380.367C368.63 374.1 359.19 351.12 365.38 343.924C371.648 336.728 395.711 342.841 400.895 334.794C406.079 326.824 390.45 307.403 394.473 298.66C398.419 290.072 423.334 289.143 425.965 279.858C428.595 270.805 408.168 256.568 409.561 247.051C410.876 237.689 434.476 229.797 434.476 220.125Z" fill="white"/>
<path d="M190.295 383.691L254.748 600.262L307.749 524.202L395.337 556.468L326.164 346.86L190.295 383.691Z" fill="#DB4A1D"/>
<g opacity="0.7">
<path d="M226.557 444.135L219.748 446.212L262.872 587.568L269.681 585.491L226.557 444.135Z" fill="#FFCE45"/>
</g>
<g opacity="0.7">
<path d="M324.999 380.373L318.209 382.512L371.198 550.701L377.988 548.562L324.999 380.373Z" fill="#FFCE45"/>
</g>
<path d="M111.914 360.639L42.8184 561.116L137.293 528.851L185.652 602.588L266.276 388.339L111.914 360.639Z" fill="#FC712B"/>
<g opacity="0.7">
<path d="M129.29 352.575L64.7793 550.714L71.5482 552.918L136.059 354.779L129.29 352.575Z" fill="#FFCE45"/>
</g>
<g opacity="0.7">
<path d="M244.508 375.595L170.775 585.236L177.491 587.598L251.223 377.957L244.508 375.595Z" fill="#FFCE45"/>
</g>
<path d="M31.0167 192.549L31.0148 192.562L31.013 192.575C30.9146 193.275 30.2324 194.607 27.9732 196.687C25.9541 198.547 23.3546 200.411 20.4523 202.492C20.2677 202.624 20.0819 202.758 19.8949 202.892C16.9166 205.029 13.6125 207.427 11.0712 209.984C8.6173 212.452 6.05469 215.864 6.05469 220.127C6.05469 224.39 8.6173 227.802 11.0712 230.271C13.6125 232.827 16.9166 235.225 19.8949 237.362C20.0818 237.496 20.2675 237.629 20.4521 237.762C23.3544 239.843 25.954 241.707 27.9732 243.567C30.2324 245.647 30.9146 246.979 31.013 247.679L31.0148 247.692L31.0167 247.705C31.128 248.466 30.8309 249.98 29.2587 252.617C27.8105 255.046 25.7707 257.651 23.5004 260.55L23.2601 260.857C21.0052 263.737 18.5049 266.949 16.7764 270.077C15.1197 273.074 13.5671 277.04 14.7402 281.101C15.91 285.208 19.3265 287.769 22.3674 289.447C25.5214 291.188 29.3686 292.558 32.8325 293.77C33.0713 293.853 33.3084 293.936 33.5438 294.018C36.8946 295.189 39.9004 296.239 42.3581 297.446C45.1261 298.805 46.1705 299.893 46.4682 300.541L46.4693 300.543C46.7903 301.241 46.9319 302.777 46.1647 305.752C45.4636 308.472 44.2534 311.519 42.9058 314.912L42.7284 315.359C41.3775 318.762 39.8869 322.556 39.1213 326.056C38.3852 329.42 38.0415 333.678 40.361 337.247C42.663 340.808 46.6583 342.268 50.033 343.002C53.5391 343.766 57.6047 343.989 61.2587 344.174L61.8444 344.204C65.444 344.385 68.6743 344.548 71.4082 345.028C74.4146 345.555 75.7476 346.306 76.2478 346.872C76.7253 347.437 77.2764 348.856 77.3681 351.91C77.4512 354.681 77.1528 357.899 76.8204 361.483L76.765 362.082C76.428 365.727 76.0714 369.784 76.3256 373.362C76.5704 376.807 77.4424 380.977 80.6406 383.763C83.8495 386.558 88.1106 386.828 91.555 386.579C95.1331 386.321 99.1016 385.386 102.664 384.533L103.187 384.407C106.715 383.561 109.882 382.801 112.657 382.491C115.712 382.151 117.202 382.507 117.834 382.914C118.469 383.323 119.408 384.531 120.36 387.445C121.221 390.083 121.837 393.258 122.523 396.8L122.634 397.37C123.332 400.962 124.126 404.958 125.379 408.327C126.588 411.577 128.607 415.33 132.473 417.109L132.475 417.111C136.331 418.882 140.49 417.924 143.705 416.716C147.053 415.459 150.593 413.446 153.768 411.626L154.169 411.396C157.341 409.577 160.191 407.943 162.788 406.859C165.626 405.675 167.168 405.594 167.902 405.81L167.909 405.812L167.916 405.814C168.59 406.01 169.809 406.872 171.546 409.403C173.101 411.668 174.58 414.513 176.231 417.687C176.332 417.881 176.433 418.075 176.535 418.271C178.226 421.52 180.126 425.127 182.288 428.003C184.372 430.777 187.373 433.804 191.578 434.419L191.591 434.421L191.604 434.423C195.797 435.012 199.506 432.917 202.246 430.848C205.098 428.695 207.921 425.767 210.45 423.128L210.718 422.849C213.265 420.192 215.553 417.804 217.755 416.025C220.141 414.097 221.612 413.575 222.406 413.575C223.202 413.575 224.678 414.099 227.071 416.028C229.288 417.815 231.594 420.217 234.158 422.886L234.393 423.131C236.927 425.769 239.751 428.695 242.596 430.846C245.319 432.906 249.02 435.01 253.198 434.424C257.423 433.84 260.437 430.809 262.522 428.038C264.686 425.163 266.587 421.551 268.278 418.298C268.384 418.093 268.49 417.889 268.595 417.687C270.241 414.517 271.716 411.676 273.268 409.41C275.007 406.871 276.226 406.008 276.895 405.814L276.902 405.812L276.909 405.81C277.643 405.594 279.185 405.675 282.024 406.859C284.62 407.943 287.471 409.577 290.643 411.396L291.043 411.626C294.219 413.446 297.758 415.459 301.106 416.716C304.321 417.924 308.481 418.882 312.337 417.111L312.339 417.109C316.201 415.332 318.225 411.584 319.441 408.334C320.701 404.966 321.503 400.97 322.205 397.375C322.248 397.159 322.29 396.944 322.331 396.731C323.017 393.217 323.632 390.065 324.486 387.441C325.434 384.529 326.364 383.318 326.986 382.909C327.624 382.504 329.114 382.153 332.155 382.491C334.929 382.801 338.096 383.561 341.625 384.407L342.148 384.533C345.71 385.386 349.678 386.321 353.257 386.579C356.699 386.828 360.956 386.558 364.164 383.768C367.377 380.995 368.238 376.817 368.476 373.386C368.723 369.812 368.359 365.752 368.017 362.105L367.969 361.589C367.629 357.969 367.324 354.719 367.411 351.925C367.506 348.852 368.07 347.438 368.555 346.882L368.564 346.871L368.573 346.861C369.043 346.315 370.347 345.559 373.372 345.028C376.103 344.548 379.336 344.385 382.942 344.204L383.524 344.174C387.182 343.989 391.255 343.766 394.766 343.003C398.144 342.269 402.148 340.81 404.451 337.245C406.77 333.677 406.426 329.42 405.69 326.056C404.925 322.556 403.434 318.762 402.083 315.359L401.906 314.912C400.558 311.519 399.348 308.472 398.647 305.752C397.88 302.777 398.021 301.241 398.342 300.543L398.353 300.52L398.363 300.497C398.653 299.848 399.677 298.758 402.426 297.394C404.909 296.163 407.967 295.094 411.381 293.901L411.921 293.712C415.38 292.502 419.228 291.138 422.384 289.413C425.426 287.751 428.862 285.214 430.063 281.13L430.065 281.123L430.067 281.116C431.248 277.05 429.694 273.078 428.035 270.077C426.307 266.949 423.806 263.737 421.552 260.857L421.311 260.55C419.041 257.651 417.001 255.046 415.553 252.617C413.981 249.98 413.684 248.466 413.795 247.705L413.797 247.692L413.799 247.679C413.897 246.979 414.579 245.647 416.838 243.567C418.858 241.707 421.457 239.843 424.36 237.762C424.544 237.629 424.73 237.496 424.917 237.362C427.895 235.225 431.199 232.827 433.74 230.271C436.194 227.802 438.757 224.39 438.757 220.127C438.757 215.867 436.197 212.451 433.745 209.977C431.204 207.414 427.901 205.009 424.921 202.866C424.716 202.719 424.513 202.573 424.312 202.428C421.429 200.356 418.846 198.5 416.836 196.652C414.569 194.568 413.894 193.246 413.798 192.57L413.796 192.559L413.795 192.549C413.684 191.789 413.981 190.274 415.553 187.637C417.001 185.208 419.041 182.603 421.311 179.704L421.552 179.397C423.806 176.517 426.307 173.305 428.035 170.177C429.692 167.179 431.245 163.213 430.071 159.152C428.901 155.046 425.485 152.485 422.444 150.807C419.29 149.067 415.443 147.696 411.979 146.484C411.74 146.401 411.503 146.318 411.268 146.236C407.917 145.065 404.911 144.015 402.453 142.808C399.686 141.449 398.641 140.361 398.343 139.713L398.342 139.711C398.021 139.013 397.88 137.478 398.647 134.502C399.348 131.782 400.558 128.735 401.906 125.342L402.083 124.895C403.434 121.492 404.925 117.698 405.69 114.198C406.426 110.835 406.77 106.579 404.453 103.012C402.152 99.4474 398.155 97.9864 394.779 97.2516C391.272 96.4885 387.207 96.2647 383.553 96.0797L382.968 96.0502C379.368 95.8688 376.138 95.7061 373.403 95.2264C370.399 94.6993 369.065 93.9485 368.565 93.3834C368.087 92.819 367.535 91.3999 367.444 88.3444C367.36 85.5732 367.659 82.3554 367.991 78.7709L368.047 78.1724C368.384 74.5271 368.74 70.4706 368.486 66.8921C368.241 63.447 367.369 59.2769 364.171 56.4913C360.962 53.6965 356.701 53.426 353.257 53.6748C349.678 53.9332 345.71 54.8676 342.148 55.7214L341.624 55.847C338.096 56.6935 334.929 57.4533 332.155 57.7626C329.1 58.1032 327.61 57.7472 326.977 57.3397C326.343 56.9309 325.404 55.7233 324.452 52.8091C323.591 50.1709 322.975 46.9954 322.288 43.4536L322.178 42.8846C321.48 39.2925 320.686 35.2957 319.433 31.9274C318.224 28.6768 316.205 24.9237 312.339 23.1447L312.337 23.1436C308.481 21.372 304.321 22.3296 301.106 23.5376C297.758 24.7955 294.219 26.8085 291.043 28.6286L290.643 28.858C287.471 30.6767 284.62 32.3112 282.024 33.3947C279.185 34.579 277.643 34.6602 276.909 34.4443L276.902 34.4422L276.895 34.4402C276.222 34.2445 275.003 33.3822 273.266 30.8516C271.71 28.5856 270.231 25.7415 268.58 22.567C268.48 22.3735 268.378 22.1787 268.276 21.9827C266.586 18.7342 264.685 15.1273 262.524 12.251C260.44 9.47723 257.438 6.45042 253.233 5.83508L253.221 5.83321L253.208 5.83142C249.015 5.24234 245.305 7.33695 242.566 9.4057C239.714 11.5588 236.891 14.4873 234.362 17.1257L234.094 17.4047C231.547 20.0621 229.258 22.4501 227.056 24.2294C224.67 26.1573 223.2 26.6787 222.406 26.6787C221.61 26.6787 220.133 26.1552 217.74 24.2262C215.524 22.4391 213.217 20.0377 210.654 17.3684L210.418 17.1227C207.885 14.4853 205.061 11.5588 202.216 9.40758C199.491 7.34685 195.787 5.24189 191.606 5.83108C187.385 6.41768 184.374 9.44628 182.289 12.2159C180.126 15.0909 178.225 18.7027 176.534 21.9561C176.427 22.1611 176.322 22.3647 176.217 22.567C174.571 25.7368 173.095 28.5785 171.543 30.8446C169.804 33.3835 168.586 34.2457 167.916 34.4402L167.909 34.4422L167.902 34.4443C167.168 34.6602 165.626 34.579 162.788 33.3947C160.192 32.3112 157.341 30.6768 154.169 28.8582L153.768 28.6286C150.593 26.8085 147.053 24.7955 143.705 23.5376C140.49 22.3296 136.331 21.372 132.475 23.1436L132.473 23.1447C128.611 24.9218 126.586 28.6697 125.371 31.9199C124.111 35.2882 123.309 39.2841 122.606 42.879C122.564 43.0952 122.522 43.3102 122.48 43.5239C121.795 47.0372 121.179 50.1894 120.325 52.8136C119.378 55.724 118.449 56.9348 117.826 57.345C117.189 57.7503 115.699 58.1017 112.657 57.7626C109.883 57.4533 106.716 56.6935 103.187 55.847C103.014 55.8053 102.839 55.7634 102.664 55.7214C99.1016 54.8676 95.1331 53.9332 91.555 53.6748C88.1143 53.4263 83.8587 53.6959 80.651 56.4823C77.435 59.2562 76.5734 63.4362 76.3359 66.8677C76.0885 70.4421 76.4531 74.502 76.7945 78.1486C76.8107 78.3214 76.8268 78.4934 76.8429 78.6646C77.1826 82.285 77.4876 85.5353 77.4008 88.3288C77.3054 91.4025 76.7412 92.8162 76.2566 93.3725L76.2475 93.3829L76.2385 93.3934C75.7688 93.9394 74.4651 94.6953 71.44 95.2266C68.7089 95.7062 65.4756 95.8689 61.8693 96.0504C61.6766 96.0601 61.4828 96.0698 61.288 96.0797C57.6292 96.2647 53.557 96.4885 50.0457 97.2512C46.6665 97.9853 42.6603 99.4453 40.3573 103.013C38.0418 106.581 38.3856 110.835 39.1213 114.198C39.8869 117.698 41.3775 121.492 42.7284 124.895C42.7878 125.045 42.8469 125.194 42.9058 125.342C44.2534 128.735 45.4636 131.782 46.1647 134.502C46.9319 137.478 46.7903 139.013 46.4693 139.711L46.4586 139.734L46.4481 139.758C46.1586 140.406 45.1341 141.496 42.3857 142.86C39.9027 144.091 36.845 145.16 33.4315 146.353C33.2521 146.416 33.0718 146.479 32.8905 146.542C29.4313 147.752 25.5841 149.117 22.4273 150.841C19.3856 152.503 15.9498 155.041 14.7488 159.124L14.7467 159.131L14.7447 159.138C13.5632 163.204 15.1176 167.176 16.7764 170.177C18.5049 173.305 21.0052 176.517 23.2601 179.397L23.5004 179.704C25.7707 182.603 27.8105 185.208 29.2587 187.637C30.8309 190.274 31.128 191.789 31.0167 192.549Z" fill="#BCBCBC" stroke="white" stroke-width="9"/>
<path d="M222.477 390.584C316.617 390.584 392.933 314.268 392.933 220.128C392.933 125.988 316.617 49.6719 222.477 49.6719C128.337 49.6719 52.0215 125.988 52.0215 220.128C52.0215 314.268 128.337 390.584 222.477 390.584Z" fill="#D4D4D4"/>
<path d="M222.483 394.065C176.058 394.065 132.341 375.959 99.4573 343.152C66.5732 310.268 48.5449 266.629 48.5449 220.127C48.5449 173.625 66.6506 129.986 99.4573 97.1018C132.341 64.2177 175.981 46.1895 222.483 46.1895C268.907 46.1895 312.624 64.2951 345.508 97.1018C378.392 129.986 396.42 173.625 396.42 220.127C396.42 266.629 378.315 310.268 345.508 343.152C312.624 375.959 268.985 394.065 222.483 394.065ZM222.483 53.0758C130.407 53.0758 55.4312 127.974 55.4312 220.127C55.4312 312.28 130.33 387.178 222.483 387.178C314.636 387.178 389.534 312.28 389.534 220.127C389.534 127.974 314.636 53.0758 222.483 53.0758Z" fill="#9F9F9F"/>
<path d="M222.478 342.227C289.91 342.227 344.574 287.562 344.574 220.13C344.574 152.698 289.91 98.0332 222.478 98.0332C155.045 98.0332 100.381 152.698 100.381 220.13C100.381 287.562 155.045 342.227 222.478 342.227Z" fill="#BCBCBC"/>
<path d="M323.914 171.771C323.914 164.034 323.141 156.374 321.748 149.023C299.619 118.151 263.408 98.0332 222.554 98.0332C155.083 98.0332 100.457 152.737 100.457 220.13C100.457 227.867 101.231 235.528 102.624 242.878C124.753 273.75 160.964 293.868 201.818 293.868C269.211 293.868 323.914 239.164 323.914 171.771Z" fill="#D5D5D5"/>
<path d="M222.484 345.788C153.157 345.788 96.8281 289.382 96.8281 220.132C96.8281 150.882 153.234 94.4756 222.484 94.4756C291.734 94.4756 348.14 150.882 348.14 220.132C348.14 289.382 291.812 345.788 222.484 345.788ZM222.484 101.594C157.103 101.594 103.947 154.75 103.947 220.132C103.947 285.513 157.103 338.669 222.484 338.669C287.866 338.669 341.022 285.513 341.022 220.132C341.022 154.75 287.866 101.594 222.484 101.594Z" fill="#9F9F9F"/>
<path d="M138.147 118.534L148.902 91.376L158.961 118.921L177.84 129.676L158.574 139.735L147.819 174.321L137.76 139.348L118.881 128.593L138.147 118.534Z" fill="white"/>
</svg>
