<svg width="445" height="626" viewBox="0 0 445 626" fill="none" xmlns="http://www.w3.org/2000/svg">
<path d="M132.774 542.049L25.9204 578.569L89.8317 393.258C89.7543 393.258 89.6769 393.258 89.5222 393.258C84.3381 393.258 80.0051 391.788 76.678 388.925C68.9406 382.193 69.9465 371.283 70.875 361.612C71.1845 358.671 71.5713 354.106 71.3392 351.708C69.018 351.166 64.3755 350.934 61.5127 350.779C51.8409 350.315 40.8537 349.773 35.2827 341.185C29.7891 332.596 33.8126 322.383 37.3718 313.407C38.4551 310.622 40.1573 306.366 40.6216 303.968C38.5325 302.73 34.1995 301.26 31.4914 300.331C22.2838 297.159 11.8383 293.522 8.97543 283.618C6.11258 273.869 12.8442 265.28 18.802 257.698C20.659 255.376 23.5218 251.663 24.6051 249.496C22.9802 247.794 19.2662 245.163 16.945 243.461C8.97543 237.735 0 231.313 0 220.945C0 210.577 8.97543 204.155 16.945 198.506C19.2662 196.804 22.9802 194.173 24.6051 192.471C23.5218 190.305 20.5816 186.591 18.802 184.269C12.8442 176.687 6.11258 168.098 8.97543 158.349C11.8383 148.445 22.2838 144.808 31.4914 141.636C34.2769 140.708 38.5325 139.16 40.6216 137.999C40.1573 135.601 38.4551 131.268 37.3718 128.56C33.8126 119.584 29.7891 109.371 35.2827 100.782C40.8537 92.1939 51.8409 91.6522 61.5127 91.188C64.4529 91.0332 69.018 90.8011 71.3392 90.2595C71.5713 87.8609 71.1071 83.2958 70.875 80.3556C70.0238 70.6064 69.018 59.6966 76.678 52.965C80.0051 50.1022 84.2607 48.6321 89.5222 48.6321C94.3968 48.6321 99.5809 49.8701 104.533 51.0307C108.169 51.8818 111.883 52.8103 114.282 52.8877C115.211 50.6438 116.062 46.1561 116.603 43.2932C118.46 33.7762 120.549 22.9438 129.912 18.6882C132.078 17.6823 134.477 17.2181 136.953 17.2181C143.916 17.2181 150.571 21.0094 156.993 24.7234C159.546 26.1935 163.57 28.5147 165.891 29.2885C167.361 27.4315 169.45 23.408 170.765 20.7773C175.253 12.1113 180.36 2.28479 190.573 0.814679C191.424 0.814679 192.198 0.737305 192.972 0.737305C201.947 0.737305 208.524 7.62363 214.946 14.2778C217.035 16.4443 220.362 19.9262 222.374 21.3189C224.386 19.9262 227.713 16.5217 229.802 14.2778C236.069 7.62363 242.646 0.737305 251.622 0.737305C252.395 0.737305 253.169 0.814679 253.865 0.892053C264.079 2.36217 269.186 12.1887 273.673 20.8546C274.989 23.408 277.078 27.4315 278.548 29.3658C280.792 28.5921 284.893 26.2709 287.446 24.8007C293.868 21.0868 300.6 17.2954 307.486 17.2954C310.039 17.2954 312.361 17.837 314.527 18.7655C323.889 23.0211 325.978 33.8536 327.835 43.3706C328.377 46.2335 329.228 50.7212 330.157 52.965C332.633 52.8877 336.347 51.9592 339.906 51.108C344.858 49.9474 350.042 48.7094 354.916 48.7094C360.1 48.7094 364.433 50.1796 367.761 53.0424C375.498 59.774 374.492 70.6838 373.564 80.3556C373.254 83.2958 372.867 87.8609 373.099 90.2595C375.421 90.8011 380.063 91.0332 382.926 91.188C392.598 91.6522 403.585 92.1939 409.156 100.782C414.649 109.371 410.626 119.584 407.067 128.56C405.984 131.345 404.281 135.601 403.817 137.999C405.906 139.16 410.239 140.708 412.947 141.636C422.155 144.808 432.6 148.445 435.463 158.349C438.326 168.098 431.594 176.687 425.637 184.269C423.78 186.591 420.917 190.305 419.834 192.471C421.458 194.173 425.172 196.804 427.494 198.506C435.463 204.232 444.439 210.654 444.439 220.945C444.439 231.313 435.463 237.735 427.494 243.383C425.172 245.086 421.458 247.716 419.834 249.419C420.917 251.585 423.857 255.299 425.637 257.62C431.594 265.203 438.326 273.792 435.463 283.541C432.6 293.445 422.155 297.081 412.947 300.254C410.162 301.182 405.906 302.73 403.817 303.89C404.281 306.289 405.984 310.544 407.067 313.33C410.626 322.305 414.649 332.519 409.156 341.107C403.585 349.696 392.598 350.237 382.926 350.702C379.986 350.856 375.421 351.089 373.099 351.63C372.867 354.029 373.332 358.594 373.564 361.534C374.492 371.206 375.498 382.116 367.761 388.847C364.433 391.71 360.178 393.18 354.916 393.18C353.833 393.18 352.75 393.103 351.667 393.026L411.477 574.391L311.355 537.484L250.693 624.53L223.148 532.145L187.865 626L132.774 542.049Z" fill="white"/>
<path d="M190.033 383.044L254.563 599.615L307.565 523.556L395.075 555.821L325.98 346.137L190.033 383.044Z" fill="#DB4A1D"/>
<g opacity="0.7">
<path d="M226.342 443.427L219.533 445.504L262.657 586.86L269.466 584.783L226.342 443.427Z" fill="#FFCE45"/>
</g>
<g opacity="0.7">
<path d="M324.764 379.628L317.975 381.767L370.964 549.956L377.753 547.817L324.764 379.628Z" fill="#FFCE45"/>
</g>
<path d="M111.729 359.985L42.5566 560.462L137.031 528.197L185.467 601.858L266.091 387.608L111.729 359.985Z" fill="#FC712B"/>
<g opacity="0.7">
<path d="M129.054 351.99L64.543 550.128L71.3119 552.332L135.823 354.193L129.054 351.99Z" fill="#FFCE45"/>
</g>
<g opacity="0.7">
<path d="M244.293 374.94L170.561 584.582L177.276 586.944L251.008 377.302L244.293 374.94Z" fill="#FFCE45"/>
</g>
<path d="M30.8311 191.897L30.8293 191.91L30.8275 191.922C30.7291 192.623 30.0468 193.955 27.7876 196.035C25.7685 197.894 23.169 199.758 20.2668 201.84C20.0822 201.972 19.8963 202.105 19.7093 202.24C16.731 204.377 13.427 206.775 10.8857 209.331C8.43175 211.8 5.86914 215.212 5.86914 219.475C5.86914 223.737 8.43175 227.15 10.8857 229.618C13.427 232.175 16.731 234.572 19.7093 236.71C19.8962 236.844 20.082 236.977 20.2665 237.109C23.1689 239.191 25.7684 241.055 27.7876 242.914C30.0468 244.995 30.7291 246.327 30.8275 247.027L30.8293 247.04L30.8311 247.053C30.9424 247.813 30.6453 249.328 29.0731 251.965C27.6249 254.394 25.5852 256.998 23.3148 259.898L23.0745 260.204C20.8196 263.085 18.3193 266.297 16.5908 269.424C14.9321 272.426 13.3776 276.398 14.5591 280.464L14.5611 280.471L14.5632 280.478C15.763 284.557 19.1888 287.095 22.2272 288.758C25.3786 290.484 29.219 291.849 32.6742 293.059L33.2391 293.257C36.6386 294.446 39.6872 295.513 42.1695 296.743C44.92 298.106 45.9707 299.204 46.2763 299.875L46.28 299.883L46.2838 299.891C46.6047 300.588 46.7463 302.124 45.9791 305.1C45.2781 307.819 44.0678 310.867 42.7203 314.26L42.5429 314.707C41.192 318.11 39.7014 321.904 38.9358 325.403C38.1997 328.768 37.8559 333.026 40.1754 336.594C42.4775 340.156 46.4728 341.616 49.8475 342.35C53.3536 343.113 57.4192 343.337 61.0732 343.522L61.659 343.552C65.2585 343.733 68.4888 343.896 71.2227 344.375C74.2291 344.903 75.5621 345.654 76.0623 346.219C76.5398 346.784 77.091 348.203 77.1826 351.257C77.2657 354.029 76.9673 357.246 76.6349 360.831L76.5794 361.429C76.2424 365.075 75.8858 369.131 76.14 372.71C76.3848 376.155 77.2568 380.325 80.4551 383.11C83.6639 385.905 87.925 386.176 91.3694 385.927C94.9476 385.669 98.916 384.734 102.478 383.88L103.002 383.755C106.53 382.908 109.697 382.148 112.471 381.839C115.526 381.499 117.016 381.855 117.649 382.262C118.284 382.671 119.222 383.878 120.174 386.793C121.036 389.431 121.651 392.606 122.338 396.147L122.449 396.717C123.146 400.309 123.94 404.306 125.193 407.674C126.402 410.925 128.421 414.678 132.287 416.457L132.289 416.458C136.145 418.23 140.305 417.272 143.52 416.064C146.868 414.806 150.407 412.793 153.583 410.973L153.984 410.743C157.155 408.925 160.006 407.29 162.603 406.207C165.441 405.023 166.983 404.941 167.717 405.157L167.724 405.16L167.731 405.162C168.404 405.357 169.623 406.22 171.36 408.75C172.916 411.016 174.395 413.86 176.046 417.035C176.146 417.228 176.248 417.423 176.35 417.619C178.04 420.868 179.941 424.474 182.102 427.351C184.186 430.125 187.188 433.151 191.393 433.767L191.405 433.769L191.418 433.77C195.611 434.359 199.321 432.265 202.06 430.196C204.912 428.043 207.735 425.114 210.265 422.476L210.532 422.197C213.079 419.539 215.368 417.152 217.57 415.372C219.956 413.444 221.427 412.923 222.22 412.923C223.016 412.923 224.493 413.447 226.886 415.376C229.102 417.163 231.408 419.564 233.972 422.233L234.208 422.479C236.741 425.116 239.565 428.043 242.41 430.194C245.134 432.254 248.834 434.357 253.012 433.772C257.238 433.188 260.251 430.157 262.337 427.386C264.5 424.511 266.401 420.899 268.092 417.646C268.199 417.44 268.305 417.236 268.41 417.033C270.056 413.864 271.531 411.023 273.083 408.757C274.822 406.218 276.04 405.356 276.71 405.162L276.717 405.16L276.724 405.157C277.458 404.941 279 405.023 281.838 406.207C284.434 407.29 287.285 408.925 290.457 410.743L290.858 410.973C294.033 412.793 297.573 414.806 300.921 416.064C304.136 417.272 308.295 418.23 312.151 416.458L312.154 416.457C316.015 414.68 318.04 410.932 319.255 407.682C320.515 404.314 321.317 400.318 322.02 396.723C322.062 396.507 322.104 396.292 322.146 396.078C322.831 392.565 323.447 389.412 324.301 386.788C325.248 383.877 326.178 382.666 326.801 382.256C327.438 381.851 328.929 381.5 331.969 381.839C334.744 382.148 337.911 382.908 341.439 383.755L341.963 383.88C345.525 384.734 349.493 385.669 353.071 385.927C356.513 386.176 360.771 385.906 363.979 383.116C367.192 380.342 368.053 376.164 368.29 372.734C368.538 369.16 368.173 365.1 367.832 361.453L367.783 360.936C367.443 357.316 367.138 354.066 367.225 351.273C367.321 348.199 367.885 346.786 368.369 346.229L368.378 346.219L368.388 346.208C368.857 345.662 370.161 344.906 373.186 344.375C375.917 343.896 379.15 343.733 382.757 343.551L383.338 343.522C386.997 343.337 391.069 343.113 394.58 342.35C397.958 341.617 401.962 340.158 404.266 336.593C406.584 333.025 406.241 328.768 405.505 325.403C404.739 321.904 403.249 318.11 401.898 314.707L401.72 314.26C400.373 310.867 399.163 307.82 398.461 305.1C397.694 302.124 397.836 300.588 398.157 299.891L398.167 299.868L398.178 299.844C398.467 299.196 399.492 298.105 402.24 296.742C404.723 295.51 407.781 294.442 411.194 293.249L411.736 293.059C415.195 291.849 419.042 290.485 422.199 288.76C425.24 287.099 428.676 284.561 429.877 280.478L429.879 280.471L429.881 280.464C431.063 276.398 429.508 272.426 427.85 269.424C426.121 266.297 423.621 263.085 421.366 260.204L421.126 259.898C418.855 256.998 416.816 254.394 415.367 251.965C413.795 249.328 413.498 247.813 413.609 247.053L413.611 247.04L413.613 247.027C413.711 246.327 414.394 244.995 416.653 242.914C418.672 241.055 421.271 239.191 424.174 237.11C424.358 236.977 424.544 236.844 424.731 236.71C427.71 234.572 431.014 232.175 433.555 229.618C436.009 227.15 438.571 223.737 438.571 219.475C438.571 215.215 436.012 211.798 433.559 209.325C431.018 206.762 427.715 204.357 424.735 202.213C424.531 202.066 424.328 201.921 424.126 201.776C421.243 199.704 418.66 197.848 416.65 196C414.383 193.916 413.708 192.594 413.612 191.917L413.611 191.907L413.609 191.897C413.498 191.136 413.795 189.622 415.367 186.985C416.816 184.556 418.855 181.951 421.126 179.052L421.366 178.745C423.621 175.865 426.121 172.653 427.85 169.525C429.507 166.527 431.059 162.561 429.886 158.5C428.716 154.393 425.299 151.832 422.259 150.155C419.105 148.414 415.258 147.044 411.794 145.832C411.555 145.748 411.318 145.666 411.083 145.584C407.732 144.413 404.726 143.363 402.268 142.156C399.5 140.797 398.456 139.709 398.158 139.061L398.157 139.059C397.836 138.361 397.694 136.825 398.461 133.849C399.162 131.13 400.373 128.082 401.72 124.689L401.898 124.243C403.249 120.839 404.739 117.046 405.505 113.546C406.241 110.183 406.584 105.927 404.268 102.359C401.966 98.795 397.969 97.3341 394.593 96.5993C391.087 95.8362 387.021 95.6124 383.367 95.4273L382.783 95.3978C379.183 95.2165 375.952 95.0537 373.218 94.5741C370.213 94.0469 368.88 93.2961 368.379 92.7311C367.901 92.1666 367.35 90.7476 367.258 87.692C367.175 84.9207 367.473 81.7026 367.806 78.1179L367.861 77.52C368.198 73.8747 368.555 69.8182 368.3 66.2398C368.056 62.7947 367.184 58.6245 363.985 55.8389C360.777 53.0441 356.516 52.7736 353.071 53.0224C349.493 53.2808 345.525 54.2153 341.963 55.069L341.439 55.1947C337.91 56.0412 334.743 56.801 331.969 57.1103C328.914 57.4508 327.424 57.0949 326.792 56.6874C326.157 56.2785 325.218 55.0709 324.267 52.1567C323.405 49.5188 322.789 46.3436 322.103 42.802L321.992 42.2323C321.294 38.6401 320.5 34.6433 319.247 31.2751C318.038 28.0245 316.019 24.2714 312.154 22.4924L312.151 22.4913C308.295 20.7197 304.136 21.6773 300.921 22.8853C297.573 24.1432 294.033 26.1562 290.858 27.9762L290.457 28.2061C287.285 30.0246 284.434 31.6589 281.838 32.7423C279 33.9267 277.458 34.0079 276.724 33.7919L276.717 33.7899L276.71 33.7879C276.036 33.5922 274.817 32.7299 273.08 30.1993C271.525 27.9334 270.046 25.0895 268.395 21.9152C268.294 21.7215 268.193 21.5265 268.091 21.3304C266.4 18.0819 264.5 14.4749 262.339 11.5987C260.254 8.82488 257.253 5.79808 253.048 5.18274L253.035 5.18087L253.022 5.17908C248.829 4.59 245.12 6.68461 242.38 8.75335C239.528 10.9065 236.705 13.835 234.176 16.4734L233.909 16.7524C231.361 19.4098 229.073 21.7978 226.871 23.5771C224.485 25.505 223.014 26.0264 222.22 26.0264C221.424 26.0264 219.948 25.5028 217.555 23.5738C215.338 21.7868 213.032 19.3852 210.468 16.7159L210.233 16.4704C207.699 13.833 204.875 10.9064 202.03 8.75524C199.305 6.69451 195.602 4.58955 191.421 5.17874C187.199 5.76533 184.188 8.79393 182.104 11.5635C179.94 14.4386 178.039 18.0504 176.348 21.3038C176.242 21.5088 176.136 21.7125 176.031 21.9149C174.385 25.0847 172.91 27.9262 171.358 30.1923C169.619 32.7311 168.4 33.5934 167.731 33.7879L167.724 33.7899L167.717 33.7919C166.983 34.0079 165.441 33.9267 162.603 32.7423C160.006 31.6589 157.155 30.0245 153.984 28.2059L153.583 27.9762C150.407 26.1562 146.868 24.1432 143.52 22.8853C140.305 21.6773 136.145 20.7197 132.289 22.4913L132.287 22.4924C128.425 24.2694 126.401 28.0174 125.185 31.2675C123.925 34.6359 123.123 38.6318 122.421 42.2266C122.378 42.4429 122.336 42.6579 122.295 42.8716C121.609 46.3849 120.994 49.537 120.14 52.1612C119.193 55.0717 118.263 56.2824 117.641 56.6926C117.004 57.0979 115.513 57.4494 112.471 57.1103C109.697 56.801 106.53 56.0411 103.002 55.1947C102.828 55.153 102.653 55.1111 102.478 55.069C98.916 54.2153 94.9476 53.2808 91.3694 53.0224C87.9287 52.7739 83.6731 53.0435 80.4654 55.8299C77.2494 58.6039 76.3878 62.7838 76.1503 66.2154C75.903 69.7897 76.2675 73.8497 76.6089 77.4963C76.6251 77.6691 76.6413 77.8411 76.6573 78.0123C76.9971 81.6327 77.3021 84.883 77.2153 87.6764C77.1199 90.7502 76.5557 92.1638 76.0711 92.7201L76.062 92.7306L76.053 92.7411C75.5833 93.287 74.2796 94.0429 71.2545 94.5742C68.5234 95.0539 65.2901 95.2166 61.6838 95.398C61.4911 95.4077 61.2973 95.4175 61.1025 95.4273C57.4437 95.6124 53.3715 95.8362 49.8602 96.5989C46.481 97.3329 42.4748 98.7929 40.1717 102.361C37.8563 105.928 38.2001 110.183 38.9358 113.546C39.7014 117.046 41.192 120.839 42.5429 124.243C42.6023 124.392 42.6614 124.541 42.7203 124.69C44.0679 128.083 45.2781 131.13 45.9791 133.849C46.7463 136.825 46.6047 138.361 46.2838 139.059L46.273 139.082L46.2626 139.105C45.9731 139.754 44.9486 140.844 42.2001 142.207C39.7172 143.439 36.6595 144.508 33.2459 145.701C33.0666 145.764 32.8862 145.827 32.705 145.89C29.2457 147.1 25.3985 148.464 22.2417 150.189C19.2001 151.851 15.7643 154.388 14.5632 158.472L14.5611 158.479L14.5591 158.486C13.3776 162.552 14.9321 166.524 16.5908 169.525C18.3193 172.653 20.8196 175.865 23.0745 178.745L23.3148 179.052C25.5852 181.951 27.6249 184.556 29.0731 186.985C30.6453 189.622 30.9424 191.136 30.8311 191.897Z" fill="#FFA450" stroke="white" stroke-width="9"/>
<path d="M222.29 389.933C316.43 389.933 392.746 313.617 392.746 219.477C392.746 125.337 316.43 49.0215 222.29 49.0215C128.15 49.0215 51.834 125.337 51.834 219.477C51.834 313.617 128.15 389.933 222.29 389.933Z" fill="#FFCA98"/>
<path d="M222.295 393.413C175.87 393.413 132.154 375.308 99.2698 342.501C66.3857 309.617 48.3574 265.978 48.3574 219.476C48.3574 172.974 66.463 129.335 99.2698 96.4504C132.154 63.5663 175.793 45.5381 222.295 45.5381C268.72 45.5381 312.436 63.6437 345.32 96.4504C378.205 129.335 396.233 172.974 396.233 219.476C396.233 265.978 378.127 309.617 345.32 342.501C312.436 375.308 268.72 393.413 222.295 393.413ZM222.295 52.4244C130.22 52.4244 55.2437 127.323 55.2437 219.476C55.2437 311.629 130.142 386.527 222.295 386.527C314.448 386.527 389.346 311.629 389.346 219.476C389.346 127.323 314.371 52.4244 222.295 52.4244Z" fill="#FF8E26"/>
<path d="M222.29 341.574C289.722 341.574 344.387 286.909 344.387 219.477C344.387 152.044 289.722 97.3799 222.29 97.3799C154.858 97.3799 100.193 152.044 100.193 219.477C100.193 286.909 154.858 341.574 222.29 341.574Z" fill="#FFA450"/>
<path d="M323.651 171.035C323.651 163.297 322.877 155.637 321.484 148.287C299.355 117.414 263.144 97.2969 222.29 97.2969C154.82 97.2969 100.193 152.001 100.193 219.394C100.193 227.131 100.967 234.791 102.36 242.142C124.489 273.014 160.7 293.132 201.554 293.132C269.024 293.209 323.651 238.505 323.651 171.035Z" fill="#FFCA98"/>
<path d="M222.299 345.133C152.971 345.133 96.6426 288.727 96.6426 219.477C96.6426 150.227 153.049 93.8213 222.299 93.8213C291.549 93.8213 347.955 150.227 347.955 219.477C347.955 288.727 291.549 345.133 222.299 345.133ZM222.299 100.94C156.917 100.94 103.761 154.096 103.761 219.477C103.761 284.859 156.917 338.015 222.299 338.015C287.68 338.015 340.836 284.859 340.836 219.477C340.836 154.096 287.68 100.94 222.299 100.94Z" fill="#FF8E26"/>
<path d="M137.96 117.881L148.715 90.7227L158.773 118.268L177.575 129.023L158.386 139.082L147.631 173.668L137.573 138.695L118.693 127.94L137.96 117.881Z" fill="white"/>
</svg>
