<?xml version="1.0" encoding="UTF-8"?>
<svg version="1.1" viewBox="0 0 1600 913" width="1280" height="1280" xmlns="http://www.w3.org/2000/svg">
<path transform="translate(1191,53)" d="m0 0 2 1 1 8-1 8v22l4 16 7 16 7 11 6 16 1 3 2 29 1 5 1 14 4 17 1 14 1 15 3 8 2 11 5-1 3-7-2-5v-5l5-4 1-5-2-5-2-8 6-3 5-10v-8l2-3 5-3 3-1 2-7-1-11 6-7 4-4h2l1-4v-11l6-14 6-8 7-7 7-4h14l14 2 12 4 8 8 8 15 8 17 7 10 6 26 5 15 3 8 6 20 3 11 1 2v43h2v-3h2l2-4 3-1-1 6-7 14-1 3 10-4 13-4 1-1h7l-2 4-17 7-10 2v3l13 2 10 3 1 4h-10l-2-1-12-1v2h-2l1 3 13 4 1 4-3 1-12-3 1 6 4 2-1 2-3 1-1 17 4 1 7 21 3 6 2 10 5 4 8 4 7 7 5 6 1 7 5 5 3 7 2 10v6l-3 3-5 10 2 4 9 1 14 6 6 6v2h2l7 10 5 11 2 7v25l-4 11 2 6 1 10 1 2 4 27 2 18 1 3v9l4 2 4 6 5 8 3 3 7 8 2 4v3h2l6 11 6 10 3 11 4 9 4 11v17l-7 7-7 3-11 4-23 6-4 2-21 1-12 2-37 3-17 2h-11l-15 2-109 5-26 1-10 1-32 1-35 3-22 3 1 4 9 3 27 7 6 3 2 2-1 5-8 4-13 3-20 4-36 4-21 2-64 4-71 4-59 2-96 2h-106l-87-2-54-2-55-3-41-3-23-2-20-3-12-2-4-2-2-3v-3l8-3 12-3 3-2 1-4-4-1-9-3-14-3-26-4-25-3-72-8-35-3-40-4-26-2-65-6-16-2-9-2-10-3-8-4-7-7-2-6-1-10 2-14 5-12 3-5 2-8 7-13 4-4 4-8 6-9 5-5 11-12 11-6 5-5 3-5 4-5 3-12v-81l-3-7-1-12-3-15v-21l-2-9 1-10 2-24 5-22 5-29 6-15 13-23 10-14 6-10 8-14 6-11 10-17 14-19 8-16 14-40 5-17 5-18 5-9 8-9 14-8 19-8 28-7 17-3 79-4 9-1 30-1h49l18 2 23 4 17 4h15l24-5 12-4 9-6 16-17 9-7 8-4 19-7 14-6 11-3 27-2h12l18 2 15 4 26 9 15 8 10 7 13 12 13 13 8 10 13 22 6 7 9 14 10 16 9 14 8 14 12 14 11 14 15 16 11 11 8 7 10 10 7 8 6 10 6 12 7 7 5 16 7 4 1-1 1-7 1-33 3-6 5-5 7-4 14-3 28-3 20-2 8-2 10-16 2-13 4-48v-23l-1-13v-29l3-9 6-7 13-6 12-5 6-4 1-1 2-13 6-8 14-10 6-5 6-8 4-5zm-48 311-2 1v4l6 1 8-2-4-2-6-2zm252 190 1 3z" fill="#FCFCFC"/>
<path transform="translate(783,135)" d="m0 0 10 2 7 7 4 8 10 22 4 18 7 10 4 10v15l-4 9-5 6-6 4-2 13-4 8-4 5-4 3 23 4 23 6 25 10 19 11 7 5 4 2 5 5 10 9 8 7 10 11 4 6 5 5 4 7v2l3 1 3 9 3 1 2 8h2l3 6 3 10 4 10v3h2l3 12 3 9 5 27 2 19 1 4v44l-3 24 8-2 11-8 7-8 10-15 7-11 8-7 5-2 1 6 4-1h3l1 3 6-2 5-1v-2l4-4 7 1 10 6 7 7 8 14 5 16 1 6v28l-3 15-5 13h-9l-5 10h2v4h6l1 3 8-1v-2l-4-2 1-3 4 2 3 3 18-1 3 2 3 17 4 28v5l-34 5-11 1h6l1 1 1 64 5 1h46v-1l26-2 21-3 16-4 24-7 16-8 11-7 10-8 10-9 9-11 9-14 8-15 7-21 3-15 1-22-1-14-3-14-4-13-8-17v-2l-6 1-15 7-13 3h-22l-15-4-17-8-11-9-9-10-8-14-4-9-3-12-1-8v-13l3-15 5-13 9-14 9-10 12-9 13-6 16-4h24l15 4 12 5 11 7 10 9 8 10 7 14 4 16 1 6v17l-3 14-6 14-2 4 13 10 6 3 19-1 17-4 19-10 14-10 9-7 10-3v-4l-6-1-6-4-3-6v-6l3-5v-15l-1-1v-8l5-3h8l6 4 8 3 5 10 2 10v6l-3 3-5 10 2 4 9 1 14 6 6 6v2h2l7 10 5 11 2 7v25l-4 11 2 6 1 10 1 2 4 27 2 18 1 3v9l4 2 4 6 5 8 3 3 7 8 2 4v3h2l6 11 6 10 3 11 4 9 4 11v17l-7 7-7 3-11 4-23 6-4 2-21 1-12 2-37 3-17 2h-11l-15 2-109 5-26 1-10 1-32 1-35 3-22 3 1 4 9 3 27 7 6 3 2 2-1 5-8 4-13 3-20 4-36 4-21 2-64 4-71 4-59 2-96 2h-106l-87-2-54-2-55-3-41-3-23-2-20-3-12-2-4-2-2-3v-3l8-3 12-3 3-2 1-4-4-1-9-3-14-3-26-4-25-3-72-8-35-3-40-4-26-2-65-6-16-2-9-2-10-3-8-4-7-7-1-2v-15h58l5 2 6 7 3-3-6-5-3-7 9-12 3-7h2l8-24 3-15 2-20 1-22 3-13 3-10-2-3v-7l6-13 4-20-9-1-12-7-6-8-3-6v-13l3-7 5-5 8-4 20-5 8-4 5-4v-8l3-5 2-1h6l5 6 1 7h6l5 6 2 6 1 7 1 1v8l-5 11v3l10 2h7l5-8 4-3 1-5v-8l-15-1-2-1v-5l10-2 7-2h5v-5l2-1v4h2l1-4 5 1v2l6-2 36-3v-2l12-2 17-2 6-1 4 5 2 8-1 11-1 1h-64v5l-1 2 1 2v9l-5 10-9 10-10 7-6 3-9 7-9 4-4 1-4 11-1 9 2 13-1 5 3 8 4 27v30l-3 21-7 24-3 9 4-8 7-24 1-7 4-1 18 5 20 7 1 3-1 13 3 9 3 2-4-5-1-3v-15l5-26 2-16 4-7 5-4 8-1v-2h8l23 6 1 1 11 1h14l13-2 9-3 8-6 4-5 5-12 4-21 3-27 1-15v-97l-5 8-3 4-1-3 5-17 3-7v-4l-11-1-1 6-9 16-6 8h-2l1-5 9-17 6-8-14-1-2 5-7 9-10 11-4 1 4-8 12-14 5-5-10-3-2 4-11 12-10 8-2-1 6-8 15-15h2v-2l-9-3-11 10-14 9h-3l2-4 12-10 11-7-9-4-5 5-10 8-10 6-3-1 5-5 8-7 12-8-7-3-4 1-5 5-16 11-6 2 2-4 12-10 11-7-9-3-5 5-11 9-12 6 2-4 7-7 15-10-3-2-5-1-9 7-17 9-5 1 2-4 18-11 4-2h3v-2l-15 1h-14l-10-2 1-2 6-1h20l10 1-9-7-11-10-1-4 8 4 14 12 6 7 8 3-7-8-10-14-1-4 4 2 11 12 7 11 3 3 5 1-9-17-3-10 4 2 9 16 5 12 6 3 1-1-7-19-1-10 4 4 7 19 1 10 6 2 4 2-3-10-2-11v-11l3 3 4 17 2 14 8 4-4-13-2-11v-10h2l4 13 3 22 9 3-3-7-3-16v-11l3 3 4 18 1 14 12 1-5-15-3-13v-5h2l5 12 4 18v4l11-2-8-24-1-7 2-1 5 10 2 1v-30l-20 9-9 2 1-4 10-7 16-9 1-20-19 8-19 6-9 2h-5v-3l14-7 25-8 10-2v-2l-7-7-5-7-14 4-17 3-9 1h-16v-3l13-4 18-3 22-2-7-12v-2l-6 2-15 2h-33l-2-1v-2l5-2 15-2 15-1h18l-6-14h-20l-26-3-9-3v-2l3-1h19l19 2 12 2-5-13v-2h-27l-22-3-7-3 1-2h27l22 3 3 1-7-15-27-1-21-3-7-3 1-2h29l20 3 3 1-7-13v-2l-3 1h-22l-23-3-9-3v-2l4-1h17l26 3 7 2-9-14-15-1-25-5-12-4-3-3 1-1h9l24 4 15 4h2l-7-8-12-8-13-12-10-10-2-3v-3l6 2 13 10 12 11 7 7 7 9v-4l-3-16-1-10v-17l2-1 4 10 4 24 1 11v13l7 11v-25l2-17 3-9 2 2 1 5v22l-2 20-2 9 6 12 7-29 5-15 4-4 1 1-1 13-5 21-7 21 6 13 7-21 11-23 3-3h2l-1 9-7 19-7 16-5 7 1 5 5 11 8-16 8-13 9-12 4-2-1 7-11 21-12 17-2 2 1 7 3 9h2l1-6 8-15 9-14 7-9 4-2-1 7-10 19-10 15-7 8 4 8 3 5 2 1 1-6 11-20h2v-14l4-10 8-6 6-2h32v-3l-5-1-19-10-5-4-1-3 6 1 16 9 7 5 1-1 1-11-10-7-11-9-5-6 1-2 11 7 13 12 2 2 4-10-5-2-17-17-2-5 5 2 10 9 9 10 2 1 1-5 1-4-8-9-10-15-1-4 4 2 8 9 7 10 2 4 4-7-2-4-10-12-7-12v-2l4 2 11 13 6 10 5-10-4-2-11-14-5-9 1-3 7 7 10 14 3 4 2-5-1-5-8-9-9-14-1-4 5 3 11 14 4 7v2h2l1-10-7-10-9-17 1-4 7 9 8 14 2 3v-33l1-4h2l1 2v28l-1 7 7-9 9-10 5-3-1 4-8 11-8 9-5 4-3 8 8-7 14-10 4-1-2 4-11 10-15 10-2 7 10-6 8-4 5-2h5l-5 5-15 8-8 3h-3l-3 9 21-8 10-1-4 4-19 7-10 2-4 8 22-4h9v2l-13 4-13 2h-8l-2 6v2l17-4 15-1v2l-13 4-11 2h-11l-1 9 16-4 7-1h9v2l-10 3-16 3-8 1-1 11 15-5 16-3v3l-18 6-10 2h-4v2h59l10 5 6 9 1 4v83l1 10 16-4 17-6 18-10 2 1-10 19-5 12-6 17-7 26-5 26-2 26v24l2 26 6 31 5 17 3 10 5 12 1 5h2l8 17 6 10 1-12 1-35 2 3 3 9 2-4 2 5 2 1-2-6 5 4-2-6 5 3-5-8v-3h3l-7-5-1-4 2-1 12 4 5 1h10l4-4 4 1 1 3 12-2 16-8 1-2-12 3-8 1h-24l-20-3-5-1 1 2v7l-4 2-5-1-7-11-4-10-2-9v-19l4-16 7-14 8-9 9-6 12-5 4 2 5 4 9 2v-4l3 1v2l3-3v-7l20-1 5-2v-8l-4-5-10-6-5-4-1-2h-4l1 4h2l2 3v9l-6 7-4 2-2 7-1 1h-6l-3-2-1-8-4-2-3-5v-2l-4-2 1-5h6l1-10h8v-2l-9 1v8l-1 2-7-1-1-15 3-3 6-4 4-6h2l2 4h2l2-3h2l1 2 7-1 1 10 7 7 7-1 16 4 11 6 8 7 5 8v10l-4 7-5 6-4 4 2 26 4 22 9 27 9 17v2l3 1 3 7 8 10 8 7 11 9 17 9 9 3 7 1h14l14-5 12-6 13-10 7-6 5-5h2l2-4 11-17 3-9 2-4 4-25 1-1 2-20 4-15 1-36 4-13 6-10 2-3v-9l3-4 6-1 5 3 3 5 1 4 6 4 5 6 3 8 2 10-1 7-2 2 1 1 2 12 2 5 4 4 3 6 5 9 3 6v7l-2-2-1-2 4 16h1v-5l1 4h13l3 6v5h-2l-1 3-6 4-1 5 2 2 2 15 5 10 3 2 3-10 4-12 4-16v-7h-8l-4-6 1-2h3v-2l3-1h9l3-33v-32l-2-25-4-23-6-24-8-21-7-16-9-16v-2h-2l-4-7-11-14-14-15-6-5v-2l-4-2-12-9-16-10-16-8-15-6-13-4-11-3v-2l-18 4-6 4-5 9-2 7v37l1 13-7 1h-12l-2-2-6-27-1-5h-1v33l-2 1h-16l-3-2-2-13-3-20-1-11v-27l4-15 6-10 1-1-6-1-11-41 1-3h44l1-5 6-10 8-9 2-14 1-2v-18l3-7 9-7zm612 419 1 3z" fill="#D3E1FA"/>
<path transform="translate(1191,53)" d="m0 0 2 1 1 8-1 8v22l4 16 7 16 7 11 6 16 1 3 2 29 1 5 1 14 4 17 1 14 1 15 3 8 2 11 5-1 3-7-2-5v-5l5-4 1-5-2-5-2-8 6-3 5-10v-8l2-3 5-3 3-1 2-7-1-11 6-7 4-4h2l1-4v-11l6-14 6-8 7-7 7-4h14l14 2 12 4 8 8 8 15 8 17 7 10 6 26 5 15 3 8 6 20 3 11 1 2v43h2v-3h2l2-4 3-1-1 6-7 14-1 3 10-4 13-4 1-1h7l-2 4-17 7-10 2v3l13 2 10 3 1 4h-10l-2-1-12-1v2h-2l1 3 13 4 1 4-3 1-12-3 1 6 4 2-1 2-3 1-1 17 4 1 7 21 3 6 2 10 5 4 8 4 7 7 5 6 1 7 1 2-6-2-6-4h-8l-4 2v8l1 1v15l-3 5 1 9 5 5 8 3 1 4-14 6-11 9-18 11-13 6-14 3-20 1-17-12-2-3 7-14 3-10 1-7v-17l-4-19-6-14-9-12-7-7-14-9-14-6-13-3h-24l-16 4-16 8-12 10-8 10-8 14-5 17-1 7v13l3 16 4 11 7 13 8 10 10 9 17 9 13 4 5 1h22l15-4 15-7 4 1 10 21 4 14 2 11 1 21-1 15-5 22-7 18-10 18-7 9-9 11-12 11-13 9-10 6-17 7-20 6-19 4-29 3v2h-63l-2-2-1-64h-13v-1l46-6h6l-7-47-1-3-7-1-13 1-7-6 1 4 2 1v2l-8 2h-5l4-1v-3h-6l-1-3-2-1 6-11 9 1 3-9 3-12 1-7v-28l-4-17-8-16-8-9-10-6-7-2-2 4h-2v2l-6 3h-5l-3-3-3 2-3-3v-4l-10 7-8 11-9 14-2 1v-192l1-40 4-7 10-6 14-3 28-3 20-2 8-2 10-16 2-13 4-48v-23l-1-13v-29l3-9 6-7 13-6 12-5 6-4 1-1 2-13 6-8 14-10 6-5 6-8 4-5zm-48 311-2 1v4l6 1 8-2-4-2-6-2z" fill="#FAB3B4"/>
<path transform="translate(788,278)" d="m0 0h5v2l11 2 13 4 15 6 16 8 13 8 11 8 8 6 16 16 9 11 10 13v3h2l8 14 12 27 6 17 8 36 2 18 1 15v32l-3 31-1 2-12 1v2l-3 2 3 5h8l1 1v7l-5 20-7 18-4-2-5-10-2-15-2-2 1-5 5-4 4-4-1-6-1-4-11 1h-1l-4 1-2-10-3-12 2 1 2 5-1-7-5-8-6-11-4-4-2-7v-9l-2-1 3-5-1-8-3-12-4-6-5-4-3-2-3-8-5-3-6 1-2 3v10l-6 8-5 12-1 5-1 36-4 15-2 20-2 5-3 21-4 8-2 6-10 16-3 4h-2l-2 4-9 7-11 9-10 6-15 6-4 1h-14l-11-2-19-9-13-10-7-6v-2l-4-2-9-12-1-4-4-4-10-21-7-22-4-22-2-26 5-5 7-9 1-3v-10l-6-9-6-5-11-6-16-4-8 1-7-8v-10l-7 2-1-3-4 4-3-1-1-4h-2l-2 5-6 5-4 1v17l7 1 1-10 9-1v2h-8v8l-1 2-6 1 1 5 3 3 4 6 2 1 2 8 2 1h6l3-8 6-4 3-4v-9l-1-3h-2l-1-4 5-1 3 5 9 5 6 5 2 3v8l-6 3h-20l1 7-2 3h-2l-3-3v4l-9-1-7-6-10 3-9 5-8 7-7 11-5 13-2 10v19l3 12 7 14 3 4 7-1v-9l10 1 15 2h24l20-3-2 4-15 7-3 1h-9l-2-3h-3l-4 4h-10l-12-3-6-2 1 4 7 5-1 2-3-2 6 12-5-3 2 6-4-2v3l-3-1-1-2-2 2-4-10-1 32-1 14-3-4-9-16-3-6v-3h-2l-5-11-6-18-6-25-4-21-2-26v-24l2-26 6-31 7-25 5-13 9-20 10-18 5-5 9-12 3-5 5-4 2-5 3-1 1-2h3v-3l10-8h2v-2l4-1v-2l14-9 14-8 16-8 17-6 17-5 6-2 5 1 1 27 3 26 2 9v9l3 1h18l-1-12v-21l1-6h1l5 26 3 12 1 1h19l-2-13v-37l4-11 5-7 8-4z" fill="#FAB3B4"/>
<path transform="translate(469,149)" d="m0 0h2l1 2v28l-1 7 7-9 9-10 5-3-1 4-8 11-8 9-5 4-3 8 8-7 14-10 4-1-2 4-11 10-15 10-2 7 10-6 8-4 5-2h5l-5 5-15 8-8 3h-3l-3 9 21-8 10-1-4 4-19 7-10 2-4 8 22-4h9v2l-13 4-13 2h-8l-2 6v2l17-4 15-1v2l-13 4-11 2h-11l-1 9 16-4 7-1h9v2l-10 3-16 3-8 1-1 11 15-5 16-3v3l-18 6-10 2h-4v2h59l10 5 6 9 1 4v83l1 10v170l-2 28-2 26-3 22-4 15-6 15-8 16-10 14-7 7-4 5-7 5-3 28-3 2h-16l-3-1-1-6-2-35-6-65-1-3-2 7-9 57-7 44-5 2h-10l-7-1h-2-58l-31-3-16-4-12-5-4-3-3-5-3-6v-15l5-26 2-16 4-7 5-4 8-1v-2h8l23 6 1 1 11 1h14l13-2 9-3 8-6 4-5 5-12 4-21 3-27 1-15v-97l-5 8-3 4-1-3 5-17 3-7v-4l-11-1-1 6-9 16-6 8h-2l1-5 9-17 6-8-14-1-2 5-7 9-10 11-4 1 4-8 12-14 5-5-10-3-2 4-11 12-10 8-2-1 6-8 15-15h2v-2l-9-3-11 10-14 9h-3l2-4 12-10 11-7-9-4-5 5-10 8-10 6-3-1 5-5 8-7 12-8-7-3-4 1-5 5-16 11-6 2 2-4 12-10 11-7-9-3-5 5-11 9-12 6 2-4 7-7 15-10-3-2-5-1-9 7-17 9-5 1 2-4 18-11 4-2h3v-2l-15 1h-14l-10-2 1-2 6-1h20l10 1-9-7-11-10-1-4 8 4 14 12 6 7 8 3-7-8-10-14-1-4 4 2 11 12 7 11 3 3 5 1-9-17-3-10 4 2 9 16 5 12 6 3 1-1-7-19-1-10 4 4 7 19 1 10 6 2 4 2-3-10-2-11v-11l3 3 4 17 2 14 8 4-4-13-2-11v-10h2l4 13 3 22 9 3-3-7-3-16v-11l3 3 4 18 1 14 12 1-5-15-3-13v-5h2l5 12 4 18v4l11-2-8-24-1-7 2-1 5 10 2 1v-30l-20 9-9 2 1-4 10-7 16-9 1-20-19 8-19 6-9 2h-5v-3l14-7 25-8 10-2v-2l-7-7-5-7-14 4-17 3-9 1h-16v-3l13-4 18-3 22-2-7-12v-2l-6 2-15 2h-33l-2-1v-2l5-2 15-2 15-1h18l-6-14h-20l-26-3-9-3v-2l3-1h19l19 2 12 2-5-13v-2h-27l-22-3-7-3 1-2h27l22 3 3 1-7-15-27-1-21-3-7-3 1-2h29l20 3 3 1-7-13v-2l-3 1h-22l-23-3-9-3v-2l4-1h17l26 3 7 2-9-14-15-1-25-5-12-4-3-3 1-1h9l24 4 15 4h2l-7-8-12-8-13-12-10-10-2-3v-3l6 2 13 10 12 11 7 7 7 9v-4l-3-16-1-10v-17l2-1 4 10 4 24 1 11v13l7 11v-25l2-17 3-9 2 2 1 5v22l-2 20-2 9 6 12 7-29 5-15 4-4 1 1-1 13-5 21-7 21 6 13 7-21 11-23 3-3h2l-1 9-7 19-7 16-5 7 1 5 5 11 8-16 8-13 9-12 4-2-1 7-11 21-12 17-2 2 1 7 3 9h2l1-6 8-15 9-14 7-9 4-2-1 7-10 19-10 15-7 8 4 8 3 5 2 1 1-6 11-20h2v-14l4-10 8-6 6-2h32v-3l-5-1-19-10-5-4-1-3 6 1 16 9 7 5 1-1 1-11-10-7-11-9-5-6 1-2 11 7 13 12 2 2 4-10-5-2-17-17-2-5 5 2 10 9 9 10 2 1 1-5 1-4-8-9-10-15-1-4 4 2 8 9 7 10 2 4 4-7-2-4-10-12-7-12v-2l4 2 11 13 6 10 5-10-4-2-11-14-5-9 1-3 7 7 10 14 3 4 2-5-1-5-8-9-9-14-1-4 5 3 11 14 4 7v2h2l1-10-7-10-9-17 1-4 7 9 8 14 2 3v-33z" fill="#FAB3B3"/>
<path transform="translate(783,135)" d="m0 0 10 2 7 7 4 8 10 22 4 18 7 10 4 10v15l-4 9-5 6-6 4-2 13-4 8-4 5-4 3 23 4 23 6 25 10 19 11 7 5 4 2 5 5 10 9 8 7 10 11 4 6 5 5 4 7v2l3 1 3 9 3 1 2 8h2l3 6 3 10 4 10v3h2l3 12 3 9 5 27 2 19 1 4v44l-3 24 8-2 11-8 7-8 10-15 7-11 8-7 5-2 1 6 4-1h3l1 3 6-2 5-1v-2l4-4 7 1 10 6 7 7 8 14 5 16 1 6v28l-3 15-5 13h-9l-5 10h2v4h6l1 3 8-1v-2l-4-2 1-3 4 2 3 3 18-1 3 2 3 17 4 28v5l-34 5-11 1h6l1 1v69h-22l-1-1-4-25-5-31v-10l-2-3-7-49-5 68-3 43-1 7-5 2h-13l-4-2-3-32-2-40v-45l1-16v-21l-1-17h-31l-4-1-1 10-6 20-7 19 3 10-1 11-4-2-7-19v-8l-13 6-16 5-6 3h-2v74l-4 39-2 9 5 1v2l11 1 4 2 1 3-1 2h-36l-1-14-2-1-1-47-4-36-4-25-1-10h-2l-1 14-6 37-9 42-5 26-1 4 2 4v6h-20l1-10h2v-3l-3-1 2-16 2-27v-55l-1-30 1-8 10 1h9l8-1 1-24-10-4-8-6-6-8-4-9v-11l3-15 2-6 1-36 4-13 6-10 2-3v-9l3-4 6-1 5 3 3 5 1 4 6 4 5 6 3 8 2 10-1 7-2 2 1 1 2 12 2 5 4 4 3 6 5 9 3 6v7l-2-2-1-2 4 16h1v-5l1 4h13l3 6v5h-2l-1 3-6 4-1 5 2 2 2 15 5 10 3 2 3-10 4-12 4-16v-7h-8l-4-6 1-2h3v-2l3-1h9l3-33v-32l-2-25-4-23-6-24-8-21-7-16-9-16v-2h-2l-4-7-11-14-14-15-6-5v-2l-4-2-12-9-16-10-16-8-15-6-13-4-11-3v-2l-18 4-6 4-5 9-2 7v37l1 13-7 1h-12l-2-2-6-27-1-5h-1v33l-2 1h-16l-3-2-2-13-3-20-1-11v-27l4-15 6-10 1-1-6-1-11-41 1-3h44l1-5 6-10 8-9 2-14 1-2v-18l3-7 9-7z" fill="#F49EA0"/>
<path transform="translate(604,443)" d="m0 0h2l2 4h2l2-3h2l1 2 7-1 1 10 7 7 7-1 16 4 11 6 8 7 5 8v10l-4 7-5 6-4 4 2 26 4 22 9 27 9 17v2l3 1 3 7 8 10 8 7 11 9 17 9 9 3 7 1h14l14-5 12-6 13-10 7-6 5-5h2l2-4 11-17 3-9 2-4 4-25 3-4 6 12 6 7 16 8-1 20-1 4-8 2h-9l-10-2v17l1 21v55l-2 27-1 5-2-1-17 5-21 4-8 1-21 1h-51l-28-4-19-5-15-6-8-3v-2l-6-2-1 15-2 3h-4v8h7l8 3 5 5v4h-35v-11-2-6h-5l-3-61-4-52-1-5-9 76-3 26-1 14-8 3h-11l-6-3-1-11-1-51v-38l1-35 2 3 3 9 2-4 2 5 2 1-2-6 5 4-2-6 5 3-5-8v-3h3l-7-5-1-4 2-1 12 4 5 1h10l4-4 4 1 1 3 12-2 16-8 1-2-12 3-8 1h-24l-20-3-5-1 1 2v7l-4 2-5-1-7-11-4-10-2-9v-19l4-16 7-14 8-9 9-6 12-5 4 2 5 4 9 2v-4l3 1v2l3-3v-7l20-1 5-2v-8l-4-5-10-6-5-4-1-2h-4l1 4h2l2 3v9l-6 7-4 2-2 7-1 1h-6l-3-2-1-8-4-2-3-5v-2l-4-2 1-5h6l1-10h8v-2l-9 1v8l-1 2-7-1-1-15 3-3 6-4z" fill="#FAB3B4"/>
<path transform="translate(1240,387)" d="m0 0h24l15 4 12 5 11 7 10 9 8 10 7 14 4 16 1 6v17l-3 14-6 14-2 4 13 10 6 3 19-1 17-4 19-10 14-10 9-7 10-3v-4l-6-1-6-4-3-6v-6l3-5v-15l-1-1v-8l5-3h8l6 4 8 3 5 10 2 10v6l-3 3-5 10 2 4 9 1 14 6 6 6v2h2l7 10 5 11 2 7v25l-4 11 2 6 1 10 1 2 4 27 2 18 3 40 1 28v31l-1 15-5 3-4 1h-9l-5-2-11-64-8-47-2-10-13-10-8-5h-5l1-3-6 2 1-4-5 1 1-2h2v-3h-4l-1-3-19-14-12-9-19-14-7-5-3-1-1-2-3-1-5-5-14-10h-6l8 16 6 16 3 13 1 9v31l-5 21-6 16-10 19-8 11-11 12-9 9-17 12-21 10-17 5-25 6-28 3-21 1h-25v-1l26-2 21-3 16-4 24-7 16-8 11-7 10-8 10-9 9-11 9-14 8-15 7-21 3-15 1-22-1-14-3-14-4-13-8-17v-2l-6 1-15 7-13 3h-22l-15-4-17-8-11-9-9-10-8-14-4-9-3-12-1-8v-13l3-15 5-13 9-14 9-10 12-9 13-6zm155 167 1 3z" fill="#F49EA0"/>
<path transform="translate(760,363)" d="m0 0 16 4 16 7 14 10 9 8 4 4v2l4 2 9 14 10 19 7 21 3 13 2 16-2 8-1 36-4 15-2 20-2 5-3 21-4 8-2 6-10 16-3 4h-2l-2 4-9 7-11 9-10 6-15 6-4 1h-14l-11-2-19-9-13-10-7-6v-2l-4-2-9-12-1-4-4-4-10-21-7-22-4-22-2-26 5-5 7-9 1-3v-10l-6-9-4-5 7-25 5-14 8-16 9-14 11-13 10-9 14-9 7-4 5-1h18z" fill="#EEF5FD"/>
<path transform="translate(382,365)" d="m0 0h3v20l-22 13-5 4-1 3 16-6 10-5h3v30l-3-1-4-8h-1l3 12 5 13v5l-6 2h-5l-6-25-3-9h-2l6 25 3 8-2 1-11-2-4-25-3-9v10l4 19 1 4-9-2-1-1-3-22-3-13h-2l3 21 3 13-6-2-3-2-4-24-3-9v10l4 21-6-2-4-2-4-16-6-15-1-1 1 9 7 19 1 2-5-1-5-3-7-16-7-12-3-2 8 18 5 10-6-1-4-4-7-11-12-13-2-1 6 10 8 10 4 4v2l-9-3-9-10-13-10-4-1 6 7 11 9 4 4-11-1h-20l-6 1 1 1 8 1h29v2l-16 8-10 7-1 2 17-8 12-8 4-2 8 3-5 4-14 10-6 7 11-6 11-9 4-2 1-3 10 3-4 4-9 6-11 9-2 3 11-6 13-10h2l2-4 5 1 6 3-5 4-13 9-6 5-1 2 6-2 14-10 5-4 3-3 9 5-4 3-13 9-8 7-1 2 8-4 11-8 9-8 9 4v2l-8 7-11 11-3 5 5-3 12-11 7-9 7 1 4 2-5 5-9 10-7 11 5-3 10-11 7-11h8l6 1-2 4-8 13-6 13 5-5 9-15 4-10h12l-1 7-6 17-1 7 6-10 3-2v98l-3 36-4 22-3 10-5 10-8 7-5 3-11 3-9 1h-14l-11-1-8-3-8-2-16-3v2l-9 3-4 2-2 5-2 6-2 17-4 21v15l5 10-5-4-3-10 1-14-33-11-8-1-2 10-7 23-4 7-1-3 6-16 5-20 2-16v-30l-4-27-3-8 1-8-2-13 3-12 3-6 11-4 9-6 3-3 10-5 11-10 6-10 1-3v-9l-1-3 2-6 64-1 1-13-4-9-4-1-9 2-17 2h-6v2l-12 2-24 2-6 1v-2l-5-1-1 4h-2l-1-3-1 5-5 1h-8l-2-16v-35l3-17 6-17 7-12 11-12 10-8 16-8 19-6 9-1h31l12 1-2 2-12 6v1l10-1 20-6 15-6z" fill="#D4E1F9"/>
<path transform="translate(1191,53)" d="m0 0 2 1 1 8-1 8v22l4 16 7 16 7 11 6 16 1 3 2 29 1 5 1 14 4 17 1 14 1 15 3 8 2 11 5-1 3-7-2-5v-5l5-4 1-5-2-5-2-8 6-3 5-10v-8l2-3 5-3 3-1 2-7-1-11 6-7 4-4h2l1-4v-11l6-14 6-8 7-7 7-4h14l14 2 12 4 8 8 8 15 8 17 7 10 6 26 5 15 3 8 6 20 3 11 1 2v43l2 1-5 8-5 11-2 4-7 4 3-9 5-17v-4l-5 11-5 17-2 6-6 5-1-2 3-20v-7l-1-1-3 14-1 19-6 6h-2v-19l-1-10-1-2-1 6v17l1 12-6 6h-2l-3-20-3-10v10l3 17 1 7-7 6-3-21-3-12v13l4 18 1 4-7 5h-2l-3-22-3-10v11l2 11v5l-2-4-5-14-7-13-2-3 9-1 1-1-5-2-9-2-11-11-10-8v-1l21-2 19-3 6-2 1-2h-12l-24 2-16 3h-3l4-16 4-1 19-2 19-4 10-3 3-2h-14l-23 4-16 4 1-12 1-5 17-4 18-6 16-8 1-2-21 5-19 7-9 4h-2l1-13 1-4 15-3 23-8 13-7 1-2-17 4-18 6-14 6h-2l2-14 1-3 16-4 20-7 14-7h2v-2l-16 3-21 7-14 6 2-11 2-6 15-3 21-7 16-8 1-2-21 5-24 9-5 3h-2l3-11 2-6 11-3 21-9 14-8 5-5-14 4-15 7-17 9h-3l6-11 10-11 10-15 8-16-5 3-9 10-11 17-10 20h-1l-3-32-4-16h-1v25l3 21 3 10-5 14-2-3-4-17-6-18-4-8-2-1 2 14 5 18 6 15 3 5-1 8-2 8h-2l-8-18-8-14-6-8-2-1 3 12 10 19 8 12 1 3h2l-1 11-2 6-3-3-9-14-10-13-7-8h-2l1 6 8 12 9 12 11 12 1 1-1 13-2 4-14-15-12-12-10-7-2-1 5 9 16 17 10 9 7 5-1 12-1 4h-2l-6-8-11-12-9-9-9-7h-2l2 5 9 11 11 11 11 9 5 3-3 12-1 2-4-1v-2h-2l-7-8-9-10-14-12-5-2 4 7 9 10 6 7-5-1-20-6-23-4-14-2 1-6 20-4 12-4 1-1-11 1-17 5-4 1 1-14 13-4 17-9 1-1-6 1-16 7-7 5h-2v-11l19-10 10-7-5 1-12 6-9 6-4 1-1-10 11-7 13-12 2-2-5 2-11 8-10 9-2-3-1-8 10-6 13-11 4-5-13 8-12 10-2 2-2-8 1-4 13-9 10-9 2-2-4 1-11 8-6 5h-2l-2 4-2-1v-10l9-5 11-9 6-7-10 6-9 7-6 6h-2v-10l10-8 11-11 3-4-1-1-9 7-10 10-2 3-2-1 2-8 5-16 1-4v-8l-5 14-3 14-1 8-2-2-5-12-6-11-2-1 5 14 8 15 2 2v9l-4-4-9-13-7-7 6 12 10 13 4 3 1 10-7-6-7-7-10-7 3 5v2l4 2 7 7 11 8 1 10-9-6-10-7-8-4 5 6 15 10 8 4 1 10-5-2-17-8-6-2 4 4 16 8 10 4 1 9-5-2-16-8-10-3 8 6 19 8 4 1 1 4v7l-11-6-16-7h-4l10 6 13 6 8 3-2 13-11-7-10-6-8-3 5 5 7 5 13 6 4 2-2 5-1 1-11-1-15-9h-3l9 8v1l-57 1-30 1v-1l12-2 4-4 3-5 5-8 2-13 4-48v-23l-1-13v-29l3-9 6-7 13-6 12-5 6-4 1-1 2-13 6-8 14-10 6-5 6-8 4-5z" fill="#FAFAFB"/>
<path transform="translate(467,282)" d="m0 0h30l10 5 6 9 1 4v83l1 10v170l-2 28-2 26-3 22-4 15-6 15-8 16-10 14-7 7-4 5-7 5-3 28-3 2h-16l-3-1-1-6-2-35-6-65-1-3-2 7-9 57-7 44-5 2h-10l-7-1v-78l2-49 1-15 2-3 11 4 13 2 1 1 15 1 4-5 4 3 7-1 5-2v-2l4-2 3 18 4 40 1 15 8-20 4-17 3-26-4-8-13-10-5-3-2 5-8 4-15 3h-16l-17-3-7-3-2-5v-53l3-10 6-8 8-5h5l5 5 8 3 2-3 5 2 1-7 7 3 8 9 8 16 2 3 4-11h2v-4l5-1h9l-2 9-5 17-7 2v7l8 20 5 9 4 2v-16l1-28v-109l-1-70v-71l-3-8-4-5-7-4z" fill="#F39EA0"/>
<path transform="translate(1336,129)" d="m0 0h3l-3 9-8 13-8 11-10 12-4 8 15-8 14-7 14-5h5l-2 4-15 9-20 9-9 3h-5l-2 9-3 8 12-6 19-7 16-4h5l-2 4-15 7-21 7-8 2h-7l-3 16 21-9 21-6h8v2l-16 8-24 8-12 2-2 14-1 3 19-8 18-6 10-2h4l-2 4-17 8-22 7-4 1h-7l-2 17 21-9 20-6 10-1-2 4-15 7-21 7-9 2h-5l-1 11-1 6 16-5 23-4h14l1 2-10 4-17 4-22 3h-6l-5 16 13-3 14-2 21-1 7 1-1 3-11 3-14 2-15 1-5 1 13 11 7 7 12 3 3 3-10 2 6 9 6 13 2 6-2-11v-12l3 3 3 14 1 7v9l8-5-4-16-1-6v-14l2 1 4 17 2 15 5-5-1-7-3-17v-11l3 3 4 20v8l7-6-1-12v-17l2-7 2 3 1 10v11l-1 8 7-6 1-19 3-14 2-2 1 3-1 16-2 12 6-5 4-16 5-13 3-5h1l-1 10-7 20 6-4 5-12 5-9 2-5h2l2-4 3-1-1 6-7 14-1 3 10-4 13-4 1-1h7l-2 4-17 7-10 2v3l13 2 10 3 1 4h-10l-2-1-12-1v2h-2l1 3 13 4 1 4-3 1-12-3 1 6 4 2-1 2-3 1-1 17 4 1 7 21 3 6 2 10 5 4 8 4 7 7 5 6 1 7 1 2-6-2-6-4h-8l-4 2v8l1 1v15l-3 5 1 9 5 5 8 3 1 4-14 6-11 9-18 11-13 6-14 3-20 1-17-12-2-3 7-14 3-10 1-7v-17l-4-19-6-14-9-12-7-7-9-6 2-1-3-22-4-15-5-11-6-12-9-11-2-4-4-2-9-8-13-9-9-5-15-7-14-5-19-4-19-3-13-1v-1l13-1-10-9 3-1 12 7 5 3 11 1 2-5-12-5-14-9-3-3 1-2 9 4 14 8 5 4 3-12-11-3-19-10-2-3 7 1 16 7 8 5v-10l-7-1-18-8-7-6 2-1 16 6 14 8-2-9-16-6-12-7-2-4 14 5 15 8-1-10-4-1-12-7-10-8-3-3 1-2 10 5 16 12-1-9-11-8-13-13-1-4 7 4 12 11 5 5-1-9-5-5-9-11-6-11 1-2 9 9 10 15v-8l-6-9-8-18-1-5 4 2 7 12 4 11 4-20 5-14 2-1v9l-5 18-2 4-1 6 16-16 8-5-1 4-9 10-8 8-6 4-1 10 8-7 10-8 10-5-2 4-8 8-14 10h-3l1 10 7-6 13-10 3-2 4 1-10 10-16 11 1 9 8-6 10-8 7-4h2l-2 4-12 11-11 7h-2l3 10 7-7 14-10 3-2 3 1-11 11-14 10h-2l1 10 7-4 8-5 12-6 4 1-9 7-17 9-3 1-1 11 11-7 17-7 4 1-5 4-19 9-8 1v13l16-5 9-2h7l-2 3-20 6-12 1-1 6 14 1 23 4 20 6h3l-12-12-5-7v-3l5 1 11 10 8 7 11 12v2h2v2l4 1 3-14-9-6-15-14-10-11-4-6 1-3 4 2 10 8 15 15 8 10v2h2l1-16-9-7-13-12-11-12-4-6v-3l5 2 10 8 19 19 4 5 2-9v-7l-9-9-10-13-10-15-1-6h4l9 10 13 18 5 9 2-5 2-11h-2l-10-15-10-19-2-6v-6l4 2 9 14 8 15 3 7v3h2l2-16-6-12-5-15-4-16v-9l3 1 7 16 5 17 2 10 1 1 4-13-3-9-3-21v-25h3l4 16 3 31 7-16 14-21z" fill="#F39EA0"/>
<path transform="translate(702,279)" d="m0 0 5 1 1 27 3 26 2 9v9l6 2v4h-2l2 5-5-2-1 2h-2l-1 2-3-2-2 1-1 5 4 1-10 4-11 7-12 10-1 2h-2v2h-2l-2 4-8 11-6 11-8 16-7 21-1 4-9 2-7-8v-10l-7 2-1-3-4 4-3-1-1-4h-2l-2 5-6 5-4 1v17l7 1 1-10 9-1v2h-8v8l-1 2-6 1 1 5 3 3 4 6 2 1 2 8 2 1h6l3-8 6-4 3-4v-9l-1-3h-2l-1-4 5-1 3 5 9 5 6 5 2 3v8l-6 3h-20l1 7-2 3h-2l-3-3v4l-9-1-7-6-10 3-9 5-8 7-7 11-5 13-2 10v19l3 12 7 14 3 4 7-1v-9l10 1 15 2h24l20-3-2 4-15 7-3 1h-9l-2-3h-3l-4 4h-10l-12-3-6-2 1 4 7 5-1 2-3-2 6 12-5-3 2 6-4-2v3l-3-1-1-2-2 2-4-10-1 32-1 14-3-4-9-16-3-6v-3h-2l-5-11-6-18-6-25-4-21-2-26v-24l2-26 6-31 7-25 5-13 9-20 10-18 5-5 9-12 3-5 5-4 2-5 3-1 1-2h3v-3l10-8h2v-2l4-1v-2l14-9 14-8 16-8 17-6 17-5z" fill="#FAB4B4"/>
<path transform="translate(1063,498)" d="m0 0 7 1 10 6 7 7 8 14 5 16 1 6v28l-3 15-5 13h-9l-5 10h2v4h6l1 3 8-1v-2l-4-2 1-3 4 2 3 3 18-1 3 2 3 17 4 28v5l-34 5-11 1h6l1 1v69h-22l-1-1-4-25-5-31v-10l-2-3-7-49-5 68-3 43-1 7-5 2h-13l-4-2-3-32-2-40v-45l1-16v-21l-1-17h-31l-18-6-1-2 2-8 16-3 10-4 11-8 7-8 10-15 7-11 8-7 5-2 1 6 4-1h3l1 3 6-2 5-1v-2z" fill="#1A3D6D"/>
<path transform="translate(818,189)" d="m0 0 12 3 16 6 16 8 14 9 18 14 4 2 1 4 4 2 26 26 7 8 11 12 5 6v2h2l9 11 3 3v2h2l7 8 11 12 9 10 8 7 7 7v183l-10 11-11 7-7 1 3-25v-44l-2-14-3-20-3-16-4-12-1-9h-2l-9-24-1-5h-2l-3-8-3-3-3-7-4-4-5-9-5-5-9-10-7-8-10-9-8-6-1-2-9-5-13-8-16-8-19-7-24-6-21-3 9-9 4-8 2-13 9-7 5-9 1-3v-15l-5-12-6-8z" fill="#D3E1FA"/>
<path transform="translate(1191,53)" d="m0 0 2 1 1 8-1 8v22l4 16 7 16 7 11 6 16 1 3 2 29 1 5 1 14 4 17 1 14 1 15 3 8 2 11 5-1 3-7-2-5v-5l3 1-1 3 10 13 12 12 11 9 5 3-3 12-1 2-4-1v-2h-2l-7-8-9-10-14-12-5-2 4 7 9 10 6 7-5-1-20-6-23-4-14-2 1-6 20-4 12-4 1-1-11 1-17 5-4 1 1-14 13-4 17-9 1-1-6 1-16 7-7 5h-2v-11l19-10 10-7-5 1-12 6-9 6-4 1-1-10 11-7 13-12 2-2-5 2-11 8-10 9-2-3-1-8 10-6 13-11 4-5-13 8-12 10-2 2-2-8 1-4 13-9 10-9 2-2-4 1-11 8-6 5h-2l-2 4-2-1v-10l9-5 11-9 6-7-10 6-9 7-6 6h-2v-10l10-8 11-11 3-4-1-1-9 7-10 10-2 3-2-1 2-8 5-16 1-4v-8l-5 14-3 14-1 8-2-2-5-12-6-11-2-1 5 14 8 15 2 2v9l-4-4-9-13-7-7 6 12 10 13 4 3 1 10-7-6-7-7-10-7 3 5v2l4 2 7 7 11 8 1 10-9-6-10-7-8-4 5 6 15 10 8 4 1 10-5-2-17-8-6-2 4 4 16 8 10 4 1 9-5-2-16-8-10-3 8 6 19 8 4 1 1 4v7l-11-6-16-7h-4l10 6 13 6 8 3-2 13-11-7-10-6-8-3 5 5 7 5 13 6 4 2-2 5-1 1-11-1-15-9h-3l9 8v1l-57 1-30 1v-1l12-2 4-4 3-5 5-8 2-13 4-48v-23l-1-13v-29l3-9 6-7 13-6 12-5 6-4 1-1 2-13 6-8 14-10 6-5 6-8 4-5z" fill="#FCFAFA"/>
<path transform="translate(184,479)" d="m0 0h6l5 6 1 7h6l5 6 2 6 1 7 1 1v8l-5 11v3l10 2h7l5-8 4-3 1-5v-8l-15-1-2-1v-5l10-2 7-2h5v-5l2-1v4h2l1-4 5 1v2l6-2 36-3v-2l12-2 17-2 6-1 4 5 2 8-1 11-1 1h-64v5l-1 2 1 2v9l-5 10-9 10-10 7-6 3-9 7-9 4-4 1-4 11-1 9 2 13-1 5 3 8 4 27v30l-3 21-7 24-7 18h-2l-2 7-2 2h-9l-6-4 5-20 3-21v-31l-3-17-3-11h-2l-1 14-5 21-6 15-9 17-9 11-10 11-3 3h-2v2l-6-1-6-5-3-7 9-12 3-7h2l8-24 3-15 2-20 1-22 3-13 3-10-2-3v-7l6-13 4-20-9-1-12-7-6-8-3-6v-13l3-7 5-5 8-4 20-5 8-4 5-4v-8l3-5z" fill="#3B71AB"/>
<path transform="translate(1420,432)" d="m0 0h8l6 4 8 3 5 10 2 10v6l-3 3-5 10 2 4 9 1 14 6 6 6v2h2l7 10 5 11 2 7v25l-4 11 2 6 1 10 1 2 4 27 2 18 3 40 1 28v31l-1 15-5 3-4 1h-9l-5-2-11-64-8-47-1-9 5 2 9 7h3l4-6-2-4-18-13-15-11 1-11-4-2h-13l-4-2v-2l-4-2-9-7v-30l-13 4-5 1h-17l-11-8-10-7-7-5-1-4 16-1 17-4 19-10 14-10 9-7 10-3v-4l-6-1-6-4-3-6v-6l3-5v-15l-1-1v-8z" fill="#25639B"/>
<path transform="translate(783,135)" d="m0 0 10 2 7 7 4 8 10 22 4 18 7 10 4 10v15l-4 9-5 6-6 4-2 13-4 8-4 5-8 5-21 5-6 4-5 9-2 7v37l1 13-7 1h-12l-2-2-6-27-1-5h-1v33l-2 1h-16l-3-2-2-13-3-20-1-11v-27l4-15 6-10 1-1-6-1-11-41 1-3h44l1-5 6-10 8-9 2-14 1-2v-18l3-7 9-7z" fill="#3D70AB"/>
<path transform="translate(1248,398)" d="m0 0h11l15 3 16 8 11 9 7 8 7 12 4 13 1 4v19l-4 15-6 12-6 8-11 11-13 8-12 4-6 1h-18l-16-4-12-6-11-9-9-11-8-16-3-14v-16l4-16 7-13 12-13 10-7 12-6 11-3z" fill="#FEE2E4"/>
<path transform="translate(387,461)" d="m0 0h1l1 91h2v37l2 5 15 4 8 1h16l15-3 8-4 2-4 5 2 13 10 2 2 3 7-3 26-4 17-9 23h-1l-1-18-4-40-3-17-3 1v2l-7 4-7-1-2-2-4 5-15-1-1-1-13-2-11-4-1 2-2 34-1 30-1 77-2 1h-58l-31-3-16-4-12-5-4-3-3-5-3-6v-15l5-26 2-16 4-7 5-4 8-1v-2h8l23 6 1 1 11 1h14l13-2 9-3 8-6 4-5 5-12 4-21 3-27 1-15v-97l-2 1 2-7z" fill="#FAB4B4"/>
<path transform="translate(1377,335)" d="m0 0 4 1 15 5 5 1-4 1 1 6 4 2-1 2-3 1-1 17 4 1 7 21 3 6 2 10 5 4 8 4 7 7 5 6 1 7 1 2-6-2-6-4h-8l-4 2v8l1 1v15l-3 5 1 9 5 5 8 3 1 4-14 6-11 9-18 11-13 6-14 3-20 1-17-12-2-3 7-14 3-10 1-7v-17l-4-19-1-3v-7l1-2 2-19-1-28 3-1v2l4 2 17 10 8 3-5-5-18-10-5-2v-2l7-5 4 1 16 8 13 5v-2l-5-2-16-8-9-3 2-4 6-5 12 5 16 4h4l-12-5-19-5 6-7 3-1 16 6 8 2h6l-9-4-20-5 2-4 6-5 16 6 7 2h5l-4-3-22-6 1-3z" fill="#FBFBFC"/>
<path transform="translate(774,550)" d="m0 0h29l20 3 21 6-2 17-3 15-3 5-2 6-10 16-3 4h-2l-2 4-9 7-11 9-10 6-15 6-4 1h-14l-11-2-19-9-13-10-7-6v-2l-4-2-9-12-1-4-2-1-2-6-3-7 5-5 11-9 13-9 16-8 11-5 18-5z" fill="#D3E1FA"/>
<path transform="translate(1329,530)" d="m0 0 5 1 17 12 1 3 4 1v2l4 1 14 10 12 9 19 14 7 5v15l-1 30-1 8-1 47h-22l-18 4-29 10-15 3-32 3-4 1 5-5 8-7 10-10 9-12 9-16 7-16 5-18 2-9v-31l-2-13-4-15-6-15-5-8v-3z" fill="#FCFCFC"/>
<path transform="translate(604,443)" d="m0 0h2l2 4h2l2-3h2l1 2 7-1 1 10 7 7 7-1 16 4 11 6 8 7 5 8v10l-4 7-5 6-11 7-4 2-13 3 5 23 2 18 1 12v10l-3 3-18 3h-24l-20-3-5-1 1 2v7l-4 2-5-1-7-11-4-10-2-9v-19l4-16 7-14 8-9 9-6 12-5 4 2 5 4 9 2v-4l3 1v2l3-3v-7l20-1 5-2v-8l-4-5-10-6-5-4-1-2h-4l1 4h2l2 3v9l-6 7-4 2-2 7-1 1h-6l-3-2-1-8-4-2-3-5v-2l-4-2 1-5h6l1-10h8v-2l-9 1v8l-1 2-7-1-1-15 3-3 6-4z" fill="#3C70AB"/>
<path transform="translate(647,587)" d="m0 0h2l1 17v70l-4 64-2 3h-4v8h7l8 3 5 5v4h-35v-11-2-6h-5l-3-61-4-52-1-5-9 76-3 26-1 14-8 3h-11l-6-3-1-11-1-51v-38l1-35 2 3 3 9 2-4 2 5 2 1-2-6 5 4-2-6 5 3-5-8v-3h3l-7-5-1-4 2-1 12 4 5 1h10l4-4 4 1 1 3 12-2 16-8z" fill="#EB5548"/>
<path transform="translate(566,373)" d="m0 0 2 1-10 19-5 12-6 17-7 26-5 26-2 26v24l2 26 6 31 5 17 3 10 5 12 1 5h2l8 17 6 10 1 2 1 24 1 51 1 12h-2l-1-2-1-23v-31l-10-3-28-12-8-4-22-8-2 6-1-2 6-18 3-17 2-19 2-36 1-9 1-169 6-2 19-6 10-4z" fill="#D3E1FA"/>
<path transform="translate(906,593)" d="m0 0h3l2 15h5l1 11 1 3v79l-4 39-2 9 5 1v2l11 1 4 2 1 3-1 2h-36l-1-14-2-1-1-47-4-36-4-25-1-10h-2l-1 14-6 37-9 42-5 26-1 4 2 4v6h-20l1-10h2v-3l-3-1 2-16 2-27v-55l-1-30 1-8 10 1h9l8-1 1-11 1-3 22-1z" fill="#1A3D6D"/>
<path transform="translate(455,599)" d="m0 0 2 4 4 33 1 14v54l-2 33-1 7-3 2h-16l-3-1-1-6-2-35-6-65-1-3-2 7-9 57-7 44-5 2h-10l-7-1v-78l2-49 1-15 2-3 11 4 13 2 1 1 15 1 4-5 4 3 7-1 5-2v-2z" fill="#1A3C6C"/>
<path transform="translate(126,495)" d="m0 0h6l1 18-5 2 1 6 1 2 1 12 6 11 5 4 9 5 9 2-1 9-3 13-5 11v7l2 4-3 9-3 13-2 33-3 20-5 17-5 11h-2l-1 5-7 10-3 5 5 8 5 4-4 1-1 3-7-9-4-1-58-1v11h-1l-1-10 2-14 5-12 3-5 2-8 7-13 4-4 4-8 6-9 5-5 11-12 11-6 5-5 3-5 4-5 3-12v-81l-3-7-1-12-1-10z" fill="#EEF5FD"/>
<path transform="translate(153,600)" d="m0 0 21 6 5 1h22l7-1 3 10 1 1 4 27v30l-3 21-7 24-7 18h-2l-2 7-2 2h-9l-6-4 5-20 3-21v-31l-3-17-3-11h-2l-1 14-5 21-6 15-9 17-9 11-10 11-3 3h-2v2l-6-1-6-5-3-7 9-12 3-7h2l8-24 3-15 2-20 1-22 3-13 3-9z" fill="#E85247"/>
<path transform="translate(1139,541)" d="m0 0h18l14 3 13 5 9 5 10 9 7 11 4 13 1 8v10l-3 14-6 12-10 10-11 7-12 4-20 3h-14l-1-3v-105z" fill="#EEF5FC"/>
<path transform="translate(1248,398)" d="m0 0h11l15 3 16 8 11 9 7 8-1 2-5-3-4-5-4 2-2 4-3 1-2 4-9 9h-2l-2 4-5 4-7 8-5 4-5 6h-2v2h-2l-2 4h-2l-2 4-4 2-1 3h-2l-2 4-14 14h-2l-2 4-3 1-2 4-4 2 2 6-6-5-9-13-5-11-3-14v-16l4-16 7-13 12-13 10-7 12-6 11-3z" fill="#FEE2E4"/>
<path transform="translate(869,451)" d="m0 0 6 1 4 5 2 6 6 4 5 6 3 8 2 10-1 7-2 2 1 1 2 12 2 5 4 4 3 6 5 9 3 6v7l-2-2-1-2 4 16h1v-5l1 4h13l3 6v5h-2l-1 3-6 4-1 5 2 2 2 15 2 5-7 6-4 1-1-4 3-2-1-26 1-2-11 4-6 1h-28v7l-1 4h22v1h-22l-1 3v-13l-10-4-8-6-6-8-4-9v-11l3-15 2-6 1-36 4-13 6-10 2-3v-9l3-4z" fill="#E9BEAC"/>
<path transform="translate(236,557)" d="m0 0 4 2 9 27 15 37 12 26h6l-4 2-5 2-4 2-2 5-2 6-2 17-4 21v15l5 10-5-4-3-10 1-14-33-11-8-1-2 10-7 23-4 7-1-3 6-16 5-20 2-16v-30l-4-27-3-8 1-8-2-13 3-12 3-6 11-4 9-6z" fill="#FCFBFB"/>
<path transform="translate(407,513)" d="m0 0h5l5 5 8 3 2-3 5 2 1-7 7 3 8 9 8 16 2 3 4-11h2v-4l5-1h9l-2 9-5 17-7 2v7l8 20 3 6-1 4-3 3-4-1-8-6-2-1-2 5-8 4-15 3h-16l-17-3-7-3-2-5v-53l3-10 6-8z" fill="#EA5447"/>
<path transform="translate(1093,613)" d="m0 0 4 2 3 3 18-1 3 2 3 17 4 28v5l-34 5-11 1h6l1 1v69h-22l-1-1-4-25-5-31v-10l-2-3-6-40v-8l5-1h7v-2l10-1 2-5h2v-2l5-2v4h6l1 3 8-1v-2l-4-2z" fill="#97442D"/>
<path transform="translate(1240,387)" d="m0 0h24l15 4 12 5 11 7 10 9 8 10 7 14 4 16 1 6v17l-3 14-6 14-9 13h-2l-2 4-8 8-13 8-13 6-13 3h-22l-15-4-17-8-11-9-9-10-8-14-4-9-3-12-1-8v-13l3-15 5-13 9-14 9-10 12-9 13-6zm8 11-15 3-12 5-13 9-8 8-7 10-5 11-3 13v16l4 17 7 13 9 11 11 9 12 6 16 4h18l12-3 10-4 11-8 12-12 7-12 5-15 1-5v-19l-3-12-7-14-8-10-10-9-15-8-11-3-7-1z" fill="#D03731"/>
<path transform="translate(978,572)" d="m0 0h35l1 1 1 17v21l-1 16v45l2 40 1 16-4 1-4-10v-30l-4 1h-16l-10-5-7-7-15-27 4-3 6-2-1-4v-11l-3-10 10-28z" fill="#EEF4FC"/>
<path transform="translate(760,363)" d="m0 0 16 4 16 7 14 10 9 8 5 6 2 5-29 1-16 2-16 3-25 9-16 8-15 10h-2v2l-9 7-3 1v2l-5 4-3 4h-2l-2 4-8 9-1 2h-2l1-11 8-25 8-17 10-15 11-13 10-9 14-9 7-4 5-1h18z" fill="#D3E1FA"/>
<path transform="translate(307,174)" d="m0 0 3 4 3 11 3 19 1 11v13l7 11v-25l2-17 3-9 2 2 1 5v22l-2 20-2 9 6 12 7-29 5-15 4-4 1 1-1 13-5 21-7 21 6 13 7-21 11-23 3-3h2l-1 9-7 19-7 16-5 7 1 5 5 11 8-16 8-13 9-12 4-2-1 7-11 21-12 17-2 2 1 7 3 9h2l1-6 8-15 9-14 7-9 4-2-1 7-10 19-10 15-7 8 4 8 3 5 2 1 1-6 11-20h1v14l-9 12-2 2 1 4 10 12v6l-16 8-22 7-9 2h-5v-3l14-7 25-8 10-2v-2l-7-7-5-7-14 4-17 3-9 1h-16v-3l13-4 18-3 22-2-7-12v-2l-6 2-15 2h-33l-2-1v-2l5-2 15-2 15-1h18l-6-14h-20l-26-3-9-3v-2l3-1h19l19 2 12 2-5-13v-2h-27l-22-3-7-3 1-2h27l22 3 3 1-7-15-27-1-21-3-7-3 1-2h29l20 3 3 1-7-13v-2l-3 1h-22l-23-3-9-3v-2l4-1h17l26 3 7 2-9-14-15-1-25-5-12-4-3-3 1-1h9l24 4 15 4h2l-7-8-12-8-13-12-10-10-2-3v-3l6 2 13 10 12 11 7 7 7 9v-4l-3-16-1-10v-17z" fill="#7788CF"/>
<path transform="translate(754,188)" d="m0 0 3 1-7 11-4 9-44 1 4 17 6 23v3h7l-8 14-3 13h-6l-23 7-17 6-16 8-14 8-12 8h-2v2l-4 1v2l-3 1 1-4 18-33 8-15 6-10 9-13 9-11 6-7 8-7 11-9 11-7 19-9 15-5 17-4z" fill="#D3E1FA"/>
<path transform="translate(1485,567)" d="m0 0h1l1 10 1 2 4 27 2 18 3 40 1 28v31l-1 15-5 3-4 1h-9l-5-2-11-64-8-47-1-9 5 2 9 7h3l4-6-2-4-18-13-15-11 1-6 2-4v2l21-3 16-6 5-2z" fill="#9457E0"/>
<path transform="translate(1015,594)" d="m0 0 12 4 13 2h31l9-2h4v6l-6 12h-2v2l-3 3-1 2-3 1h-7v2l-12 1-1-1-5 68-3 43-1 7-5 2h-13l-4-2-3-32-2-40v-45z" fill="#3B70AA"/>
<path transform="translate(755,209)" d="m0 0 3 1 10 37v3h26v3h-45l-8 9-5 13-2 13v64l-2 1h-16l-3-2-2-13-3-20-1-11v-27l4-15 6-10 1-1-6-1-11-41v-2z" fill="#3C71AB"/>
<path transform="translate(1336,129)" d="m0 0h3l-3 9-8 13-8 11-10 12-4 8 15-8 14-7 14-5h5l-2 4-15 9-20 9-9 3h-5l-2 9-3 8 12-6 19-7 16-4h5l-2 4-15 7-21 7-8 2h-7l-3 16 21-9 21-6h8v2l-16 8-24 8-12 2-2 14-1 3 19-8 18-6 10-2h4l-2 4-17 8-22 7-4 1h-7l-2 17 21-9 20-6 10-1-2 4-15 7-21 7-9 2h-5l-1 11-1 6 16-5 23-4h14l1 2-10 4-17 4-22 3h-6l-4 13-3-1 3-13-9-6-15-14-10-11-4-6 1-3 4 2 10 8 15 15 8 10v2h2l1-16-9-7-13-12-11-12-4-6v-3l5 2 10 8 19 19 4 5 2-9v-7l-9-9-10-13-10-15-1-6h4l9 10 13 18 5 9 2-5 2-11h-2l-10-15-10-19-2-6v-6l4 2 9 14 8 15 3 7v3h2l2-16-6-12-5-15-4-16v-9l3 1 7 16 5 17 2 10 1 1 4-13-3-9-3-21v-25h3l4 16 3 31 7-16 14-21z" fill="#7788CF"/>
<path transform="translate(1412,589)" d="m0 0 5 3v3h4v3h2l2 1-2 3 5-1 1 2 5 1 15 11-3 21-4 32-2 25v49l-3 1h-16l-5-2-2-8-3-22-1-17v-61l1-30z" fill="#9357E0"/>
<path transform="translate(1138,363)" d="m0 0h16l16 3 10 4v2l5 2 8 7 6 12 1 4v9l-10 11-8 13-5 13-2 5-10 4-13 3h-13l-1-2zm5 1-2 1v4l6 1 8-2-4-2-6-2z" fill="#D3E1FA"/>
<path transform="translate(1302,122)" d="m0 0h14l14 2 12 4 8 8 8 15-1 3-10-17-4-4-4-1-1 2 1-5-5 3-9 10-11 17-10 20h-1l-3-32-4-16h-1v25l3 21 3 10-5 14-2-3-4-17-6-18-4-8-2-1 2 14 5 18 6 15 3 5-1 8-2 8h-2l-8-18-8-14-6-8-2-1 3 12 10 19 8 12 1 3h2l-1 11-2 6-3-3-9-14-10-13-7-8h-2l1 6 8 12 9 12 11 12 1 1-1 13-2 4-14-15-12-12-10-7-2-1 5 9 16 17 10 9 7 5-1 12-1 4h-2l-6-8-11-12-9-9-10-8v-3l3-4-1-6-3-10 6-3 5-10v-8l2-3 5-3 3-1 2-7-1-11 6-7 4-4h2l1-4v-11l6-14 6-8 7-7z" fill="#F7F7FA"/>
<path transform="translate(1329,530)" d="m0 0 5 1 17 12 1 3 4 1v2l4 1 10 7-3 1-4-2v-2h-2l-2 19-4 22-8 32-12 36-3 7-1 7 21-2 17-4 12-5 14-8 11-9h2l1 8v31h-22l-18 4-29 10-15 3-32 3-4 1 5-5 8-7 10-10 9-12 9-16 7-16 5-18 2-9v-31l-2-13-4-15-6-15-5-8v-3z" fill="#EEF5FD"/>
<path transform="translate(662,512)" d="m0 0 2 1 2 26 4 22 9 27 9 17v2l3 1 3 7 8 10 8 7 11 9 17 9 19 6-2 2h-22l-19-4-16-7-9-5-13-11-10-10-2-5h-2l-8-13-3-5v79l-1 15h-1v-105h-2v-13l-2-24-4-20-2-9 8-3 8-2z" fill="#F39DA0"/>
<path transform="translate(1217,162)" d="m0 0h1l2 21 1 5 1 14 4 17 1 14 1 15 3 8 2 11 5-1 3-7-2-5v-5l3 1-1 3 10 13 12 12 11 9 5 3-3 12-1 2-4-1v-2h-2l-7-8-9-10-14-12-5-2 4 7 9 10 6 7-5-1-20-6-23-4-14-2 1-6 20-4 12-4 1-1-11 1-17 5-4 1 1-14 13-4 17-9 1-1-6 1-16 7-7 5h-2v-11l19-10 10-7-5 1-12 6-9 6-4 1-1-10 11-7 13-12 2-2-5 2-11 8-10 9-2-3-1-8 10-6 13-11 4-5-13 8-12 10-2 2-2-8 1-4 13-9 10-9 2-2-4 1-11 8-6 5h-2l-2 4-2-1v-10l9-5 11-9 7-8 1 3h3l-1-9z" fill="#FDDFE2"/>
<path transform="translate(512,591)" d="m0 0 7 6 1 3 4 2 8 8 2 1v2l4 2 12 10 5 3 2-3 8 17 6 10 1 2 1 24 1 51 1 12h-2l-1-2-1-23v-31l-10-3-28-12-8-4-22-8-2 6-1-2 6-18 3-17 2-19z" fill="#EEF3FA"/>
<path transform="translate(386,540)" d="m0 0h1v25l-3 36-4 22-3 10-5 10-8 7-5 3-11 3-9 1h-14l-11-1v-1l6-2 3-4h2l2-5 8-13 15-33 8-19 7-13 7-12h2l2-5 7-7z" fill="#EEF4FC"/>
<path transform="translate(717,358)" d="m0 0h12l3 6 3-3h3 1 3 1v-2h3l1 4h2l-2-5h11l2 5v4l-18 1-7 2-13 8-13 10-11 12-10 15-8 16-5 13-8 28-5-1-9-5-16-4 6-21 8-18 9-16 10-13h2v-2h2l2-4 15-12 13-7v-6l4-2h1l2-1h2l3-1h1z" fill="#F39DA0"/>
<path transform="translate(1420,432)" d="m0 0h8l6 4 8 3 5 10 2 10v6l-3 3-5 10 2 4 9 1 14 6 1 4-4 6-8 7-15 12h-2l4 13 1 6v13l-3 3-9 1-3-3 1-10v-12l-1 11-1 2-6-1-2-2v-8l3-12-5-4-7-9-3-4v-5l9-8 12-4v-4l-6-1-6-4-3-6v-6l3-5v-15l-1-1v-8z" fill="#1C3E6F"/>
<path transform="translate(1134,539)" d="m0 0 3 1 1 4v106l-1 7h-10l-2-7-4-28-1-3-7-1h-7v-78z" fill="#F49EA0"/>
<path transform="translate(1107,363)" d="m0 0h31v92l-2 2h-29l-1-1v-92z" fill="#F49EA0"/>
<path transform="translate(1320,507)" d="m0 0 9 6 10 7 5 2v2l4 2 14 10 10 7h17l18-4 1 30 12 9 1 2 3 1h14l4 3-1 7-1 4 4 2 18 13 12 9 2 4-5 7-4-1-11-8-19-14-5-3h-5l1-3-6 2 1-4-5 1 1-2h2v-3h-4l-1-3-19-14-12-9-19-14-7-5-3-1-1-2-3-1-5-5-19-13v-2h-2v-2h-2v-2l-5-1-7-4 6-8zm75 47 1 3z" fill="#E8544C"/>
<path transform="translate(581,593)" d="m0 0 13 4 6 2-10 120-2 16 10-1v7l-7 2h-11l-6-3-1-11-1-51v-38l1-35 2 3 3 9 2-4 2 5 2 1-2-6 5 4-2-6 5 3-5-8v-3h3l-7-5-1-4z" fill="#EB5548"/>
<path transform="translate(647,587)" d="m0 0h2l1 17v70l-4 64-2 3h-4v8h7l8 3 5 5v4h-35v-11-2-6h-5l-3-61-4-52v-9l4 4 4 12 2 36 2 61 11 1 2-36v-78l-2-26 10-6z" fill="#D03731"/>
<path transform="translate(1316,443)" d="m0 0 2 3 2 9v19l-4 15-6 12-6 8-11 11-13 8-12 4-6 1h-18l-13-3 8-2 5-5 4-5 5-4 5-5 4-5 53-53v-3z" fill="#FCCDCE"/>
<path transform="translate(1248,398)" d="m0 0h11l12 2-4 2v2l-8 7-9 10-8 7-4 5h-2v2l-8 7-5 5-7 8-8 7-16 16h-2l-1 9-2-4-2-10v-16l4-16 7-13 12-13 10-7 12-6 11-3z" fill="#FCCECF"/>
<path transform="translate(1494,627)" d="m0 0h1v9l4 2 4 6 5 8 3 3 7 8 2 4v3h2l6 11 6 10 3 11 4 9 4 11v8h-47l-1-1v-37l-1-28-2-27z" fill="#EDF4FD"/>
<path transform="translate(184,479)" d="m0 0h6l5 6 1 7h6l5 6 1 2v8l-4-5-4-7-3-1-1 9-6 7-6 2-2-2-4 1v7l4 1 4 6 1 4-2 2-8 1-6 4-6 9-4 11-10-1-12-7-6-8-3-6v-13l3-7 5-5 8-4 20-5 8-4 5-4v-8l3-5z" fill="#1C3E6F"/>
<path transform="translate(964,556)" d="m0 0h7v1h-6v6l-1 3 15 5-3 14-5 17-7 19 3 10-1 11-4-2-7-19v-8l-13 6-16 5-6 3h-2l-2-8v-11h-5l-2-11v-4l-7 2h-28l1-11 28-1 12-3 5-1 1 28-3 3 1 2 6-3 4-3 4 6 2 1 3-10 4-12 5-22 10-1 4-3z" fill="#F09BA2"/>
<path transform="translate(1466,490)" d="m0 0 6 5v2h2l7 10 5 11 2 7v25l-4 11 1 4v11l-12 6-14 4-6 1h-10l-5-5v-2l7-6 9-13 3-7 2-13-1-17-3-10-3-5 1-3 9-7 4-6z" fill="#3C71AB"/>
<path transform="translate(755,209)" d="m0 0 3 1 10 37v3h26v3h-73l-9-1-6-21-5-19v-2z" fill="#14325F"/>
<path transform="translate(126,495)" d="m0 0h6l1 18-5 2 1 6 1 2 1 12 6 11 5 4 9 5 9 2-1 9-3 13-5 11v7l2 4-3 9-3 13-2 33-3 20h-1v-11l3-25v-10l-15 2-15 5-7 4h-2v2l-8 6-3 3-2-1 9-10 12-7 5-5 3-5 4-5 3-12v-81l-3-7-1-12-1-10z" fill="#FBF8F9"/>
<path transform="translate(259,392)" d="m0 0 8 4 14 12 6 7 8 3-7-8-10-14-1-4 4 2 11 12 7 11 3 3 5 1-9-17-3-10 4 2 9 16 5 12 6 3 1-1-7-19-1-10 4 4 7 19 1 10 6 2 4 2-3-10-2-11v-11l3 3 4 17 2 14 8 4-4-13-2-11v-10h2l4 13 3 22 9 3-3-7-3-16v-11l3 3 4 18 1 14 12 1-5-15-3-13v-5h2l5 12 4 18v4l5-1h7v2h-13l-1 6-9 16-6 8h-2l1-5 9-17 6-8-14-1-2 5-7 9-10 11-4 1 4-8 12-14 5-5-10-3-2 4-11 12-10 8-2-1 6-8 15-15h2v-2l-9-3-11 10-14 9h-3l2-4 12-10 11-7-9-4-5 5-10 8-10 6-3-1 5-5 8-7 12-8-7-3-4 1-5 5-16 11-6 2 2-4 12-10 11-7-9-3-5 5-11 9-12 6 2-4 7-7 15-10-3-2-5-1-9 7-17 9-5 1 2-4 18-11 4-2h3v-2l-15 1h-14l-10-2 1-2 6-1h20l10 1-9-7-11-10z" fill="#BC4FB0"/>
<path transform="translate(153,600)" d="m0 0 18 5-2 1v14l-2 30-4 22-6 16-11 18-10 13-8 9-5-4-3-4 7-9 3-7h2l8-24 3-15 2-20 1-22 3-13 3-9z" fill="#EA5549"/>
<path transform="translate(469,149)" d="m0 0h2l1 2v28l-1 7 7-9 9-10 5-3-1 4-8 11-8 9-5 4-3 8 8-7 14-10 4-1-2 4-11 10-15 10-2 7 10-6 8-4 5-2h5l-5 5-15 8-8 3h-3l-3 9 21-8 10-1-4 4-19 7-10 2-4 8 22-4h9v2l-13 4-13 2h-8l-2 6v2l17-4 15-1v2l-13 4-11 2h-11l-1 9 16-4 7-1h9v2l-10 3-16 3-8 1-1 11 15-5 16-3v3l-18 6-10 2h-4v2h-2v-3l-5-1-19-10-5-4-1-3 6 1 16 9 7 5 1-1 1-11-10-7-11-9-5-6 1-2 11 7 13 12 2 2 4-10-5-2-17-17-2-5 5 2 10 9 9 10 2 1 1-5 1-4-8-9-10-15-1-4 4 2 8 9 7 10 2 4 4-7-2-4-10-12-7-12v-2l4 2 11 13 6 10 5-10-4-2-11-14-5-9 1-3 7 7 10 14 3 4 2-5-1-5-8-9-9-14-1-4 5 3 11 14 4 7v2h2l1-10-7-10-9-17 1-4 7 9 8 14 2 3v-33z" fill="#BC4FB0"/>
<path transform="translate(1193,139)" d="m0 0h1v9l-5 18-2 4-1 6 16-16 8-5-1 4-9 10-8 8-6 4-1 10 8-7 10-8 10-5-2 4-8 8-14 10h-3l1 10 7-6 13-10 3-2 4 1-10 10-16 11 1 9 8-6 10-8 7-4h2l-2 4-12 11-11 7h-2l3 10 7-7 14-10 3-2 3 1-11 11-14 10h-2l1 10 7-4 8-5 12-6 4 1-9 7-17 9-3 1-1 11 11-7 17-7 4 1-5 4-19 9-8 1v13l16-5 9-2h7l-2 3-20 6-12 1-1 6h-2l1-6-12-5-14-9-3-3 1-2 9 4 14 8 5 4 3-12-11-3-19-10-2-3 7 1 16 7 8 5v-10l-7-1-18-8-7-6 2-1 16 6 14 8-2-9-16-6-12-7-2-4 14 5 15 8-1-10-4-1-12-7-10-8-3-3 1-2 10 5 16 12-1-9-11-8-13-13-1-4 7 4 12 11 5 5-1-9-5-5-9-11-6-11 1-2 9 9 10 15v-8l-6-9-8-18-1-5 4 2 7 12 4 11 4-20 5-14z" fill="#BC4FB0"/>
<path transform="translate(322,486)" d="m0 0 4 1 3 4 2 8-1 11-1 1h-64v5l-2 2h-7l-4-1-7 9-3 2-10-2 1-6v-8l-15-1-2-1v-5l10-2 7-2h5v-5l2-1v4h2l1-4 5 1v2l6-2 36-3v-2l12-2 17-2z" fill="#EA594F"/>
<path transform="translate(1328,425)" d="m0 0 5 5 8 11 8 16 6 17 4 15 3 23v6l3 1-6 1-20 1-17-12-2-3 7-14 3-10 1-7v-17l-4-19-1-3v-7z" fill="#D5DFF7"/>
<path transform="translate(1404,295)" d="m0 0h2l-1 6-7 14-1 3 10-4 13-4 1-1h7l-2 4-17 7-10 2v3l13 2 10 3 1 4h-10l-2-1-12-1v2h-2l1 3 13 4 1 4-3 1-16-5-12-4-4-1-5 4-1 2 12 2 12 4 5 4h-8l-24-8-7 8 9 1 17 5 5 4h-8l-20-6-6-2-6 6 24 7 7 4v1l-11-1-21-7h-3l-6 7 7 1 17 8 6 4v2l-9-2-19-9-2-2-5 1-3 3h-2v2l9 3 15 9 5 4-1 2-10-4-15-9-4-3v-2l-3 1-2-9-3-16v-12l3 3 3 14 1 7v9l8-5-4-16-1-6v-14l2 1 4 17 2 15 5-5-1-7-3-17v-11l3 3 4 20v8l7-6-1-12v-17l2-7 2 3 1 10v11l-1 8 7-6 1-19 3-14 2-2 1 3-1 16-2 12 6-5 4-16 5-13 3-5h1l-1 10-7 20 6-4 5-12 5-9 2-5h2l2-4z" fill="#7787CE"/>
<path transform="translate(783,135)" d="m0 0 10 2 7 7 4 8 10 22 2 7v9l-9-6-7-4-6-2h-4v14l-6 1-1 7h-4l-5-1-3-1 2-6-3-2v-6l2-4-6 3h-3v-12l1-2v-18l3-7 9-7z" fill="#CE3831"/>
<path transform="translate(1083,675)" d="m0 0h6l1 1v69h-22l-1-1-4-25-5-31v-10h10v-2z" fill="#3B70AA"/>
<path transform="translate(978,572)" d="m0 0 32 1v64l-9-3-8-6-7-8-6-9-6-12v-9z" fill="#D3E1F9"/>
<path transform="translate(1405,498)" d="m0 0h2l3 7 3 3-1 8-3 13-1 9v12h-1v-11l-13 4-5 1h-17l-11-8-10-7-7-5-1-4 16-1 17-4 19-10z" fill="#3C71AB"/>
<path transform="translate(457,588)" d="m0 0 5 2 13 10 2 2 3 7-3 26-4 17-9 23h-1l-1-18-4-40-3-17-3 1v2l-7 4-7-1-2-2-4 5-15-1-1-1-13-2-11-4-2 2 1-7 17 2 8 1h16l15-3 8-4z" fill="#F8B1B3"/>
<path transform="translate(1049,620)" d="m0 0h1l2 22 5 35h11v1h-10l3 21 6 38-1 3h-13l-11-1-2-2 3-43 5-68z" fill="#F9B5B7"/>
<path transform="translate(1290,410)" d="m0 0 4 2 11 10 3 4-1 2-5-3-4-5-4 2-2 4-3 1-2 4-9 9h-2l-2 4-5 4-7 8-5 4-5 6h-2v2h-2l-2 4h-2l-2 4-4 2-1 3h-2l-2 4-14 14h-2l-2 4-3 1-2 4-4 2 2 6-6-5-5-7 4-2 2-4 22-22h2v-2h2l2-4 54-54z" fill="#FCCFD0"/>
<path transform="translate(426,635)" d="m0 0 2 1 2 13 5 55 1 13v10l-1 5-9 4-7 2h-4v2h-5l-1 2 2-17 12-76 2-12z" fill="#F4ADB6"/>
<path transform="translate(1329,530)" d="m0 0 5 1 17 12 1 3 4 1v2l4 1 10 7-3 1-4-2v-2h-2l-2 19-4 22-8 32-12 36-5 13-5 1h-3l1-5 11-21 7-21 3-14v-31l-2-13-4-15-6-15-5-8v-3z" fill="#D8DFF5"/>
<path transform="translate(1420,432)" d="m0 0h8l6 4 8 3 5 10 2 10v6l-3 3-5 10 2 4 2 2-5 2-3 3-6 1-3-3v-6l-6-1-6-4-3-6v-6l3-5v-15l-1-1v-8z" fill="#F79172"/>
<path transform="translate(1449,616)" d="m0 0 5 3 2 10 13 77h-4l-12-8-13-5v-14l4-36 4-25z" fill="#EDF3FC"/>
<path transform="translate(1054,442)" d="m0 0 8 6 8 5 2 2v8l-1 2v12l-5 5-4 6-3 3-2 6-4 2h-5l-2-6v-3l-4-1-6-5-2-4v-7l5-7h2v-11l-3-4v-2l8-2 3-3 2 4h2v-5z" fill="#F79170"/>
<path transform="translate(1392,560)" d="m0 0 4 2 9 6 7 4 8 6 1 2 3 1h14l4 3-1 7-1 4 4 2 18 13 12 9 2 4-5 7-4-1-11-8-19-14-5-3h-5l1-3-6 2 1-4-5 1 1-2h2v-3h-4l-1-3-19-14-11-8 2-4z" fill="#CD393A"/>
<path transform="translate(953,613)" d="m0 0h2l1 7 6 18 4 4v3l-38 14h-3l-6-15-1-4v-13l8-4 16-5z" fill="#FAFAFB"/>
<path transform="translate(604,443)" d="m0 0h2l2 4h2l2-3h2l1 2 7-1 1 10 5 5v4l-2 2h-4l1 4h2l2 3v9l-6 7-4 2-2 7-1 1h-6l-3-2-1-8-4-2-3-5v-2l-4-2 1-5h6l1-10h8v-2l-9 1v8l-1 2-7-1-1-15 3-3 6-4z" fill="#F69074"/>
<path transform="translate(881,627)" d="m0 0h2l5 28 3 22 2 21v10l-9 7-15 8-5 1 1-8 8-38 6-37z" fill="#F4ADB6"/>
<path transform="translate(416,463)" d="m0 0 8 1 8 2 6 6v6l2 6-3 5v10l-4 5-6 2v6l-2 3-6-2-3-2-2-7-6-7-6-2-1-4v-5l-1-1v-6l4-3 3-7 5-2z" fill="#F78E6F"/>
<path transform="translate(869,451)" d="m0 0 6 1 4 5 2 6 6 4 5 6 3 8-1 4-4-6-4-8-4-2-1 9-4 6-8 6h-2l-2-3-5 1v5l5 3 4 7 3 3v5l-8 4-9 7-3 3-1-3v-31l4-13 6-10 2-3v-9l3-4z" fill="#14325F"/>
<path transform="translate(845,559)" d="m0 0 2 3 5 9 6 7 16 8-1 20-1 4-8 2h-9l-10-2v8h-1v-8l-4-2-3-5v-5h2v-10l4-25z" fill="#E9BCAE"/>
<path transform="translate(647,587)" d="m0 0h2l1 17v70l-4 64h-1v-5l-6 1 1-22 1-15v-70l-2-28v-7z" fill="#EB5548"/>
<path transform="translate(1497,729)" d="m0 0h47l1 1v9l-7 7-7 3-11 4-23 6-2-1-1-5-2-4v-9l4-2z" fill="#D3E1FA"/>
<path transform="translate(216,646)" d="m0 0h1l1 21 12 3 4 2 16 3 12 2-1 10-3 14-34-11-8-1-2 10-7 23-4 7-1-3 6-16 5-20 2-16z" fill="#EEF2FA"/>
<path transform="translate(872,512)" d="m0 0 12 2 1-2 8 10 6 10 6 14v16h-8l-12-3-8-6-1-3v-24l-3-11z" fill="#EA5447"/>
<path transform="translate(770,146)" d="m0 0 4 5 2 3 13 4 1-4 5 1-1 5-3 1-1 9-2 2-1 5 3 1v14l-6 1-1 7h-4l-5-1-3-1 2-6-3-2v-6l2-4-6 3h-3v-12l1-2v-12l2 2 2-4v-6z" fill="#F79273"/>
<path transform="translate(1303,124)" d="m0 0h15l12 2 5 5-10 11-11 17-10 20h-1l-3-32-4-17 3-1v-3z" fill="#FAFAFB"/>
<path transform="translate(1213,171)" d="m0 0 1 3h4l3 37-6 2-11 7-12 11-2-3-1-8 10-6 13-11 4-5-13 8-12 10-2 2-2-8 1-4 13-9 10-9 2-2-4 1-11 8-6 5h-2l-2 4-2-1v-10l9-5 11-9z" fill="#FCF0F1"/>
<path transform="translate(882,469)" d="m0 0 4 1 4 6 4 8 3 7-1 7-2 2 1 1 1 15-9-4h-2l-1 2h-8l-3-3v-6l-5-5v-2l-6-2-3-3v-5l2-2 5 1 1 3 10-7 4-8z" fill="#F69074"/>
<path transform="translate(203,608)" d="m0 0h5l4 9 4 27v30l-3 21-7 24-7 18h-2l-1 4h-4l3-10 5-14 6-23 2-13 1-12v-18l-3-20-6-18-2-4z" fill="#EB5548"/>
<path transform="translate(1342,328)" d="m0 0 3 3 4 20v8l4-3 2 1-3 3 24 7 7 4v1l-11-1-21-7h-3l-6 7 7 1 17 8 6 4v2l-9-2-19-9-2-2-5 1-3 3h-2v2l9 3 15 9 5 4-1 2-10-4-15-9-4-3v-2l-3 1-2-9-3-16v-12l3 3 3 14 1 7v9l8-5-4-16-1-6v-14l2 1 4 17 2 15 5-5-1-7-3-17z" fill="#7887CF"/>
<path transform="translate(918,579)" d="m0 0h2l1 28-3 3 3 5 4 8-5 2v2h-2l-2-8v-11h-5l-2-11v-4l-7 2h-28l1-11 28-1 12-3z" fill="#ECB7AA"/>
<path transform="translate(197,495)" d="m0 0 4 1 4 7 2 3 2-2 1 7 1 1v8l-3 6-9 5-2 5-3 1-6-3-2-4-1-4-4-6-3-1-1-7 2-2 4 1 3 1 6-4 3-4z" fill="#F49078"/>
<path transform="translate(239,495)" d="m0 0 1 4h2l1-4 5 1v2l6-2 8-1h10v1l-24 4 1 1 1 4-2 5 17 1v5l-2 2h-7l-4-1-7 9-3 2-10-2 1-6v-8l-15-1-2-1v-5l10-2 7-2h5v-5z" fill="#F48F77"/>
<path transform="translate(612,622)" d="m0 0h1l3 31 3 49v9h-1l-1-7-8-5-5-5v15l-2 7h-1l1-16 9-76z" fill="#F9AEAD"/>
<path transform="translate(1227,264)" d="m0 0 1 2h2v2l4 2 8 11 11 11-3 1-15-5-17-4-27-4 1-6 20-4 14-4z" fill="#FBF6F7"/>
<path transform="translate(1047,616)" d="m0 0h1v26l-5 62-2 33-1 7-5 2h-13l-3-1v-5h16l6-83 3-33z" fill="#2E649D"/>
<path transform="translate(1255,215)" d="m0 0 4 1 7 11 8 10 9 10 2 2-1 13-2 4-14-15-12-12-8-6v-2l11 1v-3l-9-2-1-3z" fill="#F8F8FA"/>
<path transform="translate(1009,572)" d="m0 0 5 1 1 17v21l-1 16v45l2 40 1 16-4 1-2-4-1-8z" fill="#F9B8BB"/>
<path transform="translate(888,685)" d="m0 0 4 2 1 11v10l-9 7-15 8-5 1 1-8 5-24h1v8l9-7z" fill="#F099A2"/>
<path transform="translate(1316,458)" d="m0 0h2v20l-4 14-3 3-4 7-3 3-5-3-5-5-5-3-1-3 12-11 5-5 10-15z" fill="#EDF5FD"/>
<path transform="translate(1404,295)" d="m0 0h2l-1 6-7 14-1 3 10-4 13-4 1-1h7l-2 4-17 7-10 2v3l13 2 10 3 1 4h-10l-2-1-12-1v2h-2l1 3 4 2h-5l-7-3-9-2 1-3 3-3 3-5 8-17 2-2 1-4h2l2-4z" fill="#8D9AD6"/>
<path transform="translate(416,463)" d="m0 0 8 1 8 2 6 6v6l2 6-4 4-3-11-9-1-2 3-5 1-2 5-7-1-1 5 2 4-1 4-6-2-1-4v-5l-1-1v-6l4-3 3-7 5-2z" fill="#99442D"/>
<path transform="translate(178,642)" d="m0 0h2l4 11 3 17v31l-2 15h-1v-11l1-17-18 2 3-10 4-15 3-16z" fill="#F0EAF1"/>
<path transform="translate(841,720)" d="m0 0h2l1 2v8l-1 5-2-1-17 5-21 4-8 1-22 1-11-1v-1l25-4 17-4 20-7z" fill="#F39DA1"/>
<path transform="translate(1439,593)" d="m0 0 1 2 4 2 18 13 12 9 2 4-5 7-4-1-11-8-19-14-6-4 2-4z" fill="#D33A33"/>
<path transform="translate(918,640)" d="m0 0 2 4 5 13v2l39-14h2l1-3 1 4-24 10-2 4-8 11-14 15-2 1z" fill="#F39FA2"/>
<path transform="translate(1243,262)" d="m0 0 4 1 8 7 8 8 11 9 5 3-3 12-1 2-4-1v-2h-2l-7-8-9-10-14-12-2-2z" fill="#F7F7FA"/>
<path transform="translate(1244,235)" d="m0 0h2l6 8 12 13 11 10 7 5-1 12-1 4h-2l-6-8-11-12-9-9-10-8v-3l3-4z" fill="#F6F7FB"/>
<path transform="translate(597,599)" d="m0 0 3 1-10 119-2 16 10-1v7l-7 2h-11l-6-3v-7l11 2 2-25 5-56 4-49z" fill="#CF3630"/>
<path transform="translate(469,528)" d="m0 0h9l-2 9-5 17-7 2-1 4-2-1-5 5-4 3-4-5v-5l5-5 3-7 3-3 3-9h2v-4z" fill="#F79373"/>
<path transform="translate(1405,539)" d="m0 0h2v30l-5-2-17-12-14-10v-1l18-1zm-10 15 1 3z" fill="#F6F2F5"/>
<path transform="translate(1265,197)" d="m0 0 4 1 3 3 11 19 4 5v2h2l-1 11-2 6-3-3-9-14-10-13-5-6 1-6 4-2z" fill="#F8F7FA"/>
<path transform="translate(734,313)" d="m0 0h1l5 26 3 12 1 1h14l1 7h-11l1 4h-2l-1-4h-3l1 4-4-2 1 3-3-1v-2h-3l-1 3h-2l-1 2-2-8-9 1-3-2h2v-4l15-1-1-12v-21z" fill="#F4AFB5"/>
<path transform="translate(1279,172)" d="m0 0h2l5 16 5 13 3 5-1 8-2 8h-2l-8-18-8-14-3-4-1-7 2-4z" fill="#F7F7FA"/>
<path transform="translate(578,586)" d="m0 0 10 1 15 2h24l20-3-2 4-15 7-3 1h-9l-2-3h-3l-4 4h-10l-12-3-8-4z" fill="#FACACB"/>
<path transform="translate(626,465)" d="m0 0 4 5 9 5 6 5 2 3v8l-6 3-21 1-4 4-2-1 3-8 6-4 3-4v-9l-1-3h-2l-1-4z" fill="#F9B1B2"/>
<path transform="translate(454,594)" d="m0 0h2l1 9-2-3-3 1v2l-7 4-7-1-2-2-4 5-15-1-1-1-13-2-11-4-2 2 1-7 17 2 8 1h16l15-3z" fill="#E9B3AF"/>
<path transform="translate(1420,432)" d="m0 0h8l6 4 8 3 5 10v8l-6 2-5-7-4-2-12-1-2 1-3-7v-8z" fill="#D13D36"/>
<path transform="translate(1316,443)" d="m0 0 2 3 2 9v19l-4 15-2 2 1-7 2-6 1-20h-2l-2 5-8 12-4 2-2 4-5 5h-2l-1 3-3 3v2l5 2 5 4 2 3h4l4-5 3-6h2l-2 5-5 9-6 1-5-2-5-6-4-2-3-2v-5l4-2-2-3-4 1 6-7 4-3-1 4 5-1 5-6h2v-2l-5-1 6-7 3-2-1 5 4-2 1-5-2-2 7-8-1-3z" fill="#FDD2D3"/>
<path transform="translate(1285,484)" d="m0 0 3 2v2l-3 2v5l5 2 2 1 4 5v2l10 1-6 7-7 7-4 3-2-1 2-4v-1l-4 1-1-4h2v-2h-2v-3h-2v-2l-6-1v-3h-2l-2-7 4-1 2-3h2v-4h2v-2h3z" fill="#FAB4B4"/>
<path transform="translate(1221,247)" d="m0 0h4l3 6v10l-14 1v2l-17 5-4 1 1-14 13-4z" fill="#FCF6F6"/>
<path transform="translate(604,443)" d="m0 0h2l2 4h2l2-3h2l1 2 7-1v9l-1 5 1 4h-2l-2-5h-5l-4 3-9 1v8l-1 2-7-1-1-15 3-3 6-4z" fill="#1A3B6A"/>
<path transform="translate(181,643)" d="m0 0 5 5 4 13 1 5v32l-2 18-6 23 8 2 1-5 1 3-1 2 4 1-3 4h-9l-6-4 5-20 3-21v-31l-3-17z" fill="#D03832"/>
<path transform="translate(1054,442)" d="m0 0 8 6 8 5 2 2v8l-2 7-6 1-2-5 1-6-2 1h-7l-4-3-7-1-2 4v-6l-3-4v-2l8-2 3-3 2 4h2v-5z" fill="#99442D"/>
<path transform="translate(389,290)" d="m0 0 1 2-3 8-1 14h-2l-2 5-8 15-2 6-3-1-7-12 6-8 8-11 9-16z" fill="#F7F5F8"/>
<path transform="translate(434,704)" d="m0 0h1l1 13v10l-1 5-9 4-7 2h-4v2h-5l-1 2 2-17 3 1 6-3h2v-2l7-5h2l1-2h1z" fill="#EE98A2"/>
<path transform="translate(896,746)" d="m0 0h15l1 3 5 1v2l11 1 4 2 1 3-1 2h-36z" fill="#E55044"/>
<path transform="translate(640,749)" d="m0 0h7l8 3 5 5v4h-35v-11z" fill="#1D4071"/>
<path transform="translate(1220,212)" d="m0 0 3 3 1 10v2l-7 2-9 6-10 6-2 2h-3l-1-10 11-7 3-3 7-2 2-4z" fill="#FAF6F7"/>
<path transform="translate(1412,749)" d="m0 0 5 1 2 3 1-2h-2v-2h16l1 1v10l-1 1h-34l-1-5 5-4 4 3 1-2-3-1 1-2 4 1 2 5h2l-3-5z" fill="#173765"/>
<path transform="translate(292,250)" d="m0 0h33l7 13v2l-23-3-11-1v-1h9v-2l-14-1z" fill="#F5F6FB"/>
<path transform="translate(1013,749)" d="m0 0 4 1 3 3v2h2l-1-4h-2v-2h15l3 3v8l-1 1h-35l-1-4 5-5 4 3 1-2h-2v-2l4 1 2 1z" fill="#1D3D6D"/>
<path transform="translate(1080,598)" d="m0 0h4v6l-6 12h-2v2l-3 3-1 2-5 1-1-1-2-16v-5h-15v-1l22-1z" fill="#3C70AA"/>
<path transform="translate(1377,335)" d="m0 0 4 1 15 5 5 1-4 1 1 6 4 2-1 2-3 1-1 17 4 1 4 12v6h-6l-6-17v-2h3l-1-17-2-2 4-1-4-3-22-6 1-3z" fill="#EEF0F8"/>
<path transform="translate(875,584)" d="m0 0 19 1 14-1 2 8v5l-1-4-7 2h-28z" fill="#EB5548"/>
<path transform="translate(126,495)" d="m0 0h6l1 18-5 2 1 6 1 2 1 12 6 12v5h-6v15l-1 15-2 1v-57l-3-7-1-12-1-10z" fill="#D3E2FB"/>
<path transform="translate(1222,230)" d="m0 0 3 1v10l-3 3-19 8-7 5h-2v-11l19-10z" fill="#FCF2F3"/>
<path transform="translate(1138,643)" d="m0 0h13l18 3 6 2-3 3-12 3-7 1h-14l-1-3z" fill="#D3E2FB"/>
<path transform="translate(441,749)" d="m0 0h16l-2 5-1 2 2-1 1-3 3-2 3 1-2 5 4-5h3l-3 6h2l2-4 5 2 1 6h-34l-1-1v-8z" fill="#163562"/>
<path transform="translate(1277,152)" d="m0 0 3 1h-2l2 19-9 3-1 9-5-3 3 12 2 6-5-1-5 6-1 3-4-1 1 6 1 3-5 5-2 5v2l9 1 1 2-1 2h-13l-2-1 1 4h-2l-2-8 6-3 5-10v-8l2-3 5-3 3-1 2-7-1-11 6-7 4-4h2l1-4v-11z" fill="#EBEEF9"/>
<path transform="translate(1437,581)" d="m0 0 5 3-1 7-7 8-5 5-2-1 1-2-6 2 1-4-5 1 1-2h2v-3h-4v-2l7-4h2v-6l9-1z" fill="#F5907A"/>
<path transform="translate(1218,199)" d="m0 0h2l1 12-6 2-11 7-12 11-2-3-1-8 10-6 11-9 5-3z" fill="#FCF6F6"/>
<path transform="translate(1320,301)" d="m0 0 12 1-1 3-11 3-14 2-19 1-6-2v-3l15-3z" fill="#7788CF"/>
<path transform="translate(1138,363)" d="m0 0h16l16 3 10 4-3 2-25 2-12 2-2 4zm5 1-2 1v4l6 1 8-2-4-2-6-2z" fill="#FEE0E2"/>
<path transform="translate(355,272)" d="m0 0 11 7-6 11-7 14-2-2-5-12 1-4z" fill="#F6F7FA"/>
<path transform="translate(1441,484)" d="m0 0h3l-3 10-7 16h-4l-5-10-1-11-2-2 6-1 1 3 8-1z" fill="#25649B"/>
<path transform="translate(580,596)" d="m0 0 8 6v3l-3-2 6 12-5-3 2 6-4-2v3l-3-1-1-2-2 2-4-10-1 32-1 14h-1v-19l1-35z" fill="#F79479"/>
<path transform="translate(865,497)" d="m0 0 3 1 6 7v6l-1 2 3 8 1 5v27l-2-1-4-12 1-10-7-12v-2l-2-1 6-4h3l-2-6-5-6z" fill="#F29B9D"/>
<path transform="translate(1388,300)" d="m0 0h1l-1 10-7 20 5-2-5 6 9 1 7 3 9 1 6 3-1 4-10-3-17-5-4-2-4 1-4 2 4-5 4-16 5-13z" fill="#808FD1"/>
<path transform="translate(960,556)" d="m0 0 3 2-1 7-5 4h-10l-1-1h-8l-4-6 1-2 7-2z" fill="#F89372"/>
<path transform="translate(883,627)" d="m0 0 2 3 3 11-1 2h2l2 11 2 15 1 13 1 9v7l1 3v27l-2 2-3-43-3-25-4-25z" fill="#14325F"/>
<path transform="translate(181,750)" d="m0 0h14l-3 5h2l2-4 4-1 4 1v2l4 1 2 2-1 4h-28l-1-7z" fill="#3D6DA7"/>
<path transform="translate(1009,572)" d="m0 0 5 1 1 17v21l-1 16h-2v8h-1l-1-5z" fill="#F5AFB8"/>
<path transform="translate(774,178)" d="m0 0h3v15l4-4 5-11h4v14l-6 1-1 7h-4l-5-1-3-1 2-6-3-2v-6z" fill="#F7D1D4"/>
<path transform="translate(1302,122)" d="m0 0h14l14 2 12 4 8 8 8 15-1 3-10-17-4-4-4-1-1 2 1-5-5 1-4-3-12-2h-15l-4 1v3l-4 2-1 5-2-2-6 6-4 10-1 2-3-1 4-10 6-8 7-7z" fill="#EDF4FC"/>
<path transform="translate(475,591)" d="m0 0 5 4 9 2 1 5 5 3v2h-2l-1 3 1 3-6 1-7-6-7-9-3-3z" fill="#F89372"/>
<path transform="translate(1481,564)" d="m0 0 1 2 3 1v9l-12 6-14 4h-9l1-2 12-5 13-9z" fill="#27659D"/>
<path transform="translate(1371,308)" d="m0 0 2 3-1 16-2 12 2-1-1 4 12 2 12 4 5 4h-8l-24-8-4 2 2-3 1-19 3-14z" fill="#7688CF"/>
<path transform="translate(113,730)" d="m0 0 5 1 6 7-1 2 3 1 4 8-1 7-5-1-13-16v-2h-2l1-4z" fill="#3A5089"/>
<path transform="translate(1234,269)" d="m0 0 5 1 11 10 8 7 10 11-3 1-13-7-13-13-5-7z" fill="#7788CF"/>
<path transform="translate(844,746)" d="m0 0 14 1 3 7v6h-20l1-10h2z" fill="#E65145"/>
<path transform="translate(635,474)" d="m0 0 4 1 6 5 2 3v8l-6 3h-14v-1h6v-9z" fill="#EE98A5"/>
<path transform="translate(744,253)" d="m0 0 4 1-7 8-5 13-2 13v21l-2 2-2-11v-24l3-10 4-6 5-6z" fill="#25649B"/>
<path transform="translate(1093,602)" d="m0 0h1v11l-1 3 3 2v2l-8 2h-5l4-1v-3h-6l-1-3-2-1 6-11 9 1z" fill="#F79272"/>
<path transform="translate(1139,541)" d="m0 0h13l4 1-1 4-5 5h-2l-2 4-8 6v-14z" fill="#D3E2FB"/>
<path transform="translate(1075,749)" d="m0 0h10l4 5v5l-2 2h-16l-2-2v-5z" fill="#2C4373"/>
<path transform="translate(469,528)" d="m0 0h9l-2 9-3 11-2-1-1-7-4 1-4 4h-2l1-10 1-2h2v-4z" fill="#1C3664"/>
<path transform="translate(384,385)" d="m0 0h1v8l-8 5-14 6-6 1 1-4 10-7z" fill="#7789D0"/>
<path transform="translate(918,640)" d="m0 0 2 4 5 13v2l39-14h2l1-3 1 4-24 10-10 3-7 3h-4l-3-7-1 32h-1z" fill="#8C6DBE"/>
<path transform="translate(387,667)" d="m0 0 2 2-1 71h10l1-3v4l10-2v5l-5 2h-10l-7-1z" fill="#14325F"/>
<path transform="translate(591,529)" d="m0 0h2l-2 5-7 16-2 12v22l-4 1-1-3v-19l3-14 7-14z" fill="#24639A"/>
<path transform="translate(384,328)" d="m0 0h1v30l-5-5-7-8 1-4 8-10z" fill="#F7F3F7"/>
<path transform="translate(382,365)" d="m0 0h3v16l-20-5-2-1v-2l15-6z" fill="#F7F8FB"/>
<path transform="translate(394,749)" d="m0 0 9 1 4 4v6l-1 1h-16l-1-1v-6z" fill="#2A406E"/>
<path transform="translate(580,750)" d="m0 0h10l4 4v6l-1 1h-17l-1-5 3-5z" fill="#1C3F6F"/>
<path transform="translate(885,511)" d="m0 0 4 2 5 4 6 7 6 12v27h-9v-1h8l-1-16-9-20-10-13z" fill="#F39B9A"/>
<path transform="translate(786,241)" d="m0 0h7l3 4-1 6-24-1 1-4 5-3z" fill="#F38F79"/>
<path transform="translate(747,358)" d="m0 0h11l2 5v4l-20 1v-2l-6 1v-4l1-2h3 1 3 1v-2h3l1 4h2z" fill="#285084"/>
<path transform="translate(1217,162)" d="m0 0h1l2 21 1 5 1 14 4 17 1 11-2 2-2-3-7 1 3-3h5l-1-7-2-7-7 6-4 4-2-1 12-12-3-36-1-9z" fill="#FEDEE0"/>
<path transform="translate(1481,749)" d="m0 0h10l4 4 1 5-1 1h-19v-5z" fill="#284371"/>
<path transform="translate(845,551)" d="m0 0 2 2 3 10 9 12 10 6 10 2-4 1v7l-1 4h22v1h-22l-1 3v-13l-10-4-8-6-6-8-4-9z" fill="#EB91A0"/>
<path transform="translate(154,692)" d="m0 0 1 3-10 15-8 10-6 8h-2v2l4 2 1 2-1 2-6-1-6-5-3-7 4-2 5 6 5-4 13-17z" fill="#CF3933"/>
<path transform="translate(1308,458)" d="m0 0 4 1-2 5h-2l-1 3-2-1 2-7zm-3 3m-1 1m-1 1m-1 1m-1 1m-1 1m-1 1m-1 1m-1 1 6 2v2l-8 8h-5l2-7zm-7 7m-1 1m-1 1m-1 1m-1 1m-1 1m-1 1m-1 1m-1 1m-1 1 1 3h-2v4l-2 1-2 3h-5l6-7z" fill="#FCC9CA"/>
<path transform="translate(717,358)" d="m0 0h12l1 7-1 1-18 1h-7l1-5 3-1h1l2-1h2l3-1h1z" fill="#2A5285"/>
<path transform="translate(1421,309)" d="m0 0h7l-2 4-17 7-10 2v3l2 1h-9v-2l6-3h2l2-5 13-5z" fill="#A4AAD9"/>
<path transform="translate(907,588)" d="m0 0h2l1 9-1-4-7 2h-28v-4l22-1z" fill="#CA3939"/>
<path transform="translate(1069,548)" d="m0 0 4 5 6 16 4 17v11l-4 1-3-27h-1l-3-12-3-7z" fill="#14325F"/>
<path transform="translate(129,536)" d="m0 0h2l6 11v5h-6v15l-1 15-2 1v-39z" fill="#D1E0F9"/>
<path transform="translate(1388,327)" d="m0 0 15 3 13 2 5 1-1-3h2l1 4h-10l-2-1-12-1v2h-2l1 3 4 2h-5l-7-3-9-2 1-3z" fill="#EEEDF5"/>
<path transform="translate(719,249)" d="m0 0 47 1v2h28v1h-73l-6-2z" fill="#1A3D6D"/>
<path transform="translate(896,746)" d="m0 0h15l1 3 5 1v2l11 1 4 2 1 3-2 2-2-4-3-1-21-1-7-4-1 6h-1z" fill="#F79983"/>
<path transform="translate(386,675)" d="m0 0h1v69h-27l3-2 18-3 5-1z" fill="#DA7AA8"/>
<path transform="translate(1043,496)" d="m0 0h3l1 3 3 1 9-4h4l-1 5-3 1v2l-6 3h-5l-3-3-3 2-2-1v-6z" fill="#F6C9D1"/>
<path transform="translate(227,502)" d="m0 0h11l-1 6-2 1-1-3-1 5h-15l-2-1v-5l10-2z" fill="#EB574B"/>
<path transform="translate(415,505)" d="m0 0h1l1 6 6 3h2l1-2 5 1 4-1 2 2h-3l-2 6-5-1-3 3-10-5-2-4-3-1h5z" fill="#F0ADA0"/>
<path transform="translate(958,618)" d="m0 0 6 5 3 8-1 11-4-2-7-19z" fill="#FAB3B3"/>
<path transform="translate(294,253)" d="m0 0h9l16 4 2 1-1 3-3 1-19-1v-1h9v-2l-12-1z" fill="#D5E3FA"/>
<path transform="translate(893,719)" d="m0 0h1v11h2v11h15l2-1v5l-6 2-12-1-2-1z" fill="#193B6A"/>
<path transform="translate(620,494)" d="m0 0 2 2-1 7-3 1-3-3v4l-9-1-7-6h-5l2-2h7l5 2h8z" fill="#F6D1D3"/>
<path transform="translate(126,457)" d="m0 0h7v10l-1 9h-6l-1-1z" fill="#D3E2FB"/>
<path transform="translate(1326,267)" d="m0 0 5 1 13 13-4 3-9-1 5-4-12-1v-1l6-1-6-6v-2z" fill="#D4E1F9"/>
<path transform="translate(1397,371)" d="m0 0 4 1 4 12v6h-6l-6-18z" fill="#D5E3FB"/>
<path transform="translate(876,193)" d="m0 0 4 4 7 14-7 1-9-16v-2z" fill="#D3E2FB"/>
<path transform="translate(132,419)" d="m0 0h6v7l-2 11-5 1h-2l1-12z" fill="#D3E2FB"/>
<path transform="translate(1358,299)" d="m0 0 5 5 5 7 2-1-2 13h-1v-5l-4-2-8-12v-4z" fill="#D4E2FA"/>
<path transform="translate(182,750)" d="m0 0h13l-3 5h2l2-4 4-1v2h3l-2 5h-19z" fill="#224271"/>
<path transform="translate(130,577)" d="m0 0h1v33l-4 12-6 7h-2l1-4 5-6 3-12v-24z" fill="#FFE3E5"/>
<path transform="translate(602,282)" d="m0 0h4v10l-1 9h-7l1-18z" fill="#D3E2FB"/>
<path transform="translate(620,741)" d="m0 0 20 1v8h-14l-1-2v-6h-5z" fill="#F0928A"/>
<path transform="translate(160,345)" d="m0 0h6l-1 5-7 13-6-1 3-9z" fill="#D3E2FB"/>
<path transform="translate(617,168)" d="m0 0h6l-1 8-3 10-5 1-1-1 1-10z" fill="#D3E2FB"/>
<path transform="translate(657,96)" d="m0 0 5 2-2 4-8 8-3 4-6-2 4-6z" fill="#D3E2FB"/>
<path transform="translate(789,94)" d="m0 0 6 2 13 10v3l-5 1-13-10-4-4z" fill="#D3E2FB"/>
<path transform="translate(138,571)" d="m0 0h3l4 15v4h-6l-3-8-1-10z" fill="#D3E2FB"/>
<path transform="translate(1406,409)" d="m0 0h7l4 18-6 1-3-8z" fill="#D3E2FA"/>
<path transform="translate(183,310)" d="m0 0h5v4l-10 14-6-2 4-7z" fill="#D3E2FB"/>
<path transform="translate(603,244)" d="m0 0h6l1 2-2 17h-6l-1-2z" fill="#D3E2FB"/>
<path transform="translate(608,206)" d="m0 0h6v9l-2 10-6-1 1-15z" fill="#D3E2FB"/>
<path transform="translate(825,124)" d="m0 0 4 1 6 7v2h2l4 6-6 2-11-12-2-4z" fill="#D3E2FB"/>
<path transform="translate(260,254)" d="m0 0h4l1 4-20 7-4 1-3-2v-2l18-7z" fill="#D3E2FB"/>
<path transform="translate(1152,248)" d="m0 0 5 2v2l-17 12h-3l-3-3z" fill="#D3E2FB"/>
<path transform="translate(852,158)" d="m0 0 4 1 9 14v2l-5 2-7-10-4-6v-2z" fill="#D3E2FB"/>
<path transform="translate(144,381)" d="m0 0 5 1-2 9-3 9h-5l-1-5 4-12z" fill="#D3E2FB"/>
<path transform="translate(631,131)" d="m0 0h5l1 2-7 16h-6l1-6 4-9z" fill="#D3E2FB"/>
<path transform="translate(215,277)" d="m0 0 5 2-6 7-8 7-4 1-3-3h2l1-3 8-7z" fill="#D3E2FB"/>
<path transform="translate(1277,152)" d="m0 0 3 1h-2l2 19-9 3-1 9-5-3 2 11-2-1-2-10 6-7 4-4h2l1-4v-11z" fill="#E7ECF8"/>
<path transform="translate(738,76)" d="m0 0 11 1 15 4v3l-3 2-19-5-5-1z" fill="#D3E2FB"/>
<path transform="translate(700,76)" d="m0 0h8v4l-18 4-8 1-1-3 10-4z" fill="#D3E2FB"/>
<path transform="translate(323,490)" d="m0 0 4 2 2 5-1 9-1 2-4-1-2-4v-12z" fill="#DCD7EB"/>
<path transform="translate(575,741)" d="m0 0 5 1h14l-2 1v7l-2 1h-12v-8l-3-1z" fill="#EA9BB0"/>
<path transform="translate(246,512)" d="m0 0h9v4l-5 3-4 6-4 3-1-1v-9l3-1v-2h2z" fill="#D6E1F8"/>
<path transform="translate(766,169)" d="m0 0 6 4 5 2-1 3-10 5h-3v-7z" fill="#CA3C3E"/>
<path transform="translate(113,730)" d="m0 0 5 1 6 7-1 2 3 1 1 3-9-1-8-9z" fill="#1F3E6F"/>
<path transform="translate(1488,741)" d="m0 0h5v8l-2 1h-12v-8z" fill="#EC8876"/>
<path transform="translate(1068,739)" d="m0 0h21v5l-3 1h-18z" fill="#256097"/>
<path transform="translate(1174,229)" d="m0 0 5 1 12 5 1 9-5-2-11-6 3-3z" fill="#EFEBF4"/>
<path transform="translate(859,739)" d="m0 0h1v7l-1 1h-13l-5-1 1-5 3-1 5 1h8z" fill="#173664"/>
<path transform="translate(1010,302)" d="m0 0h1v38l-1 11-7-6-5-5-1-9 2 4 2 5 6 3 1-1 1-7z" fill="#FDDEE0"/>
<path transform="translate(386,451)" d="m0 0h1v11l-7 16-2 2-1-3 5-17z" fill="#BC4FB1"/>
<path transform="translate(659,757)" d="m0 0 1 4h-33v-3h30z" fill="#356DA6"/>
<path transform="translate(1013,553)" d="m0 0 2 4-1 13-5 3h-19v-1l14-1 4-6h2z" fill="#153361"/>
<path transform="translate(378,413)" d="m0 0 4 5 4 10 1 11-1 3-5-12-3-9-1-7z" fill="#BC4FB1"/>
<path transform="translate(844,746)" d="m0 0 14 1 3 7v6l-2-3-2-4-3-1h-7l-4 1-1 7h-1l1-10h2z" fill="#EBA1B0"/>
<path transform="translate(1420,743)" d="m0 0h13l1 5-1 1h-15v2h2l-1 4-2-3v-4h3z" fill="#E79093"/>
<path transform="translate(246,510)" d="m0 0h10l9 1v5l-2 2h-7l-1-1v-5h-9v3h-2l-1 2 1-5z" fill="#F7A796"/>
<path transform="translate(1446,457)" d="m0 0h2l1 2v6l-3 3-5 10 2 4 2 2-5 2-3 3-6 1-3-3v-6l2 1 2 5h4l2-4 1-7 5-10h2l2-6h-2z" fill="#F0ABB4"/>
<path transform="translate(1377,335)" d="m0 0 4 1 5 2 1 7-8-1-8-2 1-3z" fill="#DDE6F8"/>
<path transform="translate(596,321)" d="m0 0h7v8l-1 4h-3l-1 3h-3z" fill="#D3E2FA"/>
<path transform="translate(1449,616)" d="m0 0 5 3 2 10-4 1-5 1-1-2z" fill="#F8F1F4"/>
<path transform="translate(731,346)" d="m0 0h2v5l-7 2h-10l-2-2v-3l13-1z" fill="#245F95"/>
<path transform="translate(920,644)" d="m0 0 6 2 1 7h6 2l4 1-3 2-8 3h-3l-5-13z" fill="#EBF2FC"/>
<path transform="translate(893,502)" d="m0 0 2 1 1 13-11-5v-4z" fill="#14325F"/>
<path transform="translate(1441,484)" d="m0 0h3l-1 5-10 5h-5l-3-3v-3l-3-1 6-1 1 3 8-1z" fill="#3D71AC"/>
<path transform="translate(387,461)" d="m0 0h1v77h-1l-1-70-2 1 2-7z" fill="#FCD0D1"/>
<path transform="translate(966,642)" d="m0 0 2 4-24 10-10 3-4-1 12-5 22-8h2z" fill="#7B85CE"/>
<path transform="translate(1246,225)" d="m0 0 13 3 1 2-1 2h-13l-2-1 1 4h-2l-2-8z" fill="#D4E2FA"/>
<path transform="translate(1080,614)" d="m0 0 1 4h6v3h-4v2h-7l-2-1-1 2-3 1h-8v-1l10-1 2-5h2v-2z" fill="#925591"/>
<path transform="translate(239,495)" d="m0 0 1 4h2l1-4 5 1v2l6-2 8-1h10v1l-30 5-9 1v-1h5v-5z" fill="#F7BDBC"/>
<path transform="translate(761,347)" d="m0 0h1v5l-4 1h-14l-1-5h12z" fill="#2A6097"/>
<path transform="translate(214,683)" d="m0 0h1v13l-8 26-4 7-1-3 6-16 5-20z" fill="#FAC2C4"/>
<path transform="translate(448,278)" d="m0 0 4 1-3 1 48 1v1h-59v-2z" fill="#FEE2E4"/>
<path transform="translate(178,642)" d="m0 0h2l4 11v3h-2l-1-3-2-1-2 13-3 4 1-9z" fill="#F9CDCD"/>
<path transform="translate(380,614)" d="m0 0h1l-1 9-3 10-5 10-8 7-5 3-7 1 2-2 6-1v-2h3v-2l7-5 5-10z" fill="#FEDCDD"/>
<path transform="translate(928,611)" d="m0 0 10 4v2l-9 3h-5l-1-5h2v-2z" fill="#F89372"/>
<path transform="translate(928,606)" d="m0 0 4 5 1 2-5-1-3 1v2h-2l1 5 11-3v2l-8 3-4-1-3-6-1-3 6-3z" fill="#F4A0A1"/>
<path transform="translate(916,608)" d="m0 0 2 2 3 5 4 8-5 2v2h-2l-2-8z" fill="#F4B0BB"/>
<path transform="translate(1312,492)" d="m0 0h2l-2 5-5 9-6 1-5-2-5-6 2-2 6 3 2 3h4l4-5z" fill="#FDD0D1"/>
<path transform="translate(747,358)" d="m0 0h11l2 7-2 1-12-1 1-2h2z" fill="#193A6A"/>
<path transform="translate(918,579)" d="m0 0h2l1 28-4 2-6-1v-1h6v-2h2l-1-14v-10l-5 2-4-1z" fill="#F49EA0"/>
<path transform="translate(717,358)" d="m0 0h12l1 7h-12l1-3z" fill="#183A69"/>
<path transform="translate(1317,454)" d="m0 0 3 1v19l-4 15-2 2 1-7 2-6 1-20h-2z" fill="#FACBCD"/>
<path transform="translate(228,512)" d="m0 0 5 1 1 7-2 6-4 2v-3z" fill="#D9E2F7"/>
<path transform="translate(957,624)" d="m0 0 7 7 3 1-1 10-4-2-5-13z" fill="#F3A1A5"/>
<path transform="translate(467,539)" d="m0 0 4 1 1 7-1 7-7 2 3-6 2-1v-6l-4 2-1 1h-6l2-4v3l4-2z" fill="#DA83A8"/>
<path transform="translate(1157,268)" d="m0 0 5 1 10 6 4 4h-7l-9-7z" fill="#BC4FB1"/>
<path transform="translate(1103,266)" d="m0 0 1 2-4 7-2 4h13v1l-30 1v-1l12-2 4-4 3-5z" fill="#FEDEDF"/>
<path transform="translate(1293,129)" d="m0 0h1v7l-2-2-6 6-4 10-1 2-3-1 4-10 9-10z" fill="#EAF3FD"/>
<path transform="translate(719,353)" d="m0 0h11v7l-1-2-9 1-3-2h2z" fill="#E58597"/>
<path transform="translate(1217,162)" d="m0 0h1l2 21 1 5v14l-2-3-2-25-1-9z" fill="#FFE3E5"/>
<path transform="translate(182,566)" d="m0 0 6 2 10 3h11l2 1v4l-13-2-10-3-6-4z" fill="#26649B"/>
<path transform="translate(355,272)" d="m0 0 11 7-2 4-6-2-5-3z" fill="#D3E1FA"/>
<path transform="translate(117,630)" d="m0 0m-1 1m-1 1m-1 1m-1 1m-1 1m-2 1h2l-1 3-6 2v2l-8 6-3 3-2-1 9-10z" fill="#FDFDFD"/>
<path transform="translate(774,178)" d="m0 0h3v15l4-4 3-6 1 3-4 8-3 2-3-1v-6l-3-1 2-4h2z" fill="#F0AFA8"/>
<path transform="translate(931,560)" d="m0 0 4 1 3 6h8v1l-8 2-5 2-3-9z" fill="#F49EA0"/>
<path transform="translate(234,518)" d="m0 0 7 2v7h-7l-2-2z" fill="#98678F"/>
<path transform="translate(1026,745)" d="m0 0h6l4 3-2 2h-16v-2z" fill="#E287A6"/>
<path transform="translate(109,734)" d="m0 0 4 2 11 14 2 3-3 1-12-15v-2h-2z" fill="#3B6CA6"/>
<path transform="translate(1298,470)" d="m0 0 5 1v2l-8 8h-5l2-5 3-3h2z" fill="#FBB5B5"/>
<path transform="translate(1072,745)" d="m0 0h13l1 4-11 1-3 1-1-2z" fill="#E086AA"/>
<path transform="translate(154,692)" d="m0 0 1 3-10 15-8 10-4 2 6-8 10-14z" fill="#CF3630"/>
<path transform="translate(1049,601)" d="m0 0h17l3 21-3 1-2-16v-5h-15z" fill="#25649B"/>
<path transform="translate(179,510)" d="m0 0 4 1 5 1-1 3-5-1v-2h-3l1 4 3 2 1 5 3 1 1 5-5-5-2-4-3-1-1-7z" fill="#D573A9"/>
<path transform="translate(1330,395)" d="m0 0 6 4 7 8-1 2-10-7-2-2z" fill="#7888CF"/>
<path transform="translate(793,242)" d="m0 0 3 3-1 6-24-1 1-4 5-3 4 1-6 3-1 2 19-1z" fill="#E488A5"/>
<path transform="translate(390,745)" d="m0 0h16l-2 6-10-1h-3z" fill="#E599A8"/>
<path transform="translate(119,726)" d="m0 0 4 5 6 4-4 2-1 3-8-10z" fill="#ED9298"/>
<path transform="translate(1340,128)" d="m0 0 4 2 7 8 7 13-1 3-10-17-4-4-3-1z" fill="#EEF6FD"/>
<path transform="translate(198,493)" d="m0 0h5l4 5 1 2v8l-4-5-4-7-2-1z" fill="#193968"/>
<path transform="translate(473,188)" d="m0 0 6 2-10 10h-2l1-6z" fill="#FDE1E3"/>
<path transform="translate(180,743)" d="m0 0 4 2 9 1v3l2 1h-13z" fill="#F09796"/>
<path transform="translate(612,322)" d="m0 0 2 1-10 9-2 1v-3zm-13 11 3 1-7 7-1-2 1-3 3-1zm-6 8m-1 1m-2 1 2 1-6 5 2-4z" fill="#FDD0D1"/>
<path transform="translate(1306,245)" d="m0 0 3 1-4 1 3 3v2l-5 2-7-5 3-2z" fill="#D6E2F9"/>
<path transform="translate(1318,123)" d="m0 0 12 1 10 3 1 4-3 3 1-5-5 1-4-3-12-2z" fill="#EBF1FB"/>
<path transform="translate(579,742)" d="m0 0 11 1 1 2-1 3h-10z" fill="#F89372"/>
<path transform="translate(577,758)" d="m0 0h17l-1 3h-17z" fill="#326AA2"/>
<path transform="translate(896,746)" d="m0 0h15l1 3 5 1v1h-5l-5-2h-9l-1 7h-1z" fill="#EC9AAA"/>
<path transform="translate(730,361)" d="m0 0h1v6l-1 1h-26v-1l11-1 14-1z" fill="#BC4FB1"/>
<path transform="translate(292,250)" d="m0 0 28 1v1l-26 1 1 4h-2z" fill="#E5EDFA"/>
<path transform="translate(872,512)" d="m0 0 12 2 1-2 2 4-3 2-8-1-4-4z" fill="#D53C35"/>
<path transform="translate(756,352)" d="m0 0h2l1 7h-11l1 4h-2l-1-6 4-1 8 1-1-2-9-1v-1z" fill="#CD7AAF"/>
<path transform="translate(1093,602)" d="m0 0h1v10h-1v-6h-8l-2 6h-2l-1 3-2-1 6-11 9 1z" fill="#DC7DA7"/>
<path transform="translate(443,746)" d="m0 0h11l1 4h-12l-1-3z" fill="#D979A7"/>
<path transform="translate(1089,644)" d="m0 0 4 1 1 7-5 1-1-1v-7z" fill="#F7BFBD"/>
<path transform="translate(426,512)" d="m0 0 5 1 4-1 2 2h-3l-2 6-3-1-2-2-2-1z" fill="#EEB0A3"/>
<path transform="translate(1488,741)" d="m0 0h5v8h-1l-1-6h-11l1 3h7l1 2-7 1-3 1v-8z" fill="#F3A5A7"/>
<path transform="translate(882,469)" d="m0 0 4 1 4 6 4 8-1 2-4-5-4-8-1 2h-2z" fill="#DB7AA7"/>
<path transform="translate(1081,616)" d="m0 0 9 1h4l2 1v2l-8 2h-5l4-1v-3h-6z" fill="#EC96A6"/>
<path transform="translate(1309,332)" d="m0 0 9 1 3 3-2 1h-8z" fill="#7787CE"/>
<path transform="translate(1195,639)" d="m0 0 2 1-9 6-9 4-9 2 4-3 8-3 10-5z" fill="#FEDBDD"/>
<path transform="translate(734,313)" d="m0 0h1l2 11v5l-4 3v-13z" fill="#FBD0D2"/>
<path transform="translate(1239,249)" d="m0 0 3 1-1 3 7 9-1 2-4-1-3 1 1-5-2-5z" fill="#F0E0E9"/>
<path transform="translate(1166,367)" d="m0 0 9 2 2 1v2h-13z" fill="#F6FAFD"/>
<path transform="translate(467,153)" d="m0 0h1l1 33-2 2-1-5 1-4z" fill="#FDD3D5"/>
<path transform="translate(1253,210)" d="m0 0 4 3v2l-5 5-2 6h-3l2-6z" fill="#EDF4FC"/>
<path transform="translate(207,524)" d="m0 0 1 2-9 5-2 5-3 1-3-2 5-1 1-4 2-3z" fill="#D674A8"/>
<path transform="translate(133,512)" d="m0 0 2 1-3 5-2 5-3-4 1-5z" fill="#F3F2F8"/>
<path transform="translate(1296,415)" d="m0 0 4 2 8 9-1 2-5-3z" fill="#FABFC0"/>
<path transform="translate(794,238)" d="m0 0 4 4 2 8-4 1-2-8-2-4z" fill="#255F95"/>
<path transform="translate(214,683)" d="m0 0h1v13l-3 10h-2l2-11z" fill="#F9C2C2"/>
<path transform="translate(206,526)" d="m0 0 1 3-3 5h-6l1-4z" fill="#183968"/>
<path transform="translate(197,495)" d="m0 0 4 1 4 7 2 5-3-1-4-8-1 2h-2z" fill="#D877A8"/>
<path transform="translate(1174,229)" d="m0 0 5 1 12 5 1 9-5-2 3-1-1-5-11-4z" fill="#FDD5D7"/>
<path transform="translate(927,653)" d="m0 0h6 2l4 1-3 2-8 3-3-1 3-1z" fill="#E7EEFA"/>
<path transform="translate(606,461)" d="m0 0h3v2h-8v8l-1 2-8 1v-3l7 1 1-10z" fill="#D370A9"/>
<path transform="translate(1440,591)" d="m0 0 7 6 11 9h-3l-15-11z" fill="#BC4FB1"/>
<path transform="translate(1043,476)" d="m0 0h7l-1 4h-3v2l-4-1z" fill="#F5B7B9"/>
<path transform="translate(880,478)" d="m0 0 1 4-6 7-4 2-4-1 10-7z" fill="#DE7FA6"/>
<path transform="translate(124,712)" d="m0 0h2l-2 5-5 6-1 5h-1v-8l3-1 1-3h2z" fill="#FBCACC"/>
<path transform="translate(370,642)" d="m0 0v3l-6 5-5 3-7 1 2-2 6-1v-2h3v-2z" fill="#FEDEE0"/>
<path transform="translate(1321,522)" d="m0 0h3v2h2v2h2v2l2 1-4 1-6-5z" fill="#F89372"/>
<path transform="translate(1190,177)" d="m0 0 2 1-5 5v4l5-2-5 6h-2v-10z" fill="#FCD4D5"/>
<path transform="translate(126,749)" d="m0 0h4l-1 7-5-1v-4z" fill="#264D80"/>
<path transform="translate(893,499)" d="m0 0m-1 1 3 1-1 2-7 4h-2v4h-2v-5l8-5z" fill="#DC7DA7"/>
<path transform="translate(322,486)" d="m0 0 4 1 2 4-6-2-1 10h-2l1-9z" fill="#CA4046"/>
<path transform="translate(172,673)" d="m0 0h1v8l-1 3h-2v5l-3 1 3-10z" fill="#F9C7C7"/>
<path transform="translate(636,512)" d="m0 0 5 4 7 1-1 2-9 1-2-5z" fill="#25639A"/>
<path transform="translate(882,491)" d="m0 0 7 2v4h-6z" fill="#F5B9B7"/>
<path transform="translate(1320,353)" d="m0 0 4 2 2 11v5l-2-4-4-12z" fill="#F5DFE4"/>
<path transform="translate(1215,150)" d="m0 0 2 1 1 3v8l-2 3-1-6z" fill="#EFF4FC"/>
<path transform="translate(1284,140)" d="m0 0 1 3-4 9-3-1 4-9z" fill="#EEF6FE"/>
<path transform="translate(881,627)" d="m0 0h2l1 13-2-3-2 1z" fill="#D496C3"/>
<path transform="translate(126,516)" d="m0 0 2 3 2 4 1 13h-2l-2-13-2-6z" fill="#D4E1F9"/>
<path transform="translate(424,493)" d="m0 0 5 1 1 5h-5l-1-1z" fill="#F6B4B4"/>
<path transform="translate(773,179)" d="m0 0h2l1 5-6 6v-6z" fill="#F5D5DB"/>
<path transform="translate(603,699)" d="m0 0h1v10l-2 7h-1l1-16z" fill="#F9C0C1"/>
<path transform="translate(137,684)" d="m0 0h2l-2 9-3 7h-1l1-8z" fill="#FAC5C7"/>
<path transform="translate(1312,492)" d="m0 0h2l-2 5-5 9h-2l1-4 4-7z" fill="#FCCDCF"/>
<path transform="translate(1400,320)" d="m0 0 3 1-4 1v3l2 1h-9v-2z" fill="#E6E6F3"/>
<path transform="translate(846,748)" d="m0 0 10 1 1 3h-12z" fill="#F89372"/>
<path transform="translate(919,600)" d="m0 0h2v7l-4 2-6-1v-1h6v-2h2z" fill="#EA90A2"/>
<path transform="translate(239,495)" d="m0 0 1 4h2l2-4v5l-5 2h-6v-1h5v-5z" fill="#F29EA3"/>
<path transform="translate(1428,481)" d="m0 0 2 1 2 5 7-1-2 3-6 1-3-3z" fill="#DD81AB"/>
<path transform="translate(1446,457)" d="m0 0h2l1 2v6l-3 3-1 3h-2l1-5h2l2-6h-2z" fill="#F4A2A2"/>
<path transform="translate(1376,347)" d="m0 0 9 2 7 2-3 2h-5l-3-3-5-2z" fill="#DAE0F5"/>
<path transform="translate(1193,218)" d="m0 0 2 1-4 2v6l5-1-5 5-2-11z" fill="#FDD7D8"/>
<path transform="translate(784,183)" d="m0 0 1 3-4 8-3 2-3-1 2-3 3-1z" fill="#EDB5A8"/>
<path transform="translate(599,463)" d="m0 0h1v7l-1 2-7-1v-7h1l1 5h3z" fill="#14325F"/>
<path transform="translate(1404,295)" d="m0 0h2l-1 6-2 2-1-2-3 2v-3h2l2-4z" fill="#BDC2E5"/>
<path transform="translate(1184,272)" d="m0 0 6 1 1 2-3 5-11-1v-1h10l1-3z" fill="#FDD7D9"/>
<path transform="translate(613,592)" d="m0 0 6 2 1 4h-2l-2-3h-3l-2 3-2-1v-3z" fill="#F6A9A4"/>
<path transform="translate(256,511)" d="m0 0 2 1-1 4 6-1 2-3-1 5-1 1h-7l-1-2z" fill="#EB96A4"/>
<path transform="translate(1294,515)" d="m0 0 2 2-7 6-2-1 2-4z" fill="#F9AEAE"/>
<path transform="translate(1298,509)" d="m0 0h2l-1 3-4 1-2 4-2-2 1-3h3v-2z" fill="#FCCECF"/>
<path transform="translate(1419,430)" d="m0 0h9l2 1v2h-10l-5 2 1-4z" fill="#FCCDCF"/>
<path transform="translate(1244,235)" d="m0 0h2l6 9h-6z" fill="#EAEBF7"/>
<path transform="translate(205,753)" d="m0 0 4 2 1 4-8-2z" fill="#224778"/>
<path transform="translate(471,548)" d="m0 0 1 3-1 3-7 2 3-6z" fill="#C06E83"/>
<path transform="translate(239,522)" d="m0 0h2v5h-5v-2h-2v-2z" fill="#F1928A"/>
<path transform="translate(865,497)" d="m0 0 3 1 6 7-1 3-5-5-3-4z" fill="#E082A5"/>
<path transform="translate(1414,470)" d="m0 0 4 4v2l5 2 4 3-5-1-6-4-2-3z" fill="#F0ABA5"/>
<path transform="translate(1371,329)" d="m0 0 2 4 2 3-6 4z" fill="#E7E5F2"/>
</svg>
