<?xml version="1.0" encoding="UTF-8"?>
<svg version="1.1" viewBox="0 0 2048 1307" width="625" height="399" xmlns="http://www.w3.org/2000/svg">
<path transform="translate(1846)" d="m0 0h36l48 7 36 7 32 7-7 11-13 21-10 15-6 7-7 12-5 12-6 10-10 18-14 30-9 19-4 19v9l4 12 7 11 9 14 10 18 7 16 8 25 6 34 7 37 12 72 9 50 10 57 5 34 4 33 17 97 11 63 12 69 3 20v35l-4 8-14 8-17 9-10 5-22 15-13 10-6 4-7 8-4 8-12 19-9 16-11 33-4 17-4 29-1 15-1 157-1 19-3 10-6 8-10 5-9 3h-1851l-13-7-8-9-4-10-1-6-1-19v-99l1-30 4-16 6-8 5-4 5-2 32-1 8-4 5-6 13-45 11-36 11-35 12-34 6-23 13-34 8-19 17-41 4-10 5-14 11-24 12-23 8-16 10-18 6-16 10-19 7-10 14-25 7-11 5-7 5-12 7-11 12-18 8-10 10-15 9-17 10-11 14-19 10-13 13-17 7-9 13-16 12-13 6-5 6-8 8-11 14-15 10-10 10-8 8-11 21-21 8-6 9-7 14-15 14-13 14-11 10-6 7-8 13-11 16-12 13-10 12-8 18-13 12-8 11-9 15-9 14-6 18-12 22-12 17-9 8-5 19-6 20-9 10-5 46-18 29-9 23-5 48-11 37-7 38-5 33-3 18-1 564-1 33-1h33l40 5h19l12-3 9-6 9-9 6-4 13-18 9-11 8-11 4-5 8-7 12-12zm12 74-11 13-15 20-10 9 1 5 4 6 8 8 11 5 11 2 8-4 8-8 11-14 2-5-6-12-13-15-6-7zm-231 82-76 1h-487l-42 3-55 5-36 7-43 11-16 5-44 15-12 5-13 3-23 10-19 10-17 8-14 8-8 5-8 4-10 4-19 11-7 6-15 10-20 13-9 6-21 16-13 10-10 8-5 6-7 4-6 4-11 9-10 9-7 6-7 8-10 9-7 4-16 16-8 7-5 8-11 11-9 7-13 13-7 8-8 12-5 6-8 6-9 11-7 8-11 14-6 10-5 5-10 12-13 18-8 10-6 7-7 14-8 11-10 15-8 10-15 25-4 10-7 10-15 26-9 15-9 16-8 20-13 24-13 28-8 15-8 19-4 14-10 23-11 27-6 15-12 32-4 10-6 26-12 36-11 35-4 16v10l3 5 5 2h1699l6-3 5-6 4-20 7-50 5-16 9-24 9-19 7-10 8-12 7-10 5-9 11-10 11-9 8-7 9-7 10-8 15-9 7-7v-13l-7-40-15-84-6-37-4-34-9-50-14-80-11-65-6-37-5-47-3-17-9-35-7-19-11-24-11-20-5-8-7-11-8-10-9-10-6-7-11-7-12-12-19-12-23-12-12-5-24-4-19-4-10-1zm-1538 1009-14 1-5 3-4 8-2 10-1 15v19l2 9 4 5 6 2h1748l15-1 5-3 4-6 2-11 1-18v-18l-4-10-6-4-4-1z" fill="#2A2D31"/>
<path transform="translate(1371,321)" d="m0 0h250l116 1 12 2 12 5 7 6 10 15 6 14 11 47 8 38 6 27 7 45 9 41 20 93 6 28 1 7v21l-2 11-7 16-8 11-10 9-17 8-6 1h-1021l-11-3-9-5-7-8-3-8-1-9 2-14 6-20 7-21 8-20 4-13 4-12 19-40 6-11 8-13 15-30 9-11 8-12 11-15 8-10 7-9 8-10 14-15 13-13 9-6 6-8 11-9 12-10 18-13 8-5 24-14 19-11 17-9 19-8 24-7 25-8 21-6 34-7 18-2zm-70 70-95 1-50 3-25 3-24 6-35 12-16 8-23 11-15 8-6 3-20 14-17 13-11 10-5 5-8 6-20 20-7 8-6 9-3 4v2l-4 2-12 15-13 19-9 12-5 7-5 13-14 25-6 10-20 41-2 9v6l3 1h381l5-3 3-5 1-124 3-15 4-8 5-4 11-4 5-1h221l10 2 6 3 5 6 4 10 1 8 1 28v93l2 7 7 6 2 1h283l1-3-3-20-9-43-7-32-6-39-8-37-13-60-11-54-4-11-8-5-2-1-92-1zm-16 209-5 5-2 5v78l4 6 2 2 4 1h140l6-4 1-2v-85l-5-6z" fill="#2A2D31"/>
<path transform="translate(777,917)" d="m0 0h524l13 4 10 9 4 8 2 10v9l-3 11-5 8-7 6-11 4-7 1h-518l-12-4-8-6-6-10-2-6v-18l4-11 8-9 8-4z" fill="#2A2D31"/>
</svg>
