<?xml version="1.0" encoding="UTF-8"?>
<svg version="1.1" viewBox="0 0 1600 1066" width="2000" height="1333" xmlns="http://www.w3.org/2000/svg">
<path transform="translate(1128,242)" d="m0 0 13 2 8 5 5 5 6 10 8-5 7-2h10l12 3 8 5 7 6 5 8 3 8v18l-4 11-8 10 4 2 10 4 7 8 3 9v12l-1 9 253 1 7 3 4 4 1 3 1 295v14h11l13 4 9 7 6 10 1 4v154l-1 9 1 2 3-6 3-2 10-21 16-32 7-11 4-7 2 2 3 13 8 20 5 9 2 1v220h-77l-15-8-16-11-14-13-9-11-5-6-5-1h-306l-2-3-1-75-1-1h-210l-2 1-2 11v20l2 43 2 24 1 19v11h-336l-8-14-7-11-7-16-4-9v-6l3-2 5 1 13 4h7l-2-6-5-4-13-7-5-5-3-12v-24l3-28 2-6 7 1 8 7 10 10 7 1-2-10-12-17-4-8-1-3v-10l3-9 6-10 13-15 9-9 2-1h6l11 9 9 10 9 9 6 7v2h3v-71l5-2h33l2-2-4-6-6-16-5-24-2-22-1-16v-41l2-34 5-42 1-8-2-1h-45l-5 1 7 11 5 10 3 11v19l-3 11-6 12-7 9-8 7-16 8-9 2h-19l-16-5-11-7-10-10-8-14-3-9-1-7v-12l3-14 7-14 5-6 1-3h-46l-1-4 9-12 7-8 13-9 16-7 15-3 15-1 3-6 5-15 5-10 9-13 12-13 10-8 12-7 18-6 14-2h10l16 3 11 4 8 5 7-1 7-3 3-6 5-4 9-1-2-4-18-6-30-5-43-5-19-1h-27l-23 2-19 4-9 2h-8l-8-6-4-6-4-16-1-7v-21l5-30 9-35 6-19 6-15 8-16 9-13 7-7 7-3h9l6 4 5 6 5 9 10 13 11 12 11 10 18 11 17 9 27 12 27 11 28 10 7 2h10l5-3 4-1 145-1 5-8 3-5-3-10-4-11v-16l3-12 7-14 11-12 10-6 4-2 6-9 8-5 22-5 17-2h20l20 3 12 4 12 5 8-11 8-7 8-4zm-237 164-1 2 5 5 4 9-1 18 11 8 5 6 2 5v11l-4 7-3 3-8 3h-13l-4 3-5 10-7 9-5 3h-11l-18-6-27-12-9-3-1 2v183l1 2 4-2 17-12 44-29 22-15 25-17 13-10 19-14 18-13 23-15 12-8 3-4-13-8-5-4-6-9-3-10-1-1h-10l-10-3-8-7-7-14-5-19-2-22 2-31-2-1zm299 0-1 3 8 23 4 14 2 19-1 13-3 10-5 8-7 7-7 3h-10l-3 9-3 5-10 5-4 1h-16l-1 2 22 10 17 8 18 10 15 10 14 11 4 4h2v2l8 7 12 14 11 16 10 17 11 22 11 27 2 4h180v-282l-1-2zm-81 88-16 8-31 12-11 2h-7l-22-7-7-5-2 1-2 13v12l6 4 6 9 8 10 14 8 15 6 4 4 8 20v10l-5 16-6 9v2l-4 2-15 10-6 5-6 8-6 13-8 24-4 11-3 9-4 9-5 13-1 8-1 24-2 97-1 18v11l1 1h121l1-1v-258l3-80 1-14v-14l-8-26-2-4zm-326 158-1 9 1 5h2v-11zm133 121-25 12-28 12-31 12-18 6-2 4 80 13 14 2h9l1-2 2-56zm624 195-2 4-1 23 4 4 24 8 2 1h7l-1-2h-2l-2-5-7-7-9-11-8-12-1-3z" fill="#FDD009"/>
<path transform="translate(289,294)" d="m0 0h26l16 3 10 4 3 3v2l-5 2v2l6 2 8 5 2 3-1 4-7 2-8 1 5 12 9 30 3 15 2 15v32l-4 16-5 10-5 7-14 9h-2l2 21 9 4 14 6 3 3 2 6 12 1 23 5 20 7 14 7 10 6 9 6 8 11 5 10 6 16 5 18 6 29 7 35 6 40 1 11v10l-6 3 2 20 2 53v37l5 23 6 26 10 41 9 39 8 33 6 25 9 15 10 18 2 4v4h-553v-181l12-5 13-3 15-1 14 2 12 6 4 3v2h2l6 8 8 16 6 21 4 19h8l19-3-1-10-4-29-4-25-4-28-1-5v-31l3-74h-12l-3-3v-22l3-36 5-27 6-22 10-24 7-13 9-14 11-13 11-12 14-11 17-11 19-9 22-8 7-2 10-16 10-15 7-3 1-3-6-33-11-3-9-7-6-7-7-14-10-25-3-13-1-10v-13l2-13 5-12 6-9 9-10 8-6 16-8 18-5z" fill="#FD715F"/>
<path transform="translate(1289,690)" d="m0 0h219l13 4 9 7 6 10 1 4v154l-1 9 1 2 3-6 3-2 10-21 16-32 7-11 4-7 2 2 3 13 8 20 5 9 2 1v220h-77l-15-8-16-11-14-13-9-11-5-6-5-1h-306l-2-3-1-75-1-2h2v-215l2-10 4-8 7-7 11-5zm251 278-2 4-1 23 4 4 24 8 2 1h7l-1-2h-2l-2-5-7-7-9-11-8-12-1-3z" fill="#FDF0E2"/>
<path transform="translate(1128,242)" d="m0 0 13 2 8 5 5 5 6 10 8-5 7-2h10l12 3 8 5 7 6 5 8 3 8v18l-4 11-8 10 4 2 10 4 7 8 3 9v12l-1 9 253 1 7 3 4 4 1 3 1 295v14l-1 1h-206v-1h180l-1-284-279 1 3 11 5 14 4 14 2 19-1 13-3 10-5 8-8 8-7 3-10-1-1 8-4 6-8 5-7 2h-12l-16-2-3-7-6-20-1-4-21 10-29 11-11 2h-7l-22-7-7-5h-1l-3 23-1 6-3 2-7-1-11-7-6-5-6-9-3-10h-10l-10-3-8-7-6-10-4-11-3-13-2-22 2-28 1-3h-43l-3 1-14-5-35-9-29-8-27-9v-1l9-2 7-3 145-1 5-8 3-5-3-10-4-11v-16l3-12 7-14 11-12 10-6 4-2 6-9 8-5 22-5 17-2h20l20 3 12 4 12 5 8-11 8-7 8-4z" fill="#6F3229"/>
<path transform="translate(727,806)" d="m0 0 17 2 51 8 42 6 55 9 27 4 29 5-1 17-9 71-3 21v20l2 43 2 24 1 19v11h-336l-8-14-7-11-7-16-4-9v-6l3-2 5 1 13 4h7l-2-6-5-4-13-7-5-5-3-12v-24l3-28 2-6 7 1 8 7 10 10 7 1-2-10-12-17-4-8-1-3v-10l3-9 6-10 13-15 9-9 2-1h6l11 9 9 10 9 9 6 7v2h3v-71l5-2h42z" fill="#02BBF9"/>
<path transform="translate(398,725)" d="m0 0h42l42 1 2 2 2 20 2 53v37l5 23 6 26 10 41 9 39 8 33 6 25 9 15 10 18 2 4v4h-553v-181l12-5 13-3 15-1 14 2 12 6 4 3v2h2l6 8 8 16 6 21 4 19h8l15-2h9l10 4 7 7 7 14 3-4 7-9 9-10 9-8 9-6 16-6 5-1h17l16 4 16 9 3 2v2l4 2 8 9 6 10 7 21 4 19 3 6h14l23-1 30-3 28-5 20-4 30-8 22-7h3l-11-33-15-43-18-52-4-12-17-111-1-5z" fill="#FDCB0A"/>
<path transform="translate(764,37)" d="m0 0h391l11 2 8 4 9 8 4 7 3 8 1 7v85l-3 11-4 8-7 7-6 4-13 4-201 1 1 14 4 35 1 4v7h-4l-3-3v-2l-4-2-22-22-2-1v-2l-4-2-17-17-8-7-3-2-136-1-11-4-9-6-6-8-4-9-1-5v-91l3-10 6-9 9-8 10-4z" fill="#FD6149"/>
<path transform="translate(1463,18)" d="m0 0h11l18 3 16 8 10 8 7 7 9 14 7 14 5 16 2 9v15l-1 6 4 9 13 7-4 4-15 2h-21v25l-2 76-3 9-8 9-10 4-117 1-8 7-17 17-7 6h-2l1-29-55-1-10-4-8-9-2-6-1-98 3-10 7-8 6-4 8-2 13-1 8-7 13-8 11-5 11-3 20-2 3-3 6-18 6-11 9-13 13-13 12-9 13-6 12-4zm-129 196-1 4 4 1-1-5z" fill="#FD971E"/>
<path transform="translate(599,266)" d="m0 0h9l6 4 5 6 5 9 10 13 11 12 11 10 18 11 17 9 27 12 27 11 28 10 40 13 30 8 35 9 13 5 5 5 4 9-1 18 10 7 6 7 2 5v11l-4 7-4 4-8 3h-13l-3 2-5 10-7 9-6 4h-11l-18-6-27-12-16-6-10-5-26-10-22-7-30-5-43-5-19-1h-27l-23 2-19 4-9 2h-8l-8-6-4-6-4-16-1-7v-21l5-30 9-35 6-19 6-15 8-16 9-13 7-7z" fill="#FDFAF3"/>
<path transform="translate(1122,525)" d="m0 0h7l5 1 1 2 29 13 26 14 15 10 14 11 6 5v2l4 2 7 7 9 11 12 17 10 17 11 22 11 27 1 4-1 1-114 1-12 6-7 8-3 7-1 8v170l-1 45-214 1v-9l3-24 3-12 1-1 173-1v-258l3-80z" fill="#FDD00A"/>
<path transform="translate(756,469)" d="m0 0 6 1 32 13 8 4v34h-1l-1-5-6 26-6 16-1 126h-3l-1-12-2-8-3-30-1-15v-17h-2l-1-4-29 5-33 5h-7l-2-2v-5l-2-1h-45l-5 1 7 11 5 10 3 11v19l-3 11-6 12-7 9-8 7-16 8-9 2h-19l-16-5-11-7-10-10-8-14-3-9-1-7v-12l3-14 7-14 5-6 1-3h-46l-1-4 9-12 7-8 13-9 16-7 15-3 15-1 3-6 5-15 5-10 9-13 12-13 10-8 12-7 18-6 14-2h10l16 3 11 4 8 5 7-1 7-3 3-6 5-4 9-1zm27 183-1 9 1 5h2v-11z" fill="#FCF0E2"/>
<path transform="translate(988,280)" d="m0 0h2v18l4 12 6 10 8 7 11 4 16 1 1 9 3 11 6 11v3l-2-2h-6l-5 4v4l2 1h12l1-6 5 5 8 7 10 5 8 3 6 1h15l12-3 12-5 7-5 3-4h10l9 6 6 9 1 3v16l-4 9-4 6-8 8-12 6-4 1h-8v10l-6 51-1-2-21 10-29 11-11 2h-7l-22-7-7-5h-1l-2 13h-1l1-15 1-1v-8l-20-8-9-7-7-7-7-11-7-21-3-18-2-24v-53l2-18 3-9 4-11 5-9h2l2-5 9-10z" fill="#FDB5A5"/>
<path transform="translate(398,725)" d="m0 0h42l42 1 2 2 2 20 2 53v37l5 23 6 26 10 41 9 39 8 33 6 25 9 15 10 18 2 4v4h-73l-1-17v-15l-2-2-2-13-11-31-11-33-15-43-18-52-4-12-17-111-1-5z" fill="#FBBA9D"/>
<path transform="translate(130,49)" d="m0 0h256l10 3 9 6 7 8 5 11v18l-4 10-9 10-8 5-9 3h-258l-10-3-9-6-6-7-4-8-2-7v-11l3-10 7-11 11-8z" fill="#FD971F"/>
<path transform="translate(1289,690)" d="m0 0h219l13 4 9 7 6 10 1 4v35l-381 1-4-1-1-2v-27l2-10 4-8 7-7 11-5z" fill="#02BBF9"/>
<path transform="translate(629,848)" d="m0 0h6l11 9 9 10 9 9 6 7v2h3l1-3 1 7 8 11-1 7-7 8v8l11-7h5l8 16 6 15v6l-9 6-8 6-7 6-4 5-1 6 1 1 7-1 9-5 10-8 7 1 6 8 5 11 2 7 2 15v20l-3 6-7 4-14 4-8 4-1 4v2h22l-1 8-1 3h-108l-8-14-7-11-7-16-4-9v-6l3-2 5 1 13 4h7l-2-6-5-4-13-7-5-5-3-12v-24l3-28 2-6 7 1 8 7 10 10 7 1-2-10-12-17-4-8-1-3v-10l3-9 6-10 13-15 9-9z" fill="#FDD009"/>
<path transform="translate(558,130)" d="m0 0 2 2 6 23 12 45 9 34-2 4-38 10-54 14-64 17-23 6-6 1-3-9-12-46-7-26-6-25 8-3 36-9 31-8 98-26 12-3z" fill="#FDD009"/>
<path transform="translate(123,188)" d="m0 0 14 1 17 5 15 8 13 12 9 12 6 13 4 22-1 18-4 13 2 7 10 19 3 6 1 4-1 1h-7l-29-5-6 3-9 6-16 6-12 2h-14l-17-3-12-5-10-7-10-9-7-8-9-17-4-16-1-5v-12l3-15 4-11 6-11 12-14 12-9 10-5 17-5z" fill="#02BBF9"/>
<path transform="translate(1580,801)" d="m0 0 2 2 3 13 8 20 5 9 2 1v220h-77l-15-8-16-11-14-13-9-11-10-12-3-6 1-4 27-4 7-1h40l16 4 18 6 2 1h6l-3-3-7-8-12-14-7-11v-3l-5-2-6-15-4-13-2-16v-12l3-16 4-10 3-4 3-6 3-2 10-21 16-32 7-11z" fill="#FDCF09"/>
<path transform="translate(1229,366)" d="m0 0 2 4 253 1 7 3 4 4 1 3 1 295v14l-1 1h-206v-1h180l-1-284-279 1-2 1-2-5v-3l16-3 11-6 8-7 6-10z" fill="#FD6102"/>
<path transform="translate(1463,18)" d="m0 0h11l18 3 16 8 10 8 7 7 9 14 7 14 5 16 2 9v15l-1 6 4 9 13 7-4 4-15 2h-21v5l-2-3-2-7-4-5-5-2v-2l-10-2-189-1 5-6 16-10 11-5 11-3 20-2 3-3 6-18 6-11 9-13 13-13 12-9 13-6 12-4z" fill="#FDF1E3"/>
<path transform="translate(424,538)" d="m0 0h11l10 6 8 10 6 12 6 16 5 18 6 29 7 35 6 40 1 11v10l-5 2-45-1h-34l-15-3-6-5-3-16-1-11v-31l4-52 3-20 4-15 5-12 9-12 12-9z" fill="#EC4F3B"/>
<path transform="translate(1359,477)" d="m0 0h21l15 4 15 8 10 9 8 9 6 10 5 14 2 12v8l-3 16-5 14-10 13-11 11-11 6-12 5-8 2h-22l-15-4-14-7-14-12-8-11-5-10-4-13-1-6v-14l3-14 5-13 8-11 9-10 14-9 13-5z" fill="#03BBF9"/>
<path transform="translate(289,294)" d="m0 0h26l16 3 10 4 3 3v2l-5 2v2l6 2 8 5 2 3-1 4-7 2h-15l3 10 1 8v24l-2 14-5-4h-8l-3 5v16l4 11 1 3-6 12-9 11-13 9-13 4-6 1h-21l-9-4-10-9-6-10-11-27-3-10-2-8-1-10v-13l2-13 5-12 6-9 9-10 8-6 16-8 18-5z" fill="#6F3229"/>
<path transform="translate(727,806)" d="m0 0 17 2 51 8 42 6 55 9 27 4 29 5-1 17-9 71-3 21v20l2 43 2 24 1 19v11h-58l2-16 1-6 2-21 2-11 1-14 3-1-1-11 1-2v-7l1-9v-32l2-50 1-3h2l-2-6v-9l1-5v-8l-24-4-189-36-6-1v-1l12-1h29z" fill="#02B0EC"/>
<path transform="translate(1198,795)" d="m0 0h81v171l-1 1h-80l-1-1v-170z" fill="#02BCFA"/>
<path transform="translate(781,376)" d="m0 0 10 3 29 9 58 15 13 5 5 5 4 9-1 18 10 7 6 7 2 5v11l-4 7-4 4-8 3h-13l-3 2-5 10-7 9-6 4h-11l-18-6-27-12-16-6-10-5-26-10-12-4v-4l7-8 9-16 8-18 5-17 3-16 1-9z" fill="#02BBF9"/>
<path transform="translate(110,747)" d="m0 0 59 1 10 83 4 41v72l-9 7-9 9-9 12-3 5-3-3-6-12-8-7-8-3-5-1v-7l-3-16-3-21-5-36-3-18v-31l3-74z" fill="#FBBB9D"/>
<path transform="translate(1297,820)" d="m0 0h82v139l-1 7-1 1h-80z" fill="#FD971C"/>
<path transform="translate(756,469)" d="m0 0 6 1 32 13 8 4v34h-1l-1-5-6 26-6 16-1 126h-3l-1-12-2-8-3-30-1-15v-17h-2l-1-4-29 5-33 5h-7l-2-2v-15l-3-24-2-5-2-13v-18l3-8 5-4 4-9 5-4 5-2h5l1-8 4-6 5-3 7-3 3-6 5-4 9-1zm27 183-1 9 1 5h2v-11z" fill="#FDAA8F"/>
<path transform="translate(598,584)" d="m0 0h20l9 3 14 7 6 5 3 1 9 14 4 8 3 11v19l-3 11-6 12-7 9-8 7-16 8-9 2h-19l-16-5-11-7-10-10-8-14-3-9-1-7v-12l3-14 7-14 5-6 11-9 14-7z" fill="#FD6101"/>
<path transform="translate(31,392)" d="m0 0h23l17 5 11 6 13 12 7 8 6 9 6 13 7 24v10l-3 3-9 3h-16l-15 2-27 1-11 4-9 7-11 8-14 2-4 1v2h-2v-109l14-7z" fill="#FDF1E3"/>
<path transform="translate(1401,848)" d="m0 0h80v119h-81v-114z" fill="#FD5F47"/>
<path transform="translate(944,891)" d="m0 0h207v45l-214 1v-9l3-24 3-12z" fill="#FD6104"/>
<path transform="translate(825,237)" d="m0 0h18l11 3 13 7 11 11 6 11 3 9 1 4v17l-3 11-6 12-9 10-11 7-9 4-10 2h-13l-12-3-13-7-5-4v-2l-3-1v-2h-2l-8-13-4-13v-18l4-14 7-11 9-9 14-8z" fill="#FD6048"/>
<path transform="translate(168,555)" d="m0 0 3 1-7 16-3 17-1 11v49l3 42 5 47v9l-68 1-3-3v-22l3-36 5-27 6-22 10-24 7-13 9-14 11-13 11-12z" fill="#EC503C"/>
<path transform="translate(1010,528)" d="m0 0 8 6 6 9 7 9 14 8 15 6 5 5 8 20v10l-5 16-7 11-13 9-11 8-6 8-6 13-8 24-4 11-3 9-4 9-5 13-1 8h-1v-85l-1-116 5-4 7-1z" fill="#FDF1E3"/>
<path transform="translate(461,988)" d="m0 0h4l12 34 1 7h1l1 5v32h-36l-10-8-16-9-21-8-13-2h-16l-12 3-6 2-4-13-4-6-4-2-9 1-12 6-12 8-4 2-4-6-7-21 1-3 3 6h14l23-1 30-3 28-5 20-4 30-8z" fill="#FD951C"/>
<path transform="translate(332,326)" d="m0 0h6l2 2 10 30 5 20 3 21v32l-4 16-5 10-5 7-14 9h-2l2 22-16-4-20-3h-25l-6 1 3-5-6-33-2-1 18-1 13-3 9-4 11-8 9-12 4-9-2-5-3-9v-16l3-5 1-1h8l4 4 2-13v-24z" fill="#FDA98F"/>
<path transform="translate(599,266)" d="m0 0h9l4 4v36l-3 29-3 3-17 2-7 3-5 8-6 20-1 10 3 7 6 8 4 5 6 5-1 5-10 24-10 18-5 6h-6l-7-6-3-5-4-16-1-7v-21l5-30 9-35 6-19 6-15 8-16 9-13 7-7z" fill="#FDB274"/>
<path transform="translate(727,806)" d="m0 0 17 2 51 8 42 6 55 9 27 4 29 5v8l-2 4v-10h-16l-20 2h-7v7l-1 6 1 7 1 16 1 52 1 24 2 6v16l-3 13-1 19v13l-2 2v24l-2 3v14h-18l2-16 1-6 2-21 2-11 1-14 3-1-1-11 1-2v-7l1-9v-32l2-50 1-3h2l-2-6v-9l1-5v-8l-24-4-189-36-6-1v-1l12-1h29z" fill="#029ED0"/>
<path transform="translate(497,200)" d="m0 0 6 1 81 35 1 2-38 10-54 14-64 17-23 6-4 1 3-5 13-15 8-10 12-14 11-13 9-11 6-7 9 2 6 2 5-1 8-8z" fill="#FED009"/>
<path transform="translate(790,134)" d="m0 0h348v13h-348z" fill="#FCECDD"/>
<path transform="translate(373,181)" d="m0 0 11 3 68 22 10 4-2 4-11 13-9 11-12 14-11 13-9 11-8 9-2-3-8-32-8-31-4-14-5-20z" fill="#FED009"/>
<path transform="translate(1230,370)" d="m0 0 254 1 7 3 4 4 1 3 1 295v14l-1 1h-206v-1h180l-1-284 2 1v283h14l-1-308-4-7-3-2-247-1z" fill="#FD8B3F"/>
<path transform="translate(1363,500)" d="m0 0 4 1 6 7 9 20 7 2 6 1-1 14-6 42-17-1-33-4-12-3-3-2v-14l-2-7 1-7 3-6v-15l4-3h12l18 2 1-17 2-8z" fill="#FEFBF4"/>
<path transform="translate(790,104)" d="m0 0h348v12h-348z" fill="#FDF0E2"/>
<path transform="translate(790,74)" d="m0 0h348v12h-348z" fill="#FDF0E2"/>
<path transform="translate(559,133)" d="m0 0 2 3 5 19 12 45 9 34v2l-6-2-41-18-28-12-12-6 4-6 8-8 7-8 16-17 9-10 12-13z" fill="#FED009"/>
<path transform="translate(946,368)" d="m0 0v3l-8 22-2 8-1 9-1-3h-43l-3 1-14-5-35-9-29-8-27-9v-1l9-2 7-3 145-1z" fill="#FD6307"/>
<path transform="translate(748,474)" d="m0 0h11l6 4 6 10 4 16v14l-3 5-4 3h-4l-1 8-6 5h-6l1 3v7l-3 6-6 3h-6v6l-3 3-9-1-10-8-8-9 1-2 11 12 8 5 6 1 2-2-1-9-4-10-6-11-8-9-5-2h-7l-4 4-1 3v22l1 14-2-3-2-13v-18l3-8 5-4 4-9 5-4 5-2h5l1-8 4-6 5-3 7-3 3-6z" fill="#FDA98E"/>
<path transform="translate(269,487)" d="m0 0h25l20 3 18 5 12 5 10 5 4 6-1 5-43 6-32 3h-30l-10-2-2-1v-5l18-27 1-1z" fill="#ED513D"/>
<path transform="translate(297,443)" d="m0 0 7 1 13 8 9 9 1 3v8l3 1h-2l2 22-16-4-20-3h-25l-6 1 3-5-6-33-2-1 18-1 13-3z" fill="#FDAA8F"/>
<path transform="translate(1118,439)" d="m0 0h1l-1 15-5 42-1-2-21 10-29 11-11 2h-7l-22-7-7-5h-1l-2 13h-1l1-15 1-1v-9l13 2h24l18-4 17-8 10-8 7-7 9-15 5-12z" fill="#FDAC92"/>
<path transform="translate(1516,911)" d="m0 0h3v26l-1 2h-4l-1-7-7 17-7 15-6 15-2 4-2 1h-310l-1-5 309-1 16-37 6-13v-2l-8 9-4-1 1-4 12-13z" fill="#864127"/>
<path transform="translate(800,511)" d="m0 0h1l1 24-1 140-13 9h-1v-126l4-12 3-8z" fill="#FD6202"/>
<path transform="translate(80,242)" d="m0 0h69v9l-2 20-1 2h-56l-4-10-6-18z" fill="#02BCFA"/>
<path transform="translate(851,268)" d="m0 0 7 1 5 4 1 2v10l-4 8-8 11-9 10-4 2-2 4h-4l-13-13-10-14-4-10 1-9 5-5h11l11 8h3l9-7z" fill="#FDF7EF"/>
<path transform="translate(1466,150)" d="m0 0 2 2 4 7v2l3 1 2 3v4h2l5 9 6 9v2h2l3 7-1 1h-21l-1 1-1 27-1 3h-11l-2-2v-29h-21l-2-2 3-6 5-5 15-22 8-11z" fill="#FDFCFB"/>
<path transform="translate(598,584)" d="m0 0h20l9 3 14 7 6 5 3 1 9 14 4 8 3 11v19l-3 11-6 12-7 9-8 7-16 8-9 2h-19l-16-5-11-7-10-10-8-14-3-9-1-7v-12l3-14 7-14 5-6 11-9 14-7zm1 6-8 2-11 5-10 8-8 10-4 7-3 12v18l5 16 1 2h2l2 6 5 5 10 8 12 5 8 2h16l17-5 8-5v-2l4-2 8-9 4-8 3-9 1-4v-21l-7-16-8-11-11-8-12-5-6-1z" fill="#FD7929"/>
<path transform="translate(632,875)" d="m0 0h2l1 45 5-5 7-10 5-7 2 1-2 5-9 13-7 10v14l2 28v7h2l1-5 7-19 3-10h3l-4 16-10 25 3 24 2 10 8-11 10-18 1-3h3l-1 5-10 18-9 14v7l7 28 1 6h2l1-5 11-23 14-34 3-1-1 6-12 29-14 30-1 1h-11l-18-11-20-14-9-7v-3l5 2 10 8 21 14 15 9 2 1-5-15-5-22-11-7-20-14-2-4 4 1 13 9 15 10-6-36-7-8-13-13-7-8-3-5 3-1 9 11 16 16 2 1-2-13-3-39-6-5-9-11-3-3v-2h-2l-4-5v-2l4 1 9 10 8 10 4 3z" fill="#FE961C"/>
<path transform="translate(729,489)" d="m0 0 3 1-5 5-3 9 4 1 8 7 10 13 4 7 1 6 8-3 2-2v-10l-3-9-7-14 1-2 4 6 7 15 1 6 7-2-3 3h-4l-1 8-6 5h-6l1 3v7l-3 6-6 3h-6v6l-3 3-9-1-10-8-8-9 1-2 11 12 8 5 6 1 2-2-1-9-4-10-6-11-8-9-5-2h-7l-4 4-1 3v22l1 14-2-3-2-13v-18l3-8 5-4 4-9 5-4 5-2h5l1-8 4-6z" fill="#FCA88D"/>
<path transform="translate(601,339)" d="m0 0 4 1-3 1v2l5 1-4 15-2 10-6 13-7 16-1 3-4-1-8-7-5-8-1-8 4-17 5-13 5-6h10z" fill="#FDFDFD"/>
<path transform="translate(150,225)" d="m0 0h20v2h-18l1 14 1 27 9 26v2l-9 1 1 3v8l-5 5h-8l-5-5v-7l1-4h-29v2l1 8-4 5-2 1h-7l-5-4-1-7 2-5-9-1v-2h76l-9-25-1-5-1 10-1 1h-60l-11-32v-3l72-1zm-70 17 2 9 7 21 1 1h56l1-2 2-20v-9z" fill="#FDFAF3"/>
<path transform="translate(1064,413)" d="m0 0h7l10 5 5 7 1 3v11l-4 7-7 6-3 1h-11l-7-3-6-7-2-5v-9l4-8 7-6z" fill="#FE715F"/>
<path transform="translate(726,838)" d="m0 0 5 1-1 5-8 15-4 14v12l4 10 8 7 12 5 11 2 14-1 12-4 9-5 9-7 8-9 6-10 4-10 3-10 5 1v7l-5 14-6 10-10 12-12 9-12 6-10 3-16 1-14-3-10-4-9-7-5-7-3-9v-14l4-15 8-15z" fill="#029ED0"/>
<path transform="translate(756,469)" d="m0 0 6 1 32 13 1 2-12 25-12 23-14 25-7 9-1 1h-9l-4-2 1-8 9-2 3-2 2-5v-10l8-2 3-3 2-8 7-3 3-5v-14l-4-16-6-10-5-3-8-1v-1h6z" fill="#FDF9F1"/>
<path transform="translate(369,60)" d="m0 0h9l7 3 6 5 1 6v12l-2 1-1 3-7 6h-13l-3-2-5 4-1-4-1-5-3-5-1-8 4-9 2-4h2l1-2z" fill="#FD9D27"/>
<path transform="translate(1314,160)" d="m0 0h11l5 2 5 4 2 5h2l1 4v7l-4 8h-2v2l-3 3h-4v2h-10l-10-6-2-5h-2l-1-3v-8l4-7 6-6h2z" fill="#FDF6EE"/>
<path transform="translate(1103,467)" d="m0 0 1 2-6 10-9 10-10 8-15 8-15 5-10 2h-12l-8-4-5-3-2 13h-1l1-15 1-1v-9l13 2h24l18-4 17-8 10-8z" fill="#FD7360"/>
<path transform="translate(323,412)" d="m0 0 3 4 8 17 4 13v15l-3 7-4 4h-4l-2-11-9-9-12-7-6-2 3-3 9-7 9-13z" fill="#FD705E"/>
<path transform="translate(1364,190)" d="m0 0h7l10 4 5 7 1 3v10l-5 8-6 5h-10l-10-5-2-4h-2l-1-2v-10l3-7 4-5z" fill="#FDF3E8"/>
<path transform="translate(1198,795)" d="m0 0h81v171l-1 1h-80l-1-1v-170zm2 2-1 3v164l1 1h76l1-1v-167z" fill="#02B5F2"/>
<path transform="translate(730,488)" d="m0 0 13 1 8 9 8 16 3 9v10l-4 4-7 1-4-10-8-11-9-10-6-3 2-9 5-5z" fill="#FDA98E"/>
<path transform="translate(967,413)" d="m0 0h7l9 4 6 8 1 2v12l-4 8-7 5-3 1h-9l-4-13-3-18v-7z" fill="#FD705D"/>
<path transform="translate(1599,907)" d="m0 0h1v103l-2-2-10-26-3-11 5-35 7-24z" fill="#FECF09"/>
<path transform="translate(1028,420)" d="m0 0h8l-2 9-7 12-5 4-4 2h-8l-8-5-6-9-2-5v-3l2-1z" fill="#FDFDFD"/>
<path transform="translate(1576,836)" d="m0 0h1l1 5-1 30-3 28v13l8-19 11-23 4-4-2 6-8 16-9 21-3 9v8l5 25 4 15 4-27 6-23 5-14h1l-1 7-6 20-3 13-4 31 9 25 5 12v6l-2-3-7-8-26-24 1-2 8 7 8 8 8 7 5 4-9-24-5-12-17-17-10-14-2-5h2l7 11 12 14 7 6-8-39-1-9-4-2-8-8-5-11-2-9v-9h2l2 16 4 9 6 8 4 3 4-37 1-13z" fill="#FE961C"/>
<path transform="translate(785,564)" d="m0 0h1v119l-2 1-1-12-2-8-3-30-1-15v-17h-2l-1-8 10-28zm-2 88-1 9 1 5h2v-11z" fill="#FCF0E2"/>
<path transform="translate(558,130)" d="m0 0 2 3-11 11-7 8-14 15-9 10-15 16-3 5 29 13 35 15 20 9 1 2-9-3-53-23-23-10-5 1-11 12-2 2-7-1-9-3-4 1-22 26-9 11-12 14-18 22h-2l2-4 12-14 11-13 9-11 12-14 9-11 6-7v-2l-38-12-51-17 1-2 9 3 50 16 46 15h5l12-13 11-12 14-15 7-8 24-26z" fill="#FE961C"/>
<path transform="translate(1355,158)" d="m0 0 5 1 1 1-1 8-9 22-5 13-3 11h-2l-1 5-3 8-7 1-2-6v-2l2-1 2-6 5-12 2-7 5-12 4-12 3-6 2-5zm-21 56-1 4 4 1-1-5z" fill="#FDFAF4"/>
<path transform="translate(607,615)" d="m0 0h6v6l5 2 2 3v5l-5 1-2-4-2-1h-8l2 7 11 8 2 3v10l-6 5-6 1v5l-5 1-2-7-6-5-1-2v-8l2-2 5 1v8l5 2 6-1 1-1v-7l-5-2-8-6-2-3 1-9 4-4h5z" fill="#FDE9DA"/>
<path transform="translate(1168,694)" d="m0 0 4 1-8 5-3 1-2 5-1 2h-2l-2 9-1 32 383-1v2l-380 1-4-1-1-2v-27l2-10 4-8 7-7z" fill="#02AFEB"/>
<path transform="translate(773,521)" d="m0 0h2l-1 6-10 19-11 18-4 4h-9l-4-2 1-8 9-2 3-2 2-5v-10l8-2 3-3 2-8 7-3z" fill="#FDF6ED"/>
<path transform="translate(1289,690)" d="m0 0 182 1v1l-296 2v-3z" fill="#02A9E1"/>
<path transform="translate(76,242)" d="m0 0 2 1 10 30v2l60-1 2-14h1l2 12 7 20v2h-76v2h9l1 2-2 4-1 7h-1v-10h-6l-2-2v-4l2-1 71-1-1-8-3-8-2 1-61 1-3-5-4-11-5-15z" fill="#02B1ED"/>
<path transform="translate(1507 1e3)" d="m0 0 6 2 14 10 7 6 23 9h2l-2-6 4 4 3 6 12 7 4 4-5-2-12-7h-10l-19 4-10 4-3-1 8-4 19-5 8-1-10-5-11-4h-13l-21 4-10 2 1-2 15-4 16-3-8-3-18-6 4-1 23 7h3l-20-14z" fill="#FE961C"/>
<path transform="translate(80,242)" d="m0 0h69v9l-2 20-1 2h-56l1-4v2l53-1 2-21 1-5-67 1z" fill="#02B5F2"/>
<path transform="translate(1431,713)" d="m0 0h8l5 5 1 6-3 5-4 3-9-1-4-6 1-8z" fill="#FE6101"/>
<path transform="translate(1462,713)" d="m0 0h7l5 4 1 2v7l-4 5-2 1h-7l-5-4-1-2v-7l4-5z" fill="#FE961C"/>
<path transform="translate(1317,169)" d="m0 0h8l4 3 1 9-3 5-3 2-8-1-4-4v-8z" fill="#FD9C27"/>
<path transform="translate(1494,713)" d="m0 0h6l5 3 2 5-1 6-4 4-7 1-5-3-2-3v-7l4-5z" fill="#FDF1E3"/>
<path transform="translate(1366,199)" d="m0 0 8 1 4 5v8l-4 5h-9l-2-1v-2h-2l-1-2 1-9z" fill="#FD9B29"/>
<path transform="translate(1489,187)" d="m0 0 1 2h2l3 7-1 1h-21l-1 1-1 27-1 3h-11l-2-2v-29h2l1 27 5 1 4-1-1-28 2-2h16l-1-3 3-1z" fill="#FDF6EC"/>
<path transform="translate(980,384)" d="m0 0 5 1 4 6v8l-4 6-5 1-3-4 1-4-3-1v-7l3-5z" fill="#783529"/>
<path transform="translate(1039,386)" d="m0 0 5 1 3 4 1 9-3 6-3 2-4-1-2-3 1-4-3-2v-7z" fill="#79352A"/>
<path transform="translate(1568,1016)" d="m0 0 4 1 5 5 7 8 11 24 5 5-1 2-9-3-8-2-14-1-14 1-15 4v-2l12-4 6-1h21l13 2-11-9 2-1 9 6-10-21-9-10z" fill="#FE961C"/>
<path transform="translate(1343,193)" d="m0 0 1 3 2 1-2 1-2-1v2h2v4l-2 2v7l-2 7-3 8-7 1-2-6v-2l2-1 2-6 4-10h3v-5h2l1-4zm-9 21-1 4 4 1-1-5z" fill="#FDFBF8"/>
<path transform="translate(76,242)" d="m0 0 2 1 10 30v2l60-1 2-14h1l2 12 5 14v2h-2l-5-13-2 1-61 1-3-5-4-11-5-15z" fill="#02B3EF"/>
<path transform="translate(1352,202)" d="m0 0h2l1 5 1 4-1 5h4v-3h2v2h2v2l8 1v1h-9l-4 2 5 2 3 1v-2l3 1h-2v2l4-1v-3l4-1 1 3h3l1-3 4-2-2 4-6 5h-10l-10-5-2-4h-2l-1-2v-10z" fill="#FDF3E8"/>
<path transform="translate(898,444)" d="m0 0h1v18l-1 7-3 8-1 5-6 1v-3l4-16 5-18z" fill="#02AFEB"/>
<path transform="translate(602,362)" d="m0 0 2 2-4 16-9 24-2 4-4-5-5-4 1-2 3 3 3 1 1-6 12-26z" fill="#FDF1E3"/>
<path transform="translate(1384,203)" d="m0 0 2 2v8l-3 6-4 4h-3l-1-2h-4v3l2 1h-6l-1-1-4-1-4-2 1-2 4-1h8l5-3 2-4h2l2-4z" fill="#FDFCF9"/>
<path transform="translate(1345,180)" d="m0 0 2 4-2 4h2v-3l6-1-3 10-4 9-3 11h-2l-1 3 1-10 1-2-2-1 4-1v-4h-2v-2h3l-2-3-2 4h-2v5h-2l2-9 5-12z" fill="#FDF6EC"/>
<path transform="translate(594,643)" d="m0 0 5 1v8l4 3 4 1-1 10-5 1-2-7-6-5-1-2v-8z" fill="#FDE9DB"/>
<path transform="translate(1314,160)" d="m0 0h11l5 2 5 4 2 5h2l1 4v7l-2 1-1-10-4-6-4 2 2 2-2 4-2-4-10-2-1-4 2-2-4-1z" fill="#FDEFE1"/>
<path transform="translate(1312,162)" d="m0 0h6l1 2-2 1 1 2-3 5-4 1 1 14-3 2-2-1 2-5-3 1-1-3 2-4 2-3-1-1-3 2 1-7z" fill="#FDFAF5"/>
<path transform="translate(144,297)" d="m0 0 6 1 3 3v6l-4 4h-6l-4-4 1-7z" fill="#02BCFA"/>
<path transform="translate(973,364)" d="m0 0h7l6 5-1 5-2 1h-12l-2-2v-5z" fill="#78352A"/>
<path transform="translate(98,297)" d="m0 0 7 1 2 2v8l-4 3-7-1-2-2v-7z" fill="#02BBF9"/>
<path transform="translate(895,888)" d="m0 0h1v25l-1 29v32l-1 3v8l-1 1v11l-3 1 2-38z" fill="#02B0EC"/>
<path transform="translate(751,498)" d="m0 0 4 4 8 17 1 6 7-2-3 3h-4l-1 8-6 5h-6l1 3v7l-2 2-2-16-4-9-2-5 4 4 4 7 1 6 8-3 2-2v-10l-3-9-7-14z" fill="#B64638"/>
<path transform="translate(1331,166)" d="m0 0 3 1 4 6v13l-5 1-1-2h-2v-14l-3-3z" fill="#FEFDFB"/>
<path transform="translate(607,615)" d="m0 0h6v6l5 2 2 3v5l-5 1-2-4-2-1h-7v-3h3v-2l-4-1h3z" fill="#FDE6D5"/>
<path transform="translate(778,392)" d="m0 0h2l-1 11-7 22-6 13-8 15-5 5 1-4 9-16 8-18 5-17z" fill="#02B4F1"/>
<path transform="translate(109,296)" d="m0 0h29l1 3-1 2h-2v6h-1v-7l-24-1v10l-5 5h-2v-2l5-5-1-8-1-2z" fill="#02B4F1"/>
<path transform="translate(1304,171)" d="m0 0 2 3 4-3-1 6-2 1-1 5h3l-2 5 4-1v-14h2v10l3 3 3 2-6 1-1 4-5-2-2-5h-2l-1-3v-8z" fill="#FDEBDB"/>
<path transform="translate(1461,711)" d="m0 0h9l6 4 1 3v8l-2 4-6 4-4 1-8-4-1-3 6 3h7l5-5v-7l-5-5h-7l-5 5h-2v7h-1v-8l3-5z" fill="#02B3EF"/>
<path transform="translate(707,512)" d="m0 0 1 2-1 4 10 4 6 6-1 2-8-7-3-1h-7l-4 4-1 3v22l1 14-2-3-2-13v-18l3-8 5-4z" fill="#B4502C"/>
<path transform="translate(723,530)" d="m0 0 5 5 8 16 1 5 10-1-1 2-9 1v6l-3 3-9-1-10-8-8-9 1-2 11 12 8 5 6 1 2-2-1-9-4-10-6-11z" fill="#AD4631"/>
<path transform="translate(716,977)" d="m0 0h2l5 10 4 23 1 20-3 4-1-23-3-19-5-12z" fill="#02B2EE"/>
<path transform="translate(1489,187)" d="m0 0 1 2h2l3 7-1 1h-21l-1 1-1 27h-1l-1-30 5-1h12l-1-3 3-1z" fill="#FDEBDE"/>
<path transform="translate(1175,691)" d="m0 0 113 1v1l-113 1z" fill="#02B0EC"/>
<path transform="translate(1395,537)" d="m0 0h1v8l-3 23-2 10v8h11l4 2-17-1v-15l5-34z" fill="#02B3F0"/>
<path transform="translate(179,946)" d="m0 0 3 1-5 4-7 6-7 8-6 9-3 5-4-1-4-9-2-6h-2l1-3 5 7 4 9 3-4 7-9 9-10z" fill="#FEC80B"/>
<path transform="translate(482,729)" d="m0 0 2 2 2 17v40h-1l-3-50z" fill="#FD826F"/>
<path transform="translate(1442,184)" d="m0 0 1 2-2 4h2l-1 4h7l1-2 7 2v3h-21l-2-2 3-6z" fill="#FDE9DB"/>
<path transform="translate(1431,713)" d="m0 0h8l5 5 1 6-3 5-4 3-9-1-4-6 1-8zm3 1-6 3-1 2v6l4 5h8l3-4v-8l-3-3z" fill="#F06033"/>
<path transform="translate(1431,711)" d="m0 0h8l5 3 2 4v10h-2l-1 2 1-9-2-5-3-2h-8l-4 3-1 8 3 5v2l-3-1-3-5v-7l4-6z" fill="#02B4F1"/>
<path transform="translate(558,130)" d="m0 0 2 3-11 11-7 8-14 15h-3l15-16 11-12z" fill="#FE961C"/>
<path transform="translate(247,939)" d="m0 0 5 2 10 6v2l4 2 8 9 2 5-4-2-8-10-13-10-4-2z" fill="#FDB113"/>
<path transform="translate(729,489)" d="m0 0 3 1-5 5-3 9 4 1 8 7 2 4-7-6-4-3h-10l-7 4-2 1 2-4 8-4h5l1-8 4-6z" fill="#AF502A"/>
<path transform="translate(1313,188)" d="m0 0 11 1 1 7h-9l-4-2v-5z" fill="#FDFBF6"/>
<path transform="translate(154,244)" d="m0 0h1l1 22 4 13 5 14-1 3v-2h-2l-8-23z" fill="#02B3EF"/>
<path transform="translate(784,378)" d="m0 0 7 1 29 9 4 1v2l-10-2-12-3-18-7z" fill="#02B4F1"/>
<path transform="translate(748,474)" d="m0 0h11l3 3-4-1h-9l-5 4-2 7 8 7 1 4-8-8-10-1v-2l7-3 3-6z" fill="#B45838"/>
<path transform="translate(144,297)" d="m0 0 6 1 3 3v6l-4 4h-6l-4-4 1-7zm0 2-3 4 1 5 6 1 3-2-1-7z" fill="#02B5F1"/>
<path transform="translate(1355,158)" d="m0 0 5 1 1 1-1 8-4 10-2-4h2l1-7 1-2h-3l-1-2-2 1 1-5z" fill="#FDF5EC"/>
<path transform="translate(1494,711)" d="m0 0h7l3 3h-10l-5 5v7l3 4 3 1v2l-5-1-4-6v-7l3-5z" fill="#02B5F2"/>
<path transform="translate(762,477)" d="m0 0 3 1 6 10 4 16v14l-3 5v-3l1-11-4-20-5-8z" fill="#B65828"/>
<path transform="translate(683,968)" d="m0 0 3 1h-2l-2 5-3 1-1 6 6-1 4-3h3l-1 3-8 4h-5l-2-2 1-6z" fill="#02B2ED"/>
<path transform="translate(996,431)" d="m0 0 3 1v3l4 2 2 6 12 1 2 1 1-2 2 2-4 2h-8l-8-5-6-9z" fill="#FDF6EC"/>
<path transform="translate(893,467)" d="m0 0 4 1-1 7-2 7-6 1v-3l5-5h-2z" fill="#029ED0"/>
<path transform="translate(742,521)" d="m0 0 4 4 4 7 1 6 8-3 4-4-1 4-5 4h-6l1 3v7l-2 2-2-16-4-9z" fill="#AF4B2E"/>
<path transform="translate(1359,505)" d="m0 0h1v22l-2 1-17-2v-2l17 1v-12z" fill="#02B4F0"/>
<path transform="translate(1011,422)" d="m0 0h8l-3 1-1 3-18 1-2 4-1-6 2-1z" fill="#FDF7ED"/>
<path transform="translate(1336,172)" d="m0 0 2 1v13l-5 1-1-2h-2v-10l2 4h3z" fill="#FDF9F3"/>
<path transform="translate(698,1045)" d="m0 0 4 1-8 5 1 2 17 1v2h-18l-3-3 1-4z" fill="#02B3EE"/>
<path transform="translate(785,656)" d="m0 0h1v27l-2 1-1-12-2-8v-6l2 3v5h2z" fill="#FCE6D5"/>
<path transform="translate(1347,584)" d="m0 0h14l19 2 4 2h-14l-23-3z" fill="#02B4F1"/>
<path transform="translate(76,242)" d="m0 0 2 1 10 30v2h-2l-5-14-5-15z" fill="#02B4F1"/>
<path transform="translate(571,385)" d="m0 0 4 2 2 4 4 4 5-1 2 1-1 6-4-1-8-7-4-6z" fill="#FDF8F0"/>
<path transform="translate(1369,501)" d="m0 0 4 4 8 15 3 7 3 2h-5l-7-15-6-10z" fill="#02B4F0"/>
<path transform="translate(210,932)" d="m0 0h17v1l-22 3-9 3-4-1 9-4z" fill="#FEAC14"/>
<path transform="translate(98,297)" d="m0 0 7 1 2 2v8l-4 3-7-1-1-4 3 2h5l2-3-1-4-1-1h-5l-3 2 1-4z" fill="#02B4F1"/>
<path transform="translate(381,62)" d="m0 0 6 2 4 5 1 5v12l-3 1v-12l-3-8-5-3z" fill="#FCD5B8"/>
<path transform="translate(766,471)" d="m0 0 7 1 23 10-4 1-25-10z" fill="#02B4F1"/>
<path transform="translate(1357,198)" d="m0 0 3 3-1 2h-3l1 3h2v10h-4v-7l-2-4 3-6z" fill="#FEFDFD"/>
<path transform="translate(1469,196)" d="m0 0h1v32h-11l-1-2 7 1 1-3h3l-1-27z" fill="#FDF7EE"/>
<path transform="translate(1583,1049)" d="m0 0 5 2 4 5-14-2-21-1v-1h24l2-2z" fill="#FEC40D"/>
<path transform="translate(1591,1024)" d="m0 0 5 1 1 3h3v12l-3-3-3-10h-2z" fill="#FDCB0F"/>
<path transform="translate(825,391)" d="m0 0 10 1 20 5 1 2-9-1-20-5z" fill="#02B4F1"/>
<path transform="translate(1310,173)" d="m0 0h1l1 14-3 2-2-1 2-5-3 1-1-3 2-4z" fill="#FEFDFB"/>
<path transform="translate(631,875)" d="m0 0h1v49l-4-2 3-1z" fill="#FEC40D"/>
<path transform="translate(1311,173)" d="m0 0h2v10l3 3 3 2-6 1-1 4-5-2v-3l4-1z" fill="#FDF2E6"/>
<path transform="translate(1494,713)" d="m0 0h6l2 2-9 1-3 4v6h2v3l7 2-4 1-5-3-2-3v-7l4-5z" fill="#FEFBF4"/>
<path transform="translate(369,60)" d="m0 0h9v1l-11 1-2 4-7 7-1-3 3-5 4-4z" fill="#FDD296"/>
<path transform="translate(1324,187)" d="m0 0h2v3h3v3h2v2h-4v2h-10v-1h8l-3-4h2v-3h-5v-1z" fill="#FDE8D9"/>
<path transform="translate(1475,719)" d="m0 0h1v9l-5 5-6 2-8-4-1-3 6 3h7l5-5z" fill="#02B5F2"/>
<path transform="translate(81,245)" d="m0 0h2l7 20v7l-2-3-7-21z" fill="#02B6F3"/>
<path transform="translate(1362,218)" d="m0 0 11 2-2 1v3l2 1h-6l-1-1-4-1-4-2 1-2z" fill="#FEFEFE"/>
<path transform="translate(1325,492)" d="m0 0 3 1-6 6h-3l-2 4-5 7-3-1 12-14z" fill="#24BFF3"/>
<path transform="translate(1370,192)" d="m0 0 6 1 2 2-6 1v3l4 1v3l-2-2-7-1-1-3h3z" fill="#FDF0E5"/>
<path transform="translate(785,559)" d="m0 0 2 2v39h-1l-1-34-2-3z" fill="#FBBA9D"/>
<path transform="translate(1374,195)" d="m0 0 6 1 2 4h-2l1 3-2 1-4-4-3-1v-3z" fill="#FEFCFA"/>
<path transform="translate(1354,162)" d="m0 0 1 3h3l-2 9h-2l-1 5-2-1v-4l-2-1h3l2-3-1-1h-1v-5z" fill="#FEFDFD"/>
<path transform="translate(873,403)" d="m0 0 7 1 8 3v2l-11-3-3-1-2 16h-1l1-17z" fill="#02B2EF"/>
<path transform="translate(155,297)" d="m0 0h8l-1 2h-6l1 2v9l-5 4h-2v-2l4-4z" fill="#02B3EF"/>
<path transform="translate(1466,150)" d="m0 0 2 2 2 6-5 1-2-1-1 2-3-1z" fill="#FDF2E7"/>
<path transform="translate(1552,129)" d="m0 0 9 3 3 3-4 3h-5l1-5-4-2z" fill="#FEFBF4"/>
<path transform="translate(1138,393)" d="m0 0 4 1-10 6-8 10-2-1 7-9 7-6z" fill="#FE715F"/>
<path transform="translate(510,182)" d="m0 0v3l-11 11-7 8v-3l4-6 8-7z" fill="#FEC40D"/>
<path transform="translate(648,607)" d="m0 0 4 2 6 10 3 8-1 4-7-16-5-7z" fill="#FD9A56"/>
<path transform="translate(1351,164)" d="m0 0 2 4 2-2-1 7h-3l-2 1-1 3h-2l2-7z" fill="#FDEDDF"/>
<path transform="translate(1028,420)" d="m0 0h8l-2 9-2 2-1-3 2-6h-13v-1z" fill="#FDF5EA"/>
<path transform="translate(1476,998)" d="m0 0h6l-4 2-14 1 4-2zm-19 3h7v1l-5 1v5l-3-3z" fill="#FED109"/>
<path transform="translate(806,285)" d="m0 0 2 1 5 10 7 9-1 2-4-4-6-9z" fill="#F15946"/>
<path transform="translate(385,89)" d="m0 0 2 2-5 5h-13l-2-2h4 10v-2h3z" fill="#FCD9BE"/>
<path transform="translate(497,200)" d="m0 0 4 1-4 1-1 3h-2l-2 4-5 6-4 1 6-7z" fill="#FEC40D"/>
<path transform="translate(716,977)" d="m0 0h2l5 10v6l-2-1-5-12z" fill="#02AFE9"/>
<path transform="translate(898,440)" d="m0 0 10 6 5 5-1 2-7-6-6-3-2-2z" fill="#1EBCF1"/>
<path transform="translate(812,269)" d="m0 0 2 1-4 4-2 7 1 1v7l-2-3-1-9 3-5z" fill="#FDD0BE"/>
<path transform="translate(1344,201)" d="m0 0h1v7l-2 6h-2l-1 3 1-10 1-2-2-1 4-1z" fill="#FDEADA"/>
<path transform="translate(558,130)" d="m0 0 2 3-11 11-2-1 9-10z" fill="#FD9B26"/>
<path transform="translate(725,1013)" d="m0 0h1v9l2 1v7l-3 4z" fill="#02B5F2"/>
<path transform="translate(1168,694)" d="m0 0 4 1-8 5-3 1-1 3-3 1 2-4 7-6z" fill="#02AEE8"/>
<path transform="translate(661,663)" d="m0 0 1 3-4 8-2-3 1-4 4-2zm-8 8 3 1-4 2z" fill="#FD7E34"/>
<path transform="translate(762,519)" d="m0 0 2 4v2l7-2-3 3h-4v5h-2l-1-11z" fill="#C44F33"/>
<path transform="translate(756,469)" d="m0 0 6 1v6l-11-2v-1h6z" fill="#FCE0C7"/>
<path transform="translate(674,915)" d="m0 0h2l1 4h3v-2h2l-2 4-6 3z" fill="#02B3EF"/>
<path transform="translate(1502,715)" d="m0 0 3 1 2 5-1 6-4 4-3-1 5-5-1-7z" fill="#FEFBF4"/>
<path transform="translate(1328,220)" d="m0 0h2v6h6v-5l3-1-2 7-7 1-2-6z" fill="#FDEAD9"/>
<path transform="translate(1368,192)" d="m0 0h2l-1 5h-3v3h-4l1-4z" fill="#FDFCFB"/>
<path transform="translate(373,181)" d="m0 0 11 3 3 2h-9l-3-2-1 2z" fill="#FEC50C"/>
<path transform="translate(377,178)" d="m0 0h4v3l9 2 2 2-10-2-7-3z" fill="#FEC50C"/>
<path transform="translate(697,957)" d="m0 0 4 1-5 2-1 3h-3v2h-3l2-4z" fill="#02B1EC"/>
<path transform="translate(1030,431)" d="m0 0h2l-2 5-5 7-1-4 3-4h2z" fill="#FDF7ED"/>
<path transform="translate(827,315)" d="m0 0 4 2 3 3 4-2 3-1v2l-6 4-3-1-5-5z" fill="#F05642"/>
<path transform="translate(199,304)" d="m0 0h2l6 12-1 4-7-13z" fill="#02B5F2"/>
<path transform="translate(452,207)" d="m0 0 9 2v4l-5 6-1-2 2-4 2-2-7-3z" fill="#FEC40D"/>
<path transform="translate(1544,1009)" d="m0 0 4 2 8 9 1 4-5-5-8-9z" fill="#FE961C"/>
<path transform="translate(286,991)" d="m0 0h1l3 13v4h-2l-3-13z" fill="#FDB113"/>
<path transform="translate(276,965)" d="m0 0 4 5 2 8-3-1-3-8z" fill="#FDB213"/>
<path transform="translate(835,474)" d="m0 0 1 3-8 14-1-2 7-14z" fill="#02B0EC"/>
<path transform="translate(1486,719)" d="m0 0h1l2 7 3 4 3 1v2l-5-1-4-6z" fill="#02B3EF"/>
<path transform="translate(1156,704)" d="m0 0h3l-1 4h-2l-2 9-2-1 1-5z" fill="#02B2ED"/>
<path transform="translate(762,477)" d="m0 0 3 1 6 10 1 7-2-3-5-10-3-3z" fill="#A35425"/>
<path transform="translate(827,313)" d="m0 0 4 2 5 2 3-1-2 4h-4z" fill="#FDE5D5"/>
<path transform="translate(684,900)" d="m0 0h1v6l-3 5-3 3-2-1 3-5 2-3h2z" fill="#02B0EB"/>
<path transform="translate(896,868)" d="m0 0h1l1 9 1 6h-2l-1 3z" fill="#02B0EC"/>
<path transform="translate(1136,396)" d="m0 0 2 1-7 8-5 3 2-4 5-6z" fill="#FDB098"/>
<path transform="translate(579,345)" d="m0 0h1v6l-2 2-2 6h-2l3-10z" fill="#FDF6EB"/>
<path transform="translate(801,672)" d="m0 0 1 4-5 5-6 1 4-4 5-3z" fill="#FDB31B"/>
<path transform="translate(1409,535)" d="m0 0 10 1 1 3-1 10h-1l-1-11-8-2z" fill="#02B0EC"/>
<path transform="translate(1576,1007)" d="m0 0 5 4-1 4-5-2-1-2h3z" fill="#FEC40C"/>
<path transform="translate(703,967)" d="m0 0h6l4 3v2l-5-2h-7v-2z" fill="#02B0EA"/>
<path transform="translate(673,917)" d="m0 0h1v7l-7 4-1-3 5-2z" fill="#FCD8C4"/>
<path transform="translate(1431,713)" d="m0 0 2 1-3 3h-2l-1 8h-2l1-8z" fill="#F26A2F"/>
<path transform="translate(798,383)" d="m0 0 9 1 3 1v2h-6l-6-3z" fill="#02B3EF"/>
<path transform="translate(571,367)" d="m0 0 2 4-1 3-1 11-2-4 1-10z" fill="#FDF5EA"/>
<path transform="translate(139,302)" d="m0 0 1 4h2v2h7v3h-6l-4-4z" fill="#02B6F3"/>
</svg>
