<?xml version="1.0" encoding="UTF-8"?>
<svg version="1.1" viewBox="0 0 1814 1216" width="1814" height="1216" xmlns="http://www.w3.org/2000/svg">
<path transform="translate(843,30)" d="m0 0h125l11 4 9 7 5 7 3 10 1 7v16l9 1 36 1 11 6 6 6 8 1h130l17 4 14 5 15 8 10 8 8 7 8 10 1 2 5 1 7-6 11-6 10-2 13 1 11 4 9 5 6 8 4 1 11-4h17l8 4 9 8 4 11 2 12 3 2 16 1 6 4 3 5v9l-3 6-6 4-25 1h-79l-22-1v800l-4 19-5 16-7 13-2 6 16-1 56 1-2-4-5-8v-14l4-7 6-4 4-1h9l20 8 9 2 16 4 15 1 7 3 4 6h7l7-3 5 1 2 5-2 20 1 1 46 2 13 2 46 5 22 2 10 2 3-7 6-11 7-6 14-6 15-1 6-2 3-14v-15l-3-9-1-1-16-1-5-4-8-15-8-16-9-17-8-15-8-16-14-27-6-10-8-17-5-2-3 9-10 26-11 27-6 14-6 16-20 50-7 17-5 5-6 2h-18l-11-3-12-7-7-8-5-6-1-6 3-9 11-27 10-25 10-24 6-16 5-13 4-10 8-19 9-24 5-11 8-19 11-24 1-4v-7l-5-17-9-29-3-14-9-5-2-3-1-55-1-7-10-7-16-10-10-8-10-9-4-2v45l-2 7-5 4h-9l-16-8-31-15-12-6-6-7-2-4-1-118-2-7-15-4-11-6-7-8-2-5v-10l2-7 9-8 5-2h13l8 4 9 7 6 7 5 7 11 4 20 7 18 5 6 4 7 8 2 11 2 10 5 1h10l27-5 10-2 10-17 11-12 14-9 13-5 11-2-1-15-1-3-17-3-14-5-11-9-7-9-4-8-2-9-1-9v-97l4-11 8-9 8-4 3-1 23-1 29-3 22-5 24-8h8l7 2 5 5 3 4 1 4v16l-2 11-6 12-4 5-4 4-1 49 7 6 2 4v11l-6 8-9 4-16 1-5 1-3 10-5 16-1 8v34l5 2 11 8 5 4v2l3 1 6 9 4 7 5 13 1 6v181l3 1 1-7 6-3h16l13 6 5-2 10-11 10-6 9-3 14-2 17 3 11 6 10 9 6 8 6 14 1 9v14l20 1 6 2 5 3 4 9v9l-5 8-7 4-26 1h-144l-9-1-5-2v7l7 22 5 15 9 19 10 19 15 29 8 14 8 16 14 27 12 23 1 7-3 7-4 5-1 6 8 16 12 23 3 8-1 9-8 9h-2l-2 4-5 4-5 5-7 6-10 7-1 3h13l48 12 19 7 9 5 4 5v8l-5 6-22 9-20 6-26 5-20 4-29 4-38 6-26 3-25 2-40 4-27 1-32 3-20 2-38 2-8 1-47 2-9 1-79 2-47 2-98 3h-360l-49-1-81-3-17-1-54-1-29-1-36-2-28-1-75-6-19-2-26-1-19-2-16-1-13-2-28-2-41-5-34-6-14-2-17-3-15-3-26-6-19-8-9-4-4-4-1-7 3-5 9-6 9-4 15-5 22-5 12-4 21-1v-3l-6-4-14-11-12-12-6-5-3-4-1-9 14-28 6-10 4-8-1-7-7-8-1-2v-7l9-16 8-16 15-29 12-22 8-16 17-33 9-17 7-23 12-36 6-21v-6l-11-7v-2l-4-2-9-10-6-10-5-13-2-9v-59l-147-1-20-1-6-2-5-7-1-4v-9l3-7 5-4 6-2 21-1 1-20 3-12 5-8 11-12 8-5 11-4 5-1h15l15 4 9 6 7 6 6 7 6-1 8-4 12-2 12 2 12 6h2l3-26 3-11 10-18 6-7 17-12 12-6 7-3v-15l-4-16-6-9-5-10-4-2-17-1-6-3-4-4-2-8 2-11 4-5 7-4 1-7-3-21-2-17-1-13 3-7 5-3 19-3 19-2 14-2 1-1 2-15 7-9 10-5 14-1 6-8h2v-2l9-7 10-4 5-1h13l12 4 11 8 4 5 4 6 2 5 1 6v17l-2 8-6 11-7 7-14 7-4 1h-20l2 10 2 17 1 5 2 25v16l-3 13-7 12-10 9-12 6-15 4-3 2v11l3 5 16 10 10 9 8 10 6 12 5 13 14 6 11 4 9 1 18-4 26-8 17-8 10-4 7-5 8-16 7-9 11-10 12-6 11-3 16-1 3-3v-256l1-19 2-11 3-11 8-16 8-13 5-6 5-5 13-11 15-9 17-6 20-4 133-1 12-9 7-3 29-1h14l1-2 2-27 4-8 6-7 8-5 6-2zm33 21-4 2-2 8 2 8 4 2h54l5-3 3-7-2-7-2-2-4-1zm-232 96-17 2-12 4-11 7-12 9-9 13-6 12-4 15-1 186v566l1 30 4 16 7 14 6 8 5 5 12 9 11 6 9 3 11 2h170l3-2 2-18 4-8 7-8 8-5 7-2 12-2v-3l-5-3-12-12-3-8v-17l-1-2-21-1-10-2v-9l38-2 5-3 6-8v-2l4-2 5-5 4-5 5-4 2-4-1-4-7-2-56-1-4-2v-8l8-2 72-1 6-2 7-6v-2l6-2 8-5 10-7 9-5 5-5v-3l-8-1-42-1-82-1v-6l2-3 4-1 119-1h40l5-3-1-7-4-4-12-6-7-7-7-11-6-14-6-4-16-3-6-3-4-5-1-13-4-4-11-1-69-1-16-2v-7l3-2 120-2v-3l-4-6-1-3v-11l2-8v-8h-29l-87-1-5-1 1-9 11-1h112l4 1 8-7 10-9 12-6 10-3 33-2 6-8 5-5v-2h-211v-9l5-1 16-1 135-1 34-1h14l18 2 3 1h18l18-2h43l39-1 10-2 3-7 1-114 1-11-3-2-6-1-345-1-3-2-1-8 28-2h85l205-1 34-1 5-3 1-1v-28l-1-3-5-1-211-2h-129l-11-1v-7l9-3 172-1h94l36-1 18-1 15 1 9-3 2-3 1-115 2-12-3-3-51-1-304-1v-8l5-3 137-1 10-1h176l23-1 5-4 1-2v-19l1-7-3-3-4-1-26-1-319-1-7-2 1-7 7-2 25-1 299-1 23-1 2-2v-12l-2-14-4-11-7-14-7-10-7-8-16-14-10-2-22-1h-15l-8 13-8 6-7 3-5 1h-265l-9-1-10-5-7-6-6-11zm-99 360-8 6-3 3v2h2l-3 5-4-3-5 1-8 7v3l6 1 10-4 3-3 6-3 3-4 3-7-1-4zm-14 10v3h2v-3zm-65 1-4 4v5l11 14 5 4h5l3-4-1-5-9-12-5-5zm-16 32-8 4-8 6-10 4-9 6-2 2h15l13-5 7-3 8-3v-6l-2-4zm1023 12-21 4-11 1-3 1 1 4 5 5 11 8 15 10 5 3 2-1 1-6v-26l-2-3zm-976 24-10 2-42 19-33 11-21 5h-29l-13-5-11-6-1-1h-5l-1 2-2 50-1 18-1 7-7 8-3 13 4 4 16 11 20 14 16 12 14 9 5 6 5 10h3l7-18 8-20 5-14 3-5h8l1 2v7l-10 25-7 20-6 15-4 13 1 5h62l32-1 3-3 6-13 9-27v-130l-1-43-1-2zm572 69 2 5 6 8 6 14 4 14 5 1 9-1 52-2 4-1 1-2v-9l-1-3v-19l-2-3-70-2zm21 53 1 11 6 18 6 10 7 8 10 7 13 6 18 6h6l-1-16v-30l1-17-3-2-5-1zm-794 70-9 26-8 20-9 23-10 18-8 16-15 29-24 46-10 18-8 16-9 17-2 4-2 1h-16l-3 2-3 8v12l3 15 3 5 6 1 14 1 12 5 8 7 3 4 3 8v10l6-3 3-2 6-1 31-2 24-2 3-5 9-25 3-6v-6l-26-11-18-10-11-8-3-5-1-6 4-10 12-22v-2l6 1 4 6 6 3h4v-5l2-4 10-1 3 2-1 10 7 8 9 8 8 5 4-1 5-15 7-17 5-13 16-43 6-15 8-21 4-9v-6l-3 3-16 32-9 19-10 19-16 32-3 1h-11l-12-1-14-6-16-16-3-4v-8l12-23 54-108 2-3-1-5-22-11zm219 29-3 7-5 13-8 21-15 39-11 28-6 16-13 34-9 24-10 25-6 17-6 15-6 18 1 3h14l60-3 7-1 33-1h3l-1-7-8-15-6-19-1-6-1-165v-43zm-114 11-5 3-13 34-8 21 1 5h95l5-8 7-19 7-17 5-15-1-4zm-30 76-4 2-10 27-11 29 1 4 51 1 43 1 5-6 6-17 7-17 6-16 1-6-2-2zm764 47-7 1 2 6 10 19 1 3v13l-3 7-4 5-10 8-4 5 3 2 12 2 7 3h4l6-19 1-5v-47l-3-3zm-794 29-4 4-8 22-2 4v6l9 4 8 6 3 9v10l1 1h64l3-3 6-17 7-17 9-24v-4l-5-1zm-26 79-6 2-3 5-5 15 1 5h9l16-2 38-4h33l4-4 4-9v-6l-3-1-63-1z" fill="#F5B360"/>
<path transform="translate(1602,266)" d="m0 0h8l7 2 5 5 3 4 1 4v16l-2 11-6 12-4 5-4 4-1 49 7 6 2 4v11l-6 8-9 4-16 1-5 1-3 10-5 16-1 8v34l5 2 11 8 5 4v2l3 1 6 9 4 7 5 13 1 6v181l3 1 1-7 6-3h16l13 6 5-2 10-11 10-6 9-3 14-2 17 3 11 6 10 9 6 8 6 14 1 9v14l20 1 6 2 5 3 4 9v9l-5 8-7 4-26 1h-144l-9-1-5-2v7l7 22 5 15 9 19 10 19 15 29 8 14 8 16 14 27 12 23 1 7-3 7-4 5-1 6 8 16 12 23 3 8-1 9-8 9h-2l-2 4-5 4-5 5-7 6-10 7-1 3h13l48 12 19 7 9 5 4 5v8l-5 6-22 9-20 6-26 5-20 4-29 4-38 6-26 3-25 2-40 4-27 1-32 3-20 2-38 2-8 1-47 2-9 1-79 2-47 2-98 3h-360l-49-1-81-3-17-1-54-1-29-1-36-2-28-1-75-6-19-2-26-1-19-2-16-1-13-2-28-2-41-5-34-6-14-2-17-3-15-3-26-6-19-8-9-4-4-4-1-7 3-5 9-6 9-4 15-5 22-5 12-4 21-1 1-3 14 3 10 1h28l5-4 3-4h3l6-4 6-1 31-2 25-2-3 11-2 5v5l3 3h7v-2h2l1-6 9-24 2 3v2l25-3 38-4h33l4-3-2 6-9 23v5l5 3 4-1 3-1 1-6 12-31h2v3l52-3 22-1 7-1 33-1 3 1-1-6 2 1v2h2v4h2v2h2v2h2v2h2v2h2v2h2v2h2v2h2v2h2v2l4 1 2 5h6v2h2v2h4v2h4v2h6v2h4v2h6v2h10v2h266v11l-7 31-2 10v10l4 6v2l5 2 3 1h7l6-3h2l4-8h2l2-6 7-10 1-2h2l2-5 6-7h2v-2l8-7 4-4-2-1v-2h-2v-2h-2l-5-10-1-3v-16l3-3 14-4h4l2 16 4 12 5 9 7 9 3 3 7-1 19-6 21 6 6 1 7-7 8-13 21-7h5l-1 5-4 8-7 6 4 3v2l4 2 12 12 13 18 8 13 7 4h9l6-3 4-5 1-3v-10l-5-26-5-20v-6h106v-2l10-2h6v-2h4v-2l8-2v-2h4v-2h4v-2h2v-2h4v-2h2v-2h4v-2h2v-2h2v-2h2v-2h2v-2h2v-2h2v-4l4-4h2l1-3 1 4 16-1 56 1-2-4-5-8v-14l4-7 6-4 4-1h9l20 8 9 2 16 4 15 1 7 3 4 6h7l7-3 5 1 2 5-2 20 1 1 46 2 13 2 46 5 22 2 10 2 3-7 6-11 7-6 14-6 15-1 6-2 3-14v-15l-3-9-1-1-16-1-5-4-8-15-8-16-9-17-8-15-8-16-14-27-6-10-8-17-5-2-3 9-10 26-11 27-6 14-6 16-20 50-7 17-5 5-6 2h-18l-11-3-12-7-7-8-5-6-1-6 3-9 11-27 10-25 10-24 6-16 5-13 4-10 8-19 9-24 5-11 8-19 11-24 1-4v-7l-5-17-9-29-3-14-9-5-2-3-1-55-1-7-10-7-16-10-10-8-10-9-4-2v45l-2 7-5 4h-9l-16-8-31-15-12-6-6-7-2-4-1-118-2-7-15-4-11-6-7-8-2-5v-10l2-7 9-8 5-2h13l8 4 9 7 6 7 5 7 11 4 20 7 18 5 6 4 7 8 2 11 2 10 5 1h10l27-5 10-2 10-17 11-12 14-9 13-5 11-2-1-15-1-3-17-3-14-5-11-9-7-9-4-8-2-9-1-9v-97l4-11 8-9 8-4 3-1 23-1 29-3 22-5 18-6zm-129 296-21 4-11 1-3 1 1 4 5 5 11 8 15 10 5 3 2-1 1-6v-26l-2-3z" fill="#E2E2E0"/>
<path transform="translate(843,30)" d="m0 0h125l11 4 9 7 5 7 3 10 1 7v16l9 1 36 1 11 6 8 8 5 10 1 9-1 30-4 10-7 8-12 6-5 1h-265l-9-1-10-5-8-7-5-9v-2l-48 1h-49l-17 2-12 4-11 7-11 8-9 13-6 12-4 15-1 186v566l1 30 4 16 7 14 6 8 5 5 11 8 11 6 9 3 11 2h170l2-1 1-12h1l2 16 6 10 8 7 13 5 42 13 9-1 13-3 12-1v18l4 9 1 4h2v2h2v2l3 1-11 11h-2v2h-2l-2 4-6 8h-2l-2 5-7 11-1 2h-2l-1 4-5 5-6 3h-7l-8-4-5-8v-10l6-29 3-12 1-11h-266v-2h-10v-2h-6v-2h-4v-2h-6v-2h-4v-2h-4v-2h-2v-2h-6l-3-5-3-1v-2h-2v-2h-2v-2h-2v-2h-2v-2h-2v-2h-2v-2h-2v-2h-2v-2h-2v-4h-2l-6-9-6-13-5-16-1-6-1-165 1-43-3 1-6 17-8 20-11 29-10 26-7 17-5 14-13 34-9 24-10 25-6 17-6 15-6 17-5 11-10 27-4 3-6-1-3-3 1-7 9-24 5-12 1-6-66-1h-25l-6 2-5 12-2 7h-2l-1 4-3 10-5 12-1 4h-2v2l-7 1-4-4 1-8 10-28 6-16 2-4 1-6-5-1-23-10-17-10-10-7-4-6-1-6 4-10 13-24 4-1 5 5 1 3 10 3-1-5 3-5 10-1 4 3-1 10 7 8 11 9 5 3h3l5-15 7-17 5-13 16-43 6-15 8-21 4-9v-4l-10 19-9 19-10 19-23 46-4 2h-11l-12-1-14-6-17-17-3-4v-8l12-23 54-108 2-3v-5l-6-2-19-9-2 9-7 19-6 16-10 25-10 18-8 16-15 29-24 46-10 18-8 16-9 17-3 5-2 1h-16l-2 1-3 8v12l3 15 2 4 6 1 14 1 12 5 8 7 4 5 3 8v8h-2l-2 5-5 4h-28l-21-3-9-5-11-9-8-7-7-6-5-6-5-5-1-9 14-28 6-10 4-8-1-7-7-8-1-2v-7l9-16 8-16 15-29 12-22 8-16 17-33 9-17 7-23 12-36 6-21v-6l-11-7v-2l-4-2-9-10-6-10-5-13-2-9v-59l-147-1-20-1-6-2-5-7-1-4v-9l3-7 5-4 6-2 21-1 1-20 3-12 5-8 11-12 8-5 11-4 5-1h15l15 4 9 6 7 6 6 7 6-1 8-4 12-2 12 2 12 6h2l3-26 3-11 10-18 6-7 17-12 12-6 7-3v-15l-4-16-6-9-5-10-4-2-17-1-6-3-4-4-2-8 2-11 4-5 7-4 1-7-3-21-2-17-1-13 3-7 5-3 19-3 19-2 14-2 1-1 2-15 7-9 10-5 14-1 6-8h2v-2l9-7 10-4 5-1h13l12 4 11 8 4 5 4 6 2 5 1 6v17l-2 8-6 11-7 7-14 7-4 1h-20l2 10 2 17 1 5 2 25v16l-3 13-7 12-10 9-12 6-15 4-3 2v11l3 5 16 10 10 9 8 10 6 12 5 13 14 6 11 4 9 1 18-4 26-8 17-8 10-4 7-5 8-16 7-9 11-10 12-6 11-3 16-1 3-3v-256l1-19 2-11 3-11 8-16 8-13 5-6 5-5 13-11 15-9 17-6 20-4 133-1 12-9 7-3 29-1h14l1-2 2-27 4-8 6-7 8-5 6-2zm33 21-4 2-2 8 2 8 4 2h54l5-3 3-7-2-7-2-2-4-1zm-331 456-8 6-3 3v2h2l-3 5-4-3-5 1-8 7v3l6 1 10-4 3-3 6-3 3-4 3-7-1-4zm-14 10v3h2v-3zm-65 1-4 4v5l11 14 5 4h5l3-4-1-5-9-12-5-5zm-16 32-8 4-8 6-10 4-9 6-2 2h15l13-5 7-3 8-3v-6l-2-4zm47 36-10 2-42 19-33 11-21 5h-29l-13-5-11-6-1-1h-5l-1 2-2 50-1 18-1 7-7 8-3 13 4 4 16 11 20 14 16 12 14 9 5 6 5 10h3l7-18 8-20 5-14 3-5h8l1 2v7l-10 25-7 20-6 15-4 13 1 5h62l32-1 3-3 6-13 9-27v-130l-1-43-1-2zm-96 232-5 3-13 34-8 21 1 5h95l5-8 7-19 7-17 5-15-1-4zm-30 76-4 2-10 27-11 29 1 4 51 1 43 1 5-6 6-17 7-17 6-16 1-6-2-2zm-30 76-4 4-8 22-2 4v6l9 4 8 6 3 9v10l1 1h64l3-3 6-17 7-17 9-24v-4l-5-1z" fill="#FBCA74"/>
<path transform="translate(1602,266)" d="m0 0h8l7 2 5 5 3 4 1 4v16l-2 11-6 12-4 5-4 4-1 49 7 6 2 4v11l-6 8-9 4-16 1-5 1-3 10-5 16-1 8v34l5 2 11 8 5 4v2l3 1 6 9 4 7 5 13 1 6v181l3 1 1-7 6-3h16l13 6 5-2 10-11 10-6 9-3 14-2 17 3 11 6 10 9 6 8 6 14 1 9v14l20 1 6 2 5 3 4 9v9l-5 8-7 4-26 1h-144l-9-1-5-2v7l7 22 5 15 9 19 10 19 15 29 8 14 8 16 14 27 12 23 1 7-3 7-4 5-1 6 8 16 12 23 3 8-1 9-8 9h-2l-2 4-5 4-5 5-7 6-13 9-7 2-12 1-3 1h-29v-2h-2v-2h-2v-2h-2v-2h-2l-1-11 6-11 7-6 14-6 15-1 6-2 3-14v-15l-3-9-1-1-16-1-5-4-8-15-8-16-9-17-8-15-8-16-14-27-6-10-8-17-5-2-3 9-10 26-11 27-6 14-6 16-20 50-7 17-5 5-6 2h-18l-11-3-12-7-7-8-5-6-1-6 3-9 11-27 10-25 10-24 6-16 5-13 4-10 8-19 9-24 5-11 8-19 11-24 1-4v-7l-5-17-9-29-3-14-9-5-2-3-1-55-1-7-10-7-16-10-10-8-10-9-4-2v45l-2 7-5 4h-9l-16-8-31-15-12-6-6-7-2-4-1-118-2-7-15-4-11-6-7-8-2-5v-10l2-7 9-8 5-2h13l8 4 9 7 6 7 5 7 11 4 20 7 18 5 6 4 7 8 2 11 2 10 5 1h10l27-5 10-2 10-17 11-12 14-9 13-5 11-2-1-15-1-3-17-3-14-5-11-9-7-9-4-8-2-9-1-9v-97l4-11 8-9 8-4 3-1 23-1 29-3 22-5 18-6zm-129 296-21 4-11 1-3 1 1 4 5 5 11 8 15 10 5 3 2-1 1-6v-26l-2-3z" fill="#325960"/>
<path transform="translate(1031,646)" d="m0 0h16l13 5 6 4 4 2 8 11 6 14 5 21 4 19 6 17 6 9 5 6 10 7 13 6 24 8 18 7 13 7 10 9 8 10 5 10 3 10v19l-4 12-6 10-9 9-12 6-10 3 8 7 4 9v11l-3 7-4 6-8 7-11 5-9 2-22 1 14 28v13l-3 7-5 6-10 8-3 4 2 2-21 6-12 4h-3v13l-3 5-5 4-2 1h-182l-6-4-3-3-1-3v-12l-11-3-26-8 3-1v-3l-4-1-14-14-3-8v-19h-21l-10-3v-9l2-1 36-2 5-3 4-6 8-9 5-4 5-5 3-5-1-4-6-1-56-1-5-3v-8l3-2 6-1 72-1 6-2 6-5 3-3 11-6 8-6 12-7 4-4 1-3-50-1-80-1-3-3 1-6 2-2 4-1 119-1h40l4-2-1-7-3-3-12-6-8-8-7-11-6-14-5-3-16-3-6-3-5-6-1-13-3-3-11-1-69-1-14-2-3-3v-5l4-3 120-2-5-8-1-3v-11l3-16-5 1h-24l-87-1-5-2v-7l3-3 9-1h112l4 1 8-7 10-9 12-6 10-3 33-2 6-8 8-7 8-5z" fill="#FBC974"/>
<path transform="translate(1074,146)" d="m0 0 104 1v1l13 3 3 2v2h4v2h4v2h2v2h4v2h2v2h2v2h2v2h2v2h2v2h2l2 6h2v2h2v4h2l2 5v5h2l2 4v12h2v778h-2v10l-3 7-1 5h-2v4h-2v4h-2v4h-2v2h-2v2h-2v2h-2v2h-2v2h-2v2h-2v2h-2v2h-2v2h-2v2l-4 2h-4v2h-4v2h-4v2h-8v2h-8v2h-15v-15l-3-10-6-9-6-5 4-1 2-9 4-15v-49h-2v-2l12-3 11-6 7-8 3-5 1-4v-11l-4-9-7-6-2-2 12-3 12-6 9-9 7-14 2-7v-19l-5-15-6-9-9-10-10-7-15-7-14-5 3-1-2-16v-30l1-17-7-2h-60l-2-13 14-1 56-2v-11l-1-3v-19l-1-2-70-2-16-1v2l-18-9-4-1h-16l-12 4-9 6v-2l-12 1h-193l-6-1-1-6 1-3 5-2 16-1 135-1 34-1h14l18 2 3 1h18l18-2h43l39-1 10-2 2-6 1-114 1-11-8-2-345-1-4-3v-8l10-2 18-1h85l205-1 34-1 5-3v-31l-221-2h-124l-11-1-1-1v-7l5-3 5-1 172-1h94l36-1 18-1 15 1 9-3 1-2 1-115 2-12-2-2-51-1-302-1-3-3v-6l3-3 3-1 137-1 10-1h176l23-1 5-5v-19l1-7-2-2-4-1-26-1-319-1-7-2-1-5 2-4 7-2 25-1 299-1 23-1 1-1v-12l-2-14-4-11-7-14-7-10-6-6v-2l-4-2-9-9-5-3-8-1-22-1-7-1z" fill="#E5EFF4"/>
<path transform="translate(338,255)" d="m0 0h13l12 4 11 8 4 5 4 6 2 5 1 6v17l-2 8-6 11-7 7-14 7-4 1h-20l2 10 2 17 1 5 2 25v16l-3 13-7 12-10 9-12 6-15 4-3 2v11l3 5 16 10 10 9 8 10 6 12 5 13 14 6 11 4 9 1 18-4 26-8 17-8 10-4 8-5v26l3 11 1 3-7 1-13 9-10 4-9 6h13l13-5 7-3 8-2v-5l3 3 5-1 8-4 4-5h2l-2-5h7l2-3v-5l4 3 5-1 6-1v-2l15-10 19-13 13-9h7l3 5-1 5-7 6-15 10h-2v2l-8 5 9 9 3 5 1 4v12l-3 7h-2l-1 4-9 6h-4v48h-1l-1-45-19 1-10 2-42 19-33 11-21 5h-29l-13-5-11-6-6-2-2 52-1 18-1 7-7 8-91-5-32-2-6-4-2 4v-59l-147-1-20-1-6-2-5-7-1-4v-9l3-7 5-4 6-2 21-1 1-20 3-12 5-8 11-12 8-5 11-4 5-1h15l15 4 9 6 7 6 6 7 6-1 8-4 12-2 12 2 12 6h2l3-26 3-11 10-18 6-7 17-12 12-6 7-3v-15l-4-16-6-9-5-10-4-2-17-1-6-3-4-4-2-8 2-11 4-5 7-4 1-7-3-21-2-17-1-13 3-7 5-3 19-3 19-2 14-2 1-1 2-15 7-9 10-5 14-1 6-8h2v-2l9-7 10-4zm207 252-8 6-3 3v2h2l-3 5-4-3-5 1-8 7v3l6 1 10-4 3-3 6-3 3-4 3-7-1-4zm-14 10v3h2v-3z" fill="#FBC974"/>
<path transform="translate(1698,687)" d="m0 0 19 3 11 6 10 9 6 8 6 14 1 9v14l20 1 6 2 5 3 4 9v9l-5 8-7 4-26 1h-144l-9-1-5-2v7l7 22 5 15 9 19 10 19 15 29 8 14 8 16 14 27 12 23 1 7-3 7-4 5-1 6 8 16 12 23 3 8-1 9-8 9h-2l-2 4-5 4-5 5-7 6-13 9-7 2-12 1-3 1h-29v-2h-2v-2h-2v-2h-2v-2h-2l-1-11 6-11 7-6 14-6 15-1 6-2 3-14v-15l-3-9-1-1-16-1-5-4-8-15-8-16-9-17-8-15-8-16-14-27-6-10-8-17-5-2-3 9-10 26-11 27-6 14-6 16-20 50-7 17-5 5-6 2h-18l-11-3-12-7-7-8-5-6-1-6 3-9 11-27 10-25 10-24 6-16 5-13 4-10 8-19 9-24 5-11 8-19 11-24 1-4v-7l-5-17-9-29-3-14-1-2 118-1 5-4 2-2v6l3 1 1-7 6-3h16l13 6 5-2 10-11 10-6 9-3z" fill="#FB806A"/>
<path transform="translate(191,684)" d="m0 0 7 4 101 6 21 1-1 8-1 6 3 3 16 11 20 14 16 12 14 9 6 7 4 9 1 5v11l-4 11-24 48-6 14-10 19-40 80-4 2h-11l-12-1-14-6-17-17-3-4v-8l12-23 54-108 2-3v-5l-6-2-19-9-2 9-7 19-6 16-10 25-10 18-8 16-15 29-24 46-10 18-8 16-9 17-3 5-2 1h-16l-2 1-3 8v12l3 15 2 4 6 1 14 1 12 5 8 7 4 5 3 8v8h-2l-2 5-5 4h-28l-21-3-9-5-11-9-8-7-7-6-5-6-5-5-1-9 14-28 6-10 4-8-1-7-7-8-1-2v-7l9-16 8-16 15-29 12-22 8-16 17-33 9-17 7-23 12-36 6-21v-6l-11-7v-2l-4-2-9-10-6-10-5-13-1-4z" fill="#335960"/>
<path transform="translate(1031,646)" d="m0 0h16l13 5 6 4 4 2 8 11 6 14 5 21 4 19 6 17 6 9 5 6 10 7 13 6 24 8 18 7 13 7 10 9 8 10 5 10 3 10v19l-4 12-6 10-9 9-12 6-10 3 8 7 4 9v11l-3 7-4 6-8 7-11 5-9 2h-19l-10-2-13-16-11-12-4-5-8-7-9-9-11-9-12-10-17-12-10-6-13-4-10-1v-16l5-3 9-6 4-2 2-4 7-10 4-12 1-6 20-1 8-3 5-6 1-2v-12l-4-6-6-4-4-1h-20l-7-3v-2h-2l-6-10-5-14-3-12-7 8-13 8-19 7-19 5-22 4-9-1-4-2-3-7v-11l3-16-5 1h-24l-87-1-5-2v-7l3-3 9-1h112l4 1 8-7 10-9 12-6 10-3 33-2 6-8 8-7 8-5z" fill="#244148"/>
<path transform="translate(843,30)" d="m0 0h125l11 4 9 7 5 7 3 10 1 7v16l9 1 36 1 11 6 8 8 5 10 1 9-1 30-4 10-7 8-12 6-5 1h-265l-9-1-10-5-8-7-3-6-2-7v-34l3-10 7-9 8-6 7-3 29-1h14l1-2 2-27 4-8 6-7 8-5 6-2zm33 21-4 2-2 8 2 8 4 2h54l5-3 3-7-2-7-2-2-4-1z" fill="#FB816A"/>
<path transform="translate(1321,452)" d="m0 0h13l8 4 9 7 6 7 5 7 11 4 20 7 18 5 6 4 7 8 2 11 2 10 5 1h10l27-5 10-2 2-1-3 15-1 31-2-2-13 2-11 2-14 1 4 7 16 11 15 10 4 1v-6h1l1 9 18 10 4-4 13-20 12-21 8 6 9 6 12 6 12 3-1 5-14 21-10 14-16 20-3 4h-2l-2 4-6 3-5 1h-8l-16-7-6-3v6h-1l-1-7-10-7-16-10-10-8-10-9-4-2v45l-2 7-5 4h-9l-16-8-31-15-12-6-6-7-2-4-1-118-2-7-15-4-11-6-7-8-2-5v-10l2-7 9-8z" fill="#FB8069"/>
<path transform="translate(230,743)" d="m0 0 6 2 23 12 14 7 19 10 4 3-1 6-7 21-8 20-9 23-10 18-8 16-15 29-24 46-10 18-8 16-9 17-3 5-2 1h-16l-2 1-3 8v12l3 15 2 4 6 1 14 1 12 5 8 7 4 5 3 8v8h-2l-2 5-5 4h-28l-21-3-9-5-11-9-8-7-7-6-5-6-5-5-1-9 14-28 6-10 4-8-1-7-7-8-1-2v-7l9-16 8-16 15-29 12-22 8-16 17-33 9-17 7-23 12-36 6-21z" fill="#264249"/>
<path transform="translate(338,255)" d="m0 0h13l12 4 11 8 4 5 4 6 2 5 1 6v17l-2 8-6 11-7 7-14 7-4 1h-20l2 10 2 17 1 5 2 25v16l-3 13-7 12-10 9-12 6-15 4-3 2v11l3 5 5 3-2 1-5-2-1 6-3 8h-2v2h-4v2h-15l-5-2-2-6h-2v-4h-2v-8h-9l3-2 4-2v-15l-4-16-6-9-5-10-4-2-17-1-6-3-4-4-2-8 2-11 4-5 7-4 1-7-3-21-2-17-1-13 3-7 5-3 19-3 19-2 14-2 1-1 2-15 7-9 10-5 14-1 6-8h2v-2l9-7 10-4z" fill="#FCD3CB"/>
<path transform="translate(1602,266)" d="m0 0h8l7 2 5 5 3 4 1 4v16l-2 11-6 12-4 5-4 4-1 49 7 6 2 4v11l-6 8-9 4-16 1-5 1-3 10-5 16-1 8v34l2 1h-4l-2 4-4 2v2l-3 1h-12l-8-6-3-6v-3l-2-1h2l-1-15-1-3-17-3-14-5-11-9-7-9-4-8-2-9-1-9v-97l4-11 8-9 8-4 3-1 23-1 29-3 22-5 18-6z" fill="#FCD4CC"/>
<path transform="translate(839,1010)" d="m0 0h11l33 10 2 1 1 12 3 5 6 4h182l6-4 3-5 1-13 24-8 9-2h12l10 4 5 5 6 7 4 9 1 5v8l-3 10-5 8-5 5-8 5-39 12-14 5-18 5-28 9-12 3-2 5-7 10-6 6-10-2-17-5-22 7-5-1-8-9-6-10-4-10-2-8v-12l-18 5-24 4-8 2-7-1-48-15-9-6-7-8-4-10v-18l4-8 8-9 8-5z" fill="#325960"/>
<path transform="translate(423,717)" d="m0 0h8l2 3v7l-10 25-7 20-6 15-4 13v5l13-1h49l34-1 3-9 4-10 7-20 1-3h2l1-6 8-21 4-4h6l4 5-1 6-15 40-6 15-5 12-6 17-8 20-11 29-10 26-7 17-5 14-13 34-9 24-10 25-6 17-6 15-6 17-5 11-10 27-4 3-6-1-3-3 1-7 9-24 5-12 1-6-66-1h-25l-6 2-5 12-2 7h-2l-1 4-3 10-5 12-1 4h-2v2l-7 1-4-4 1-8 10-28 6-16 2-4 1-6-5-1-23-10-17-10-10-7-4-6-1-6 4-10 13-24 4-1 5 5 1 3 10 3-1-5 3-5 10-1 4 3-1 10 7 8 11 9 5 3h3l5-15 7-17 5-13 16-43 6-15 8-21 4-9v-7l11-23 16-32 4-11v-15h3l3-11 5-11 5-14 6-16zm-22 101-5 3-13 34-8 21 1 5h95l5-8 7-19 7-17 5-15-1-4zm-30 76-4 2-10 27-11 29 1 4 51 1 43 1 5-6 6-17 7-17 6-16 1-6-2-2zm-30 76-4 4-8 22-2 4v6l9 4 8 6 3 9v10l1 1h64l3-3 6-17 7-17 9-24v-4l-5-1z" fill="#FB836D"/>
<path transform="translate(1586,788)" d="m0 0 4 3 7 22 5 15 9 19 10 19 15 29 8 14 8 16 14 27 12 23 1 7-3 7-4 5-1 6 8 16 12 23 3 8-1 9-8 9h-2l-2 4-5 4-5 5-7 6-13 9-7 2-12 1-3 1h-29v-2h-2v-2h-2v-2h-2v-2h-2l-1-11 6-11 7-6 14-6 15-1 6-2 3-14v-15l-3-9-1-1-16-1-5-4-8-15-8-16-9-17-8-15-8-16-14-27-6-10-8-17-2-4v-6l6-8 5-12h2l2-6 8-16 4-10 8-15z" fill="#FD6755"/>
<path transform="translate(1012,712)" d="m0 0 2 3 4 16 5 12 3 4v2h2l1 2 7 2h19l8 3 6 7 1 2v12l-4 6-5 4-6 2h-20l-1 10-4 10-7 9-5 5-8 6-6 3-1 25-3 8-5 4-6 2-9-1-5-3-4-4-2-5v-10l-14 2-11 4-12 9-1-3-50-1-80-1-3-3 1-6 2-2 4-1 119-1h40l4-2-1-7-3-3-12-6-8-8-7-11-6-14-5-3-16-3-6-3-5-6-1-13-3-3-11-1-69-1-14-2-3-3v-5l4-3 120-2-1-3 11 1 22-4 19-5 19-7 14-9z" fill="#FCD3CB"/>
<path transform="translate(547,503)" d="m0 0h7l3 5-1 5-7 6-15 10h-2v2l-8 5 9 9 3 5 1 4v12l-3 7h-2l-1 4-9 6h-4v48h-1l-1-45-19 1-10 2-42 19-33 11-21 5h-29l-13-5-11-6-8-3-4-1v-2h-2v-2l-6-1-2-1v-2h-4v-2h-4v-2h-4v-2l-6-2v-2l-8-2v-4h2v-2h2v-2h2v-2h2v-2h2v-2h2v-2h2v-4h2v-2h2v-4h2l4-12h2v-2l5 1 3 1v2h2v2h2v2h8v-24h-2v-8l5 5 19 8 13 2 18-4 26-8 17-8 10-4 8-5v26l3 11 1 3-7 1-13 9-10 4-9 6h13l13-5 7-3 8-2v-5l3 3 5-1 8-4 4-5h2l-2-5h7l2-3v-5l4 3 5-1 6-1v-2l15-10 19-13zm-2 4-8 6-3 3v2h2l-3 5-4-3-5 1-8 7v3l6 1 10-4 3-3 6-3 3-4 3-7-1-4zm-14 10v3h2v-3z" fill="#FCD4CB"/>
<path transform="translate(90,530)" d="m0 0h15l15 4 9 6 7 6 6 7 6-1 8-4 12-2 12 2 12 6h2l1-9h1v14h-1l-1 52h-2v22l-2-3-147-1-20-1-6-2-5-7-1-4v-9l3-7 5-4 6-2 21-1 1-20 3-12 5-8 11-12 8-5 11-4z" fill="#A2E0D8"/>
<path transform="translate(1698,687)" d="m0 0 19 3 11 6 10 9 6 8 6 14 1 9v14l20 1 6 2 5 3 4 9v9l-5 8-7 4-26 1h-144l-9-1-5-2-1 6h-1v-9l11-22 6-16 4-14 3-15 4 1 1-7 6-3h16l13 6 5-2 10-11 10-6 9-3z" fill="#A2E0D8"/>
<path transform="translate(1481,519)" d="m0 0 1 2-3 13-1 31-2-2-13 2-11 2-14 1 4 7 16 11 15 10 4 1v-6h1l1 9 18 10 4-4 13-20 12-21 8 6 9 6 12 6 12 3-1 5-14 21-10 14-16 20-3 4h-2l-2 4-6 3-5 1h-8l-16-7-6-3v6h-1l-1-7-10-7-16-10-10-8-10-9-4-2-1 3-2-6-19-19v-2h-2v-2l-10-2-12-5-8-6-6-8-2-4v-13l4-8 8-7 4-2 8-1 12 3 8 4 4 3v2l4 2v2h2l7 11 1-33 2 3 5 1h10l27-5 10-2z" fill="#FCD3CB"/>
<path transform="translate(689,845)" d="m0 0 15 1 13 5 10 6 7 6v2h2l6 8 5 11 3 10v22l-4 12-6 11-9 10-13 9-10 4-9 2h-14l-16-4-12-7-11-10-6-9-4-9-2-5-1-7v-15l2-12 7-14 2-3h2l2-4 8-8 14-8 10-3zm-39 55-3 3 1 7 7 6 3-1 2-7-2-5-7-3zm18 28-1 2 4 4 4-1-2-4z" fill="#FB816A"/>
<path transform="translate(682,643)" d="m0 0h20l13 4 12 7 7 6 8 10 6 13 2 7v24l-4 12-7 12-11 11-16 9-11 3h-19l-16-5-11-8-5-4v-2l-4-2-6-9-5-11-2-11v-15l2-10 4-9 3-6 9-10 8-7 12-6zm-32 53-4 4 1 6 8 10 6 7 5 5 5 4 5 1 8-6 5-5 8-6v-3l-4 1v2l-4 2-7 1-9-1-7-8-7-9-5-5z" fill="#FB826B"/>
<path transform="translate(1303,127)" d="m0 0 13 1 11 4 9 5 6 8 4 1 11-4h17l8 4 9 8 4 11 2 12 3 2 16 1 6 4 3 5v9l-3 6-6 4-25 1h-79l-22-1v800h-1l-1-17v-808h-2v-10h-2v-6h-2v-4h-2v-6h-2v-4h-2v-4h-2v-4h-2v-3l-2-1h5l7-6 11-6z" fill="#AEDFD5"/>
<path transform="translate(440,15)" d="m0 0h11l11 4 11 7 8 11 3 8 2 18 5 2 12 1 6 3 4 6v10l-3 5-4 3-4 1h-156l-10-2-5-5-1-3v-7l4-7 4-3 15-2 3-1 4-17 7-10 9-6 9-2 13 1 6 3 7-1 4-5h2v-2l12-7z" fill="#A2E0D8"/>
<path transform="translate(338,255)" d="m0 0h13l12 4 11 8 4 5 4 6 2 5 1 6v17l-2 8-6 11-7 7-14 7-4 1h-15l-12-3-9-6h-11l-67 8h-6l2 10 3 24v8l-17 2-2-7-3-21-2-17-1-13 3-7 5-3 19-3 19-2 14-2 1-1 2-15 7-9 10-5 14-1 6-8h2v-2l9-7 10-4z" fill="#264249"/>
<path transform="translate(960,848)" d="m0 0h9l2 13 1 4 4 2 7 3 9-1 5-3 3-1 1-4 2-13h10l13 4 12 7 2 4 7 8 5 12 2 9v36l-133 1-3-2v-36l3-12 6-11 6-7 11-8 11-4z" fill="#FB8068"/>
<path transform="translate(839,1010)" d="m0 0h11l33 10 2 1 1 12 3 5 6 4 115 1-1 2-65 20-5 2-2 13-7 3-17 4-18 3-8 2-7-1-48-15-9-6-7-8-4-10v-18l4-8 8-9 8-5z" fill="#244148"/>
<path transform="translate(930,863)" d="m0 0v3l-4 5-5 11-2 9-1 38-25 1-3 1v2h-2l-2 6-1 2-1 16h2v44h-2v10h2v21h-1v-11l-11-3-26-8 3-1v-3l-4-1-14-14-3-8v-19h-21l-10-3v-9l2-1 36-2 5-3 4-6 8-9 5-4 5-5 3-5-1-4-6-1-56-1-5-3v-8l3-2 6-1 72-1 6-2 6-5 3-3 11-6 8-6 12-7z" fill="#FCD4CC"/>
<path transform="translate(498,467)" d="m0 0h19l12 3 9 4 11 8 7 7 6 9 5 14 1 5v19l-4 14-6 11-9 10-8 6-11 6-7 2h-5v-2l7-3 6-4 1-3h2l2-7v-12l-3-7-3-5-7-5 5-5 4-1v-2l21-14 3-4-1-6-1-1h-7l-13 9-32 22h-2v2l-8 3-4-1-5-4-8-11-4-4-5-1-3 3v5l11 14 4 6v2h-2l-2 4-5 4-7 3-4-1-4-6-5-16v-20l2-10 7-14 11-12 9-7 15-6z" fill="#FB8069"/>
<path transform="translate(1602,266)" d="m0 0h8l7 2 5 5 3 4 1 4v16l-2 11-6 12-4 5-4 3-23 1-105-1v-24l5-10 9-8 8-3 23-1 29-3 22-5 18-6z" fill="#264249"/>
<path transform="translate(1037,860)" d="m0 0 5 2 17 13 13 11 12 11 6 5 7 8 9 9 9 11 6 8 14 3v1h-7l14 28v13l-3 7-5 6-10 8-3 4 2 2-21 6-12 4h-3v11h-1v-92l-2-6-5-2-3-1-22-1-1-37-4-15-6-10z" fill="#FCD4CB"/>
<path transform="translate(133,995)" d="m0 0 4 2 8 6 10 5 10 3 1 2-2 1-3 8v12l3 15 2 4 6 1 14 1 12 5 8 7 4 5 3 8v8h-2l-2 5-5 4h-28l-21-3-9-5-11-9-8-7-7-6-5-6-5-5-1-9 14-28 6-10 4-8z" fill="#27434A"/>
<path transform="translate(1670,995)" d="m0 0 1 2 1 6 8 15 10 19 4 10-1 9-8 9h-2l-2 4-5 4-5 5-7 6-13 9-7 2-12 1-3 1h-29v-2h-2v-2h-2v-2h-2v-2h-2l-1-11 6-11 7-6 14-6 15-1 6-2 3-14v-15l-3-9-5-2v-1l16-4 10-4 6-4h2z" fill="#F5B361"/>
<path transform="translate(256,963)" d="m0 0 5 2 3 4v2l10 3-1-5 3-5 10-1 4 3-1 10 7 8 11 9 13 9 13 6 8 4 5 6 2 7-1 9-3 5-6 5-6 2-12-1-21-6-9-3-21-9-17-10-10-7-4-6-1-6 4-10 13-24z" fill="#355A60"/>
<path transform="translate(1351,1024)" d="m0 0h9l20 8 9 2 16 4 15 1 7 3 4 6h7l7-3 5 1 2 5-1 10-4 8-1 6h-2v4h-2v6h-2v4h-2v2h-2v2h-2v2h-14v-2h-8v-2h-6v-2h-4v-2h-6v-2h-6v-2h-4v-2h-5l-7-4v-2h-4v-2l-6-2v-2h-4v-2h-2v-2h-4v-2h-2v-2h-4v-2l-5-2-5-5-1-2v-14l4-7 6-4z" fill="#FBCA74"/>
<path transform="translate(981,439)" d="m0 0h92l29 1h70l4 4-1 7-2 2h-362l-11-1-1-1v-7l5-3 5-1z" fill="#B7CDD3"/>
<path transform="translate(802,290)" d="m0 0h371l3 3v6l-4 4h-68l-302-1-3-3v-6z" fill="#B5CCD2"/>
<path transform="translate(807,237)" d="m0 0h365l4 4v6l-4 4-366-1-7-2-1-5 2-4z" fill="#B5CCD2"/>
<path transform="translate(809,492)" d="m0 0h363l4 4v6l-4 4-369-1-4-3v-8z" fill="#B5CCD2"/>
<path transform="translate(989,641)" d="m0 0h14l18 2 3 1h18l18-2h42l71 1 3 4-1 7-3 2h-87l-16-1v2l-18-9-4-1h-16l-12 4-9 6v-2l-12 1h-193l-6-1-1-6 1-3 5-2 16-1 135-1z" fill="#B7CDD3"/>
<path transform="translate(449,511)" d="m0 0h1v26l3 11 1 3-7 1-13 9-18 7-12 5-6 2-4 2-15 3h-8l-25-13-11-7 1-27h-2v-8l5 5 19 8 13 2 18-4 26-8 17-8 10-4z" fill="#F8BFB9"/>
<path transform="translate(684,440)" d="m0 0h15l13 3 11 6 11 9 6 7 6 12 4 16v15l-5 15-6 11-11 11-11 7-16 5-5 1h-10l-17-4-11-6-12-11-6-8-5-11-2-9v-22l3-11 9-14 8-8 8-6 10-5zm-1 11-9 2-14 9-9 10-5 10-2 7v19l3 10 7 10 9 9 7 4 11 4 9 1 12-2 12-5 9-6 7-8 5-11 3-16-1-13-4-9-4-6-6-7-8-6-10-5-6-1z" fill="#B7CDD3"/>
<path transform="translate(913,1086)" d="m0 0h4v18l4 9 1 4h2v2h2v2l3 1-11 11h-2v2h-2l-2 4-6 8h-2l-2 5-7 11-1 2h-2l-1 4-5 5-6 3h-7l-8-4-5-8v-10l6-29 6-24 6-7 9-4 18-4z" fill="#FB7F68"/>
<path transform="translate(1060,96)" d="m0 0h137l4 2h-109l14 3 18 8 14 9 4 3v2l4 2 8 8 8 11 1 3h-97l-1 2 1-33-1-9z" fill="#FBCA76"/>
<path transform="translate(680,238)" d="m0 0h22l11 3 11 6 13 12 6 8 5 14 2 8v13l-4 16-6 12-11 12-15 9-13 3h-20l-13-3-11-6-10-9-7-10-5-12-2-10v-15l2-11 7-14 7-9 11-9 12-6zm7 10-11 2-10 4-11 9-8 14-3 8v22l4 9 6 10 6 7 14 8 7 2h21l10-4 6-4 14-14 5-9 1-5v-21l-3-9-5-9-8-9-11-7-8-3-7-1z" fill="#B7CDD3"/>
<path transform="translate(1084,1092)" d="m0 0 6 2 2 1v2h2v2h2v2h2l3 16 5 21 3 17v10l-4 7-5 4-3 1h-9l-9-6-11-18-11-14-11-11-2-1v-2l-5-2 5-5 4-5 3-6v-5l28-9z" fill="#FD6754"/>
<path transform="translate(924,928)" d="m0 0h130l22 1 8 4 3 6v94l-3 5-5 4-2 1h-27l3-2 5-3 3-6 1-60-1-36-2-5-6-1-129-1z" fill="#F5B360"/>
<path transform="translate(1009,83)" d="m0 0h33l11 6 8 8 5 10 1 9-1 30-4 10-7 8-12 6h-35l12-6h2l1-3h2v-2h2l2-5 3-8 2-9 5-6v-9l-2-5-3-1-4-13-4-7v-2l-4-2-9-6-5-1z" fill="#FD6755"/>
<path transform="translate(819,341)" d="m0 0h128l23 1 4 2v7l-3 3-4 1h-138l-25-1-5-3v-6l4-3z" fill="#B7CDD3"/>
<path transform="translate(834,544)" d="m0 0h109l28 1 3 2v7l-4 3-4 1h-157l-9-2-2-2 1-7 1-1 7-1z" fill="#B6CDD2"/>
<path transform="translate(1481,519)" d="m0 0 1 2-3 13-1 31-2-2-13 2-11 2h-20l-5-5-2-5 1-34 2 3 5 1h10l27-5 10-2z" fill="#F7BFB9"/>
<path transform="translate(924,845)" d="m0 0h25l13 1v1h-8v2h-4v2l-12 7-6 5-1-3-50-1-80-1-3-3 1-6 2-2 4-1z" fill="#B7CDD2"/>
<path transform="translate(1321,452)" d="m0 0h13l8 4 9 7 6 7 5 8h-14l-4 5-1 18-2 3-1-2-15-4-11-6-7-8-2-5v-10l2-7 9-8z" fill="#F8BFB9"/>
<path transform="translate(1488,715)" d="m0 0h51l-5 11-9 19-1 4h-2l-1 5-7 16-4 9h-2v-2h-2l-5-17-9-29-3-14z" fill="#FD6856"/>
<path transform="translate(810,695)" d="m0 0h112l6 1-7 14-2 3v-5l-5 1h-24l-87-1-5-2v-7l3-3z" fill="#B7CDD3"/>
<path transform="translate(1059,642)" d="m0 0h43l71 1 3 4-1 7-3 2h-87l-16-1v2l-18-9-9-2 1-2z" fill="#B5CBD1"/>
<path transform="translate(852,747)" d="m0 0 82 1v5l-21 1-9 3v2l-2 1h-97l-6-2-1-7 4-3z" fill="#B5CCD2"/>
<path transform="translate(729,879)" d="m0 0 7 1 2 3v5l-5 5-15 12h-2v2l-11 8-13 10h-2v2l-8 6h-2v2l-4 2-6-1-3-3v-2h-2l-5-6v-2h-2l-9-11-1-2 4 2 3 3h2l2-7 1-4 7 7 7 8v2h2v-2l6-4h2v-2l5-4h3v-2l8-6h2v-2l11-8 5-4h2v-2zm-61 49-1 2 4 4 4-1-2-4z" fill="#FBF6F4"/>
<path transform="translate(948,31)" d="m0 0h24l10 5 7 6 4 6 3 10 1 7v9l-1 9h-23l-1-24-3-10-5-8-8-6-8-3z" fill="#FD6755"/>
<path transform="translate(1586,328)" d="m0 0h24l-1 45-3 3-18-1v-2h-4v-40h2z" fill="#B5CBD1"/>
<path transform="translate(1e3 832)" d="m0 0h1l1 8v17l-3 8-5 4-6 2-9-1-5-3-4-4-2-5v-10l-14 2-5 1v-2h4v-2l10-2 4-2 1-9h24z" fill="#FCD3CA"/>
<path transform="translate(1101,695)" d="m0 0h71l4 4-1 7-2 2-84 1-2-13z" fill="#B5CCD2"/>
<path transform="translate(237,509)" d="m0 0h2l-2 11v9l4 11 5 7 11 9 10 9 8 7 9 7h8l6-4h2v2h-2v2h-2v2h-2v2h-2v2l-5 2-3 2h-9l-10-8v-2l-4-2-11-10-8-6v-2l-4-2-5-6-4-8-1-4v-11l3-9z" fill="#F5B360"/>
<path transform="translate(1571,496)" d="m0 0h5l12 7 8 8 4 10v15l-6 15-6 16-5 12-5 8h-10l-10-2-1-2 9-1 4-6 5-13 5-12 7-17 1-5v-9l-3-9-5-7v-2l-4-2-5-3z" fill="#244148"/>
<path transform="translate(1410,595)" d="m0 0 7 6 8 8 1 47-2 7-5 4h-9l-4-2 1-4 1-2 1-63z" fill="#FD6755"/>
<path transform="translate(802,898)" d="m0 0h84l-1 3-8 7-3 3h-70l-5-3v-8z" fill="#B5CCD2"/>
<path transform="translate(1571,450)" d="m0 0h1l1 31 2 1h-4l-2 4-4 2v2l-3 1h-12l-8-6-3-6v-3l-2-1h2v-9l9-1 9-4 5-3h2v-2z" fill="#FBD4CC"/>
<path transform="translate(730,676)" d="m0 0 6 1 2 3v6l-12 10-13 10-3 1v2l-5 3-15 12-4 3-2-1 5-5 8-6-3-1-5 5-7 1-9-1-8-9 1-2 8 9 7-4 5-4h2v-2l8-6h2v-2l14-10 15-12z" fill="#FBF5F3"/>
<path transform="translate(933,1081)" d="m0 0h4l2 16 6 18-3 4-6 2h-4v2h-2v2h-2v2h-2v2l-4-1 6-5-2-4h-2v-2h-2l-5-10-1-3v-16l3-3z" fill="#FBD4CD"/>
<path transform="translate(1403,492)" d="m0 0 8 1 6 4 7 8 2 11v41l-4-4-4-6v-2h-2l-4-4v-2l-4-2v-35l-4-8z" fill="#FD6957"/>
<path transform="translate(1154,284)" d="m0 0h1v5l-2 1h-348v-1l137-1 10-1h176l23-1z" fill="#F0F6F9"/>
<path transform="translate(1154,488)" d="m0 0 2 3v2h-345v-1l16-1h85l205-1 34-1z" fill="#E9F2F7"/>
<path transform="translate(1156,1053)" d="m0 0 6 2-2 4-7 9-5 6-3 3h-2l-1 3-10 7-10 6-15 6-9 3-2-1v-2h-2v-2h-2v-2l-7-2 1-2 51-16 8-5 3-1 2-4z" fill="#FBC676"/>
<path transform="translate(1154,234)" d="m0 0 2 1-1 3h-335v-1l12-1 299-1z" fill="#E7F1F6"/>
<path transform="translate(1670,995)" d="m0 0 1 2 1 6 6 12h-4v2h-2v2h-2v2h-2v2l-12 4-12-1v11h-1l-1-14-3-9-5-2v-1l16-4 10-4 6-4h2z" fill="#F8C1BA"/>
<path transform="translate(133,995)" d="m0 0 4 2 8 6 10 5 10 3 1 2-2 1-5 12-3 1h-11l-10-5-7-8 1-5 4-8z" fill="#F7BEB7"/>
<path transform="translate(777,113)" d="m0 0h6l6 3 4 6v8l-3 6-8 4-7-1-7-6-1-3v-8l3-5h2v-2z" fill="#FBC771"/>
<path transform="translate(1024,113)" d="m0 0h7l6 4 3 5v9l-6 7-5 2-7-1-4-2-4-7v-7l3-6z" fill="#FBC771"/>
<path transform="translate(815,950)" d="m0 0h25v3l-2 4h-2v4h-2v2h-30l-5-2v-9l2-1z" fill="#B7CDD2"/>
<path transform="translate(547,503)" d="m0 0h7l3 5-1 5-7 6-15 10h-2v2l-6 4-5 2-4-1-3 1-8-2 3-6 12-8 13-9zm-2 4-8 6-3 3v2h2l-3 5-4-3-5 1-8 7v3l6 1 10-4 3-3 6-3 3-4 3-7-1-4zm-14 10v3h2v-3z" fill="#FCFBFA"/>
<path transform="translate(1572,437)" d="m0 0h1v10l-3 5-4 4h-2v2l-11 6-9 3-5-1v-9l1-2 14-4 11-7 3-1 2-4z" fill="#F8BFB9"/>
<path transform="translate(1022,1111)" d="m0 0h3l-2 6-7 9-5 5-10-2-12-4-1-3 18-6z" fill="#254249"/>
<path transform="translate(1047,1103)" d="m0 0h5l-1 5-4 8-7 6 4 3v2h-4v-2h-2v-2h-2v-2l-12-2-1-4 3-5z" fill="#F7BFB8"/>
<path transform="translate(250,443)" d="m0 0 5 2 5 4 11 5 16 3 1 7-1 1h-11l-8-2-9-4-7-3-2-9z" fill="#F8BFB9"/>
<path transform="translate(1154,488)" d="m0 0 2 4h-226v-1l187-1 34-1z" fill="#FEFEFE"/>
<path transform="translate(1e3 832)" d="m0 0h1v9l-8 2h-20l-5-2v-7h24z" fill="#F8BFB9"/>
<path transform="translate(1204,1101)" d="m0 0h6v2h-2v2h-108v6h2v9l-2-3-2-8v-6h106z" fill="#FCDAC1"/>
<path transform="translate(1154,234)" d="m0 0 2 1v2h-224v-1l199-1z" fill="#FEFEFE"/>
<path transform="translate(192,597)" d="m0 0h2v14h-2v22l-2-3-147-1v-1l115-1h32v-22h2z" fill="#B5CCD2"/>
<path transform="translate(837,994)" d="m0 0 4 2 7 3v2l15 6v2l9 3 4 1v2l5 1 3 1v3l-7-1-29-9 3-1v-3l-4-1-10-10z" fill="#F8F7F7"/>
<path transform="translate(285,963)" d="m0 0 5 3-1 12h-11l-9-3-2-2 7 1-1-5 3-5z" fill="#F3CFC7"/>
<path transform="translate(420,565)" d="m0 0 3 1-8 5 8 1-3 1v2l-8 1-4 1h-4v2l-11 1-4 1-1 2h-10v-3l6-2 12-3 3-2 10-3z" fill="#FBFBFB"/>
<path transform="translate(1150,940)" d="m0 0h5l1 1v40l-2 15-4 13-3 6-1-3 6-21v-49h-2z" fill="#FCFCFD"/>
<path transform="translate(1128,997)" d="m0 0 3 1-10 9 2 3-21 6-10 3h-4v-2l9-4 6-3 8-3 2-2 6-2 2-2 5-1v-2z" fill="#F7F9F9"/>
<path transform="translate(296,695)" d="m0 0h24l-1 8-1 4h-2l-1 2-15-10z" fill="#2A444B"/>
<path transform="translate(547,503)" d="m0 0h7l3 5-1 5-4 4h-2v-2l5-5-1-5h-6v6l-3-3-8 6-3 4h2l-1 4-3 2v-2l-7-1-9 8h-2l-1 2h-5l4-4 16-11zm-16 14v3h2v-3z" fill="#E7DFDC"/>
<path transform="translate(1155,432)" d="m0 0h1v8l-26 1h-28l-27-1v-1l36-1 18-1 15 1 9-3z" fill="#F7F8F8"/>
<path transform="translate(696,701)" d="m0 0h2v2h-2v2l-3 2-1 4 3 1-2 4-7 4-13-1-8-9 1-2 8 9 7-4 5-4h2v-2z" fill="#E4E1E0"/>
<path transform="translate(737,487)" d="m0 0 2 3v19l-5 13-7 9-7 7-11 6-13 3h-7l1-2 12-2 12-5 9-6 6-7 5-11 3-16z" fill="#F4F8FA"/>
<path transform="translate(900,883)" d="m0 0 3 1-3 4-3 1-1 2h-2v2l-5 3-1 2h-80v-1l72-1 6-2 6-5 3-3z" fill="#F9FBFC"/>
<path transform="translate(1445,1045)" d="m0 0 5 1 2 5v5l-2-1v-2h-2v2h-7l-7-2v-2h-3v-2l7-1z" fill="#FCD5C9"/>
<path transform="translate(1604,328)" d="m0 0h6l-1 42-3 2v-6-2-31l1-2-2-1z" fill="#F7846F"/>
<path transform="translate(815,760)" d="m0 0h89l-2 1-2 4-2 1-3-3-11-1-69-1z" fill="#E5F0F6"/>
<path transform="translate(921,743)" d="m0 0 14 2-1 3h-78v-1l66-1z" fill="#E3E7E9"/>
<path transform="translate(1088,961)" d="m0 0h3l1 4h2l3 3 1 5-4 4-4 1-2-1z" fill="#FDFDFD"/>
<path transform="translate(880,963)" d="m0 0h4v14l-7-1v-2l-5-1 2-1 2-4z" fill="#FEFEFE"/>
<path transform="translate(1155,628)" d="m0 0h1v13l-1 2h-52v-1l39-1 10-2z" fill="#FBFCFD"/>
<path transform="translate(512,529)" d="m0 0h4v2h9l1 2h-2v2l-3 2-4-1-3 1-8-2 2-4h4z" fill="#FEFEFE"/>
<path transform="translate(1583,328)" d="m0 0h3v5h-2v40h4v2h16v1h-21z" fill="#FC8069"/>
<path transform="translate(1074,146)" d="m0 0h15l35 1v2h-10l-1 2-10-2-22-1-7-1z" fill="#EBDED0"/>
<path transform="translate(192,597)" d="m0 0h2v14h-2v22l-2-3v-25h2z" fill="#D4D3CA"/>
<path transform="translate(737,487)" d="m0 0 2 3v19l-5 13-5 5 2-6 3-7 3-16z" fill="#F8FAFA"/>
<path transform="translate(922,789)" d="m0 0h12v5h2l1 7 1 5 2 1v3l2 1-2 2-10-20-8-3z" fill="#FEFEFE"/>
<path transform="translate(547,503)" d="m0 0h7l3 5-1 5-4 4h-2v-2l5-5-1-5h-6v6l-3-3-7 4v-3z" fill="#F4D7CC"/>
<path transform="translate(1154,284)" d="m0 0h1v5h-34v-1l7-1 23-1z" fill="#FEFEFE"/>
<path transform="translate(1612,714)" d="m0 0 2 1v7h-1l-3 17h-2v7l-4 1 5-18z" fill="#DACEC9"/>
<path transform="translate(1121,940)" d="m0 0h10l4 2h-7l6 12 3 5-1 2-9-13-2-3-1-4z" fill="#E9ECEC"/>
<path transform="translate(944,817)" d="m0 0 4 1 6 7h2l3 3 7 3 3 3-1 4-2-4-14-7-8-8z" fill="#FDFDFD"/>
<path transform="translate(543,518)" d="m0 0 4 2-13 9h-2v2l-6 4h-2l1-3-2-2 8-2 4-4 6-3z" fill="#EDD8D3"/>
<path transform="translate(811,1040)" d="m0 0h1l1 17-1-2h-24l1-2h19l2-1z" fill="#F4CFBA"/>
<path transform="translate(660,923)" d="m0 0h2v2h2v2l4 1 1 4 5 1-2-3h3l1 3h4v2l-4 2-6-1-3-3v-2h-2l-5-6z" fill="#F0D9D1"/>
<path transform="translate(1270,141)" d="m0 0h6v6h2v4h2v4h2v8h-2v-6h-2v-4h-2v-4h-2v-4h-2v-3z" fill="#DAD6CB"/>
<path transform="translate(854,931)" d="m0 0 2 1-4 6v3h-4l-2 6-2 3h-7l5-4 4-6z" fill="#FEFEFE"/>
<path transform="translate(921,1129)" d="m0 0h3v2l-3 3-1 3h-3l-5 6h-2v2h-2v2h-2l2-5 6-7h2v-2z" fill="#FCE4DC"/>
<path transform="translate(282,1079)" d="m0 0 1 2-5 14v5l3 3h7v2h-8l-4-2v-12l2-6h2v-5z" fill="#FCD2C8"/>
<path transform="translate(921,743)" d="m0 0 14 2-1 3h-21l2-2h7z" fill="#E5E9EC"/>
<path transform="translate(268,951)" d="m0 0 5 2 6 4 16 5v1h-8l-14-6z" fill="#CAC7C6"/>
<path transform="translate(527,517)" d="m0 0v3l-11 9h-2l-1 2h-5l4-4z" fill="#F2D5CF"/>
<path transform="translate(704,709)" d="m0 0 3 1-13 11-8 6-2-1 5-5 8-6v-2l7-2z" fill="#F5D7CC"/>
<path transform="translate(1354,1065)" d="m0 0h4v2h2v2h4v2l4 1 2 1v2h-4v-2h-6v-2h-2v-2h-2v-2h-2z" fill="#FCD7C6"/>
<path transform="translate(1037,860)" d="m0 0 5 2 8 6v6l-3-1-7-9z" fill="#F9C7BA"/>
<path transform="translate(649,898)" d="m0 0 7 1 3 3-1 2-7-3h-3v9l-2-1-1-6 2-4z" fill="#FBD3C9"/>
<path transform="translate(1599,759)" d="m0 0h1v6h-2v4h-2v4h-2v4h-2v2h-2l2-6z" fill="#CECDCC"/>
<path transform="translate(286,483)" d="m0 0h2l-1 5-1 3h-2v2h-4v2h-4v-2h2l2-4h4v-2h2z" fill="#FCDAC2"/>
<path transform="translate(1140,177)" d="m0 0 5 4 7 16-1 3-8-17-3-4z" fill="#FEFEFE"/>
<path transform="translate(659,904)" d="m0 0 7 6 8 9v2h-2v-2h-2v-2h-2v-2h-2v-2h-2l-1-3-4-2z" fill="#EFD8D1"/>
<path transform="translate(1646,1093)" d="m0 0h4v2h-4v2h-17l3-2 12-1z" fill="#FCD8C4"/>
<path transform="translate(892,927)" d="m0 0h8l-4 2-6 2v2h-2l-2 6h-2v-4h2l2-6h4z" fill="#FCDBC2"/>
<path transform="translate(1152,996)" d="m0 0 1 4-5 14-2 1 2-9 3-9z" fill="#FEFEFE"/>
<path transform="translate(1421,1040)" d="m0 0 5 1 3 3 2 5h-3v-2h-4z" fill="#FCD9C3"/>
<path transform="translate(528,541)" d="m0 0 4 2 4 7 1 4v9h-1l-2-10z" fill="#FACDBF"/>
<path transform="translate(1284,169)" d="m0 0h4v14h-2v-10h-2z" fill="#D8D4C9"/>
<path transform="translate(1408,592)" d="m0 0 4 1 5 5 1 3h2v2h2v2l2 1-4-1-12-12z" fill="#FAD0BE"/>
<path transform="translate(373,841)" d="m0 0 1 3-6 16-2-4z" fill="#E5C5BC"/>
<path transform="translate(542,1067)" d="m0 0h2v2h2v2h2v2h2v2h2v2h-4v-2h-2v-2h-2z" fill="#FCD9C4"/>
<path transform="translate(809,963)" d="m0 0h25l-2 4-2-1v-2h-21z" fill="#EEF5F8"/>
<path transform="translate(665,708)" d="m0 0 6 5 4 4 5-2-2 4h-5l-8-9z" fill="#FBD0C6"/>
<path transform="translate(1390,1085)" d="m0 0h6v2h6v2h-10v-2h-2z" fill="#FCD7C7"/>
<path transform="translate(1612,714)" d="m0 0 2 1v7h-1l-2 9h-1v-8z" fill="#C6CDCD"/>
<path transform="translate(258,487)" d="m0 0h2v2h4v2h2v2h2v2l-8-2z" fill="#FCDAC2"/>
<path transform="translate(1440,1085)" d="m0 0h2v6h-2v2l-3 2h-3v-2h2v-2h2v-2h2z" fill="#FCD8C5"/>
<path transform="translate(696,701)" d="m0 0h2v2h-2v2l-8 6h-2l-1 2v-3l3-1v-2z" fill="#F5D4CA"/>
<path transform="translate(1204,1101)" d="m0 0h6v2h-2v2h-10l2-2h4z" fill="#FCD6C8"/>
<path transform="translate(1342,1056)" d="m0 0 6 3v4l2 1-2 1-6-1 2-4z" fill="#F7EFE8"/>
<path transform="translate(860,911)" d="m0 0h14v2h-3v2l-3 1-2-3-6-1z" fill="#FBFCFD"/>
<path transform="translate(900,760)" d="m0 0 4 1h-2l-2 4-2 1-3-3-5-1v-1z" fill="#FAFAFA"/>
<path transform="translate(1079,929)" d="m0 0h5l1 4h2l1 5-4-3v-2l-5-2z" fill="#FCDAC3"/>
<path transform="translate(648,910)" d="m0 0 4 2 3 3h3l1 4-2 2-9-10z" fill="#F3D6CD"/>
<path transform="translate(544,505)" d="m0 0h4v6l-3-3-7 4v-3z" fill="#F1D8D2"/>
<path transform="translate(908,1145)" d="m0 0h4v4h-6v2h-2v-4h4z" fill="#EEEDEE"/>
<path transform="translate(1242,1085)" d="m0 0h4v2h-2v2h-2v2h-6v-2h4v-2h2z" fill="#FCD9C4"/>
<path transform="translate(930,863)" d="m0 0v3l-4 5-3 5h-1l1-7z" fill="#FBD1C2"/>
<path transform="translate(729,323)" d="m0 0v3l-6 7-5 2 6-7z" fill="#EFF5F8"/>
<path transform="translate(276,1095)" d="m0 0h1l2 6 2 2h7v2h-8l-4-2z" fill="#FACDC1"/>
<path transform="translate(1592,1089)" d="m0 0h2v2h2v2h2v2h2v2h-4v-2h-2l-2-2z" fill="#FCD8C6"/>
<path transform="translate(451,562)" d="m0 0 3 1h-2l-1 2-8 3-2-2 7-3z" fill="#FEFEFE"/>
<path transform="translate(1230,203)" d="m0 0h2v2h2v5l-4 1z" fill="#FCFCFD"/>
<path transform="translate(523,525)" d="m0 0v3z" fill="#E2E2E1"/>
</svg>
