<svg xmlns="http://www.w3.org/2000/svg" xmlns:xlink="http://www.w3.org/1999/xlink" width="1080" zoomAndPan="magnify" viewBox="0 0 810 1439.999935" height="1920" preserveAspectRatio="xMidYMid meet" version="1.0"><defs><clipPath id="f57247ef5d"><path d="M 608 742 L 669 742 L 669 802.5 L 608 802.5 Z M 608 742 " clip-rule="nonzero"/></clipPath></defs><path fill="#fde962" d="M 722.847656 220.167969 C 725.777344 236.746094 728.144531 239.121094 744.734375 242.042969 C 728.152344 244.972656 725.777344 247.347656 722.847656 263.921875 C 719.921875 247.339844 717.554688 244.964844 700.964844 242.042969 C 717.546875 239.113281 719.921875 236.738281 722.847656 220.167969 Z M 722.847656 220.167969 " fill-opacity="1" fill-rule="nonzero"/><path fill="#fde962" d="M 359.007812 579.9375 C 362.691406 600.78125 365.671875 603.761719 386.515625 607.445312 C 365.671875 611.125 362.691406 614.105469 359.007812 634.949219 C 355.328125 614.105469 352.347656 611.125 331.503906 607.445312 C 352.347656 603.761719 355.328125 600.78125 359.007812 579.9375 Z M 359.007812 579.9375 " fill-opacity="1" fill-rule="nonzero"/><path fill="#fde962" d="M 249.121094 376.265625 C 252.046875 392.84375 254.417969 395.222656 271.003906 398.140625 C 254.425781 401.070312 252.046875 403.445312 249.121094 420.019531 C 246.191406 403.4375 243.824219 401.0625 227.234375 398.140625 C 243.816406 395.214844 246.191406 392.835938 249.121094 376.265625 Z M 249.121094 376.265625 " fill-opacity="1" fill-rule="nonzero"/><g clip-path="url(#f57247ef5d)"><path fill="#f8abeb" d="M 638.585938 742.078125 C 642.601562 764.816406 645.855469 768.070312 668.59375 772.085938 C 645.855469 776.097656 642.601562 779.351562 638.585938 802.09375 C 634.574219 779.351562 631.320312 776.097656 608.578125 772.085938 C 631.320312 768.070312 634.574219 764.816406 638.585938 742.078125 Z M 638.585938 742.078125 " fill-opacity="1" fill-rule="nonzero"/></g><path fill="#f8abeb" d="M 470.453125 137.277344 C 472.207031 147.226562 473.636719 148.648438 483.578125 150.402344 C 473.628906 152.160156 472.207031 153.585938 470.453125 163.527344 C 468.695312 153.578125 467.269531 152.160156 457.328125 150.402344 C 467.277344 148.648438 468.695312 147.21875 470.453125 137.277344 Z M 470.453125 137.277344 " fill-opacity="1" fill-rule="nonzero"/><path fill="#fde962" d="M 618.394531 515.59375 C 619.570312 522.226562 620.515625 523.175781 627.148438 524.347656 C 620.515625 525.519531 619.570312 526.46875 618.394531 533.097656 C 617.222656 526.46875 616.277344 525.519531 609.644531 524.347656 C 616.277344 523.175781 617.222656 522.226562 618.394531 515.59375 Z M 618.394531 515.59375 " fill-opacity="1" fill-rule="nonzero"/><path fill="#f8abeb" d="M 390.851562 48.605469 C 394.027344 66.609375 396.605469 69.1875 414.605469 72.363281 C 396.605469 75.539062 394.027344 78.117188 390.851562 96.117188 C 387.675781 78.117188 385.09375 75.539062 367.09375 72.363281 C 385.09375 69.1875 387.675781 66.609375 390.851562 48.605469 Z M 390.851562 48.605469 " fill-opacity="1" fill-rule="nonzero"/><path fill="#f8abeb" d="M 493.75 150.480469 C 495.503906 160.429688 496.933594 161.851562 506.875 163.605469 C 496.925781 165.359375 495.503906 166.789062 493.75 176.730469 C 491.996094 166.78125 490.566406 165.359375 480.625 163.605469 C 490.574219 161.851562 491.996094 160.421875 493.75 150.480469 Z M 493.75 150.480469 " fill-opacity="1" fill-rule="nonzero"/><path fill="#f8abeb" d="M 79.042969 608.949219 C 81.800781 624.582031 84.035156 626.820312 99.675781 629.578125 C 84.042969 632.335938 81.808594 634.578125 79.042969 650.203125 C 76.285156 634.570312 74.050781 632.335938 58.410156 629.578125 C 74.042969 626.820312 76.277344 624.574219 79.042969 608.949219 Z M 79.042969 608.949219 " fill-opacity="1" fill-rule="nonzero"/><path fill="#fde962" d="M 23.128906 666.242188 C 26.21875 683.769531 28.734375 686.277344 46.253906 689.367188 C 28.726562 692.457031 26.21875 694.976562 23.128906 712.496094 C 20.035156 694.96875 17.519531 692.457031 0 689.367188 C 17.527344 686.277344 20.035156 683.761719 23.128906 666.242188 Z M 23.128906 666.242188 " fill-opacity="1" fill-rule="nonzero"/><path fill="#f8abeb" d="M 91.082031 403.761719 C 92.253906 410.394531 93.199219 411.34375 99.832031 412.515625 C 93.199219 413.6875 92.253906 414.636719 91.082031 421.269531 C 89.90625 414.636719 88.960938 413.6875 82.328125 412.515625 C 88.960938 411.34375 89.90625 410.394531 91.082031 403.761719 Z M 91.082031 403.761719 " fill-opacity="1" fill-rule="nonzero"/><path fill="#fffaf9" d="M 250.285156 685.121094 C 253.296875 702.175781 255.734375 704.613281 272.789062 707.625 C 255.738281 710.640625 253.296875 713.078125 250.285156 730.132812 C 247.269531 713.078125 244.832031 710.640625 227.777344 707.625 C 244.832031 704.613281 247.269531 702.175781 250.285156 685.121094 Z M 250.285156 685.121094 " fill-opacity="1" fill-rule="nonzero"/><path fill="#fffaf9" d="M 781.871094 460.875 C 785.636719 482.191406 788.683594 485.246094 810.007812 489.011719 C 788.691406 492.777344 785.636719 495.820312 781.871094 517.148438 C 778.105469 495.828125 775.058594 492.777344 753.734375 489.011719 C 775.050781 485.246094 778.105469 482.199219 781.871094 460.875 Z M 781.871094 460.875 " fill-opacity="1" fill-rule="nonzero"/><path fill="#fde962" d="M 633.152344 319.417969 C 634.488281 326.996094 635.574219 328.082031 643.152344 329.417969 C 635.574219 330.753906 634.488281 331.84375 633.152344 339.421875 C 631.816406 331.84375 630.726562 330.753906 623.148438 329.417969 C 630.726562 328.082031 631.816406 326.996094 633.152344 319.417969 Z M 633.152344 319.417969 " fill-opacity="1" fill-rule="nonzero"/><path fill="#fde962" d="M 657.226562 78.800781 C 659.066406 89.222656 660.558594 90.714844 670.980469 92.554688 C 660.558594 94.394531 659.066406 95.886719 657.226562 106.308594 C 655.386719 95.886719 653.894531 94.394531 643.472656 92.554688 C 653.894531 90.714844 655.386719 89.222656 657.226562 78.800781 Z M 657.226562 78.800781 " fill-opacity="1" fill-rule="nonzero"/><path fill="#fffaf9" d="M 437.835938 301.878906 C 440.429688 316.566406 442.535156 318.671875 457.210938 321.257812 C 442.527344 323.851562 440.421875 325.957031 437.835938 340.632812 C 435.242188 325.949219 433.136719 323.84375 418.457031 321.257812 C 433.144531 318.664062 435.25 316.558594 437.835938 301.878906 Z M 437.835938 301.878906 " fill-opacity="1" fill-rule="nonzero"/><path fill="#fffaf9" d="M 524.039062 536.757812 C 525.964844 547.652344 527.515625 549.214844 538.421875 551.132812 C 527.523438 553.058594 525.964844 554.617188 524.039062 565.507812 C 522.113281 554.613281 520.558594 553.050781 509.65625 551.132812 C 520.550781 549.207031 522.113281 547.644531 524.039062 536.757812 Z M 524.039062 536.757812 " fill-opacity="1" fill-rule="nonzero"/><path fill="#fffaf9" d="M 551.609375 402.683594 C 552.609375 408.367188 553.425781 409.183594 559.109375 410.1875 C 553.425781 411.1875 552.609375 412.003906 551.609375 417.6875 C 550.605469 412.003906 549.789062 411.1875 544.105469 410.1875 C 549.789062 409.183594 550.605469 408.367188 551.609375 402.683594 Z M 551.609375 402.683594 " fill-opacity="1" fill-rule="nonzero"/><path fill="#f8abeb" d="M 741.488281 105.835938 C 744.75 124.308594 747.390625 126.949219 765.875 130.21875 C 747.398438 133.480469 744.757812 136.121094 741.488281 154.605469 C 738.226562 136.128906 735.585938 133.488281 717.101562 130.21875 C 735.578125 126.957031 738.21875 124.316406 741.488281 105.835938 Z M 741.488281 105.835938 " fill-opacity="1" fill-rule="nonzero"/><path fill="#fffaf9" d="M 602.476562 503.097656 C 603.390625 508.308594 604.144531 509.054688 609.347656 509.972656 C 604.136719 510.886719 603.390625 511.640625 602.476562 516.84375 C 601.558594 511.632812 600.804688 510.886719 595.601562 509.972656 C 600.8125 509.054688 601.558594 508.300781 602.476562 503.097656 Z M 602.476562 503.097656 " fill-opacity="1" fill-rule="nonzero"/><path fill="#fde962" d="M 405.21875 720.8125 C 407.144531 731.707031 408.695312 733.269531 419.601562 735.1875 C 408.703125 737.113281 407.144531 738.675781 405.21875 749.5625 C 403.292969 738.667969 401.738281 737.105469 390.835938 735.1875 C 401.730469 733.261719 403.292969 731.699219 405.21875 720.8125 Z M 405.21875 720.8125 " fill-opacity="1" fill-rule="nonzero"/><path fill="#fde962" d="M 601.308594 0.113281 C 605.15625 21.90625 608.277344 25.027344 630.066406 28.871094 C 608.277344 32.714844 605.15625 35.839844 601.308594 57.628906 C 597.464844 35.839844 594.34375 32.714844 572.550781 28.871094 C 594.34375 25.027344 597.464844 21.90625 601.308594 0.113281 Z M 601.308594 0.113281 " fill-opacity="1" fill-rule="nonzero"/><path fill="#fde962" d="M 327.558594 135.515625 C 330.484375 152.097656 332.851562 154.472656 349.441406 157.394531 C 332.859375 160.320312 330.484375 162.695312 327.558594 179.269531 C 324.628906 162.6875 322.261719 160.3125 305.671875 157.394531 C 322.253906 154.464844 324.628906 152.089844 327.558594 135.515625 Z M 327.558594 135.515625 " fill-opacity="1" fill-rule="nonzero"/><path fill="#fffaf9" d="M 131.464844 367.09375 C 132.96875 375.621094 134.191406 376.839844 142.71875 378.34375 C 134.191406 379.851562 132.96875 381.070312 131.464844 389.597656 C 129.957031 381.070312 128.738281 379.851562 120.210938 378.34375 C 128.738281 376.839844 129.957031 375.621094 131.464844 367.09375 Z M 131.464844 367.09375 " fill-opacity="1" fill-rule="nonzero"/><path fill="#fde962" d="M 449.09375 78.25 C 452.777344 99.09375 455.757812 102.074219 476.601562 105.757812 C 455.757812 109.4375 452.777344 112.417969 449.09375 133.265625 C 445.414062 112.417969 442.433594 109.4375 421.589844 105.757812 C 442.433594 102.074219 445.414062 99.09375 449.09375 78.25 Z M 449.09375 78.25 " fill-opacity="1" fill-rule="nonzero"/><path fill="#f8abeb" d="M 370.269531 560.871094 C 371.355469 567.027344 372.234375 567.90625 378.402344 569 C 372.242188 570.089844 371.363281 570.964844 370.269531 577.132812 C 369.183594 570.972656 368.304688 570.097656 362.140625 569 C 368.296875 567.914062 369.175781 567.035156 370.269531 560.871094 Z M 370.269531 560.871094 " fill-opacity="1" fill-rule="nonzero"/><path fill="#f8abeb" d="M 512.390625 86.722656 C 515.820312 106.144531 518.59375 108.925781 538.023438 112.359375 C 518.601562 115.789062 515.820312 118.5625 512.390625 137.992188 C 508.957031 118.570312 506.183594 115.789062 486.753906 112.359375 C 506.175781 108.925781 508.957031 106.152344 512.390625 86.722656 Z M 512.390625 86.722656 " fill-opacity="1" fill-rule="nonzero"/><path fill="#f8abeb" d="M 266.203125 397.496094 C 270.132812 419.761719 273.320312 422.945312 295.589844 426.875 C 273.328125 430.804688 270.140625 433.996094 266.203125 456.253906 C 262.273438 433.988281 259.089844 430.804688 236.816406 426.875 C 259.082031 422.945312 262.265625 419.753906 266.203125 397.496094 Z M 266.203125 397.496094 " fill-opacity="1" fill-rule="nonzero"/><path fill="#fffaf9" d="M 211.066406 629.738281 C 214.15625 647.269531 216.671875 649.777344 234.191406 652.867188 C 216.664062 655.957031 214.15625 658.472656 211.066406 675.996094 C 207.976562 658.46875 205.457031 655.957031 187.9375 652.867188 C 205.464844 649.777344 207.976562 647.261719 211.066406 629.738281 Z M 211.066406 629.738281 " fill-opacity="1" fill-rule="nonzero"/><path fill="#fffaf9" d="M 675.089844 138.21875 C 678.433594 157.167969 681.144531 159.878906 700.09375 163.226562 C 681.144531 166.574219 678.433594 169.28125 675.089844 188.230469 C 671.742188 169.28125 669.03125 166.574219 650.082031 163.226562 C 669.03125 159.878906 671.742188 157.167969 675.089844 138.21875 Z M 675.089844 138.21875 " fill-opacity="1" fill-rule="nonzero"/><path fill="#fffaf9" d="M 311.636719 555.808594 C 313.144531 564.335938 314.363281 565.554688 322.890625 567.058594 C 314.363281 568.566406 313.144531 569.785156 311.636719 578.3125 C 310.128906 569.785156 308.910156 568.566406 300.382812 567.058594 C 308.910156 565.554688 310.128906 564.335938 311.636719 555.808594 Z M 311.636719 555.808594 " fill-opacity="1" fill-rule="nonzero"/><path fill="#fffaf9" d="M 751.972656 332.882812 C 754.316406 346.148438 756.210938 348.042969 769.476562 350.386719 C 756.210938 352.734375 754.316406 354.628906 751.972656 367.890625 C 749.625 354.628906 747.730469 352.734375 734.46875 350.386719 C 747.730469 348.042969 749.625 346.148438 751.972656 332.882812 Z M 751.972656 332.882812 " fill-opacity="1" fill-rule="nonzero"/><path fill="#f8abeb" d="M 176.507812 308.296875 C 179.855469 327.246094 182.566406 329.953125 201.515625 333.300781 C 182.566406 336.648438 179.855469 339.359375 176.507812 358.308594 C 173.160156 339.359375 170.449219 336.648438 151.5 333.300781 C 170.449219 329.953125 173.160156 327.246094 176.507812 308.296875 Z M 176.507812 308.296875 " fill-opacity="1" fill-rule="nonzero"/><path fill="#fde962" d="M 649.460938 225.84375 C 652.300781 241.949219 654.609375 244.257812 670.714844 247.097656 C 654.609375 249.941406 652.300781 252.246094 649.460938 268.355469 C 646.617188 252.246094 644.3125 249.941406 628.203125 247.097656 C 644.3125 244.257812 646.617188 241.949219 649.460938 225.84375 Z M 649.460938 225.84375 " fill-opacity="1" fill-rule="nonzero"/><path fill="#fffaf9" d="M 396.285156 438.632812 C 399.128906 454.738281 401.433594 457.046875 417.542969 459.890625 C 401.433594 462.730469 399.128906 465.039062 396.285156 481.144531 C 393.445312 465.039062 391.136719 462.730469 375.03125 459.890625 C 391.136719 457.046875 393.445312 454.738281 396.285156 438.632812 Z M 396.285156 438.632812 " fill-opacity="1" fill-rule="nonzero"/><path fill="#fde962" d="M 198.640625 467.085938 C 202.40625 488.40625 205.449219 491.457031 226.777344 495.222656 C 205.457031 498.992188 202.40625 502.035156 198.640625 523.359375 C 194.875 502.042969 191.828125 498.992188 170.503906 495.222656 C 191.820312 491.457031 194.875 488.414062 198.640625 467.085938 Z M 198.640625 467.085938 " fill-opacity="1" fill-rule="nonzero"/></svg>