<?xml version="1.0" encoding="UTF-8"?>
<svg version="1.1" viewBox="0 0 889 821" width="889" height="821" xmlns="http://www.w3.org/2000/svg">
<path transform="translate(665,3)" d="m0 0h9l11 4 10 7 9 9 8 13 5 14 1 5v18l-4 13-6 9-8 8-12 6-10 2-1 9-3 9-7 10-9 8-6 3h-2l-1 18 55 5 7 3 3 7-2 12-32 149-11 51-1 2 4 2 6 7 4 11v20l-4 10-6 11-9 8-8 3h-3l-2 18 4-2 24-26 11-12 9-10 12-13 22-24 5-5 19 1 12 1 1 1v7l-7 8-9 10-7 7-7 8-32 34-28 30-8 9 4 6 11 13v-3-10l4-16 5-12 6-8 6-4 10-3 7-1h13l11 2 16 7 7 6 4 6 2 5 1 6v19l-2 13-4 8-9 9-11 4-5 1h-20l-12-3-11-4 12 14 9 11 6 7-1 9-18 57-14 45-1 1h-7l-46-8h-4l1 1v7l-11 14-2 3 54-6h18l11 4 6 5 4 8 1 7-2 9-7 11-11 12-7 7-7 8-11 12-9 14-4 10-7 5-9 1-9-3-6-7-1-4v-7l3-10 6-11 11-14 10-11 4-5-34 2-17-2-11-4-9-7-5-9v-4l-13-1-101-16-69-11-87-5-5-3-3-4-1-3-35-6-17-3-5-3-2-4-5-46-37-7-57-10-3-3-4-23-7 10-3 3-7-1-7-7-10-15-2-1-20-3-8-3-3-3v-6l4-8 10-13 1-7-2-9-1-11 1-7 3-3h10l15 5 2 1h6l14-8 8-3h6l4 3 10-3 53-19 8-3-2-23-7-70-3-14-27-95-15-53v-7l5-4 20-5h2l-6-57 1-8 7-3 86 8 106 10 10-1 16-4 6-7 5-2 8 1 5 2 129-32 43-11-6-8-4-8-1-3v-12l4-8 6-5 8-2 10 1 9 4 8 6 5 4 9 12 6 12 12-4 2-5 2-6v-9l-4-13-7-10-6-5-12-4-5-6v-10l3-5zm64 497-4 4-1 7v15l5 4h9l3-2 1-7v-15l-4-5-2-1z" fill="#AB53FE"/>
<path transform="translate(228,466)" d="m0 0h4l1 10 2 5-1 5h-2v2h2l3 24v2l11 1 16 3 8 1 34 5h9l65 9 16 3 48 6 91 13 43 7 50 6 3 1v-6l1-3 3-13 7-6 7-8 9-9 7-8 4-4 3 1 9 11 6 7-1-4v-10l4-16 5-12 6-8 6-4 10-3 7-1h13l11 2 16 7 7 6 4 6 2 5 1 6v19l-2 13-4 8-9 9-11 4-5 1h-20l-12-3-11-4 12 14 9 11 6 7-1 9-18 57-14 45-1 1h-7l-46-8h-4l1 1v7l-11 14-2 3 54-6h18l11 4 6 5 4 8 1 7-2 9-7 11-11 12-7 7-7 8-11 12-9 14-4 10-7 5-9 1-9-3-6-7-1-4v-7l3-10 6-11 11-14 10-11 4-5-34 2-17-2-11-4-9-7-5-9v-4l-13-1-101-16-69-11-87-5-5-3-3-4-1-3-35-6-17-3-5-3-2-4-5-46-37-7-57-10-3-3-4-23-7 10-3 3-7-1-7-7-10-15-2-1-20-3-8-3-3-3v-6l4-8 10-13 1-7-2-9-1-11 1-7 3-3h10l15 5 2 1h6l14-8 8-3h6l4 3 10-3 53-19zm501 34-4 4-1 7v15l5 4h9l3-2 1-7v-15l-4-5-2-1z" fill="#CF5C03"/>
<path transform="translate(448,190)" d="m0 0h20l31 4 10 3 2 2-4 2 9 7 10 10 8 14 5 14 2 11v49l-7 131-3 35-4 16-8 16-6 8-6 4-1 2-14 7h-3v2l-8 2h-25l-20-3-16-5-10-5-13-10-10-12-7-14-4-14-1-7v-75l2-87 1-27 2-19 4-15 8-16 9-11 12-9 13-6 13-3z" fill="#E5E1E3"/>
<path transform="translate(408,556)" d="m0 0h10l9 2 8 4 5 4 1 4h2l2 5 1 7-1 25-1 12-6 11-2 5-3 16 16 2 156 27 4-1 8-7 7 1 9 7 7 8 1 1v7l-11 14-2 3 54-6h18l11 4 6 5 4 8 1 7-2 9-7 11-11 12-7 7-7 8-11 12-9 14-4 10-7 5-9 1-9-3-6-7-1-4v-7l3-10 6-11 11-14 10-11 4-5-34 2-17-2-11-4-9-7-5-9v-4l-13-1-101-16-69-11-87-5-5-3-3-4-1-3-35-6-17-3-5-3-2-4-5-47 14 2 131 23 21 4 1-11-8-2-9-5-7-8-2-5v-40l3-9 7-7z" fill="#AB53FE"/>
<path transform="translate(320,187)" d="m0 0h24l9 1-5 296-1 30h-8l-36-5-3-1v-46l1-137v-62l-7-1-4-8-7-3-7 1-5 4-3 5-4-1v-37l20-1 11-4 12-9 7-10z" fill="#E6E2E4"/>
<path transform="translate(452,250)" d="m0 0h8l10 2 6 3 3 3v2h2l4 8 1 4v19l-6 141-1 20-2 9-3 2h-7l-4 1h-6l-5 2-2 2-4-1-1 3-3 1-8-4-7-8-2-6v-37l4-126 1-18 3-10 6-7 8-4z" fill="#AC54FE"/>
<path transform="translate(374,194)" d="m0 0 2 1 3 18 1 15v30l-1 12-2 68-1 46v75l3 15 4 11 6 10 9 11 12 9 12 6 19 5 15 2h25l8-1v-2l10-4 4-3h3l1-3 6-4 15-15 7-10 5-12 3-12 3-30 7-123 2-47 2 4 2 12 1 11v48l-2 52v87l-3 22-6 15-7 11-3 3h-2l-1 5-2 9 2 4 4 4 10 4 17 4 13 1 2 1 16 2 17 2 6-1 2-7-2-10h11l4 2-3 15-2 7-38-4-99-15-80-11-24-3-25-4-36-5-5-2 2-2 3-1 1-4v-5h9l2 1h7l16-11 3-2 2-81 4-189z" fill="#9304EC"/>
<path transform="translate(617,672)" d="m0 0 7 1 9 7 7 8 1 1v7l-11 14-2 3 54-6h18l11 4 6 5 4 8 1 7-2 9-7 11-11 12-7 7-7 8-11 12-9 14-4 10-7 5-9 1-9-3-6-7-1-4v-7l3-10 6-11 11-14 10-11 4-5-34 2-17-2-11-4-9-7-5-9-1-9 1-7 4-11 12-20 8-7z" fill="#5EB2AD"/>
<path transform="translate(621,90)" d="m0 0 16 12 13 6v7l-3 7-6 5-12 2-16-2-3 1-2 5-3 8v6l9 4 20 2 10-2h4v15l-1 2-17-1-180-17-1-3v-8l-2-5 9-3 129-32z" fill="#F6C405"/>
<path transform="translate(665,3)" d="m0 0h9l11 4 10 7 9 9 8 13 5 14 1 5v18l-4 13-6 9-8 8-12 6-10 2-1 9-3 9-7 10-9 8-6 3h-2l-1 18h-2l1-17-14 3-20-2-10-5 1-9 5-10 3-2 18 2 12-3 5-6 1-4v-7l-12-5-12-9-5-4-6-8-4-8-1-3v-12l4-8 6-5 8-2 10 1 9 4 8 6 5 4 9 12 6 12 12-4 2-5 2-6v-9l-4-13-7-10-6-5-12-4-5-6v-10l3-5z" fill="#B097D7"/>
<path transform="translate(353,188)" d="m0 0h13l8 1v42l-4 191-2 79-14 10-6 4h-7v-1h6v-30l5-290z" fill="#AF97D7"/>
<path transform="translate(61,284)" d="m0 0h13l8 4 7 7 6 12 5 20 1 7v9l-3 3-9 2h-14l-4-5-4-20h-2l-11 23-16 42-6 8-7 4h-10l-6-4-4-5-2-6-2-38-1-10v-16l6-5 3-1h14l6 4 8-14 7-9 7-7z" fill="#8DB4D8"/>
<path transform="translate(150,487)" d="m0 0h6l5 5 1 18v9l2 4 5 4v2l4 2 8 9 1 2v6l-5 5-24 8-8 16-6 9-3 3-7-1-7-7-10-15-2-1-20-3-8-3-3-3v-6l4-8 10-13 1-7-2-9-1-11 1-7 3-3h10l15 5 2 1h6l14-8z" fill="#F1D74A"/>
<path transform="translate(724,473)" d="m0 0h13l11 2 16 7 7 6 4 6 2 5 1 6v19l-2 13-4 8-9 9-11 4-5 1h-20l-12-3-14-6-9-8-4-7-2-8v-10l4-16 5-12 6-8 6-4 10-3zm5 27-4 4-1 7v15l5 4h9l3-2 1-7v-15l-4-5-2-1z" fill="#E5E1E3"/>
<path transform="translate(297,540)" d="m0 0h13l10 4 7 5 5 10 1 3 4-6 8-6 5-2h14l11 4 7 6 4 6 1 3v9l-3 3h-8l-13-2-3-8-2 1v33l3 3 1-5 3-2 13 2 8 2 1 2-3 9-6 8-4 3-7 2h-7l-13-4-6-4-6-7-2-3-1-36-1-4-3 2-12-1-9-3-2-7h-3v6l7 7 11 9 7 9 1 3v12l-3 6-5 4-8 2-10-1-8-3-8-6-4-5-2-5v-9l5-3 12 1-11-10-6-11v-12l2-5h2v-2l10-6z" fill="#E4E0E3"/>
<path transform="translate(737,395)" d="m0 0 19 1 12 1 1 1v7l-7 8-9 10-7 7-7 8-32 34-42 45-15 16-12 13-14-1-15-2-2-1 2-5 6-9 3-4h2l2-4 7-8h2l2-4 8-8 8-10 5-5 24-26 11-12 9-10 12-13 22-24z" fill="#E5E1E3"/>
<path transform="translate(634,388)" d="m0 0 14 1 10 3-1 3h2l-1 2 1 1 11 7 6 9 3 10v21l-7 13-9 8-8 3-7 1h-20l-14-4-11-6-8-9-4-12v-8l3-15 5-10 10-10 9-5z" fill="#E5E1E3"/>
<path transform="translate(513,571)" d="m0 0 12 1 13 2 3 5 5 21 1-1 1-18 3-4h8l14 2 2 1v12l-4 61-3 8-11-1-15-3-3-8-4-17-1-2-1 19-3 6-18-3-5-2v-21l2-39 1-15z" fill="#E5E1E3"/>
<path transform="translate(507,576)" d="m0 0h1l-1 32v25l1 17 20 4h2l2-5 1-19 2-3 7 29 22 4h4l2-7 4-61 1-7h2v17l10 1 9 2v16l-2 29v15l24 4 3-35v-10l2-15 12 2v1l-7 1-1 4-3 49-3 5-8 5-5 5-15-2-121-21-39-7 1-10 2-10 6-9 1-3 1-12 1-25h2l1 43 5 10 8 6 10 4 9 1 10-2 6-4 6-10 1-4 3-49z" fill="#CF5B02"/>
<path transform="translate(374,194)" d="m0 0 2 1 3 18 1 15v30l-1 12-2 68-1 46v75l3 15 4 11 6 10 9 11 12 9 12 6 14 4-4 1 1 5-1 4-10 3-1 1-16-1-21-3-25-4-30-4-5-2 2-2 3-1 1-4v-5h9l2 1h7l16-11 3-2 2-81 4-189z" fill="#940AEC"/>
<path transform="translate(452,250)" d="m0 0h8l7 1v1l-7 1-7 6-3 7-1 5-5 138v34l4 9 5 5 11 4-1 3h-6l-5 2-2 2-4-1-1 3-3 1-8-4-7-8-2-6v-37l4-126 1-18 3-10 6-7 8-4z" fill="#AE96D6"/>
<path transform="translate(452,562)" d="m0 0 22 3 1 1v18l-1 25v14l3 2 2-48 1-7 2-3h8l14 2 3 3-3 54-4 10-6 7-7 3-8 1-11-2-12-6-6-7-3-7v-23l2-37z" fill="#E4E0E3"/>
<path transform="translate(616,48)" d="m0 0 2 1 5 5 8 5 1 2h2v2l4 2 8 8 7 10 1 4 3 1 1 4 3-1 3 3 2 5 6 5-1-4 3-4h3l1 8v12l-4 13-7 10-9 8-6 3h-2l-1 18h-2l1-17-14 3-20-2-10-5 1-9 5-10 3-2 18 2 12-3 5-6 1-4v-7l-12-5-12-9-5-4-6-8-4-8-1-3v-12l4-8z" fill="#A165C5"/>
<path transform="translate(510,199)" d="m0 0 7 1 10 6 9 8 9 13 5 11 4 15 1 9v23l-4 79-4 68-3 30-4 15-7 14-12 13-5 4 10-20 4-16 3-35 7-131v-49l-3-15-7-16-7-10-10-10-7-5z" fill="#9A89CE"/>
<path transform="translate(207,526)" d="m0 0 27 4 8 3 7 6 4 8v42l-4 6-7 6-5 2h-13l-21-4-1-26v-44z" fill="#E4E0E3"/>
<path transform="translate(582,581)" d="m0 0 18 2 34 5 10 2v10l-1 9-2 3-16-2-2-1v9l-1 7v9l-2 26-2 9h-8l-16-3-1-1v-15l3-45-11-1-7-3 1-16z" fill="#E3DFE1"/>
<path transform="translate(408,556)" d="m0 0h10l7 2 2 4 5 2 7 7 4 10v11l-1 11-8-4-5 1-6 8-6 18-2 9h-7l-11-6-7-8-2-5v-40l3-9 7-7z" fill="#E4E0E3"/>
<path transform="translate(297,540)" d="m0 0h13l5 4v2l4 2 5 5 4 7v11l-12-1-9-3-2-7h-3v6l7 7 11 9 7 9 1 3v12l-3 6-5 4-8 2-10-1-8-3-8-6-4-5-2-5v-9l5-3 12 1-11-10-6-11v-12l2-5h2v-2l10-6z" fill="#E4E0E2"/>
<path transform="translate(619,673)" d="m0 0 7 1 7 6 7 8 1 1v7l-11 14-2 3 54-6h18l11 4 6 5 3 5-1 3-4-6-9-4h-2l1 4-4 1-2 4-5-1-7 2-6 1-7 2-10 1-13 1-4-1-3 1h-2l-5 1-9-2-13-4-5 1v-2l-2-1-1-4-4-3-1-3-2-1-1-3v-8l5-10 11-13z" fill="#8EEDE3"/>
<path transform="translate(353,188)" d="m0 0 2 4 1 5 1 10 1 3-1 3 2 1 1 10 2 5 1 10-1 2 2 1v37l-1 9v31l-1 5v42 3l-1 3v3 27l-1 3v6l-2 4 2 1-1 9-1 7v4l-2 2-1 9v3l-2 6v3l-1 3-1 1 2 3-3 4 1 2h-2v9h-1v-54l4-233z" fill="#A49DB3"/>
<path transform="translate(794,236)" d="m0 0 4 1 2 5v14l3 5 9 9 2 6-4 4-15 5-8 15-3 3h-5l-8-9-4-6-17-3-4-3 1-8 8-10-1-11v-11l2-2h8l9 3h6l11-6z" fill="#F1D74B"/>
<path transform="translate(392,27)" d="m0 0 4 1 2 5v15l7 8 6 7v5l-6 4-13 4-8 16-3 2-5-1-7-8-4-6-17-3-4-3 1-7 8-11v-7l-1-4v-11l2-2h8l9 3h6l11-6z" fill="#F1D74C"/>
<path transform="translate(202,194)" d="m0 0 3 1 16 158 1 12-2-3-16-57-20-70-7-25v-7l5-4z" fill="#F5C507"/>
<path transform="translate(669,512)" d="m0 0 3 1 9 11 8 11 2 5v3l-2 6-4 6-1 6-1 3h-2l1 6-1 4-2 1-16-1-30-4-2-1v-6l1-3 3-13 7-6 7-8 9-9 7-8z" fill="#914503"/>
<path transform="translate(460,252)" d="m0 0h10l6 3 3 3v2h2l3 5v6l-8 2-8 4-5 6-4 8-3 15-2 43-2 56-2 25-1 6v17l-4-4-2-6v-34l5-138 3-10 6-7z" fill="#9303EC"/>
<path transform="translate(433,651)" d="m0 0 16 2 156 27 1 3-8 13-4 3-1-8-28-5-15-3-8-1-7-2-25-5-24-4-7-2-23-4-12-2-5-1-8-2z" fill="#9305EB"/>
<path transform="translate(373,197)" d="m0 0h1v34l-4 191-2 79-14 10-5 2-1-5 1-17 2-5-2-1h2l2-6 2-9 2-3 4-10-2-1h2v-10l1-7 2-10v-15l1-10v-20l1-5v-31l1-23v-21l1-2v-14l-1-4 1-5v-15l1-3-1-5 1-7 1-5-1-4v-3l2-10-1-9 1-4v-3-5l1-5z" fill="#A165C6"/>
<path transform="translate(258,534)" d="m0 0 13 1 7 1 1 1v63l-4 11-11-1-9-2-1-1v-70z" fill="#E3DFE2"/>
<path transform="translate(0,322)" d="m0 0 9 9-3 9v27l2 4 8-20 7-20 2-1-1 5-3 10-1 7 2 6 4 2h2l2 2 6-2 1-6 7-7 2-1 1-4h2l1-4 3-3 2-4 3 1-2 10-10 25-8 21-6 8-7 4h-10l-6-4-4-5-2-6-2-38-1-10z" fill="#6A87A5"/>
<path transform="translate(617,672)" d="m0 0 4 1-8 7-8 10-5 10v11l3 1 6 7 1 4 1 1 5-1 18 6h7v-2l4 1 4-1 5 1 13-1 5-1 8-1 6-2 7-1 5-1h2l1-2 3-2v-3l3-1 9 5 3 5-3 3h-2l-1 2-7 3-8 2-5 1-8 2-5 1-7 2h-6l-7 1-14 1-5-1-17-3-14-5-8-5v-2h-2v-2h-2l-4-7-1-7 4-13 9-15 8-7z" fill="#5BD4BE"/>
<path transform="translate(425,558)" d="m0 0 7 2 8 6 1 4h2l2 5 1 7-1 25-1 12-6 11-2 5-4 22-3 5-2 1h-8l-5-3-2-4v-9l2-11-2-1h3l1-9 6-18 6-8 3-2 6 1 4 3 1-10v-11l-4-10-9-8-4-4z" fill="#B198D9"/>
<path transform="translate(206,126)" d="m0 0 86 8 106 10 10-1 16-4 6-7 5-2 8 1 5 4 2 4v8l-5 8-5 2-9-2-5-4-17-1-157-15-51-5-1 2v-4z" fill="#A14DFC"/>
<path transform="translate(80,298)" d="m0 0 3 1h4l5 4 3 4 5 20 1 7v9l-3 3-9 2h-14l-4-5-4-20h-2l-7 14-2-2 2-5-2-1 9-14 3-5h2l2-5 3-1 1-2z" fill="#A29DB6"/>
<path transform="translate(255,669)" d="m0 0 22 3 200 31 109 17 3 1v3l-12-1-101-16-69-11-87-5-5-3-3-4-1-3-35-6-17-3-4-2z" fill="#9411E7"/>
<path transform="translate(247,618)" d="m0 0 14 2 131 23 20 4v8l-3 1-27-5-7-1-13-3-8-1-7-2-18-3-21-4-12-2-9-2-8-1-3-1-17-3-10-1z" fill="#9206EA"/>
<path transform="translate(611,55)" d="m0 0h5l14 8 3 2v2l4 2 9 10 6 11 2 7 2 9 1 3-3 6-2 1-1 3-1-2-1-9-12-5-12-9-5-4-6-8-4-8-1-3v-12z" fill="#935DA8"/>
<path transform="translate(61,284)" d="m0 0h13l8 4 7 7 3 5-1 4-6-7-6-2-7 6h-2l-2 4-10 15-2 2v-3h-2l-2 4-3 4-6 7-4 2h-3l-4-4-1-7 1-6 9-17 1-4 9-9z" fill="#ADCBEB"/>
<path transform="translate(139,61)" d="m0 0 6 1 8 8 13 17 4 6 1 9-7 7-4 2h-6l-8-6-11-14-7-10-2-4 1-7 4-5z" fill="#5DD4BF"/>
<path transform="translate(672,748)" d="m0 0 5 5 3 7 1 7-9 19-3 1-2 5h-2v8l-6-2-8 1-7 3-7-2v-7l7-16 10-13 13-13z" fill="#55F5E7"/>
<path transform="translate(627,44)" d="m0 0 10 1 9 4 8 6 5 4 9 12 5 10 3 10-1 10-2-2 1 5h-2l-1 2-5-6-2-2v-3l-2-1-2-2h-3l-1-4-3-3v-2l-2-1-6-9-9-9-2-1v-2l-5-2-11-8-1-2 2-3z" fill="#AC58FB"/>
<path transform="translate(681,745)" d="m0 0 3 4 2 6 2 1 3 5-2 7-12 17-9 12-1 11-5 8-8 4-11-1-6-4-4-5-1-4v-7l3-10 6-11 11-14 10-11 5-7zm-9 3-8 6-12 12-9 13-6 14v7l7 2 9-3 6-1 6 2v-8h2l2-5 3-1 8-17 1-3-1-7-6-10z" fill="#5BD3BE"/>
<path transform="translate(385,490)" d="m0 0 4 5 9 11 12 9 12 6 14 4-4 1 1 5-1 4-10 3-1 1-16-1-21-3v-1l21 1-9-3-8-6-2-3-3-11v-8l1-7v-6z" fill="#AB53FB"/>
<path transform="translate(682,707)" d="m0 0h18l11 4 6 5 3 5-1 3-4-6-9-4h-2l1 4-4 1-2 4-5-1-7 2-6 1-7 2-10 1-13 1-4-1-3 1-4-4 1-6 7-1v-3l-2-1 5-2h6v-2z" fill="#5DF3E5"/>
<path transform="translate(665,3)" d="m0 0h9l11 4 10 7 9 9 8 13 2 10-1 6-4-1-2 1v-2l-5-1-4-5-1-2-5-1-5-8v-2h-2l-7-8-5-4v-2l-6-2-7-4-1-5z" fill="#AC59FA"/>
<path transform="translate(452,250)" d="m0 0h8l7 1v1l-7 1-7 6-3 7-1 5-5 138h-1l-2-17 1-5v-5-2l-1-2 2-7-2-1-1-6 1-5v-8l-1-9 1-7-2-7-2-1h2l1-6-1-5 1-2-1-1-2-5 1-5 2-1v-9-3l1-10-2-10-3-3 1-8 5-6z" fill="#9986D0"/>
<path transform="translate(224,474)" d="m0 0h7l3 4 1 6-1 2h-2v2l2 1-19 10-17 13-6 1-5-3-2-4v-5l7-8 8-6h3v-2l16-9z" fill="#F6E77E"/>
<path transform="translate(228,466)" d="m0 0h4l1 9h-9l-16 8-5 2v2l-7 4-8 7-2 3-1 5-13-1-10-2-2-12 18-7z" fill="#944602"/>
<path transform="translate(357,568)" d="m0 0 4 1 2 7 23 3 3 1-1 37-4 6-4 3-6 2h-10l3-2 9-3 6-7 3-6 1-6-13-3-8-1-3 2-1 4-3-1-1-2z" fill="#D05D03"/>
<path transform="translate(274,724)" d="m0 0h10l7 4 4 6 1 3v7l-4 8-5 4-10 2-8-3-5-6-2-5 1-10 5-7z" fill="#62B2AE"/>
<path transform="translate(867,276)" d="m0 0h7l8 4 5 8v10l-5 8-8 4h-7l-8-4-4-5-1-3v-10l5-8z" fill="#F1D74C"/>
<path transform="translate(373,197)" d="m0 0h1v34l-3 138-2 19v29l-1 2-1 14-2 17-2 4-2-3 1-14 2-8v-15l1-10v-20l1-5v-31l1-23v-21l1-2v-14l-1-4 1-5v-15l1-3-1-5 1-7 1-5-1-4v-3l2-10-1-9 1-4v-3-5l1-5z" fill="#9983CF"/>
<path transform="translate(439,255)" d="m0 0 2 1-4 5 2 1-3 3 3 1 1 4 2 12-1 8v3 7 3 3l-3 3 2 3-4-2-4 2-1 4-1 27v14l-1 30v12l-1 26v25l-3 3v-37l4-126 1-18 3-10z" fill="#AD96D6"/>
<path transform="translate(719,737)" d="m0 0 1 3-7 11-11 12-7 7-7 8-11 12-9 14h-1v-7l13-17 9-13-1-5 1-4-3-3-2-6-2-1v-4l23-3h6l2-1 4 1z" fill="#66B1AE"/>
<path transform="translate(778,439)" d="m0 0h8l19 5 5 4v7l-3 8-2 2h-8l-21-6-3-3v-7l3-8z" fill="#91B5D8"/>
<path transform="translate(710,184)" d="m0 0h2l-5 25-17 83-2 15-19 88-2 1-3-1 4-17 8-42 12-56 16-72z" fill="#950CEB"/>
<path transform="translate(578,236)" d="m0 0 9 3 3 3v7l-7 18-6 10-9-1-5-4-1-4 2-8 6-16 4-6z" fill="#F0D649"/>
<path transform="translate(658,8)" d="m0 0 4 2v2l5 2 6 3v2l4 2 8 8v2h2l4 7 2 2 4 1 3 3 1 8-4 6-2 13-1 2h-2l-1 3h-2l1-8v-9l-4-13-7-10-6-5-12-4-5-6v-10z" fill="#A265C6"/>
<path transform="translate(181,544)" d="m0 0 1 4-5 5-24 8-8 16-6 9-3 3-7-1-7-7-10-15-2-1-20-3-8-3-3-3v-4h2l3 3 5 1 21 1 5 2 12 18v2h2l4 4 4-1 7-14 5-12 9-4 14-2 7-3h2z" fill="#D6B22E"/>
<path transform="translate(435,130)" d="m0 0 8 1 5 4 2 4v8l-5 8-5 2-9-2-5-5-1-2-22-3v-1l21-5 6-7z" fill="#6C87A5"/>
<path transform="translate(510,199)" d="m0 0 7 1 10 6 9 8 9 13 5 11v3l-2 1-2 3-5-2-1-4 1 13-2-2-5-16-7-13-9-10-9-8-3-3z" fill="#AD9AD5"/>
<path transform="translate(279,250)" d="m0 0 7 1 6 4 2 4v3h7v1h-6l-2 8-5 5-3 1h-7l-6-4-3-4-1-9 4-6 4-3z" fill="#AC5AFA"/>
<path transform="translate(824,584)" d="m0 0 8 1 6 5 2 9-4 8-5 3h-9l-5-3-3-5v-9l4-6z" fill="#AE5DFA"/>
<path transform="translate(674,709)" d="m0 0 5 1 8-1 16 2 3 1v2h-2l1 4-4 1-2 4-5-1-7 2-6 1-7 2-10 1h-6l1-2 6-2 5-4h3v-2l-4-2v-3l-10 1-1-2 8-2z" fill="#53F4E6"/>
<path transform="translate(724,473)" d="m0 0h13l11 2 16 7 7 6 4 6 2 5 1 6v13h-1l-3-14-5-8-7-6-7-4-4-1-2-5-8-2h-11l-17 4-10 4-8 7-1-2 6-9 7-5 10-3z" fill="#A7A0B5"/>
<path transform="translate(681,573)" d="m0 0 5 1 5 5 8 12 7 10v6l-3 3h-6l-8-9-11-17-2-6z" fill="#EED347"/>
<path transform="translate(302,559)" d="m0 0 4 1 2 7 16 3 5-1 3-1 1 5v32l-2-2-3 5-1-2v-12l-3-6-6-7-11-9-6-6v-6z" fill="#A49AAD"/>
<path transform="translate(233,489)" d="m0 0 2 4 2 21-30-4-4-1 1-3 13-9z" fill="#934502"/>
<path transform="translate(675,116)" d="m0 0h1v8l-5 10-9 10-10 6h-2l-1 18h-2l1-17-14 3-20-2-10-5 1-4 8 3 11 2h10 3l4-2 6-2 4-2 5-3 6-3 2-3 3-3v-2h2l2-7 3-3z" fill="#9767AB"/>
<path transform="translate(613,126)" d="m0 0 18 2 11-2 2 2v5l-5 5-5 4-13 1-9-2-3-2 1-7z" fill="#B098D7"/>
<path transform="translate(311,680)" d="m0 0 22 3 55 9 14 2v1l-28-1-54-3-5-3-3-4z" fill="#F3C108"/>
<path transform="translate(150,487)" d="m0 0h6l3 3-5 1v2h-2l-2 5-10 13-1 2h-3l1-9h2l2-5 5-5v-2l-15 8-9 5-7 3-3-1-3-5-4-4-4-1-2-2h-5l1-3h10l15 5 2 1h6l14-8z" fill="#FAEB7A"/>
<path transform="translate(139,61)" d="m0 0 6 1 8 8 11 14-1 2 2 4v4h-4l-4-1-1-3-5-3-3-4v-2h-2v-2h-2v-2h-2v-2l-4-2-7-5-2-1 7-5z" fill="#91ECE3"/>
<path transform="translate(128,69)" d="m0 0 2 3 4 5v2h2l11 14 5 6 2 1v2l7 2 7-6 1-2h2v6l-7 7-4 2h-6l-8-6-11-14-7-10-2-4 1-7z" fill="#5EB2AD"/>
<path transform="translate(621,545)" d="m0 0h11l4 2-3 15-2 7-38-4-46-7v-1l15 1 26 4h8l5-1 13 2 7-1 2-7z" fill="#9419E1"/>
<path transform="translate(94,321)" d="m0 0 2 1h3l2 13-2 6-6 3-9 1-7-1-3-3v-5l2-3 2-2 4-2 4 1 1-4 3-1 2-2z" fill="#ADCAEA"/>
<path transform="translate(857,282)" d="m0 0 2 1v7l5 5 7 4 12-3 2-8h2v10l-5 8-8 4h-7l-8-4-4-5-1-3v-10z" fill="#D4B238"/>
<path transform="translate(633,412)" d="m0 0h7l4 4v27l-1 2h-6l-5-3-1-2v-17l1-10z" fill="#9304EC"/>
<path transform="translate(590,712)" d="m0 0h1l1 10 5 8 1 3 5 2 7 4 12 4 22 3h13l8-1 7-1v2l-8 2-31 2-18-2-11-4-9-7-5-9-1-9z" fill="#6C89A3"/>
<path transform="translate(452,250)" d="m0 0h8l7 1v1l-7 1-7 6-3 7-1 5-1 24h-1v-6l-2-1-1-4 1-3-2-1-1-6-2-4-3-2-1-5 2-5 4-5z" fill="#A268C5"/>
<path transform="translate(433,262)" d="m0 0 1 3-1 3v20l-2 7v21l-1 27v14l-1 30v12l-1 26v25l-3 3v-37l4-126 1-18z" fill="#A49DB3"/>
<path transform="translate(713,41)" d="m0 0 2 2 3 12v18l-4 13-6 9-14 8-2 2-1-4 7-5 2-1 6-7h2l1-6 4-6-3-4-3-2-1-8 5-1 1-4 1 4h3l-2-3-1-13z" fill="#9A89D0"/>
<path transform="translate(645,168)" d="m0 0 17 1 42 4 4 2-2 7-1-2-10-1-5-1-13-1-2-1-16-1-2-1-16-1-1-2 4-1z" fill="#A14CFD"/>
<path transform="translate(274,724)" d="m0 0h10l7 4 2 4-2 2-1 4-9 4-4 1v-2l-4-1-3-2v-3h-2v-5l-2 1 2-4z" fill="#91ECE3"/>
<path transform="translate(656,14)" d="m0 0 5 1 11 6v2l5 2v2l3 1 6 9 6 12 1 15-1 5h-1l-2-14-4-10-6-9-6-5-12-4-5-6z" fill="#935DA8"/>
<path transform="translate(435,629)" d="m0 0h1l-1 12-3 16-3 5-2 1h-8l-5-3-2-4v-9l2-11-2-1 3-1 2-3v13l2 7 2 4 2 1 5-10 3-3 3-13z" fill="#9F65C1"/>
<path transform="translate(407,67)" d="m0 0 4 1-6 4-13 4-8 16-3 2-5-1-7-8-4-6-17-3-4-3 1-4 1 2 6 1 14 1 4 4 8 12 3 1 7-14 3-5z" fill="#D6B22E"/>
<path transform="translate(812,275)" d="m0 0v3l-5 3-12 4-8 15-3 3h-5l-8-9-4-6-17-3-4-3 1-4 1 2 13 2 10 2 10 15 3-1 9-17 4-2 13-3z" fill="#D6B22E"/>
<path transform="translate(634,684)" d="m0 0 4 2 3 3v7l-11 14-3 3h-4l-4-5 1-4 5-2v-4l5-10 4-2z" fill="#60D5C0"/>
<path transform="translate(231,530)" d="m0 0 7 1 9 6 5 7 1 3v42l-4 6-2 1 1-5v-40l-5-10-8-6-5-2z" fill="#A49EB3"/>
<path transform="translate(774,446)" d="m0 0 4 4 11 4 13 3h5l1-5h1v7l-3 5-1 1h-8l-21-6-3-3v-7z" fill="#6C89A5"/>
<path transform="translate(274,252)" d="m0 0 2 1-4 4 1 7 5 2 4 1 8-2 3-6 1 3h7v1h-6l-2 8-5 5-3 1h-7l-6-4-3-4-1-9 4-6z" fill="#945CAD"/>
<path transform="translate(233,481)" d="m0 0h2l-1 5h-2v2l2 1-19 10-17 13-6 1-5-3-2-4v-5l2 4 2 1h6l11-7 16-10 10-7z" fill="#D2B038"/>
<path transform="translate(275,536)" d="m0 0 4 1v63l-3 8h-1l-1-70z" fill="#A39DB2"/>
<path transform="translate(623,609)" d="m0 0 12 2v1l-7 1-1 4-3 49-2 4-4 1 3-37v-10z" fill="#9A4803"/>
<path transform="translate(658,392)" d="m0 0 9 3 10 9 4 9 1 4v20l-2 6h-1l-1-19-3-10-4-6-1-3-4-2-9-5 1-2-1-1z" fill="#A6A0B4"/>
<path transform="translate(435,130)" d="m0 0 8 1 5 4 1 4-2 5-10 3-8-5-3-5 4-5z" fill="#90B5D8"/>
<path transform="translate(575,585)" d="m0 0h2v22l-2 46-1 7-2 2h-4l2-9 4-61z" fill="#994702"/>
<path transform="translate(756,240)" d="m0 0h8l9 3h7l-1 3-3 3 1 3 4-2v-2h3l2-4 4-3h2l-2 5-11 14h-2l-1-3-6-1-6-9-5-5z" fill="#FAEC7B"/>
<path transform="translate(268,729)" d="m0 0 1 2-1 4h2l1 3 7 3 5-1 7-3 1-5h3l1 5-5 8-7 4h-8l-7-4-3-5v-9z" fill="#5DD4BE"/>
<path transform="translate(222,548)" d="m0 0 5 1 2 3v32l-6 2-1-10z" fill="#A18E9C"/>
<path transform="translate(635,77)" d="m0 0 4 2 6 7 5 11v6l-12-6-5-5-1-5 1-4z" fill="#B097D8"/>
<path transform="translate(450,150)" d="m0 0h10l32 3 6 1v2h10l10 2-1 2-26-2-41-4-2-2z" fill="#A24DFC"/>
<path transform="translate(571,243)" d="m0 0 1 2-6 18 1 7 1 2 7-1 2-4 7-16 5-8h1l-1 9-6 15-6 10-9-1-5-4-1-4 2-8 6-16z" fill="#D7B32D"/>
<path transform="translate(816,589)" d="m0 0h1l2 7 4 4h3l3 2 8-4 1-5h1l1 6-4 8-5 3h-9l-5-3-3-5v-9z" fill="#9460AA"/>
<path transform="translate(679,574)" d="m0 0v3l4 8 8 10 3 3 7 2 4-1 1 2v6l-3 3h-6l-8-9-11-17-2-6z" fill="#D3B237"/>
<path transform="translate(507,576)" d="m0 0h1l-2 57-5 10-8 4-4 1h-10l1-2 10-2 6-4 6-10 1-4 3-49z" fill="#944602"/>
<path transform="translate(631,412)" d="m0 0 2 1-1 10v17l3 3 8 2-4 4-9 1-4-4v-15l2-15z" fill="#A593BE"/>
<path transform="translate(645,123)" d="m0 0 2 3 2 7-2 1 1 4h-2v2l-6 4-6 2h-14l-10-2-3-3 1-5 4 4 9 2h7l9-3 3-3h2l1-8v-3z" fill="#988ACF"/>
<path transform="translate(719,737)" d="m0 0 1 3-7 11-11 12-7 6v-3l8-7 4-6v-4l-3-2-9-1h-13v-2l23-3h6l2-1 4 1z" fill="#A7A1B0"/>
<path transform="translate(150,487)" d="m0 0h6l3 3-5 1v2h-2l-2 5-10 13-1 2h-3l1-9h2l2-5 5-5v-2l-12 6h-3v-2l16-8z" fill="#FAEB77"/>
<path transform="translate(425,558)" d="m0 0 7 2 8 6 1 4h2l2 5 1 7-1 25-1 12-2 4-2-4 2-8v-30l-4-10-9-8-4-4z" fill="#A49EB3"/>
<path transform="translate(414,577)" d="m0 0h4l2 3-1 33-1 2-4-1-1-2z" fill="#CC6206"/>
<path transform="translate(331,568)" d="m0 0h1l1 5v10l-1 10-2-4-4-6-7-6-5-5-2-3h7l9 1z" fill="#CE5F04"/>
<path transform="translate(232,478)" d="m0 0h2l-1 4-5 4-16 10-15 10-2 1h-6l-3-2 1-7 5-5 2 1-5 6 5 1 5-1 9-6 13-8 6-2 1-2z" fill="#EFD54A"/>
<path transform="translate(648,469)" d="m0 0h4l-2 18-1 5-6 6h-2l2-14-1-12h-8v-1l13-1z" fill="#940FE0"/>
<path transform="translate(228,466)" d="m0 0h4v2l-28 10-40 15-3 1-1-3 18-7z" fill="#CB6114"/>
<path transform="translate(126,75)" d="m0 0 5 5 10 13 6 7v2l3 1v2l6 1 9-2 4-2 1-2-1 4-7 6-2 1h-6l-8-6-11-14-7-10z" fill="#718CA5"/>
<path transform="translate(445,582)" d="m0 0h2v43l-4 6-6 5h-1v-5l6-9 1-3 1-12z" fill="#9A4802"/>
<path transform="translate(94,321)" d="m0 0 2 1h3l2 13-2 6-6 3h-5l3-2 4-2 1-3-3-4h-4l-2 2-2-1 1-8 4-1 2-2z" fill="#92B2D5"/>
<path transform="translate(716,65)" d="m0 0h1v12l-5 13-5 6-4 2-9 5-2 2-1-4 7-5 2-1 6-7h2l1-6 4-6z" fill="#A26BC2"/>
<path transform="translate(473,565)" d="m0 0 2 1v18l-1 25v14l3 3-5 2-2-5 2-56z" fill="#A49EB3"/>
<path transform="translate(682,707)" d="m0 0h18l11 4 6 5 3 5-1 3-4-6-12-6-16-2-9 1-4-1-8 1h-9v-1z" fill="#A6EAE4"/>
<path transform="translate(686,94)" d="m0 0v3l-2 6 6-1 3 1 10-6 2-2v3l-8 7-12 5-7 1v-11z" fill="#AA98BD"/>
<path transform="translate(669,712)" d="m0 0 2 2h-2l1 2 5 1-2 1v2l-6 3-3 3-5 1-2 2h-4v-6l4-1v-2h2l1-2 5-2-3-3z" fill="#96EEE6"/>
<path transform="translate(253,548)" d="m0 0h1v50l-6 5-7 2h-8v-2l9-3 8-7 2-4z" fill="#9B4802"/>
<path transform="translate(501,569)" d="m0 0 5 1 1 2-3 54-2 6h-1v-11l2-38v-12z" fill="#A49EB3"/>
<path transform="translate(282,570)" d="m0 0 4 5 12 12v1l-13-1-4 2v-18z" fill="#D06105"/>
<path transform="translate(312,541)" d="m0 0 7 2 8 6 5 10 1 14-2-4-3 1-1-10-5-9-9-6v-2l-2-1z" fill="#A49EB3"/>
<path transform="translate(633,795)" d="m0 0h1l1 11 1 3 9 6 10 1 6-3 6-9-1 6-4 6-8 4-11-1-6-4-4-5-1-4v-7z" fill="#6FACAE"/>
<path transform="translate(667,746)" d="m0 0h6l-2 4-6 4-12 12-9 13-5 11-5 4 1-5 6-11 11-14 10-11z" fill="#7DC9C9"/>
<path transform="translate(681,573)" d="m0 0 5 1 5 5 4 9 1 4-8-3-8-11z" fill="#F7E87C"/>
<path transform="translate(638,691)" d="m0 0h3l-1 7-8 9-5 6h-4l1-5 10-14z" fill="#6BA9AD"/>
<path transform="translate(356,568)" d="m0 0 2 2v33l3 4-4 2-3-2v-35z" fill="#A39CB2"/>
<path transform="translate(867,276)" d="m0 0h7l8 4v3l-2 1-5 2-3 4h-2l-1-6-4-1-4 2 2-4 6-3z" fill="#F8EC87"/>
<path transform="translate(570,579)" d="m0 0 5 1v12l-4 61-2 4v-13l3-47v-16z" fill="#A49EB3"/>
<path transform="translate(262,738)" d="m0 0h1l3 10 5 4 6 1 7-2 5-1 4-4 2-3-1 6-5 6-4 2-8 1-8-3-5-6-2-5z" fill="#748EA8"/>
<path transform="translate(279,563)" d="m0 0 2 3 1 5-1 27 1 3v9l-2 2-5-1 2-9 1-2z" fill="#A34B02"/>
<path transform="translate(412,577)" d="m0 0h2v35l1 2 3 1 1-2v3l-4 2-4-1-1-7 1-31z" fill="#A39DB3"/>
<path transform="translate(723,511)" d="m0 0h1l1 15 4 3h11l-1 3-6 4-7 1-4-4v-12z" fill="#A49EB3"/>
<path transform="translate(274,252)" d="m0 0 2 1-4 4 1 7 5 2 4 1 8-2 3-6 1 3h7v1h-6l-1 6-2-2-5 2-1 2h-7l-6-3-5-8 4-6z" fill="#A36AC8"/>
<path transform="translate(367,549)" d="m0 0 8 3 7 6 4 6 1 3v9l-3 2-2-11-5-8-11-8z" fill="#A49EB3"/>
<path transform="translate(719,732)" d="m0 0h2v5l-2 1-2 4-5-1-2 1-14 1-14 2-1 1h-8v-2l19-3 16-3 6-1z" fill="#6E8DA4"/>
<path transform="translate(633,76)" d="m0 0 3 1-2 7-1 3 1 5 1 3 5 2 9 5 2-2v5l-7-2-10-7-6-7-1-5 3-5 3-1z" fill="#A165C4"/>
<path transform="translate(536,574)" d="m0 0 4 2 7 29v9l-2-1-8-34z" fill="#A49EB3"/>
<path transform="translate(386,608)" d="m0 0 2 3v6l-4 6-4 3-6 2h-10l3-2 9-3 6-7z" fill="#944602"/>
<path transform="translate(689,745)" d="m0 0 15 1 5 4-4 8-5 4 2-5 1-5-4-2-1 2-8-4z" fill="#6587A3"/>
<path transform="translate(639,713)" d="m0 0 5 2h4v3l-5 2-2-1v6l1 4-5 1h-3l-1-4h-2l1-2 4 2-3-3 1-3 5-3z" fill="#6FEBDD"/>
<path transform="translate(794,236)" d="m0 0 4 1v2l-4 2-2 2v-2l-7 5-1 2h-3v2l-4 3-2-5 5-5 8-5z" fill="#F2D950"/>
<path transform="translate(255,669)" d="m0 0 22 3 26 4 1 3-22-3-23-4-4-2z" fill="#971AE6"/>
<path transform="translate(816,589)" d="m0 0h1l2 7 4 4h3l3 2 8-4 1-5h1l1 6-2 3-7 4-8-1-7-6-2-6z" fill="#A266C6"/>
<path transform="translate(331,599)" d="m0 0h1l1 12-5 5-8 3h-7l1-2 9-4 6-8z" fill="#974702"/>
<path transform="translate(354,31)" d="m0 0h8l9 3h6l3-1v2l-8 4-3 4-4-2-1-4h-2l-3-3-5-2z" fill="#F9EC80"/>
<path transform="translate(534,627)" d="m0 0h1l2 9v14l-2 5-5 1 2-7 1-19z" fill="#9C4902"/>
<path transform="translate(536,480)" d="m0 0 2 2-6 10-11 12-5 4 10-20 2-3v6h2l1-3h2l1-6h2z" fill="#A487C5"/>
<path transform="translate(631,412)" d="m0 0 2 1-2 14-1 14-1-3-3 1 1-19 3-7z" fill="#A597BB"/>
<path transform="translate(812,275)" d="m0 0v3l-5 3-12 4-5 9-2-1 3-9 5-5 14-3z" fill="#D3B135"/>
<path transform="translate(537,378)" d="m0 0h1v25l-1 16-2 13h-1v-12l2-38z" fill="#A99BC4"/>
<path transform="translate(689,447)" d="m0 0v3l-12 14-16 17-4 2 3-5 9-9 7-8z" fill="#A6A0B4"/>
<path transform="translate(784,443)" d="m0 0 11 2 8 3-1 4-9-1-10-4z" fill="#A9CFEC"/>
<path transform="translate(339,691)" d="m0 0h44l19 3v1l-28-1-35-2z" fill="#D7AB27"/>
<path transform="translate(407,67)" d="m0 0 4 1-6 4-13 4-3 4-1-4 3-5z" fill="#D0B03E"/>
<path transform="translate(357,568)" d="m0 0 4 1-2 35-2-1z" fill="#A64C02"/>
<path transform="translate(45,364)" d="m0 0 1 3-8 21-6 8-4 1v-4h2l2-4 5-9 3-3z" fill="#AC93C0"/>
<path transform="translate(151,491)" d="m0 0h2l-2 6-11 14-1 2h-3l2-6 9-12z" fill="#F5F4F4"/>
<path transform="translate(420,140)" d="m0 0h5v7l-17-1-5-1v-1z" fill="#F2C40F"/>
<path transform="translate(699,53)" d="m0 0 3 4 1 9-3 4v-2l-4 3-1-3 1-10z" fill="#9B8AD0"/>
<path transform="translate(81,329)" d="m0 0 4 1-1 4-4 4 1 4 3 3-7-1-3-3v-5l2-3 2-2z" fill="#8EB2D6"/>
<path transform="translate(228,466)" d="m0 0h4v2l-28 10-5 2-3-1 5-3z" fill="#CB6112"/>
<path transform="translate(713,41)" d="m0 0 2 2 3 12v18h-1l-1-8-1-2-3-1-1-5 2 1v3h3l-2-3-1-13z" fill="#A880C9"/>
<path transform="translate(617,672)" d="m0 0 4 1-8 7-8 10-5 3 2-5 4-7 8-7z" fill="#5EC6BA"/>
<path transform="translate(390,31)" d="m0 0 1 2-9 14-2 5h-3l1-6 6-10z" fill="#F6F4F5"/>
<path transform="translate(641,430)" d="m0 0h2l1 2v11l-2 2-5-5v-5z" fill="#AC55FD"/>
<path transform="translate(498,154)" d="m0 0 36 3-3 3-13-1-13-2-7-1z" fill="#AB58F7"/>
<path transform="translate(373,197)" d="m0 0h1v34h-1l-1-9h-2v-7l1-4v-5l1-5z" fill="#A075D4"/>
<path transform="translate(74,316)" d="m0 0 3 1 1 4-5 4-2 10-2-3-1-7 2-5z" fill="#A26AC3"/>
<path transform="translate(507,576)" d="m0 0h1l-1 32-2 6h-1l1-25 1-12z" fill="#9D4902"/>
<path transform="translate(92,497)" d="m0 0h1l3 19 2 10-2 3h-2v-7l-2-9-1-11z" fill="#D5B231"/>
<path transform="translate(790,241)" d="m0 0h2l-2 5-11 14h-2l2-6 7-10z" fill="#F4F3F3"/>
<path transform="translate(686,94)" d="m0 0v3l-2 6 2 1-1 4h-3l-1-1-1 2h-2v-9z" fill="#A496B7"/>
<path transform="translate(279,563)" d="m0 0 2 3 1 5-1 28h-2z" fill="#964803"/>
<path transform="translate(365,430)" d="m0 0 2 1-2 19-2 4-2-3 1-14 2-6z" fill="#9889CF"/>
<path transform="translate(444,358)" d="m0 0h1v24l-1 27h-1l-2-17 1-5v-5l1-1z" fill="#A06ED3"/>
<path transform="translate(667,746)" d="m0 0h6l-2 4-6 4-8 8h-2l2-4 9-10z" fill="#76CBC4"/>
<path transform="translate(703,709)" d="m0 0 6 1 8 6 3 5-1 3-4-6-13-7z" fill="#A4EBE4"/>
<path transform="translate(418,633)" d="m0 0h1l2 8-1 2 2 1h2l1 4-4 4-4-2v-5h2l-1-3z" fill="#AE74EC"/>
<path transform="translate(645,593)" d="m0 0 2 3v10l-2 6h-3l2-18z" fill="#974702"/>
<path transform="translate(763,244)" d="m0 0 9 3 3 3-1 4-5-1-6-7z" fill="#EFEDEE"/>
<path transform="translate(710,184)" d="m0 0h2l-6 30h-2l1-10z" fill="#9303ED"/>
<path transform="translate(671,744)" d="m0 0 1 2-8 2-10 1h-10l-1-2 7-1h7l8-1z" fill="#7991AA"/>
<path transform="translate(532,620)" d="m0 0 2 1 1 6-1 3-1 19-2 2v-16z" fill="#A089B6"/>
<path transform="translate(376,601)" d="m0 0 10 2 1 2-3 9-2 2 1-11-8-1z" fill="#A7A1B5"/>
<path transform="translate(507,608)" d="m0 0 2 1-1 24h-2v-24z" fill="#D16808"/>
<path transform="translate(414,577)" d="m0 0h4l-1 4-2 23h-1z" fill="#9A4802"/>
<path transform="translate(61,321)" d="m0 0 3 2-2 6-4 8-2-2 2-5-2-1z" fill="#9A91B7"/>
<path transform="translate(648,59)" d="m0 0 6 4 3 10-1 4-3-5v-3h-2z" fill="#C7B6DE"/>
<path transform="translate(689,18)" d="m0 0 5 3 2 3 2 11h-2l-2-7h-2z" fill="#C7B7DE"/>
<path transform="translate(41,300)" d="m0 0 1 2-9 17-4 2 2-6 9-14z" fill="#99B6D6"/>
<path transform="translate(610,128)" d="m0 0 2 1-4 10 2 4v3l-5-2-1-3 4-10z" fill="#A174C3"/>
<path transform="translate(100,335)" d="m0 0h1v8l-3 3-6 1-4-2 11-5z" fill="#A7A0B2"/>
<path transform="translate(794,236)" d="m0 0 4 1v2l-4 2-2 2v-2l-4 3-2-1-1-1-1-2z" fill="#FAEB7C"/>
<path transform="translate(48,310)" d="m0 0 2 2-8 16-2 2 1-6 3-7z" fill="#ECE9EA"/>
<path transform="translate(519,158)" d="m0 0 17 1 8 3-2 1-10-1-14-2z" fill="#A049FF"/>
<path transform="translate(696,740)" d="m0 0m-4 1h4v2l-14 2-1 1h-8v-2z" fill="#718BA6"/>
<path transform="translate(299,590)" d="m0 0 5 2 3 3v4l-4 1-2-2v-6h-2z" fill="#A69AAA"/>
<path transform="translate(754,243)" d="m0 0h1l4 16-1 4-2 1-2-11z" fill="#D7B32D"/>
<path transform="translate(578,236)" d="m0 0 9 3v3h-4l-3 2-1-4-4 1 2-4z" fill="#F9EA7C"/>
<path transform="translate(631,440)" d="m0 0 6 4 6 1-4 4-5-1-3-5z" fill="#A88FCC"/>
<path transform="translate(36,387)" d="m0 0 1 2-4 6-2 2h-3v-4h2l2-4z" fill="#A78FB7"/>
<path transform="translate(72,342)" d="m0 0 5 3 15 1-3 2h-14l-3-3z" fill="#9C7ABD"/>
<path transform="translate(79,304)" d="m0 0h5l3 6-3 1-5-3h-4v-2z" fill="#A265C5"/>
<path transform="translate(392,27)" d="m0 0 4 1v2l-3 1-2 2-5-1-3 1-1-2z" fill="#FAEB79"/>
<path transform="translate(668,767)" d="m0 0 4 1-10 9-2-4h2v-2z" fill="#A2ECE5"/>
<path transform="translate(639,713)" d="m0 0 5 2h4v3l-5 2-5-1z" fill="#79F1E5"/>
<path transform="translate(160,492)" d="m0 0h1l1 18-1 9-2-3z" fill="#D7B32D"/>
<path transform="translate(212,472)" d="m0 0m-3 1h3v2l-13 5-3-1 5-3z" fill="#CD5E0B"/>
<path transform="translate(55,331)" d="m0 0 3 1-2 10-1-4-3-1zm-5 7 4 1-2 1z" fill="#7F8FAC"/>
<path transform="translate(232,466)" d="m0 0 1 4 3 1v8l-2 2-2-7z" fill="#9F5BE3"/>
<path transform="translate(617,672)" d="m0 0 4 1-5 3-7 6-3 4-2-1 2-4 8-7z" fill="#81A5B5"/>
<path transform="translate(21,318)" d="m0 0 2 2-8 6h-3l2-6z" fill="#ACCBEB"/>
<path transform="translate(666,804)" d="m0 0 1 4-5 8-5 3h-2l1-3 6-4z" fill="#7EB6B8"/>
<path transform="translate(689,447)" d="m0 0v3l-7 8-2-1 7-8z" fill="#A7A2B5"/>
<path transform="translate(658,392)" d="m0 0 6 2-1 4-4 1-2-1 1-2-1-1z" fill="#B1AEC5"/>
<path transform="translate(352,35)" d="m0 0h1l3 12v7l-2 1-2-11z" fill="#D2B138"/>
<path transform="translate(536,480)" d="m0 0 2 2-6 10-3 2v-3l2-3h2l1-6h2z" fill="#A265C8"/>
<path transform="translate(784,446)" d="m0 0 16 4 1 2-8-1-9-4z" fill="#EEEBEC"/>
<path transform="translate(648,711)" d="m0 0h9l-3 2-7 1-3 3-3-4z" fill="#92EBE3"/>
<path transform="translate(255,669)" d="m0 0 15 2 2 2h-9l-8-3z" fill="#9614E9"/>
<path transform="translate(169,96)" d="m0 0h2v6l-10 4 6-7z" fill="#6EB4B2"/>
<path transform="translate(707,738)" d="m0 0 3 1v2l-13 2-1-2z" fill="#6687A3"/>
<path transform="translate(614,132)" d="m0 0 6 1-1 4h-5l-1-4z" fill="#EBE8EA"/>
<path transform="translate(688,105)" d="m0 0m-2-1 2 2v3l-10 2v-2l2-2h3 2z" fill="#ACA5B4"/>
<path transform="translate(669,470)" d="m0 0v3l-10 10-2-1 4-5z" fill="#ADA7BB"/>
<path transform="translate(655,746)" d="m0 0m-10 0h9v3h-10l-1-2z" fill="#7E93A6"/>
<path transform="translate(666,710)" d="m0 0h5l-2 3-10 1-1-2z" fill="#54F3E4"/>
<path transform="translate(348,488)" d="m0 0 3 1-1 6-1 13h-1z" fill="#B198D9"/>
<path transform="translate(77,286)" d="m0 0 5 2 7 7-2 2-2-4h-2v-2l-3-1z" fill="#E2DCE3"/>
<path transform="translate(373,197)" d="m0 0h1v12l-2 3-1-5 1-7zm-3 15 2 1z" fill="#988AD0"/>
<path transform="translate(640,783)" d="m0 0 1 2-2 5-5 4 1-5 2-4z" fill="#70C4BE"/>
<path transform="translate(365,599)" d="m0 0 8 1-1 3-6-1-5 2 1-3z" fill="#BAB4C3"/>
<path transform="translate(681,101)" d="m0 0 1 2 4 1-1 4h-3v-2l-3-1 1-3z" fill="#A886C7"/>
<path transform="translate(635,77)" d="m0 0 3 1v8h-3l-1-6z" fill="#988AD0"/>
</svg>
