<?xml version="1.0" encoding="UTF-8"?>
<svg version="1.1" viewBox="0 0 1600 1066" width="1280" height="1280" xmlns="http://www.w3.org/2000/svg">
<path transform="translate(591,74)" d="m0 0h40l21 2 31 6 22 7 27 11 29 14 6 4 12 6 10 6 11 6 22 11 23 9 14 3h30l18-4 15-4 29-6 37-6 26-3 10-1 22-1h58l44 4 25 5 23 6 20 7 20 8 15 8 11 8 11 6 5 4v2l4 2 23 23 9 14 5 7 8 16 8 20 5 18 4 27 1 13v26l-2 20-1 17-4 20-3 31-2 15-1 15v58l4 40 8 35 10 32 8 18 10 23 22 44 13 28 9 27 6 27 1 12v20l-1 17-5 28-6 22-4 13-9 25-11 26-5 10-3 2-2 5-5 3-10 1h-21l-22-2h-41l-12 1h-59l-20 1h-23l-46-2-13-3-6 3h-12l-13-1-281 1-17 1-7 1h-491l-10-2-16-9-12-11-11-11-9-11-10-13-11-15-7-11-10-16-13-25-5-11-10-30-5-20-2-19v-32l2-20 5-20 8-19 8-16 11-19 10-13 1-2h2l2-5 14-15 9-10 14-18 8-10 13-22 12-22 9-22 6-15 7-22 9-37 7-42 3-23 3-24 4-28 3-25 4-20 5-22 8-27 10-25 10-18 13-18 8-10h2l2-4 4-5 11-9 8-7 11-8 12-8 19-10 19-9 20-8 30-10 22-6 24-5z" fill="#EAF3F9"/>
<path transform="translate(697,349)" d="m0 0 4 2 12 13 15 14 11 9 6 5 4 4 2 8 6 1v1h-7l2 5 23-1 9-2 4-4h-11l-13-7-5-4-3-9-1-2h113l8-2 5-3 5-6 3-9 1-6h144v589l-267 1-10-1v-4l90-1-1-5h-107l-1 5 8 1v4l-12 1-9 4-5 6-3 8-1 6h-117v-233l7 1 16 3h18l18-4 16-7 12-9 10-10 9-15 5-12 3-13v-24l-4-16-4-10-8-13-11-12-14-10-12-5-15-4-8-1h-13l-25 5v-225h69l-5 37v6l1 4-4 9-11 6v5l5 5 9 10 5 5 4 3 5 1-3-6v-2l-4-2v-3-14l5-17h3l3-11 13-35z" fill="#EAF3F9"/>
<path transform="translate(651,240)" d="m0 0h66l-1 5-17 43 2 4 7 8 13 20 10 16v2h322l1 1v606h42l17 8 19 12 1 3-7 5-11 6-5 2-1 3 7 3 46 1 2-4 17-6 6-5 2-5-4-2-3-3-3-17-3-23-4-26-4-33-1-3-1-12-1-3-2-20-3-24-2-12v-29l3-10 2-9 4-13 1-16-2-5v-3l-10 7-7 3h-11l-14-7-11-10-3-7-2-1-16-2-4-3 1-1 11-1v-2l-2-1 9 1 4 3 19 4h10l10-19v-3l-5-6-1-7 3-8 12-18 3-10 1-22 4-12 7-10 8-5 15-2 9 1 7 4 7 8 9 15 7 15 6 18 2 11v9l-1 3 13 29 7 18v7l-6 8-2 1 4 5-1 5-5 5-12 11-4 4 4 9 2 16 3 58 2 22 7 27 3 9 5 24 2 18 1 22 3 7 5 7v6l-4 6-4 5-3 8 32 1 1-5 4-3h11l2-18 4-17 4-10 5-6 2-1h8l4 3 1 4-4 9-10 16-9 22h4l6-15 7-10 6-5 9 1 3 3-1 7-9 8-12 8-4 4 15 1 6 2v2h27v2l-13 2h-21l-22-2h-41l-12 1h-59l-20 1h-23l-46-2-13-3-6 3h-12l-13-1-281 1-17 1-7 1h-49l-51-1h-307l-29-1h-61v-2h123l-2-12h20l6 5 11 4 4 2 9 1-2-11 20-1 6 5 11 4 4 2 97 1-1-264-3-2-17 16-6 5-11-1 2-7 12-11 6-5 5-5-2-4-8-14-5-12-3-12v-27l4-16 7-14 10-13 8-8h2v-255h91l-3 16h-68v226l13-4 12-2h13l17 3 16 6 12 8 12 11 8 11 7 13 4 14 1 6v24l-4 16-8 16-7 10-11 11-14 9-15 6-15 3h-18l-16-3-7-2v233h117l1-9 4-8 7-6 6-2h12v-4h-8l-1-5 2-2h107l2 2-1 5h-90v4h277v-589h-144l-1 9-3 8-7 7-5 2-6 1h-112l3 5 1 5 11 7 7 3h7l3 1-2 4-5 2-20 2h-9l-2-2 1-5-3-9-3-3-11-9-15-14-8-7-7-7-5-6h-2l-6 18-11 30-2 5h-3l-4 17v14l1 4 4 4 1 5-7-1-7-6-7-9-6-5-2-3v-5l6-4 6-3 3-8-1-10 4-30 7-33 1-4-19 8-9 3-6 1h-51l-4-2-3-10v-16l3-16 2-4 3-1 20-1h21l10-25 9-22z" fill="#8B9EF2"/>
<path transform="translate(1053,338)" d="m0 0h2v36l26-10 24-7 6-1h12l-2 5-8 14-8 16-8 17-3 9-1 7 8-3 12-12 4-6h2l2-5 9-11 12-17 12-18 10-2h27l16 3 12 5 10 9 5 8 4 15 1 7v13l-3 14-5 10-5 6-7 4-6 1-46 3-19 3-2 1 1 4 8 5 15 5 18 3h19l7-1-1 5-8 16-10 16-11 12-8 8-12 6-4 1h-11l-14-3-15-6-21-13-11-4h-26l-6 2v6l13 3 24 3 14 3 10 4 10 8 10 9 4 5v6l-4 4-12 4-19 3h-32l-19-3 1 155 11-3h8l9 2 17 8 12 8 10 9v3l-28 6-21 7-6 4-1 5 2 1h8l17-4 26-9 12-5 4 2 9 9 7 8 4 4 1-8h1l1 25 2 12 3 24 2 20 1 3 1 12 1 3 4 33 9 63 3 5 4 3-1 5-7 6-17 6-2 3h-46l-8-3 2-4 13-8 7-4 3-1-4-4-20-12-13-6-42-1z" fill="#D2DFFD"/>
<path transform="translate(579,339)" d="m0 0h91l-3 16h-68v226l13-4 12-2h13l17 3 16 6 12 8 12 11 8 11 7 13 4 14 1 6v24l-4 16-8 16-7 10-11 11-14 9-15 6-15 3h-18l-16-3-7-2v233h117l1-9 4-8 7-6 6-2h12v-4h-8l-1-5 2-2h107l2 2-1 5h-90v4h10l-5 4-4 7v21l3 6 6 4 8 1v2l-6 2h-49l-51-1h-307l-29-1h-61v-2h123l-2-12h20l6 5 11 4 4 2 9 1-2-11 20-1 6 5 11 4 4 2 97 1-1-264-3-2-17 16-6 5-11-1 2-7 12-11 6-5 5-5-2-4-8-14-5-12-3-12v-27l4-16 7-14 10-13 8-8h2z" fill="#7499EF"/>
<path transform="translate(435,620)" d="m0 0 10 3 13 5v2l4 2 4 8 3 10 19 13 13 6 3 1h10l12-3 13-4 3 1 2 5v4h-2l-2 4-8 8-9 6-8 2h-17l-17-4-8-3 2 12 4 9 12 7 18 13 17 12 4 4-1 8 12 2-6 7-10 9-7 7-8 7-17 16-7 7-8 7-5 6-7 5-5-2-2-2v-6l15-15v-22l-8 4-13 3h-27l-16-4-5-2v58l-1 11-12 9-22 18-16 13-9 5-3 1h-13l-12-3-16-8-13-12-10-11-12-20-5-13-1-7v-10l4-16 7-14 9-12 11-12 11-11 13-10 9-6 9 1 30 7 22 5 15 3 1-18 4-32 4-25 6-21 5-11h2v-3l5-5 3-1z" fill="#D9E6FB"/>
<path transform="translate(534,682)" d="m0 0 20 20 2 1v2l5 2 1-2 5 7-2 4-3 1-2 4-10 9-6 5-3 7h11l8-7 7-7 8-7 4 3v264h-97l-8-3-10-5-3-3-4-2 3-1v-27l3-39 7-57 3-34 11-11 8-7 10-10 8-7 17-16 13-12-11-3v-10l-4-2-40-28-7-4-5-12v-9l5 1 14 4 6 1h17l9-3 9-6z" fill="#D9E6FB"/>
<path transform="translate(1067,715)" d="m0 0h8l9 2 17 8 12 8 10 9v3l-28 6-21 7-6 4-1 5 2 1h8l17-4 26-9 12-5 4 2 9 9 7 8 4 4 1-8h1l1 25 2 12 3 24 2 20 1 3 1 12 1 3 4 33 9 63 3 5 4 3-1 5-7 6-17 6-2 3h-46l-8-3 2-4 13-8 7-4 3-1-4-4-20-12-13-6-42-1v-227z" fill="#B6CAFC"/>
<path transform="translate(651,240)" d="m0 0h66l-1 5-17 43 2 4 7 8 13 20 11 18 157 1v26l-3 8-7 7-5 2-6 1h-112l3 5 1 5 11 7 7 3h7l3 1-2 4-5 2-20 2h-9l-2-2 1-5-3-9-3-3-11-9-15-14-8-7-7-7-5-6h-2l-6 18-11 30-2 5h-3l-4 17v14l1 4 4 4 1 5-7-1-7-6-7-9-6-5-2-3v-5l6-4 6-3 3-8-1-10 4-30 7-33 1-4-19 8-9 3-6 1h-51l-4-2-3-10v-16l3-16 2-4 3-1 20-1h21l10-25 9-22z" fill="#F89849"/>
<path transform="translate(618,582)" d="m0 0h26l12 3 16 8 9 7 5 4 6 7v2h2l8 14 5 16 1 6v19l-3 14-4 9-6 11-9 11-4 4h-2v2l-13 8-9 4-13 4-7 1h-14l-16-3-16-7-12-9-9-9-10-15-5-14-2-9v-23l4-15 8-16 8-10 7-7 14-9 11-5z" fill="#D8E5FB"/>
<path transform="translate(578,339)" d="m0 0h1v255h-1v-33l-11 2h-28l-17-3-8-3-3-3 1-5 6-7 13-10 10-4 18-3 19-2v-9h-23l-11 4-15 9-11 5-11 3h-12l-10-4-10-9-8-9-11-18-4-9v-2h25l17-4 13-6 1-3-7-3-15-2-35-2-8-3-6-7-4-9-1-4v-21l3-12 5-8 7-6 12-5 11-2h21l8 1 8 11 11 16 11 14 12 14 6 4h3l-1-9-9-20-13-24-1-2h9l14 3 26 9 2 1z" fill="#B6CAFC"/>
<path transform="translate(435,620)" d="m0 0 10 3 13 5v2l4 2 4 8 3 10 19 13 13 6 3 1h10l12-3 13-4 3 1 2 5v4h-2l-2 4-8 8-9 6-8 2h-17l-17-4-8-3 2 12 4 9 12 7 18 13 17 12 4 4-1 8 12 2-6 7-10 9-7 7-8 7-17 16-7 7-8 7-5 6-7 5-5-2-2-2v-6l15-15v-22l-8 4-13 3h-27l-16-4-5-2-4-7v-45l4-32 4-25 6-21 5-11h2v-3l5-5 3-1z" fill="#8C9EF2"/>
<path transform="translate(732,338)" d="m0 0h321l1 1v606h-20v-589h-144v6h-1v-23h-157z" fill="#7499EF"/>
<path transform="translate(769,945)" d="m0 0h317l-6 7-3 6-1 4v10l3 8 5 7-1 1-21 1-269 1-23 1v-1h5v-2h-8l-6-4-3-4-1-3v-21l4-7 4-3z" fill="#F99747"/>
<path transform="translate(474,776)" d="m0 0h1v23l-4 5-8 7-3 3v6l4 3 5-2 4-2v11l-4 39-5 39-3 39v27l-5 3h-15l2 8v3h-9l-8-3-10-5-3-3h-16l-5-2v-31l2-31 3-23 6-28 2-20v-64l5 1 16 4h27l13-3z" fill="#FDA460"/>
<path transform="translate(1197,566)" d="m0 0 9 1 7 4 7 8 9 15 7 15 6 18 2 11v9l-1 3 13 29 7 18v7l-6 8-10 7-15 6-16 4-5 4-7-1-3-3v-5l4-3v-1l10-1 16-15 6-6-2-6-9-11-6-6h-5l-14 12-10 9-5 4-1 4 6 8 2 2v3h-19l-5-2-3-7v-3l-10 7-7 3h-11l-14-7-11-10-3-7-2-1-16-2-4-3 1-1 11-1v-2l-2-1 9 1 4 3 19 4h10l10-19v-3l-5-6-1-7 3-8 12-18 3-10 1-22 4-12 7-10 8-5z" fill="#FBA463"/>
<path transform="translate(1168,714)" d="m0 0 8 3v8l1 1-1 12-1 7v15l8 16 9 24 7 25 6 29 3 15 2 6v32l-3 44-1 35-1 2h2v3l-20 1h-23l-46-2-13-3-6 3h-12l-13-1v-1l9-1-6-8-2-7v-10l3-8 7-8 1-1h10l17 8 19 12 1 3-7 5-11 6-5 2-1 3 7 3 46 1 2-4 17-6 6-5 2-5-4-2-3-3-3-17-3-23-4-26-4-33-1-3-1-12-1-3-2-20-3-24-2-12v-29l3-10 2-9 4-13z" fill="#697FE1"/>
<path transform="translate(579,339)" d="m0 0h91l-3 16h-68v226l13-4 12-2h13l17 3 16 6 12 8 12 11 8 11 7 13 4 14 1 6v24l-4 16-8 16-7 10-11 11-14 9-15 6-15 3h-18l-16-3-16-7-15-10-17 16-6 5-11-1 2-7 12-11 6-5 5-5-2-4-8-14-5-12-3-12v-27l4-16 7-14 10-13 8-8h2zm39 243-15 4-15 8-10 8-7 7-7 10-6 13-4 15v23l4 16 6 12 9 12 9 9 14 9 12 5 16 3h14l15-3 12-5 12-7 3-2v-2l4-2 9-10 8-14 4-9 3-14v-19l-4-17-8-16-2-3h-2l-2-4-6-7-12-9-16-8-12-3z" fill="#7499EF"/>
<path transform="translate(576,805)" d="m0 0h2v27l-5 4-7 8-7 9-10 15-7 15-4 26v19l2 5 2 1h10l12-5 12-7h2v66h-96l-8-3-10-5-3-3-4-2 3-1v-27l3-39 7-57 3-33h1v17l-3 30-2 12-3 26-2 19v14l16-1 15-5 9-6 7-7 9-12 6-11 7-17 11-36 6-11 6-8h2v-2l8-7z" fill="#EBF3FA"/>
<path transform="translate(1112,860)" d="m0 0 5 2 10 19 13 31 5 7 9 4h23l5 37 3 5 4 3-1 5-7 6-17 6-2 3h-46l-8-3 2-4 13-8 7-4 3-1-4-4-20-12-13-6-42-1v-49h2l6 7 10 6 16 6 20 4 10 1 2 1-7-15-4-19v-21z" fill="#E9F3FA"/>
<path transform="translate(842,820)" d="m0 0h13l11 3 11 6 10 10 7 14 2 10v8l-2 10-4 10-7 9-8 7-10 5-7 2-13 1-14-3-11-6-10-10-5-9-3-8-1-5v-14l4-13 6-9 6-7 11-7 9-3z" fill="#E9F2FA"/>
<path transform="translate(600,200)" d="m0 0 4 1 10 4 5 1 4-3 8 1 10 5 4 4 7 27-5 10-14 36-2 3h-28l-16 1-18-1-9-3-3-5v-15l5-22 7-20 8-15h2v-2l8-4z" fill="#8C9EF2"/>
<path transform="translate(732,339)" d="m0 0h157v26l-3 8-7 7-5 2-6 1h-111l-3-3-12-23-10-17z" fill="#274686"/>
<path transform="translate(1051,263)" d="m0 0h13l10 4 8 8 4 8 2 10-3 8-8 6-10 4-14 4-26 6-12 4-16 8-8 5h-50l6-9 7-9h2l2-4 18-18 15-11 13-8 15-7 18-6z" fill="#D2DFFD"/>
<path transform="translate(990,492)" d="m0 0 5 1 2 2v6l-9 15-1 64-1 1h-71v-72h64l2-5 6-10z" fill="#E9F3FA"/>
<path transform="translate(989,728)" d="m0 0h6l3 3v5l-10 17-1 63h-71v-71l61-1 5-5 6-10z" fill="#EBF4FA"/>
<path transform="translate(989,610)" d="m0 0h6l3 3-1 6-9 15-1 64h-71v-71h63l2-5 7-11z" fill="#EBF4FA"/>
<path transform="translate(973,231)" d="m0 0h14l10 5 6 8 1 2v7l-4 7-8 7-25 16-12 9-10 10-9 11-12 17-5 8h-20l2-12 5-17 9-21 12-19 12-14 11-10 15-10z" fill="#D2DFFD"/>
<path transform="translate(597,589)" d="m0 0h1v139l-6-2-12-9-9-9-10-15-5-14-2-9v-23l4-15 8-16 8-10 7-7 14-9z" fill="#91AEED"/>
<path transform="translate(739,934)" d="m0 0h107l2 2-1 5h-90v4h10l-5 4-4 7v21l3 6 6 4 8 1v2l-6 2h-49l-51-1h-307l-29-1h-61v-2h123l-2-12h20l6 5 11 4 4 2 9 1-2-11 20-1 6 5 11 4 4 2h247l-8-6-4-8v-12l4-8 7-6 6-2h12v-4h-8l-1-5z" fill="#234078"/>
<path transform="translate(759,977)" d="m0 0h317l8 9-1 2-21 1-269 1-23 1v-1h5v-2h-8l-6-4z" fill="#F18B44"/>
<path transform="translate(1197,566)" d="m0 0 9 1 7 4 7 8 9 15 7 15 6 18 2 11v9l-2 2-7-8-10-5-17-3-2-4-1-6v-9l1-9-10-3-8-8-5-9-5 3-3 7v15l3 10 2 3 5 1v9l-15 5-5 4-6 9-7 15-4-2-3-4-1-7 3-8 12-18 3-10 1-22 4-12 7-10 8-5z" fill="#1E3661"/>
<path transform="translate(624,575)" d="m0 0h13l17 3 16 6 12 8 12 11 8 11 7 13 4 14 1 6v24l-4 16-8 16-7 10-11 11-14 9-15 6-15 3h-18l-16-3-16-7-15-10-17 16-6 5-11-1 2-7 12-11 6-5 5-5-2-4-8-14-5-12-3-12v-27l4-16 7-14 10-13 8-8 10-7 12-6 13-4zm-6 7-15 4-15 8-10 8-7 7-7 10-6 13-4 15v23l4 16 6 12 9 12 9 9 14 9 12 5 16 3h14l15-3 12-5 12-7 3-2v-2l4-2 9-10 8-14 4-9 3-14v-19l-4-17-8-16-2-3h-2l-2-4-6-7-12-9-16-8-12-3z" fill="#284686"/>
<path transform="translate(651,240)" d="m0 0h66l-1 5-17 43-1 2-47 1h-41v-2l21-1 10-25 9-22z" fill="#1E3661"/>
<path transform="translate(578,724)" d="m0 0h1v264h-1v-66l-16 9-10 4h-10l-4-4-1-3v-19l4-26 8-16 9-14 9-11 9-10h2z" fill="#D7E4FC"/>
<path transform="translate(534,682)" d="m0 0 20 20 2 1v2l5 2 1-2 5 7-2 4-3 1-2 4-10 9-6 5-2 5-2-2-9 5h-2v-2l-4-2-40-28-7-4-5-12v-9l5 1 14 4 6 1h17l9-3 9-6z" fill="#D8E6FB"/>
<path transform="translate(1210,878)" d="m0 0 3 3 9 21 18 38 8 15v2l5 1v18l-5 8-6 3-1 1h-36l1-37 3-44z" fill="#E8F2FA"/>
<path transform="translate(405,778)" d="m0 0 5 1 2 1v2l4 1 6 25 5 28 2 16v61l-3 8-4 14-2-2-14-40-4-13v-12l2-13 1-13z" fill="#F38D45"/>
<path transform="translate(575,523)" d="m0 0h3v38l-11 2h-28l-17-3-8-3-3-3 1-5 6-7 13-10 10-4 18-3z" fill="#B7CBFD"/>
<path transform="translate(739,934)" d="m0 0h107l2 2-1 5h-90v4h10l-5 4-3 3-2 3-1 22-37 1-2-5v-12l4-8 7-6 6-2h12v-4h-8l-1-5z" fill="#274687"/>
<path transform="translate(577,603)" d="m0 0h2v111l-4-2-7-8-7-11-5-14-2-9v-23l4-15 8-16 8-10z" fill="#D4E2FB"/>
<path transform="translate(401,872)" d="m0 0h1l2 11 12 36 5 14 3-4-1 8-6 25-3 13-3 2h-14l-5-2v-31l2-31 3-23z" fill="#FDA460"/>
<path transform="translate(612,147)" d="m0 0h12l9 3 7 6 4 8 1 11-2 9 1 8-2 4-4 1-4 4-9-1-2-2 7-3 5-10v-15l-3-4-11 7-5 2-9 1-1 16-2 5-6-4-8-2-5-8-4-3 1-7 1-5v-5l6-5 11-6 8-4z" fill="#1E3662"/>
<path transform="translate(673,330)" d="m0 0 2 4 17 28-1 6-11 30-2 5h-3l-4 17v14l1 4 4 4 1 5-7-1-7-6-7-9-6-5-2-3v-5l6-4 6-3 3-8-1-10 4-30z" fill="#F99848"/>
<path transform="translate(1328,928)" d="m0 0h8l4 3 1 4-4 9-10 16-9 22h4l6-15 7-10 6-5 9 1 3 3-1 7-9 8-12 8-4 4 15 1 6 2v2h27v2l-13 2h-21l-22-2h-41l-12 1h-26l-33-1v-2h34v2l23-1 1-1h30l1-5 4-3h11l2-18 4-17 4-10 5-6z" fill="#B9D3D5"/>
<path transform="translate(842,820)" d="m0 0h13l11 3 11 6 10 10 7 14 2 10v8l-2 10-4 10-7 9-8 7-10 5-7 2-13 1-14-3-11-6-10-10-5-9-3-8-1-5v-14l4-13 6-9 6-7 11-7 9-3zm2 6-12 3-11 7-7 8-5 10-2 8v10l3 11 6 10 8 8 12 6 5 1h15l12-4 9-7 6-7 4-8 2-6v-17l-4-11-6-8-9-8-8-4-9-2z" fill="#B7CBFD"/>
<path transform="translate(1086,945)" d="m0 0h10l17 8 19 12 1 3-7 5-11 6-5 2-1 3 7 3 16 1 2 2h-16l-13-3-6 3h-12l-13-1v-1l9-1-6-8-2-7v-10l3-8 7-8z" fill="#697FE1"/>
<path transform="translate(475,734)" d="m0 0 5 1 36 12 8 3 2 2-16 16-8 7-8 8-8 7-10 10-2-1 1-24z" fill="#D8E5FB"/>
<path transform="translate(469,651)" d="m0 0 4 2 15 10 13 6 3 1h10l12-3 13-4 3 1 2 5v4h-2l-2 4-8 8-9 6-8 2h-17l-17-4-8-4-2-22z" fill="#6A80E1"/>
<path transform="translate(1215,674)" d="m0 0h5l8 8 9 11 1 5-16 16-7 6-9 1-1 2-5 1v2l-5 1h-11l1-9h9l-4-6-6-8 2-5 11-10 11-9z" fill="#274585"/>
<path transform="translate(443,563)" d="m0 0h11l7 3 2 2v6l-3 12-3 9h-9l-1 10-3 6-4 3-7-1-8-8-8-16-1-4v-8l5-6 10-5z" fill="#1E3661"/>
<path transform="translate(714,651)" d="m0 0 83 1v7h-82v10h132v7h-134z" fill="#B6CAFC"/>
<path transform="translate(677,517)" d="m0 0h174v8h-175v-7z" fill="#B7CBFD"/>
<path transform="translate(989,728)" d="m0 0h6l3 3v5l-10 17-8 13-19 32-5 6-7-1-18-22-7-9v-6l2-2h6l11 12 8 10h3l17-29 7-11 5-9z" fill="#FA994B"/>
<path transform="translate(990,492)" d="m0 0 5 1 2 2v6l-10 17-8 13-19 32-4 5h-6l-11-12-11-14-5-6v-5l3-3h5l7 7 8 10 5 6h2l11-19 17-28 6-10z" fill="#F9994B"/>
<path transform="translate(989,610)" d="m0 0h6l3 3-1 6-10 17-17 28-12 20-2 2h-5l-10-11-9-11-8-10v-6l4-3 5 1 11 13 8 10 3-3 17-29 16-26z" fill="#F9994B"/>
<path transform="translate(678,787)" d="m0 0h169v7l-1 1h-168z" fill="#B7CBFD"/>
<path transform="translate(678,753)" d="m0 0h183v7h-183z" fill="#B7CBFD"/>
<path transform="translate(712,430)" d="m0 0h25l8 5 3 6-1 9-3 5-5 2v3h2l7 11v2h-10l-8-11-1-2h-7l-1 13h-9z" fill="#8DA0F2"/>
<path transform="translate(301,934)" d="m0 0h8l5 5 4 7 4 16 2 14v5l8-1 5 3 2 2v3h-48v-2l8-2 11-1-17-12-5-4-2-4 1-5 3-2h8l6 5 8 15 2 6 3 1-6-17-6-11-7-11-1-6z" fill="#B9D3D5"/>
<path transform="translate(528,750)" d="m0 0 13 3-6 7-10 9-7 7-8 7-17 16-7 7-8 7-5 6-7 5-5-2-2-2v-6l10-10 10-8 13-13 8-7 8-8 8-7 7-7h2v-2z" fill="#7599F0"/>
<path transform="translate(676,552)" d="m0 0h161v7h-161z" fill="#B7CBFD"/>
<path transform="translate(912,742)" d="m0 0h67v2l-2 1h-61v71h71v-63l4-4v70l-1 1h-78z" fill="#B7CBFC"/>
<path transform="translate(711,635)" d="m0 0h150v7h-147v5h-1z" fill="#B6CAFC"/>
<path transform="translate(912,623)" d="m0 0h66v4h-62v71h71v-64l2-3h2v68l-1 2h-78z" fill="#B7CBFC"/>
<path transform="translate(428,916)" d="m0 0 2 1 6 43 3 15 6 1-4 1 2 8v3h-9l-8-3-10-5-3-3 4-20 7-28z" fill="#E7F0F9"/>
<path transform="translate(423,674)" d="m0 0 2 3 7 14 9 13 8 10 9 10 8 5 9 4 1 10v16l-4-2-13-11-8-8-10-13-10-18-6-17-2-9z" fill="#697FE1"/>
<path transform="translate(841,430)" d="m0 0h33v8l-23 1v8h19l1 1v8h-20v9h23v8h-33z" fill="#8DA1F2"/>
<path transform="translate(678,770)" d="m0 0h119v8h-119z" fill="#B7CBFD"/>
<path transform="translate(677,534)" d="m0 0h112l1 1v7h-114v-7z" fill="#B7CBFD"/>
<path transform="translate(408,673)" d="m0 0 1 3-4 24-2 19h-1v-6l-10-3-27-9 4-6 10-7 14-8 12-6z" fill="#D9E6FC"/>
<path transform="translate(756,430)" d="m0 0h9l1 29 2 4 2 1h9l4-6 1-28h9v30l-3 7-6 5-4 2h-11l-6-2v-2l-4-2-3-7z" fill="#8C9FF2"/>
<path transform="translate(632,165)" d="m0 0 3 3 1 2v15l-5 10-2 2-5 1-3 6-3 2-7-1-8-4 2-9 1-16 1-1 12-2 12-7z" fill="#F7A469"/>
<path transform="translate(912,506)" d="m0 0h67v3h-64v72l71-1 1-64 3-3v71h-78z" fill="#B7CBFC"/>
<path transform="translate(889,430)" d="m0 0h14l7 3 2 1-2 5-2 3-6-2-2-1h-8l-1 4v2l12 3 8 4 2 3v10l-4 6-6 3h-11l-9-4-3-2 1-4 3-3 4 1 7 3 7-1 1-5-15-5-4-2-3-6v-8l6-7z" fill="#8EA1F2"/>
<path transform="translate(495,640)" d="m0 0 7 6 12 14 5 6v2l4 1-9 2h-10l-10-4-12-7-14-10 2-2z" fill="#D8E5FB"/>
<path transform="translate(1253,714)" d="m0 0 4 1 2 3-1 5-5 5-12 11-11 9-3 2-5-1-9-10-3-4 2-4 4-3 19-5 14-6z" fill="#274686"/>
<path transform="translate(739,934)" d="m0 0h107l2 2-1 5h-109l-1-5z" fill="#2A488B"/>
<path transform="translate(1204,966)" d="m0 0h1v22h2v3l-20 1h-23l-27-1-5-2v-1h30l2-4 17-6 6-5 2-4h8z" fill="#324F91"/>
<path transform="translate(638,634)" d="m0 0h11l5 3 4 5v9l-6 9-11 9-1 1 18 1 1 6-1 1h-31v-7l15-13 5-4 2-4-1-7-1-1h-8l-5 5-6-3 2-5 5-4z" fill="#B7CBFD"/>
<path transform="translate(1086,945)" d="m0 0h10l17 8 11 7-2 6-21-1-25-2v9h-1v-10l3-8 7-8z" fill="#93AFEE"/>
<path transform="translate(460,580)" d="m0 0h2l3 9 1 6v15l-3 5-6 1v12l-9-3-12-5v-5l7-4 3-6 2-10h9z" fill="#F9A465"/>
<path transform="translate(662,393)" d="m0 0h1l2 6 7 3 3 1-4 17v14l1 4 4 4 1 5-7-1-7-6-7-9-6-5-2-3v-5l6-4 6-3 3-8z" fill="#FAA464"/>
<path transform="translate(545,630)" d="m0 0h7l-3 15v8l-6 4-2 3-5-2-13-11-8-6 2-4 16-5z" fill="#D8E5FB"/>
<path transform="translate(1265,953)" d="m0 0 4 2 5 7v6l-4 6-4 5-3 8 2 2-1 1h-23l1-4 7-4 3-6 1-18 11-4z" fill="#284788"/>
<path transform="translate(1082,985)" d="m0 0 2 2-1 1-21 1-269 1-23 1v-1h5v-2h-8v-1h315z" fill="#EEA574"/>
<path transform="translate(758,942)" d="m0 0h274l2 3h-266l-10-1z" fill="#FEFEFE"/>
<path transform="translate(629,753)" d="m0 0h28v5l-10 11 9 6 1 2v10l-5 6-4 2h-11l-8-4-2-4 4-3 5 2 4 2 8-1 1-1v-7l-7-3-5-1-1-4 7-8 3-3-17-1z" fill="#B7CBFD"/>
<path transform="translate(1124,809)" d="m0 0h20l17 2 2 10v10l-9-2-20-7-11-6-2-2 1-4z" fill="#E8F2FA"/>
<path transform="translate(803,430)" d="m0 0h9v35h22v8h-31z" fill="#8C9FF2"/>
<path transform="translate(758,951)" d="m0 0 1 2-1 3v21l3 6 6 4 8 1v2l-5 1h-35l-4-2h2v-2l-6-1-6-5-1-4h36v-22z" fill="#1E3662"/>
<path transform="translate(1164,350)" d="m0 0h27l12 2v1h-9l-6-1h-23l-9 4-3 2-4 8-4 5-5 6-4 7-9 12-11 13-4 6h-3l-2 5-7 5-8 1-1-1v-7l6-18 3-4 4-9 2-5 5-10 5-8v-4h-10l-5-1 4-2 6-1h12l-2 5-8 14-8 16-8 17-3 9-1 7 8-3 12-12 4-6h2l2-5 9-11 12-17 12-18z" fill="#D9E6FC"/>
<path transform="translate(758,388)" d="m0 0 1 3 5 5 14 7h7l3 1-2 4-5 2-20 2h-9l-2-2 1-5-3-9-3-4 12-1z" fill="#F8A467"/>
<path transform="translate(1073,502)" d="m0 0h12l10 3v2l6 1 6 3 5 4 8 4 5 1 2 5-7-2-21-13-11-4h-26l-6 2v6l13 3 24 3 14 3 10 4 10 8 10 9 4 5v6l-4 4-12 4-11 1 4-2 11-3 8-4h2l-1-8-4-2-6-4v-3h-2v-2l-6-2-5-4-6-2-1-2-7-2-14-1-8-2-17-2-7-1-1-1v-10l1-2 6-2z" fill="#D9E6FC"/>
<path transform="translate(679,322)" d="m0 0 6 1 12 24-2 10-2 5h-2l-17-28v-7z" fill="#F28B44"/>
<path transform="translate(650,895)" d="m0 0h73l1 1v5h-74l-1-5z" fill="#B7CBFD"/>
<path transform="translate(977,744)" d="m0 0h2l-2 5-19 32-5 7-6-5-8-10-7-8h-6l-1 1v6l18 22 6 7v2h7l7-10 17-29 5-8 1 3-5 10 1 4h-2v-2h-2l-2 6-3 4-5 9-6 10-1 2h-2l-2 4-4 1-5-2-10-13-4-2-2-5-3-1-1 3-2-1v-6l-4-7v-8l3-3 6-1 7 4 3 7 10 11h2l6-9 5-9 9-14z" fill="#FEFEFE"/>
<path transform="translate(1119,970)" d="m0 0 5 1 2 2-11 6-5 2-1 3 7 3 16 1 2 2h-16l-13-3-6 3h-12l-13-1v-1l9-1-4-5 1-2 2 2 6-1z" fill="#889CF0"/>
<path transform="translate(674,325)" d="m0 0 1 2-5 21-2 8h-69v-1h68l1-11 1-4h-79l-11-1v-1l61-1 12-3 15-6z" fill="#91ACEE"/>
<path transform="translate(977,627)" d="m0 0 1 2-16 27-8 13h-3l-12-14-6-8-5-1-3 2v6l11 13 9 11 6 7h5l6-9 19-32 5-8 1 2-3 7-3 5-1 7-4 1-5 8-5 9-3 7-5 5-5 1-5-2-7-8-7-9-5-5v-2l-3-1-3-5-1-1v-8l4-4 7 1 11 12 3 4 4 2 1 4 4-5 1-5h2l2-4 8-14 5-7 1-3z" fill="#FEFEFE"/>
<path transform="translate(731,987)" d="m0 0h2v2l2 1 34 1v1h-49l-51-1-77-1-12-1v-1z" fill="#2A4782"/>
<path transform="translate(639,516)" d="m0 0h5l1 1v43h-8v-36l-5 2h-3l-1-6z" fill="#B7CBFD"/>
<path transform="translate(976,509)" d="m0 0h2l-2 5-12 20-11 18-4-2-11-13-7-8h-5l-2 2v5l14 17 11 13 1 1h6l10-16 16-27 4-5-1 6-8 13-15 25-6 7h-6l-8-6-5-8-11-13v-2l-3-1-2-6 1-5 4-3 7 1v2l4 2 7 9v2h2l2 3 5 2 12-20v-7l4-1z" fill="#FEFEFE"/>
<path transform="translate(811,770)" d="m0 0h50v8h-49l-1-1z" fill="#B7CBFD"/>
<path transform="translate(804,534)" d="m0 0h46l1 1v7h-48v-7z" fill="#B7CBFD"/>
<path transform="translate(817,871)" d="m0 0 3 1 4 10 8 9 10 4h13l12-6 6-8 4-9 4 1-1 6-5 9-9 8-10 4h-16l-9-4-8-7-4-5-3-7v-5z" fill="#B7CBFD"/>
<path transform="translate(843,834)" d="m0 0h11l11 4 8 6 6 9 1 9h-3l-6-12-8-7-7-3-11-1-10 3-8 6-4 6-3 9h-4l1-8 6-10 7-6 9-4z" fill="#B7CBFD"/>
<path transform="translate(547,659)" d="m0 0h1l2 18 5 15 6 12v3l-5-2v-2l-4-2-17-17 1-4 6-7h2v-3h3z" fill="#E1ECF8"/>
<path transform="translate(1207,988)" d="m0 0h34v2l23-1 1-1h110v2l-13 2h-21l-22-2h-41l-12 1h-26l-33-1z" fill="#637DBF"/>
<path transform="translate(528,750)" d="m0 0 13 3-6 7-10 9-7 7-3 1-7-7v-2l8-7 7-7h2v-2z" fill="#294687"/>
<path transform="translate(811,652)" d="m0 0h50v7h-50z" fill="#B7CBFD"/>
<path transform="translate(973,231)" d="m0 0h14l10 5 6 8 1 2v7l-4 7-8 7-25 16-12 9-10 10-9 11-6 8-1-2 2-6h2v-2l5-5 7-8 5-5h2l2-4 11-8 8-6 10-6 5-2 7-6h2l1-5h2l1-11h-2l-3-7h-2v-2l-13-1h-8l-8 1 4-3z" fill="#DAE7FC"/>
<path transform="translate(650,883)" d="m0 0h53v5l-1 1h-52l-1-5z" fill="#B7CBFD"/>
<path transform="translate(716,883)" d="m0 0h53v6h-53z" fill="#B7CBFD"/>
<path transform="translate(393,976)" d="m0 0h20l6 5 11 4 3 2-1 1h-37z" fill="#274586"/>
<path transform="translate(1081,952)" d="m0 0 17 4 25 7-1 3-21-1-24-2 1-6z" fill="#8B9DF2"/>
<path transform="translate(456,976)" d="m0 0h5l6 5 11 4 1 3h-35v-3h-2l-1-8z" fill="#284687"/>
<path transform="translate(1144,451)" d="m0 0 2 1 1 4 8 5 15 5 18 3h19l7-1-1 5-8 16-10 16-11 12-8 8-9 5-3-1 8-6 7-4 5-5 2-3h2l2-4 8-11 7-12 4-9v-3h-19l-13-1-8-3-12-3-12-6v-2h-2v-5z" fill="#DAE7FC"/>
<path transform="translate(1150,667)" d="m0 0 1 2-10 19-1 1h-10l-19-4-4-3-7-1v2l-11 2 7 3 12 1 3 2 3 7 10 9 14 7h11l12-6 3-3h2l1 6-2-1v-2l-11 7-7 2-11-1-9-4-6-4-12-12-1-4-16-2-6-4v-3l7-1 2-3 6-1 8 2 3 3 22 4h5l8-15z" fill="#FEFEFE"/>
<path transform="translate(1160,688)" d="m0 0h2l3 13-1 5-8 6-8 2h-9v-2l8-3 5-8 6-10z" fill="#F48F46"/>
<path transform="translate(590,247)" d="m0 0h1l2 12 3 6 8 5 14 6-4 2-11-4-17-4-2-9v-5z" fill="#697FE1"/>
<path transform="translate(678,669)" d="m0 0h29l-1 10-1-2h-27l-1-5z" fill="#B5C9FC"/>
<path transform="translate(435,620)" d="m0 0 10 3 13 5v2l4 2 1 4-32-7 1-5z" fill="#6E84E2"/>
<path transform="translate(650,416)" d="m0 0 4 1 7 12 5 5 8 5 3 5v3l-7-1-7-6-7-9-6-5-2-3v-5z" fill="#1E3763"/>
<path transform="translate(707,649)" d="m0 0h1v10h-30v-7h29z" fill="#B4C8FC"/>
<path transform="translate(540,737)" d="m0 0h1v5h9v6l-6 4h-12l-3-1 1-8z" fill="#FAA464"/>
<path transform="translate(703,632)" d="m0 0 2 3 1 7h-28v-7l24-1z" fill="#B4C8FC"/>
<path transform="translate(1027,269)" d="m0 0 3 1-2 2-8 3-6 3-7 2-2 2-5 3-8 5-3 3-6 3h-2l-2 4-5 4h-2v2l-4 4-1 3-10 7v-3l4-5 8-7 7-7 15-11 13-8 15-7z" fill="#D9E6FC"/>
<path transform="translate(695,356)" d="m0 0 2 1v5l-3 3-6 16-5 16-5 9-1 2-3 9-1 4v9l3 9-6-1 1-2-1-2v-14l5-17h3l3-11 13-35z" fill="#FEFEFE"/>
<path transform="translate(778,403)" d="m0 0h7l3 1-2 4-5 2-20 2h-9l-2-2v-4h20z" fill="#1F3866"/>
<path transform="translate(428,916)" d="m0 0 2 1 6 43 2 11-1 4-2-6-4-25-3-20-5 19-3 12-4 21-3-1 3-13 6-25z" fill="#FEFEFE"/>
<path transform="translate(674,325)" d="m0 0 1 2-3 11h-32v-1l12-3 15-6z" fill="#EBF4FA"/>
<path transform="translate(1053,338)" d="m0 0h2v36l7-2-1 3-6 1v127h-1z" fill="#D9E6FC"/>
<path transform="translate(722,439)" d="m0 0h12l3 1 1 7-3 4h-13z" fill="#E9F2FA"/>
<path transform="translate(1395,988)" d="m0 0h33l1 4-1 1h-24l-11-1-1-3z" fill="#243E72"/>
<path transform="translate(1234,424)" d="m0 0 1 3-7 11-9 6-6 1-46 3-21 3 4-4 14-1 5-2h21l21-1 9-2 9-8 3-6z" fill="#DAE7FC"/>
<path transform="translate(393,902)" d="m0 0h1l-1 18-7-1-8-4v-3l9-6z" fill="#DAE7FC"/>
<path transform="translate(432,987)" d="m0 0 11 1-1 2h-104v-1l57-1z" fill="#1E3663"/>
<path transform="translate(954,242)" d="m0 0 2 1-3 5-4 1-5 4-5 8-4 2-2 5-6 7-3 5-2 1-2 6-3 2-2 4-1-2 6-11 7-11 12-14 11-10z" fill="#D9E6FC"/>
<path transform="translate(703,356)" d="m0 0 4 2 10 10 8 7 11 10 9 7 4 4 2 9-3-1-3-9-6-3-5-5-9-8v-2l-5-2-5-5-4-3-2-4-4-2z" fill="#FEFEFE"/>
<path transform="translate(1069,307)" d="m0 0h5l-1 2-20 6-26 6-12 4-16 8-2-1 5-4 5-3 17-6 7-3 11-1 15-4 11-3z" fill="#DAE7FC"/>
<path transform="translate(1195,717)" d="m0 0 4 5 7-1-1 2-5 1v2l-5 1h-11l1-9z" fill="#1F3866"/>
<path transform="translate(1093,945)" d="m0 0 6 1 19 10 6 4v2l-9-3-24-11-1-2z" fill="#8C9FF2"/>
<path transform="translate(666,356)" d="m0 0 2 1-4 28-1 14 1 4-4 9-6 3-2-1 4-3 3-1 2-9-1-3v-7l3-24z" fill="#FEFEFE"/>
<path transform="translate(1177,716)" d="m0 0h17v2h-9l1 5-4 5-5-1-2-2v-7z" fill="#C8D8F4"/>
<path transform="translate(461,578)" d="m0 0h2l3 7 2 12v13l-3 7-5 1-1 10h-2v-12l7-3 1-3v-15l-3-13z" fill="#FEFEFE"/>
<path transform="translate(619,277)" d="m0 0h10l4 2 1 3-4 1-8 1-7 1-1-1v-5z" fill="#FEA460"/>
<path transform="translate(626,282)" d="m0 0h8l-2 6-1 1h-28l-16 1v-2l26-2h14z" fill="#93AEEE"/>
<path transform="translate(1244,649)" d="m0 0 2 3 5 13 6 12 7 18 1 9-5 5 2-5v-7l-8-20-11-25z" fill="#FEFEFE"/>
<path transform="translate(1075,269)" d="m0 0 7 6 4 8 2 10-3 8-8 6-3-1 8-7 2-3v-8l-2-9-2-4-4-2z" fill="#DAE7FC"/>
<path transform="translate(699,289)" d="m0 0 4 2 10 14 6 8 8 14v2h2l3 6-1 3-14-23-11-16-7-8z" fill="#FEFEFE"/>
<path transform="translate(987,490)" d="m0 0 8 1 4 4v6l-7 11-2 1 2-6 4-6v-6l-2-2-6 1-7 12-2-2 5-10z" fill="#FEFEFE"/>
<path transform="translate(989,725)" d="m0 0h6l4 5v8l-7 11-2-1 7-12v-5l-2-2h-6l-8 13-1-3 5-9z" fill="#FEFEFE"/>
<path transform="translate(1203,353)" d="m0 0 7 1 12 6 9 9 4 8-1 4-4-8v-2h-2v-2l-4-2-6-6v-2l-12-3-3-1z" fill="#DAE7FC"/>
<path transform="translate(991,607)" d="m0 0h4v2l4 2v9l-4 5-3 5-2 1 2-5 5-9v-6h-8l-8 13-1-3 3-6 6-7z" fill="#FEFEFE"/>
<path transform="translate(835,867)" d="m0 0h27v3h-27z" fill="#B7CBFD"/>
<path transform="translate(839,873)" d="m0 0h19v4h-20z" fill="#CADAFC"/>
<path transform="translate(474,800)" d="m0 0 2 1-14 14-1 3 3 3 5-2 3-3 2 1-5 5-5 2-5-4v-6l10-10z" fill="#8FA8EF"/>
<path transform="translate(1051,263)" d="m0 0h13l8 3-3 2-8-2h-11l-11 2-8 2-1-2z" fill="#DAE7FC"/>
<path transform="translate(1108,982)" d="m0 0 2 1-1 1 7 3 16 1 2 2h-16l-13-3-7 1 4-3z" fill="#AEC1F3"/>
<path transform="translate(1124,961)" d="m0 0 5 2 4 3v2l-6 4-4-1-1-1v-6z" fill="#1F3866"/>
<path transform="translate(428,902)" d="m0 0h1v11l-4 10-4-1-1-6h4l-1-7 3-1 1-3z" fill="#F69245"/>
<path transform="translate(839,861)" d="m0 0h19v4h-19z" fill="#C9D9FC"/>
<path transform="translate(1235,381)" d="m0 0 2 4 2 12v13l-2 11-2-4 1-9v-15l-1-2z" fill="#DAE7FC"/>
<path transform="translate(674,325)" d="m0 0 1 2-3 11h-2l1-7 1-2-15 6-10 3h-7v-1l12-3 15-6z" fill="#FEFEFE"/>
<path transform="translate(1395,988)" d="m0 0h26v1l-22 1 6 1 23 1v1h-24l-11-1-1-3z" fill="#97B3E7"/>
<path transform="translate(547,653)" d="m0 0h2l-2 17-4-1-2-7z" fill="#FBA463"/>
<path transform="translate(977,744)" d="m0 0h2l-2 5-15 25h-2l1-4 8-13 6-10z" fill="#FDFDFD"/>
<path transform="translate(673,413)" d="m0 0 1 4-1 4v9l3 9-6-1 1-2-1-2v-14z" fill="#F8F9FC"/>
<path transform="translate(1265,988)" d="m0 0h22v1l-21 2h-26v-1l24-1z" fill="#88A4E9"/>
<path transform="translate(1168,714)" d="m0 0 8 3-1 8-6-1-1-2z" fill="#1F3765"/>
<path transform="translate(905,313)" d="m0 0h1v11l-3 7v5l-4 2 2-12z" fill="#DAE7FC"/>
<path transform="translate(583,258)" d="m0 0 2 3v9l-7-2 2-6z" fill="#DEEAFA"/>
<path transform="translate(1097,359)" d="m0 0 4 1-7 3-5 1-10 4h-6l2-2z" fill="#DAE7FC"/>
<path transform="translate(759,389)" d="m0 0 3 2v2l4-2 2 5 8 5-3 1-12-7-3-5z" fill="#FEFEFE"/>
<path transform="translate(1370,988)" d="m0 0h5v2l-13 2h-15v-2h23z" fill="#90ABE8"/>
<path transform="translate(1079,980)" d="m0 0 8 6 1 3 13-1-2 2h-12l-13-1v-1l9-1-4-5z" fill="#8DAAEC"/>
<path transform="translate(746,940)" d="m0 0 11 1v4h-11z" fill="#1E3661"/>
<path transform="translate(697,349)" d="m0 0 4 2 3 3v2h-9l1-6z" fill="#8AA8EF"/>
<path transform="translate(622,283)" d="m0 0 5 1 1 3h-15l1-2z" fill="#7289E3"/>
<path transform="translate(1178,718)" d="m0 0 5 1v5l-4 2-2-2v-5z" fill="#1F3765"/>
<path transform="translate(623,199)" d="m0 0 10 2-2 1v2h-8l-5 3v-2l4-4z" fill="#C8D9F4"/>
<path transform="translate(953,322)" d="m0 0 1 2-3 5-4 4-1 4-5 1 6-9z" fill="#DAE7FC"/>
<path transform="translate(676,262)" d="m0 0 5 1-1 4-2 2-4-1 1-5z" fill="#CBDCF0"/>
<path transform="translate(427,883)" d="m0 0h1v11l-2 1-2-1v-7z" fill="#F99746"/>
<path transform="translate(459,815)" d="m0 0 4 5 3 1 6-5 2 1-5 5-5 2-5-4z" fill="#90AAEF"/>
<path transform="translate(428,902)" d="m0 0h1v11l-1-4h-2v3l-3-1 1-3h2l1-3z" fill="#F89645"/>
<path transform="translate(206,990)" d="m0 0" fill="#BAD4D5"/>
</svg>
