<?xml version="1.0" encoding="UTF-8"?>
<svg version="1.1" viewBox="0 0 2000 2000" width="2000" height="2000" xmlns="http://www.w3.org/2000/svg">
<path transform="translate(632,138)" d="m0 0h638l27 3 28 6 20 6 27 11 25 13 21 14 9 7 16 13 20 20 9 11 12 15 13 20 6 10 10 21 9 23 8 30 3 16 2 26 1 36v613l-3 26-8 34-6 18-6 15-8 16-9 16-7 11-10 14-9 12h-2l-2 4-15 16-3 1v2l-8 7-13 11-19 13-14 9-19 10-19 8-24 8-19 5-18 3-19 2h-49l-10-2-7-2-16 2-12 2h-560l-24-3-25-5-30-10-16-7-16-8-16-9-19-13-17-14-10-9-14-14-7-8-11-14-11-16-11-19-12-24-8-22-6-21-5-25-3-33v-327l1-80 2-10v-47l-1-4-1-81v-67l2-14 1-30 2-16 6-23 9-27 14-29 10-16 11-16 10-13 15-16 15-15 11-9 12-9 15-10 16-9 16-8 19-8 18-6 20-5 17-3 14-2z" fill="#FDFDFD"/>
<path transform="translate(1133,565)" d="m0 0 5 2 14 10 8 6-1 5-7 8-12 13-15 13-16 10-15 8-20 8-13 5-17 4-14 3-18 3-34 4 2 4 15 16 9 9 8 7 3 2h12l18-4 10-4 6-3 5-2v4h-2l-2 5-23 23 4 4 16 10 10 7 6 3 4 1h14l12-3 20-8 15-8 18-11 4-3h3l-2 6-6 9-8 10-7 9-13 15-3 5 2 3 10 4 30 8 7 1 6-5 4-6 5-5 13-17 7-10 11-18 6-9 12-19 8-16 9-17 7-14 4-1 21 10 7 3 1 4-6 10-8 18-8 13-4 9 1 6 5 10 3 10 1 7 1 17v204l-2 17-6 16-7 14-7 9h-2l-2 4-12 10-10 6-19 7-13 2-38 1h-412l-140-1-16-3-16-6-12-7-12-11-9-12-6-10-6-15-3-20-1-72v-147l3-16 7-18 8-12 14-14 11-7 12-6 7-3 16-3 327-1-5-10-7-11v-9l6-9 4-3 4-1h54l31-4 25-6 26-9 17-9 14-9 14-12 12-13z" fill="#FDFDFD"/>
<path transform="translate(1133,565)" d="m0 0 5 2 14 10 8 6-1 5-7 8-12 13-15 13-16 10-15 8-20 8-13 5-17 4-14 3-18 3-34 4 2 4 15 16 9 9 8 7 3 2h12l18-4 10-4 6-3 5-2v4h-2l-2 5-23 23 4 4 16 10 10 7 6 3 4 1h14l12-3 20-8 15-8 18-11 4-3h3l-2 6-6 9-8 10-7 9-13 15-3 5 2 3 10 4 30 8 7 1 6-5 4-6 5-5 13-17 7-10 11-18 6-9 12-19 8-16 9-17 7-14 4-1 21 10 7 3 1 4-6 10-8 18-8 13-4 9 1 6 5 10 3 10 1 7 1 17v204l-2 17-6 16-7 14-7 9h-2l-2 4-12 10-10 6-19 7-13 2-38 1h-412l-140-1-16-3-16-6-12-7-12-11-9-12-6-10-6-15-3-20-1-72v-147l3-16 7-18 8-12 14-14 11-7 12-6 7-3 16-3 327-1-5-10-7-11v-9l6-9 4-3 4-1h54l31-4 25-6 26-9 17-9 14-9 14-12 12-13zm-523 147-16 4-12 7-7 9-3 6-3 10v238l5 12 6 9 10 7 9 3 9 1h597l9-2 12-6 7-7 6-10 2-7v-219l-1-2-3 1-12 16-10 13-13 15-8 8v2l-4 2-3 1h-15l-8-2-18-5-19-6-20-7-12-6-12-5-12-6-22-12-16-10-16-12-11-8-11-9-8-7h-2l-2-4-12-12z" fill="#7B3088"/>
<path transform="translate(1133,565)" d="m0 0 5 2 14 10 8 6-1 5-7 8-12 13-15 13-16 10-15 8-20 8-13 5-17 4-14 3-18 3-34 4 2 4 15 16 9 9 8 7 3 2h12l18-4 10-4 6-3 5-2v4h-2l-2 5-23 23 4 4 16 10 10 7 6 3 4 1h14l12-3 20-8 15-8 18-11 4-3h3l-2 6-6 9-8 10-7 9-13 15-3 5 2 3 10 4 30 8 7 1 6-5 4-6 5-5 13-17 7-10 11-18 6-9 12-19 8-16 9-17 7-14 4-1 21 10 7 3 1 4-6 10-8 18-8 13-4 9 1 6 5 10 3 10 1 7 1 17v204l-2 17-6 16-7 14-7 9h-2l-2 4-12 10-10 6-19 7-13 2-38 1h-412l-140-1-16-3-16-6-12-7-12-11-9-12-6-10-6-15-3-20-1-72v-147l3-16 7-18 8-12 14-14 11-7 12-6 7-3 16-3 327-1-5-10-7-11v-9l6-9 4-3 4-1h54l31-4 25-6 26-9 17-9 14-9 14-12 12-13zm-197 111-336 1-14 4-12 6v2l-6 2-4 3v2l-4 2v2l-5 1-5 8-2 1-3 6-1 4-3 1-2 7-4 10-1 6-1 98v28l1 101 4 25 2 2 2 6 6 9 6 10 4 4h2l1 3h2l2 4 9 6 6 3h2v2l7 2 10 4 3 1h611l4-3 6-2 7-3 6-3v-2l5 1 6-7 6-5v-2l3-1 4-5 2-1 5-10 3-4 1-4 2-6v-2h2l2-10 1-1v-129l-4-2-1-9v-12l1-11 3-8-1-24-3-33-2-4-5 1-5 3-1-2-1-15-2 2-2 5-4 2-5 9-2 3v226l-3 9-3 5-3 3v3l-4 2-7 8-6 3-8 2-2 1h-602l-7-2-10-2-5-2v-2l-8-7-2-3h-2l-1-7h-2v-6l2 2 4 9 5 7 10 7 9 3 9 1h597l9-2 12-6 7-7 6-10 2-7v-219l-1-2-3 1-12 16-10 13-13 15-8 8v2l-4 2-3 1h-15l-8-2-18-5-19-6-20-7-12-6-12-5-12-6-22-12-16-10-16-12-11-8-11-9-8-7h-2l-2-4-12-12h-361l-16 4-12 7-7 9-3 6-3 10v233h-2l-1-3v-213l1-13 1-2 1-10 6-12 4-5v-2l5-2 7-4 7-3 368-1-2-5h-2l-2-4-5-6-5-5-10-13z" fill="#87419A"/>
<path transform="translate(936,676)" d="m0 0 4 2 10 13 11 12 1 3h2l2 5-368 1-14 7-5 2-2 4-5 8-3 7-1 10-1 2-1 20-1 113-4 5h-15l-9 4-3-4-1-26v-38l1-82 2-8 6-16h2l1-4 3-6 5-5 3-5h4l2-4h2v-2l8-5h2v-2l15-7 11-3z" fill="#7B3088"/>
<path transform="translate(623,863)" d="m0 0h544l10 3 7 8 1 8-3 7-8 6h-552l-8-5-3-5-1-8 3-7 6-5z" fill="#7B3088"/>
<path transform="translate(625,928)" d="m0 0h544l9 3 5 5 2 5-1 9-4 5-5 3-4 1-515 1-32-1-7-3-5-6-1-3v-7l2-5 6-5z" fill="#7B3088"/>
<path transform="translate(475,1767)" d="m0 0h42l8 25 26 84 1 1 16-49 18-55 2-6h42v146h-28v-112l-12 36-16 49-9 27h-29l-17-55-14-46-3-10v111h-27z" fill="#9E39CB"/>
<path transform="translate(1464,234)" d="m0 0 6 5 10 13 10 14 11 18 8 15 8 19 7 20 6 23 3 16 2 26 1 36v613l-3 26-8 34-6 18-6 15-8 16-9 16-7 11-10 14-9 12h-2l-2 4-15 16-3 1v2l-8 7-13 11-19 13-14 9-19 10-19 8-24 8-19 5-18 3-19 2h-49l-10-2-7-2-16 2-12 2h-560l-24-3-25-5-30-10-16-7-16-8-16-9-19-13-17-14-10-9-14-14-7-8-11-14-11-16-11-19-12-24-8-22-6-21-5-25-3-33v-327l1-80 2-10 2-1v432l1 1v11l2 15 2 9v5l3 5 1 6 6 17 3 9 1 7h2l1 7h2l6 11 4 10 6 9 7 11v3l3 1 6 8 10 13 6 7v2h2v2l4 2v2l4 2v2l2 1 5 4v2l6 2v2l4 2v2l4 1v2l4 2 6 5 9 5 3 3 1 3 16 9 7 2 5 3 4 1 2 2 9 3 12 5h2l1 2 11 3v2l4-1 18 4 6 2 13 1 3 2 31 2h452l14-1h85l18-4h6l10 3 8 1 9 1h22l32-2h2l1-2 16-1 1-2 10-1 10-3 9-3h4l1-2 12-5 4-2 8-2 1-2 5-2 6-2 1-2h4l1-3 5-2 4-2 3-1 2-2 4-1v-3l7-4 3-2h3l1-3h2l2-4 11-7 9-9h2l1-3h2l1-4 7-6 7-8 9-11 5-8 5-7h2l2-6 4-5 1-3h2l2-8h2l1-4 3-7 5-9 1-4 2-1 1-7 6-14 2-9h2l-1-3 3-7 2-15 1-5 1-9 1-10h2l-1-4 1-9v-609l-1-37h-1v-10l-1-15-2-6h2v-2l-2-1-2-14-2-4-2-7-3-9v-3h-2l-1-6-2-5-1-5-2-1-5-13-2-3v-3h-2l-8-16-4-7-2-2-1-4h-2l-8-12-1-3h-2v-2h-2l-2-6-3-4z" fill="#EEDEF6"/>
<path transform="translate(1264,649)" d="m0 0 6 1 16 8 9 4 1 4-6 10-8 18-8 13-4 9 1 6 5 10 3 10 1 7 1 17v204l-2 17-6 16-7 14-7 9h-2l-2 4-12 10h-2l2-4 3-1 1-3h2l1-3 5-4 2-3h2l1-3h2l1-5 6-9 1-4 3-8h2v-8l2-3v-129l-3-2-2-9v-12l1-11 3-8-1-24-3-33-1-3-5 1-6 3-1-3-1-13-3 6-4 1-2 6-4 6v226l-3 9-3 5-3 3-1 3-8 7-3 4-6 3-8 2-2 1h-602l-7-2-10-2-5-3v-2l-4-2-6-6v-2h-2l-1-7h-2l-1-6 2-3 5 12 5 8 10 7 9 3 9 1h597l9-2 12-6 8-9 5-10 1-4v-221l-5 5-15 20-6 7-8 6-6 7h-2l-2 4-7 6-4 2h-11l-6-2-9-1-2-2-9-2-9-4-9-3-5-6-1-4 6-7 1-4v-6l2-2 5 1 1 1 8 1 3 2 9 2 7 2 11 1 2-4 3-3h3l1-7 14-18 8-11 10-16 9-14 12-19 8-16 9-17 7-14z" fill="#72449B"/>
<path transform="translate(1243,1767)" d="m0 0h39l5 8 10 17 11 19 14 24 15 26 8 14v-108h27v146h-39l-10-17-14-24-13-23-14-24-12-21v12l1 23v73l-1 1h-27z" fill="#BF5ECC"/>
<path transform="translate(1099,1523)" d="m0 0h38l7 10 10 18 22 38 10 17 14 24v-107h27l1 1v144l-1 1h-38l-6-9-28-49-15-26-12-21-2-5h-2l1 5 1 22v82l-1 1h-25l-1-1z" fill="#7814B3"/>
<path transform="translate(1265,1523)" d="m0 0h30v57h58v-57h30v146h-30v-63h-58v62l-1 1h-29l-1-1v-144z" fill="#7713B2"/>
<path transform="translate(1409,1767)" d="m0 0h31v57h57v-56l1-1h29v146h-29l-1-1v-62h-57v63h-31z" fill="#9E3ACB"/>
<path transform="translate(700,1767)" d="m0 0h38l7 19 13 37 14 40 11 31 6 17v2h-33l-6-18-5-16-53-1-2 10-8 25h-33l2-9 15-42 18-52 9-25 6-17zm18 24-7 24-10 33v4h37l-7-24-11-36z" fill="#BF5ECC"/>
<path transform="translate(1136,1767)" d="m0 0h38l13 37 14 40 10 28 14 40v1h-33l-3-8-8-26-53-1-3 12-7 22-1 1h-32l2-9 18-52 10-28 19-54zm18 24-13 43-5 18h37l-1-7-13-42-3-11z" fill="#BF5ECC"/>
<path transform="translate(1193,511)" d="m0 0h10l11 2 19 9 11 7 18 10 9 6 14 8 14 10 7 7 8 13 3 9 1 6v16l-4 13-3 6-5-2-12-7-9-5-15-9-12-7-8-5-20-12-9-5-31-19-9-5-13-8-15-9-2-4 5-7 11-9 10-5 10-3z" fill="#72449B"/>
<path transform="translate(752,1523)" d="m0 0h83l1 1v24l-1 1h-52v31h48l1 1v24l-1 1h-48v37h52l1 1v24l-1 1h-82l-1-1z" fill="#7915B3"/>
<path transform="translate(602,1523)" d="m0 0h30l4 10 12 38 14 45 5 21 5-18 6-21 10-31 13-41 2-3h30l-1 7-14 40-12 36-16 47-6 16h-33l-3-6-12-36-16-47-18-53z" fill="#7814B3"/>
<path transform="translate(955,1521)" d="m0 0h10l16 2 16 5 6 3 1 2-9 21-3 1-18-6-7-1h-12l-8 3-3 3-1 3v9l3 5 9 6 16 8 14 8 9 7 6 7 4 11 1 6v8l-2 10-5 10-6 7-10 6-15 5-13 1h-11l-18-3-15-6v-28l5 1 24 8 5 1h17l8-3 4-5 1-7-2-7-7-6-23-12-9-5-9-7-7-8-4-9-1-4v-17l4-12 8-10 12-7 11-3z" fill="#7814B3"/>
<path transform="translate(1339,374)" d="m0 0 8 1 10 5 7 8 1 9-65 130-2 3-7-1-16-10-20-12-8-5 1-5 9-12 8-12 7-10 12-17 10-15 8-11 9-13 7-10 9-13 6-7z" fill="#73459B"/>
<path transform="translate(790,1767)" d="m0 0h33l28 56 1 3h2l2-6 21-42 6-11h33l-2 6-10 18-14 26-10 18-11 20-1 58h-30l-1-1-1-57-15-28-12-22-17-32-2-3z" fill="#9F3BCB"/>
<path transform="translate(592,685)" d="m0 0 5 1 4 5 5 10 3 3-1 4-2 3-10 2-12 6-5 2-2 4-5 8-3 7-1 10-1 2-1 20-1 113-4 5h-15l-9 4-3-4-1-26v-38l1-82 2-8 6-16h2l1-4 3-6 5-5 3-5h4l2-4h2v-2l4-3z" fill="#7C1FA4"/>
<path transform="translate(971,493)" d="m0 0h14l11 4 10 6 5 5v2h2l7 12 2 9v14l-2 9-6 10-6 7-8 6-10 4-8 1h-9l-10-2-11-6-5-4-8-11-3-6-2-7v-17l4-10 3-6 9-10 10-6z" fill="#864199"/>
<path transform="translate(988,1767)" d="m0 0h30v120h59v26h-89z" fill="#C060CD"/>
<path transform="translate(1464,234)" d="m0 0 6 5 10 13 10 14 11 18 8 15 8 19 7 20 6 23 3 16 2 26 1 36v613l-3 26-8 34-6 18-6 15-8 16-9 16-7 11-10 14-9 12h-2l-2 4-15 16-3 1v2l-8 7-13 11-19 13-14 9-19 10-19 8-24 8-19 5-18 3-19 2h-49l-10-2-7-2-16 2-12 2h-560l-24-3-25-5-30-10-12-5 4-1 20 8 13 4 19 4 18 3 19 2h559l20-3h9l15 3h43l26-3 20-4 23-6 16-6 19-8 12-7 10-5 10-6 16-12 10-8 7-6h2v-2l8-7 7-7 1-2h2l2-4 10-11 11-15 11-17 8-14 10-21 12-36 3-12 1-2 4-30v-664l-4-35-2-5-2-8-6-20-6-17-8-15-8-17-7-10-7-11-5-5-10-12-2-3z" fill="#DBBAED"/>
<path transform="translate(1243,1767)" d="m0 0h39l5 8 10 17 11 19 8 14v3l-2 1h-28l-4-4-12-21v12l1 23v73l-1 1h-27z" fill="#9D39CB"/>
<path transform="translate(475,1767)" d="m0 0h42l8 25 8 26 1 10-1 1h-21l-3-4-7-23v111h-27z" fill="#9E39CB"/>
<path transform="translate(1032,1523)" d="m0 0h30v145l-1 1h-29l-1-1v-144z" fill="#7814B2"/>
<path transform="translate(623,863)" d="m0 0h544l10 3 7 8 1 8-3 7-8 6h-552l-8-5-3-5-1-8 3-7 6-5zm4 3-7 1-2 4h-2v3h-3v11h2l2 4 2 2 10 2h499l3 1h30l16-3 3-3 3-6v-5h-2l-1-4-6-6z" fill="#9247A4"/>
<path transform="translate(533,1821)" d="m0 0 2 3 15 49 2 4 16-49h24l-2 9-16 49-9 27h-29l-17-55-9-30 1-2 1 3 21-1z" fill="#BF5FCD"/>
<path transform="translate(1409,1767)" d="m0 0h31v57h57v1h-58v-57h-29v88h28l1-7h59v7h29v57h-29l-1-1v-62h-57v63h-31z" fill="#C061CD"/>
<path transform="translate(592,676)" d="m0 0h5l-1 3-10 3-9 5h-3v2l-8 5h-2v2l-4 4-5 2-4 7-3 1-1 5-3 5-2 1-2 7-4 10-1 6-1 98v28l1 101 4 25 2 2 2 6 6 9 6 10 5 4 7 8 9 5 6 3v2l7 1 10 4 3 1h611l4-3 6-2 7-3 5-2 1-2 5 1-3 3-8 4-16 6-13 2-38 1h-412l-140-1-16-3-16-6-12-7-12-11-9-12-6-10-6-15-3-20-1-72v-147l3-16 7-18 8-12 14-14 11-7 12-6z" fill="#8F45A1"/>
<path transform="translate(700,1767)" d="m0 0h38l7 19 12 34 1 8-1 1h-25l-2-1-11-36-10 33h-2l-1 4h-26v-7l14-40 5-14z" fill="#9E3ACB"/>
<path transform="translate(1136,1767)" d="m0 0h38l13 37 7 20-1 5h-25l-2-4v-3h-2l-8-26-1-4-9 29-2 7-2 1h-25l-1-4 2-9 16-46z" fill="#9E3ACB"/>
<path transform="translate(1243,758)" d="m0 0h1l1 7v219l-3 9-3 5-3 3-1 3-8 7-3 4-6 3-8 2-2 1h-602l-7-2-10-2-5-3v-2l-4-2-6-6v-2h-2l-1-7h-2l-1-6 2-3 5 12 5 8 10 7 9 3 9 1h597l9-2 12-6 8-9 5-10 1-4v-221l-5 5-10 13-2-1 2-4 10-12 3-5z" fill="#9749A8"/>
<path transform="translate(1130,564)" d="m0 0h7l2 1v2l4 2 16 11 3 2v5l-4 5-2-1 3-4-1-5-12-8-11-8-5 2-7 7-7 8-13 11-15 9-15 8-29 10-22 5-31 4h-54l-7 3-6 9v9l10 16 1 5-2 1-325 1-16 3-11 5-12 6-10 8-11 11-7 11-7 18-3 16v147l1 72 3 20 6 15 8 13 8 10 10 9 12 7 19 7 13 2 140 1h412l38-1 16-3 16-6 11-7 11-9 2-3h2l2-4 7-10 7-16 3-9 1-6h1v7l-7 19-1 1-1 7-13 16-8 7h-2l-1 3-9 6-9 4h-7l-1 3-13 1-2 1-10 1h-579l-13-2-13-1-2-1v-2h-7l-10-5-4-3v-2l-4-1-9-7v-2l-3-1-7-10v-2h-2l-8-16-3-7-1-13-1-3-2-104v-49l1-81 4-15 8-16 6-9 16-16 12-7 16-7 11-3 44-1h286l-3-7-4-7-3-5v-11l4-7 7-6 3-1h16l21 1 30-2 31-5 11-3 10-3 12-5 13-5 12-7 8-5h2v-2l6-4 20-20z" fill="#DBBAED"/>
<path transform="translate(365,621)" d="m0 0 1 3v429l1 1v11l2 15 2 9v5l3 5 1 6 6 17 3 9 1 7h2l1 7h2l6 11 4 10 6 9 7 11v3l3 1 6 8 10 13 6 7v2h2v2l4 2v2l4 2v2l2 1 5 4v2l6 2v2l4 2v2l4 1v2l4 2 6 5 9 5 3 3 1 3 16 9 7 2 5 3 4 1 2 2 9 3 12 5h2l1 2 11 3v2l4-1 18 4 6 2 13 1 3 2 14 1v2l22 1v1h-17l-26-3-24-5-9-2-18-6-12-5-8-2-16-8-16-9-19-13-17-14-10-9-14-14-7-8-11-14-11-16-11-19-12-24-8-22-6-21-5-25-3-33v-327l1-80 2-10z" fill="#EFDFF6"/>
<path transform="translate(1410,1829)" d="m0 0h117v27h-29v-7h-59l-1 7h-28z" fill="#AF4BCC"/>
<path transform="translate(988,1767)" d="m0 0h30v82l-1 7h-28l-1-20z" fill="#9D38CB"/>
<path transform="translate(1155,592)" d="m0 0v3l-9 10-5 5-9 8-13 10-18 10-10 5-16 6-10 4-12 4-19 4-21 3-12 2-21 1 6 8 11 12 7 7 11 9 7 1 21-4 10-3 12-7 4-1 1 3-4 6-9 10-15 15v4l6 2 24 16 5 2h17l9-2 14-5 3-2h3v-3l6-3 9-5h4v-2l9-5 3-3h3v-2l6-4h5l2 4-4 10-3 1-1 4h-2l-1 4-7 9h-2l-1 4-8 9-2 3h-2l-1 4-6 7 2 2 21 5 4 2 8 2 1 1h11l2-4 7-7 4-7 8-10h2l1-4 8-11 4-7 5-8 6-10h2v-3l2-1 2-5h2l2-6 3-7h2l1-5 3-5 5-5 2-9 7-13 3-6h2l2-4 6 2 1 3 9 3 16 8 1 2v7h-3v7l-4 9h-2l-2 6-3 1-2 5-6 10-3 10 5 12 3 10 3 23v201l-2 17h-1v-215l-1-17-2-9-3-10-5-10 1-7 6-11 6-10 8-18 5-8v-4l-9-3-19-9h-3l-8 16-8 15-8 16-10 16-7 11-11 17-7 11-9 11-9 12h-2l-2 4-6 7-6 1-28-8-9-3-7-3-2-4 12-14 9-11 13-17 5-9 1-2-9 5-11 7-18 10-19 8-10 3-5 1h-14l-8-3-11-7-15-10-5-3-2-4 15-14 9-9 2-4h2l-1-3-11 6-17 5-10 2h-12l-8-7-10-9-12-12-7-8v-4l42-5 24-5 17-4 20-8 19-8 9-5 17-11 10-9 8-7z" fill="#DBBAED"/>
<path transform="translate(632,138)" d="m0 0h638l27 3 28 6 20 6 27 11 25 13 21 14 9 7 16 13 20 20 2 7h-3l-2-3-1-3-4-1-6-7-2-5-12-11v-2l-5-2v-2l-4-2-10-7-5-2-10-6-8-5-9-5-11-6-9-3-5-3-5-2v-2h-6l-3-2-14-4-9-2-12-3-2-1-12-1-3-2-11-1h-8l-3-1h-7l-8-2h-617l-3-1v2l-14 1-4 1-15 1-4 2-12 1-4 2-11 2-6 2-7 2-10 2-2 2-13 5-7 3-5 2-8 4-12 7-7 5-6 3-5 2v2l-8 5h-2v2h-2v2l-6 4-11 10-5 4-5 6h-2l-2 4-5 5-3 1-2 4-3 5h-2l-2 4-10 13-4 8-7 10h-2l-2 7-8 16-1 3-2 1-2 7-2 4-2 7-1 3-2 7-3 9-3 11-2 3-1 10-2 5-1 26-1 8h-1v-27l2-16 6-23 9-27 14-29 10-16 11-16 10-13 15-16 15-15 11-9 12-9 15-10 16-9 16-8 19-8 18-6 20-5 17-3 14-2z" fill="#F3E7F8"/>
<path transform="translate(625,859)" d="m0 0h7v2h537l6 3 7 2 4 5v18l-4 5-5 3h-559l-5-3-6-8v-12l2-5h2l2-4 7-4h5zm-2 4-8 5-3 3-2 6 1 8 3 5 8 5h552l8-6 3-7-1-8-7-8-10-3z" fill="#E2C8F0"/>
<path transform="translate(618,927)" d="m0 0h559l8 6 1 1v19l-4 5-8 3-1 1h-551l-2-2-5-2-4-3-3-6v-11l4-7zm7 1-8 3-5 5-1 4v7l3 6 6 5 4 1 44 1 503-1 7-3 5-5 2-5-1-8-3-5-7-4-5-1z" fill="#DBBAED"/>
<path transform="translate(629,1789)" d="m0 0h1v124h-28v-100h1v16h26z" fill="#BF5DCC"/>
<path transform="translate(610,712)" d="m0 0h361l14 14v2l4 2 11 9 6 5 12 9 15 11 13 8 19 11 24 12 15 6 9 4 14 5 19 6 18 5 8 2h15l5-3h2l2-4 10-10 9-11 14-18 5-5-2 4-7 10-4 6h-2l-2 4-12 14-7 8-7 6-6 2h-12l-10-3-12-3-7-2-33-11-1-1-11-2v-2l-7-1-13-6-1-2-6-2v-2l-6-1-8-4-9-6-6-3v-2l-7-2v-2l-5-1-16-12-2-1v-2l-5-2-4-3v-2h-3l-4-4v-2l-4-1-5-5-7-6v-2h-3l-7-8-3-2h-339l-21 1-8 1-10 5-6 2-6 7-4 8-2 6-1 8-1 229 3 1 1 9h2l3 9 5 5-1 2-5-5-5-7-4-11v-238l4-13 8-11 9-6 11-4z" fill="#F2E6F7"/>
<path transform="translate(500,1798)" d="m0 0 2 1v114h-27v-84l25-1z" fill="#BF5DCC"/>
<path transform="translate(911,397)" d="m0 0h15l7 3 6 5 4 6 2 6v12l-4 7-6 7-5 3-7 2h-9l-7-3-10-9-3-6v-16l7-11 7-5z" fill="#89429C"/>
<path transform="translate(1287,679)" d="m0 0 1 2-8 16-6 10-4 9 1 6 5 10 3 10 1 7 1 17v204l-2 17-6 16-7 14-7 9h-2l-2 4-12 10h-2l2-4 3-1 1-3h2l1-3 5-4 2-3h2l1-3h2l1-5 6-9 1-4 3-8h2v-8l2-3v-129l-3-2-2-9v-12l1-11 3-8-1-24-3-33-1-3-5 1-6 3-1-3-1-13-3 6-3 1 2-5 4-8 2-10 8-11 2-4h2l1-6h2l1-4h2l1-6 5-10z" fill="#8D449F"/>
<path transform="translate(1205,1303)" d="m0 0h6l10 3 8 1 9 1h22l13-1 2 2-7 1h-48l-8-2h-9l-20 3h-542l-22-2 3-2 14 1h452l14-1h85z" fill="#EFDFF6"/>
<path transform="translate(1116,1821)" d="m0 0 1 4v3h26l-2 9-4 14 36 1-8-26 1-4 2 6h25l2-2 8 23v7h-96l-1-4 3-11z" fill="#B14FCD"/>
<path transform="translate(867,1855)" d="m0 0h1v58h-30l-1-1v-56h29z" fill="#C060CD"/>
<path transform="translate(757,1823)" d="m0 0 2 2 6 18 2 9v4h-97l1-8 8-23 1 4 26-1 2-3-1 7-6 20 36-1-6-20 1-3h25z" fill="#B14FCD"/>
<path transform="translate(1243,1767)" d="m0 0h39v1h-38l1 88h25v-17h1v73l-1 1h-27z" fill="#C062CE"/>
<path transform="translate(1345,1767)" d="m0 0h27v62h-26l-1-2z" fill="#9D38CB"/>
<path transform="translate(612,885)" d="m0 0h3l4 5 10 2h499l3 1h30l11-2h4v3l-2 1h-552l-8-5-2-2z" fill="#844097"/>
<path transform="translate(777,1479)" d="m0 0h36l11 13 11 12 3 4v3h-21l-13-9-8-7-4 2-13 10-6 4h-21l1-4 7-7 9-11z" fill="#7714B2"/>
<path transform="translate(1193,511)" d="m0 0h10l11 2 19 9 11 7 18 10 2 4-5-2-12-6-5-3v-2l-5-1-7-5-10-4-3-2-9-3h-12l-7 9-1 15-2 5v7l2 4 9 6 6 5 9 5v2l6 1v2l6 2 5 4 9 5 2 4-5-2-11-7-10-5-14-9-10-6-9-5-13-8-15-9-2-4 5-7 11-9 10-5 10-3z" fill="#88429B"/>
<path transform="translate(592,676)" d="m0 0h5l-1 3-10 3-9 5h-3v2l-8 5h-2v2l-4 4-5 2-4 7-3 1-1 5-3 5-2 1-2 7-4 10-1 6-1 98v28l1 101 4 25 2 2 2 6 6 9 6 10 5 4 7 8 9 5 6 3v2l7 1 10 4 3 1v2l-7-1-16-6-12-7-12-11-9-12-6-10-6-15-3-20-1-72v-147l3-16 7-18 8-12 14-14 11-7 12-6z" fill="#9347A4"/>
<path transform="translate(1279,981)" d="m0 0h1v7l-7 19-1 1-1 7-13 16-8 7h-2l-1 3-9 6-9 4h-7l-1 3-13 1-2 1-10 1h-579l-13-2-13-1-2-1v-2h-7l-10-5-4-3v-2l-4-1-9-7v-2l-3-1-7-10v-2h-2l-8-16-3-7v-8h1l4 13 3 3 6 11 6 9 9 10 12 9 16 7 9 3 13 2 140 1h412l38-1 16-3 16-6 11-7 11-9 2-3h2l2-4 7-10 7-16 3-9z" fill="#DBBAED"/>
<path transform="translate(823,1829)" d="m0 0h59l-2 6-11 20h-2l-1 2-29-1-8-14-6-11z" fill="#AF4CCC"/>
<path transform="translate(613,939)" d="m0 0 1 2v6l3 5 6 4h548l7-4 5-6 1 4-4 5-5 3-4 1-515 1-32-1-7-3-5-6-1-3v-7z" fill="#A04DB0"/>
<path transform="translate(625,928)" d="m0 0h544l9 3 5 5 2 5v5l-2-4-3-3v-3l-3-1v-2l-6-1-1-1h-546l-2 2-6 2-4 4 1-4 6-5z" fill="#A14DB1"/>
<path transform="translate(1338,371)" d="m0 0h7l10 3 5 4v2l3 1v2l3 1 3 7v7l-3 5-8 14-3 1-1 4-9 19-4 7-2 9-7 13-4 7-3 7-6 13h-2l-1 6h-2l-1 5-2 2-5 13-6 10h-9l-6-4v-2l-6-2-11-6-5-3-1-4-5-2-10-6-1-1 1-7 8-11 6-9 3-7 4-5 5-9h2l1-3h2l1-5 3-5 3-3 4-6h3l2-4 13-19 2-3h2l2-5 6-9 3-7 7-10h2v-2zm1 3-7 4-9 11-9 14-8 11-8 12-6 8-15 22-7 10-12 17-9 13-2 3 1 4 12 7 28 17 5 3h5l8-15 16-32 9-17 9-19 8-16 13-25 4-9-1-9-8-9-12-5z" fill="#E7D1F3"/>
<path transform="translate(1243,758)" d="m0 0h1l1 7v219l-3 9-3 5-3 3-1 3-8 7-3 4-6 3h-6v-2l14-7 8-9 5-10 1-4v-221l-5 5-10 13-2-1 2-4 10-12 3-5z" fill="#9246A3"/>
<path transform="translate(376,1118)" d="m0 0 3 3v4h3l3 10v3h2l1 7h2l6 11 4 10 6 9 7 11v3l3 1 6 8 10 13 6 7v2h2v2l4 2v2l4 2v2l2 1 5 4v2l6 2v2l4 2v2l4 1v2l4 2 6 5 9 5 3 3 1 3 16 9 7 2 5 3 4 1 2 2 9 3 12 5h2l1 2 11 3v2l4-1 18 4 6 2 13 1 3 2 14 1v2l22 1v1h-17l-26-3-24-5-9-2-18-6-12-5-8-2-16-8-16-9-19-13-17-14-10-9-14-14-7-8-11-14-11-16-11-19-12-24-7-19z" fill="#EDDCF6"/>
<path transform="translate(594,142)" d="m0 0h13l-8 4-12 1-4 2-11 2-6 2-7 2-10 2-2 2-13 5-7 3-5 2-8 4-12 7-7 5-6 3-5 2v2l-8 5h-2v2h-2v2l-6 4-11 10-5 4-5 6h-2l-2 4-5 5-3 1-2 4-3 5h-2l-2 4-10 13-4 8-7 10h-2l-2 7-8 16-1 3-2 1-2 7-2 4-2 7-1 3-2 7-3 9-3 11-2 3-1 10-2 5-1 26-1 8h-1v-27l2-16 6-23 9-27 14-29 10-16 11-16 10-13 15-16 15-15 11-9 12-9 15-10 16-9 16-8 19-8 18-6 20-5z" fill="#F1E4F7"/>
<path transform="translate(723,1723)" d="m0 0h35l-2 4-15 13-10 8-9 7h-21l1-5 12-14z" fill="#7915B3"/>
<path transform="translate(993,424)" d="m0 0h12l8 6 3 8-1 8-4 7-7 4h-11l-7-4-4-6v-13l4-6z" fill="#8A439C"/>
<path transform="translate(1316,1826)" d="m0 0 3 4 13 22-1 4-30 1-8-13-8-14 1-2h30z" fill="#B04DCC"/>
<path transform="translate(567,750)" d="m0 0 2 1v230h-2l-2-3v-213l1-13z" fill="#9045A2"/>
<path transform="translate(1155,592)" d="m0 0v3l-9 10-5 5-9 8-13 10-18 10-10 5-16 6-10 4-12 4-19 4-21 3-12 2-21 1 6 8 11 12 7 7 11 9 7 1 21-4 10-3 12-7 4-1 1 3-4 6-9 10-15 15v4l6 2 24 16 5 2h17l9-2 14-5 26-13 9-6 11-7 5-1-3 9-10 14-10 13-2-1 7-9 11-15 4-8-9 5-11 7-18 10-19 8-10 3-5 1h-14l-8-3-11-7-15-10-5-3-2-4 15-14 9-9 2-4h2l-1-3-11 6-17 5-10 2h-12l-8-7-10-9-12-12-7-8v-4l42-5 24-5 17-4 20-8 19-8 9-5 17-11 10-9 8-7z" fill="#DBBAED"/>
<path transform="translate(988,1806)" d="m0 0h1v23h28v-13h1v33l-1 7h-28l-1-20z" fill="#AF4BCC"/>
<path transform="translate(610,712)" d="m0 0h361l14 14-1 2-13-12-2-2h-355l-16 3-9 3v2l-6 4-6 8-3 6-2 6-1 8-1 229 3 1 1 9h2l3 9 5 5-1 2-5-5-5-7-4-11v-238l4-13 8-11 9-6 11-4z" fill="#DBBAED"/>
<path transform="translate(1149,1926)" d="m0 0h11l8 4 3 6v10l-4 6-6 3h-13l-7-4-3-6v-9l3-6 4-3z" fill="#C163CE"/>
<path transform="translate(788,1682)" d="m0 0h14l5 3 4 5 1 9-3 8-7 4h-13l-6-3-4-5v-13l6-7z" fill="#7A16B4"/>
<path transform="translate(618,927)" d="m0 0h559l8 6 1 1v19l-4 5-7 1v-2l6-4 3-7-1-8-2-5-5-2-7-2h-544l-8 3-4 4-1 4v7l3 6 5 4v2l-5-1-4-3-3-6v-11l4-7z" fill="#DBBAED"/>
<path transform="translate(500,1798)" d="m0 0 2 1v52l-1 5h-26v-27l25-1z" fill="#AF4BCC"/>
<path transform="translate(602,1813)" d="m0 0h1v16h26v27h-27z" fill="#AF4BCC"/>
<path transform="translate(922,652)" d="m0 0 4 5 5 9 1 5-286 1-44 1-7 2-4-1 3-2 15-2 2-1 317-1-2-5-3-6z" fill="#F2E6F7"/>
<path transform="translate(1180,512)" d="m0 0h7v1l-13 4-10 6-6 6h-2l-4 8 4 4 19 11 11 7 16 9 14 9 14 8 15 9 12 7 7 5 11 6 10 6 9 5 15 9h2l4-10 2-8v-16l-3-13-7-12v-3l6 8 3 6v3l4 1 2 13v9l-2 12-4 9h-2l-1 4h-7l-9-5-15-9-1-2-5-2-11-6-7-5-11-6-10-6-13-8-9-5-5-3v-3l-4-2-12-7-9-5-15-9-18-11-3-3 2-5 4-5 8-7 9-6z" fill="#E5CDF2"/>
<path transform="translate(1345,1827)" d="m0 0 1 2h26v27h-25l-2-6z" fill="#AF4BCC"/>
<path transform="translate(1269,1816)" d="m0 0h1v40h-25l-1-2v-27l2 1 23 1z" fill="#AF4BCC"/>
<path transform="translate(533,1821)" d="m0 0 2 3 6 20 2 12h-23l-3-5-7-23 1-2 1 3 21-1z" fill="#B04DCC"/>
<path transform="translate(568,1828)" d="m0 0h24l-2 9-6 18-1 2-23-1 1-7z" fill="#B04ECC"/>
<path transform="translate(910,393)" d="m0 0h19l7 4 4 4v2l3 1 4 6 2 7v11l-4 9-5 7-6 4-7 3h-16l-2-1v-2l-7-1v-2l-4-2-6-8v-7h-2l-1-2v-9l7-14 5-4 3-3zm1 4-9 5-7 10-1 2v16l5 8 9 8 6 2h9l9-3 7-6 5-7 1-3v-12l-4-9-6-7-5-3-4-1z" fill="#EFE0F6"/>
<path transform="translate(985,728)" d="m0 0 4 2 11 9 6 5 12 9 15 11 13 8 19 11 24 12 15 6 9 4 14 5 19 6 18 5 8 2h15l5-3h2l2-4 10-10 9-11 14-18 5-5-2 4-7 10-4 6h-2l-2 4-12 14-7 8-7 6-6 2h-12l-10-3-12-3-7-2-33-11-1-1-11-2v-2l-7-1-13-6-1-2-6-2v-2l-6-1-8-4-9-6-6-3v-2l-7-2v-2l-5-1-16-12-2-1v-2l-5-2-4-3-3-5-5-4-2-1v-2l-3-1v-2l-4-2z" fill="#E4CCF1"/>
<path transform="translate(1238,765)" d="m0 0h2l1 2v219l-4 11-4 4 2-5 2-17 1-28v-149l-1-9v-21h-3l2-4z" fill="#EDDBF6"/>
<path transform="translate(1177,865)" d="m0 0 5 1 4 5v18l-4 5-5 3h-555v-1l553-1 5-3h2l2-5v-10l-4-7-3-3z" fill="#EAD6F5"/>
<path transform="translate(600,1054)" d="m0 0 17 2h579l10-1 6-1-2 3-11 1h-584l-12-1z" fill="#F2E6F7"/>
<path transform="translate(1292,671)" d="m0 0 1 3-10 21-8 13-3 10 5 12 3 10 3 23v201l-2 17h-1v-215l-1-17-2-9-3-10-5-10 1-7 6-11 6-10 8-18z" fill="#DBBAED"/>
<path transform="translate(1276,139)" d="m0 0 11 1 15 2 27 6 24 8 21 9 23 12 21 14 9 7 16 13 20 20 2 7h-3l-2-3-1-3-4-1-6-7-2-5-12-11v-2l-5-2v-2l-4-2-10-7-5-2-10-6-8-5-9-5-11-6-9-3-5-3-5-2v-2h-6l-3-2-10-3v-2l-18-4-6-2-12-2-3-1-17-2z" fill="#EBD9F5"/>
<path transform="translate(620,959)" d="m0 0 5 1h547 3l-2 2h-551z" fill="#EAD6F5"/>
<path transform="translate(531,733)" d="m0 0h1v6l-2 6-1 81v49l2 104 1 8-3-2-1-47-2-41v-142l1-1v-8l2-10z" fill="#F0E1F7"/>
<path transform="translate(969,492)" d="m0 0h19l16 7 11 11 6 10 3 10v15l-3 10-7 12-8 8-14 7-9 2h-10l-12-3-11-6-7-7-7-10-4-13v-15l3-9 5-9 9-10 9-6zm2 1-12 5-10 6-9 10-5 12-1 3v17l3 10 8 11 5 5 9 6 7 3 7 1h9l11-2 10-5 8-7 6-8 4-9 1-6v-14l-2-9-7-12h-2l-2-4-9-7-12-5-3-1z" fill="#DBBAED"/>
<path transform="translate(1469,244)" d="m0 0 5 4 5 5 7 10 9 14 8 15 8 17 4 10 7 20 5 19 2 10 2 16v53h-1l-1-37h-1v-10l-1-15-2-6h2v-2l-2-1-2-14-2-4-2-7-3-9v-3h-2l-1-6-2-5-1-5-2-1-5-13-2-3v-3h-2l-8-16-4-7-2-2-1-4h-2l-8-12-1-3h-2v-2h-2z" fill="#EFDFF6"/>
<path transform="translate(473,1253)" d="m0 0 11 7 11 8 11 6 9 3 5 3 4 1 2 2 9 3 12 5h2l1 2 11 3v2l4-1 18 4 6 2 13 1 3 2 14 1v2l22 1v1h-17l-26-3-24-5-9-2-18-6-12-5-8-2-16-8-16-9-19-13-3-2z" fill="#ECDAF5"/>
<path transform="translate(585,723)" d="m0 0h2v3l-3 1-4 6h-2l-2 9h-2l-2 60v28l1 3v34l-1 13-1 103h-1v-229l2-10 3-8 6-9z" fill="#EFE0F6"/>
<path transform="translate(992,420)" d="m0 0h13l7 4v2l3 1 1 6h2l1 2v11l-2 2-2 6-5 4h-2v2l-3 1h-13l-7-4-4-4-1-6h-2v-13l3-5h2l2-4zm1 4-7 4-4 6v13l4 6 7 4h11l7-4 4-7 1-8-4-9-7-5z" fill="#EFDFF6"/>
<path transform="translate(364,409)" d="m0 0 2 1-1 23 1 144-2-2-1-4-1-81v-67z" fill="#F1E4F7"/>
<path transform="translate(621,1307)" d="m0 0 15 1h185l5 1v1l-154 1h-31l-22-2z" fill="#F3E7F8"/>
<path transform="translate(1163,711)" d="m0 0h5l2 4-4 10-3 1-1 4h-2l-1 4-7 9h-2l-1 4-8 9-2 3h-2l-1 4-6 7 2 2 21 5 4 2 8 2 1 2-6-1-11-3-12-3-9-2-3-5 12-14 5-6 3-1 12-16 7-10 4-9-12 6-9 6-7 4-11 6-3 2h-3v-2l6-3 9-5h4v-2l9-5 3-3h3v-2z" fill="#E6CEF2"/>
<path transform="translate(1309,407)" d="m0 0 2 1-10 15-8 11-15 22-7 10-12 17-9 13-2 3v3l12 7 22 13-3 1-10-6-9-5-13-8-1-1 1-7 8-11 6-9 3-7 4-5 5-9h2l1-3h2l1-5 3-5 3-3 4-6h3l2-4 13-19z" fill="#E5CDF1"/>
<path transform="translate(914,394)" d="m0 0h9l9 3 10 9 4 7 1 5v8l-2 8-9 10-12 6h-10l-12-6-7-8-3-9-1-6 2-9 6-9 7-6zm-3 3-9 5-7 10-1 2v16l5 8 9 8 6 2h9l9-3 7-6 5-7 1-3v-12l-4-9-6-7-5-3-4-1z" fill="#DBBAED"/>
<path transform="translate(570,748)" d="m0 0h1l-1 235 3 1 1 9h2l3 9 5 5-1 2-5-5-5-7-4-11v-237z" fill="#DBBAED"/>
<path transform="translate(1464,234)" d="m0 0 6 5 10 13 10 14 11 18 8 15 8 19 7 20 5 18v5l-3-3-3-11-6-20-6-17-8-15-8-17-7-10-7-11-5-5-10-12-2-3z" fill="#DBBAED"/>
<path transform="translate(532,987)" d="m0 0h1l4 13 3 3 6 11 6 9 9 10 12 9 16 7 9 3v2h-7l-2-1v-2h-7l-10-5-4-3v-2l-4-1-9-7v-2l-3-1-7-10v-2h-2l-8-16-3-7z" fill="#E4CBF1"/>
<path transform="translate(1180,512)" d="m0 0h7v1l-13 4-10 6-6 6h-2l-4 8 4 4 19 11 11 7 16 9 14 9 14 8 15 9 12 7 7 5h-3l-26-15-25-15-16-10-9-5-15-9-18-11-3-3 2-5 4-5 8-7 9-6z" fill="#DBBAED"/>
<path transform="translate(1219,727)" d="m0 0v3l-12 19-14 18-6 8h-2l-2 4-6 7-6 1-28-8-9-3-3-2 6 1 12 3 13 4h15l2-4 7-7 4-7 8-10h3l2-4 7-10 7-11z" fill="#E0C4EF"/>
<path transform="translate(1281,749)" d="m0 0 2 1 1 3v224l-3 3 1-16v-201z" fill="#F2E5F7"/>
<path transform="translate(1238,765)" d="m0 0h2l1 2v219l-4 11-4 4 2-5 4-13v-214l-5 3 2-4z" fill="#DBBAED"/>
<path transform="translate(709,1742)" d="m0 0 1 2h24l-4 5-8 6h-21l1-5z" fill="#A13DCB"/>
<path transform="translate(1279,981)" d="m0 0h1v7l-7 19-1 1-1 7-13 16-8 7h-2l-1 3-9 6-9 4h-7l-1 3h-7v-2l19-7 11-7 11-9 2-3h2l2-4 7-10 7-16 3-9z" fill="#E0C5EF"/>
<path transform="translate(1380,169)" d="m0 0 6 2 19 11 20 14 13 11 8 7 17 17 2 7h-3l-2-3-1-3-4-1-6-7-2-5-12-11v-2l-5-2v-2l-4-2-14-10-9-6-12-7-11-7z" fill="#E5CEF2"/>
<path transform="translate(1296,562)" d="m0 0 4 2 9 10 6 11 3 13v16l-4 13-3 6-5-2-12-7-9-5-6-4 3-2 6 5 12 6 5 4 5 1 4-9v-27l-4-12-6-9-5-5z" fill="#9B4BAC"/>
<path transform="translate(537,996)" d="m0 0 4 2 2 6 6 9 6 10 5 4 7 8 9 5 6 3v2l7 1 10 4 3 1v2l-7-1-16-6-12-7-12-11-9-12-6-10-3-7z" fill="#9347A4"/>
<path transform="translate(1233,772)" d="m0 0v3l-8 11-4 6h-2l-2 4-12 14-7 8-7 6-6 2h-12l-10-3-12-3-7-2-33-11-4-3 6 1 14 5 19 6 18 5 8 2h15l5-3h2l2-4 10-10 9-11 14-18z" fill="#DBBAED"/>
<path transform="translate(1033,619)" d="m0 0h10v1l-21 4-19 3-30 2-21-1h-16l-6 3-5 4 1-4 6-5 70-1 6-2 16-2z" fill="#EFDFF6"/>
<path transform="translate(376,1118)" d="m0 0 3 3v4h3l3 10v3h2l1 7h2l6 11 4 10 6 9 2 6 5 9-1 2-9-14-9-16-11-22-7-19z" fill="#EEDEF6"/>
<path transform="translate(1193,509)" d="m0 0h10l15 4 16 8 9 6 11 6 10 6 12 7 10 6 14 10 5 5v3l-7-7-18-12-16-9-9-6-16-9-14-8-11-5-11-2h-16l4-2z" fill="#DBBAED"/>
<path transform="translate(994,422)" d="m0 0h9l7 3 5 5 3 8-1 7-4 8-4 4-5 2h-10l-7-3-3-3v-2h-2l-2-5v-11l2-5h2l2-4zm-1 2-7 4-4 6v13l4 6 7 4h11l7-4 4-7 1-8-4-9-7-5z" fill="#DBBAED"/>
<path transform="translate(592,676)" d="m0 0h5l-1 3-10 3-9 5h-3v2l-8 5h-2v2l-4 4-5 2-4 7-3 1-1 5-7 5 2-5 7-10 13-13 11-7 12-6z" fill="#8F45A0"/>
<path transform="translate(594,142)" d="m0 0h13l-8 4-12 1-4 2-11 2-6 2-7 2-10 2-2 2-4-1 3-3 18-6 20-5z" fill="#F0E2F7"/>
<path transform="translate(1205,1303)" d="m0 0h6l10 3 8 1 9 1h22l13-1 2 2-7 1h-48l-8-2h-9l-13 1 1-3z" fill="#F1E3F7"/>
<path transform="translate(1278,982)" d="m0 0h1l-1 7-5 14-7 14-7 9h-2l-2 4-12 10h-2l2-4 3-1 1-3h2l1-3 5-4 2-3h2l1-3h2l1-5 6-9 1-4 3-8h2v-8z" fill="#9447A5"/>
<path transform="translate(473,1253)" d="m0 0 11 7 11 8 11 6 9 3 5 3 4 1 1 4 6 1 7 3-3 1-8-2-16-8-16-9-19-13-3-2z" fill="#E3C9F1"/>
<path transform="translate(1163,711)" d="m0 0h5l2 4-4 10-3 1-1 4h-2l-1 4-7 9h-2l-1 4-2 1 1-4 14-19 6-12-12 6-9 6-7 4-11 6-3 2h-3v-2l6-3 9-5h4v-2l9-5 3-3h3v-2z" fill="#F0E1F7"/>
<path transform="translate(1212,797)" d="m0 0v3l-14 15-4 5-7 4h-15l-8-2-18-5v-1h11l2 2 13 2 2 1h11l8-5 5-6 5-4 6-7z" fill="#9849A9"/>
<path transform="translate(1205,512)" d="m0 0 9 1 19 9 11 7 18 10 2 4-5-2-12-6-5-3v-2l-5-1-7-5-10-4-3-2-9-3v-2z" fill="#9749A8"/>
<path transform="translate(598,711)" d="m0 0h7l5 1v1l-16 4-12 7-6 8-3 6-4 13h-1v-11l6-12 5-7 12-7z" fill="#8F45A1"/>
<path transform="translate(1185,775)" d="m0 0h1l-1 7-5 3-3 4h-11l-9-3-9-2-1-1-8-1-2-4-3-1 2-1 24 7 11 3 6-1 7-8z" fill="#9347A4"/>
<path transform="translate(406,1178)" d="m0 0 3 1 4 7v3l3 1 6 8 10 13 6 7v2l-5-2-7-7-9-12-4-6-6-12z" fill="#F2E6F7"/>
<path transform="translate(1338,373)" d="m0 0h7l11 4 9 9 1 3v10l-4 9-5 7v-3l7-15-1-9-7-8-12-5-8 1-6 5-7 10-8 12-4 4 2-5 6-9 10-14 6-5z" fill="#DBBAED"/>
<path transform="translate(1214,799)" d="m0 0v3l-8 10-12 12-6 3-1 1h-16l-3-2-9-3-11-2-3-3h5l4 2 9 2 10 3h12l7-3 3-1 1-3h2l2-4 7-7z" fill="#F0E1F7"/>
<path transform="translate(1041,723)" d="m0 0 4 2v2l5 1 11 8 10 7 7 2 1 1h14l4-2 11-2 10-5h5l-4 3-13 5-5 2-7 1h-17l-10-5-14-10-11-6z" fill="#EFE0F6"/>
<path transform="translate(1278,453)" d="m0 0v3l-7 10-12 17-9 13-2 3v3l12 7 22 13-3 1-10-6-9-5-13-8-1-1 1-7 8-11 9-13 10-15z" fill="#DBBAED"/>
<path transform="translate(1306,570)" d="m0 0 5 5 6 12 2 5 1 9v11l-4 15-4 7-6-1-16-9-2-3 6 2 15 9h2l4-10 2-8v-16l-3-13-7-12z" fill="#DBBAED"/>
<path transform="translate(621,869)" d="m0 0h4l2 5-1 6-6 5-4-1-2-3 1-7 1-3z" fill="#7C1FA5"/>
<path transform="translate(966,491)" d="m0 0h24l6 3 10 4 5 5 8 10-1 4-6-9-8-8-16-7h-19l-12 5-9 6-6 7-1-3 6-7h2v-2l6-3z" fill="#EFE0F6"/>
<path transform="translate(1355,415)" d="m0 0 1 3-8 17-10 19-9 19-9 17-8 16-2 1 2-6 22-44 10-19z" fill="#DBBAED"/>
<path transform="translate(1311,1301)" d="m0 0h10l-1 2-7 2-26 4-17 2h-43v-1l41-1 9-2 17-1 1-2 16-1z" fill="#EDDCF6"/>
<path transform="translate(1245,681)" d="m0 0v3l-12 22-9 13-5 9-7 10-6 9-5 7-1-3 9-12 4-7 5-8 6-10h2v-3l2-1 2-5h2l2-6 3-7h2l1-5 3-5z" fill="#EFE0F6"/>
<path transform="translate(938,561)" d="m0 0 5 5 7 8 14 7 9 2h10l12-3 9-5 2 1-3 3-5 3-7 3-14 1-12-1-14-7v-2l-4-2-5-5-1-3h-2z" fill="#EFDFF6"/>
<path transform="translate(1317,587)" d="m0 0 3 1 2 13v9l-2 12-4 9h-2l-1 4h-7l-9-5-15-9-1-3 4 2 9 5 8 5 6 3h4l4-9 3-12v-11l-1-9z" fill="#EFE0F6"/>
<path transform="translate(1177,511)" d="m0 0h10v1l-9 2-9 4-6 4-6 6h-2l-2 4-3 4 2 4 20 12 5 4-6-1v-2l-5-1-7-5-9-5v-2h-2v-6h2l2-4 8-9h2v-2l8-5z" fill="#EFDFF6"/>
<path transform="translate(585,723)" d="m0 0h2v3l-3 1-4 6h-2l-2 9h-2l-2 60h-1v-56l4-10 6-9z" fill="#F3E7F8"/>
<path transform="translate(1262,650)" d="m0 0 1 2-8 16-14 27-11 18-7 11-3 3 1-5 9-13 9-16 5-9 8-15 8-17z" fill="#DBBAED"/>
<path transform="translate(618,927)" d="m0 0h7v2l-8 3-4 4-1 4v7l3 6 5 4v2l-5-1-4-3-3-6v-11l4-7z" fill="#E2C8F0"/>
<path transform="translate(569,986)" d="m0 0 2 3 4 9 5 8 10 7 9 3-2 2h-6l-7-4v-2l-4-2-6-6v-2h-2l-1-7h-2l-1-6z" fill="#9247A4"/>
<path transform="translate(368,1080)" d="m0 0 2 2 1 12 3 5 1 6 6 17-1 3-2-4-1-3h-2l-6-21-3-16z" fill="#F1E3F7"/>
<path transform="translate(555,1028)" d="m0 0 7 6 13 9 14 6 9 3v2h-7l-2-1v-2h-7l-10-5-4-3v-3l-4-2-8-7z" fill="#E3C9F0"/>
<path transform="translate(1168,927)" d="m0 0h9l8 6 1 1v19l-4 5-7 1v-2l6-4 3-7-1-8-2-5-5-2-8-3z" fill="#E2C8F0"/>
<path transform="translate(1352,378)" d="m0 0 5 2 7 8 1 9-14 28h-1l1-7 2-2 2-5 5-11 1-9-3-6-1-3-4-1z" fill="#9749A8"/>
<path transform="translate(985,728)" d="m0 0 4 2 11 9 6 5 12 9 15 11 13 8 1 2-5-2-13-8-15-11-12-9-6-5-2-1v-2l-3-1v-2l-4-2z" fill="#DBBAED"/>
<path transform="translate(1527,367)" d="m0 0 2 1 2 16v53h-1l-1-37h-1v-10l-1-15-2-6h2z" fill="#EFDFF6"/>
<path transform="translate(1360,162)" d="m0 0 5 1 10 4 5 1 3 3 9 6 11 6 9 6 2 3-4-2-9-5-8-5-9-5-11-6-9-3z" fill="#F2E6F7"/>
<path transform="translate(1204,567)" d="m0 0 8 4v2l6 1v2l6 2 5 4 9 5 2 4-5-2-11-7-10-5-12-8z" fill="#9548A6"/>
<path transform="translate(1309,510)" d="m0 0 1 4-9 18-1 1h-9l-6-4v-2l-6-2-11-6-5-3-1-3 4 2 11 6 5 2v2l5 2 6 4 6 1 2-5 5-11z" fill="#EFE0F6"/>
<path transform="translate(1060,691)" d="m0 0 3 1-7 4-7 3-10 3-17 3-7-1-6-5 3-1 1 2 7 2 17-2 4-2 9-2z" fill="#EFE0F6"/>
<path transform="translate(526,1283)" d="m0 0 9 3 12 5h2l1 2 11 3v2l4-1 7 1v3l-14-2-16-6-4-2v-2l-7-2-6-2z" fill="#ECDBF5"/>
<path transform="translate(1464,234)" d="m0 0 6 5 10 13 10 14 7 11-1 2-4-5-11-17-5-5-10-12-2-3z" fill="#DBBAED"/>
<path transform="translate(1242,590)" d="m0 0 4 2 11 6 4 3v2l5 1 12 7 1 3-5-2-11-6-11-7-12-7z" fill="#9648A7"/>
<path transform="translate(910,393)" d="m0 0h19l7 4 4 4v2l3 1 4 6 2 7v11l-2 1-2-16-5-8-8-7-9-3-13-1z" fill="#F0E2F7"/>
<path transform="translate(562,688)" d="m0 0 3 1-8 7-10 10-7 11-7 16h-1l1-9 5-9 1-3 2-1 4-7 4-5 5-3 4-5z" fill="#F0E1F7"/>
<path transform="translate(1302,420)" d="m0 0 2 1-1 4-5 5-2 3h-2l-1 6-3 5-5 4-2 5-9 10v-3l10-14 10-15z" fill="#9749A8"/>
<path transform="translate(1e3 746)" d="m0 0 4 2 13 9 14 10 10 6 4 1 2 4-5-2-3-1v-2l-7-2v-2l-5-1-16-12-2-1v-2l-5-2-4-3z" fill="#EFE0F6"/>
<path transform="translate(1239,990)" d="m0 0h3l-1 6-5 5-1 3-8 7-3 4-6 3h-6v-2l14-7 8-9z" fill="#9A4AAA"/>
<path transform="translate(1283,141)" d="m0 0 13 1 6 2 12 2 19 5 2 2h-7l-14-4-6-2-12-1-3-2-10-1z" fill="#F3E7F8"/>
<path transform="translate(1268,541)" d="m0 0 5 1 5 3v2l6 1v2l4 1 6 5 4 2v2l4 1 5 5 1 3 2 1-1 3-6-7v-2l-4-2-13-9-15-9z" fill="#F0E1F7"/>
<path transform="translate(1530,1052)" d="m0 0h1v15l-3 22-3 7h-1l1-13 1-5 1-9 1-10h2l-1-4z" fill="#F0E2F7"/>
<path transform="translate(370,354)" d="m0 0 2 1-1 2-1 10-2 5-1 26-1 8h-1v-27l2-16z" fill="#F3E7F8"/>
<path transform="translate(1216,733)" d="m0 0h3l-2 4-4 5-3 7-5 5-5 6-2 5-5 5-5 4 2-4 13-17 7-10z" fill="#9A4AAB"/>
<path transform="translate(1280,698)" d="m0 0 1 4-1 2h-2l-1 6-2 3-1 8h2l3 13 2 3v11h-1l-2-10-5-16-2-6 4-9z" fill="#EEDFF6"/>
<path transform="translate(1132,561)" d="m0 0 4 1 4 2v2l5 2 14 10 4 3v7h-3l1-1v-5l-11-7-11-8v-2h-9l-5 5v-3z" fill="#EFE1F6"/>
<path transform="translate(1058,654)" d="m0 0 4 1-7 3-10 3-8 1-7 2h-17v-1l21-3 22-5z" fill="#EFE0F6"/>
<path transform="translate(617,862)" d="m0 0h5l-4 3-6 5-3 7 1 8 4 6 8 5-4 1-5-3-6-8v-12l2-5h2l2-4z" fill="#F0E2F7"/>
<path transform="translate(1287,679)" d="m0 0 1 2-8 16-6 10-4 9-2-4 2-4h2l1-6h2l1-4h2l1-6 5-10z" fill="#9C4BAC"/>
<path transform="translate(1259,482)" d="m0 0 2 2-9 12-1 4 10 7 3 2-1 3-13-8-3-2 1-5 9-12z" fill="#9648A7"/>
<path transform="translate(632,138)" d="m0 0h4v3l-14 1-4 1h-11l-6-1v-1l14-2z" fill="#F1E4F7"/>
<path transform="translate(1219,727)" d="m0 0v3l-12 19-14 18-5 5 2-5 9-11 6-9 7-10 6-9z" fill="#DBBAED"/>
<path transform="translate(1496,1163)" d="m0 0h2l-1 5-3 6-11 17-5 5-2 1 1-4 6-8h2l2-6 4-5 1-3h2z" fill="#EFE0F6"/>
<path transform="translate(967,713)" d="m0 0 4 2 8 8 8 7 7 6v2l5 2 5 6h-3l-4-4v-2l-4-1-5-5-7-6v-2h-3l-7-8-4-4z" fill="#EFE1F6"/>
<path transform="translate(621,1307)" d="m0 0 15 1 31 1v2h-26l-22-2z" fill="#F2E5F7"/>
<path transform="translate(1159,714)" d="m0 0 4 1-18 11-5 3-11 6-3 2h-3v-2l6-3 9-5h4v-2l9-5 3-3h3v-2z" fill="#EFDFF6"/>
<path transform="translate(1159,589)" d="m0 0 1 3-9 10-2 3h-2l-1 3-5 4-5 5-6 5-3-1 13-11 3-3h2l2-4 9-11z" fill="#EFDFF6"/>
<path transform="translate(1239,1038)" d="m0 0m-3 1 5 1-3 3-8 4-16 6-4-1 7-4 6-2 7-3 5-2z" fill="#9749A8"/>
<path transform="translate(1264,649)" d="m0 0 6 1 16 8 9 4v2l-6-1-7-3v-2l-6-1-2-2-5-2v-2l-4 1-4 4 2-6z" fill="#994AAA"/>
<path transform="translate(936,515)" d="m0 0h2l-5 15v15l4 13 1 3h-2l-4-8-3-19h1l2-12 2-2z" fill="#F1E3F7"/>
<path transform="translate(562,692)" d="m0 0 2 1-9 9-4 7-3 1-1 5-7 5 2-5 7-10z" fill="#9849A9"/>
<path transform="translate(1256,138)" d="m0 0h14l13 3-1 2h-8l-3-1h-7l-8-2z" fill="#F2E5F7"/>
<path transform="translate(1174,866)" d="m0 0 4 1 6 7 1 8-3 7-5 4v-3l3-5 2-3 1-5h-2l-3-5-1-3-3-1z" fill="#994AAA"/>
<path transform="translate(1319,390)" d="m0 0h2l-2 4-8 13h-2l-2 4-11 17-1-4 6-8 1-3 2-1 1-3 5-5 6-10z" fill="#EEDEF6"/>
<path transform="translate(1296,562)" d="m0 0 4 2 9 10 6 11 1 7h-2l-5-12-5-8-5-5z" fill="#9A4AAB"/>
<path transform="translate(1343,435)" d="m0 0h2l-1 5-10 19-5 10h-1v-5l2-2 2-6 8-14z" fill="#9C4BAC"/>
<path transform="translate(1246,1038)" d="m0 0h2l-1 3-9 6-9 4h-7l-1 3h-7v-2l5-2 9-2 9-4z" fill="#EAD6F4"/>
<path transform="translate(1145,818)" d="m0 0h5l4 2 9 2 10 3 13 1-1 2h-14l-3-2-9-3-11-2z" fill="#EFE0F6"/>
<path transform="translate(1205,512)" d="m0 0 9 1 17 8-1 2-6-1-7-4-9-3v-2z" fill="#9447A5"/>
<path transform="translate(539,1008)" d="m0 0 4 4 7 11 11 12 7 5-3 1-10-8v-2l-3-1-7-10v-2h-2l-3-6z" fill="#EFE0F6"/>
<path transform="translate(1228,1307)" d="m0 0 10 1h22l13-1 2 2-7 1h-42v-2z" fill="#F3E7F8"/>
<path transform="translate(461,1242)" d="m0 0 4 1v2l4 1v2l4 2 6 5 9 5 3 3v2l-4-2-12-8-14-12z" fill="#F3E7F8"/>
<path transform="translate(529,925)" d="m0 0h1l1 54 1 8-3-2z" fill="#EBD9F5"/>
<path transform="translate(1108,805)" d="m0 0 9 3 17 6 10 3v1h-7l-5-2-8-2-9-4-7-3z" fill="#EFE0F6"/>
<path transform="translate(1264,645)" d="m0 0 6 2 1 2-7-1-4 7-9 17-2 3 1-7 7-13 3-6h2z" fill="#EFDFF6"/>
<path transform="translate(396,1164)" d="m0 0 2 1v2l4 2 4 6 2 6 5 9-1 2-9-14-7-12z" fill="#EDDBF6"/>
<path transform="translate(1130,771)" d="m0 0 18 5 9 3 8 2 1 2-6-1-11-3-12-3-7-3z" fill="#EFE0F6"/>
<path transform="translate(1265,542)" d="m0 0 11 6 12 7 2 4-4-2-11-6-9-5z" fill="#9347A5"/>
<path transform="translate(599,671)" d="m0 0h47v1l-44 1-7 2-4-1 3-2z" fill="#EAD6F5"/>
<path transform="translate(1177,556)" d="m0 0 5 2 9 6 10 5 9 6-3 1-9-6-5-2-12-8-4-2z" fill="#EFE0F6"/>
<path transform="translate(511,1276)" d="m0 0 4 1 5 3 4 1 1 4 6 1 7 3-3 1-8-2-8-4-5-5z" fill="#EAD6F4"/>
<path transform="translate(1338,371)" d="m0 0h7l7 2v1h-14l-6 3-9 11-2 2 1-4 7-10h2v-2z" fill="#F0E2F7"/>
<path transform="translate(1068,687)" d="m0 0 4 2-1 6-4 5h-2l-2 4-2 3h-2l-1 3-3-1 8-8 6-9-1-2-5 1 1-3z" fill="#EFE0F6"/>
<path transform="translate(1210,576)" d="m0 0 5 2 27 16v2l-5-2-13-8-9-5-5-3z" fill="#F0E1F7"/>
<path transform="translate(1281,613)" d="m0 0 7 5 12 6 5 4-1 2-10-6-9-5-6-4z" fill="#9749A8"/>
<path transform="translate(1488,270)" d="m0 0 5 4 6 10 2 4v5h-2l-8-16-3-4z" fill="#F0E1F7"/>
<path transform="translate(1449,221)" d="m0 0 5 3 8 8 2 1 1 5h-3l-2-3-1-3-4-1-6-7z" fill="#F0E1F6"/>
<path transform="translate(617,866)" d="m0 0h3l-2 5h-2v3h-3v11h-2l-1-8 3-7z" fill="#9246A3"/>
<path transform="translate(531,733)" d="m0 0h1v6l-2 6-1 20-2 1-1-11 1-1v-8l2-10z" fill="#F1E4F7"/>
<path transform="translate(1363,398)" d="m0 0v3l-12 24h-1l1-7 2-2 2-5 6-12z" fill="#9F4DAF"/>
<path transform="translate(1281,749)" d="m0 0 2 1 1 3v39h-1l-1-29z" fill="#EEDDF6"/>
<path transform="translate(585,723)" d="m0 0h2v3l-3 1-4 6h-2l-2 9h-2v7l-3 1 1-6 3-8 6-9z" fill="#EFE0F6"/>
<path transform="translate(598,711)" d="m0 0h7l5 1v1l-16 4-6 2 2-4z" fill="#9547A6"/>
<path transform="translate(543,717)" d="m0 0 1 3-2 1-2 7-4 10-3 1 1-6 5-12z" fill="#8F45A1"/>
<path transform="translate(1529,392)" d="m0 0 2 1v44h-1l-1-37h-1v-6z" fill="#F3E7F8"/>
<path transform="translate(1438,208)" d="m0 0 4 2 21 21-1 2-10-10-8-7z" fill="#DEC1EF"/>
<path transform="translate(1238,951)" d="m0 0h1v37l-2 5h-1v-8l1-6z" fill="#F1E4F7"/>
<path transform="translate(1170,929)" d="m0 0 6 1 5 3 4 8v5l-2-4-3-3v-3l-3-1v-2l-6-1z" fill="#9649A8"/>
<path transform="translate(1295,666)" d="m0 0h2v4h-3v7l-4 9h-2l-2 6-2 1 1-4 7-15 2-7z" fill="#ECDBF5"/>
<path transform="translate(1232,999)" d="m0 0v3l-9 8-12 6h-5l4-3 7-1v-2l6-3 3-1 1-3z" fill="#EFE0F6"/>
<path transform="translate(1e3 664)" d="m0 0h6l-4 3-23 1v3l3 1-1 3-5-6v-2l21-2z" fill="#EFDFF6"/>
<path transform="translate(1126,622)" d="m0 0v3l-11 7-5 3h-3v2l-6 3-5 1 5-4 9-5 12-7z" fill="#EFE0F6"/>
<path transform="translate(908,394)" d="m0 0h6l-3 2-8 4-6 7-4 8h-1l1-7 6-8 5-4z" fill="#EFDFF6"/>
<path transform="translate(570,983)" d="m0 0 3 1 1 9h2l3 9 5 5-1 2-5-5-5-7-2-10z" fill="#E5CEF2"/>
<path transform="translate(1234,772)" d="m0 0 1 3-3 5-1 2h-2l-2 4-9 12-3 1 2-4 2-3h2l2-5 7-9z" fill="#EFDFF6"/>
<path transform="translate(1078,792)" d="m0 0 5 2 24 10v1l-8-1v-2l-7-1-13-6z" fill="#EFE0F6"/>
<path transform="translate(1022,523)" d="m0 0 3 2 1 16-1 9-3 3 1-8v-15z" fill="#EEDEF6"/>
<path transform="translate(1318,397)" d="m0 0 2 1-2 4-4 5-4 7-7 6 2-4 6-9z" fill="#9B4BAC"/>
<path transform="translate(1380,169)" d="m0 0 6 2 19 11 2 3-6-2-10-6-11-7z" fill="#E9D4F4"/>
<path transform="translate(594,142)" d="m0 0h13l-8 4h-9l-6-1v-1z" fill="#F0E1F7"/>
<path transform="translate(1280,981)" d="m0 0h1v10l-2 3-2 9-4 8h-2l1-4 5-14 2-5z" fill="#EEDFF6"/>
<path transform="translate(1177,865)" d="m0 0 5 1 4 5v15h-1l-2-12-6-7z" fill="#E6CFF2"/>
<path transform="translate(613,939)" d="m0 0 1 2v6l3 5 5 4v2l-5-2-5-6-1-3v-7z" fill="#9648A7"/>
<path transform="translate(609,937)" d="m0 0h1l1 11 3 6 6 3v2l-5-1-4-3-3-6v-11z" fill="#EDDCF5"/>
<path transform="translate(1211,511)" d="m0 0h8l9 4v2l4 1 7 5h-3l-16-8-9-3z" fill="#EFE0F6"/>
<path transform="translate(1464,234)" d="m0 0 6 5 7 9-1 4-10-12-2-3z" fill="#E2C8F1"/>
<path transform="translate(1271,649)" d="m0 0 6 1 11 5 9 5-1 3-3-3-12-5-10-5z" fill="#EFE0F6"/>
<path transform="translate(986,675)" d="m0 0 3 1 4 4v2l3 1v2l3 1v2l3 1 4 4v2l-4-2-14-14z" fill="#EFE0F6"/>
<path transform="translate(1309,510)" d="m0 0 1 4-9 18-1 1h-6v-1h5l2-5 5-11z" fill="#EEDEF6"/>
<path transform="translate(1202,1304)" d="m0 0m-7 1 17 1v1l-16 2h-6l1-3z" fill="#EFDFF6"/>
<path transform="translate(1377,1278)" d="m0 0m-1 1m-1 1v3l-10 5-9 1 4-2 2-2 8-2 1-2z" fill="#F0E1F7"/>
<path transform="translate(1278,982)" d="m0 0h1l-1 7-3 9h-2l-1 2 1-7h2v-8z" fill="#9247A4"/>
<path transform="translate(609,714)" d="m0 0h5l-1 2-13 2-10 5-3-1h2v-2l9-4z" fill="#EFE0F6"/>
<path transform="translate(1018,435)" d="m0 0h1v11l-2 2-2 6-5 4h-2v2l-4-1 2-2 5-3 3-4 3-7z" fill="#F0E1F7"/>
<path transform="translate(1355,418)" d="m0 0 1 4-11 22h-2l2-5 8-17z" fill="#EFDFF6"/>
<path transform="translate(1250,676)" d="m0 0 1 3-4 10-4 7-3 1 2-6z" fill="#9B4BAC"/>
<path transform="translate(592,676)" d="m0 0h5l-1 3-10 3-3 2-3-1 2-3z" fill="#9347A4"/>
<path transform="translate(1093,641)" d="m0 0 3 1-2 2-11 4h-5v2l-2 1h-6l4-2 9-4z" fill="#EEDFF6"/>
<path transform="translate(1267,511)" d="m0 0 10 5 5 4v2l-5-2-12-7z" fill="#9B4BAC"/>
<path transform="translate(473,1253)" d="m0 0 11 7 8 6-1 2-11-7-7-5z" fill="#E6CEF2"/>
<path transform="translate(390,1149)" d="m0 0 3 1 4 8 3 8-2 1-4-5-3-10z" fill="#F1E4F7"/>
<path transform="translate(1235,766)" d="m0 0h2l-2 4-10 13-2-1 2-4z" fill="#9749A8"/>
<path transform="translate(563,1299)" d="m0 0 9 1 2-1 9 3v2l4 1-8-1-14-3z" fill="#EDDCF6"/>
<path transform="translate(416,1196)" d="m0 0 6 5 10 13 3 3-1 2-8-8-9-12z" fill="#EAD6F5"/>
<path transform="translate(1317,587)" d="m0 0 3 1 2 13v9l-2 3-2-21z" fill="#F0E2F7"/>
<path transform="translate(1049,775)" d="m0 0 6 2 10 6 8 4-3 1-19-10z" fill="#DBBAED"/>
<path transform="translate(1041,723)" d="m0 0 4 2v2l5 1 11 8-1 2-14-9-4-2z" fill="#F0E1F7"/>
<path transform="translate(1315,617)" d="m0 0h1l-1 8-4 8-5-2-1-2h5z" fill="#9A4AAB"/>
<path transform="translate(1079,603)" d="m0 0 4 1-10 5-10 4-4-1 6-3 13-5z" fill="#EFE0F6"/>
<path transform="translate(1239,524)" d="m0 0 5 1 8 5 8 4 1 3-5-2-9-5-8-5z" fill="#EFE0F6"/>
<path transform="translate(1392,1271)" d="m0 0 4 1-17 9-3 1 1-3 5-2 1-2h4l1-3z" fill="#EFDFF6"/>
<path transform="translate(1172,891)" d="m0 0h4v3l-2 1h-13l3-3z" fill="#8A439D"/>
<path transform="translate(1029,765)" d="m0 0 4 1 12 7 4 1 2 4-5-2-3-1v-2l-7-2v-2l-5-1z" fill="#EEDEF6"/>
<path transform="translate(1198,754)" d="m0 0h2l-2 4-11 15-2-1 6-9z" fill="#EFE0F6"/>
<path transform="translate(1112,580)" d="m0 0 3 1-9 9-4 1v2l-5 3h-2l1-3h3l1-3 5-1v-2l6-5z" fill="#EFE0F6"/>
<path transform="translate(946,426)" d="m0 0h1v8l-7 10-4 3-2-1 10-12z" fill="#EFDFF6"/>
<path transform="translate(1393,178)" d="m0 0 5 2 10 6 6 5h-3l-10-6-8-5z" fill="#F3E7F8"/>
<path transform="translate(1273,998)" d="m0 0 1 3-7 14-2-4 4-6 2-4z" fill="#9849A9"/>
<path transform="translate(1249,533)" d="m0 0 6 2 9 6v2l-5-2-6-3z" fill="#9B4AAB"/>
<path transform="translate(1286,443)" d="m0 0 1 3-2 2-2 5-9 10v-3l10-14z" fill="#A24EB2"/>
<path transform="translate(992,420)" d="m0 0h11v1l-8 1-10 6-1 2h-2l-1 2v-3h2l2-4z" fill="#F0E2F7"/>
<path transform="translate(1339,374)" d="m0 0 8 1 5 2-4 2-3-2h-8l-5 4-2-1 6-5z" fill="#A04DB0"/>
<path transform="translate(1349,374)" d="m0 0h6l5 4v2l3 1v2l3 1v5l-4-5-8-7-5-2z" fill="#EFDFF6"/>
<path transform="translate(1134,776)" d="m0 0 12 3 3 2-2 1h-8l-2-4-3-1z" fill="#994AAA"/>
<path transform="translate(1355,158)" d="m0 0 5 1 16 7 2 2-5-1-15-6z" fill="#EAD6F5"/>
<path transform="translate(934,444)" d="m0 0 2 1-2 3-7 3h-16v-1l13-1z" fill="#F0E2F7"/>
<path transform="translate(579,678)" d="m0 0h5l-3 2-14 8h-2l1-3z" fill="#EFE0F6"/>
<path transform="translate(932,626)" d="m0 0h14v1l-13 2-8 6 1-4z" fill="#EEDEF6"/>
<path transform="translate(1190,508)" d="m0 0h18l2 3-7-1h-10l-6 1z" fill="#F1E3F7"/>
<path transform="translate(1319,490)" d="m0 0h1l-1 7h-2l-1 6h-2l-1 5-3 2 1-4z" fill="#EEDEF6"/>
<path transform="translate(1247,494)" d="m0 0 2 1-2 3v5l10 6-4 1-5-3-3-3-1-5z" fill="#F0E1F7"/>
<path transform="translate(1329,472)" d="m0 0 1 2-9 18-1-4 8-15z" fill="#F0E1F7"/>
<path transform="translate(1323,476)" d="m0 0h2l-2 5-6 12-2-4 5-7 2-5z" fill="#9A4AAB"/>
<path transform="translate(554,1295)" d="m0 0 7 1v2l4-1 7 1v3l-14-2v-2z" fill="#F2E5F7"/>
<path transform="translate(1260,475)" d="m0 0 2 1-9 13-4 5 1-5z" fill="#EFE0F6"/>
<path transform="translate(1483,1185)" d="m0 0h2l-1 4-4 6-4 2 1-4z" fill="#F1E3F7"/>
<path transform="translate(1183,946)" d="m0 0 1 4-4 5-5 3-2-1 7-7z" fill="#9849A9"/>
<path transform="translate(1222,783)" d="m0 0h2l-2 4-7 9-2 1v-4l4-4h2l2-5z" fill="#9D4CAD"/>
<path transform="translate(1216,733)" d="m0 0h3l-2 4-4 5-1 4-4 2 2-5z" fill="#9E4CAF"/>
<path transform="translate(1227,716)" d="m0 0 2 1-2 6-4 3-3 5-2 1 2-5z" fill="#9B4BAC"/>
<path transform="translate(1260,656)" d="m0 0 1 4-2 2-1 6-2 1-1 4-4 2 2-5z" fill="#A550B5"/>
<path transform="translate(1262,608)" d="m0 0 5 1 14 8-4 1-15-9z" fill="#EFE1F6"/>
<path transform="translate(1305,513)" d="m0 0 1 2-7 14h-1l1-8z" fill="#9D4CAD"/>
<path transform="translate(1515,326)" d="m0 0 2 4h2l2 6v6l-2-1-3-9v-3h-2z" fill="#F0E1F7"/>
<path transform="translate(587,1009)" d="m0 0 5 1 5 2 10 3v1h-7l-10-4z" fill="#EFE1F6"/>
<path transform="translate(537,996)" d="m0 0 4 2 2 6 1 4-2 1-5-10z" fill="#9749A8"/>
<path transform="translate(1183,878)" d="m0 0h1v8l-5 6-3 1 2-4 4-7z" fill="#9347A5"/>
<path transform="translate(1146,816)" d="m0 0h11l2 2 5 1v2l-11-2-7-2z" fill="#9A4AAB"/>
<path transform="translate(1414,192)" d="m0 0 5 2 9 7-2 2-3-2v-2l-4-1-5-5z" fill="#F3E7F8"/>
<path transform="translate(1360,162)" d="m0 0 5 1 10 4 1 2h-5l-10-5z" fill="#F3E7F8"/>
<path transform="translate(596,1304)" d="m0 0h6l3 2 12 1v1h-14l-7-2z" fill="#F3E7F8"/>
<path transform="translate(1355,1288)" d="m0 0 4 2-11 5h-3l1-3z" fill="#EEDEF6"/>
<path transform="translate(526,1283)" d="m0 0 9 3 11 5-3 1-18-7z" fill="#F3E7F8"/>
<path transform="translate(1168,927)" d="m0 0h9l8 6 1 5-7-7-4-2-7-1z" fill="#EFDFF6"/>
<path transform="translate(617,862)" d="m0 0h5l-4 3-6 5-2 5-2-3 1-3h2l2-4z" fill="#EFE0F6"/>
<path transform="translate(1150,574)" d="m0 0 5 1 8 6v7h-3l1-1v-5l-11-7z" fill="#EEDFF6"/>
<path transform="translate(1204,567)" d="m0 0 8 4 1 4-5-2-6-4z" fill="#9749A8"/>
<path transform="translate(494,1267)" d="m0 0 10 3 3 2v2l4 1-3 1-10-6-4-2z" fill="#F3E7F8"/>
<path transform="translate(1185,775)" d="m0 0h1l-1 7-5 3-3 4-2-1v-2l6-5z" fill="#9D4CAE"/>
<path transform="translate(1130,771)" d="m0 0 18 5v1h-8l-10-4z" fill="#F0E1F7"/>
<path transform="translate(990,733)" d="m0 0 4 3v2l5 2 5 6h-3l-4-4v-2l-4-1-3-3z" fill="#EEDFF6"/>
<path transform="translate(1242,590)" d="m0 0 4 2 6 4v2l-5-2-7-4z" fill="#9B4BAC"/>
<path transform="translate(1319,390)" d="m0 0h2l-2 4-8 12-2-1 7-11z" fill="#EFE1F6"/>
<path transform="translate(1335,152)" d="m0 0h7l5 2-2 2-8-1-2-1z" fill="#EFE1F6"/>
<path transform="translate(537,718)" d="m0 0h2l-6 15h-1l1-9z" fill="#EFE0F6"/>
<path transform="translate(1054,710)" d="m0 0 1 3-4 4h-2l-1 3-3 3-3-1z" fill="#EFDFF6"/>
<path transform="translate(1259,482)" d="m0 0 2 2-11 14-2 1 2-4z" fill="#A04DB0"/>
<path transform="translate(1436,209)" d="m0 0 8 6 5 6h-3l-10-10z" fill="#F3E7F8"/>
<path transform="translate(370,1094)" d="m0 0 3 2 1 5-1 7-2-4-1-3z" fill="#EFDFF6"/>
<path transform="translate(591,1048)" d="m0 0 7 1 4 2v2l-7-1-6-2z" fill="#994AAA"/>
<path transform="translate(621,929)" d="m0 0h3l-2 4-6 2-4 4 1-4 6-5z" fill="#994AAA"/>
<path transform="translate(1185,886)" d="m0 0 1 3-4 5-5 3-4-1 7-4h2l2-5z" fill="#F0E1F7"/>
<path transform="translate(1162,519)" d="m0 0h2l-2 4-5 5h-2l-1 3-2-1 8-9h2z" fill="#F0E2F7"/>
<path transform="translate(1205,512)" d="m0 0 9 1 3 3v1l-7-1-2-1v-2z" fill="#9548A6"/>
<path transform="translate(1343,435)" d="m0 0h2l-1 5-5 9-1-4z" fill="#9D4CAD"/>
<path transform="translate(1501,290)" d="m0 0 2 2 5 10-1 2-3-3-3-5z" fill="#EDDDF6"/>
<path transform="translate(1530,1052)" d="m0 0h1v15l-1 6h-1v-11l-1-3h2l-1-4z" fill="#EEDFF6"/>
<path transform="translate(1219,1013)" d="m0 0 3 1-4 4h-6v-2z" fill="#9447A5"/>
<path transform="translate(1226,711)" d="m0 0h2l-2 5-6 9-2-1 6-10h2z" fill="#F0E1F7"/>
<path transform="translate(1138,612)" d="m0 0h2l-1 3-9 7-3-1z" fill="#F0E1F7"/>
<path transform="translate(1300,560)" d="m0 0 6 4 2 5 2 1-1 3-6-7v-2l-3-1z" fill="#EFE0F6"/>
<path transform="translate(1278,550)" d="m0 0 5 2 7 5v2l-4-2-5-3z" fill="#9E4CAE"/>
<path transform="translate(1356,410)" d="m0 0 1 3-6 12h-1l1-7 2-2 2-5z" fill="#9C4BAC"/>
<path transform="translate(386,1144)" d="m0 0 4 1 2 7 1 6-3-4-4-8z" fill="#ECDAF5"/>
<path transform="translate(599,671)" d="m0 0h10v1l-14 3-4-1 3-2z" fill="#F0E1F7"/>
<path transform="translate(1272,463)" d="m0 0 2 2-2 2-2 5-6 4 2-4z" fill="#9D4CAD"/>
<path transform="translate(1407,184)" d="m0 0 11 7 1 3-5-2-7-6z" fill="#E6D0F3"/>
<path transform="translate(583,145)" d="m0 0h7l-3 2-4 2h-7l4-3z" fill="#F3E7F8"/>
<path transform="translate(569,986)" d="m0 0 2 3 2 5v3h-2v-2h-2l-1-6z" fill="#994AAA"/>
<path transform="translate(611,874)" d="m0 0h2v11h-2l-1-8z" fill="#994AAA"/>
<path transform="translate(1287,679)" d="m0 0 1 2-5 11h-1v-7z" fill="#A24EB2"/>
<path transform="translate(1018,559)" d="m0 0 1 4-4 6-3 3-3-1 6-7z" fill="#EFE0F6"/>
<path transform="translate(1296,562)" d="m0 0 4 2 6 6v2l-4-1z" fill="#A04DB0"/>
<path transform="translate(383,1135)" d="m0 0h2v3h2l1 7-3-1-2-4z" fill="#F0E1F7"/>
<path transform="translate(589,1050)" d="m0 0 6 1 3 1v2h-7l-2-1z" fill="#E5CEF2"/>
<path transform="translate(1246,1038)" d="m0 0h2l-1 3-9 6-2-1 3-3z" fill="#F0E1F7"/>
<path transform="translate(922,652)" d="m0 0 4 5 4 7v2h-2l-5-9z" fill="#EEDFF6"/>
<path transform="translate(1252,596)" d="m0 0 5 2 4 3-1 3-8-5z" fill="#9347A5"/>
<path transform="translate(1e3 575)" d="m0 0 2 1-3 3-5 3h-6l3-2z" fill="#EEDDF6"/>
<path transform="translate(932,545)" d="m0 0h1l4 13 1 3h-2l-4-8z" fill="#EFDFF6"/>
<path transform="translate(1241,529)" d="m0 0 5 1 5 5-3 1-6-4z" fill="#8F45A1"/>
<path transform="translate(908,394)" d="m0 0h6l-3 2-8 4-3 2 2-5z" fill="#EDDDF6"/>
<path transform="translate(1449,221)" d="m0 0 5 3 6 7-4-2-7-5z" fill="#EDDCF6"/>
</svg>
