<?xml version="1.0" encoding="UTF-8"?>
<svg version="1.1" viewBox="0 0 2048 2048" width="1280" height="1280" xmlns="http://www.w3.org/2000/svg">
<path transform="translate(1978,342)" d="m0 0h70v1363l-51-1h-1916l-80 1-1-1v-1361h177l85 1h1386z" fill="#CF0328"/>
<path transform="translate(1022,642)" d="m0 0 5 5 5 12 7 22 36 108 14 43 8 24 6 20 8 23 4 6 5 3 17 1h63l204-1-5 5-19 14-10 7-35 24-15 10-11 8-16 12-15 12-22 15-13 10-19 14-12 9-12 8-14 10-8 7h-2l-2 4-2 7 11 37 8 24 8 26 8 25 7 22 9 27 6 20 8 24 12 41 3 12 3 9-5-2-11-7-8-7-17-12-9-7-18-13-8-6-32-22-22-16-28-20-10-7-16-12-14-10-11-8-12-9-7-3-8 1-12 7-15 11-19 13-13 9-17 12-12 9-22 15-24 18-10 7-24 16-13 10-10 8-13 10-5 4-14 9h-3l1-9 2-6 1-5 7-21 4-11 8-29 28-86 10-32 8-24 7-23 8-22 1-5-21-12-20-14-14-10-16-12-19-14-13-10-2-1v-2l-5-2-12-9-14-10-20-14-14-10-15-11-10-7-17-12-13-10-1-5 1-1 63-1 29-1h167l18-1 3-3 3-5 5-15 6-16 6-19 9-30 12-36 14-41 8-25 13-40 7-19 4-15z" fill="#FED751"/>
</svg>
