<svg xmlns="http://www.w3.org/2000/svg" xmlns:xlink="http://www.w3.org/1999/xlink" width="2000" zoomAndPan="magnify" viewBox="0 0 1500 1499.999933" height="2000" preserveAspectRatio="xMidYMid meet" version="1.0"><defs><clipPath id="289038744a"><path d="M 0 39.546875 L 1500 39.546875 L 1500 1460.796875 L 0 1460.796875 Z M 0 39.546875 " clip-rule="nonzero"/></clipPath></defs><g clip-path="url(#289038744a)"><path fill="#ffffff" d="M 1384.011719 1118.730469 C 1312.460938 1047.183594 1213.6875 1002.746094 1105.085938 1002.746094 L 968.511719 1002.746094 C 968.550781 1000.945312 968.664062 999.144531 968.664062 997.34375 L 968.664062 931.792969 C 974.585938 926.65625 980.324219 921.292969 985.875 915.746094 C 1002.75 898.871094 1017.863281 880.15625 1030.875 860.019531 C 1099.238281 852.183594 1152.636719 828.332031 1166.289062 764.84375 C 1188 760.570312 1207.425781 749.84375 1222.5 734.769531 C 1242.335938 714.933594 1254.675781 687.519531 1254.675781 657.40625 L 1254.675781 536.019531 C 1254.675781 505.871094 1242.335938 478.496094 1222.5 458.65625 L 1220.960938 457.230469 C 1207.875 444.632812 1191.710938 435.292969 1173.789062 430.34375 C 1173.824219 429.894531 1173.863281 429.480469 1173.863281 429.03125 C 1173.863281 321.746094 1127.175781 224.320312 1051.949219 153.746094 C 977.0625 83.507812 873.976562 39.933594 760.6875 39.933594 L 739.351562 39.933594 C 626.0625 39.933594 522.976562 83.507812 448.125 153.746094 C 372.898438 224.320312 326.210938 321.746094 326.210938 429.03125 C 326.210938 429.480469 326.25 429.894531 326.289062 430.34375 C 307.726562 435.445312 291.039062 445.308594 277.6875 458.621094 L 277.574219 458.730469 C 257.738281 478.605469 245.398438 505.980469 245.398438 536.019531 L 245.398438 657.40625 C 245.398438 686.730469 257.136719 713.46875 276.148438 733.230469 L 277.574219 734.769531 C 297.414062 754.605469 324.789062 766.945312 354.9375 766.945312 C 380.289062 766.945312 403.648438 758.207031 422.25 743.65625 C 435.226562 810.070312 468 869.621094 514.164062 915.78125 C 522.824219 924.445312 531.9375 932.582031 541.5 940.269531 L 541.5 997.417969 C 541.5 999.21875 541.574219 1001.019531 541.648438 1002.820312 L 394.949219 1002.820312 C 286.3125 1002.820312 187.574219 1047.257812 116.023438 1118.808594 C 44.4375 1190.28125 0 1289.058594 0 1397.65625 L 0 1435.832031 C 0 1449.183594 10.835938 1460.019531 24.1875 1460.019531 L 1475.8125 1460.019531 C 1489.164062 1460.019531 1500 1449.183594 1500 1435.832031 L 1500 1397.65625 C 1500 1289.058594 1455.5625 1190.28125 1384.011719 1118.730469 Z M 1059.488281 804.855469 C 1067.4375 785.28125 1073.625 764.769531 1077.75 743.582031 C 1088.886719 752.320312 1101.789062 758.957031 1115.773438 762.855469 C 1106.585938 784.195312 1086.449219 797.167969 1059.488281 804.855469 Z M 1188.226562 492.820312 C 1199.324219 503.917969 1206.226562 519.183594 1206.226562 535.980469 L 1206.226562 657.371094 C 1206.226562 674.167969 1199.324219 689.46875 1188.226562 700.53125 C 1177.125 711.632812 1161.824219 718.53125 1145.023438 718.53125 C 1128.226562 718.53125 1112.925781 711.632812 1101.863281 700.53125 L 1101.75 700.53125 C 1090.726562 689.507812 1083.863281 674.207031 1083.863281 657.371094 L 1083.863281 535.980469 C 1083.863281 519.105469 1090.726562 503.84375 1101.75 492.820312 L 1101.863281 492.707031 C 1112.886719 481.683594 1128.1875 474.820312 1145.0625 474.820312 C 1161.375 474.820312 1176.261719 481.230469 1187.175781 491.65625 Z M 481.164062 188.882812 C 547.3125 126.820312 638.664062 88.308594 739.3125 88.308594 L 760.648438 88.308594 C 861.261719 88.308594 952.648438 126.820312 1018.800781 188.882812 C 1084.386719 250.417969 1125.1875 335.167969 1125.375 428.28125 C 1109.625 431.167969 1095.039062 437.46875 1082.363281 446.394531 C 1074.863281 367.042969 1039.3125 295.53125 985.800781 242.019531 C 925.3125 181.53125 841.800781 143.957031 749.960938 143.957031 C 658.125 143.957031 574.613281 181.53125 514.125 242.019531 C 460.613281 295.53125 425.0625 367.042969 417.5625 446.394531 C 404.886719 437.46875 390.300781 431.167969 374.550781 428.28125 C 374.8125 335.167969 415.574219 250.417969 481.164062 188.882812 Z M 1033.3125 443.09375 C 976.3125 442.871094 921.5625 435.558594 869.175781 421.230469 C 809.175781 404.808594 751.914062 379.007812 697.460938 343.871094 C 688.125 337.871094 675.488281 338.957031 667.351562 347.167969 C 643.238281 371.320312 612.300781 391.457031 574.5 407.542969 C 543.375 420.78125 507.5625 431.207031 467.25 438.933594 C 475.949219 375.894531 505.351562 319.230469 548.398438 276.183594 C 600.148438 224.433594 671.550781 192.292969 750.039062 192.292969 C 828.523438 192.292969 899.925781 224.433594 951.675781 276.183594 C 995.625 320.167969 1025.363281 378.40625 1033.3125 443.09375 Z M 354.9375 718.53125 C 338.136719 718.53125 322.835938 711.632812 311.773438 700.53125 L 310.648438 699.480469 C 300.226562 688.53125 293.8125 673.683594 293.8125 657.371094 L 293.8125 535.980469 C 293.8125 519.105469 300.675781 503.84375 311.699219 492.820312 L 311.8125 492.707031 C 322.835938 481.683594 338.136719 474.820312 355.011719 474.820312 C 371.886719 474.820312 387.148438 481.683594 398.175781 492.707031 L 398.175781 492.820312 C 409.273438 503.917969 416.175781 519.183594 416.175781 535.980469 L 416.175781 657.371094 C 416.175781 674.167969 409.273438 689.46875 398.175781 700.53125 C 387.039062 711.632812 371.738281 718.53125 354.9375 718.53125 Z M 464.476562 679.90625 L 464.476562 488.582031 C 512.960938 480.070312 555.9375 467.882812 593.324219 451.945312 C 629.925781 436.382812 661.238281 417.183594 687.300781 394.457031 C 740.960938 427.082031 797.363281 451.53125 856.5 467.695312 C 913.800781 483.371094 973.460938 491.246094 1035.523438 491.28125 L 1035.523438 679.871094 C 1035.523438 728.207031 1023.300781 773.808594 1001.886719 813.820312 C 964.726562 816.292969 922.539062 814.757812 881.023438 813.183594 L 872.550781 812.882812 C 868.761719 800.46875 862.085938 789.332031 853.3125 780.332031 C 839.101562 765.78125 819.449219 756.746094 797.851562 756.746094 C 776.25 756.746094 756.601562 765.746094 742.386719 780.332031 C 728.363281 794.695312 719.664062 814.496094 719.664062 836.28125 C 719.664062 858.070312 728.363281 877.871094 742.386719 892.230469 C 756.601562 906.78125 776.25 915.820312 797.851562 915.820312 C 819.449219 915.820312 839.101562 906.820312 853.3125 892.230469 C 861.75 883.570312 868.199219 872.957031 872.0625 861.144531 L 879.335938 861.40625 C 909.1875 862.53125 939.300781 863.65625 968.25 863.433594 C 962.960938 869.695312 957.449219 875.769531 951.675781 881.582031 C 899.925781 933.332031 828.523438 965.46875 750.039062 965.46875 C 702.375 965.46875 657.375 953.582031 617.773438 932.695312 C 604.648438 925.570312 592.164062 917.394531 580.460938 908.320312 C 578.886719 907.121094 577.199219 906.144531 575.476562 905.355469 C 565.988281 897.96875 556.914062 890.058594 548.398438 881.582031 C 496.613281 829.792969 464.476562 758.394531 464.476562 679.90625 Z M 827.625 836.28125 C 827.625 845.058594 824.210938 852.96875 818.699219 858.59375 C 813.375 864.070312 805.949219 867.445312 797.773438 867.445312 C 789.601562 867.445312 782.175781 864.070312 776.851562 858.59375 C 771.335938 852.96875 767.925781 845.058594 767.925781 836.28125 C 767.925781 827.507812 771.335938 819.59375 776.851562 813.96875 C 782.175781 808.496094 789.601562 805.121094 797.773438 805.121094 C 805.949219 805.121094 813.375 808.496094 818.699219 813.96875 C 824.210938 819.59375 827.625 827.507812 827.625 836.28125 Z M 613.238281 984.332031 C 623.0625 988.871094 633.113281 992.996094 643.425781 996.519531 C 674.175781 1007.09375 707.023438 1013.019531 741.074219 1013.65625 C 741.414062 1013.65625 741.75 1013.65625 742.085938 1013.695312 C 743.699219 1013.730469 745.273438 1013.808594 746.886719 1013.808594 L 763.164062 1013.808594 C 799.273438 1013.808594 834.113281 1007.730469 866.664062 996.558594 C 885.300781 990.144531 903.226562 982.007812 920.210938 972.371094 L 920.210938 997.34375 C 920.210938 1041.371094 902.175781 1081.382812 873.148438 1110.40625 C 844.125 1139.433594 804.074219 1157.46875 760.085938 1157.46875 L 750 1157.46875 C 705.976562 1157.46875 665.960938 1139.433594 636.9375 1110.40625 C 607.914062 1081.382812 589.875 1041.332031 589.875 997.34375 L 589.875 972.632812 C 597.488281 976.792969 605.289062 980.730469 613.238281 984.332031 Z M 48.375 1397.65625 C 48.375 1302.371094 87.375 1215.746094 150.1875 1152.894531 C 213 1090.082031 299.664062 1051.082031 394.949219 1051.082031 L 548.625 1051.082031 C 558.261719 1086.933594 577.199219 1119.03125 602.738281 1144.570312 C 635.101562 1176.933594 678.074219 1198.757812 725.8125 1204.34375 L 725.8125 1411.605469 L 48.375 1411.605469 Z M 1451.625 1411.644531 L 774.1875 1411.644531 L 774.1875 1205.320312 C 825.976562 1201.832031 872.738281 1179.292969 907.386719 1144.605469 C 932.925781 1119.070312 951.863281 1086.933594 961.5 1051.121094 L 1105.050781 1051.121094 C 1200.335938 1051.121094 1286.960938 1090.121094 1349.773438 1152.933594 C 1412.585938 1215.746094 1451.585938 1302.40625 1451.585938 1397.695312 L 1451.585938 1411.644531 Z M 1451.625 1411.644531 " fill-opacity="1" fill-rule="nonzero"/></g></svg>