<?xml version="1.0" encoding="UTF-8"?>
<svg version="1.1" viewBox="0 0 1200 1200" width="1280" height="1280" xmlns="http://www.w3.org/2000/svg">
<path transform="translate(450,723)" d="m0 0h18l16 4 16 8 12 11 7 10 16 27 26 44 17 29 16 27 17 29 16 27 11 19 4 11 1 5v12l-3 12-7 12-7 7-10 6-12 4h-17l-10-3-11-6-10-10-7-8-12-14-12-13-9-11-13-14-7-8-9-10-9-11-14-15-9-11-13-14-7-8-12-14-13-14-10-13-6-12-4-14v-22l4-15 8-15 11-12 9-7 12-6z" fill="#EA2D4B"/>
<path transform="translate(338,504)" d="m0 0h19l13 3 16 8 9 7 8 8 7 11 5 12 2 9v22l-3 12-5 12-8 11-11 12-7 8-12 14-11 12-7 8-9 10-9 11-14 15-9 11-13 14-7 8-9 10-9 11-13 14-7 8-9 10-7 6-10 5-8 2h-16l-13-4-10-6-9-10-5-10-3-12v-11l3-12 11-20 9-15 13-22 17-29 16-27 17-29 15-25 14-24 12-20 10-11 13-9 12-5z" fill="#EA2D4B"/>
<path transform="translate(915,635)" d="m0 0h14l14 4 9 6 5 4 7 10 4 9 2 10v9l-3 13-5 10-7 8-10 7-39 17-76 33-69 30-35 15-11 3-17 1-13-2-14-5-11-7-10-9-8-11-5-10-4-14-1-15 2-14 5-13 7-12 10-11 10-7 10-5 14-4z" fill="#EA2D4B"/>
<path transform="translate(292,281)" d="m0 0h18l149 33 80 18 12 4 12 7 11 10 9 13 5 11 3 12v20l-4 16-6 12-7 9-8 8-14 9-14 5-5 1h-22l-15-4-214-93-10-6-5-4-9-13-4-13v-16l4-12 6-10 8-8 8-5z" fill="#EA2D4B"/>
<path transform="translate(737,232)" d="m0 0 14 1 11 4 9 6 9 9 5 10 3 11 14 145 8 84v18l-4 16-7 14-8 10-9 8-14 8-14 4-7 1h-14l-14-3-12-5-10-7-9-8-9-13-5-12-3-12v-18l22-229 3-12 6-11 10-10 14-7z" fill="#EA2D4B"/>
<path transform="translate(696,16)" d="m0 0h11l16 3 12 5 11 7 12 12 8 14 4 12 2 13v9l-3 16-5 12-7 10-24 28-13 15-24 28-13 15-12 14-13 15-12 14-13 15-12 14-9 8-13 6-7 2h-19l-13-4-11-7-9-9-6-10-4-13v-19l4-13 10-17 99-163 8-10 10-9 14-8 14-4z" fill="#EA2D4B"/>
<path transform="translate(99,235)" d="m0 0h11l16 3 16 7 10 8 8 8 10 16 102 168 4 10 2 16-3 16-7 14-11 11-10 6-13 4h-18l-13-4-9-5-10-9-24-28-13-15-12-14-13-15-12-14-13-15-12-14-13-15-24-28-6-10-5-14-2-15 1-14 3-12 8-16 12-13 8-6 14-7 11-3z" fill="#EA2D4B"/>
<path transform="translate(896,470)" d="m0 0 16 1 200 47 16 6 10 7 10 9 7 10 5 10 4 14 1 14-2 14-5 15-7 11-10 11-10 7-10 5-14 4-16 1-13-2-17-6-35-15-129-54-23-10-9-7-8-9-6-12-2-7-1-11 2-15 4-10 8-11 9-8 12-6z" fill="#EA2D4B"/>
<path transform="translate(313,825)" d="m0 0h19l15 5 11 8 7 7 6 10 4 13v18l-4 13-7 12-8 8-10 6-35 15-129 54-29 12-16 4h-16l-17-4-14-7-11-9-10-13-5-10-4-13-1-7v-13l3-15 6-14 9-12 10-9 14-8 12-4 132-31z" fill="#EA2D4B"/>
<path transform="translate(731,858)" d="m0 0h19l15 5 10 7 8 8 6 10 4 13 12 143 5 59v20l-4 16-7 14-11 13-11 8-10 5-14 4-7 1h-11l-15-3-13-5-11-8-6-5-9-12-6-12-4-16v-18l15-180 2-23 4-14 7-11 9-9 10-6z" fill="#EA2D4B"/>
</svg>
