<?xml version="1.0" encoding="UTF-8"?>
<svg version="1.1" viewBox="0 0 2048 805" width="1280" height="1280" xmlns="http://www.w3.org/2000/svg">
<path transform="translate(1472,20)" d="m0 0h289l36 2 27 4 25 6 30 10 25 12 16 10 16 12 12 11 9 9 13 17 10 17 7 15 7 21 5 25 1 8v29l-3 24-6 23-8 19-8 15-12 16-9 10-11 11-16 12-19 11-20 9 24 7 21 9 17 9 16 11 11 9 8 7 7 8 8 9 10 14 9 15 10 21 7 21 3 14 2 19v29l-3 27-5 23-8 23-9 19-10 16-11 14-19 19-15 11-18 11-25 12-25 9-25 7-36 7-24 3-14 1h-327l-6-4-4-6-2-9v-725l2-8 3-5 7-4zm152 133-1 1v172h109l22-2 20-5 16-7 11-7 10-9 7-8 8-16 4-17v-25l-3-16-6-15-8-12-12-12-16-10-15-6-17-4-20-2zm-1 298v200h135l18-2 17-4 19-7 13-7 13-10 8-8 9-14 5-11 4-14 1-7v-29l-3-15-5-14-9-15-12-13-14-10-16-8-17-6-17-4-17-2z" fill="#1E439C"/>
<path transform="translate(301,20)" d="m0 0h154l12 2 8 4 5 5 4 5 20 55 21 57 18 50 38 104 21 57 14 39 21 57 23 63 18 49 19 52 34 92 15 40 5 13 1 10-3 5-4 3h-166l-8-4-5-4-6-10-12-36-19-59-18-57-1-3h-272l-24 74-22 68-5 13-6 9-8 7-4 2h-157l-5-5-1-6 3-12 26-70 27-72 19-51 27-72 22-59 21-56 26-70 15-40 25-67 18-48 20-54 22-59 6-10 7-7 6-3zm73 165-23 71-42 130-23 71-5 17h186l-2-9-23-72-17-53-21-66-23-72-5-16z" fill="#1E439C"/>
<path transform="translate(1110)" d="m0 0h15l31 2 25 3 30 6 29 8 30 11 26 12 19 10 21 13 17 12 13 10 11 9 13 12 5 4 3 5v11l-5 9-21 21-7 8-56 56-10 4-9-1-9-7-13-11-17-12-22-12-21-9-19-6-17-4-24-3h-36l-22 3-21 5-21 7-22 10-17 10-14 10-11 9-10 9-13 13-9 11-11 15-12 20-11 23-8 22-6 24-3 19-1 10v42l3 23 5 22 5 17 10 24 11 21 12 18 11 14 14 15 8 8 11 9 15 11 13 8 21 11 21 8 21 6 23 4 11 1h31l25-3 28-7 21-8 16-8 16-9 17-12 14-12 9-8 5-2h9l8 4 83 83 4 6 1 3v12l-4 7-12 12-11 9-13 11-18 13-17 11-21 12-17 9-26 11-25 9-30 8-26 5-22 3-28 2h-26l-29-2-28-4-28-6-24-7-23-8-25-11-22-11-20-12-12-8-18-13-13-11-11-9-32-32-9-11-13-16-16-24-8-13-10-18-13-27-11-29-8-27-6-27-4-25-2-20-1-17v-29l3-36 5-30 6-25 8-26 9-24 12-26 12-22 12-19 12-17 11-14 11-13 11-12 20-20 11-9 13-11 18-13 17-11 21-12 15-8 28-12 36-12 29-7 32-5 20-2z" fill="#1E439C"/>
<path transform="translate(1124,265)" d="m0 0h26l18 3 20 6 16 8 14 9 11 9 13 13 11 15 11 21 6 18 3 16 1 10v18l-3 21-5 17-8 18-10 16-12 14-7 7-17 13-23 12-15 5-21 4-11 1h-11l-18-2-17-4-20-8-14-8-12-9-12-11-9-10-9-13-10-19-6-18-4-22v-27l4-22 6-17 8-16 7-11 8-10 8-9 8-7 14-10 16-9 16-6 15-4z" fill="#01AFF3"/>
</svg>
