<?xml version="1.0" encoding="UTF-8"?>
<svg version="1.1" viewBox="0 0 1200 1200" width="1280" height="1280" xmlns="http://www.w3.org/2000/svg">
<path transform="translate(72,35)" d="m0 0h1056l12 4 12 7 9 9 6 10 4 11 1 5v1038l-3 12-7 13-10 10-14 8-10 3h-1056l-12-4-12-7-9-9-7-11-4-12v-1043l4-13 7-11 9-9 14-8z" fill="#AB1C3D"/>
<path transform="translate(72,35)" d="m0 0h1056l12 4 12 7 9 9 6 10 4 11 1 5v1038l-3 12-7 13-10 10-14 8-10 3h-1056l-12-4-12-7-9-9-7-11-4-12v-1043l4-13 7-11 9-9 14-8zm78 54-15 3-12 5-10 6-10 9-7 8-7 12-5 16-1 6v611l4-2 8-7 58-58 8-7 74-74 8-7 74-74 2-1v-2l4-2 78-78 8-7 59-59 5 21 5 14-45 45-8 7-91 91-8 7-86 86-8 7-78 78-8 7-63 63-1 43v179l2 18 5 15 7 12 11 12 10 8 15 7 16 4h233l8-7 67-67 8-7 77-77 8-7 73-73 8-7 34-34-3 23-1 14-24 10-19 10-13 10-9 9-9 13-7 15-5 17-2 14-15 15-31 8-18 6-17 9-10 9-8 9-8 13-6 12-6 18-3 14-1 11-4 2-15 14-2 4h623l16-4 16-8 9-7 10-10 8-13 5-14 2-11v-614l-7 6-16 16-8 7-72 72-8 7-76 76-8 7-74 74-8 7-57 57-2 1-1-7-7-16-1-7 3-7 5-6 8-7 87-87 8-7 77-77 8-7 72-72 8-7 67-67 2-1v-233l-4-15-6-12-10-13-10-9-14-8-15-5-6-1h-237l-25 25-8 7-74 74-8 7-90 90-8 7-40 40h-1l-4-15-5-13 5-2 14-9 13-10 14-14 10-15 5-12 3-8 25-25 20-9 23-12 13-9 12-12 8-13 7-15 5-17 7-7 8-7 25-25v-1z" fill="#FDFDFD"/>
<path transform="translate(150,89)" d="m0 0h619l-6 7-25 25-8 7h-1l2-31-26 2-24 4-21 6-15 6-17 9-12 9-10 9-8 9-9 15-7 16-4 13-22 9-15 8-14 10-10 9-10 11-9 15-6 14-4 18-1 9-1 21-11 25-5 17-1 6-1 20-65 65-8 7-74 74h-2v2l-8 7-74 74-8 7-74 74-8 7-58 58-4 3h-2v-611l4-17 7-14 8-10 8-8 11-7 11-5 11-3z" fill="#053E2B"/>
<path transform="translate(1116,430)" d="m0 0h1v614l-3 15-6 14-8 11-11 11-11 7-11 5-16 4h-623l4-6 7-7 8-7h2l1 14 46-15 21-5 24-6 17-6 16-8 13-9 10-9 7-8 8-14 6-16 3-15 1-12 18-7 24-9 16-8 11-7 7-6 9-11 8-13 6-15 6-25 2-6 14-11 10-9 8-8 10-15 6-13 4-12 2-11v-26l-1-10 64-64 8-7 74-74 8-7 76-76 8-7 72-72 8-7z" fill="#053E2B"/>
<path transform="translate(611,985)" d="m0 0h4l-1 13-4 15-5 12-8 12-14 14-15 10-17 8-15 5-39 9-28 9-9 3h-4l2-18 5-19 6-15 8-13 9-11 9-8 16-8 13-5 28-7 16-3h6l2 9v4l27-13z" fill="#FEDD00"/>
<path transform="translate(719,104)" d="m0 0 5 1-2 21-4 15-5 12-7 13-12 13-9 7-18 10-23 11-28 11-33 11h-1v-13l3-21 7-21 9-16 11-12 9-9 15-10 16-8 16-6 25-6z" fill="#FEDD00"/>
<path transform="translate(766,744)" d="m0 0h2l6 13 3 13v25l-4 17-9 19-8 11-9 10-14 12-19 14-13 10-16 13-9 5-5-18-2-13v-27l3-15 5-13 6-11 11-13 7-7 8-7 10-9h2l4 10 1 8 11-8 10-9 10-13 8-14z" fill="#FEDD00"/>
<path transform="translate(660,877)" d="m0 0h2l4 15 6 20 2 6 11-9 10-9 17-13 6-4 2 1-4 17-6 15-7 12-9 11-11 10-12 7-30 12-41 15-17 7h-2l-1-2v-27l3-15 6-16 6-10 9-11 11-10 15-9 19-9z" fill="#FEDD00"/>
<path transform="translate(575,203)" d="m0 0h2l-1 35 30-10h3v7l-3 12-8 16-8 11-12 12-14 10-28 17-21 13-17 12h-2l-2-10-1-11v-16l2-15 4-15 8-17 8-11 11-12 13-10 17-10z" fill="#FEDD00"/>
<path transform="translate(541,440)" d="m0 0 16 6 16 8 15 10 13 12 11 14 8 17 4 13 2 12v30l-2 1-28-15-23-11-23-10-15-9-12-11-7-8-6-12-3-12v-16l9 6 10 7 3 1 3-11 8-21z" fill="#FEDD00"/>
<path transform="translate(632,522)" d="m0 0 5 1 21 9 18 10 13 10 10 9 11 14 9 17 4 13 2 11v31l-5-1-31-15-33-15-27-13-10-9-7-8-7-12-5-13v-3l6 2 25 14 1-15z" fill="#FEDD00"/>
<path transform="translate(544,315)" d="m0 0 3 3 5 14 2 9v28l-4 20-5 17-12 36-8 20-2 2-17-17-9-11-9-13-7-14-4-13-2-12v-14l3-17 6-16 3-3 4 7 2 10 8-7 11-9 19-12z" fill="#FEDD00"/>
<path transform="translate(733,632)" d="m0 0 5 5 10 13 9 15 6 15 3 15 1 9v10l-2 14-6 18-8 14-12 14-5 4-4-1-5-12-12-26-12-23-9-21-5-16-2-11v-24l2-6 14 5 19 11 6 4h2l4-24z" fill="#FEDD00"/>
<path transform="translate(637,217)" d="m0 0 2 1-23 23h-1l1-16z" fill="#053E2B"/>
<path transform="translate(572,967)" d="m0 0h1v13l-10 2h-5l6-7z" fill="#053E2B"/>
</svg>
