<?xml version="1.0" encoding="UTF-8"?>
<svg version="1.1" viewBox="0 0 1200 1233" width="1280" height="1280" xmlns="http://www.w3.org/2000/svg">
<path transform="translate(1028,638)" d="m0 0h8l9 3 10 8 9 12 4 7-1 3-19 13-21 14-21 13-21 12-24 12-27 11-30 8-24 6-16 6-11 6-6 5-5 9-3 16v44l1 20v13l-2 23-5 29-8 37-8 27-9 26-11 25-8 16-11 20-12 18-9 12-8 10-10 11-7 8-10 10-8 7-16 13-19 13-15 9-23 12-19 8-30 10-27 6-20 3-11 1h-40l-26-3-24-5-22-7-20-8-16-8-16-9-16-11-14-11-12-11-10-9-7-8-12-14-12-17-11-18-8-15-10-24-9-27-7-30-4-26-2-22v-30l189-2 17-3 79-19 13-3 5 1 7 7 9 11 11 13 9 11 12 14 12 13 8 7 28 24 30 26 14 12 45 39 2 1 18-41 13-30 13-33 11-34 6-26 4-27 2-40v-40l-2-26-2-14v-19l4-8 9-6 17-5 36-6 24-6 27-9 26-11 25-12 11-6 16-11 17-12 17-9z" fill="#FEC72F"/>
<path transform="translate(219,332)" d="m0 0h5l2 6 9 42 9 35 9 29 10 26 9 20 12 23 11 16 14 19 13 18 10 17 6 13 2 8v13l-4 11-6 11-10 14-13 16-12 17-15 26-15 29-12 27-11 29-9 30-4 17-1 2 14 1 47 5 30 2h53l25-2 32-5 22-5 18-6 33-15 24-10 19-6 10-2h10l9 3 7 5 10 13 12 21 11 22 11 18 16 21 9 11 9 10 7 8 25 25 11 9 16 13 24 16-4 16-4 10-8 11-7 4h-8l-12-5-16-13-13-11-14-12-17-16-17-17-7-8-13-15-15-20-13-20-11-18-6-8-9-6-6-2h-11l-20 3-20 6-43 15-16 5-19 4-24 3-22 2-19 1h-34l-29-2-30-4-32-7-29-9-22-9-19-9-22-13-14-10-13-10-10-9-8-7-14-14-9-11-13-17-11-17-12-22-8-19-10-30-6-28-3-26v-40l3-26 5-24 7-24 11-27 13-25 14-21 10-13 12-14 21-21 11-9 15-12 30-20 22-12 21-8 18-5z" fill="#FEC72F"/>
<path transform="translate(513)" d="m0 0h42l26 3 24 5 20 6 19 7 25 12 19 12 17 12 14 11 10 9 8 7 9 9 9 11 10 13 9 15 3 6v3l-16 8-21 11-21 13-22 15-21 16-11 9-14 12-15 14-19 19-13 17-16 23-11 14-15 15-9 6-6 2-10 1-13-2-21-7-20-7-24-7-34-7-35-5-33-3-14-1h-27l-12 3-7 5-3 6-1 14 2 16 8 29 9 31 8 24 12 29 11 23 13 23 14 22 13 17 11 12 14 15 9 10 9 13 7 14 1 3v12l-4 10-6 9-9 10-6 7-8 7-8 8-9 11-11 14-20 30-12 20-14 27-10 23-11 33-3 11h-11l-17-2-11-4-5-5-2-4v-13l7-21 12-29 12-26 13-25 12-20 10-15 14-19 13-15 9-12 5-11v-13l-6-11-20-25-13-19-12-19-10-18-12-23-14-32-13-36-10-36-6-30-4-32-1-15v-34l3-31 4-23 7-26 10-26 8-17 13-22 13-18 12-14 11-12 8-8 11-9 12-10 21-14 21-12 22-10 25-9 27-7 23-4z" fill="#FEC72F"/>
<path transform="translate(814,219)" d="m0 0h3l7 18 10 32 7 29 5 30 2 21v28l-2 26v34l3 16 5 10 8 7 15 8 19 7 45 13 20 7 29 14 23 13 21 13 17 12 16 12 14 12 10 9 12 11 11 12 9 11 14 19 12 20 12 23 10 24 8 24 6 24 5 30 2 24v31l-3 31-5 26-7 25-8 22-14 29-13 21-14 18-12 13-15 15-11 9-15 11-21 13-25 12-25 9-27 7-26 4-12 1h-41l-29-3-27-5-28-7-13-4 1-11 8-31 12-36 19-54 9-28 7-28 4-23v-67l4-16 6-8 9-6 24-8 25-7 21-8 20-9 16-8 21-11 25-15 25-16 17-12 8-8 4-10-2-10-10-14-12-12-28-22-18-14-27-18-20-12-28-15-32-14-22-8-22-5-33-6-17-5-14-7-6-8-2-6v-20l5-29 1-8v-44l-4-33-6-35-13-66-3-21 14-7z" fill="#FEC72F"/>
<path transform="translate(884,128)" d="m0 0h46l25 3 29 6 26 8 25 10 16 8 18 10 19 13 16 13 13 12 13 13 9 11 13 17 12 19 12 23 9 23 7 23 5 23 3 25v41l-3 27-6 29-7 25-10 27-9 20-8 16-8 14-8 8-6 3h-10l-9-5-10-9-15-15-11-9-15-12-18-13-15-10-21-13-18-10-23-12-27-12-29-11-27-9-9-6-6-9-4-18-1-8-1-82-5-30-7-28-14-45-12-39-5 2-26 15-21 13-22 14-20 14-19 14-11 9-13 11-10 9-13 12-7 8-12 13-11 15-15 26-12 21-12 17-12 14-6 4-7 2h-13l-17-4-24-9-28-13-24-11-16-6-19-4-34-3-31-3-21-5-10-4-9-7-6-7-5-10-3-11v-9h19l46 2 40 4 30 5 32 8 21 7 20 9 15 5 5 1h12l10-5 11-10 11-14 13-19 12-18 12-16 9-10 17-17 8-7 15-14 11-9 13-11 16-12 17-12 17-11 21-12 24-12 28-11 25-7 30-5z" fill="#FEC72F"/>
</svg>
