<?xml version="1.0" encoding="UTF-8"?>
<svg version="1.1" viewBox="0 0 1200 1000" width="1280" height="1280" xmlns="http://www.w3.org/2000/svg">
<path transform="translate(46,6)" d="m0 0h488l4 2-18 13-14 10-18 13-21 16-16 13-14 12-13 12-8 7-20 20-7 8-13 16-12 17-9 15-8 15-7 19-4 19-1 10v16l3 20 6 18 8 17 10 16 12 16 11 13 14 15 13 13 8 7 13 12 11 9 11 10 11 9 13 11 11 9 28 24 10 9 8 7 15 14 13 13 7 8 12 14 12 16 13 21 8 17 7 21 3 14 1 7v31l-3 19-6 20-6 16-10 20-13 21-14 19-14 17-10 11-7 8-35 35-8 7-10 9-11 9-14 12-14 11-18 14-19 14-18 13-20 14-39 26-10 7-6 2h-277v-987z" fill="#F58534"/>
<path transform="translate(791,6)" d="m0 0h363l1 1v987h-476v-3l14-10 21-16 16-12 17-14 11-9 28-24 17-16 32-32 7-8 13-15 15-20 12-18 11-19 11-23 6-18 4-18 2-17v-19l-3-21-6-20-9-20-10-17-10-14-8-10-12-14-29-29-8-7-14-12-11-9-16-13-16-12-15-12-16-12-28-22-16-13-13-11-14-12-13-12-19-19-9-11-10-13-9-14-12-23-6-18-3-17v-29l3-18 7-21 12-25 12-19 13-17 11-13 11-12 12-13 7-7 8-7 14-13 11-9 13-11 17-13 18-14 14-10 18-13z" fill="#F58534"/>
<path transform="translate(705,6)" d="m0 0h11l-5 5-16 11-17 13-16 13-11 9-14 12-13 12-15 14-14 15-13 15-15 20-12 19-8 16-7 17-5 20-2 20 1 18 4 18 6 17 11 21 12 17 9 11 9 10 11 12 7 7 8 7 12 11 11 9 13 11 17 13 15 12 17 13 26 20 14 11 22 18 14 12 13 12 15 14 15 16 11 13 13 18 11 19 8 17 6 18 4 20 1 11v15l-2 19-5 21-8 22-10 21-10 17-8 12-14 19-9 11-12 14-15 16-30 30-8 7-13 12-11 9-15 13-28 22-21 16-36 26-12 8-3 1h-60l-5-1 4-4 21-14 17-12 19-14 13-10 14-11 17-14 13-11 14-12 17-16 27-27 7-8 11-13 15-20 12-18 12-21 10-24 5-17 3-16 1-9v-25l-3-19-6-21-8-19-10-19-8-12-12-16-9-11-12-13-21-21-8-7-11-10-11-9-14-12-10-8-16-13-14-11-33-27-14-12-13-12-10-9-21-21-18-22-14-21-9-19-5-16-2-10-1-19 2-18 5-19 8-20 9-17 10-15 12-16 9-11 11-12 9-10 18-18 8-7 13-12 11-9 13-11 14-11 21-16 18-13 20-14 18-12z" fill="#F58534"/>
<path transform="translate(618,6)" d="m0 0h7l-2 4-8 7-17 12-17 13-14 11-13 11-11 9-10 9-8 7-17 16-11 11-7 8-10 11-11 14-13 18-12 21-8 18-5 16-3 17v22l4 20 6 15 9 17 10 14 8 10 12 14 16 17 26 24 11 9 14 12 14 11 16 13 14 11 17 14 13 11 11 9 14 13 8 7 8 8 8 7 11 12 10 11 13 17 10 15 10 18 8 18 6 19 4 21 1 10v19l-2 17-5 21-8 22-8 16-8 15-12 18-12 16-9 11-12 14-15 16-20 20-8 7-14 13-11 9-15 13-14 11-18 14-19 14-18 13-23 16-28 19-5 2h-54l-2-2 33-22 20-14 19-14 17-13 14-11 16-13 11-9 14-12 15-14 8-7 26-26 7-8 13-15 13-17 12-17 14-24 9-20 6-18 4-19 1-8v-28l-4-22-7-20-8-17-11-18-12-16-12-14-12-13-24-24-8-7-11-10-11-9-10-9-11-9-13-11-11-9-28-24-12-11-8-7-28-28-18-22-10-15-9-16-8-20-4-14-2-13v-24l3-18 5-17 8-18 8-15 12-18 10-13 11-13 11-12 25-25 8-7 15-13 11-9 15-12 16-12 18-13 20-14 21-14 17-11z" fill="#F58534"/>
</svg>
