<?xml version="1.0" encoding="UTF-8"?>
<svg version="1.1" viewBox="0 0 1200 858" width="1280" height="1280" xmlns="http://www.w3.org/2000/svg">
<path transform="translate(1073,99)" d="m0 0h1l1 229 100 50 6 7 2 5v131l-4 8-7 6-204 102h-2v-121l-6-2-202-101-7-8-2-5v-131l4-8 6-5zm-109 176-118 59 3 3 116 58h1v-120zm2 121v119l5-1 114-57 1-2-118-59z" fill="#055CAA"/>
<path transform="translate(368,395)" d="m0 0h238l19 2 15 4 10 4 11 8 9 9 10 14 7 14 5 18 2 18v9l-3 22-4 15-8 16-9 12-10 9-14 8-2 1 12 5 14 9 11 10 10 13 7 15 5 19 1 7v26l-4 17-7 16-7 11-10 12-12 9-11 5-18 4-19 2h-248zm90 79v140l3-3 32-52 9-14 1-3 4-2 5-2 41-1 20-2 14-4 9-6 6-8 2-11-1-10-5-8-8-7-9-4-10-2-11-1zm0 142v63h119l16-2 9-4 7-7 5-12v-15l-4-8-9-8-10-4-10-2-12-1z" fill="#055CAA"/>
<path transform="translate(162,395)" d="m0 0h150l-2 5-12 20-15 24-13 21-5 5-4 3-3 1-64 1-21 2-17 4-12 5-11 8-8 10-8 16-5 14-3 15-1 10v32l3 17 7 21 8 17 8 12 9 9 12 6 14 3 23 2 131 1-2 5-16 26-13 21-12 19-7 6-4 2h-120l-26-3-20-5-17-7-13-9-8-7-9-11-10-15-13-27-7-21-5-22-3-21-1-11v-45l3-26 5-24 7-21 13-27 10-15 11-12 9-8 15-9 15-6 21-6 25-4z" fill="#055CAA"/>
<path transform="translate(1073,99)" d="m0 0h1v229l-6-2-100-50-6 1-116 58-6-2-82-41-7-8-2-4v-11l4-8 6-5z" fill="#FCB313"/>
<path transform="translate(1170,377)" d="m0 0 5 1 6 7 2 5v131l-4 8-7 6-148 74-2-2-1-119 64-32-19-10-12-6 2-4 20-10 19-10 34-17 19-10 20-10z" fill="#065CAA"/>
<path transform="translate(749,280)" d="m0 0 3 4 6 7 86 43 23 11 46 23-2 2-1 118-6-2-146-73-7-8-2-5z" fill="#065CAA"/>
<path transform="translate(911,369)" d="m0 0 6 1 48 24 1 1v120l23-11 30-15 3 1 1 119-19 10-36 18h-2v-121l-6-2-50-25-1-3 1-116z" fill="#074F92"/>
<path transform="translate(1182,399)" d="m0 0h1v122l-4 8-7 6-46 23h-2l-1-4v-117l50-25 5-4z" fill="#0C76BC"/>
<path transform="translate(749,280)" d="m0 0 3 4 6 7 50 25v121l-6-2-44-22-7-8-2-5z" fill="#0C76BC"/>
<path transform="translate(1170,377)" d="m0 0 5 1 6 7 2 5v9l-5 10-9 6-44 22-23 11-14 7-6-1-28-14 2-4 20-10 19-10 34-17 19-10 20-10z" fill="#074F92"/>
<path transform="translate(966,275)" d="m0 0 6 2 58 29-5 4-58 29h-1z" fill="#0C76BC"/>
</svg>
