<?xml version="1.0" encoding="UTF-8"?>
<svg version="1.1" viewBox="0 0 1200 1200" width="1280" height="1280" xmlns="http://www.w3.org/2000/svg">
<path transform="translate(138,107)" d="m0 0h923l22 2 17 4 16 7 11 7 12 12 7 12 4 12 2 14-1 16-4 17-6 16-9 17-14 24-14 25-14 24-14 25-14 24-14 25-14 24-14 25-14 24-320 560-16 27-13 16-8 8-13 9-12 6-11 3-13 1-14-2-13-5-12-7-14-12-9-11-9-13-45-78-16-28-14-24-16-28-15-26-16-28-45-78-16-28-30-52-16-28-14-24-16-28-15-26-16-28-14-24-16-28-15-26-16-28-45-78-16-28-30-52-16-28-9-16-6-13-5-15-2-10-1-17 2-13 4-12 7-12 7-8 12-9 14-7 17-5 13-2zm294 130 11 91 48 392 1 2 4-2 19-14 17-13 21-16 19-14 21-16 16-12 21-16 19-14 21-16 16-12 21-16 19-14 21-16 19-14 18-14 19-14 21-16 19-14 18-14 19-14 3-3-25-11-45-19-219-93-160-68z" fill="#F48622"/>
<path transform="translate(439,883)" d="m0 0h69l3 1 2 11 17 137 4 14 1 5-4-5-9-15-15-26-16-28-30-52-16-28-7-12z" fill="#F7AC23"/>
<path transform="translate(138,107)" d="m0 0h923v1h-876l-1 9-3 9-3 2 4-20h-44z" fill="#F7AC23"/>
<path transform="translate(1038,312)" d="m0 0 7 6 15 14 11 11 2 1-2 5-3 6-5-5-12-11-20-20 2-4z" fill="#F7AC23"/>
<path transform="translate(406,823)" d="m0 0h97l1 4-1 1-97 1-2-5z" fill="#F7AC23"/>
<path transform="translate(973,361)" d="m0 0 6 3 11 11 8 7 21 21 8 7 6 5-2 4-7-6-9-9-8-7-22-22-8-7-6-5z" fill="#F6AB22"/>
<path transform="translate(419,848)" d="m0 0h84l4 3-88 1-1-3z" fill="#F7AC23"/>
<path transform="translate(1076,283)" d="m0 0 4 2 10 9 8 7-4 8-23-23z" fill="#F7AC23"/>
</svg>
