<?xml version="1.0" encoding="UTF-8"?>
<svg version="1.1" viewBox="0 0 2000 1728" width="500" height="432" xmlns="http://www.w3.org/2000/svg">
<path transform="translate(555,765)" d="m0 0h160l14 1 21 6 12 4 16 8 10 9 6 8 7 14 7 18 2 13v9l-2 12-7 18-6 9-10 11-11 8 1 3 14 8 10 8 10 11 6 16 3 14 1 10v18l-3 20-4 10-10 15-6 8-10 10-12 7-20 8-37 8-27 1h-131l-4-1-1-5-1-307 1-9zm86 57-22 1v69h88l16-2 10-5 5-4 6-12 2-13-1-12-3-7-4-5-9-6-9-3-6-1zm-21 123-1 3v85l36 1h38l26-1 12-5 11-6 8-14 3-9 1-5v-16l-3-12-6-8-8-5-16-5-12-2z" fill="#FB9E26"/>
<path transform="translate(287,765)" d="m0 0h140l16 2 24 8 16 8 13 9 9 9 8 13 7 14 6 26 1 7v22l-4 17-6 17-5 10-9 12-8 9-13 8-8 4-17 6-19 3-15 1h-72v117l-2 1h-63l-2-2v-319zm83 57-18 1-1 1v93h79l9-2 8-6 11-7 7-10 4-11v-24l-4-11-6-10-18-11-6-2-18-1z" fill="#FB9E26"/>
<path transform="translate(1549,740)" d="m0 0h73l4 27 4 17 6 16 8 15 6 7 5 4 8 10 9 10 4 5 36 19 18 5 11 4 6 1 24 1 15-2 16-5 16-6 20-9 12-9 10-9 5-5 12-13 8-13 6-12 6-13 3-8 3-12 2-19v-6h68l7 1v18l-2 19-5 20-8 21-15 31-12 18-12 14-7 8-12 11-20 16-16 10-36 16-24 7-15 3-20 2h-18l-40-4-18-6-27-10-26-13-13-9-4-4v-2l-4-2-8-7-8-6-10-10-13-19-7-9-5-5-8-18-6-13-7-24-4-21-2-21v-11z" fill="#FB9E26"/>
<path transform="translate(1328,766)" d="m0 0h61l2 1v169l6-4 14-13 12-16 12-14 10-10 10-14 8-9 3-5 5-1h72v3l-14 15-10 13-14 14-8 7-10 13-11 12-3 3h-2l-2 4-2 2 1 5 7 13 9 15 12 27 14 27 10 17 21 42 1 5-38 1h-25l-5-1-13-25-12-27-12-22-8-16-7-13-4 1-11 11-8 7-7 8-1 9-1 67-3 1-59-1-1-20v-299z" fill="#FB9E26"/>
<path transform="translate(943,844)" d="m0 0h24l24 2 15 4 15 6 10 6 8 7 9 16 8 15 2 6 1 9v171l-1 1-51 1-7-2-2-14-2-2-17 9-22 11-10 2-10 1h-26l-17-3-10-3-14-8-10-9-6-7-3-10-4-17v-13l2-18 7-21 6-9 6-7 15-8 24-8 20-4 7-3 33-5 22-7 4-8 1-5v-9l-4-9-5-4-7-3-11-2h-27l-10 4-6 4-3 1-8 20-4 4-5 1h-49l-1-5 1-15 4-13 8-16 7-10 6-5 18-10 12-4 12-3zm49 129-13 4-11 5-29 6-17 6-8 8-5 4-2 4v20l3 6 7 7 8 4 12 2 14-1 13-4 10-6 14-11 4-7 4-20 1-27z" fill="#FB9E26"/>
<path transform="translate(1214,844)" d="m0 0h13l17 2 16 5 15 8 5 4 7 10 8 17 3 12 3 3 1 3v147l-2 31-1 1-35 1h-24l-1-1-1-16-1-141-3-15-4-8-6-5-10-4-11-2h-12l-12 2-14 7-8 9-5 10-3 14-1 7-1 142-7 1-54-1-1-1-1-52v-137l1-45 4-2h31l24 1 1 2 1 27 3-1 7-11 10-8 13-8 13-5 10-2z" fill="#FB9E26"/>
<path transform="translate(31,765)" d="m0 0h60l6 2-1 262h139l21 1 1 39v18l-12 1h-214l-2-7v-314z" fill="#FB9E26"/>
<path transform="translate(1744,599)" d="m0 0h41l17 3 29 12 10 6 10 8 8 8 8 7 8 9 9 14 14 28 4 12 3 20v12l-70 1-2 4-17 11-10 9-9 10h-2v2l-8 7-9 10-10 14-2 2-4-1-12-13-9-11-10-11-7-9-17-12-12-11v-2l-62 1-9 1-1-1 1-16 2-15 7-24 10-21 8-10 7-7 7-8 16-16 22-12 17-6zm19 70-9 7-11 13-6 9-7 8-10 9-10 7-11 8-4 6v2l3 1 15 1h60l58-1 5-2-5-5-17-12-12-10-7-8-7-7-18-22-5-4z" fill="#FB9E26"/>
</svg>
