<?xml version="1.0" encoding="UTF-8"?>
<svg version="1.1" viewBox="0 0 2048 2048" width="1280" height="1280" xmlns="http://www.w3.org/2000/svg">
<path transform="translate(1012,43)" d="m0 0h23l34 1 44 3 44 5 44 7 43 9 44 11 36 11 33 11 21 8 32 13 25 11 29 14 24 12 23 13 29 17 14 9 21 14 20 14 19 14 28 22 13 11 11 9 13 12 8 7 16 15 36 36 7 8 13 14 9 11 9 10 22 28 14 18 13 19 8 11 10 15 14 22 12 20 16 28 15 29 12 24 11 25 13 31 14 38 13 40 10 36 10 43 8 43 7 52 4 47 1 22v76l-2 34-3 35-7 51-8 43-10 43-8 29-11 36-15 42-11 27-10 23-14 30-6-1-19-7-35-11-27-7-30-7-44-8-38-5-42-4-38-2-62-1 4-5 12-9 11-9 12-11 8-7 14-14 7-8 9-10 13-17 9-12 10-15 10-17 10-18 8-17 10-25 10-31 7-32 4-26 2-20v-55l-3-29-5-28-8-32-10-29-13-30-12-23-14-23-12-17-11-14-11-13-9-10-12-13-13-12-13-11-20-15-10-7-21-13-16-9-22-11-27-11-21-7-25-7-38-7-30-3h-51l-31 3-32 6-23 6-27 9-24 10-21 10-23 13-24 16-16 12-16 13-13 12-12 11-12 13-9 11-7 8-13 18-12 18-12 21-8 16-11 24-10 27-8 29-5 25-3 20-2 24-1 26 1 25 3 31 6 36 9 36 1 5-10-1-51-9-41-5-48-4-20-1-37-1h-16l-39 1-48 3-52 5-52 7-43 7-52 10-59 13-54 10-50 7-41 4-32 2h-75l-31-2-22-3-8-4-4-5-9-42-7-46-4-35-3-43-1-29v-37l1-30 4-52 6-47 6-35 8-39 10-40 11-37 14-41 14-36 7-16 15-33 18-36 13-23 12-21 16-26 10-15 13-19 13-18 16-21 11-14 11-13 9-11 12-13 7-8 9-10 15-15 7-8 12-11 13-13 8-7 11-10 8-7 13-11 11-9 14-11 18-14 34-24 23-15 24-15 26-15 28-15 32-16 29-13 42-17 34-12 34-11 41-11 30-7 46-9 43-6 39-4 34-2z" fill="#90D6E0"/>
<path transform="translate(1616,1486)" d="m0 0h38l31 1 44 3 44 5 39 6 52 11 8 2-1 4-11 19-14 22-10 15-16 23-14 19-13 16-10 13-13 15-9 11-16 17-9 10-43 43-8 7-13 12-11 9-15 13-28 22-19 14-14 10-36 24-21 13-26 15-24 13-19 10-23 11-29 13-35 14-34 12-31 10-43 12-35 8-35 7-39 6-45 5-48 3h-76l-35-2-33-3-38-5-26-4-50-10-40-10-40-12-33-11-21-8-27-11-23-10-24-11-16-8-25-13-24-14-14-8-24-15-15-10-16-11-18-13-21-16-14-11-11-9-28-24-15-14-10-9-17-17-8-7v-2l9 1 44 6 42 4 43 2h48l43-2 47-4 41-5 56-9 50-10 51-12 49-13 47-14 61-20 45-15 43-15 43-14 38-12 53-15 52-14 61-15 46-10 45-9 60-10 53-7 54-5 37-2z" fill="#224C83"/>
<path transform="translate(801,1266)" d="m0 0h55l33 2 40 4 42 7 29 6 36 9 40 12 29 10 36 14 30 13 33 16 28 13 33 16 23 11 44 22v2l-7 2-52 9-62 12-66 14-65 15-54 13-89 23-82 22-63 16-52 12-50 10-41 7-46 6-31 3-29 2-30 1h-22l-26-1-30-3-36-6-37-10-31-11-28-13-20-11-20-13-17-12-18-14-15-13-13-12-32-32-7-8-9-10-9-11-11-13-11-14 2-2 34-1 43-3 53-6 40-6 45-8 53-11 58-14 53-14 44-12 45-11 48-10 47-8 45-6 48-4z" fill="#009FDC"/>
</svg>
