<svg xmlns="http://www.w3.org/2000/svg" xmlns:xlink="http://www.w3.org/1999/xlink" width="2000" zoomAndPan="magnify" viewBox="0 0 1500 1499.999933" height="2000" preserveAspectRatio="xMidYMid meet" version="1.0"><defs><clipPath id="a35d99fd97"><path d="M 225 973 L 318 973 L 318 1460.664062 L 225 1460.664062 Z M 225 973 " clip-rule="nonzero"/></clipPath><clipPath id="8fb3c001d6"><path d="M 541 893 L 633 893 L 633 1460.664062 L 541 1460.664062 Z M 541 893 " clip-rule="nonzero"/></clipPath><clipPath id="0886dc91cf"><path d="M 856 766 L 949 766 L 949 1460.664062 L 856 1460.664062 Z M 856 766 " clip-rule="nonzero"/></clipPath><clipPath id="5c8b417a7a"><path d="M 1172 599 L 1264.832031 599 L 1264.832031 1460.664062 L 1172 1460.664062 Z M 1172 599 " clip-rule="nonzero"/></clipPath><clipPath id="214e1b085c"><path d="M 1047 150 L 1497.816406 150 L 1497.816406 600.976562 L 1047 600.976562 Z M 1047 150 " clip-rule="nonzero"/></clipPath></defs><g clip-path="url(#a35d99fd97)"><path fill="#ffffff" d="M 317.109375 1019.152344 L 317.109375 1414.691406 C 317.109375 1440.070312 296.515625 1460.664062 271.132812 1460.664062 C 245.753906 1460.664062 225.160156 1440.070312 225.160156 1414.691406 L 225.160156 1019.152344 C 225.160156 993.773438 245.753906 973.179688 271.132812 973.179688 C 296.515625 973.179688 317.109375 993.773438 317.109375 1019.152344 " fill-opacity="1" fill-rule="evenodd"/></g><g clip-path="url(#8fb3c001d6)"><path fill="#ffffff" d="M 633 939.582031 L 633 1414.691406 C 633 1440.070312 612.40625 1460.664062 587.027344 1460.664062 C 561.644531 1460.664062 541.050781 1440.070312 541.050781 1414.691406 L 541.050781 939.582031 C 541.050781 914.1875 561.644531 893.609375 587.027344 893.609375 C 612.40625 893.609375 633 914.1875 633 939.582031 " fill-opacity="1" fill-rule="evenodd"/></g><g clip-path="url(#0886dc91cf)"><path fill="#ffffff" d="M 948.90625 812.183594 L 948.90625 1414.691406 C 948.90625 1440.070312 928.3125 1460.664062 902.933594 1460.664062 C 877.554688 1460.664062 856.960938 1440.070312 856.960938 1414.691406 L 856.960938 812.183594 C 856.960938 786.804688 877.554688 766.210938 902.933594 766.210938 C 928.3125 766.210938 948.90625 786.804688 948.90625 812.183594 " fill-opacity="1" fill-rule="evenodd"/></g><g clip-path="url(#5c8b417a7a)"><path fill="#ffffff" d="M 1264.800781 645.875 L 1264.800781 1414.691406 C 1264.800781 1440.070312 1244.207031 1460.664062 1218.828125 1460.664062 C 1193.445312 1460.664062 1172.851562 1440.070312 1172.851562 1414.691406 L 1172.851562 645.875 C 1172.851562 620.496094 1193.445312 599.902344 1218.828125 599.902344 C 1244.207031 599.902344 1264.800781 620.496094 1264.800781 645.875 " fill-opacity="1" fill-rule="evenodd"/></g><path fill="#ffffff" d="M 47.515625 922.949219 C 22.277344 921.78125 2.648438 900.359375 3.742188 875.105469 C 4.832031 849.816406 26.316406 830.097656 51.601562 831.21875 C 93.210938 833.058594 137.28125 830.550781 178.65625 826.980469 C 288.28125 817.5 398.09375 795.878906 503.667969 765.105469 C 859.191406 661.464844 1165.058594 454.527344 1405.480469 173.742188 C 1421.898438 154.582031 1451.035156 152.308594 1470.207031 168.722656 C 1489.382812 185.140625 1491.660156 214.292969 1475.246094 233.464844 C 1223.175781 527.84375 902.171875 744.214844 529.546875 852.890625 C 418.003906 885.410156 302.078125 908.230469 186.265625 918.335938 C 152.886719 921.234375 119.292969 923.136719 85.773438 923.464844 C 73.097656 923.601562 60.191406 923.585938 47.515625 922.949219 " fill-opacity="1" fill-rule="evenodd"/><g clip-path="url(#214e1b085c)"><path fill="#ffffff" d="M 1070.492188 150.078125 C 1057.847656 150.078125 1047.589844 160.335938 1047.589844 172.980469 C 1047.589844 188.847656 1472.28125 600.226562 1474.839844 600.226562 C 1487.480469 600.226562 1497.738281 589.96875 1497.738281 577.328125 L 1497.738281 175.003906 C 1497.800781 174.335938 1497.832031 173.664062 1497.832031 172.980469 C 1497.832031 160.289062 1487.542969 149.984375 1474.839844 149.984375 L 1474.839844 150.078125 L 1070.492188 150.078125 " fill-opacity="1" fill-rule="nonzero"/></g></svg>