<?xml version="1.0" encoding="UTF-8"?>
<svg version="1.1" viewBox="0 0 2000 2000" width="2000" height="2000" xmlns="http://www.w3.org/2000/svg">
<path transform="translate(636,167)" d="m0 0h615l25 3 28 6 24 7 9 4 10 4 17 8 13 8 11 7 16 12 2 1v2l4 2 8 7v2l4 2 7 6 7 8 1 3h2l4 5v2h2l3 4v2h2l1 4h2v3h2l7 11 4 5 6 11 10 19 8 20 5 14 4 17 3 13 3 20v649l-1 3-2 18-1 1-4 20-3 8-4 13-6 15-5 11h-2l-1 5-7 14h-2l-2 5-7 11-13 18h-2l-2 4-4 5-5 5-5 6-8 7-3 1v2l-5 4h-2v2l-4 3h-2v2l-16 11-15 10-14 7-15 7-17 7-15 5-9 2-12 3-14 2-2 1-18 1-6 1h-620l-21-2-8-2-11-1-12-3-7-2-23-8-14-6-10-5-15-8-6-4-14-9v-2l-5-1v-2h-3v-2l-4-2-13-11-12-12-2-4-4-2-1-3-3-1-5-7v-2l-3-1-3-5v-2h-2l-8-11-4-7-6-9-7-14-7-15-7-17-8-27-3-17-2-10-1-26v-606l1-23 5-30 6-21 5-15 6-13 9-19 10-17 7-10 9-12 12-14 4-5h2l1-3h2l1-3 8-7 10-9h2v-2l8-6 10-7 21-13 19-9 13-6 24-8 20-5 16-3z" fill="#FDFDFD"/>
<path transform="translate(783,541)" d="m0 0h46l2 1 1 30 5 12 9 8 9 3h12l10-4 6-5 5-8 2-9 1-26 3-2h144l3 2 1 29 5 12 9 8 8 3h13l10-4 6-5 5-9 2-8 1-27 2-1h51l14 3 11 7 7 8 4 9 2 10v344l-3 12-7 11-9 7-9 4-4 1h-249l5-15 1-7v-9l-2-14 238-1 1-2v-268l-1-1h-369l-1 4-1 219-8 6-8 10-5 9-1 9-8 7-5 8h-1v-340l4-10 4-6 4-5 10-6 9-3z" fill="#774399"/>
<path transform="translate(769,914)" d="m0 0 6 1 15 9-2 6-9 12-9 10-12 10-11 7-19 10-19 7-23 6-11 2 6 7 15 12 7 4 10-2 12-5 10-7 2 1-7 11-11 14 6 2 19 9 9 1 10-3 12-6h2v-2l9-5 1-2 3-1 3-3 9-7 1-2h2l-1 4-6 12-13 20-4 6 6 2 23 4h6l8-11 8-14 6-11 9-19 5-12 5-13 6-16 1-3 5 1 18 6-2 9-8 21-10 23-13 26-13 21-10 14-4 3-4 1h-12l-31-6-22-6-14-5-16-7-7-3-12-6-19-12-11-8-12-9v-2l-4-2-19-19-7-9-1-2v-9l5-6 2-1 30-3 19-4 16-5 17-7 11-6 11-8 10-9 10-13z" fill="#873F98"/>
<path transform="translate(1087,1690)" d="m0 0h38l8 13 15 26 14 24 15 26 10 17-1-33v-72l1-1h27v143h-39l-8-13-13-23-14-24-16-28-11-19 1 34v73h-27z" fill="#BF5FCD"/>
<path transform="translate(821,1450)" d="m0 0h38l6 9 16 28 10 17 14 24 15 26 1 1v-105h27v143h-39l-15-26-16-28-14-24-16-28v-2h-2l1 4 1 22v82h-27z" fill="#7613AD"/>
<path transform="translate(872,1690)" d="m0 0h54l14 2 15 5 11 7 10 9 7 10 5 13 2 9 1 10v11l-2 15-5 16-7 11-7 8-12 8-16 6-16 3h-54v-58h-14v-24l1-1h13zm30 25v35l23 1 1 24h-24v33h22l11-3 10-5 7-8 4-8 3-12v-22l-3-12-6-11-7-6-11-5-5-1z" fill="#BE5ECD"/>
<path transform="translate(711,1688)" d="m0 0h22l15 3 12 5 9 7 8 8 8 16 4 15 1 7v25l-3 16-6 15-7 10-8 8-11 6-10 4-10 2h-25l-14-3-11-5-9-6-7-7-8-13-5-15-2-12v-26l3-15 5-13 6-10 10-10 10-6 12-4zm5 25-8 2-6 3-5 4-6 9-3 8-2 10v25l4 16 6 10 8 6 8 3 13 1 11-2 10-6 7-9 4-12 1-6v-27l-4-15-6-10-7-6-7-3-5-1z" fill="#BE5DCD"/>
<path transform="translate(710,1448)" d="m0 0h27l16 4 10 5 11 9 7 10 6 13 3 12 1 7v27l-4 18-5 12-8 11-9 8-16 8-14 3h-23l-14-3-12-5-12-9-8-10-7-15-3-13-1-8v-23l3-16 5-13 7-11 9-9 12-7 13-4zm6 25-10 3-8 6-6 9-4 12-1 7v23l3 14 5 10 7 7 8 4 4 1h19l10-4 7-6 5-9 3-9 2-18-1-16-4-15-6-9-7-6-11-4z" fill="#7613AD"/>
<path transform="translate(1036,1450)" d="m0 0h55l17 3 14 5 11 8 9 9 6 10 4 11 2 8 1 9v15l-2 14-5 15-7 11-10 10-14 8-15 5-14 2h-52zm31 25-1 1v91l1 1h20l13-3 9-5 7-8 5-10 2-9v-24l-3-12-5-9-5-5-5-4-13-4z" fill="#7613AD"/>
<path transform="translate(513,1450)" d="m0 0h55l17 3 13 5 10 6 10 10 7 11 5 14 2 15v13l-2 15-5 15-7 11-10 10-14 8-16 5-13 2h-52zm30 25v93h21l13-3 9-5 7-8 4-8 3-13v-20l-3-14-5-9-7-7-8-4-8-2z" fill="#7513AD"/>
<path transform="translate(1250,1690)" d="m0 0h30v56h57v-56h30v143h-30l-1-61-56-1v62h-30z" fill="#AB49CA"/>
<path transform="translate(1297,1450)" d="m0 0h55l16 3 12 6 6 5 6 10 3 9v23l-4 12-7 10-8 6-8 4-10 3-8 1-22 1-1 50h-30zm30 25v42h18l10-3 8-7 2-6v-12l-4-8-8-5-4-1z" fill="#7613AD"/>
<path transform="translate(1185,1450)" d="m0 0h82v25h-52v31h48v25h-48v37h52v25h-82l-1-1v-141z" fill="#7715AE"/>
<path transform="translate(586,1688)" d="m0 0h13l14 2 16 5 6 3-3 10-6 14-6-1-16-6-7-1h-8l-11 3-8 6-4 5-4 8-3 12-1 17 2 17 4 12 5 7 10 6 8 2h13l17-3 9-3h4v25l-11 4-15 3h-26l-16-4-10-6-10-9-6-9-5-10-4-16-1-8v-21l3-17 5-12 7-12 12-12 14-7 12-3z" fill="#BE5ECD"/>
<path transform="translate(1087,1690)" d="m0 0h38l8 13 15 26 14 24v3l-2 1h-29l-14-24-4-7 1 34v73h-27z" fill="#9631CA"/>
<path transform="translate(747,710)" d="m0 0 5 1 4 6 10 16 15 20v29l-1 2 2 9v70l-8 6-8 10-5 9-1 9-8 7-5 8h-1v-130l2-4v-11l-1-7v-20h2l-1-6-1-11z" fill="#774299"/>
<path transform="translate(872,1690)" d="m0 0h54l14 2 15 5 11 7 10 9 7 10 5 13 2 9v12h-30l-5-19-6-11-8-6-9-4-5-1-25-1v36h22l-1 5-2 1h-59l-2-1v-5h12z" fill="#9631CA"/>
<path transform="translate(711,1688)" d="m0 0h22l15 3 12 5 9 7 8 8 8 16 4 15v14l-2 1h-28l-2-9-4-15-6-10-6-5-7-3-5-1h-13l-8 2-6 3-3 3h-2l-2 4-5 9-5 22h-30v-16l4-14 7-14 9-10 9-7 12-5z" fill="#9631CA"/>
<path transform="translate(1250,1690)" d="m0 0h30v56h57v-55h29v66h-116z" fill="#9630CA"/>
<path transform="translate(1021,1690)" d="m0 0h30v143h-31v-142z" fill="#9630CA"/>
<path transform="translate(811,872)" d="m0 0 12 1 20 8 17 8 18 8 9 7 6 8 4 10 1 5v7l-3 12-6-2-20-9-7-3-10-4-14-7-13-5-10-5-8-3-14-7-7-3-6-3 2-6 7-8 10-6z" fill="#774399"/>
<path transform="translate(1051,830)" d="m0 0h57l3 3v58l-3 3h-57l-4-4v-56z" fill="#774399"/>
<path transform="translate(936,830)" d="m0 0h57l4 4v56l-4 4h-56l-4-3v-59z" fill="#774399"/>
<path transform="translate(936,746)" d="m0 0h56l5 3v57l-3 4h-58l-3-3v-57z" fill="#774399"/>
<path transform="translate(1052,746)" d="m0 0h56l3 3v58l-3 3h-58l-3-4v-55z" fill="#774399"/>
<path transform="translate(821,662)" d="m0 0h59l2 2v59l-2 2h-59l-3-3v-57z" fill="#774399"/>
<path transform="translate(936,662)" d="m0 0h58l3 2v57l-3 4h-58l-3-3v-57z" fill="#774399"/>
<path transform="translate(1050,662)" d="m0 0h59l2 3v57l-3 3h-58l-3-4v-55z" fill="#774399"/>
<path transform="translate(891,770)" d="m0 0h10l6 3 5 6v6l-17 47-16 44-1 2-7-1-12-6-13-6-5-2 3-9 5-8 12-23 12-22 12-24h2l2-5z" fill="#774399"/>
<path transform="translate(586,1688)" d="m0 0h13l14 2 16 5 6 3-3 10-6 14-6-1-16-6-7-1h-8l-11 3-8 6-4 5-4 8-6 21h-28l-1-1v-12l4-15 8-15 9-10 7-6 12-6 12-3z" fill="#9632CA"/>
<path transform="translate(1064,499)" d="m0 0h13l8 4 6 9 1 3v56l-5 10-9 6-10 1-9-3-7-8-3-9v-50l4-11 8-7z" fill="#774399"/>
<path transform="translate(860,498)" d="m0 0 10 2 8 6 4 9v56l-4 9-8 6-6 2-11-1-6-3-6-9-1-3v-58l4-8 7-6z" fill="#774399"/>
<path transform="translate(659,878)" d="m0 0h10l11 4 8 7 5 10 1 3v12l-4 10-7 8-6 4-6 2h-14l-9-4-8-7-5-10-1-5v-9l4-10 7-8 7-5z" fill="#873F98"/>
<path transform="translate(1187,1691)" d="m0 0h26v65l-1 1h-23l-2-2z" fill="#952FCA"/>
<path transform="translate(859,1750)" d="m0 0h13v1h-12v5h61l2-1 1-4h-22v-1h23l1 1v24l-24 1-1 10-3 1h-25l-1-3v-9h-14v-24z" fill="#AC4CCA"/>
<path transform="translate(1020,1691)" d="m0 0h1v96l29-1v-37h1v84h-31z" fill="#C066D0"/>
<path transform="translate(864,959)" d="m0 0 5 1 18 6-2 9-8 21-10 23-5 10-4-5-6-8-2-5h-2l-2-4 3-10 4-8 5-15 5-12z" fill="#784399"/>
<path transform="translate(842,881)" d="m0 0 23 10 16 8 9 8 6 11 2 9v7l-3 12-6-2-12-6-3-6-6-9-4-7-2-2v-3h-2l-3-5-7-10-6-9z" fill="#863F98"/>
<path transform="translate(1337,1772)" d="m0 0h1v14l28 1v-5h1v51h-30z" fill="#BE5FCD"/>
<path transform="translate(1279,1772)" d="m0 0h1v61h-30v-46h29z" fill="#BE5CCC"/>
<path transform="translate(747,710)" d="m0 0 5 1 4 6 10 16 15 20v29l-1 2 1 2v8l-3-2-4-7-11-17-8-10-5-7-3 1v-12h2l-1-6-1-11z" fill="#873F98"/>
<path transform="translate(705,1649)" d="m0 0h32l10 13 8 10 3 4-1 3h-15l-10-7-9-8-4 1-12 10-6 4h-16l1-5 13-16z" fill="#9734CB"/>
<path transform="translate(1113,1760)" d="m0 0h1v73h-27v-46h26z" fill="#BF60CE"/>
<path transform="translate(1497,372)" d="m0 0 2 4 3 13 3 20v649l-1 3-2 18-1 1-4 20-3 8-4 13-6 15-5 11h-2l-1 5-7 14h-2l-2 5-7 11-13 18h-2l-2 4-4 5-5 5-5 6-8 7-3 1v2l-5 4h-2v2l-4 3h-2v2l-16 11-15 10-14 7-11 5-1-2h3v-2l7-1v-2l5-1v-2l5-3h4v-2l5-1v-2l5-2 2-3 6-3h2l1-3 5-2 4-5 5-3h3l1-3h2v-2h2l1-3h2v-2l6-5h2v-3l7-6 1-2h2v-2l5-5 3-5h2l1-3h2v-3h3l1-5h2l2-5 5-8 2-1 3-7 2-1 2-5 2-4h2l1-5 6-13 1-3h2l1-6 3-7 3-6 2-10h2v-8l3-10h2v-10l2-8 1-16 1-4v-636l-1-3-1-14-3-17-1-1z" fill="#E1C7EF"/>
<path transform="translate(616,817)" d="m0 0 10 3 4 4v2h2l2 5v9l-6 9-7 4h-11l-8-5-4-8v-9l4-8 8-5z" fill="#883F99"/>
<path transform="translate(789,1749)" d="m0 0h1v25l-2 12-1 1h-29l-2-1 2-31 1 2 30-1z" fill="#AC4BCA"/>
<path transform="translate(1162,1755)" d="m0 0 3 3 12 21 1 1v5l-3 2h-25l-5-5-10-18-3-5v-2l28-1z" fill="#AC4BCA"/>
<path transform="translate(654,1748)" d="m0 0h1v9h30l1-3 1 20 1 12-3 1h-27l-1-6h-2l-1-7z" fill="#AC4CCB"/>
<path transform="translate(959,1754)" d="m0 0 1 3h30l1-2v11l-2 15-2 6h-29l-2-1 1-8 1-6z" fill="#AC4BCA"/>
<path transform="translate(557,1751)" d="m0 0h1v14l1 21-2 1h-24l-4-2v-4h-2l-1-8v-21l2 4 28 1z" fill="#AC4DCB"/>
<path transform="translate(1187,1690)" d="m0 0h27v76l-1 20-4 1h-16l-5-2-2-22v-72zm0 1v64l2 2h23l1-1v-65z" fill="#AF51CC"/>
<path transform="translate(1049,1756)" d="m0 0h1v30l-4 1h-25v-30z" fill="#AB49CA"/>
<path transform="translate(1031,1846)" d="m0 0h9l7 3 4 5 1 3v7l-3 7-8 4h-12l-7-4-3-6v-8l3-7 5-3z" fill="#CEA1E6"/>
<path transform="translate(717,1606)" d="m0 0h12l6 3 4 5v12l-3 5-4 3-3 1h-12l-6-3-3-4-1-3v-10l4-6z" fill="#7816AF"/>
<path transform="translate(1221,1606)" d="m0 0h12l6 3 4 6v11l-4 6-6 3h-12l-6-3-3-4-1-3v-10l4-6z" fill="#7714AE"/>
<path transform="translate(1087,1757)" d="m0 0h26v30h-26z" fill="#AB49CA"/>
<path transform="translate(1289,1290)" d="m0 0h10v1l-9 2-14 2-2 1-18 1-6 1h-620l-21-2v-1h18l10 1h603l31-2 7-2 9-1z" fill="#E2C9F0"/>
<path transform="translate(746,828)" d="m0 0h1l1 7 2-2v5l-1 1 1 27 9 12 4 6-2 4-1 9-8 7-5 8h-1z" fill="#873F98"/>
<path transform="translate(1503,1051)" d="m0 0h2v7l-1 3-2 18-1 1-4 20-3 8-4 13-6 15-5 11h-2l-1 5-7 14h-2l-2 5-7 11-13 18h-2l-2 4-4 5-5 5-5 6-8 7-3 1v2l-5 4h-2v2l-4 3h-2v2l-16 11-15 10-14 7-11 5-1-2h3v-2l7-1v-2l5-1v-2l5-3h4v-2l5-1v-2l5-2 2-3 6-3h2l1-3 5-2 4-5 5-3h3l1-3h2v-2h2l1-3h2v-2l6-5h2v-3l7-6 1-2h2v-2l5-5 3-5h2l1-3h2v-3h3l1-5h2l2-5 5-8 2-1 3-7 2-1 2-5 2-4h2l1-5 6-13 1-3h2l1-6 3-7 3-6 2-10h2v-8l3-10h2v-10l2-8 1-16z" fill="#D7B3EA"/>
<path transform="translate(763,1637)" d="m0 0h23l-1 4-7 8-13 10h-16l2-5 7-9z" fill="#9938CC"/>
<path transform="translate(666,830)" d="m0 0h9l6 5 1 9-3 6-5 3h-8l-5-3-3-7 1-6 2-4z" fill="#873F99"/>
<path transform="translate(1031,1846)" d="m0 0h9l7 3 3 3v6l-2 1h-28v-6l5-5z" fill="#BF5FCD"/>
<path transform="translate(1212,1626)" d="m0 0 6 1h18l6-1-2 5-4 3-3 1h-12l-6-3-3-4z" fill="#9733CA"/>
<path transform="translate(708,1625)" d="m0 0 1 2h26l3-1-1 4-5 4-3 1h-12l-6-3-3-4z" fill="#9834CB"/>
<path transform="translate(1503,1051)" d="m0 0h2v7l-1 3-2 18-1 1-4 20-3 8-4 13-2 2 1-7 1-1 2-10h2v-8l3-10h2v-10l2-8 1-16z" fill="#D8B5EB"/>
<path transform="translate(846,852)" d="m0 0 4 4v2h2l5 10-2 1-13-5-1-3 4-8z" fill="#87419B"/>
<path transform="translate(1289,1290)" d="m0 0h10v1l-9 2-14 2-2 1-18 1-6 1h-8v-2l29-2 7-2 9-1z" fill="#DBBBEC"/>
<path transform="translate(1341,1274)" d="m0 0h5l-3 2-17 7-15 5-12 2 3-3 7-1 9-3 7-1v-2l8-1v-2l7-2z" fill="#DAB9EC"/>
<path transform="translate(807,907)" d="m0 0 11 1 5 3v2l7 1 5 3 2 3-10-3-12-6-8-3z" fill="#8D47A1"/>
<path transform="translate(746,752)" d="m0 0 2 1v12l1 2v11l-3 4z" fill="#863F98"/>
<path transform="translate(1370,1259)" d="m0 0h2v3l-14 7-11 5-1-2h3v-2l7-1v-2l5-1v-2l5-3h4z" fill="#DBBAEC"/>
<path transform="translate(1419,1222)" d="m0 0h2l-2 5-3 1v2l-5 4h-2v2l-7 4-2-2 5-3h3l1-3h2v-2h2l1-3h2v-2z" fill="#DAB9EC"/>
<path transform="translate(881,901)" d="m0 0 4 1 7 8 1 4-2 1-5-5v-4l-3-1z" fill="#78429A"/>
<path transform="translate(1503,1051)" d="m0 0h2v7l-1 3-1 11-3 4 2-23z" fill="#D9B8EB"/>
<path transform="translate(1458,286)" d="m0 0 5 5 6 9 2 6-3-1v-4l-3-1-4-7-2-3z" fill="#E5CFF1"/>
<path transform="translate(1487,1121)" d="m0 0 1 4-4 11-2 5h-3l2-7h2l1-6z" fill="#DBBBEC"/>
<path transform="translate(1479,1141)" d="m0 0 2 1-2 5h-2l-1 5-4 8h-1v-5h2l1-5 4-8z" fill="#D6B2EA"/>
<path transform="translate(1491,350)" d="m0 0 2 4 4 12v5l-1-3h-2l-2-10-2-6z" fill="#DDC0ED"/>
<path transform="translate(1501,1074)" d="m0 0h1v5l-1 1-3 15h-1v-8h2v-10z" fill="#D4AEE9"/>
<path transform="translate(1447,1191)" d="m0 0 2 1-3 7-3 1v2h-3l1-3 2-2 2-3h2z" fill="#DDBEED"/>
<path transform="translate(1470,1158)" d="m0 0 1 4-2 4h-2l-1 4h-3l2-5 2-1 2-5z" fill="#DBBBEC"/>
</svg>
