<?xml version="1.0" encoding="UTF-8"?>
<svg version="1.1" viewBox="0 0 2048 2048" width="1280" height="1280" xmlns="http://www.w3.org/2000/svg">
<path transform="translate(2033,341)" d="m0 0h15v1365h-2048v-1364z" fill="#FFDA49"/>
<path transform="translate(2033,341)" d="m0 0h15v1098l-280-112-33-13-35-14-66-26-53-21-41-16-28-11-218-86-31-12-20-8-1-3 6-17 4-13 5-21 3-20 1-14v-13l-2-25-4-22-6-22-8-21-11-23-12-19-13-17-6-7h-2l3 9 6 13 5 17 4 18 2 23v14l-2 20-5 25-8 23-8 16-8 14-14 19-4 5-5 4-3 3-11-3-27-11-43-17-10-5v-123l14-7 7-7 5-9 2-6 1-7 1-1 11-2 8-4 7-6h2l2-5 3-4 4-15 13-4 10-6 7-8 5-12 1-8h-101l-2-1-1-88h-66l-22 1-1 75-1 12-3 1h-100l5 16 7 10 10 7 15 5 5 16 6 8 8 7 10 4 7 1 2 2 2 10 5 10 8 8 14 7v86l-16-6-77-32-27-11-24-10-3-2-1-3 1-21 3-20 5-18 6-15 5-12-3 3h-2l-2 4-10 12-10 15-12 21-9 20-4 1-30-12-11-5-27-11-104-43-130-54-39-16-36-15-122-50-46-19-37-15-44-18-132-54-39-16-2-1v-268z" fill="#FEDA49"/>
<path transform="translate(0,610)" d="m0 0 9 3 37 15 115 47 239 98 29 12 70 29 32 13 19 8 29 12 72 30 27 11 65 27 25 10 13 6 18 7h3l12-26 12-20 12-16 8-10 4-4 2 1-8 19-6 18-4 19-2 21v9l1 3 23 10 20 8 39 16 41 17 22 9v-85l-10-4-10-9-6-9-2-6-1-7-1-1-9-2-9-4-8-7-4-5-4-8-3-11-12-3-11-7-6-7-5-10-2-7v-4l103-1 1-87 1-1 22-1h66l1 1v88h103l1 5-4 12-6 9-8 7-8 4-11 2-1 8-3 9-5 7-12 9-9 3-7 1-2 10-4 9-9 10-10 6-4 1v123l26 11 46 18 16 6h4l2-4 4-2 2-4 13-17 9-15 8-16 7-19 5-19 3-19 1-13v-14l-2-23-6-26-6-16-6-13 1-3 4 2 10 12 12 17 11 19 9 19 9 25 6 26 3 20 1 17v13l-2 21-4 23-6 21-4 12-3 10 23 9 51 20 185 73 22 9 16 6 41 16 33 13 86 34 35 14 33 13 260 104 19 8 1 1v186l-10-3-30-12-27-11-19-8-16-6-96-39-30-12-54-22-30-12-54-22-30-12-27-11-30-12-64-26-64-26-30-12-44-18-30-12-27-11-40-16h-174l-9-2-1-1v-27h-176v29l-1 1h-171l-7-2-1-1v-86l1-2 57-1 2-28 2-1h46l-5-5-9-10-7-7-10-13-10-15-7-11-7-14-14-7-20-8-29-12-16-6-81-33-30-12-34-14-55-22-91-37-35-14-27-11-30-12-29-12-30-12-19-8-16-6-29-12-50-20-24-10-30-12-44-18-40-16-28-11-8-4z" fill="#D4012B"/>
<path transform="translate(0,424)" d="m0 0 10 3 40 16 92 37 47 19 111 45 30 12 47 19 116 47 30 12 34 14 50 20 76 31 30 12 37 15 44 18 40 16 69 28 27 11 39 15v1l-68 1h-26l5 16 7 10 10 7 15 5 5 16 6 8 8 7 10 4 7 1 2 2 2 10 5 10 8 8 14 7v86l-16-6-77-32-27-11-24-10-3-2-1-3 1-21 3-20 5-18 6-15 5-12-3 3h-2l-2 4-10 12-10 15-12 21-9 20-4 1-30-12-11-5-27-11-104-43-130-54-39-16-36-15-122-50-46-19-37-15-44-18-132-54-39-16-2-1z" fill="#FBFAFA"/>
<path transform="translate(1240,925)" d="m0 0 5 1 24 10 37 15 69 28 30 12 96 39 30 12 39 16 25 10 52 21 37 15 30 12 47 19 69 28 27 11 30 12 42 17 69 28 50 20v188l-280-112-33-13-35-14-66-26-53-21-41-16-28-11-218-86-31-12-20-8-1-3 6-17 4-13 5-21 3-20 1-14v-13l-2-25-4-22-6-22-8-21z" fill="#FBFAFA"/>
<path transform="translate(1242,1120)" d="m0 0 6 1 46 18 28 11 180 71 22 9 16 6 41 16 33 13 86 34 35 14 33 13 260 104 19 8 1 1v184l-6-1-32-13-27-11-30-12-24-10-40-16-101-41-27-11-40-16-64-26-27-11-35-14-39-16-20-8-47-19-27-11-35-14-27-11-75-30-31-13-2-3-1-13-1-70-6-1-50-1-2-1-1-27-16-1h-29l-2-1 2-4 6-5 7-8 12-14 11-16 9-15 9-17z" fill="#020102"/>
<path transform="translate(0,610)" d="m0 0 9 3 37 15 78 32 12 5v2l9 3 44 18 29 12 19 8 68 28 67 28 37 15 27 11 11 5 28 11 11 5 13 5 36 15 13 5 41 17 27 11 12 5 19 8 27 11 19 8 34 14 63 26 10 4-1 8-6 21-4 20-2 18v36l4 26 7 27 7 21-1 4-12-5-30-12-86-35-30-12-39-16-82-33-64-26-27-11-35-14-39-16-20-8-47-19-42-17-32-13-30-12-47-19-37-15-35-14-27-11-30-12-12-5-1-1z" fill="#020102"/>
<path transform="translate(1125,878)" d="m0 0 4 1 31 13 31 12 16 7 7 3 2 14 1 15v14l-2 20-5 25-8 23-8 16-8 14-14 19-4 5-5 4-3 3-11-3-27-11-43-17-10-5v-123l14-7 7-7 5-9 2-6 1-7 1-1 11-2 8-4z" fill="#FBFAFA"/>
<path transform="translate(832,955)" d="m0 0 10 1 73 30 41 17 19 8v2l3 1 1 3v118l-1 1-8-1-24-9-23-12-12-8-16-13-15-15-11-14-7-10-10-18-9-20-7-23-4-27z" fill="#040102"/>
<path transform="translate(1070,1052)" d="m0 0 7 1 27 11 38 15 7 3v2l7 2-1 4-11 10-14 10-13 8-14 7-15 6-13 4h-6l-1-14v-48l1-20z" fill="#050102"/>
<path transform="translate(1244,1111)" d="m0 0 5 3 32 13 60 24 27 11 30 12 37 15 35 14 19 8 28 11 20 8 11 5 28 11 34 14 23 9 34 14 30 12 37 15 74 30 29 12 19 8-3 1-85-34-33-13-35-14-66-26-53-21-41-16-28-11-218-86-31-12-20-8-1-3z" fill="#FFDA49"/>
<path transform="translate(220,699)" d="m0 0 6 1 27 11 28 11 19 8 28 11 29 12 40 16 29 12 40 16 22 9 55 22 27 11 35 14 24 10 23 9 25 10 11 5 28 11 34 14 20 8 24 10 8 4 1 4-4 1-30-12-11-5-27-11-104-43-130-54-39-16-36-15-122-50-80-33z" fill="#FFDA49"/>
<path transform="translate(831,940)" d="m0 0h1l2 6 29 12 20 8 18 7 13 6 18 7 32 13 15 6v8l-16-6-77-32-27-11-24-10-3-2-1-3z" fill="#FFDA49"/>
<path transform="translate(1395,1180)" d="m0 0 6 1 55 22 36 14 30 12 31 12 114 45 96 38 140 56 7 3-3 1-33-13-26-10-101-40-65-26-13-5-36-14-27-11-25-10-13-5-35-14-36-14-32-13-35-14-33-13z" fill="#D4012B"/>
<path transform="translate(1069,1041)" d="m0 0 11 5 30 12 32 13 16 6 7 3-3 5-4 1-16-6-38-15-32-13-3-2z" fill="#FFDA49"/>
</svg>
