<?xml version="1.0" encoding="UTF-8"?>
<svg version="1.1" viewBox="0 0 2048 2048" width="1280" height="1280" xmlns="http://www.w3.org/2000/svg">
<path transform="translate(0,352)" d="m0 0h2048v1344h-2048z" fill="#D50227"/>
<path transform="translate(338,472)" d="m0 0h2l4 11 14 43 32 104 1 2 6 1h158l-1 3-17 11-18 13-17 12-18 13-16 11-10 7-17 12-15 11-4 3 1 7 16 47 14 41 14 43 8 23v3l-5-2v-2l-4-2-12-9-26-20-14-11-12-9-15-12-17-13-13-10-12-9-5 1-30 23-17 13-14 11-9 7-30 23-16 12-11 9h-2l1-7 4-11 24-72 15-43 9-28v-4l-14-9-19-14-19-13-15-11-20-14-14-10-19-13-11-8-2-3 1-1 19 1h134l8-1 3-7 21-78z" fill="#FFD74B"/>
<path transform="translate(749,466)" d="m0 0 2 2 1 31 27 9 1 3-27 9-1 1v32l-5-5-10-15-3-4-8 1-20 8h-2l1-5 14-20-1-7-7-8-9-13 3-1 21 7 6 1 7-10 9-15z" fill="#FFD74B"/>
<path transform="translate(649,1041)" d="m0 0h2l1 3 1 30 16 4 13 4-1 3-26 9-1 1 1 32-4-2-14-20v-2l-7 1-15 6-9 3 1-5 7-10 7-11v-5l-9-10-8-11v-2l6 1 15 5 10 2 2-5 11-19z" fill="#FFD74B"/>
<path transform="translate(796,869)" d="m0 0 3 1 8 26v2h32l-2 4-16 11-6 4 1 8 8 24-5-1-9-8-10-7-6 1-13 10-6 5h-3l1-5 6-18 2-8-15-11-8-5v-3l21-1 8-1 6-18z" fill="#FFD74B"/>
<path transform="translate(851,670)" d="m0 0h1l-1 9-5 20 2 4 20 14 2 1v3h-28l-2 1-5 17-3 13-3-1-9-27h-31l-1-2 1-2 6-3 16-13v-6l-8-21v-3l5 1 15 11 6 2 14-11z" fill="#FFD74B"/>
</svg>
