<?xml version="1.0" encoding="UTF-8"?>
<svg version="1.1" viewBox="0 0 2048 2048" width="1280" height="1280" xmlns="http://www.w3.org/2000/svg">
<path transform="translate(0,340)" d="m0 0h2048v1366h-2048z" fill="#D50227"/>
<path transform="translate(2019,1024)" d="m0 0h29v682h-2048v-681z" fill="#FBFBFB"/>
<path transform="translate(449,475)" d="m0 0 26 1 15 2 3 2-9 3-20 7-23 11-15 9-16 12-10 9-3 1-2 4h-2l-2 4-10 11-12 16-9 15-11 23-7 21-4 17-3 19-1 14v13l3 29 6 25 8 22 8 16 8 14 10 14 11 13 17 17 10 8 11 8 13 8 15 8 26 10 12 4v2l-16 2-15 1h-15l-23-2-21-4-22-7-17-7-22-12-11-8-16-13-19-19-13-17-11-18-8-16-6-15-6-20-5-27-1-14v-18l2-20 5-24 9-27 8-17 11-18 12-16 9-10 16-16 17-13 16-10 17-9 24-9 20-5 20-3z" fill="#FBFBFB"/>
<path transform="translate(716,582)" d="m0 0h2l10 31 3 11h45v3l-20 14-15 11 3 11 10 30v2l-5-2-16-12-14-10-6 1-16 12-14 10-3 1 1-7 11-33-1-4-16-12-16-11-3-2v-2l47-1 2-9 8-24z" fill="#FBFBFB"/>
<path transform="translate(484,582)" d="m0 0 3 1 10 31 3 9 44 1v3l-30 22-4 3 1 5 12 36v2l-5-2-14-10-15-11-5-1-16 11-12 9-5 4h-3l3-11 10-30-2-4-17-12-14-10-3-2v-2h19l27-1 7-22z" fill="#FBFBFB"/>
<path transform="translate(529,715)" d="m0 0 3 3 10 32 2 5v3h46l-5 5-30 22 1 7 9 29 2 5-1 3-18-13-15-11-7 1-18 13-11 8-4 1 1-5 12-39-5-2-11-8-19-14-1-2h45l3-10 7-21 3-11z" fill="#FBFBFB"/>
<path transform="translate(600,493)" d="m0 0 3 1 9 30 4 11h38l7 1-5 5-9 6-20 15h-2l9 29 4 12-1 3-12-8-16-12-6-4-5 1-17 12-15 11h-2l2-9 9-28 1-7-17-12-18-13 2-2h44l2-9z" fill="#FBFBFB"/>
<path transform="translate(671,716)" d="m0 0h2l12 36 2 5h44v3l-9 7-14 10-11 8 1 7 10 31 1 5-4-1-16-12-14-10-7 1-15 11-12 9-2 2-4-1 4-13 8-25 1-5-5-2-8-6-18-13-5-5h45l3-9z" fill="#FBFBFB"/>
</svg>
