<?xml version="1.0" encoding="UTF-8"?>
<svg version="1.1" viewBox="0 0 2048 2048" width="1280" height="1280" xmlns="http://www.w3.org/2000/svg">
<path transform="translate(2035,340)" d="m0 0h13v1367h-2048v-1366z" fill="#0053B3"/>
<path transform="translate(1022,1024)" d="m0 0h1025l1 1v682h-2046l4-5 1014-676h2z" fill="#D60327"/>
<path transform="translate(0,341)" d="m0 0 11 7 75 50 43 29 44 29 43 29 44 29 43 29 32 21 207 138 44 29 43 29 44 29 43 29 44 29 43 29 44 29 43 29 44 29 45 30 19 13 24 16v4l-14 9-996 664-9 7-3 1z" fill="#FBFAFA"/>
<path transform="translate(297,772)" d="m0 0 5 1 12 13 10 10 7 8 13 13 7 8 15 16 7 7 6 7 4-1 7-8 12-12 7-8 16-17 11-12 16-17 8-8h4l1 3 2 20 9 72 2 15v6l25-4 72-14 21-4-1 6-24 44-10 17-6 12-9 16-5 8-1 4 6 2 23 11 28 13 35 17 10 4 5 4-5 4-28 13-48 23-21 9-4 2 2 6 14 27 12 21 14 26 13 23v3l-11-1-104-20h-2l-9 70-6 47-4-1-8-8-7-8-12-12-7-8-11-12-8-8v-2l-3-1-7-8-10-10v-2h-2l-3-4-5 1-12 14-12 12-7 8-15 16-8 9h-2l-2 4-14 14-5 6h-3l-6-43-8-62-1-11-2-1-40 8-53 10-17 3h-5l2-7 3-4 8-16 10-18 13-23 15-28 4-9-16-8-29-14-28-13-33-16 1-3 10-4 16-8 39-19 33-15 7-3-1-5-7-12-8-16-15-27-11-20-13-22v-4l10 1 42 8 61 12 5 1v-11l12-94 1-11z" fill="#FED94D"/>
<path transform="translate(840,944)" d="m0 0 3 1v57l3 3 42 13 10 3 2 3-8 4-48 16v59h-4l-10-13-8-11-10-13-6-8-7 1-48 16h-3l1-6 6-7 7-10 10-14 8-11-1-7-8-10-11-15-8-10-5-7 1-4 6 1 36 12 11 4h5l7-11 6-8 10-14 8-11z" fill="#FED94D"/>
<path transform="translate(86,1417)" d="m0 0 5 1 12 17 12 16 7 10v2l10-2 36-11 10-4 4 1-3 6-13 17-8 11-9 12v6l13 18 11 16 8 10v2l-4 1-44-14-5-2h-6l-8 11-10 13-11 15-6 7h-2l-1-60-28-10-26-9-1-3 8-3 17-5 31-10z" fill="#FED94D"/>
<path transform="translate(86,473)" d="m0 0 5 1 7 10 8 11 12 17 4 5v2l8-1 39-12 7-3h6l-2 5-10 13-14 19-7 10 1 7 13 18 10 14 8 11-3 3-36-12-14-5h-6l-8 11-12 16-12 17-2 2h-3v-60l-10-3-22-8-24-8 1-3 25-8 30-10z" fill="#FED94D"/>
</svg>
