<svg width="445" height="627" viewBox="0 0 445 627" fill="none" xmlns="http://www.w3.org/2000/svg">
<path d="M133.177 542.484L26.3228 579.005L90.234 393.693C90.1567 393.693 90.0793 393.693 89.9245 393.693C84.7404 393.693 80.4075 392.223 77.0804 389.36C69.3429 382.629 70.3488 371.719 71.2773 362.047C71.5868 359.107 71.9737 354.542 71.7416 352.143C69.4203 351.602 64.7779 351.369 61.915 351.215C52.2432 350.75 41.256 350.209 35.6851 341.62C30.1915 333.032 34.215 322.818 37.7742 313.843C38.8574 311.057 40.5597 306.802 41.0239 304.403C38.9348 303.165 34.6018 301.695 31.8937 300.767C22.6862 297.594 12.2406 293.958 9.37778 284.054C6.51492 274.305 13.2465 265.716 19.2043 258.133C21.0613 255.812 23.9242 252.098 25.0074 249.932C23.3825 248.229 19.6686 245.599 17.3473 243.896C9.37778 238.171 0.402344 231.749 0.402344 221.38C0.402344 211.012 9.37778 204.59 17.3473 198.942C19.6686 197.24 23.3825 194.609 25.0074 192.907C23.9242 190.74 20.9839 187.026 19.2043 184.705C13.2465 177.122 6.51492 168.534 9.37778 158.785C12.2406 148.881 22.6862 145.244 31.8937 142.072C34.6792 141.143 38.9348 139.596 41.0239 138.435C40.5597 136.036 38.8574 131.703 37.7742 128.995C34.215 120.02 30.1915 109.807 35.6851 101.218C41.256 92.6294 52.2432 92.0878 61.915 91.6235C64.8552 91.4688 69.4203 91.2367 71.7416 90.695C71.9737 88.2964 71.5094 83.7313 71.2773 80.7911C70.4262 71.0419 69.4203 60.1321 77.0804 53.4006C80.4075 50.5377 84.6631 49.0676 89.9245 49.0676C94.7991 49.0676 99.9832 50.3056 104.935 51.4662C108.572 52.3173 112.286 53.2458 114.684 53.3232C115.613 51.0793 116.464 46.5916 117.006 43.7288C118.863 34.2117 120.952 23.3793 130.314 19.1237C132.48 18.1178 134.879 17.6536 137.355 17.6536C144.319 17.6536 150.973 21.4449 157.395 25.1589C159.948 26.629 163.972 28.9503 166.293 29.724C167.763 27.867 169.852 23.8436 171.168 21.2128C175.655 12.5469 180.762 2.72034 190.976 1.25023C191.827 1.25023 192.6 1.17285 193.374 1.17285C202.35 1.17285 208.926 8.05917 215.348 14.7134C217.438 16.8799 220.765 20.3617 222.776 21.7544C224.788 20.3617 228.115 16.9572 230.204 14.7134C236.472 8.05917 243.048 1.17285 252.024 1.17285C252.798 1.17285 253.571 1.25023 254.268 1.3276C264.481 2.79771 269.588 12.6243 274.076 21.2902C275.391 23.8436 277.48 27.867 278.95 29.8014C281.194 29.0276 285.295 26.7064 287.848 25.2363C294.27 21.5223 301.002 17.731 307.888 17.731C310.442 17.731 312.763 18.2726 314.929 19.2011C324.292 23.4567 326.381 34.2891 328.238 43.8062C328.779 46.669 329.63 51.1567 330.559 53.4006C333.035 53.3232 336.749 52.3947 340.308 51.5436C345.26 50.383 350.444 49.145 355.319 49.145C360.503 49.145 364.836 50.6151 368.163 53.478C375.9 60.2095 374.894 71.1193 373.966 80.7911C373.656 83.7313 373.27 88.2964 373.502 90.695C375.823 91.2367 380.465 91.4688 383.328 91.6235C393 92.0878 403.987 92.6294 409.558 101.218C415.052 109.807 411.028 120.02 407.469 128.995C406.386 131.781 404.684 136.036 404.219 138.435C406.308 139.596 410.641 141.143 413.35 142.072C422.557 145.244 433.003 148.881 435.866 158.785C438.728 168.534 431.997 177.122 426.039 184.705C424.182 187.026 421.319 190.74 420.236 192.907C421.861 194.609 425.575 197.24 427.896 198.942C435.866 204.668 444.841 211.09 444.841 221.38C444.841 231.749 435.866 238.171 427.896 243.819C425.575 245.521 421.861 248.152 420.236 249.854C421.319 252.021 424.259 255.735 426.039 258.056C431.997 265.639 438.728 274.227 435.866 283.976C433.003 293.88 422.557 297.517 413.35 300.689C410.564 301.618 406.308 303.165 404.219 304.326C404.684 306.724 406.386 310.98 407.469 313.765C411.028 322.741 415.052 332.954 409.558 341.543C403.987 350.131 393 350.673 383.328 351.137C380.388 351.292 375.823 351.524 373.502 352.066C373.27 354.464 373.734 359.029 373.966 361.97C374.894 371.642 375.9 382.551 368.163 389.283C364.836 392.146 360.58 393.616 355.319 393.616C354.236 393.616 353.152 393.538 352.069 393.461L411.879 574.827L311.757 537.919L251.095 624.965L223.55 532.58L188.267 626.435L133.177 542.484Z" fill="white"/>
<path d="M189.971 382.629L254.501 599.2L307.502 523.218L395.013 555.483L325.918 345.799L189.971 382.629Z" fill="#DB4A1D"/>
<g opacity="0.7">
<path d="M226.266 443.03L219.457 445.107L262.581 586.464L269.39 584.387L226.266 443.03Z" fill="#FFCE45"/>
</g>
<g opacity="0.7">
<path d="M324.713 379.299L317.924 381.438L370.913 549.628L377.702 547.489L324.713 379.299Z" fill="#FFCE45"/>
</g>
<path d="M111.66 359.646L42.5645 560.046L137.039 527.781L185.398 601.519L266.022 387.269L111.66 359.646Z" fill="#FC712B"/>
<g opacity="0.7">
<path d="M129.068 351.584L64.5566 549.723L71.3256 551.927L135.837 353.788L129.068 351.584Z" fill="#FFCE45"/>
</g>
<g opacity="0.7">
<path d="M244.268 374.61L170.535 584.252L177.251 586.614L250.983 376.972L244.268 374.61Z" fill="#FFCE45"/>
</g>
<path d="M30.7628 191.484L30.7609 191.496L30.7591 191.509C30.6607 192.21 29.9785 193.542 27.7193 195.622C25.7001 197.481 23.1007 199.345 20.1984 201.427C20.0138 201.559 19.828 201.692 19.641 201.827C16.6627 203.964 13.3586 206.362 10.8173 208.918C8.36339 211.387 5.80078 214.799 5.80078 219.062C5.80078 223.321 8.3606 226.738 10.813 229.212C13.3539 231.775 16.6568 234.179 19.6371 236.323C19.8414 236.47 20.0444 236.616 20.2458 236.761C23.1289 238.832 25.7118 240.689 27.722 242.536C29.9889 244.62 30.664 245.942 30.7598 246.619L30.7613 246.629L30.7628 246.639C30.8741 247.4 30.577 248.915 29.0048 251.551C27.5565 253.98 25.5168 256.585 23.2465 259.484L23.0061 259.791C20.7512 262.672 18.2509 265.883 16.5224 269.011C14.8658 272.009 13.3132 275.975 14.4863 280.035C15.656 284.142 19.0726 286.704 22.1134 288.382C25.2674 290.122 29.1147 291.493 32.5786 292.704C32.8173 292.788 33.0545 292.871 33.2899 292.953C36.6406 294.123 39.6465 295.173 42.1042 296.38C44.8722 297.74 45.9166 298.828 46.2143 299.475L46.2154 299.478C46.5364 300.175 46.678 301.711 45.9108 304.687C45.2097 307.406 43.9995 310.454 42.6518 313.847L42.4745 314.294C41.1236 317.697 39.6331 321.491 38.8675 324.99C38.1313 328.355 37.7876 332.613 40.1071 336.181C42.4091 339.742 46.4044 341.203 49.7792 341.937C53.2852 342.7 57.3509 342.924 61.0049 343.109L61.5906 343.139C65.1902 343.32 68.4204 343.483 71.1544 343.962C74.161 344.49 75.4941 345.241 75.9941 345.806C76.4716 346.371 77.0226 347.791 77.1142 350.844C77.1973 353.616 76.8989 356.833 76.5665 360.418L76.5111 361.016C76.1741 364.662 75.8175 368.718 76.0717 372.297C76.3164 375.742 77.1884 379.912 80.3867 382.697C83.5956 385.492 87.8567 385.763 91.3011 385.514C94.8792 385.255 98.8477 384.321 102.41 383.467L102.933 383.342C106.462 382.495 109.629 381.735 112.403 381.426C115.458 381.085 116.948 381.441 117.581 381.849C118.215 382.258 119.154 383.465 120.106 386.38C120.967 389.018 121.583 392.193 122.27 395.734L122.38 396.304C123.078 399.896 123.872 403.893 125.125 407.261C126.334 410.512 128.353 414.265 132.219 416.044L132.221 416.045C136.077 417.817 140.236 416.859 143.451 415.651C146.799 414.393 150.339 412.38 153.515 410.56L153.915 410.331C157.087 408.512 159.938 406.877 162.534 405.794C165.373 404.61 166.914 404.528 167.649 404.744L167.656 404.746L167.663 404.748C168.336 404.944 169.555 405.806 171.292 408.337C172.848 410.603 174.327 413.447 175.977 416.622C176.078 416.815 176.179 417.01 176.281 417.206C177.972 420.454 179.872 424.061 182.034 426.938C184.118 429.711 187.119 432.738 191.324 433.354L191.337 433.355L191.35 433.357C195.543 433.946 199.252 431.852 201.992 429.783C204.844 427.63 207.667 424.701 210.196 422.063L210.464 421.783C213.011 419.126 215.3 416.738 217.501 414.959C219.887 413.031 221.358 412.51 222.152 412.51C222.948 412.51 224.424 413.034 226.817 414.963C229.034 416.75 231.34 419.151 233.904 421.821L234.14 422.066C236.673 424.703 239.497 427.63 242.342 429.781C245.066 431.841 248.766 433.944 252.944 433.359C257.17 432.775 260.183 429.744 262.268 426.973C264.432 424.098 266.333 420.486 268.024 417.233C268.13 417.027 268.236 416.823 268.342 416.621C269.987 413.451 271.463 410.61 273.015 408.344C274.754 405.805 275.972 404.943 276.641 404.748L276.648 404.746L276.655 404.744C277.389 404.528 278.931 404.61 281.77 405.794C284.366 406.877 287.217 408.512 290.389 410.331L290.789 410.56C293.965 412.38 297.504 414.393 300.852 415.651C304.068 416.859 308.227 417.817 312.083 416.045L312.085 416.044C315.947 414.267 317.971 410.519 319.187 407.269C320.447 403.9 321.249 399.905 321.952 396.31L322.078 395.664C322.763 392.151 323.378 388.999 324.232 386.375C325.18 383.464 326.11 382.253 326.732 381.843C327.37 381.438 328.86 381.087 331.901 381.426C334.675 381.735 337.842 382.495 341.371 383.342L341.894 383.467C345.456 384.321 349.425 385.255 353.003 385.514C356.443 385.762 360.699 385.493 363.906 382.707C367.123 379.933 367.984 375.753 368.222 372.321C368.469 368.747 368.105 364.687 367.763 361.04L367.715 360.524C367.375 356.904 367.07 353.653 367.157 350.86C367.252 347.786 367.817 346.373 368.301 345.816L368.31 345.806L368.319 345.795C368.789 345.249 370.093 344.493 373.118 343.962C375.849 343.482 379.082 343.32 382.688 343.138L383.27 343.109C386.929 342.924 391.001 342.7 394.512 341.937C397.89 341.204 401.894 339.745 404.198 336.18C406.516 332.611 406.172 328.355 405.436 324.99C404.671 321.491 403.18 317.697 401.829 314.294L401.652 313.847C400.304 310.454 399.094 307.407 398.393 304.687C397.626 301.711 397.767 300.175 398.088 299.478L398.099 299.455L398.11 299.431C398.399 298.783 399.424 297.692 402.172 296.329C404.655 295.097 407.713 294.028 411.128 292.835L411.667 292.646C415.126 291.436 418.974 290.072 422.13 288.347C425.172 286.685 428.608 284.148 429.809 280.064L429.811 280.057L429.813 280.05C430.995 275.985 429.44 272.013 427.781 269.011C426.053 265.883 423.553 262.672 421.298 259.791L421.057 259.484C418.787 256.585 416.747 253.98 415.299 251.551C413.727 248.915 413.43 247.4 413.541 246.639L413.543 246.627L413.545 246.614C413.643 245.914 414.325 244.582 416.585 242.501C418.604 240.642 421.203 238.778 424.106 236.696C424.29 236.564 424.476 236.431 424.663 236.297C427.641 234.159 430.945 231.762 433.487 229.205C435.94 226.737 438.503 223.324 438.503 219.062C438.503 214.802 435.943 211.385 433.491 208.912C430.95 206.349 427.647 203.944 424.667 201.8C424.462 201.653 424.259 201.507 424.058 201.363C421.175 199.291 418.592 197.435 416.582 195.587C414.315 193.503 413.64 192.181 413.544 191.504L413.543 191.494L413.541 191.484C413.43 190.723 413.727 189.209 415.299 186.572C416.747 184.143 418.787 181.538 421.057 178.639L421.298 178.332C423.553 175.452 426.053 172.24 427.781 169.112C429.438 166.114 430.991 162.148 429.817 158.087C428.647 153.98 425.231 151.419 422.19 149.741C419.036 148.001 415.189 146.63 411.725 145.419C411.487 145.335 411.25 145.253 411.014 145.17C407.663 144 404.657 142.95 402.2 141.743C399.432 140.383 398.387 139.296 398.09 138.648L398.088 138.645C397.767 137.948 397.626 136.412 398.393 133.436C399.094 130.717 400.304 127.669 401.652 124.276L401.829 123.83C403.18 120.426 404.671 116.633 405.436 113.133C406.172 109.77 406.516 105.514 404.199 101.946C401.898 98.3819 397.901 96.921 394.525 96.1862C391.019 95.4231 386.953 95.1993 383.299 95.0143L382.714 94.9847C379.114 94.8034 375.884 94.6406 373.15 94.161C370.143 93.6336 368.81 92.8824 368.31 92.3172C367.832 91.7523 367.281 90.3331 367.19 87.279C367.107 84.5079 367.405 81.2905 367.737 77.7063L367.793 77.107C368.13 73.4616 368.486 69.4051 368.232 65.8267C367.987 62.3816 367.115 58.2114 363.917 55.4258C360.708 52.631 356.447 52.3606 353.003 52.6093C349.425 52.8678 345.456 53.8022 341.894 54.6559L341.37 54.7816C337.842 55.6281 334.675 56.3879 331.901 56.6972C328.846 57.0378 327.356 56.6818 326.723 56.2743C326.089 55.8655 325.15 54.6578 324.198 51.7436C323.337 49.1057 322.721 45.9305 322.034 42.3889L321.924 41.8192C321.226 38.2271 320.432 34.2302 319.179 30.862C317.97 27.6114 315.951 23.8583 312.085 22.0793L312.083 22.0782C308.227 20.3066 304.068 21.2642 300.852 22.4722C297.504 23.7301 293.965 25.7431 290.789 27.5631L290.389 27.7926C287.217 29.6113 284.366 31.2458 281.77 32.3292C278.931 33.5136 277.389 33.5948 276.655 33.3789L276.648 33.3768L276.641 33.3748C275.968 33.1791 274.749 32.3168 273.012 29.7862C271.456 27.5201 269.977 24.676 268.326 21.5016C268.226 21.308 268.125 21.1133 268.023 20.9173C266.332 17.6688 264.432 14.0619 262.27 11.1856C260.186 8.4118 257.184 5.38499 252.98 4.76965L252.967 4.76779L252.954 4.76599C248.761 4.17691 245.052 6.27152 242.312 8.34027C239.46 10.4934 236.637 13.4219 234.108 16.0603L233.84 16.3395C231.293 18.9968 229.004 21.3847 226.802 23.164C224.417 25.0919 222.946 25.6133 222.152 25.6133C221.356 25.6133 219.879 25.0897 217.487 23.1607C215.27 21.3737 212.964 18.9722 210.4 16.303L210.164 16.0573C207.631 13.4199 204.807 10.4933 201.962 8.34215C199.237 6.28142 195.533 4.17646 191.352 4.76565C187.131 5.35225 184.12 8.38085 182.036 11.1504C179.872 14.0255 177.971 17.6373 176.28 20.8907C176.174 21.0957 176.068 21.2995 175.963 21.5019C174.317 24.6716 172.841 27.5131 171.289 29.7792C169.55 32.3181 168.332 33.1803 167.663 33.3748L167.656 33.3768L167.649 33.3789C166.914 33.5948 165.373 33.5136 162.534 32.3292C159.938 31.2458 157.087 29.6113 153.915 27.7926L153.515 27.5631C150.339 25.7431 146.799 23.7301 143.451 22.4722C140.236 21.2642 136.077 20.3066 132.221 22.0782L132.219 22.0793C128.357 23.8563 126.332 27.6043 125.117 30.8545C123.857 34.2228 123.055 38.2187 122.352 41.8135C122.31 42.0299 122.268 42.2449 122.226 42.4585C121.541 45.9718 120.925 49.124 120.072 51.7482C119.124 54.6586 118.195 55.8693 117.572 56.2795C116.935 56.6848 115.445 57.0363 112.403 56.6972C109.629 56.3879 106.462 55.6281 102.933 54.7816C102.76 54.7399 102.585 54.698 102.41 54.6559C98.8477 53.8022 94.8792 52.8678 91.3011 52.6093C87.8604 52.3608 83.6047 52.6305 80.3971 55.4168C77.1811 58.1908 76.3195 62.3708 76.082 65.8023C75.8346 69.3766 76.1992 73.4366 76.5406 77.0832C76.5568 77.256 76.5729 77.4279 76.589 77.5991C76.9287 81.2195 77.2337 84.4699 77.147 87.2633C77.0515 90.3371 76.4873 91.7507 76.0028 92.3071L75.9937 92.3175L75.9847 92.328C75.515 92.874 74.2112 93.6298 71.1861 94.1611C68.4551 94.6408 65.2218 94.8035 61.6156 94.9849C61.4228 94.9946 61.229 95.0044 61.0342 95.0142C57.3753 95.1993 53.3031 95.4231 49.7918 96.1858C46.4126 96.9199 42.4065 98.3799 40.1034 101.948C37.788 105.515 38.1317 109.77 38.8675 113.133C39.6331 116.633 41.1236 120.426 42.4745 123.83C42.5339 123.979 42.593 124.128 42.6519 124.276C43.9995 127.67 45.2097 130.717 45.9108 133.436C46.678 136.412 46.5364 137.948 46.2154 138.645L46.2047 138.669L46.1942 138.692C45.9047 139.341 44.8802 140.431 42.1318 141.794C39.6488 143.026 36.5911 144.095 33.1775 145.288C32.9982 145.35 32.8179 145.413 32.6366 145.477C29.1773 146.687 25.3302 148.051 22.1733 149.776C19.1317 151.438 15.6959 153.975 14.4948 158.059L14.4928 158.066L14.4907 158.073C13.3093 162.138 14.8637 166.111 16.5224 169.112C18.2509 172.24 20.7512 175.452 23.0061 178.332L23.2467 178.639C25.517 181.538 27.5566 184.143 29.0048 186.572C30.577 189.209 30.8741 190.723 30.7628 191.484Z" fill="#B0E0D8" stroke="white" stroke-width="9"/>
<path d="M222.237 386.112C314.497 386.112 389.288 311.321 389.288 219.061C389.288 126.801 314.497 52.0098 222.237 52.0098C129.977 52.0098 55.1855 126.801 55.1855 219.061C55.1855 311.321 129.977 386.112 222.237 386.112Z" fill="#D8FFF8"/>
<path d="M222.231 393C175.806 393 132.089 374.895 99.2053 342.088C66.3212 309.204 48.293 265.565 48.293 219.063C48.293 172.561 66.3986 128.921 99.2053 96.0374C132.089 63.1532 175.729 45.125 222.231 45.125C268.655 45.125 312.372 63.2306 345.256 96.0374C378.14 128.921 396.168 172.561 396.168 219.063C396.168 265.565 378.063 309.204 345.256 342.088C312.372 374.972 268.733 393 222.231 393ZM222.231 52.0887C130.155 52.0887 55.1793 126.987 55.1793 219.14C55.1793 311.293 130.078 386.191 222.231 386.191C314.384 386.191 389.282 311.293 389.282 219.14C389.282 126.987 314.384 52.0887 222.231 52.0887Z" fill="#99C3BC"/>
<path d="M222.236 344.72C291.634 344.72 347.892 288.462 347.892 219.064C347.892 149.666 291.634 93.4082 222.236 93.4082C152.838 93.4082 96.5801 149.666 96.5801 219.064C96.5801 288.462 152.838 344.72 222.236 344.72Z" fill="#B0E0D8"/>
<path d="M324.747 177.745C324.747 170.008 323.973 162.348 322.58 154.997C300.451 124.125 265.556 100.525 224.702 100.525C157.231 100.525 101.522 150.973 103.92 226.181C104.152 233.919 106.087 241.347 107.48 248.697C129.609 279.57 161.719 299.764 202.65 299.764C270.043 299.842 324.747 245.216 324.747 177.745Z" fill="#D8FFF8"/>
<path d="M222.236 344.72C152.909 344.72 96.5801 288.314 96.5801 219.064C96.5801 149.814 152.986 93.4082 222.236 93.4082C291.486 93.4082 347.892 149.814 347.892 219.064C347.892 288.314 291.564 344.72 222.236 344.72ZM222.236 100.527C156.855 100.527 103.699 153.683 103.699 219.064C103.699 284.446 156.855 337.602 222.236 337.602C287.617 337.602 340.774 284.446 340.774 219.064C340.774 153.683 287.617 100.527 222.236 100.527Z" fill="#99C4BC"/>
<path d="M137.891 117.546L148.646 90.3105L158.705 117.933L177.584 128.688L158.318 138.747L147.563 173.256L137.504 138.36L118.625 127.605L137.891 117.546Z" fill="white"/>
</svg>
