<svg width="445" height="626" viewBox="0 0 445 626" fill="none" xmlns="http://www.w3.org/2000/svg">
<path d="M133.29 541.97L26.436 578.491L90.3473 393.179C90.2699 393.179 90.1926 393.179 90.0378 393.179C84.8537 393.179 80.5208 391.709 77.1937 388.846C69.4563 382.115 70.4621 371.205 71.3906 361.533C71.7001 358.593 72.087 354.028 71.8548 351.629C69.5336 351.088 64.8912 350.856 62.0283 350.701C52.3565 350.237 41.3694 349.695 35.7984 341.106C30.3048 332.518 34.3283 322.304 37.8875 313.329C38.9707 310.543 40.6729 306.288 41.1372 303.889C39.0481 302.651 34.7151 301.181 32.007 300.253C22.7995 297.08 12.3539 293.444 9.49108 283.54C6.62823 273.791 13.3598 265.202 19.3176 257.619C21.1746 255.298 24.0374 251.584 25.1207 249.418C23.4958 247.715 19.7819 245.085 17.4606 243.382C9.49108 237.657 0.515625 231.235 0.515625 220.944C0.515625 210.576 9.49108 204.154 17.4606 198.505C19.7819 196.803 23.4958 194.172 25.1207 192.47C24.0374 190.304 21.0972 186.59 19.3176 184.268C13.3598 176.686 6.62823 168.097 9.49108 158.348C12.3539 148.444 22.7995 144.807 32.007 141.635C34.7925 140.707 39.0481 139.159 41.1372 137.999C40.6729 135.6 38.9707 131.267 37.8875 128.559C34.3283 119.583 30.3048 109.37 35.7984 100.781C41.3694 92.1929 52.3565 91.6513 62.0283 91.187C64.9685 91.0323 69.5336 90.8001 71.8548 90.2585C72.087 87.8599 71.6227 83.2948 71.3906 80.3546C70.4621 70.6828 69.4563 59.773 77.1937 53.0414C80.5208 50.1786 84.7764 48.7085 90.0378 48.7085C94.9124 48.7085 100.097 49.9465 105.048 51.1071C108.685 51.9582 112.399 52.8867 114.798 52.9641C115.726 50.7202 116.577 46.2325 117.119 43.3696C118.976 33.8526 121.065 23.0202 130.427 18.7646C132.594 17.7587 134.992 17.2945 137.468 17.2945C144.432 17.2945 151.086 21.0858 157.508 24.7998C160.062 26.2699 164.085 28.5911 166.406 29.3649C167.876 27.5079 169.966 23.4844 171.281 20.8537C175.769 12.1877 180.875 2.36119 191.089 0.891077C191.863 0.813702 192.636 0.736328 193.333 0.736328C202.308 0.736328 208.885 7.62265 215.307 14.2769C217.396 16.4433 220.723 19.9252 222.735 21.3179C224.747 19.9252 228.074 16.5207 230.163 14.2769C236.508 7.62265 243.162 0.736328 252.137 0.736328C252.911 0.736328 253.685 0.813702 254.381 0.891077C264.595 2.36119 269.701 12.1877 274.189 20.8537C275.504 23.407 277.593 27.4305 279.064 29.3649C281.307 28.5911 285.408 26.2699 287.962 24.7998C294.384 21.0858 301.115 17.2945 308.002 17.2945C310.555 17.2945 312.876 17.8361 315.043 18.7646C324.405 23.0202 326.494 33.8526 328.351 43.3696C328.893 46.2325 329.744 50.7202 330.672 52.9641C333.148 52.8867 336.862 51.9582 340.421 51.1071C345.373 49.9465 350.557 48.7085 355.432 48.7085C360.616 48.7085 364.949 50.1786 368.276 53.0414C376.014 59.773 375.008 70.6828 374.079 80.3546C373.77 83.2948 373.383 87.8599 373.615 90.2585C375.936 90.8001 380.579 91.0323 383.442 91.187C393.113 91.6513 404.101 92.1929 409.672 100.781C415.165 109.37 411.142 119.583 407.582 128.559C406.499 131.344 404.797 135.6 404.333 137.999C406.422 139.159 410.755 140.707 413.463 141.635C422.67 144.807 433.116 148.444 435.979 158.348C438.842 168.097 432.11 176.686 426.152 184.268C424.295 186.59 421.432 190.304 420.349 192.47C421.974 194.172 425.688 196.803 428.009 198.505C435.979 204.231 444.954 210.653 444.954 220.944C444.954 231.312 435.979 237.734 428.009 243.382C425.688 245.085 421.974 247.715 420.349 249.418C421.432 251.584 424.373 255.298 426.152 257.619C432.11 265.202 438.842 273.791 435.979 283.54C433.116 293.444 422.67 297.08 413.463 300.253C410.677 301.181 406.422 302.729 404.333 303.889C404.797 306.288 406.499 310.543 407.582 313.329C411.142 322.304 415.165 332.518 409.672 341.106C404.101 349.695 393.113 350.237 383.442 350.701C380.501 350.856 375.936 351.088 373.615 351.629C373.383 354.028 373.847 358.593 374.079 361.533C375.008 371.205 376.014 382.115 368.276 388.846C364.949 391.709 360.694 393.179 355.432 393.179C354.349 393.179 353.266 393.102 352.182 393.025L411.993 574.39L311.87 537.483L251.209 624.529L223.663 532.144L188.381 625.999L133.29 541.97Z" fill="white"/>
<path d="M191.398 385.442L255.929 602.013L308.93 525.953L396.441 558.219L327.345 348.611L191.398 385.442Z" fill="#DB4A1D"/>
<g opacity="0.7">
<path d="M227.703 445.845L220.895 447.922L264.018 589.278L270.827 587.201L227.703 445.845Z" fill="#FFCE45"/>
</g>
<g opacity="0.7">
<path d="M326.155 382.105L319.365 384.244L372.354 552.434L379.144 550.295L326.155 382.105Z" fill="#FFCE45"/>
</g>
<path d="M113.087 362.387L43.9141 562.864L138.388 530.599L186.747 604.336L267.449 390.087L113.087 362.387Z" fill="#FC712B"/>
<g opacity="0.7">
<path d="M130.384 354.391L65.873 552.529L72.642 554.733L137.153 356.595L130.384 354.391Z" fill="#FFCE45"/>
</g>
<g opacity="0.7">
<path d="M245.691 377.363L171.959 587.005L178.675 589.367L252.407 379.725L245.691 377.363Z" fill="#FFCE45"/>
</g>
<path d="M32.1865 194.298L32.1847 194.311L32.1829 194.324C32.0845 195.024 31.4023 196.356 29.1431 198.436C27.1238 200.296 24.5242 202.16 21.6217 204.241C21.4372 204.374 21.2516 204.507 21.0648 204.641C18.0865 206.779 14.7824 209.176 12.2411 211.733C9.78721 214.201 7.22461 217.614 7.22461 221.876C7.22461 226.139 9.78721 229.551 12.2411 232.02C14.7824 234.576 18.0865 236.974 21.0648 239.111C21.2516 239.245 21.4373 239.378 21.6217 239.511C24.5242 241.592 27.1238 243.456 29.1431 245.316C31.4023 247.396 32.0845 248.728 32.1829 249.428L32.1847 249.441L32.1865 249.454C32.2979 250.215 32.0007 251.729 30.4286 254.366C28.9804 256.795 26.9407 259.4 24.6704 262.299L24.4299 262.606C22.175 265.486 19.6747 268.698 17.9462 271.826C16.2896 274.823 14.737 278.789 15.9101 282.85C17.0799 286.957 20.4964 289.518 23.5372 291.196C26.6913 292.937 30.5385 294.307 34.0024 295.519C34.2412 295.602 34.4783 295.685 34.7137 295.767C38.0644 296.938 41.0703 297.988 43.5281 299.195C46.296 300.554 47.3405 301.642 47.6381 302.29L47.6392 302.292C47.9602 302.99 48.1018 304.526 47.3346 307.501C46.6335 310.221 45.4232 313.268 44.0756 316.662L43.8983 317.108C42.5474 320.511 41.0569 324.305 40.2913 327.805C39.5551 331.169 39.2114 335.427 41.5309 338.996C43.8329 342.557 47.8282 344.017 51.203 344.751C54.709 345.515 58.7747 345.738 62.4287 345.923L63.0144 345.953C66.614 346.134 69.8442 346.297 72.5782 346.777C75.5845 347.304 76.9176 348.055 77.4178 348.621C77.8953 349.186 78.4464 350.605 78.538 353.659C78.6212 356.43 78.3227 359.648 77.9903 363.232L77.9349 363.831C77.5979 367.476 77.2413 371.533 77.4955 375.111C77.7402 378.556 78.6122 382.726 81.8105 385.512C85.0194 388.307 89.2804 388.577 92.7249 388.328C96.303 388.07 100.271 387.135 103.833 386.282L104.357 386.156C107.885 385.31 111.052 384.55 113.827 384.241C116.882 383.9 118.372 384.256 119.004 384.663C119.639 385.072 120.578 386.28 121.529 389.194C122.391 391.832 123.007 395.007 123.693 398.549L123.804 399.119C124.502 402.711 125.296 406.707 126.549 410.076C127.758 413.326 129.777 417.079 133.642 418.858L133.645 418.86C137.501 420.631 141.66 419.673 144.875 418.466C148.223 417.208 151.763 415.195 154.938 413.375L155.339 413.145C158.511 411.326 161.361 409.692 163.958 408.608C166.796 407.424 168.338 407.343 169.072 407.559L169.079 407.561L169.086 407.563C169.76 407.759 170.979 408.621 172.716 411.152C174.271 413.417 175.75 416.262 177.401 419.436C177.502 419.63 177.603 419.824 177.705 420.02C179.396 423.269 181.296 426.876 183.457 429.752C185.542 432.526 188.543 435.553 192.748 436.168L192.761 436.17L192.774 436.172C196.966 436.761 200.676 434.666 203.416 432.597C206.268 430.444 209.09 427.516 211.62 424.877L211.887 424.598C214.435 421.941 216.723 419.553 218.925 417.774C221.311 415.846 222.782 415.324 223.576 415.324C224.372 415.324 225.848 415.848 228.241 417.777C230.458 419.564 232.764 421.965 235.327 424.634L235.563 424.88C238.097 427.518 240.921 430.444 243.766 432.596C246.489 434.655 250.19 436.759 254.368 436.173C258.593 435.589 261.607 432.559 263.692 429.787C265.856 426.912 267.757 423.3 269.448 420.047C269.554 419.842 269.66 419.639 269.765 419.436C271.411 416.267 272.886 413.425 274.438 411.159C276.177 408.62 277.396 407.757 278.065 407.563L278.072 407.561L278.079 407.559C278.813 407.343 280.355 407.424 283.193 408.608C285.79 409.692 288.64 411.326 291.812 413.145L292.213 413.375C295.389 415.195 298.928 417.208 302.276 418.466C305.491 419.673 309.651 420.631 313.507 418.86L313.509 418.858C317.371 417.081 319.395 413.333 320.611 410.083C321.871 406.715 322.673 402.719 323.375 399.124C323.418 398.908 323.46 398.693 323.501 398.48C324.187 394.966 324.802 391.814 325.656 389.19C326.603 386.279 327.533 385.068 328.155 384.658C328.792 384.253 330.283 383.901 333.325 384.241C336.099 384.55 339.266 385.31 342.795 386.156L343.318 386.282C346.88 387.135 350.848 388.07 354.427 388.328C357.869 388.577 362.126 388.307 365.334 385.518C368.547 382.744 369.408 378.566 369.646 375.135C369.893 371.561 369.528 367.501 369.187 363.854L369.139 363.339C368.799 359.718 368.494 356.468 368.581 353.674C368.676 350.601 369.24 349.187 369.725 348.631L369.734 348.62L369.743 348.61C370.213 348.064 371.516 347.308 374.541 346.777C377.273 346.297 380.506 346.134 384.112 345.953L384.693 345.923C388.352 345.738 392.424 345.515 395.936 344.752C399.314 344.018 403.318 342.559 405.621 338.994C407.94 335.426 407.596 331.169 406.86 327.805C406.095 324.305 404.604 320.511 403.253 317.108L403.076 316.661C401.728 313.268 400.518 310.221 399.817 307.501C399.05 304.526 399.191 302.99 399.512 302.292L399.523 302.269L399.533 302.246C399.823 301.597 400.847 300.507 403.596 299.143C406.079 297.912 409.136 296.843 412.55 295.65L413.091 295.461C416.55 294.251 420.397 292.887 423.554 291.162C426.596 289.5 430.032 286.962 431.233 282.879L431.235 282.872L431.237 282.865C432.418 278.799 430.864 274.827 429.205 271.826C427.477 268.698 424.976 265.486 422.721 262.606L422.481 262.298C420.211 259.399 418.171 256.795 416.723 254.366C415.151 251.729 414.854 250.215 414.965 249.454L414.967 249.441L414.969 249.428C415.067 248.728 415.749 247.396 418.008 245.316C420.028 243.456 422.627 241.592 425.53 239.511C425.714 239.378 425.9 239.245 426.087 239.111C429.065 236.974 432.369 234.576 434.91 232.02C437.364 229.551 439.927 226.139 439.927 221.876C439.927 217.616 437.367 214.2 434.915 211.726C432.374 209.163 429.071 206.758 426.091 204.615C425.886 204.468 425.683 204.322 425.482 204.177C422.599 202.105 420.016 200.249 418.006 198.401C415.739 196.317 415.064 194.995 414.968 194.319L414.966 194.308L414.965 194.298C414.854 193.538 415.151 192.023 416.723 189.386C418.171 186.957 420.211 184.353 422.481 181.453L422.721 181.146C424.976 178.266 427.477 175.054 429.205 171.926C430.862 168.928 432.415 164.962 431.241 160.902C430.071 156.795 426.655 154.234 423.614 152.556C420.46 150.816 416.613 149.445 413.149 148.233C412.91 148.15 412.673 148.067 412.437 147.985C409.087 146.814 406.081 145.764 403.623 144.557C400.855 143.198 399.811 142.11 399.513 141.462L399.512 141.46C399.191 140.762 399.05 139.227 399.817 136.251C400.518 133.531 401.728 130.484 403.076 127.091L403.253 126.644C404.604 123.241 406.095 119.447 406.86 115.947C407.596 112.584 407.94 108.328 405.623 104.761C403.322 101.196 399.325 99.7354 395.948 99.0007C392.442 98.2376 388.377 98.0138 384.723 97.8287L384.138 97.7992C380.538 97.6178 377.307 97.4551 374.573 96.9754C371.568 96.4483 370.235 95.6975 369.734 95.1324C369.257 94.568 368.705 93.1489 368.613 90.0934C368.53 87.3224 368.829 84.1049 369.161 80.5208L369.217 79.9214C369.554 76.2761 369.91 72.2196 369.656 68.6412C369.411 65.1961 368.539 61.0259 365.341 58.2403C362.132 55.4455 357.871 55.175 354.427 55.4238C350.848 55.6822 346.88 56.6167 343.318 57.4704L342.794 57.596C339.266 58.4425 336.099 59.2023 333.325 59.5116C330.27 59.8522 328.78 59.4962 328.147 59.0887C327.512 58.6799 326.574 57.4723 325.622 54.5581C324.76 51.9201 324.145 48.7449 323.458 45.2034L323.347 44.6336C322.65 41.0415 321.856 37.0447 320.603 33.6765C319.394 30.4259 317.375 26.6728 313.509 24.8937L313.507 24.8926C309.651 23.1211 305.491 24.0786 302.276 25.2866C298.928 26.5445 295.389 28.5575 292.213 30.3776L291.813 30.6071C288.641 32.4257 285.79 34.0602 283.193 35.1437C280.355 36.328 278.813 36.4093 278.079 36.1933L278.072 36.1913L278.065 36.1892C277.392 35.9936 276.173 35.1312 274.436 32.6006C272.88 30.3346 271.401 27.4905 269.75 24.316C269.65 24.1225 269.548 23.9277 269.446 23.7318C267.756 20.4833 265.855 16.8763 263.694 14C261.61 11.2263 258.608 8.19945 254.403 7.5841L254.391 7.58224L254.378 7.58044C250.185 6.99136 246.475 9.08597 243.736 11.1547C240.884 13.3079 238.061 16.2363 235.531 18.8748L235.264 19.1542C232.717 21.8114 230.428 24.1992 228.226 25.9784C225.84 27.9063 224.369 28.4278 223.576 28.4278C222.78 28.4278 221.303 27.9042 218.91 25.9752C216.694 24.1881 214.387 21.7866 211.824 19.1172L211.588 18.8717C209.055 16.2343 206.231 13.3078 203.386 11.1566C200.66 9.09588 196.957 6.99092 192.776 7.58011C188.554 8.1667 185.543 11.1953 183.459 13.9649C181.296 16.84 179.395 20.4517 177.704 23.7051C177.597 23.9101 177.492 24.1137 177.387 24.3161C175.741 27.4859 174.265 30.3275 172.713 32.5936C170.974 35.1325 169.756 35.9947 169.086 36.1892L169.079 36.1913L169.072 36.1933C168.338 36.4093 166.796 36.328 163.958 35.1437C161.361 34.0602 158.511 32.4259 155.339 30.6073L154.938 30.3776C151.763 28.5575 148.223 26.5445 144.875 25.2866C141.66 24.0786 137.501 23.1211 133.645 24.8926L133.642 24.8937C129.781 26.6708 127.756 30.4187 126.541 33.6689C125.281 37.0372 124.479 41.0331 123.776 44.628C123.734 44.8443 123.692 45.0593 123.65 45.273C122.964 48.7863 122.349 51.9384 121.495 54.5626C120.548 57.4731 119.618 58.6838 118.996 59.094C118.359 59.4993 116.869 59.8507 113.827 59.5116C111.052 59.2024 107.885 58.4425 104.357 57.596C104.184 57.5543 104.009 57.5125 103.833 57.4704C100.271 56.6167 96.303 55.6822 92.7249 55.4238C89.2838 55.1753 85.0276 55.445 81.8198 58.2322C78.6047 61.0062 77.7432 65.1856 77.5058 68.6168C77.2584 72.1911 77.623 76.251 77.9644 79.8976C77.9806 80.0705 77.9967 80.2425 78.0128 80.4137C78.3525 84.0341 78.6575 87.2844 78.5708 90.0778C78.4754 93.1516 77.9111 94.5652 77.4266 95.1215L77.4175 95.1319L77.4085 95.1424C76.9388 95.6884 75.635 96.4443 72.61 96.9756C69.8788 97.4553 66.6455 97.6179 63.0392 97.7994C62.8465 97.8091 62.6528 97.8188 62.458 97.8287C58.7991 98.0138 54.7269 98.2375 51.2156 99.0003C47.8364 99.7343 43.8303 101.194 41.5272 104.762C39.2118 108.33 39.5555 112.585 40.2913 115.947C41.0569 119.447 42.5474 123.241 43.8983 126.644C43.9577 126.794 44.0168 126.943 44.0757 127.091C45.4233 130.484 46.6335 133.531 47.3346 136.251C48.1018 139.227 47.9602 140.762 47.6392 141.46L47.6285 141.483L47.618 141.507C47.3285 142.155 46.3041 143.245 43.5556 144.609C41.0726 145.84 38.0149 146.909 34.6013 148.102C34.422 148.165 34.2417 148.228 34.0604 148.291C30.6011 149.501 26.754 150.866 23.5971 152.59C20.5555 154.252 17.1197 156.79 15.9186 160.873L15.9166 160.88L15.9145 160.887C14.7331 164.953 16.2875 168.925 17.9462 171.926C19.6747 175.054 22.175 178.266 24.4299 181.146L24.6703 181.453C26.9406 184.352 28.9803 186.957 30.4286 189.386C32.0007 192.023 32.2979 193.538 32.1865 194.298Z" fill="#FCC438" stroke="white" stroke-width="9"/>
<path d="M223.653 392.334C317.793 392.334 394.109 316.019 394.109 221.879C394.109 127.739 317.793 51.4229 223.653 51.4229C129.513 51.4229 53.1973 127.739 53.1973 221.879C53.1973 316.019 129.513 392.334 223.653 392.334Z" fill="#FFCE45"/>
<path d="M223.658 395.815C177.234 395.815 133.517 377.709 100.633 344.902C67.749 312.018 49.7207 268.379 49.7207 221.877C49.7207 175.375 67.8263 131.736 100.633 98.8518C133.517 65.9677 177.156 47.9395 223.658 47.9395C270.083 47.9395 313.8 66.0451 346.684 98.8518C379.568 131.736 397.596 175.375 397.596 221.877C397.596 268.379 379.49 312.018 346.684 344.902C313.8 377.709 270.083 395.815 223.658 395.815ZM223.658 54.8258C131.583 54.8258 56.607 129.724 56.607 221.877C56.607 314.03 131.505 388.928 223.658 388.928C315.811 388.928 390.71 314.03 390.71 221.877C390.71 129.724 315.734 54.8258 223.658 54.8258Z" fill="#F99A12"/>
<path d="M223.651 343.973C291.084 343.973 345.748 289.308 345.748 221.876C345.748 154.444 291.084 99.7793 223.651 99.7793C156.219 99.7793 101.555 154.444 101.555 221.876C101.555 289.308 156.219 343.973 223.651 343.973Z" fill="#FFD733"/>
<path d="M325.012 173.517C325.012 165.78 324.238 158.12 322.845 150.769C300.716 119.897 264.505 99.7793 223.651 99.7793C156.181 99.7793 101.555 154.483 101.555 221.876C101.555 229.614 102.328 237.274 103.721 244.624C125.85 275.497 162.061 295.614 202.915 295.614C270.308 295.614 325.012 240.91 325.012 173.517Z" fill="#FFE266"/>
<path d="M223.66 347.535C154.333 347.535 98.0039 291.129 98.0039 221.879C98.0039 152.629 154.41 96.2227 223.66 96.2227C292.91 96.2227 349.316 152.629 349.316 221.879C349.316 291.129 292.91 347.535 223.66 347.535ZM223.66 103.341C158.279 103.341 105.122 156.497 105.122 221.879C105.122 287.26 158.279 340.416 223.66 340.416C289.041 340.416 342.198 287.26 342.198 221.879C342.198 156.497 289.041 103.341 223.66 103.341Z" fill="#F99A12"/>
<path d="M139.242 120.282L150.074 93.124L160.133 120.669L178.935 131.424L159.746 141.483L148.991 176.069L138.932 141.174L120.053 130.418L139.242 120.282Z" fill="white"/>
</svg>
