<?xml version="1.0" encoding="UTF-8"?>
<svg version="1.1" viewBox="0 0 1600 1600" width="500" height="500" xmlns="http://www.w3.org/2000/svg">
<path transform="translate(977,224)" d="m0 0h16l7 3 5 5 4 11v3h7l8-10 8-4h12l12 4 8 7 4 9v8l-3 6 2 5 3 3 7-1 4-2h11l8 5 8 9 3 7v10l-4 8-7 8 5 17 11 2 6 4 4 5 2 7v7l-4 10-8 7-9 3h-2l-1 9-3 10 4 2 6 6 60 3 14 2 12 6 6 5 7 10 6 15 3 9 5-3 5-5 5-3h9l10 5 4 5 1 9-1 7 3 3 6-1 8-1 8 4 5 6 1 3v10l-6 9 1 8 1 4 9 3 5 5 2 3v9l-4 6-5 4-6 3-2 6v6l6 7 1 3v7l-4 8-5 4-14 1-6 6 1 13-4 8-5 5-3 1h-14l-13-5-3 9-4 8h-2l-1 138 10-5h8l10 5 7 7 16 24 7 6 6 2h11l9-5 12-9 13-5h17l18 6 11 7 11 9 11 13 9 16 5 19 1 6v23l-3 17-3 12-9 21-10 16-13 15-9 8-11 7-9 4-5 1h-12l-10-4-10-9-9-9-8-5h-12l-6 4-9 11-9 6-10 3h-9l-15-3v53l14 3 15 1 13-2 5-1h12l10 3 10 9 4 6 1 3v10l-5 9-8 6-6 2-8-1-12-7-3-1h-13l-10 6-14 10-11 5-15 4 3 20 6 26 10 27 10 22 7 24 3 16 4 33v50l-2 16-4 7 2 11 2 4-2 14-4 9-9 3-5 1h-7l1-5 8-6 2-5 1-12v-10l-5-6-9-34-11-37-9-27-7-19-13-33-13-30-13-28-4-8h-2l-7 28-4 25-1 9-1 62-2 26-6 35-7 30-5 17v18l-4 3-3 1-14 1h-21v-2l11-7 19-10-1-6-3-20-7-70-2-26-4-83-1-53-32 1-45 2-119 4-73 3-93 3-3 12-7 8-9 3h-15l-9-3-5-4h-2l-2 11-5 2-8 1 3 12-1 10-5 8-2 2-1 26-2 19-6 30-9 36-7 34-7 38-5 5v3l13 5 3 3-1 2h-20l-2-2-1-12-4-8-6-26-1-6v-27l4-16 7-18 3-13v-16l-4-30-2 3-5 15-15 35-7 22-6 24-6 16-8 15-14 21-3 2 1 8-6 10-8 8h-4l1-7 5-13 5-9 2-21 5-37 7-41 5-26 8-33 1-7-5-13-5-19v-2h-18l-10-4-8-6-6-8-5-13-44 1h-20v92l-3 84-4 47-2 5-2 1-3 8 12 3 16 6 6 5v3h-28l-14-2-2-2v-19l-1-4-4-2-8-17-8-26-5-26-1-10v-21l2-15 7-31v-38l-6-25-7-16-4-2-6 3-3 7-5 45-3 26-4 52-3 43-3 73-5 3v5l27 9 5 3 1 6-9 1-22-1-14-3-1-7 1-12-6-2-4-6-7-17-8-21-5-17-4-20-2-18v-11l3-22 3-20 3-27v-38l-4-46-5-36-2-31-6-9-1-3v-12l2-18-2 1h-6l-5-3-4 2-7-1-18-11-10-8-10-9-8-8-7-10-9-17-6-21-1-6v-19l5-25 7-19 9-16 14-18 12-13 14-12 16-11 18-10h2l-1-12v-46l-5-26-7-19-12-26-12-22-13-23-13-26-8-22-3-14v-29l3-12 8-16 9-12 12-13 9-8 15-10 15-7 21-5h28l5-15 8-11 10-7 14-5 12-1 7 1-4-31-1-17v-11l2-18 5-20 9-17 6-8 7-8 14-10 17-10 19-7 15-3 13-1 19 2 17 5 17 8 12 8 14 11 18 18 11 14 13 18 14 24 9 17 14 32 4 10 48 2 61 2 44 1h49l-8-7-3-6-1-10 2-8 4-6 8-6 7-2 3-9 2-9-9-8-3-9 1-10 3-6 5-6 8-4 8-1 9 1h2l2-4 6-7-1-7v-14l4-8 5-5 7-4h11l12 2 7 4 10-1 3-12 7-8 9-4zm5 62-12 3-16 8-13 9-8 8-9 13-7 14-4 13-1 5v27l3 13 4 4 54 2 32 1h40l5-8 5-15 2-11v-20l-3-16-6-14-8-11-9-10-10-7-15-7-5-1zm232 198-1 1v107l5-1 11-7 11-11 8-15 2-6 1-7v-19l-3-12-7-12-6-7-12-8zm-942 407-9 9-10 14-5 11-2 7v17l5 17 8 14 8 11 3 9 1 1 7-1 4-2 4-19 1-14v-37l-2-12-6-16-6-9z" fill="#DBB7F4"/>
<path transform="translate(303,426)" d="m0 0h25l3 1 1 2v325l1 6 5-1 10-6 4-5 2-7v-9l-5-2-5-8v-8l7-8 4-3h2v-2l4-3h2v-11l5-1 8 3 5 5 3 6 1 1v7l-5 9 3 7v8l-4 6-6 4v7l5 8 4 3 20 1 13 4 16 7 23 13 8 4 8 2 17 1 23-2 22-5 16-6 18-10 10-7 13-11 15-14 14-7 12-4h5v5l2 2-9 3-2 11-6 5-11 4-3 10-7 11-12 16-2 4-6 7h-2v13l1 15 5 20 6 16 13 25 13 19 11 14 12 13 18 18 3 2v2l4 2 9 8 11 9 15 12 9 6 14 10 9 6 9 5 10 6 10 4 4 1h26l10-3 14-8 14-10 13-10 10-8 16-13 15-14 8-7 14-14 6-8 5-5 10-12 12-16 3-5h-2l1-2 23 12 11 6v-10l2-2h10l8 1v-4h27l2 5 27 1 3 5 5 15 4 13 7 22 4 10 9 6 11 5v3l-4 4-9-1 2 8 6 20-1 5-4 1h-9l-17-2-16-2-2 28-1 11v11l10-4 36-18 4-1 2-9 10-16 7-11 4-1 22 4h21l16-4 12-6 8-6 10-9 3-5 4-4 6-13 2-7v-30l-3-16-7-20-12-21-8-10-8-9-14-10-12-6-26-7-20-3-19-2-15-5-7-6-5-10 4-7-5-1-2-9-4-3h-7l-3 3-1 3v15l3 5 8 3-2 4-6 9-4 3-5 1-3-8-2-8v-17l3-12 6-10 8-7 7-3 5-1h10l8 3 7 6 14 19 7 8 13 8 14 3h12l18-3 20-7 14-8 13-11 13-8 3-1h8l10 5 7 7 16 24 7 6 6 2h11l9-5 12-9 13-5h17l18 6 11 7 11 9 11 13 9 16 5 19 1 6v23l-3 17-3 12-9 21-10 16-13 15-9 8-11 7-9 4-5 1h-12l-10-4-10-9-9-9-8-5h-12l-6 4-9 11-9 6-10 3h-9l-15-3v53l14 3 15 1 13-2 5-1h12l10 3 10 9 4 6 1 3v10l-5 9-8 6-6 2-8-1-12-7-3-1h-13l-10 6-14 10-11 5-15 4 3 20 6 26 10 27 10 22 7 24 3 16 4 33v50l-2 16-4 7 2 11 2 4-2 14-4 9-9 3-5 1h-7l1-5 8-6 2-5 1-12v-10l-5-6-9-34-11-37-9-27-7-19-13-33-13-30-13-28-4-8h-2l-7 28-4 25-1 9-1 62-2 26-6 35-7 30-5 17v18l-4 3-3 1-14 1h-21v-2l11-7 19-10-1-6-3-20-7-70-2-26-4-83-1-53-32 1-45 2-119 4-73 3-93 3-3 12-7 8-9 3h-15l-9-3-5-4h-2l-2 11-5 2-8 1 3 12-1 10-5 8-2 2-1 26-2 19-6 30-9 36-7 34-7 38-5 5v3l13 5 3 3-1 2h-20l-2-2-1-12-4-8-6-26-1-6v-27l4-16 7-18 3-13v-16l-4-30-2 3-5 15-15 35-7 22-6 24-6 16-8 15-14 21-3 2 1 8-6 10-8 8h-4l1-7 5-13 5-9 2-21 5-37 7-41 5-26 8-33 1-7-5-13-5-19v-2h-18l-10-4-8-6-6-8-5-13-44 1h-20v92l-3 84-4 47-2 5-2 1-3 8 12 3 16 6 6 5v3h-28l-14-2-2-2v-19l-1-4-4-2-8-17-8-26-5-26-1-10v-21l2-15 7-31v-38l-6-25-7-16-4-2-6 3-3 7-5 45-3 26-4 52-3 43-3 73-5 3v5l27 9 5 3 1 6-9 1-22-1-14-3-1-7 1-12-6-2-4-6-7-17-8-21-5-17-4-20-2-18v-11l3-22 3-20 3-27v-38l-4-46-5-36-2-31-6-9-1-3v-12l2-18-2 1h-6l-5-3-4 2-7-1-18-11-10-8-10-9-8-8-7-10-9-17-6-21-1-6v-19l5-25 7-19 9-16 14-18 12-13 14-12 16-11 18-10h2l-1-12v-46l-5-26-7-19-12-26-12-22-13-23-13-26-8-22-3-14v-29l3-12 8-16 9-12 12-13 9-8 15-10 15-7zm-31 465-9 9-10 14-5 11-2 7v17l5 17 8 14 8 11 3 9 1 1 7-1 4-2 4-19 1-14v-37l-2-12-6-16-6-9z" fill="#DBB7F4"/>
<path transform="translate(977,224)" d="m0 0h16l7 3 5 5 4 11v3h7l8-10 8-4h12l12 4 8 7 4 9v8l-3 6 2 5 3 3 7-1 4-2h11l8 5 8 9 3 7v10l-4 8-7 8 5 17 11 2 6 4 4 5 2 7v7l-4 10-8 7-9 3h-2l-1 9-3 10 4 2 6 6 60 3 14 2 12 6 6 5 7 10 6 15 3 9 5-3 5-5 5-3h9l10 5 4 5 1 9-1 7 3 3 6-1 8-1 8 4 5 6 1 3v10l-6 9 1 8 1 4 9 3 5 5 2 3v9l-4 6-5 4-6 3-2 6v6l6 7 1 3v7l-4 8-5 4-14 1-6 6 1 13-4 8-5 5-3 1h-14l-13-5-3 9-4 8h-2l-1 139-9 7-12 9-14 8-18 6-18 3h-12l-14-3-14-9-8-9-11-15-5-6-7-4-4-1h-10l-10 3-8 6-6 9-3 8-1 6v17l4 15 7-2 9-12v-2l-8-3-3-5v-15l3-6 2-1h7l5 4 1 2v7l5 1-1 4-2 4 6 10 7 5 13 4 34 4 28 7 13 6 11 7 12 11 12 16 11 20 7 21 2 13v30l-3 10-7 13-3 2-3 5-7 7-8 6-6 4-12 5-13 3h-21l-24-4h-2l-2 5-11 17-4 7-1 7-12 5-19 10-16 8-5 1v-12l3-34 1-5h12l10 2 11 1h9l4-1-1-8-6-18-1-6 3-1 7 1 2-3h2l-1-3-14-6-6-5-8-22-6-18-3-12-5-12-27-1-2-5-27-1v4h-18l-1 1-1 10-6-2-19-10-15-8-11-8-5-4v-2l-4-2-5-5-7-8-9-11v-3l-3-1-10-18-4-8-2-8-4-11 1-7 1-3-5-2v-2h-3l2 1v61l-4 6-5 4-4 1-67 3-40 2h-30l-2-1v-2l-6-2-4-7-1-11 1-80 5-8 9-6 86-1h49l7 2 6 7v13l11 12v2l4 1 18 24 11 9 12 9 12 6 15 5 16 3 2-15 1-15 1-64v-98l-1-11-5-15-8-14-11-12-10-9-10-7-16-9-20-9-19-6-25-6-25-4-18-2-16-1h-49l-42 6-24 6h-3v-2l-7-1-14-4-12-5-13-5-19-10-16-9-11-7-13-9-11-9-8-7-5-6-2-1v-2l-4-2v-2l-4-2-4-5v-2l-4-2-3-3v-2h15l79 2 58 1 65 2 107 2 50 1h11l2 1 1-4-3-4-5-1h-11l-12-2-9-6-4-5-2-7 1-10 5-9 4-5-1-9-3-7-10-2-8-7-3-6-1-10 2-8 4-6 8-6 7-2 3-9 2-9-9-8-3-9 1-10 3-6 5-6 8-4 8-1 9 1h2l2-4 6-7-1-7v-14l4-8 5-5 7-4h11l12 2 7 4 10-1 3-12 7-8 9-4zm5 62-12 3-16 8-13 9-8 8-9 13-7 14-4 13-1 5v27l3 13 4 4 54 2 32 1h40l5-8 5-15 2-11v-20l-3-16-6-14-8-11-9-10-10-7-15-7-5-1zm232 198-1 1v107l5-1 11-7 11-11 8-15 2-6 1-7v-19l-3-12-7-12-6-7-12-8z" fill="#D9A7EC"/>
<path transform="translate(303,426)" d="m0 0h25l3 1 1 2v325l1 6 5-1 10-6 4-5 2-7v-9l-5-2-5-8v-8l7-8 4-3h2v-2l4-3h2v-11l5-1 8 3 5 5 3 6 1 1v7l-5 9 3 7v8l-4 6-6 4v7l5 8 4 3 20 1 13 4 16 7 23 13 8 4 8 2 17 1 23-2 22-5 16-6 18-10 10-7 13-11 15-14 14-7 12-4h5v5l2 2-9 3-2 11-6 5-11 4-3 10-7 11-12 16-2 4-6 7h-2l-1 3-8 7-12 11-14 10-18 10-12 6-30 10-30 8-2 4-3 17-6 27-6 21-8 22-2 7v18l7 32v7l-4 8-4 5 2 69 1 20v97l-3 84-4 47-2 5-2 1-3 8 12 3 16 6 6 5v3h-28l-14-2-2-2v-19l-1-4-4-2-8-17-8-26-5-26-1-10v-21l2-15 7-31v-38l-6-25-7-16-4-2-6 3-3 7-5 45-3 26-4 52-3 43-3 73-5 3v5l27 9 5 3 1 6-9 1-22-1-14-3-1-7 1-12-6-2-4-6-7-17-8-21-5-17-4-20-2-18v-11l3-22 3-20 3-27v-38l-4-46-5-36-2-31-6-9-1-3v-12l2-18-2 1h-6l-5-3-4 2-7-1-18-11-10-8-10-9-8-8-7-10-9-17-6-21-1-6v-19l5-25 7-19 9-16 14-18 12-13 14-12 16-11 18-10h2l-1-12v-46l-5-26-7-19-12-26-12-22-13-23-13-26-8-22-3-14v-29l3-12 8-16 9-12 12-13 9-8 15-10 15-7zm-31 465-9 9-10 14-5 11-2 7v17l5 17 8 14 8 11 3 9 1 1 7-1 4-2 4-19 1-14v-37l-2-12-6-16-6-9z" fill="#F17958"/>
<path transform="translate(734,545)" d="m0 0h49l24 2 30 4 26 6 17 5 15 6 19 9 11 7 13 10 13 13 9 14 5 12 2 7 1 11v98l-1 64-2 22-2 8-12-1-16-5-9-4-12-7-13-11-6-5-14-19-3-4-3-1-7-8-5-7v-12l-5-6-7-2h-49l-86 1-9 6-4 7-1 86 2 7 3 5 5 2v2h32l80-4 27-1 7-3 4-5 1-2 1-61-5-2 2-1 4 2v2l5 1 1 2-2 4 1 9 4 9 2 9 10 18 3 5 2 1 4 7 12 13 2 5 4 2 10 9 14 9v2h2l-2 5-14 18-12 15h-2l-2 4-11 12-13 13-8 7-12 11-14 11-16 13-17 12-13 8-9 4-5 1h-26l-12-4-11-6-7-5-9-5-17-12-11-8-13-10-12-10-8-7-12-11-22-22-11-14-9-12-10-16-12-23-7-21-3-13-1-15v-11l7-8 3-3 1-4 6-7 11-16 2-4 2-8 12-5 5-4 3-11 8-3-2-2v-4l-8 1-12 5-10 5-8 8-8 7-11 9h-1v-124l2-10 5-12 7-11 9-11 8-7 15-10 17-9 26-10 18-5 22-4z" fill="#8171E5"/>
<path transform="translate(769,599)" d="m0 0 28 1 21 2 21 3 19 5 19 7 16 8 13 9 7 8 2 6 1 21v106l-1 49h-3l-10-8-7-6-14-19-3-4-3-1-7-8-5-7v-12l-5-6-7-2h-49l-86 1-9 6-4 7-1 86 2 7 3 5 5 2v2h32l80-4 27-1 7-3 4-5 1-2 1-61-5-2 2-1 4 2v2l5 1 1 2-2 4 1 9 4 9 2 9 10 18 3 5 2 1 4 7 4 5-2 5-8 12-10 13-10 11-7 8-13 13-8 7-14 12-10 8-19 14-16 11-6-2-7-4-12-8-16-12-26-20-12-11-15-15-7-8-7-7-13-19-9-15-8-19-2-7-1-10-1-165 1-12 4-6 8-7 2-3 21-10 13-5 18-5 29-5 10-1z" fill="#9E7AF5"/>
<path transform="translate(485,227)" d="m0 0 23 2 17 5 17 8 12 8 14 11 18 18 11 14 13 18 14 24 9 17 14 32 4 10 48 2 61 2 44 1h54l6 2 3 7 1 9-6 8-3 6-1 10 3 8 5 5 6 4 13 2h10l6 2 3 5-2 6-2-3h-23l-38-1-64-1-108-3-58-1-81-2-15-1-5-6v-5h-2v-6l6-4h2l3-6v-10l-3-6-6-4h-11l-10 5-3-1-10-25-7-2-79-3-2-8-3-23-1-17v-11l2-18 5-20 9-17 6-8 7-8 14-10 17-10 19-7 15-3z" fill="#9F7BF5"/>
<path transform="translate(802,750)" d="m0 0h49l7 2 6 7v13l11 12v2l4 1 18 24 11 9 12 9 12 6 15 5 10 2v2h22l18-3 13-4 19-8h2v2l-6 3-1 3h17l18-2 26-7 5-1v-4h13l20 3 26 7 14 7 14 11 10 11 7 10 11 20 7 21 2 13v30l-3 10-7 13-3 2-3 5-7 7-8 6-6 4-12 5-13 3h-21l-24-4h-2l-2 5-11 17-4 7-1 7-12 5-19 10-16 8-5 1v-12l3-34 1-5h12l10 2 11 1h9l4-1-1-8-6-18-1-6 3-1 7 1 2-3h2l-1-3-14-6-6-5-8-22-6-18-3-12-5-12-27-1-2-5-27-1v4h-18l-1 1-1 10-6-2-19-10-15-8-11-8-5-4v-2l-4-2-5-5-7-8-9-11v-3l-3-1-10-18-4-8-2-8-4-11 1-7 1-3-5-2v-2h-3l2 1v61l-4 6-5 4-4 1-67 3-40 2h-30l-2-1v-2l-6-2-4-7-1-11 1-80 5-8 9-6z" fill="#FDFCFD"/>
<path transform="translate(977,224)" d="m0 0h16l7 3 5 5 4 11v3h7l8-10 8-4h12l12 4 8 7 4 9v8l-3 6 2 5 3 3 7-1 4-2h11l8 5 8 9 3 7v10l-4 8-7 8 5 17 11 2 6 4 4 5 2 7v7l-4 10-8 7-9 3h-2l-1 9-3 10 4 2 9 8-1 13-4 7-5 6-7 5-6 2-14 2-4 2-2 4-3 5v6l3 6v7l-6 9-6 5-10 3-8 1-10-4-7-3h-6l-4 1-1 9-6 9-8 7-3 1h-19l-10-5-4-4-3-10v-3l-8 1-9 7-3 2h-22l-10-4-6-9-1-10 2-11-3-4-5-1h-11l-12-2-9-6-4-5-2-7 1-10 5-9 4-5-1-9-3-7-10-2-8-7-3-6-1-10 2-8 4-6 8-6 7-2 3-9 2-9-9-8-3-9 1-10 3-6 5-6 8-4 8-1 9 1h2l2-4 6-7-1-7v-14l4-8 5-5 7-4h11l12 2 7 4 10-1 3-12 7-8 9-4zm5 62-12 3-16 8-13 9-8 8-9 13-7 14-4 13-1 5v27l3 13 4 4 54 2 32 1h40l5-8 5-15 2-11v-20l-3-16-6-14-8-11-9-10-10-7-15-7-5-1z" fill="#FB8B91"/>
<path transform="translate(1057,761)" d="m0 0h10l8 3 7 6 14 19 7 8 13 8 14 3h12l18-3 20-7 14-8 13-11 13-8 3-1h8l10 5 7 7 16 24 7 6 6 2h11l9-5 12-9 13-5h17l18 6 11 7 11 9 11 13 9 16 5 19 1 6v23l-3 17-3 12-9 21-10 16-13 15-9 8-11 7-9 4-5 1h-12l-10-4-10-9-9-9-8-5h-12l-6 4-9 11-9 6-10 3h-9l-14-3-12-6-1-2 8-15 3-10v-30l-3-16-7-20-12-21-8-10-8-9-14-10-12-6-26-7-20-3-19-2-15-5-7-6-5-10 4-7-5-1-2-9-4-3h-7l-3 3-1 3v15l3 5 8 3-2 4-6 9-4 3-5 1-3-8-2-8v-17l3-12 6-10 8-7 7-3z" fill="#36386C"/>
<path transform="translate(612,974)" d="m0 0h10l5 6 1 8-4 5-8 4v15l-2 8-4 3h-2l2 4 16 5 13 5 10 5 12 8 10 8 12 12 9 13 8 16 7 18 1 4-3 12-7 8-9 3h-15l-9-3-5-4h-2l-2 11-5 2-8 1 3 12-1 10-5 8-2 2-1 26-2 19-6 30-9 36-7 34-7 38-5 5v3l13 5 3 3-1 2h-20l-2-2-1-12-4-8-6-26-1-6v-27l4-16 7-18 3-13v-16l-4-30-2 3-5 15-15 35-7 22-6 24-6 16-8 15-14 21-3 2 1 8-6 10-8 8h-4l1-7 5-13 5-9 2-21 5-37 7-41 5-26 8-33 1-7-5-13-5-19v-2h-18l-10-4-8-6-6-8-5-13-1-1v-11l2-20 6-19 7-10 11-11 17-12 17-9 19-8 10-4 4-3-1-4-13-11-2-5 1-7 5-7v-6l6-5 5-2z" fill="#FB8C91"/>
<path transform="translate(421,1036)" d="m0 0 2 1 1 7 2 62 1 20v97l-3 84-4 47-2 5-2 1-3 8 12 3 16 6 6 5v3h-28l-14-2-2-2v-19l-1-4-4-2-8-17-8-26-5-26-1-10v-21l2-15 7-31v-38l-6-25-7-16-4-2-6 3-3 7-5 45-3 26-4 52-3 43-3 73-5 3v5l27 9 5 3 1 6-9 1-22-1-14-3-1-7 1-12-6-2-4-6-7-17-8-21-5-17-4-20-2-18v-11l3-22 3-20 3-27v-38l-4-46-5-36-1-11v-20l13 3h22l43-5 37-6 13-3z" fill="#36386D"/>
<path transform="translate(630,726)" d="m0 0h5v5l2 2-9 3-2 11-6 5-11 4-3 10-7 11-12 16-2 4-6 7h-2l-1 3-8 7-12 11-14 10-18 10-12 6-30 10-30 8-2 4-3 17-6 27-6 21-8 22-2 7v18l7 32v7l-4 8-4 5-5 1-7 3-40 7-23 3-27 3h-22l-14-4-6-9-1-3v-12l2-18-2 1h-6l-5-3-4 2-7-1-18-11-10-8-10-9-8-8-7-10-9-17-6-21-1-6v-19l5-25 7-19 8-14 9-7 7-12 2 1 1 8 1 3 7-3 4 1 7 8v2l3-1 4 3 11 5 1 3 3 1 4 8 4 2 7 1v11l2 2-8 7-3 1v-2l6-5h-3l-5 3h-2l1 8 2 3-9 9-10 14-5 11-2 7v17l5 17 8 14 8 11 3 9 7-1 3-1 4-19 1-14v-37l-1-10 3-1 2 2 1 6v9l1 11 4 13v2h2v6l5-2-2-5 9-2 2-5 3-7h2l2-5 9-14 3-9 1-8 3-3 1-10h3l4 1 5 4v-2l4 2 8 3 5 2 3 2 10 3 1 3 6 2 8 4 6 11 6 7 8 8 4 6v2l3 1-1 2h2l1-4 6-9 1-5 3-1 5-15 5-21 5-24 2-10 3-2 14-3 7-1v-2l9-3 9-2 3-2h3l1-4v-3l2-3 2 1v2l6-7 3-1 3-7 2-4 1-3-2-10h-5v2l-5-1-5-7-9-1-6-2-2-6 1-4-19-3-10-4-14-8-16-8-17-7-9-2-12-1v-1h15l13 4 16 7 23 13 8 4 8 2 17 1 23-2 22-5 16-6 18-10 10-7 13-11 15-14 14-7z" fill="#F28755"/>
<path transform="translate(303,426)" d="m0 0h25l3 1 1 2v325l1 6 2 2-4 1h-12l-17 4-9 3-8 4-1-12v-46l-5-26-7-19-12-26-12-22-13-23-13-26-8-22-3-14v-29l3-12 8-16 9-12 12-13 9-8 15-10 15-7z" fill="#FB8C91"/>
<path transform="translate(478,389)" d="m0 0 13 1h18l50 2 92 2 48 2 61 2 44 1h54l6 2 3 7 1 9-6 8-3 6-1 10 3 8 5 5 6 4 13 2h10l6 2 3 5-2 6-2-3h-23l-38-1-64-1-108-3-58-1-81-2-15-1-5-6v-5h-2v-6l6-4h2l3-6v-10l-3-6-6-4h-11l-10 5-3-1-10-25-7-2v-1z" fill="#BA82E9"/>
<path transform="translate(1198,440)" d="m0 0h11l5 4 5 11v2l5-3 5-5 5-3h9l10 5 4 5 1 9-1 7 3 3 6-1 8-1 8 4 5 6 1 3v10l-6 9 1 8 1 4 9 3 5 5 2 3v9l-4 6-5 4-6 3-2 6v6l6 7 1 3v7l-4 8-5 4-14 1-6 6 1 13-4 8-5 5-3 1h-14l-13-5-3 9-4 8-7 4-7 1-11-3-5-5-3-5v-3l-8 2-8 3-15 1v-2l-4-2-4-5v-11l1-3-5-4-11 1-4-1v-2l-5-2-5-4-1-3v-10l3-5 1-10-2-5-7-2-7-9v-9l3-6 5-5 7-3 2-7-1-5-4-5-2-9 2-8 5-5 4-1v-2l6-1 5 1 6-5-2 6 7-3 3-3v-16l3-6 6-7 10 2 9 2 1 2h6l4-4 4-9 4-5zm16 44-1 1v107l5-1 11-7 11-11 8-15 2-6 1-7v-19l-3-12-7-12-6-7-12-8z" fill="#FB8B91"/>
<path transform="translate(1142,1095)" d="m0 0h16l19 5 15 6 2 10 6 29 5 16 8 21 10 23 7 25 5 34 1 11v50l-2 16-4 7 2 11 2 4-2 14-4 9-9 3-5 1h-7l1-5 8-6 2-5 1-12v-10l-5-6-9-34-11-37-9-27-7-19-13-33-13-30-13-28-4-8h-2l-7 28-4 25-1 9-1 62-2 26-6 35-7 30-5 17v18l-4 3-3 1-14 1h-21v-2l11-7 19-10-1-6-3-20-7-70-2-26-4-83v-52l8 1h18l15-5 12-5z" fill="#8D3154"/>
<path transform="translate(802,750)" d="m0 0h49l7 2 6 7v13l11 12-1 7-4 3-5-2v-2h-3l2 1v61l-4 6-5 4-4 1-67 3-40 2h-30l-2-1v-2l-6-2-4-7-1-11 1-80 5-8 9-6z" fill="#FCFBFD"/>
<path transform="translate(1201,980)" d="m0 0 2 1 5 4 6 2v55l14 3 15 1 13-2 5-1h12l10 3 10 9 4 6 1 3v10l-5 9-8 6-6 2-8-1-12-7-3-1h-13l-10 6-14 10-11 5-16 4-18-7-16-4h-16l-21 6-14 6-10 3h-18l-8-2-6-3-11-4-10-6-6-5-4-8-1-4v-14l1-10h1l1 11 10-4 36-18 4-1 2-9 10-16 7-11 4-1 22 4h21l16-4 12-6 8-6 10-9z" fill="#DBD1F7"/>
<path transform="translate(387,384)" d="m0 0 1 4h31l48 2 7 2 4 9 7 17 4-1 8-4h11l8 6 2 5v10l-4 6-6 4h-2v6h2l2 6 5 6h-20l-44-1-25-1-63-2h-14l-1 17 1 47v183l3 1-7 8v8l4 6v2l6 2v9l-3 8-5 6-11 6-4-1-1-6v-328l5-15 8-11 10-7 14-5 12-1 7 1z" fill="#D9A8ED"/>
<path transform="translate(626,799)" d="m0 0 4 1v10h2l1 13 2 3 3 10 9 22 3 5 4 4 8 13 12 16 8 8v2h2l7 8 6 5 4 5 8 7 11 10 10 8 15 11 16 11 21 14 3 1 6-3 13-9 19-14 16-13 14-12 17-16 12-13 8-9 10-13 8-11 1 2 4 2 10 9 11 7v2l-3 3-8 11-13 16-7 8-9 10-14 14-8 7-12 10-28 22-18 13-14 8-10 3h-14l-10-3-22-13-5-4-11-7v-2l-5-2-19-14-10-8-13-11-8-7-24-24-5-7v-2l-4-2-2-4-3-1-6-8-5-3-3-11-3-5-6-11-4-9-3-9v-3l-2 6-1 5h-2l-1-5-4-4-2-9-1-3-1-7 1-4-2-4 1-6 3 1 2 3v7l2 7 2 4 1 4h2v2h2l-1-4-1-17 2-2 2 1-1-5h-2v-2h-2l1-4h2l-1-4h-2l1-2 6 2 2 4 1 1 3-10 2-5h7z" fill="#9E7AF5"/>
<path transform="translate(634,1185)" d="m0 0h3l1 3-2 33-7 37-9 36-7 34-7 38-5 5v3l13 5 3 3-1 2h-20l-2-2-1-12-4-8-6-26-1-6v-27l4-16 7-18 3-13v-16l-4-30-2 3-5 15-15 35-7 22-6 24-6 16-8 15-14 21-3 2 1 8-6 10-8 8h-4l1-7 5-13 5-9 2-21 5-37 7-41 5-26 8-33 2-4 4 1 11 4 14 1 15-3 21-7z" fill="#39396E"/>
<path transform="translate(224,821)" d="m0 0 2 1 1 8 1 3 7-3 4 1 7 8v2l3-1 4 3 11 5 1 3 3 1 4 8 4 2 7 1v11l2 2-8 7-3 1v-2l6-5h-3l-5 3h-2l1 8 2 3-9 9-10 14-5 11-2 7v17l5 17 8 14 8 11 3 9 7-1 3-1 2-8 3 1v2h14l2 1v2h2l-1 4-14 4-5 1-1 4-1 19v15l-2-2-1-3v-12l2-18-2 1h-6l-5-3-4 2-7-1-18-11-10-8-10-9-8-8-7-10-9-17-6-21-1-6v-19l5-25 7-19 8-14 9-7z" fill="#F28855"/>
<path transform="translate(632,734)" d="m0 0h2l4 5v85l4 18 7 16 2 6-3-3-6-12-7-18-4-14 1-7h-2l-1-5v-5l-11 1-2 4v3h-2l-1 7h-4v-3l-1-2-5-1 1 1 1 4h-2l-1 4h2v2h2l1 5-3 1 1 21h-2v-2h-2l-2-3-2-4-1-4-1-5v-6l-4-4 1 9 1 4-2 4 2 1v5l2 4 2 7 3 3 1 3-1 2h2v-5l1-5 2-1 7 20 4 7 5 9 2 5 2 7 5 3 6 8 9 9 8 10 26 26 11 9 15 12 18 13 5 3v2l5 2 10 7 13 8 10 6 10 3h14l12-4 15-9 16-12 13-10 10-8 11-9 11-10 8-7 14-14 7-8 13-16 10-14 4-4 3 1v2h2l-2 5-14 18-12 15h-2l-2 4-11 12-13 13-8 7-12 11-14 11-16 13-17 12-13 8-9 4-5 1h-26l-12-4-11-6-7-5-9-5-17-12-11-8-13-10-12-10-8-7-12-11-22-22-11-14-9-12-10-16-12-23-7-21-3-13-1-15v-11l7-8 3-3 1-4 6-7 11-16 2-4 2-8 12-5 5-4 3-11z" fill="#8171E5"/>
<path transform="translate(992,898)" d="m0 0h27l2 5 27 1 3 5 5 15 4 13 7 22 4 10 9 6 9 4-1 4-1 2-11-1 2 10 4 14 1 8-4 2-17-1-13-2-21-2-21-3-12-33-14-41-8-24-1-9 2-2h10l8 1z" fill="#FB8C91"/>
<path transform="translate(946,613)" d="m0 0 4 2 4 6 5 10 2 6v4h2l2 7 1-8h1l1 11v98l-1 64-2 22-2 8-12-1-16-5-9-4 1-2 1-136v-48l-3-12-1-5 2-3h6l4 1 2-3h4v-5-3-2l4 1z" fill="#9F7BF5"/>
<path transform="translate(1113,408)" d="m0 0h15l43 2 14 2 12 6 6 5 7 10 3 10-4-2h-11l-5 5-3 5-4 8-3 2h-6l-4-3-16-4-2 4-5 6-1 3v16l-7 6h-4l1-4 2-3-1-4-3-2-57-2-8-1-2-12v-8l7-8 4-3 13-2 6-3 6-5 5-7 1-3z" fill="#9F7BF6"/>
<path transform="translate(630,726)" d="m0 0h5v5l2 2-9 3-2 11-6 5-11 4-3 10-7 11-12 16-2 4-6 7h-2l-1 3-8 7-12 11-14 10-18 10-12 6-30 10-30 8-2 4-3 17-6 27-6 21-8 22-2 7v18l7 32v7l-4 8-4 5h-2l1-4 5-6 1-2v-8l-6-27-1-7v-15l15-45 5-21 5-24 2-10 3-2 14-3 7-1v-2l9-3 9-2 3-2h3l1-4v-3l2-3 2 1v2l6-7 3-1 3-7 2-4 1-3-2-10h-5v2l-5-1-5-7-9-1-6-2-2-6 1-4-19-3-10-4-14-8-16-8-17-7-9-2-12-1v-1h15l13 4 16 7 23 13 8 4 8 2 17 1 23-2 22-5 16-6 18-10 10-7 13-11 15-14 14-7z" fill="#F89A61"/>
<path transform="translate(1196,484)" d="m0 0h16l1 1v107l-13 4-10 1-14-5-10-8-8-9-4-8-3-10-2-8v-12l3-12 5-12 12-14 10-8 10-5z" fill="#DAA8ED"/>
<path transform="translate(599,1068)" d="m0 0h63l1 1v17l-1 10-2 2-7 1 1 5 6 1 1 7-3 25-2 11-5 2-8 1h-44l-9-2 2-30 5-3 5-2 1-6-8-1-2-2 2-25 2-11z" fill="#37386C"/>
<path transform="translate(617,995)" d="m0 0 2 1v21l-1 5 4 3 13 4 18 8 3 2v2l6 2 4 5 10 7v2l3 1 7 8 9 12 3 3 3 10 5 10v2h2l4 4h12l28-2h20l10-1 39-1 32-1 45-2 33-1h17l19-1 52-1h23l9 4 7 4-1 2-19 2-45 2-119 4-73 3-63 2h-30l-5-10-8-20-9-15-12-13-10-9-15-10-12-6-14-5-13-4-2-2v-3l5-3 2-8v-15z" fill="#DAA8ED"/>
<path transform="translate(1199,1170)" d="m0 0 3 1 1 2 2-2 4 5 1 5 3 1 10 23 7 25 5 34 1 11v50l-2 16-4 7 2 11 2 4-2 14-4 9-9 3-5 1h-7l1-5 8-6 2-5 1-12v-10l-5-6-1-3v-8l1-5 1-3-3-1-1-13-1-9-1-5-2-15-2-9-1-12-1-5-1-13-2-14v-17l-2-3v-6h2v-7l-2-3 1-9-2-7-1-4 3-3z" fill="#7D2C4C"/>
<path transform="translate(734,545)" d="m0 0h49l24 2 30 4 26 6 17 5 15 6 9 4v3l7 4-1 3 2 1-7-1-31-10-30-8-20-4-23-3-22-1-29 1-27 3-29 5-22 6-16 6-15 8-11 8-12 11-9 10-6 13-2 7-1 15v24l-1 55-3 5-4-1-1-2h2l-2-2h-1l-1-6-1-47v-33l2-16 4-10 7-11 7-9 10-10 11-8 10-4 16-8 22-8 19-5 5-1-3-2z" fill="#9F7BF5"/>
<path transform="translate(1103,1108)" d="m0 0 4 1-3 7h-2l-2 6-3 8-2 8-4 14-1 1-1 12 1 12 4 10 2 9 1 3 1 12-3 38-1 13v10l2 12 1 17v12l-3 7-3 8-1 5-3 3 1 20h-2l-5-45-4-41-2-26-4-83v-52l8 1h18z" fill="#9F3461"/>
<path transform="translate(1120,1103)" d="m0 0 2 1 1 3 2 2 4 8 2 1 3 7-2 10-6 23-4 25-1 9-1 62-2 26-6 35-7 30-2 3h-3v5h-2l-1 2h-4v-16l2-9 3-2 1-5h2l2-16v-12l-1-5-1-17v-20l1-4 4-20v-21l-2-9h-2l-1-6-2-3v-4h-2l-3-13v-7l2-4 2-12 3-8 3-5v-4h2l1-8 4-15 3-4h3v-2z" fill="#7D2C4C"/>
<path transform="translate(650,627)" d="m0 0 3 1-9 10-2 4-1 12 1 165 2 14 7 18 11 19 14 20 12 12 7 8 16 16 13 10 18 14 19 14 8 5 11 6 5-2 17-12 16-12 17-14 12-11 8-7 12-12 7-8 12-15 13-19 7 6 2 5-11 15-13 16-9 9-7 8-7 7-8 7-11 10-14 11-18 14-13 9-9 6-4 1-16-10-34-24-17-14-10-9-7-6v-2l-3-1v-2l-4-2-6-6v-2l-3-1v-2h-2l-14-16-11-16-10-18-6-14-4-18v-87l-3-1v-2l4-3 1-6-3-1v-38l2-42 5-10 4-5z" fill="#5F67D4"/>
<path transform="translate(917,402)" d="m0 0 56 2 71 2-5 8-10 12h-2l-1 3-4 3h-2v2l-13 8-18 6-9 1-13-1-10-3-15-8-10-8-8-11-4-6z" fill="#BB83E9"/>
<path transform="translate(431,776)" d="m0 0 6 1 22 12 16 4 9 2v8l6 2 7 2 4 1 5 7 4 1v-2h5l3 10-3 5-1 5-3 5-4 2-2 3h-2l-1 3-2-1v-1l-2 2v3l-1 3-9 4-12 3h-3v2l-12 3h-10v-6l2-3v-8l-3-12-3-19-5-17-4-11-2-5h-2l-3-6z" fill="#F28755"/>
<path transform="translate(578,1147)" d="m0 0 4 4 10 3h13l10 2 8 5 13 6 4 2 2 5-3 5h-3l-1 3-1 1 2 2-22 10-24 8-15 2-11-1-7-3-3-2v-2l3-1 1 1 1-3-4-2-3-2-2-6-2-15-1-4h2v-3l15-5v-2l10-4z" fill="#F87381"/>
<path transform="translate(829,595)" d="m0 0h8l19 4 27 9 16 8 14 9 6 5 7 10 3 7v48l-1 136-4 1-10-6 1-51v-106l-1-21-4-9-9-8-15-9-19-8-23-7-23-5v-3l8-3z" fill="#5F67D4"/>
<path transform="translate(756,670)" d="m0 0h48l14 2 13 5 9 7 7 8 6 12 2 12v17l-2 7-4 3-7-1-2-3-1-5-1-24-4-10-7-8-9-4-4-1-24-1h-28l-16 3-5 5-6 7-3 7-1 5-1 27-4 3h-8l-4-5v-26l5-15 6-9 8-8 10-6z" fill="#F9F5FC"/>
<path transform="translate(632,734)" d="m0 0h2l4 5v85l4 18 7 16 2 6-3-3-6-12-7-18-4-14 1-7h-2l-1-5v-5l-11 1-2 4v3h-2l-1 7h-4v-3l-1-2-5-1 1 1 1 4h-2l-1 4h2v2h2l1 5-3 1 1 21h-2v-2h-2l-2-3-2-4-1-4-1-5v-6l-4-4 1 9 1 4-2 4 2 1-1 5-2-1-3-20v-27-3l6-7 11-16 2-4 2-8 12-5 5-4 3-11z" fill="#8171E5"/>
<path transform="translate(365,686)" d="m0 0 10 2 5 4 4 8 1 1v7l-5 9 3 7v8l-4 6-6 4v7l5 8 4 3 12 2v2l3 1-1 4-5 3-16 3-18 1h-13l-12-2-8-4-1-5 2-2 10-2 13-8 4-5 2-7v-9l-5-2-5-8v-8l7-8 4-3h2v-2l4-3h2v-11z" fill="#F99A5F"/>
<path transform="translate(514,849)" d="m0 0 3 1-11 5-17 6-10 4-22 8-3 3-4 13-9 35-3 13-3 8-2 8-3 13v21l3 12 2 10v14l-3 7-5 6-1 3-1 14h2l2 35 1 3v19l4 2v2h2v2h47l3-1 1-12v-8l4-17 2-6 4-8 6-5 9-6 8-8 16-8 9-5 13-5 13-2 5-2 2-6-5-4v-2l4 2 7 6-1 4-6 4-20 8-16 8-11 6-16 12-10 10-6 11-5 16-2 20-1 11-7 1-36 1h-20l-1-5-1-20-2-69 7-10 1-3v-7l-7-32v-18l9-27 5-16 6-25 4-18 2-11 5-3 34-9z" fill="#D9A7ED"/>
<path transform="translate(1125,910)" d="m0 0 5 2 10 5 7 1 1 4 4 2 3 2v2h2l2 5-1 12-4 9-7 9-8 6-12 5-9 2h-10l-8-11-6-9-2-7 1-9 5-4 15-8 7-5z" fill="#DBD1F7"/>
<path transform="translate(612,974)" d="m0 0h10l5 6 1 8-4 5-8 4v15l-2 8-4 3-9 2 3 4 9 4v4h-47v-4l14-6 6-4v-4l-6-5-4-1-7-6-2-5 1-7 5-7v-6l6-5 5-2z" fill="#F8995F"/>
<path transform="translate(1107,1107)" d="m0 0h6l-6 21-1 5h-2l1 4-5 9-2 7-2 12-1 1v7l2 9v4h2l4 11-1 2h2l3 9v21l-4 21-1 5v25l1 10 1 9v8l-3 16h-2v6l-4 1 1 3h-2v21l6-1-1-6 4 1 1-2-2 9-2 7v18l-4 3-3 1-14 1h-21v-2l11-7 19-10-1-10v-8l-1-12 3-4 3-9 4-10v-20l-2-16-1-7v-14l3-32 1-16-1-11-2-6-4-10-2-16 1-12 4-10 3-13 3-8 3-6h2l1-4z" fill="#8D3154"/>
<path transform="translate(1113,408)" d="m0 0h15l43 2 14 2 12 6 6 5 7 10 3 10-4-2-10-1v-3l1-2-3-2v-2h-2v-2l-4-1-6-3-16-1h-31l-4 2h-5l-2 4-9 11-9 5-3 3-12 4-7 2-3 7h-2l1 10h55l4 4-1 3-4-3-57-2-8-1-2-12v-8l7-8 4-3 13-2 6-3 6-5 5-7 1-3z" fill="#BB83E9"/>
<path transform="translate(205,845)" d="m0 0 2 1-7 15-3 16-2 1-2 17-1 4 2 10 1 8 2 8 5 11 3 4 4 12 9 8 5 5 12 8 2 6 4 2 1 2 5 2 4 2-2-5-3-8-1-5-2-11v-6l-2-6v-11l3-3 4-10 1 3-2 7v17l5 17 8 14 8 11 3 9 7-1 3-1 2-8 3 1v2h14l2 1v2h2l-1 4-14 4-5 1-1 4-1 19v15l-2-2-1-3v-12l2-18-2 1h-6l-5-3-4 2-7-1-18-11-10-8-10-9-8-8-7-10-9-17-6-21-1-6v-19l5-25 7-19z" fill="#F89A60"/>
<path transform="translate(587,794)" d="m0 0h1v27l3 20 4 15 7 17 7 14 10 16 11 14 12 14 7 8 7 9 8 7 7 7 11 9 1 3h2v2l4 2 11 9 15 11 17 11 11 8 9 5 10 5 3 2h-9l-16-8-7-5-9-5-17-12-11-8-13-10-12-10-8-7-12-11-22-22-11-14-9-12-10-16-12-23-7-21-3-13-1-15v-11l7-8z" fill="#6268D6"/>
<path transform="translate(692,551)" d="m0 0h13l-4 2-18 4-20 7-21 9-9 5-7 3-11 9-9 9-9 14-5 10-3 10-1 7-1 63 1 50-11 9h-1v-124l2-10 5-12 7-11 9-11 8-7 15-10 17-9 26-10 18-5z" fill="#6268D5"/>
<path transform="translate(1142,1095)" d="m0 0h16l19 5 15 6 1 7-2-4-3-2h-8l-6-2-8-1-7 2-4 2-1 3 1 17 4 10 1 6 1 9 3 7 4 14 1 8 2 7v5h2l2 9 2 4 1 8 3 7 2 2v8l3 3-1 6 1 3-2 2-6-17-13-33-13-30-13-28-4-8-2-2-2-10-3-1-5-9-3-4h-3v2l-7 1 4-3 16-6z" fill="#9E3360"/>
<path transform="translate(547,1058)" d="m0 0 4 2 3 5-2 10v7l5 9 8 3 12 2 8 3v2l7 2v2l11 3v6l-2 2-10 3-1-3-4-2-5 1-15 6-10-1-12-6-6-5-3-6-2-6v-19l5-6 3-7 3-5h2z" fill="#F87381"/>
<path transform="translate(1016,291)" d="m0 0 10 2 9 5 4 2v2l5 2 9 10 7 11 6 15 3 16v13l-2 13-6 17-8 14-9 11-8 8-10 7-13 6-14 4-17 1 1-2 16-4 9-4 10-6h2v-2l6-4 7-8 8-10 6-8 6-15 3-15v-20l-3-16-6-14-8-11-8-9-10-7-5-3z" fill="#9D3260"/>
<path transform="translate(1043,780)" d="m0 0h7l5 4 1 2v7l5 1-1 4-2 4 6 10 7 5 13 4 7 1-1 5-15 5-22 5-15 1-14-1 1-4 9-5 1-2 6-3 8-11v-2l-8-3-3-5v-15l3-6z" fill="#F89A5F"/>
<path transform="translate(784,782)" d="m0 0 10 2 4 3v2l3 1 1 11-3 7-7 6v8l2 14v7l-6 1h-9l-3-2 2-12 3-16-5-2-5-5-2-5v-7l4-7 5-4z" fill="#8171E5"/>
<path transform="translate(877,292)" d="m0 0 4 1-1 3-8 6-4 8-1 8 2 9 9 10-1 9-3 9-9 4-6 5h-2l-4 10v13l5 8 2 4-2 1-6-2-7-6-3-6-1-10 2-8 4-6 8-6 7-2 3-9 2-9-9-8-3-9 1-10 3-6 5-6 8-4z" fill="#A13764"/>
<path transform="translate(612,974)" d="m0 0h10l5 6 1 8-4 5-7 3-4-1-3-5-2-1h-9l-8 5-5 2-1 4v6l-5 1v7l-4-1-7-6-2-5 1-7 5-7v-6l6-5 5-2z" fill="#7F2C4D"/>
<path transform="translate(949,905)" d="m0 0 10 1 13 7v-6h1l5 17 16 47 6 17 4 11-1 3-11-27-2-6h-5l-4-6v-2h-2l-3-4v-2h-2l-8-11v-3h-2l-12-22-4-12z" fill="#DAA8ED"/>
<path transform="translate(381,713)" d="m0 0 1 4 3 6v8l-2 6-6 9 2 7 5 4 19 1 15 3 16 8 17 12 9 4 5 1 22 1 18-2 12-2h7l11-4 9-3 5-6 10-4 5 2 10-6 2-2-1 4-16 10-16 8-15 5-18 4-23 2-17-1-10-3-28-15-12-6-14-5-4-1-20-1-7-6-3-6v-7l8-6 2-4v-8l-3-8z" fill="#DAA8ED"/>
<path transform="translate(665,874)" d="m0 0 5 5 11 13 8 9v2l3 1v2l3 1 4 5 6 5v2l4 1v2l4 2 12 10 10 7 9 6 7 3 10 5 16-2 5-1 5 1v3l2 1v2h3v2l9-5 5-1 5-4 6-3h3l-8 7-17 12-13 9-6-2-7-4-12-8-16-12-26-20-12-11-15-15-7-8-7-7-9-13z" fill="#8171E5"/>
<path transform="translate(1201,980)" d="m0 0 2 1 5 4 6 2-1 53-5-1-7-6-3-7-4-7-4-6-1-16 5-5 6-7z" fill="#DAA8ED"/>
<path transform="translate(365,686)" d="m0 0 10 2 5 4 4 8 1 1v7l-4 6-4 1-2-1h-6l-11 6-2 7-4 3h-3l-5-8v-8l7-8 4-3h2v-2l4-3h2v-11z" fill="#3C386D"/>
<path transform="translate(1226,488)" d="m0 0 6 2 11 7 2 4h2l7 10 4 12 1 7v15l-2 10-5 13h-2l-2 4-7 9-3 3h-2v2l-5 3-10 5-15 3-4-1 13-4 14-9 10-10 8-15 2-6 1-7v-19l-3-12-7-12-5-6-9-6z" fill="#9F3561"/>
<path transform="translate(514,849)" d="m0 0 3 1-11 5-17 6-10 4-22 8-3 3-4 13-9 35-3 13-3 8-2 8-3 13v21l3 12 2 10v14l-3 7-5 6-2 3-1-3 6-9 1-3v-7l-7-32v-18l9-27 5-16 6-25 4-18 2-11 5-3 34-9z" fill="#DAA8ED"/>
<path transform="translate(324,1381)" d="m0 0h10l2 5 27 9 5 3 1 6-9 1-22-1-14-3-1-7z" fill="#913257"/>
<path transform="translate(865,401)" d="m0 0h10l3 9 2 4v5l-8 9-3 9 1 11 7 8 4 4-9-1-9-6-4-5-2-7 1-10 5-9 4-5-1-9z" fill="#9D3260"/>
<path transform="translate(403,1360)" d="m0 0h12l-1 6-1 2 12 3 16 6 6 5v3h-28l-14-2-2-2z" fill="#7F2E50"/>
<path transform="translate(935,586)" d="m0 0 9 1 4 2 1 3 6 3v2h2l1 4h2l4 8 4 4 2 4 1 7v10l1 4-6 2-5-15-8-14-11-12-11-10 1-2z" fill="#DBB6F4"/>
<path transform="translate(914,244)" d="m0 0h8l-1 4-8 7-4 9v9l2 6v5l-9 10-1 1-9-1v-4l7-8-1-7v-14l4-8 5-5z" fill="#A03562"/>
<path transform="translate(371,1018)" d="m0 0 9 1 10 4 10 3 6 1h8l7-1 1 4-5 3-15 3-17 3-7-1-5-1 2-10h-2v-2h-2l-1-6z" fill="#F17958"/>
<path transform="translate(400,413)" d="m0 0h7l6 4 3 4v9l-5 6-5 2-9-1-6-4-3-6 1-6 5-5z" fill="#FEFEFE"/>
<path transform="translate(499,416)" d="m0 0h7l8 5 2 4v8l-5 6-4 2h-8l-6-4-4-5v-7l6-7z" fill="#FEFEFE"/>
<path transform="translate(451,414)" d="m0 0 9 2 5 5 1 2v8l-3 5-6 3h-8l-6-4-4-6 1-7 5-6z" fill="#FEFEFE"/>
<path transform="translate(1061,336)" d="m0 0 2 1 3 10 1 12-1 17-3 10-3 5-4 2 1 3h-5l1-9 3-15v-29l2-4z" fill="#8F3256"/>
<path transform="translate(1144,1091)" d="m0 0h13l12 3 9 2 10 4 1 2 4 2-1 3-18-7-16-4h-16l-21 6-14 6-10 3h-18l-8-2-1-3h12l16-1 14-4 11-5 15-4z" fill="#DCB8F5"/>
<path transform="translate(1084,1368)" d="m0 0h7l9 3v9l-4 3-3 1-14 1h-21v-2l11-7z" fill="#3C3A71"/>
<path transform="translate(1016,291)" d="m0 0 10 2 9 5 4 2v2l5 2 9 10 7 11 4 10-1 3h-2l-3 1-2 5h-1l-4-13-7-14-11-13-12-9-5-3z" fill="#A03562"/>
<path transform="translate(1229,1357)" d="m0 0h2l3 6-2 14-4 9-9 3-5 1h-7l1-5 8-6 2-5 1-12 9-4z" fill="#403B72"/>
<path transform="translate(1123,489)" d="m0 0h4l-2 4-5 6-1 2v8l4 7 3 3v7l-2 5-10 5-3 3-2 8v6l4 7-3 1-6-5-2-3v-9l3-6 5-5 7-3 2-7-1-5-4-5-2-9 2-8 5-5z" fill="#9D3260"/>
<path transform="translate(587,1019)" d="m0 0 2 3-1 2h6l5 2 2-1 3 4 9 4v4h-47v-4l14-6 6-4z" fill="#F17958"/>
<path transform="translate(1201,980)" d="m0 0 2 1 5 4 6 2-1 7-1 33-2 6-5-1-2-6-1-22 1-9-1-8-1-1z" fill="#B781E8"/>
<path transform="translate(900,456)" d="m0 0 4 1 10 9v7l-1 3v10l4 8 4 5-3 1-10-4-6-9-1-10 2-11-5-5 1-4z" fill="#9C315F"/>
<path transform="translate(612,974)" d="m0 0h10l5 6 1 8-4 5-7 1 1-9-3-3-6-2-11 1-4 1-2-1h-8l-9 5h-2l1-5 5-4 5-2z" fill="#3F376A"/>
<path transform="translate(992,898)" d="m0 0h27l3 9-1 3h-10l-18-2-5-2-12-2-4 1 2-4h10l8 1z" fill="#3C376B"/>
<path transform="translate(473,861)" d="m0 0h5l-4 2-22 6-2 4-3 17-6 27-6 21-8 22-2 7v18l7 32v7l-4 8-4 5h-2l1-4 5-6 1-2v-8l-6-27-1-7v-15l15-45 5-21 5-24 2-10 3-2 14-3z" fill="#FC8C91"/>
<path transform="translate(1019,946)" d="m0 0 5 2 1-2 5 7 3 2 1 8v7l-2 1v-2h-2l2 9-3 1-2-7v2l-3 1-3-3-2-10-2-6 1-5h2z" fill="#F87381"/>
<path transform="translate(973,225)" d="m0 0h3l-2 5-4 6-2 5-2 9-10 4-8 1-1-4 7-2 3-12 7-8z" fill="#9D3360"/>
<path transform="translate(849,760)" d="m0 0 5 1 11 12 9 10 1 4-2 5-3 2-5-2v-2l-6-2-4-4 1-4 2-3-1-6-8-10z" fill="#F99B5F"/>
<path transform="translate(1056,967)" d="m0 0h11l13 8 9 4-1 4-5 1-3-2h-7l-9-4-8-3v-2l-3-1 1-4z" fill="#F8995E"/>
<path transform="translate(965,699)" d="m0 0h1v129l-3 15-3-1 1-7 1-1 2-72v-40z" fill="#8171E5"/>
<path transform="translate(456,241)" d="m0 0 2 2 4 22 4 31 9 55 2 11v7h-1l-5-23-9-58-6-38z" fill="#DAABEE"/>
<path transform="translate(910,932)" d="m0 0 1 3h-2l-2 4-11 12-13 13-8 7-12 11-14 11-2 2h-4l2-4 5-5 4-1 12-12 9-6 5-6 8-7z" fill="#6D6BDB"/>
<path transform="translate(1038,407)" d="m0 0h5l-3 6-9 10-2 3h-2l-1 3-4 3h-2v2l-13 8-18 6-9 1-4-2 10-1 7-4 8-3 18-10 4-2v-2l6-5 2-4 3-2 1-3h3z" fill="#9F7BF6"/>
<path transform="translate(520,1360)" d="m0 0 6 1 1 10-6 10-8 8h-4l1-7 5-13z" fill="#9E3761"/>
<path transform="translate(1152,455)" d="m0 0h5l-6 7-2 5v16l-7 6h-4l1-4 2-3v-16l4-7 4-3z" fill="#9D3260"/>
<path transform="translate(929,649)" d="m0 0h1v112l-1 73-3-1 1-2 1-136z" fill="#8171E5"/>
<path transform="translate(1120,563)" d="m0 0 5 2 2 6-1 6-6 9v7l6 9-1 2-9-6-2-4v-10l5-8z" fill="#9D3260"/>
<path transform="translate(1120,1097)" d="m0 0m-1 1 5 2-3 2-14 6-10 3h-18l-8-2-1-3h12l16-1 14-4z" fill="#DBAFEB"/>
<path transform="translate(1032,232)" d="m0 0h12l3 2-16 8-2 4-3 3h-6v-2h-3l2-5 5-6z" fill="#923557"/>
<path transform="translate(692,551)" d="m0 0h13l-4 2-18 4-20 7-21 9-9 5-3-1 19-10h2v-4l24-8z" fill="#8672E7"/>
<path transform="translate(1200,981)" d="m0 0 1 4-6 7-5 5 1 16 4 6 5 9v3l-10-11-7-11-3-4 1-4 5-5 13-12z" fill="#DBBAF5"/>
<path transform="translate(961,489)" d="m0 0 8 1 4 10 3 5 6 5v2l-8-1-8-5-3-3-3-10z" fill="#9D3260"/>
<path transform="translate(1144,919)" d="m0 0h4v3l4 2 3 2v2h2l2 5v5h-2l-2 10-3-1-5-15-2-8z" fill="#D6B1F3"/>
<path transform="translate(599,1068)" d="m0 0h63l1 1v17h-1l-1-16h-60l-2 1-2 10-2 24 9 2 1 1v6l-5 4-5 2-1 3-1 14h-1v-18l5-3 5-2 1-6-8-1-2-2 2-25 2-11z" fill="#9B315F"/>
<path transform="translate(421,1036)" d="m0 0 2 1v2l-16 5-37 6-44 5h-27l-10-3 4-1 7 2h22l43-5 37-6 13-3z" fill="#8E2F56"/>
<path transform="translate(660,879)" d="m0 0 5 5 9 12 8 8v2h2l7 8 6 5 4 5 8 7 11 10 10 8 1 2-5-2-14-12-11-9-23-23-13-17-5-7z" fill="#8171E5"/>
<path transform="translate(324,1381)" d="m0 0h10l2 5 6 2v1h-12l-2 4h2l4 6 5 2 2 3-13-2-4-1-1-7z" fill="#A63D68"/>
<path transform="translate(592,1368)" d="m0 0h3v2l5 2 1 2 13 5 3 3-1 2h-20l-2-2-1-12z" fill="#49396D"/>
<path transform="translate(341,1392)" d="m0 0h14l10 4-1 4-5 3-11-1-2-2h-4v-2h-3z" fill="#7F2D4E"/>
<path transform="translate(387,761)" d="m0 0h15l13 4 16 7 23 13 8 4 8 2 17 1 23-1v1l-5 1-14 1h-16l-16-4-18-10-16-8-17-7-9-2-12-1z" fill="#FB8B90"/>
<path transform="translate(1089,979)" d="m0 0 2 1v3l-4 4-9-1 2 8 6 20-1 5-4 1h-9l-17-2-6-2v-1l13 1 17 1 3-1-1-9-5-16-1-8 7 1 5 1z" fill="#DAB7F0"/>
<path transform="translate(1255,513)" d="m0 0 3 3 3 14v17l-3 13-5 10-4 6-8 7-7 6-2-1 4-2v-2l7-6 7-10h2l1-4 4-11 1-8v-15l-3-14z" fill="#F87381"/>
<path transform="translate(589,1104)" d="m0 0 11 3 3 1v6l-2 2-10 3-1-3-6-3 4-8z" fill="#F17959"/>
<path transform="translate(423,1037)" d="m0 0h2l2 45 1 27 1 11v9l-2 2-1-5-1-20z" fill="#766EE0"/>
<path transform="translate(1143,602)" d="m0 0 7 4 2 3-1 14 3 5v3l-5-2-5-6v-11l1-3-3-4z" fill="#9B315E"/>
<path transform="translate(583,980)" d="m0 0 4 2-3 4-5 7-2 3-6 3-1 5 5 7-4-2-3-4-1-7 3-6 3-5 3-3 4-2h3z" fill="#9B315E"/>
<path transform="translate(1194,441)" d="m0 0 3 1-5 5-6 12-3 2h-6l-2-2 5-5 2-6 5-5z" fill="#9D3260"/>
<path transform="translate(864,402)" d="m0 0 2 3 2 7-1 7-5 6-3 6-1 10 3 8 5 5 6 4 11 2v2l-6 1-7-1-3-1-7-8-4-9v-10l4-11 6-9-2-8z" fill="#9F7BF6"/>
<path transform="translate(859,788)" d="m0 0 6 2v2l5 1 1 2-2 4 1 9 4 9-1 3-6-12-1 6-1 34h-1v-57l-5-2z" fill="#D4B8F3"/>
<path transform="translate(363,1109)" d="m0 0 3 3 4 11 1 6-6 1-5 3 1-15z" fill="#9177ED"/>
<path transform="translate(609,755)" d="m0 0 4 1-3 1-3 11-7 12-1 7h3v5l-3 3v-3h-2v-3l-5 1-5 4v-3l6-7 11-16 2-4 2-8z" fill="#A37EF3"/>
<path transform="translate(497,413)" d="m0 0h11l8 6 2 5v10l-4 6-5 2-2-2 6-4 2-3v-8l-3-5-6-3h-7l-5 2 1-4z" fill="#DAB5F0"/>
<path transform="translate(864,773)" d="m0 0 11 11-1 7-4 3-5-2-1-4 1-7z" fill="#FC8C91"/>
<path transform="translate(1217,1348)" d="m0 0h12l2 9-6 4h-5l-1-9z" fill="#F8995F"/>
<path transform="translate(467,307)" d="m0 0h1l7 44 2 11v7h-1l-5-23-5-31v-6z" fill="#DAA8ED"/>
<path transform="translate(592,862)" d="m0 0 3 4 8 17 7 11 3 7h-3l-8-13-8-15-3-10z" fill="#8070E4"/>
<path transform="translate(1207,766)" d="m0 0h4l2 10-9 7h-3l1-1v-10z" fill="#B681E9"/>
<path transform="translate(661,1086)" d="m0 0h1v10l-2 2-7 1 1 5 6 1 1 7-2 19h-1v-15l1-7-8-2-1-2v-7l3-2h7z" fill="#9D3260"/>
<path transform="translate(588,1024)" d="m0 0h6l4 2 2 4-5 2 1 2-7 1-6-3 1-2h2l1-4z" fill="#F28855"/>
<path transform="translate(1081,271)" d="m0 0h11l5 3v1l-12 2-6 3-5-2v-3z" fill="#9F3561"/>
<path transform="translate(1141,1093)" d="m0 0h17l16 4 2 1v2l-18-4h-16l-17 4 1-3 9-3z" fill="#CF9BE7"/>
<path transform="translate(574,807)" d="m0 0 2 1-15 15-13 10-20 12-8 4-3-1 20-11 15-10 14-12z" fill="#DAA8ED"/>
<path transform="translate(1113,410)" d="m0 0h1v15l-5 10-4 4-10 4h-10v-1l12-3 9-7 5-7 1-3z" fill="#DAA8ED"/>
<path transform="translate(540,286)" d="m0 0 1 3-9 19-6 15-5 15h-2l1-7 6-16 7-16z" fill="#DAA8ED"/>
<path transform="translate(1081,764)" d="m0 0 7 6 2 1 6 12-3 1-5-4-8-11-1-4z" fill="#D8B1F3"/>
<path transform="translate(1088,1360)" d="m0 0h12l-1 11-13-3 2-2z" fill="#F89574"/>
<path transform="translate(403,1360)" d="m0 0h12l-1 6-1 2 2 1h-10l-1 2z" fill="#F78D88"/>
<path transform="translate(1047,905)" d="m0 0 3 1 6 18 4 13 6 19-1 3-10-28-6-20z" fill="#9D3260"/>
<path transform="translate(1037,232)" d="m0 0h7l3 2-16 8-2 4-3 3h-6v-2h-3l2-4v3l7-2 5-5 5-4 2-1z" fill="#A03461"/>
<path transform="translate(420,1034)" d="m0 0h2l-1 3-9 4-27 5h-6l3-2 18-4 7-2 5 1v-2z" fill="#F17958"/>
<path transform="translate(1165,449)" d="m0 0 11 1v4l-3 4-13-3-1-2 4-1-2-2z" fill="#BB83E9"/>
<path transform="translate(1e3 1e3)" d="m0 0 2 3 1 5 15 1 14 2 13 1v1l-11 1-5 1-9-3-16-2-4-3z" fill="#DAA8ED"/>
<path transform="translate(1208,904)" d="m0 0 2 3 3 11 1 8v30l-2 7-1-4 1-10v-17l-3-18z" fill="#C7A6ED"/>
<path transform="translate(1013,288)" d="m0 0 12 2 8 4 10 6 3 4-1 2-6-4v-2l-7-2-6-4-10-2-4-2z" fill="#F77483"/>
<path transform="translate(789,815)" d="m0 0 2 2 3 19v7h-8v-3l4-1v-11l-1-5h-1v-6z" fill="#6368D6"/>
<path transform="translate(1234,446)" d="m0 0h5v3l-10 8-5-1 2-5z" fill="#9A345D"/>
<path transform="translate(662,559)" d="m0 0h7l-3 2-10 4-3 3-17 8-3 2-3-1 19-10h2v-4z" fill="#766DDF"/>
<path transform="translate(1021,904)" d="m0 0h27v3h-11l-14 2-2-2z" fill="#9F81E8"/>
<path transform="translate(426,1082)" d="m0 0h1l1 27 1 11v9l-2 2-1-5z" fill="#9276EA"/>
<path transform="translate(594,799)" d="m0 0 2 3v3h2l1 4-2 2v-2h-2v2h-5l-1-8z" fill="#9E7AF5"/>
<path transform="translate(556,252)" d="m0 0 3 2-2 4-4 9-9 16-2 1 2-6 9-19z" fill="#DBB0F1"/>
<path transform="translate(1252,524)" d="m0 0 2 2 1 6v6l1 2-2 6-3 2v-22z" fill="#903156"/>
<path transform="translate(1185,625)" d="m0 0 6 1 3 8v4l-4-1-4-5z" fill="#9D3260"/>
<path transform="translate(462,417)" d="m0 0 6 6v8l-3 6h-3l-1 3h-13l-5-3-2-4 8 5h8l6-3 2-4v-8l-3-4z" fill="#DBC8F6"/>
<path transform="translate(523,1374)" d="m0 0 1 3-11 12h-4l1-5 8-5z" fill="#433A71"/>
<path transform="translate(456,241)" d="m0 0 2 2 3 15v13l-2-1-3-20z" fill="#DBB0F1"/>
<path transform="translate(974,901)" d="m0 0h10l8 1 1 5-17-3-4 1z" fill="#7958AF"/>
<path transform="translate(1178,1096)" d="m0 0 10 4 1 2 4 2-1 3-15-6v-4z" fill="#D6ABEF"/>
<path transform="translate(866,973)" d="m0 0m-1 1m-1 1m-1 1m-1 1m-1 1m-1 1m-1 1m-1 1m-1 1m-2 1h2l-2 5-8 7h-4l2-4 5-5 4-1z" fill="#6869D8"/>
<path transform="translate(1077,443)" d="m0 0 2 1-7 7-1 2v8l1 4v8h-1l-2-8-2-4v-6l4-6 5-5z" fill="#DAA8ED"/>
<path transform="translate(324,1381)" d="m0 0h10l2 6h-11z" fill="#FA8C93"/>
<path transform="translate(494,853)" d="m0 0 4 1v2l-16 5h-9l3-2 15-4z" fill="#F9946B"/>
<path transform="translate(1137,472)" d="m0 0 5 4-1 3-4-3-24-1v-2z" fill="#B881E9"/>
<path transform="translate(609,755)" d="m0 0 4 1-3 1-3 11-7 12-4 3-2-1 10-14 2-4 2-8z" fill="#A680F4"/>
<path transform="translate(1029,481)" d="m0 0 5 3 8 6-2 1-12-4-3-2 1-3z" fill="#9A315E"/>
<path transform="translate(1099,1107)" d="m0 0m-28 1h28l1 2-3 1h-18l-8-2z" fill="#D595D7"/>
<path transform="translate(964,839)" d="m0 0 3 1 1 2 19 1v1l-8 1h-14l-8-1v-1h6z" fill="#DBC6F6"/>
<path transform="translate(780,822)" d="m0 0h1l-1 15 1 5 4 1h-8l-1-4z" fill="#6568D7"/>
<path transform="translate(513,420)" d="m0 0 4 1 1 3v10l-4 6-5 2-2-2 6-4 2-3v-8z" fill="#DABCF3"/>
<path transform="translate(520,1360)" d="m0 0 6 1v5l-2 2-7 2-1-2z" fill="#F88B94"/>
<path transform="translate(964,812)" d="m0 0h1v23l-2 8-3-1 1-7 1-1z" fill="#6D6BDB"/>
<path transform="translate(1047,233)" d="m0 0 2 2-4 3-10 4-5 6-4 1 5-7 7-5z" fill="#F87380"/>
<path transform="translate(1204,431)" d="m0 0 5 1 3 6-1 2-8-1-1-4z" fill="#A47EF5"/>
<path transform="translate(1049,1015)" d="m0 0 26 2 3 2h-17l-12-3z" fill="#DAB5F0"/>
<path transform="translate(603,1107)" d="m0 0 2 1v6l-5 4-5 2-1 3-1 14h-1v-18l5-3 5-2z" fill="#96315B"/>
<path transform="translate(977,224)" d="m0 0h5v2l-4 2-7 10-3 9h-1v-6l4-8z" fill="#F77483"/>
<path transform="translate(1081,271)" d="m0 0h11l3 3-10-1v2l-10 2 1-2h2l1-3z" fill="#873255"/>
<path transform="translate(221,822)" d="m0 0 2 1-2 5-6 8-4 3-2-1z" fill="#F07F69"/>
<path transform="translate(421,1036)" d="m0 0 2 1v2l-16 5h-11v-1l19-4z" fill="#97315C"/>
<path transform="translate(864,762)" d="m0 0 2 4 3 9 8 10-2 1-7-8-5-7z" fill="#CA9EED"/>
<path transform="translate(344,711)" d="m0 0 2 1-1 2v8l4 6v2l2 1-4-1-4-5-2-8z" fill="#8C75E9"/>
<path transform="translate(1228,488)" d="m0 0 5 1 8 4 9 9-1 3-2-4h-2l-5-5-12-7z" fill="#F7737C"/>
<path transform="translate(1213,1340)" d="m0 0 4 5 6 1h7v2l-11 1-5-3z" fill="#9D3C60"/>
<path transform="translate(281,1017)" d="m0 0 1 4v22l-2-2-1-3v-12l1-8z" fill="#F79A67"/>
<path transform="translate(1208,904)" d="m0 0 2 3 3 11 1 12-2-3-4-17z" fill="#B19DEC"/>
<path transform="translate(365,1397)" d="m0 0 3 1 1 6-9 1 2-4z" fill="#A54A84"/>
<path transform="translate(1146,920)" d="m0 0h2v2l4 2 4 4 1 6-5-4-6-9z" fill="#6F3668"/>
<path transform="translate(1045,763)" d="m0 0h2v2l-8 6-6 9-1-4 6-9z" fill="#D7AFF3"/>
<path transform="translate(867,311)" d="m0 0h1l1 12 8 12-4-2-6-8-1-11z" fill="#F87683"/>
<path transform="translate(381,713)" d="m0 0 1 4 3 6v8l-2 1-2-10-2-6z" fill="#D6A5ED"/>
<path transform="translate(1047,905)" d="m0 0 3 1 5 14v5l-2-1z" fill="#723A71"/>
<path transform="translate(205,845)" d="m0 0 2 1-8 17-2 1 1-5z" fill="#F8976B"/>
<path transform="translate(1270,473)" d="m0 0 7 1 1 2-7 1h-8l3-3z" fill="#A73E64"/>
<path transform="translate(1240,447)" d="m0 0h2l-2 4-4 3h-2l-1 3-5 3v-2l-3-1 7-3z" fill="#F87381"/>
<path transform="translate(922,244)" d="m0 0h3l-1 4-9 7-4 6-1-2 4-6 7-6z" fill="#F77785"/>
<path transform="translate(1083,1013)" d="m0 0 3 1-1 5-4 1h-9v-1l7-2 3-1z" fill="#DABAF1"/>
<path transform="translate(1057,1103)" d="m0 0 11 3v1l-9 1h-10v-1l8-1z" fill="#DBBAF5"/>
<path transform="translate(270 1e3)" d="m0 0h5l1 5-1 2-4-1-2-5z" fill="#F28957"/>
<path transform="translate(1126,567)" d="m0 0 2 3 1 6-7 9-1-2 5-8z" fill="#F87381"/>
<path transform="translate(583,612)" d="m0 0 1 4-5 12h-2l1-5 3-7z" fill="#DAC7F5"/>
<path transform="translate(1217,1348)" d="m0 0h12v2l-9 3z" fill="#EE8462"/>
<path transform="translate(494,853)" d="m0 0 4 1v2l-9 3-4-1h3v-2z" fill="#FA9373"/>
<path transform="translate(635,725)" d="m0 0h4v6l-4 1-1-5z" fill="#CDA2ED"/>
<path transform="translate(1248,514)" d="m0 0 4 2 1 6-1 4h-2z" fill="#A04063"/>
<path transform="translate(592,1368)" d="m0 0h3v2l5 2v2l-6 2z" fill="#F18A98"/>
<path transform="translate(556,1196)" d="m0 0 8 2-2 1-1 2h-4l-3-2v-2z" fill="#F97D87"/>
<path transform="translate(1163,1094)" d="m0 0 13 4v2l-17-4z" fill="#CA96E6"/>
<path transform="translate(1133,1093)" d="m0 0 3 1-10 4-1 2-5-1 3-3z" fill="#DBB5F3"/>
<path transform="translate(415,430)" d="m0 0 1 3-5 5-2 1h-9v-1l9-2 5-4z" fill="#DBC6F6"/>
<path transform="translate(461,265)" d="m0 0h1l1 8v10l-2-2-1-10z" fill="#DAA8ED"/>
<path transform="translate(400,412)" d="m0 0h9l6 4 1 5-7-6-9-2z" fill="#DBC6F6"/>
<path transform="translate(1125,1112)" d="m0 0 3 2 1 3 2 1 3 7-1 3-6-10z" fill="#8D3154"/>
<path transform="translate(804,1112)" d="m0 0h14l-1 2-12 1-2-2z" fill="#BA82E9"/>
<path transform="translate(1135,1094)" d="m0 0m-3 1 6 1-4 2-9 2 1-3z" fill="#E59AC8"/>
<path transform="translate(867,797)" d="m0 0 1 2v9h-1l-1 6h-1v-14z" fill="#BA82E9"/>
<path transform="translate(1208,589)" d="m0 0 4 2-2 2-9 2 1-3z" fill="#BA82E9"/>
<path transform="translate(964,839)" d="m0 0 3 1 2 4h-12v-1h6z" fill="#DBBAF4"/>
<path transform="translate(221,822)" d="m0 0 2 1-2 5-7 5 2-4z" fill="#F18378"/>
<path transform="translate(1029,481)" d="m0 0 4 5v1h-5l-3-2 1-3z" fill="#8D2F56"/>
</svg>
