<?xml version="1.0" encoding="UTF-8"?>
<svg version="1.1" viewBox="0 0 1080 1080" width="1080" height="1080" xmlns="http://www.w3.org/2000/svg">
<path transform="translate(531,80)" d="m0 0h28l17 4 19 8 24 12 23 13 29 17 28 17 7 1 5 3 5 5 3 2v2l5 2 20 12 1-58 4-6 3-3 3-1h57l7 3 4 6 1 107 56 34 32 19 15 9 10 5 9 5 13 8 14 9 5 4 30 18 10 9 6 9 2 7v12l-4 10-6 10-9 8-13 6-10 3-6 2-8 2-10 5-10 7-3 3h-2l-3 10h-2l-2 14h-2l1 21v327l-1 26-3 23-4 17-7 19-8 16-9 14-8 10-9 10-7 7-17 13-16 9-16 7-9 3-29 4h-315v2l2 1h-8l-1 5-20 5h-2v2l-24 4-10 2-11 2-19 2-8 2-60 5-45 1-66-1-44-3-40-5-10-3-15-3-10-4-8-5v-3h-2v-2h4l2-5h2v-2l12-3 5-2-4-5-3-6v-7l2-7-1-10-2-4-1-6v-9l1-1 2-13 11-9 12-7 6-2 2-3 2-7 6-7 15-5 7-4h2l-4-20-1-9-1-403-5-4-7-4-12-6-11-2-7-3-14-3-12-5-9-6-8-9-4-8-1-4v-12l3-9 6-8 9-8 32-19 28-17 32-19 28-17 32-19 28-17 32-19 28-17 32-19 23-14 8-6 1-2 8-2 28-17 22-13 21-12 24-13 17-8 15-5z" fill="#FCFCFC"/>
<path transform="translate(189,376)" d="m0 0h1l1 459-7 8-5 11-2 9-1 2-1 11-5 30 1 3 3-3 6-17 1-1h10l1 15 2 7 37-1 5-43 1 2h2l1-5 6-4 13-4 13-2 14-1 3-5 4-4 4 5 3 8 5 46-1 5-2 2v4l9 4 6 5 7 12 2 5v4h16l-1-12 1-109 1-8h11l1 128h438l16-3 5-1v-2l-5-2-14-9-8-4-16-16-8-11-3-9-2-1-1 2v-7l-8-1-4-4v-10l3-7 5-3h2v-2l18-7 5-1 9 18 4 2-3-10-4-9-7-16-5-8-5-3-4-8-3-5-1-3-7 1-34 13-7 3h-3l-1-9-3-8 1-4 1-5 32-13 34-13 33-13 6-2 5 8 2 5-1 10-4 4-41 16-4 1 3 6 1 4h-2l8 18 6 13v3h7l12-4h5v-2l-9-1-2-2v-5l3-3h6l4 5v4l4-1 4 2h4l-9-3-5-8 3-3 13-6 7 1 12 10 1 4 17-1 12-2h14l5-2h8v-447l10 5 25 15v442l-4 23-8 24-8 16-9 15-9 11-9 10-7 7-17 13-16 9-16 7-9 3-29 4h-315v2l2 1h-8l-1 5-20 5h-2v2l-24 4-10 2-11 2-19 2-8 2-60 5-45 1-66-1-44-3-40-5-10-3-15-3-10-4-8-5v-3h-2v-2h4l2-5h2v-2l12-3 5-2-4-5-3-6v-7l2-7-1-10-2-4-1-6v-9l1-1 2-13 11-9 12-7 6-2 2-3 2-7 6-7 15-5 7-4h2l-4-20-1-9-1-403-5-4-7-4-12-6-11-2-7-3v-1l16-1 15-4 11-6 28-17z" fill="#C204D0"/>
<path transform="translate(531,80)" d="m0 0h28l17 4 19 8 24 12 23 13 29 17 28 17 7 1 5 3 5 5 3 2v2l5 2 20 12 1-58 4-6 3-3 3-1h57l7 3 4 6 1 107 56 34 32 19 15 9 10 5 9 5 13 8 14 9 5 4 30 18 10 9 6 9 2 7v12l-4 10-6 10-9 8-13 6-10 3-6 2-8 2-10 5-10 7-3 3h-2l-3 10h-2l-2 14h-2l1 21v327l-1 26h-1v-432l-5-2-29-17-56-34-32-19-56-34-32-19-28-17-20-12-28-17-32-19-23-14-20-12-14-7-12-3-11 1-12 5-17 9-21 13-32 19-28 17-32 19-28 17-32 19-28 17-32 19-28 17-20 12-28 17-29 17-23 14-11 4-8 2h-21l-12-3-14-7-10-9-5-9-2-6v-12l3-9 6-8 9-8 32-19 28-17 32-19 28-17 32-19 28-17 32-19 28-17 32-19 23-14 8-6 1-2 8-2 28-17 22-13 21-12 24-13 17-8 15-5z" fill="#FEB18E"/>
<path transform="translate(189,376)" d="m0 0h1l1 459-7 8-5 11-2 9-1 2-1 11-5 30 1 3 3-3 6-17 1-1h10l1 15 2 7 37-1 5-43 1 2h2l1-5 6-4 13-4 13-2 14-1 3-5 4-4 4 5 3 8 5 46-1 5-1-2h-10l-11 2-10 6-7 7-6 12-2 7v36l-2 2-12 3-12 1-8-1v2h-2l2-9-5 9h-2l-1 3-13-2-6-4-2-3-27-4-1-3-2 1v2h2v3h-14l-9-1-13 4-8 3v8l14 6 19 4 23 3 48 3h69l39-3 32-5 15-4 15-6 2-7h81v2l2 1h-8l-1 5-20 5h-2v2l-24 4-10 2-11 2-19 2-8 2-60 5-45 1-66-1-44-3-40-5-10-3-15-3-10-4-8-5v-3h-2v-2h4l2-5h2v-2l12-3 5-2-4-5-3-6v-7l2-7-1-10-2-4-1-6v-9l1-1 2-13 11-9 12-7 6-2 2-3 2-7 6-7 15-5 7-4h2l-4-20-1-9-1-403-5-4-7-4-12-6-11-2-7-3v-1l16-1 15-4 11-6 28-17z" fill="#F8F3FC"/>
<path transform="translate(539,146)" d="m0 0h9l16 3 20 8 16 9 10 5 27 16 25 15 26 16 20 12 16 10 12 6 21 13 32 19 9 6 12 7 15 9 29 17 28 17 23 14 10 6 16 9 26 15 18 11 14 5 9 1 8 2v3l-10 5-12 3h-22l-12-3-14-7-28-17-32-19-26-16-32-19-28-17-20-12-28-17-32-19-56-34-32-19-28-17-20-12-14-7-12-3-11 1-12 5-17 9-21 13-32 19-28 17-32 19-28 17-32 19-28 17-32 19-28 17-20 12-28 17-29 17-23 14-11 4-8 2h-21l-12-3-10-5 1-2 5-2h7l9-3 12-6 28-17 32-19 28-17 29-17 28-17 32-19 25-15 16-10 17-10 13-8 17-10 18-12 9-5 10-6 13-8 11-6 14-9 9-5 21-13 14-7 10-4 14-5z" fill="#FE8A54"/>
<path transform="translate(368,409)" d="m0 0h82l9 3 7 8 2 6v8l-3 7-5 6-11 4-83 1-10 2-11 6h-2v2l-8 7-6 9-5 11-1 6v16l5 15 9 13 10 8 8 4 5 2 6 1h14l10-2 12-6 8-6 9-12 2-4h-32l-7-3-5-5-3-5-1-9 3-8 4-5 6-3 4-1h61l8 3 7 8 1 3v17l-4 16-5 13-3 6h-2l-1 4-6 8-4 5h-2l-2 4-13 10-15 8-13 4-18 3h-10l-19-3-14-5-6-3-10-6-11-9-7-8-9-12-7-16-3-8-2-15v-19l2-14 7-19 7-11 4-6h2l2-4 9-9 10-7 16-8 12-4z" fill="#FF7638"/>
<path transform="translate(189,376)" d="m0 0h1l1 459-7 8-5 11-2 9-4 1-12-3-3-10-3-20-1-403-5-4-7-4-12-6-11-2-7-3v-1l16-1 15-4 11-6 28-17z" fill="#C204D0"/>
<path transform="translate(343,814)" d="m0 0h11l1 128 6 5h40l5 8 1 6h2l6 11v5l-3 3-12 1-2 1-1 5-10 5-17 5-28 5-32 3-15 1h-71l-46-3-28-4-16-4-12-5-1-1v-8l11-5 11-3 9 1 14 1v-3h-2l-1-5 1 2h2l1 2 27 4 5 5 3 2 13 2 1-2h2l2-5 3-7h1l-1 7-2 5h2v-2h9l17-2 7-3v-36l4-12 6-9 7-7 9-5 11-2h11l-2 5v4l9 4 6 5 7 12 2 5v4h16l-1-12 1-109z" fill="#5E5FFB"/>
<path transform="translate(810,752)" d="m0 0 4 4 4 9-1 10-4 4-41 16-4 1 3 6 1 4h-2l8 18 6 13v3h7l12-4h5v-2l-9-1-2-2v-5l3-3h6l4 5v4l4-1 4 2h4l-9-3-5-8 3-3 13-6 7 1 12 10 1 4 17-1 12-2h14l5-2h8l-1 13-4 18-2 3-3-9-3-5v-2h-2l3 10 2 11-1 9-9 16-9 12-9 10-11 10-14 9-14 7-9 3v-2l-5-2-14-9-8-4-16-16-8-11-3-9-2-1-1 2v-7l-8-1-4-4v-10l3-7 5-3h2v-2l18-7 5-1 9 18 4 2-3-10-4-9-7-16-5-8-5-3-4-8-3-5-1-3-7 1-34 13-7 3h-3l-1-9-3-8 1-4 1-5 32-13 34-13 33-13z" fill="#A3B3E2"/>
<path transform="translate(293,843)" d="m0 0 4 5 3 8 5 46-1 5-1-2h-10l-11 2-10 6-7 7-6 12-2 7v36l-2 2-12 3-12 1-8-1v2h-2l2-9-5 9h-2l-1 3-13-2-6-4-2-3-27-4-1-3h-2v-2h-2l-1-2v-14l7-39 1-3 4-1 4-11 4-9h10l1 15 2 7 37-1 5-43 1 2h2l1-5 6-4 13-4 13-2 14-1 3-5z" fill="#CFD3FD"/>
<path transform="translate(541,135)" d="m0 0 18 1 12 4 18 8 21 13 10 5 13 8 14 8 26 16 15 9 22 13 13 8 16 9 16 10 32 19 21 13 29 17 21 13 32 19 28 17 24 14 22 13 20 12 17 6 11 3v3l-5 3-3-2-12-1-10-3-14-7-13-8-26-15-23-13-9-6-32-19-60-36-12-7-16-10-50-30-11-6-51-31-40-24-22-13-24-12-15-6-16-3h-9l-12 2-19 7-7 3-17 9-16 10-9 5-16 10-13 8-11 6-14 9-9 5-11 7-16 10-14 8-10 6-16 10-25 15-32 19-28 17-32 19-28 17-29 17-28 17-17 10-11 3-2 1h-6l-7 3-4-3v-3l17-5 24-14 28-17 25-15 27-16 55-33 32-19 20-12 18-11 15-9 32-19 16-10 5-4 11-6 10-6 29-17 19-12 14-8 18-10 16-8 12-5z" fill="#FE9F73"/>
<path transform="translate(503,486)" d="m0 0h10l8 4 7 8 2 6 1 39 4 6 6 4h8l7-5 3-6 1-41 5-8 5-4 7-3h9l10 5 6 8 1 3v47l-4 13-6 11-11 12-11 7-15 5h-23l-15-5-10-7-7-6-2-5h-2l-6-10-5-18v-42l4-9 6-6z" fill="#FF7538"/>
<path transform="translate(298,767)" d="m0 0h9l12 4 10 8 2 4h2l6 11 3 11 1 7-1 131h-16l-4-11-7-11-7-5-7-3 1-5 2-2-2-25-3-25-4-10-3-6-9-8-8-5-1-12-8-2-1-1 1-12 4-12 1-2h2v-3h2l1-4 10-8 9-3z" fill="#FCFCFC"/>
<path transform="translate(638,485)" d="m0 0 9 1 7 4 6 7 8 16 8 14 4-6 1-3h2l1-5 7-14h2l1-4 6-7 4-2 12-1 7 3 8 7 2 5v14l-8 15-6 12-9 16-5 10-8 14-4 8-3 1v2l-8 4h-12l-10-6-6-10-6-12-8-15-12-22-8-16-1-3v-12l4-7 6-5z" fill="#A76BDC"/>
<path transform="translate(871,846)" d="m0 0h4l5 14 2 18 1 4-8 12-9 11-10 10-15 11-16 8-11 4v-2l-5-2-14-9-13-11-5-5 1-2 2 1-1-4-4-3-3-5-4-5-5-1-1-7 1-3 4-1 18-1 5-2 17-2 6-2 5-4 21-10 4-2 4 1 5 8 2 17h5l3-10-1-11-4-11 4 1 4 9 3 23 3 1 3-3 1-4v-16l-3-12z" fill="#5F5CAD"/>
<path transform="translate(256,957)" d="m0 0h1l3 21v6l12 1v1l-15 1-5 1-26 2-3 1h-14l-4-3-23-1 10 4 21 3 17 1h47l28-3 15-4 3-3-6-2 3-1h45l6-1h29l-2 1-1 5-10 5-17 5-28 5-32 3-15 1h-71l-46-3-28-4-16-4-12-5-1-1v-8l11-5 11-3 9 1 14 1v-3h-2l-1-5 1 2h2l1 2 27 4 5 5 3 2 13 2 1-2h2l2-5 3-7h1l-1 7-2 5h2v-2h9l17-2 7-3z" fill="#B5A5B1"/>
<path transform="translate(140,967)" d="m0 0 4 1 6 4 10 2v1h-8l-9-1-13 4-8 3v8l14 6 19 4 23 3 48 3h69l39-3 32-5 15-4 15-6 2-7h81v2l2 1h-8l-1 5-20 5h-2v2l-24 4-10 2-11 2-19 2-8 2-60 5-45 1-66-1-44-3-40-5-10-3-15-3-10-4-8-5v-3h-2v-2h4l2-5h2v-2l12-3 8-3 7 1 5 2h8z" fill="#D7D7D6"/>
<path transform="translate(181,888)" d="m0 0h10l1 15 2 7 28 1 8 1v7l-2 16v8h1v8l-3 19-4 5-4 7h-2l-1 3-13-2-6-4-2-3-27-4-1-3h-2v-2h-2l-1-2v-14l7-39 1-3 4-1 4-11z" fill="#E6C7FE"/>
<path transform="translate(768,485)" d="m0 0h7l9 3 6 5 4 7 1 5v68l-2 10-4 7-10 6h-12l-8-4-5-5-3-8v-77l3-7 4-5z" fill="#A783DC"/>
<path transform="translate(208,826)" d="m0 0h18l6 3 5 12 1 10v13l-2 10-4 35-1 1-37 1-2-3-1-5v-15l-10 1-6 17-4 4-2-4 5-30 1-11 5-16 6-10 9-8 8-4z" fill="#FEE0DD"/>
<path transform="translate(343,814)" d="m0 0h11l1 128 6 5h40l5 8 5 13 2 4-1 3-67 3h-14-3l-1-6v-12l1-7v-4l-1-1v-5h15l-1-12 1-109z" fill="#6A80FE"/>
<path transform="translate(543,169)" d="m0 0 11 1 15 6 14 8-3 1-15-4-10-1-18 2-11 4-12 4-20 11-28 17-10 7-17 9-28 17-32 19-28 17-32 19-28 17-32 19-15 9-4 4-11 9-7 8-7 10-4 7h-2l-2 6h-2l-2 6-8 15-4 8h-1v-48l9-6 30-18 28-17 32-19 28-17 32-19 28-17 32-19 28-17 32-19 28-17 15-9 19-10z" fill="#D7D6D5"/>
<path transform="translate(824,813)" d="m0 0 7 1 12 10 1 4 17-1 12-2h14l5-2h8l-1 13-4 18-2 3-3-9-3-5v-2h-2l3 10 2 11-1 9-5 9-3-2-2-18-4-11v-3l-3 1 3 8 1 6v16l-3 7-4 1-2-2-3-23-4-9h-2l4 10 1 11-3 8-1 2h-5l-2-7-1-10-4-7v-3l-11 1-1-2 6-3v-2l-2-1v2l-9 6-4 4-8 1-2-3-3-9-1-5 2-2v-6h-2v5l-4 4-1-1v-7l-4 1v-2h5v-2l-9-1-2-2v-5l3-3h6l4 5v4l4-1 4 2h4l-9-3-5-8 3-3z" fill="#B0A1B1"/>
<path transform="translate(634,540)" d="m0 0h83l1 2-7 14-6 11-8 14-4 8-3 1v2l-8 4h-12l-10-6-6-10-6-12-8-15-6-11z" fill="#A784DC"/>
<path transform="translate(108,929)" d="m0 0h11l11 3 14 1 2-2h14l5 2-3 18v14l2 7h2v3l-12-1-7-3-4-3-5 1-7 4-5 2h-8l-8-3h-7l-4-5-3-6v-7l3-10 3-3-1-4-3-3v-3l8 1z" fill="#DDEBF9"/>
<path transform="translate(755,110)" d="m0 0h56l2 6-2 3-10 2-5 3h-2l-1 3-11 9-4 2 1 3-3 1-2 4 1 3-1 8 1 2h-2v2l2 1v3 3l1 4-4 1h-16l-5 2v2l-4-1-1-1-2 4 1-59 4-6 3-3z" fill="#FED6CE"/>
<path transform="translate(810,752)" d="m0 0 4 4 4 9v5l-12 6-72 28-19 7-8-1-3-8 1-4 1-5 32-13 34-13 33-13z" fill="#FF8B55"/>
<path transform="translate(140,967)" d="m0 0 4 1 6 4 10 2v1h-8l-9-1-13 4-8 3v8l14 6 19 4 23 3 48 3h69l39-3 32-5 15-4 15-6 2-7h36l-2 5-7 5-11 3-21 6-37 6-29 3-39 2h-53l-44-2-32-3-25-4-18-4-10-4-5-3-1-7 6-6 12-3h8z" fill="#BEBDCE"/>
<path transform="translate(293,904)" d="m0 0h11l-3 9-2-2-17 3-6 3-8 10-4 8-2 7v14l3 12 5 9 6 5 4 2 6 1h11l9-3 10-6 7-11 2 2 3 13 55-2 29-1-2 3-12 1-27 1-7 1h-46l6 2-4 4-15 4-28 3h-47l-17-1-21-3-10-4-1-2h10l16 1 2 3h14l13-2 16-1 7-2-1-16-2-12v-18l4-12 6-9 7-7 9-5z" fill="#625FAD"/>
<path transform="translate(299,757)" d="m0 0h11l9 2 11 6 10 9 7 10 5 12 2 8v10h-11l-4-16-3-7-3-6v-2h-2l-5-6-7-5-13-4h-8l-10 3-6 4-6 5-1 3h-2v3l-2 2-4 12-1 12 7 3v11l-29-1v-10l2-2 6-1 2-15 5-13 7-11 7-7 9-5z" fill="#E5C7FD"/>
<path transform="translate(187,838)" d="m0 0h2v2h-2l-1 5 12 1 3 5v13l-4 39-1 5h22l1-1 1-10 5-26 4-12 4-13 1-8h2l2 7v19l-2 10-4 35-1 1-37 1-2-3-1-5v-15l-10 1-6 17-4 4-2-4 5-30 1-11 5-16 6-10z" fill="#FBD4CE"/>
<path transform="translate(574,409)" d="m0 0h11l7 3 6 5 5 10v10l-4 9-5 5-4 3-5 2h-11l-10-5-6-7-2-6v-11l3-7 7-8z" fill="#FF7A3E"/>
<path transform="translate(505,409)" d="m0 0h11l9 4 2 4h2l4 7 1 10-3 9-3 5-5 5-8 3h-10l-10-5-6-7-2-5v-13l4-8 5-5 5-3z" fill="#FF7A3E"/>
<path transform="translate(164,976)" d="m0 0 5 2 4 3 6 1 12 1 13 3 1 2-23-1 10 4 21 3 17 1h47l28-3 15-4 3-3-6-2 3-1h35l5 2-1 3-8 4-13 4-25 4-26 2h-61l-31-2-23-3-16-5-6-3-1-4 4-4z" fill="#827EB1"/>
<path transform="translate(1016,391)" d="m0 0v3l-9 8-13 6-10 3-6 2-8 2-10 5-10 7-3 3h-2l-3 10h-2l-2 14h-2l1 21v327l-1 26h-1v-431l15 7 12 3h22l14-4 10-5z" fill="#D7D7D6"/>
<path transform="translate(892,823)" d="m0 0h8l-1 13-4 18-2 3-3-9-3-5v-2h-2l3 10 2 11-1 9-5 9-3-2-2-18-4-11v-3l-3 1 3 8 1 6v16l-3 7-4 1-2-2-3-23-4-9h-2l4 10 1 11-3 8-1 2h-5l-2-7-1-10-4-7v-3h-2l2-5 8-4h4v-2l12-5 7-8 4-2v-2h-18v-1l14-1h9z" fill="#F8B091"/>
<path transform="translate(118,905)" d="m0 0h5l1 1 13 1 7 1 2-2v6l2 3 19 2-1 13-1 3-5-1h-14l-2 2h-7l-10-2-8-2h-11l-2 3-5-1-3-1 3 5 2 2-1 4-3 2-4-11-1-6v-9l1-1 1-8 4-2 3 1 13-2z" fill="#ECF1FC"/>
<path transform="translate(611,645)" d="m0 0h7l10 4 6 7 2 5v14l-4 8-5 5-9 3h-7l-10-4-6-7-2-8v-8l3-9 6-7z" fill="#F9F7FA"/>
<path transform="translate(705,646)" d="m0 0h21l9 3 7 8 2 5v12l-4 8-7 6-7 2h-21z" fill="#81239E"/>
<path transform="translate(549,646)" d="m0 0h21l9 3 7 8 2 5v12l-4 8-7 6-7 2h-21z" fill="#81239E"/>
<path transform="translate(281,646)" d="m0 0h21l9 3 7 8 2 5v12l-4 8-7 6-7 2h-21z" fill="#81239E"/>
<path transform="translate(243,815)" d="m0 0h1v10h19l10 1v-11h1l2 12 11 7 7 7-2 4h-2l-2 6-2 2-22 2-13 3-10 5-2 5h-2v-23l-1-9 5-5 1-5z" fill="#DDEBFA"/>
<path transform="translate(857,850)" d="m0 0 4 1 4 9 1 5v20l-4 3h-5l-6-5-1 3-6 1-4-1-16-2-29-1-23-1-2-1 1 6 3 1 3 8 21 21-2 1-8-7-12-12-6-5-2-3-5-1-1-7 1-3 4-1 18-1 5-2 17-2 6-2 5-4 21-10 4-2 4 1 5 8 2 17h5l3-10-1-11z" fill="#362D90"/>
<path transform="translate(343,814)" d="m0 0h11v127h-4l-2-1-1 6 3 1-2 2h-6z" fill="#6981FF"/>
<path transform="translate(768,485)" d="m0 0h7l9 3 6 5 4 7v22h-43v-20l3-7 4-5z" fill="#A848DB"/>
<path transform="translate(647,564)" d="m0 0h59l-7 14-6 11-3 1v2l-8 4h-12l-10-6-6-10-6-12z" fill="#A3B5E3"/>
<path transform="translate(710,485)" d="m0 0 10 1 8 6 3 3 2 5v14l-3 5-47-1 1-5 7-14h2l1-4 6-7 4-2z" fill="#A849DB"/>
<path transform="translate(638,485)" d="m0 0 9 1 7 4 6 7 8 16 1 5-47 1-3-7v-12l4-7 6-5z" fill="#A849DB"/>
<path transform="translate(794,545)" d="m0 0h1v28l-2 10-4 7-10 6h-12l-8-4-5-5-3-8v-15h43z" fill="#A3B5E3"/>
<path transform="translate(791,646)" d="m0 0h24l7 3 4 5 1 3v7l-3 7-4 3-5 2h-17v14h-7z" fill="#81259E"/>
<path transform="translate(189,376)" d="m0 0h1l-1 35-13 5-10 2-11-2v-20l29-17z" fill="#7A1292"/>
<path transform="translate(751,522)" d="m0 0h43v20h-43z" fill="#A76BDD"/>
<path transform="translate(116,974)" d="m0 0 3 1-5 4-4 2-1 2h-2l2 5 7 5 16 5 24 4 27 3 32 2 53 1 50-2 31-3 20-3 7-1 1-1 18-3 16-6 6-3 3-6h14l-2 5-7 5-11 3-21 6-37 6-29 3-39 2h-53l-44-2-32-3-25-4-18-4-10-4-5-3-1-7 6-6z" fill="#CEC1D1"/>
<path transform="translate(643,646)" d="m0 0h6l9 11 14 19 1 1 1-31h6v44h-6l-10-13-13-17-1 30h-7z" fill="#7F1E9B"/>
<path transform="translate(256,957)" d="m0 0h1l3 21v6l12 1v1l-15 1-5 1-26 2-3 1h-14l-5-4-13-3-18-2-7-8v-2h-2l-1-5 1 2h2l1 2 27 4 5 5 3 2 13 2 1-2h2l2-5 3-7h1l-1 7-2 5h2v-2h9l17-2 7-3z" fill="#BABBCF"/>
<path transform="translate(944,430)" d="m0 0v3l-2 7h-2l-2 14h-2l1 21v327l-1 26h-1v-387l4-7z" fill="#FDFDFD"/>
<path transform="translate(750,646)" d="m0 0h33v6h-26v14h24v6h-24v12h27v6h-34z" fill="#8227A0"/>
<path transform="translate(815,771)" d="m0 0h2l-1 6-8 4-36 14-4 1 3 6 1 4-8 1v2l-3-1-2-6-7 1-34 13-7 3h-3l-1-7 1-2h7l27-10 69-27z" fill="#6562AE"/>
<path transform="translate(821,120)" d="m0 0 2 1v105l-9-5-1-2v-20l1-25 1-16 3-17 1-2 1-18z" fill="#FF8953"/>
<path transform="translate(160,859)" d="m0 0 1 2 9 1 6 3-1 11-2 12-2 2-9-1-10-5-7-6-8-1 3-7 4-4 8-3z" fill="#F8F2FB"/>
<path transform="translate(712,652)" d="m0 0h17l5 4 3 5v14l-5 7-3 2h-17z" fill="#FBFBFC"/>
<path transform="translate(556,652)" d="m0 0h17l5 4 3 5v14l-5 7-3 2h-17z" fill="#FBFBFC"/>
<path transform="translate(288,652)" d="m0 0h17l5 4 3 5v14l-5 7-3 2h-17z" fill="#FBFBFC"/>
<path transform="translate(901,377)" d="m0 0 5 2 29 17v17l-1 1h-8l-13-5-6-5-3-7-2-13z" fill="#7A1292"/>
<path transform="translate(385,646)" d="m0 0h7v20h24v-20h6v44h-6v-18h-24v18h-7z" fill="#80219D"/>
<path transform="translate(819,121)" d="m0 0 2 3-1 15-2 6-3 23v14l-1 17v20l-2 1-17-10-28-17-4-4 8 1 16 8 9 2 7-1 1-3h2l-1-3 5-2 1-11-1-7 1-2 2-19 3-12z" fill="#FF9F73"/>
<path transform="translate(234,838)" d="m0 0h2l2 7v19l-2 10-4 35-1 1h-34v-1l21-1 1-1 1-10 5-26 4-12 4-13z" fill="#FDD5CE"/>
<path transform="translate(611,645)" d="m0 0h7l10 4 6 7 2 5v14l-4 8-5 5-9 3h-7l-10-4-6-7-2-8v-8l3-9 6-7zm-3 6-2 1v2l-4 2-3 6v12l5 8 4 3h13l5-4 4-7v-12l-4-7-5-4z" fill="#7D1896"/>
<path transform="translate(243,815)" d="m0 0h1v10h19l10 1v-11h1l2 12 7 4-3 3-23 7-9 7-7 4-4-1-1-15 5-5 1-5z" fill="#EAF0FB"/>
<path transform="translate(767,907)" d="m0 0 4 2 14 14 13 9 11 7-4 2-12 2h-61l-1-4 3 1h17l24-1 2 1v-7l-4-10-2-7-4-1 3-3h-2z" fill="#A7B1DF"/>
<path transform="translate(861,827)" d="m0 0h21v2l-8 7-4 5-8 3h-3v2l-7 3-5 1v2l-5 1 3-6-2-8-10-1-1-6 3-2z" fill="#615DAC"/>
<path transform="translate(896,823)" d="m0 0h4l-1 13-4 18-2 3-3-9-3-5v-2h-2l3 10 2 11-1 9-5 9-3-2-2-18-1-6 1-12 1-3-5-1 1-3 12-3-2-4 5-3z" fill="#FF9D71"/>
<path transform="translate(488,646)" d="m0 0h7l1 33 5 5h12l5-6 1-32h6v32l-5 9-6 3-4 1h-9l-7-4-4-5-2-4z" fill="#80209B"/>
<path transform="translate(839,848)" d="m0 0 3 1-2 4-4 2h11l-1 2-6 1-16 8-9 5-1 2-14 3-13 2-2 1-22 1v10h5l7 8 2 4 3 3 2 5-4-1 8 8 6 5-2 1-8-7-11-11-8-11-3-9-2-1-1 2v-8h26v-2l5-3 9-3 7-4 13-2 1-4 8-1 6-5 5-4h2z" fill="#8776B6"/>
<path transform="translate(812,836)" d="m0 0h2l1 6-2 2 1 5 3 9v4l-9 2-12 1-5-10-5-13 8-3 5-2h8l1 7 3-3z" fill="#615EAD"/>
<path transform="translate(776,844)" d="m0 0 3 1 7 16 1 5h-28l-8-2-4-3 1-4 5-3h2v-2l18-7z" fill="#393092"/>
<path transform="translate(771,883)" d="m0 0 9 1 16 3 5 2 3 5 1 9v10l-4 1-12-7v-2l-4-2-8-9-2-1v-3l-2-1z" fill="#8578B5"/>
<path transform="translate(359,645)" d="m0 0h13l6 3-1 6-6-2h-13l-7 6-2 5v11l4 6 5 4h15l6-3 1 6-2 2-6 2h-11l-11-4-6-7-2-8v-11l5-8 5-5z" fill="#7E1B98"/>
<path transform="translate(441,646)" d="m0 0h6l5 11 5 14 4 10 2-2 13-33h7l-4 12-4 8-9 23-1 1h-7l-9-22-5-12z" fill="#7C1595"/>
<path transform="translate(154,397)" d="m0 0h1v31l-5-3-9-6-11-5-11-2-7-3v-1l16-1 15-4z" fill="#D9D9D8"/>
<path transform="translate(751,775)" d="m0 0 3 1-4 3-2 5-8 6-10 4-12 5-5 3h-2l1 9-5-1-3-8 1-4 1-5 32-13z" fill="#FF9F74"/>
<path transform="translate(824,813)" d="m0 0 7 1 12 10 1 6-13 2-13 4v-2l4-1-9-3-5-8 3-3z" fill="#D6D5D5"/>
<path transform="translate(562,433)" d="m0 0h35l-2 9-7 6-5 2h-8l-9-5-4-8z" fill="#FDFCFB"/>
<path transform="translate(493,433)" d="m0 0h34v6l-4 6-6 4-3 1h-8l-8-4-5-8z" fill="#FDFCFB"/>
<path transform="translate(116,974)" d="m0 0 3 1-5 4-4 2-1 2h-2l2 5 7 5 16 5 24 4 27 3 32 2 51 1 2 2h-33l-44-2-32-3-25-4-18-4-10-4-5-3-1-7 6-6z" fill="#CEC1D1"/>
<path transform="translate(798,652)" d="m0 0h18l5 5v8l-4 4-3 1h-16z" fill="#FBFBFB"/>
<path transform="translate(343,815)" d="m0 0h2l1 80 2 41v7l-1 3 3 1-2 2h-6z" fill="#5E5EFC"/>
<path transform="translate(868,357)" d="m0 0 5 2 27 16v24l-5-5-3-5v-2h-2l-4-7v-2h-2l-4-6-7-8v-2h-2v-2h-2z" fill="#D7D5D5"/>
<path transform="translate(217,359)" d="m0 0v3l-2 5h-2l-2 5-3 4h-2l-2 5-7 11h-2l-2 5-3 1v-22l9-6z" fill="#CDC0D0"/>
<path transform="translate(203,912)" d="m0 0h8l-2 11-1 22-1 13-1 1h-6l-2-2 1-12 2-21v-11z" fill="#CEC1D1"/>
<path transform="translate(855,848)" d="m0 0 4 2v3l4 13-1 10-3 6h-5l-2-7-1-10-4-7v-3h-2l2-5z" fill="#FBAF8E"/>
<path transform="translate(263,807)" d="m0 0h1v6l8 1 1 1v11l-29-1v-10l1-1h13l3-1z" fill="#6A81FD"/>
<path transform="translate(142,867)" d="m0 0 2 1-4 3-2 5 9 2 8 7 10 4h6l1 5-2 6-5-1-4-4-9-4-7-7-6-1-6 2 1-7-4-2 6-7z" fill="#FCFCFC"/>
<path transform="translate(163,967)" d="m0 0 1 2h2l1 2 27 4 5 5 3 2 13 2 2-1-2 4-2 1-9-1-13-3-18-2-7-8v-2h-2z" fill="#A78DDD"/>
<path transform="translate(843,856)" d="m0 0 4 1v11l-33 7-19 3h-8l3-2 17-2 6-2 5-4 21-10z" fill="#5F5CAD"/>
<path transform="translate(868,843)" d="m0 0 6 2-2 2 3 8 1 6v16l-3 7-4 1-2-2-3-26h3l3-9z" fill="#FF9F73"/>
<path transform="translate(896,823)" d="m0 0h4l-1 13-4 18-2 3-3-9-4-8-3-3 1-1-4 1v1h-5l1-3 12-3-2-4 5-3z" fill="#FDA076"/>
<path transform="translate(293,940)" d="m0 0h7l5 5v10l-4 5-7 1-5-3-2-4v-7l4-6z" fill="#A3B5E3"/>
<path transform="translate(287,907)" d="m0 0h10l2 1v3l-17 3-10 6-6 7-4 9-2 8v11l3 13 2 7-2 4-2-1-3-17-1-5v-15l4-13 6-9 9-8z" fill="#362D90"/>
<path transform="translate(618,974)" d="m0 0h13l44 2v1l-35 2-8 1h-17l-10-1-27-1-11-1v-1z" fill="#E6C7FD"/>
<path transform="translate(800,823)" d="m0 0h6l4 5v4l4-1 4 2 1 2 9-3h3l1 9-11 2-5-6-2 1v-2h-2v5l-4 4-1-1v-7l-4 1v-2h5v-2l-9-1-2-2v-5z" fill="#C3B6C9"/>
<path transform="translate(926,871)" d="m0 0 1 3-8 20-9 16-12 16-11 12-12 11-16 11-19 10-17 6h-5l2-2 13-4 21-10 12-8 14-11 14-14 12-16 10-17 8-18z" fill="#F4F2F5"/>
<path transform="translate(352,815)" d="m0 0h1l1 91v35h-4l-1-3 1-3 1-108z" fill="#5E5FFD"/>
<path transform="translate(296,765)" d="m0 0h15l14 7 8 7 7 11 3 7 2 8v9h-2l-4-16-3-7-3-6v-2h-2l-5-6-7-5-13-4h-8l-10 3-6 4-6 5-1 3h-2v3l-3 1 2-5 9-10 12-6z" fill="#AF9DD9"/>
<path transform="translate(328,646)" d="m0 0h6v44h-6z" fill="#7A1292"/>
<path transform="translate(408,961)" d="m0 0 3 4 4 7v5l-3 3-2-1 1-1-83 3-2-7v-2h2l1 6 3-1h13l47-2h19l1-3-4-8z" fill="#675EF8"/>
<path transform="translate(768,806)" d="m0 0h2l8 18 6 13v3l3 1 3 9 4 10-1 5-2-1-3-10-4-9-7-16-5-8-5-3-4-9 1-2z" fill="#D0CFD2"/>
<path transform="translate(96,954)" d="m0 0 2 3 4 8 1 3 3-1-5-5v-3l7 1 3 3 9 3v5l4 1 2 3h-8l-8-3h-7l-4-5-3-6z" fill="#EBF0FB"/>
<path transform="translate(293,904)" d="m0 0h11l-3 9h-1v-5h-13l-11 4-10 9-6 12-2 8v15l3 19v5l4 1 6 3v1h-12l-1-16-2-12v-18l4-12 6-9 7-7 9-5z" fill="#706CAE"/>
<path transform="translate(342,822)" d="m0 0h1v123l-1 4h-14l-1-1v-5h15l-1-12z" fill="#A4AEE2"/>
<path transform="translate(256,987)" d="m0 0h20l10 2-1 2-20 2h-21l-15-1v-1l8-1v-1l16-1z" fill="#362D90"/>
<path transform="translate(857,850)" d="m0 0 4 1 4 9 1 5v20l-4 3h-5l-4-4-2-6-2-16 3 3 2 17h5l3-10-1-11z" fill="#4D449A"/>
<path transform="translate(116,974)" d="m0 0 3 1-5 4-4 2-1 2h-2l2 5 7 5 18 6v1l-10-1-17-5-6-4-1-7 6-6z" fill="#CDC0D0"/>
<path transform="translate(815,836)" d="m0 0 5 4 1 3 1 1h5l-4 4-3 1-1 2 10 2v2l-3 3 2 1-5 2h-5l-2-3-3-9-1-5 2-2z" fill="#BEC1D4"/>
<path transform="translate(273,918)" d="m0 0 2 1-7 8-4 8-2 7v14l3 12 5 9 6 5 5 3-4 1-9-2-7-4v-2h2l1-5-4-13-1-5v-11l4-13 6-9z" fill="#5F5CAD"/>
<path transform="translate(738,780)" d="m0 0 3 1-14 7-1 2-10 5-5 4v8l1 4-5-1-3-8 1-4 1-5z" fill="#FFB08D"/>
<path transform="translate(759,850)" d="m0 0 4 1-2 2 2 7v2l-2 1 2 1h24v2h-28l-8-2-4-3 1-4 5-3h2v-2z" fill="#6461AE"/>
<path transform="translate(761,886)" d="m0 0 2 4h5l7 8 2 4 3 3 2 5-4-1 8 8 6 5-2 1-8-7-11-11-8-11-2-4z" fill="#A283D8"/>
<path transform="translate(854,852)" d="m0 0h2l3 6h2l2 8-1 10-3 6h-5v-9l1-7v-9z" fill="#FE9F73"/>
<path transform="translate(229,941)" d="m0 0h1l2 13 9 5v3l-8 3h-4l-2 6-1 2h2v2l-5 4 1-7 2-9z" fill="#DFEBFA"/>
<path transform="translate(206,366)" d="m0 0 1 3-2 4h-2v3h-2l-2 5-8 9h-1v-14l9-6z" fill="#BDBDCD"/>
<path transform="translate(775,917)" d="m0 0 4 2 10 7 7 5 5 5 1 2-9-2-12-4-3-6-1-5z" fill="#8784B4"/>
<path transform="translate(778,936)" d="m0 0h2l2 4v3h-50l-1-4 3 1h17l24-1 2 1z" fill="#D9D9D9"/>
<path transform="translate(935,397)" d="m0 0 15 7 3 2-4 3-11 4h-3z" fill="#CEC1D1"/>
<path transform="translate(790,847)" d="m0 0 6 6 7 2 4 1v2l7 1 1-2 1 3-14 3h-6l-3-3-2-5z" fill="#393192"/>
<path transform="translate(294,901)" d="m0 0h10l1 5-2 1v-2h-10l-11 2-10 6-7 7-6 12-2 7h-1l1-9 8-14 7-7 11-6z" fill="#A4B5E2"/>
<path transform="translate(807,865)" d="m0 0 3 1-6 4-7 2-2 4-5 1-5 2-22 1v8l-5-4-1 2v-8h26v-2l5-3 9-3 7-4z" fill="#A77FDC"/>
<path transform="translate(543,169)" d="m0 0 11 1-1 2-16 3-22 8-3-1 19-10z" fill="#CFC1D0"/>
<path transform="translate(299,757)" d="m0 0h11v1l-20 4-13 7-6 5-4-1 6-7 9-5z" fill="#CEC1D1"/>
<path transform="translate(926,871)" d="m0 0 1 3-8 20-9 16-12 16-4 2 3-5 11-15 10-18 6-14z" fill="#F5F4F6"/>
<path transform="translate(814,763)" d="m0 0 4 2v5l-12 6-13 5h-5l3-3 9-4 10-5 3-2z" fill="#FF7E44"/>
<path transform="translate(771,883)" d="m0 0 9 1-2 2 5 2 3 6v5l-5-1-6-5v-3l-2-1z" fill="#A57EDB"/>
<path transform="translate(828,832)" d="m0 0h3l1 9-11 2-5-6v-2l9-2z" fill="#FFA379"/>
<path transform="translate(231,909)" d="m0 0h1v8l-4 32h-1v-14l2-16 1-7-26-1v-1z" fill="#B6B8D5"/>
<path transform="translate(775,111)" d="m0 0h8l3 4-3 1h-23v-3l3-1z" fill="#FEE1DE"/>
<path transform="translate(892,823)" d="m0 0 4 1-9 4 2 5-10 2-4-1 5-5h2v-2h-18v-1l14-1h9z" fill="#F5D3CD"/>
<path transform="translate(871,846)" d="m0 0h4l5 14v11l-2 7h-1l-1-14-4-15z" fill="#463D98"/>
<path transform="translate(164,967)" d="m0 0 23 3 5 2 1 3-21-2-6-2v-2h-2z" fill="#CDC0D1"/>
<path transform="translate(122,901)" d="m0 0 4 1 2 2 14 2 3-3 3 1 1 4-3 2-1-2-1 1-7-1-13-1-1-1-7-1 4-3z" fill="#FDFDFD"/>
<path transform="translate(822,190)" d="m0 0h1v36l-5-3 3-23z" fill="#FF7537"/>
<path transform="translate(884,840)" d="m0 0 3 1 6 11 1 6-3 8-2-4-3-14-2-5z" fill="#4E419A"/>
<path transform="translate(800,823)" d="m0 0h6l2 5-1 4-2 1h-6l-2-2v-5z" fill="#F8D0C4"/>
<path transform="translate(739,798)" d="m0 0m-3 1h3l-2 4-22 8-3-1 2-3z" fill="#FF7A3E"/>
<path transform="translate(293,904)" d="m0 0h11l-3 9h-1v-5h-13l-11 4-4 1 4-4 10-4z" fill="#7571AF"/>
<path transform="translate(296,765)" d="m0 0 9 1 1 2h-8l-10 3-6 4-6 5-1 3h-2v3l-3 1 2-5 9-10 12-6z" fill="#B3A7D9"/>
<path transform="translate(327,943)" d="m0 0h14v5l-1 1h-12l-1-1z" fill="#C304D0"/>
<path transform="translate(843,922)" d="m0 0 2 1-10 6-12 6-9 3v-2l-2-1 1-2 9-1 6-4 10-3z" fill="#817DB0"/>
<path transform="translate(874,892)" d="m0 0v3l-8 10-10 10-5 4-2-1 6-7h2l2-4h2v-2l3-3h2l2-4z" fill="#827EB1"/>
<path transform="translate(618,974)" d="m0 0h13l6 1v2l-8 1h-11l-10-2v-1z" fill="#EFDCFD"/>
<path transform="translate(175,982)" d="m0 0h10l17 3 3 3-14-1-14-3z" fill="#9D93B2"/>
<path transform="translate(768,485)" d="m0 0h7l7 2 1 2-3 1h-15l-2-1v-2z" fill="#BF16D1"/>
<path transform="translate(154,397)" d="m0 0h1v11l-7-1-5-3 4-3z" fill="#CCC0D0"/>
<path transform="translate(272,985)" d="m0 0 9 1 4 1 14 1-3 3h-8v-2h-8l-4-1-19-1v-1z" fill="#7470AF"/>
<path transform="translate(779,905)" d="m0 0 7 6 6 7v2h2v2l-4-1-12-11v-3l2 1z" fill="#8677B6"/>
<path transform="translate(322,970)" d="m0 0h2l1 10 1 2h-9l-2-3h2l2-5z" fill="#362D90"/>
<path transform="translate(759,796)" d="m0 0h5l3 10-3 1v2l-3-1-4-10z" fill="#3C3393"/>
<path transform="translate(783,877)" d="m0 0 2 2-22 1v8l-5-4-1 2v-8z" fill="#7878BA"/>
<path transform="translate(726,806)" d="m0 0 4 2-16 7h-2v2h-2l-1-6 12-3z" fill="#412F93"/>
<path transform="translate(1016,391)" d="m0 0v3l-9 8-13 6-5 1v-3l14-5 11-8z" fill="#FBF7F6"/>
<path transform="translate(847,851)" d="m0 0 4 1 2 10v12h-1l-1-9-4-7v-3h-2z" fill="#F7CFC7"/>
<path transform="translate(206,988)" d="m0 0h30v1l-13 2h-14z" fill="#B6A5B1"/>
<path transform="translate(884,836)" d="m0 0 5 1 6 13-1 7h-1l-3-9-4-8-3-3z" fill="#F8B297"/>
<path transform="translate(874,835)" d="m0 0 2 1-1 2h5v4l-1 12h-2l-2-13 1-1h-4l1-4z" fill="#F8B193"/>
<path transform="translate(705,798)" d="m0 0 1 3-1 2 3 9v7l3 1h-4l-4-12v-2h-2l1-7z" fill="#CAC9E4"/>
<path transform="translate(244,825)" d="m0 0h19l10 1-3 2h-11l-13-1z" fill="#BBC5F0"/>
<path transform="translate(815,836)" d="m0 0 5 4 1 3-5 5h-4l1-5z" fill="#E1D4D8"/>
<path transform="translate(292,756)" d="m0 0h20l4 2h-17l-17 4-3-1 9-2v-2z" fill="#F4F2FC"/>
<path transform="translate(96,954)" d="m0 0 2 3 4 8 1 3 6 2-3 2-4-1-5-7-1-3z" fill="#FAFAFA"/>
<path transform="translate(470,980)" d="m0 0h9v2l2 1h-8l-1 5-6 1z" fill="#FDFDFD"/>
<path transform="translate(329,693)" d="m0 0 5 1 1 5-2 2-5-1-1-5z" fill="#82249D"/>
<path transform="translate(341,937)" d="m0 0h1v6h-16l1-4 14 1z" fill="#DEDEDF"/>
<path transform="translate(269,815)" d="m0 0h4v10h-7v-2h2z" fill="#5F64FD"/>
<path transform="translate(228,943)" d="m0 0h1v8l-3 19-2 2 1-16 1-8h1z" fill="#CDCEF3"/>
<path transform="translate(765,693)" d="m0 0 5 1 1 5-2 2-5-1v-6z" fill="#7D1B98"/>
<path transform="translate(613,693)" d="m0 0 4 1 1 5-2 2-5-1v-6z" fill="#7C1996"/>
<path transform="translate(95,928)" d="m0 0 3 4 5 6-1 4-3 2-4-11z" fill="#FDFDFD"/>
<path transform="translate(792,923)" d="m0 0 4 2 18 11v2l-4 1v-2l-18-12z" fill="#C5C8D6"/>
<path transform="translate(831,831)" d="m0 0 2 1v6h8l2 2-9 3-4-1 1-1z" fill="#8883B1"/>
<path transform="translate(765,788)" d="m0 0m-3 1 3 1-5 4-5 2-9 1 1-2z" fill="#FF7D43"/>
<path transform="translate(506,693)" d="m0 0 5 1v6l-5 1-2-5z" fill="#7E1A9A"/>
<path transform="translate(785,780)" d="m0 0h2l-1 4-8 3-10 1 4-3 12-4z" fill="#FF8047"/>
<path transform="translate(894,928)" d="m0 0v3l-13 13-2-1 9-10z" fill="#F0EFF1"/>
<path transform="translate(816,859)" d="m0 0 1 3-9 2-12 1v-3l13-1z" fill="#6966AE"/>
<path transform="translate(761,886)" d="m0 0 2 2v3l5 1 1 3h-3l5 6-1 2-6-7-3-6z" fill="#ACB0D5"/>
<path transform="translate(803,824)" d="m0 0 4 1 1 6-5 1-1-4z" fill="#FFA47A"/>
<path transform="translate(260,978)" d="m0 0 1 2 4 1 6 3v1h-12z" fill="#827EB1"/>
<path transform="translate(294,904)" d="m0 0h10l-3 9h-1v-5h-3v-2l-4-1z" fill="#8884B5"/>
<path transform="translate(871,839)" d="m0 0h6l-1 5 1 5h-2l-1-3-5-5z" fill="#FCD4CD"/>
<path transform="translate(935,397)" d="m0 0 8 4v2l-8 2z" fill="#BDBDCD"/>
<path transform="translate(127,884)" d="m0 0h1l-1 7-12 1 3-3 8-3z" fill="#FDFDFD"/>
<path transform="translate(300,765)" d="m0 0h11l8 4-2 1-17-4z" fill="#AC96DA"/>
<path transform="translate(880,941)" d="m0 0m-1 1m-1 1v3l-11 9-2-1 5-5z" fill="#F3F1F4"/>
<path transform="translate(905,914)" d="m0 0v3l-8 10h-3l9-12z" fill="#F4F1F4"/>
<path transform="translate(774,907)" d="m0 0 4 2 8 8 6 5-2 1-8-7-8-8z" fill="#BDC3D8"/>
<path transform="translate(251,827)" d="m0 0 18 1-1 2-4 1-11-2z" fill="#DDEBFA"/>
<path transform="translate(196,978)" d="m0 0 6 2 2 1 10 1 2 2-3 1-13-3z" fill="#CEC1D1"/>
<path transform="translate(294,937)" d="m0 0h6l5 5h-3l-2-1-9-1z" fill="#6267C6"/>
<path transform="translate(701,152)" d="m0 0h5l5 3 5 6-5-2-10-6z" fill="#FBF4F2"/>
<path transform="translate(323,965)" d="m0 0 2 2-1 4h-2l-5 8-4 1 6-8z" fill="#5F5CAD"/>
<path transform="translate(828,832)" d="m0 0h3l1 8h-3-3l1-6z" fill="#FFAA84"/>
<path transform="translate(284,987)" d="m0 0 15 1-3 3h-8v-2h-4z" fill="#827EB1"/>
<path transform="translate(767,907)" d="m0 0 4 2 5 6-4-1-1 2-4-1 3-3h-2z" fill="#C5C8DA"/>
<path transform="translate(342,802)" d="m0 0h2l1 3v9h-2l-2-9z" fill="#B096DF"/>
<path transform="translate(859,845)" d="m0 0 3 1 1 5h-3l-5-2-3-1z" fill="#F2CFCC"/>
<path transform="translate(873,825)" d="m0 0h10l2 3-3 1v-2h-18v-1z" fill="#B3BAD4"/>
<path transform="translate(865,953)" d="m0 0m-2 1h2l-1 3-10 6h-2v-2z" fill="#F5F4F6"/>
<path transform="translate(857,850)" d="m0 0 4 1 3 6v2h-2l-1 2z" fill="#51449C"/>
<path transform="translate(842,850)" d="m0 0 2 2 2 1-1 2-9 1-1-2 6-3z" fill="#B6A5B1"/>
<path transform="translate(800,774)" d="m0 0m-1 1v3l-6 3h-5l3-3z" fill="#FF7D42"/>
<path transform="translate(807,865)" d="m0 0 3 1-6 4-7 2 4-5z" fill="#A784DD"/>
<path transform="translate(749,796)" d="m0 0 3 1-12 5-2-1 4-4z" fill="#FF8852"/>
<path transform="translate(252,812)" d="m0 0h9l-2 3-13-1v-1z" fill="#A3B5E3"/>
<path transform="translate(811,833)" d="m0 0h1v8l-4 4 1-11z" fill="#F3AD91"/>
</svg>
