<?xml version="1.0" encoding="UTF-8"?>
<svg version="1.1" viewBox="0 0 2048 784" width="1280" height="1280" xmlns="http://www.w3.org/2000/svg">
<path transform="translate(403,28)" d="m0 0h292l14 2 13 5 11 6 11 9 9 10 8 14 4 10 3 14v19l-3 15-5 12-8 13-9 10-10 8-16 8-14 4-11 1-288 1-18 2-25 6-21 8-19 10-16 11-10 8-10 9-7 7-11 14-7 10-10 17-9 21-6 19-4 20-1 11v31l3 22 6 22 8 20 10 19 11 16 13 15 10 10 14 11 13 9 18 10 20 8 20 6 18 3 11 1h26l23-3 23-6 20-8 19-10 12-8 16-13 18-18 12-16 11-19 3-6h-107l-13-2-13-5-11-6-10-9-9-10-8-15-4-14-1-8v-11l3-16 4-10 6-11 10-12 10-8 16-8 11-3 6-1h221l16 3 12 5 11 7 11 10 9 13 5 11 4 16v24l-3 27-4 24-7 28-10 29-13 29-11 20-12 19-14 19-11 13-11 12-20 20-11 9-15 12-18 12-20 12-21 11-27 11-28 9-27 6-26 4-20 2h-45l-33-4-25-5-27-8-25-9-24-11-23-13-21-14-13-10-11-9-12-11-8-7-8-8-7-8-12-14-12-16-10-15-11-19-11-21-11-27-8-25-6-25-5-32-2-25v-27l2-24 5-32 7-28 10-30 13-29 11-20 14-22 13-17 8-10 22-24 13-12 13-11 16-12 21-14 25-14 24-11 28-10 31-8 31-5z" fill="#FD7B3C"/>
<path transform="translate(903,316)" d="m0 0h22l14 3 12 5 10 6 13 11 9 12 8 16 4 15 1 130 3 14 7 14 5 6 11 8 11 5 8 2h19l12-4 11-6 8-7 9-14 3-9 1-7 1-129 4-17 8-16 8-11 10-10 14-9 15-6 11-2h22l14 3 16 7 11 8 8 7 9 12 8 16 4 16v143l-2 17-5 22-8 24-8 18-10 17-12 17-12 14-15 15-14 11-14 10-18 10-17 8-24 8-24 5-15 2h-41l-24-4-19-5-21-8-19-9-16-10-16-12-12-11-16-16-13-17-10-15-8-15-10-25-5-17-4-20-2-21v-133l3-15 7-16 10-14 9-9 10-7 14-7z" fill="#FD7B3D"/>
<path transform="translate(1394,309)" d="m0 0h19l15 3 16 7 14 10 9 9 7 10 14 26 36 68 13 23 12-22 14-26 12-22 8-16 14-26 7-11 9-10 9-8 14-8 10-4 15-3h19l15 3 16 7 13 9 11 11 9 14 5 11 4 17v20l-3 15-5 12-8 16-18 34-15 28-12 23-12 22-12 23-12 22-12 23-12 22-16 31-10 18-7 9-9 9-14 9-15 6-13 3h-24l-15-4-16-8-12-9-7-7-7-10-13-24-36-68-15-28-18-34-15-28-12-23-12-22-12-23-8-16-4-13-1-6v-23l4-16 8-17 12-15 14-11 17-8 11-3z" fill="#9E68DF"/>
<path transform="translate(1885,309)" d="m0 0h19l15 3 13 5 14 9 10 9 8 9 9 16 4 12 2 12v263l-3 17-5 15-7 12-11 12-9 8-12 7-17 6-10 2h-23l-16-4-16-8-11-8-8-8-10-14-5-11-4-13-2-14-1-58v-193l3-21 5-15 7-13 9-11 11-10 13-8 13-5z" fill="#9E68DF"/>
<path transform="translate(912,27)" d="m0 0h21l18 4 14 6 12 8 12 11 8 10 9 17 5 17 1 7v19l-3 16-6 15-7 12-11 13-14 11-19 9-16 4-7 1h-14l-17-3-16-6-16-10-15-15-9-14-6-14-4-18v-20l4-18 7-16 8-12 11-12 12-9 16-8 15-4z" fill="#FD7B3C"/>
<path transform="translate(1168,27)" d="m0 0h21l15 3 15 6 10 6 10 8 10 10 9 14 6 13 3 11 1 7v23l-3 15-7 17-8 12-9 10-8 7-13 8-15 6-12 3-8 1h-14l-17-3-13-5-13-7-11-9-8-8-7-10-8-16-4-13-2-14v-11l3-17 5-15 9-15 11-13 10-8 13-8 17-6z" fill="#FD7B3C"/>
<path transform="translate(1412,584)" d="m0 0h2l9 16 11 6 2 3 5 2v2l8-4 5 1v2l8 1h16l12-1 16-1 5 1 6-1h9l5-1 1 1 23 2h14l11 4 9 7 5 5 13 6 11 4h8l5-1 5-9 2 1-13 25-12 22-9 16-9 10-9 8-14 8-15 5-9 2h-24l-15-4-16-8-12-9-7-7-7-10-13-24-36-68z" fill="#9DA6F0"/>
<path transform="translate(1978,548)" d="m0 0h1v99l-3 17-5 15-7 12-11 12-9 8-12 7-17 6-10 2h-23l-16-4-16-8-11-8-8-8-10-14-5-11-4-13-2-14-1-58h1l2 17h2v2l3 1 3 6 2 5 17-1 1-1h5l-2 2 3 1v-2l9-2 27-2h25l13 1 16 4 2 3 8 2 12 1 10 4 1-5 2-3 2-8 3-13z" fill="#9DA6F0"/>
<path transform="translate(1114,116)" d="m0 0h123l8 1-1 11-5 16-6 11-9 10-8 7-14 7-15 4h-17l-15-4-16-8-11-10-9-14-6-17-1-5v-8z" fill="#FBFAFC"/>
<path transform="translate(858,116)" d="m0 0h118l12 1v9l-4 15-8 15-11 12-11 7-14 6-9 2h-17l-15-4-16-8-10-9-8-11-5-11-4-14v-9z" fill="#FBFAFC"/>
<path transform="translate(645,782)" d="m0 0h2v2h-2z" fill="#9E68DF"/>
</svg>
