<?xml version="1.0" encoding="UTF-8"?>
<svg version="1.1" viewBox="0 0 1600 1600" width="1280" height="1280" xmlns="http://www.w3.org/2000/svg">
<path transform="translate(582,297)" d="m0 0h439l13 4 8 6 5 7 3 9 1 7 1 172 8 7 11 12 5 6 11 14 1 3h2l7 10 4 6 1 3 5 5 8 13 9 14 10 19 12 23 6 10 3 6 10 14 8 11 7 9 6 5 7 8 2 4 4 2 11 10 6 5 7 4 18 12 32 16 15 7 3 1h7l3-5 7-11 4 2 7 8 5 3 9 2 5-3h2v-7l-3-5-5-10-7-10 1-4 10-9 10-8h2v-2l17-9 15-5h17l12 6 9 10 8 16 5 20 1 23-1 14-3 16-6 17-7 17-5 9-7 11-7 1-3 4h-2v4l5 1-2 5-10 15-7 10-8 11h-2l-1 5-11 18-4 5-5-1h-7l-1 5-4 4 9 3-1 5-5 9h-2l-1 6-7 14 7 4h3l6-11 1-4h2l1-4 3-6 2-2 3-7 13-20 10-13 9-10 3-3 3 1 6 10 7 6 2 1h10l3-5-4-16-5-11v-6l10-6 10-5 7-3 11-4 7-2 11-1h9l7 1 8 4 1 3 4 1 5 5 6 13 3 14v29l-5 22-9 21h-2l-1 5-9 14-10 13-9 11-6 5h-2l-2 4-3 2-3 5-19 19-12 11-3 1-3 5-17 17h-5l-8-4-10-2-6 1-2 1 1 5 12 7 5 2 1 2-7 9-4 1-1 5-9 10-1 2h-2l-2 4h-2l-1 4-4 5h-2l1 15 8 6 4 5 5 8 2 8 1 39 3-3 11-20 10-11 6-3 8-1 9 3 7 6 5 9 2 6 1 16 8-6 5-2 10 1 6 4 6 8 1 3v15l-3 7-1 1-114 1-1 58-4 6-8 6-12 5-21 5-11 2-17 1h-34l-18-1-17-3-17-4-14-6-8-7-2-4v-25l-34-1-22-3-17-4-8-2v33l-3 7-8 6-13 6-21 5-13 2-16 1h-36l-17-1-25-5-15-5-9-5-5-4-2-4-1-14v-35l-294-1h-25l-12-3-8-6-2-2h-90l-6 14-2 4 1 5 21 14h20l9 2 6 4 5 6 2 7v16l-5 3-9 2h-26l-44-6-39-6-3-2v-12l4-27 2-12-6-2 2-14 5-27 6-28 5-23 4-15 5-21 7-25 3-11 3-7 6-18 7-17 1-4-9-19-8-16-8-17-8-15-4 8-6 17-5 11-4 12-5 11-6 15-7 16-6 13-8 18-8 16-8 18-8 15-6 12-7 15-17 34 1 8 9-5 4-1h8l8 4 4 4 3 7v9l-3 8-1 1-51 1-7 12-1 1h-7l-2-1 1 26 1 3 11 8 6 10v11l-1 1-25 1-52-1-3-7-1-10 2-7 3-4 6-28 5-14v-2h-91l-4-5-4-8-1-11 1-3 8-1 5 3 6 5-3-11-1-8-1-21-2-3-2-9-5-8-1-4-8-16-3-8-2-8-3-9-5-23-2-20v-44l-1-12-5-10-7-22-3-19v-24l1-9 5-16 7-14 7-7 10-5 4-1h13l16 4 13 6 12 6 2 4 4 2 9 7v5l-10 17-2 5v6l4 5 7 1 1-4 5-4h7l2-4 4-5 6 2 4 8 6 2 3 9 4 8 6 7 2 8 1 11 8 20 4 5v7l6 22-4 9 1 5 8 4 4 9 4 2 2-9 3-7 13-39 5-12 1-3 1-29 1-13 1-37 1-14 1-31 1-10 2-41-8 3-10 2-19 2-10-2-13-7v-2l-4-1-11-7-13-10-9-8v-2l-4-2v-2h-2l-11-14-9-12-7-12-5-10-5-15-1-6v-10l8-17 8-14 12-24 1-7 8-11 13-19 18-22 9-10 4-5h2l2-4 13-12 11-7 6-2 33-5h8l7 5 4-2 4-7 5-32 2-13v-5l-3-8-4-15-3-5-2-7v-11l4-11 8-12 8-7 14-2 5-3 7-2 10 1 11 3 12 8 7 6 17 3 4 2 2 3v11l-6 12-9 8-1 9-3 10-1 19-12 25-1 5 5 9 15 2 25 2 9 7 10 9 13 12 7 7 11 9 10 9 13 10 12 9 1 3h3v-309l3-12 4-7 8-8 11-4zm-116 382 2 25 3 29 7 52 2 13 8 22 5 15 5 17 8 26 5 17 4 16 4 17 4 16 6 26 4 24 3 15 3 23v11l-5 21-7 25-7 23-7 21-3 7-6 18-2 2 6 3 9 9 7 14 4 16 2 6 2-1 5-10 8-7 6-2 1-33-1-442-4-2-1-7-16-7-13-7h-5l-7 8-5-1-14-8-13-8-3-2zm904 165-2 2 4 4h10l4-3-3-2zm-2 8 1 2 4-1v-1zm-116 2-2 7v99l3-1 2-11 3-27 5-36 2-9 5-8-1-4-2-5-13-5zm-237 222-5 5v2l-15 6-8 1-14-1-7-2-1 1v32l2 1 24-1 21 1h16l2-2v-3h6v-11l-4-1-7-12-4-9v-6l-1-1zm-799 110 4 20 2 1 5-10 3-5h-6l-2-4-3-2z" fill="#D9900D"/>
<path transform="translate(551,329)" d="m0 0h1l1 312 11 6 1-234h472v710h-6l-3-3 2-4h6v-11l-5-1-7-12-4-9v-6l-5-1-2 4-3 1v2l-9 5-12 3-16-1-7-2v33l-26 4-16 5-12 5-4 1v2l-4 1-2 5v47h-337v-471l-7-1-5-3v445h-1l-1-6-1-442-4-4v-5l-5-1-23-11-6-2-2 4-5 5-5-1-14-8-13-8-7-3 2 13 2 24 3 23 4 32 3 18v9l-12 1-58 2h-53l-1-1-13 13-14 9h-2l-2 7-5 5h-3v14h-1v-12l-8 3-10 2-19 2-10-2-13-7v-2l-4-1-11-7-13-10-9-8v-2l-4-2v-2h-2l-11-14-9-12-7-12-5-10-5-15-1-6v-10l8-17 8-14 12-24 1-7 8-11 13-19 18-22 9-10 4-5h2l2-4 13-12 11-7 6-2 33-5h8l7 5 4-2 4-7 5-32 2-13v-5l-3-8-4-15-3-5-2-7v-11l4-11 8-12 8-7 14-2 5-3 7-2 10 1 11 3 12 8 7 6 17 3 4 2 2 3v11l-6 12-9 8-1 9-3 10-1 19-12 25-1 5 5 9 15 2 25 2 9 7 10 9 13 12 7 7 11 9 10 9 13 10 12 9 1 3h3z" fill="#E8E3E0"/>
<path transform="translate(552,715)" d="m0 0 8 4 5 1 1 22v444l-1 5h336l1 25v38l-295 1h-25l-12-3-8-6-2-2h-90l-6 14-2 4 1 5 21 14h20l9 2 6 4 5 6 2 7v16l-5 3-9 2h-26l-44-6-39-6-3-2v-12l4-27 2-12-6-2 2-14 5-27 6-28 5-23 4-15 5-21 7-25 3-11 3-7 6-18 7-17 1-4-9-19-8-16-8-17-8-15-4 8-6 17-5 11-4 12-5 11-6 15-7 16-6 13-8 18-8 16-8 18-8 15-6 12-7 15-17 34 1 8 9-5 4-1h8l8 4 4 4 3 7v9l-3 8-1 1-51 1-7 12-1 1h-7l-2-1 1 26 1 3 11 8 6 10v11l-1 1-25 1-52-1-3-7-1-10 2-7 3-4 6-28 5-14v-2h-91l-4-5-4-8-1-11 1-3 8-1 5 3 6 5-3-11-1-8-1-21-2-3-2-9-5-8-1-4-8-16-3-8-2-8-3-9-5-23-2-20v-44l-1-12-5-10-7-22-3-19v-24l1-9 5-16 7-14 7-7 10-5 4-1h13l16 4 13 6 12 6 2 4 4 2 9 7v5l-10 17-2 5v6l4 5 7 1 1-4 5-4h7l2-4 4-5 6 2 4 8 6 2 3 9 4 8 6 7 2 8 1 11 8 20 4 5v7l6 22-4 9 1 5 8 4 4 9 4 2 2-9 3-7 13-39 5-12 1-3 1-29 1-13 1-37 1-14 1-31 1-10 1-26 1-3 1-14 6-2 4-10 12-7 12-11 4-2 1-3 1 2 53-1 58-2h13l8 22 5 15 5 17 8 26 5 17 4 16 4 17 4 16 6 26 4 24 3 15 3 23v11l-5 21-7 25-7 23-7 21-3 7-6 18-2 2 5 2 10 10 7 14 4 16 2 5 5-10 9-8 6-1v-27h2l-1-7zm-336 471 4 20 2 1 5-10 3-5h-6l-2-4-3-2z" fill="#161924"/>
<path transform="translate(1050,330)" d="m0 0h1l1 172 8 7 11 12 5 6 11 14 1 3h2l7 10 4 6 1 3 5 5 8 13 9 14 10 19 12 23 6 10 3 6 10 14 8 11 7 9 6 5 7 8 2 4 4 2 11 10 6 5 7 4 18 12 32 16 15 7 3 1h7l3-5 7-11 4 2 7 8 5 3 9 2 5-3h2v-7l-3-5-5-10-7-10 1-4 10-9 10-8h2v-2l17-9 15-5h17l12 6 9 10 8 16 5 20 1 23-1 14-3 16-6 17-7 17-5 9-7 11-7 1-3 4h-2v4l5 1-2 5-10 15-7 10-8 11h-2l-1 5-11 18-4 5-5-1h-7l-1 5-4 4 9 3-1 5-5 9h-2l-1 6-7 14 11 6 6 4v2l3 1 2 4v6l-4 6-10 6-16 6-20 4-15 2-16 1h-18l-28-2-22-4-16-5-11-6-5-5-2-3v-4h-26l-23-2-20-4-17-6-9-6-4-4-1 23v127l-1 11-8-1-6-2-1-623zm320 514-2 2 4 4h10l4-3-3-2zm-2 8 1 2 4-1v-1zm-116 2-2 7v99l3-1 2-11 3-27 5-36 2-9 5-8-1-4-2-5-13-5z" fill="#FAD52B"/>
<path transform="translate(387,425)" d="m0 0 10 1 11 3 12 8 7 6 17 3 4 2 2 3v11l-6 12-9 8-1 9-3 10-1 19-12 25-1 5 5 9 15 2 25 2 9 7 10 9 13 12 7 7 11 9 10 9 13 10 12 9-3 10-6 11-10 15-11 14-8 10-4 4-5-1-14-8-13-8-7-3 2 13 2 24 3 23 4 32 3 18v9l-12 1-58 2h-53l-1-1-13 13-14 9h-2l-2 7-5 5h-3v14h-1v-12l-8 3-10 2-19 2-10-2-13-7v-2l-4-1-11-7-13-10-9-8v-2l-4-2v-2h-2l-11-14-9-12-7-12-5-10-5-15-1-6v-10l8-17 8-14 12-24 1-7 8-11 13-19 18-22 9-10 4-5h2l2-4 13-12 11-7 6-2 33-5h8l7 5 4-2 4-7 5-32 2-13v-5l-3-8-4-15-3-5-2-7v-11l4-11 8-12 8-7 14-2 5-3z" fill="#0088C9"/>
<path transform="translate(582,297)" d="m0 0h439l13 4 8 6 5 7 3 9v803l-9-1-4-1v-711h-472v232l-1 2-4-1-8-5v-317l3-10 9-10 6-4z" fill="#161923"/>
<path transform="translate(1066,1124)" d="m0 0 5 5 10 6 11 4 16 4 19 3 23 1h16l2 7 8 7 15 6 16 4 19 3 11 1h38l22-2 21-4 17-6 9-6 5-5 1 46v48l-1 58-4 6-8 6-12 5-21 5-11 2-17 1h-34l-18-1-17-3-17-4-14-6-8-7-2-4v-25l-34-1-22-3-17-4-8-2v33l-3 7-8 6-13 6-21 5-13 2-16 1h-36l-17-1-25-5-15-5-9-5-5-4-2-4-1-14v-35l-262-1v-1h263l-1-38v-25l1-17 4 5 9 6 13 5 16 4 21 3 16 1h23l25-2 22-4 18-6 9-5 4-2 2-9-6 7-9 5-9 4-12 3-26 4-18 1h-29l-25-3-15-3-14-4-13-7-6-7v-18l1 3h2l4 4 14 7 14 4 24 4 12 1h39l22-2 23-5 13-5 10-6 3-4 1-7-4-6-9-6-5-3z" fill="#D88F0D"/>
<path transform="translate(134,892)" d="m0 0h13l16 4 13 6 12 6 2 4 4 2 9 7v5l-10 17-2 5v6l4 5 7 1 1-4 5-4h7l2-4 4-5 6 2 4 8 6 2 3 9 4 8 6 7 2 8 1 11 8 20 4 5v7l6 22-4 9 1 5 8 4 4 9 4 3-12 36-16 51-11 39-7 29-2 7-2 1v-2h-91l-4-5-4-8-1-11 1-3 8-1 5 3 6 5-3-11-1-8-1-21-2-3-2-9-5-8-1-4-8-16-3-8-2-8-3-9-5-23-2-20v-44l-1-12-5-10-7-22-3-19v-24l1-9 5-16 7-14 7-7 10-5zm82 294 4 20 2 1 5-10 3-5h-6l-2-4-3-2z" fill="#FCC4AB"/>
<path transform="translate(1050,330)" d="m0 0h1l1 172 8 7 11 12 5 6 11 14 1 3h2l7 10 4 6 1 3 5 5 8 13 9 14 10 19 12 23 6 10 3 6 10 14 8 11 7 9 6 5 7 8 2 4 4 2 11 10 6 5 7 4 18 12 32 16 15 7 3 1h7l2-1-2 5-4 8-5 14-3 8-2 7h-2v4h-2v7l-6 25-4 14v6l11 7 7 8 1 2v7l-3 1v2h-8l-11-6-1-1-2 2 1-5 4-7-1-4-1-5-11-3-4-1-2 7h-1v-57l-3-8-9-6-12-5-17-5-18-3-14-1h-37l-19 2-22 4-15 5-11 6-5 1-2-4-1-13v-135l1-27 1-7-1-10-4-4-5-3v-2h-3v223l2 7 6 11 3 3 2 15v269l-1 11-8-1-6-2-1-623z" fill="#FCF7EB"/>
<path transform="translate(552,715)" d="m0 0 8 4 5 1 1 22v444l-1 5h336l1 25v38l-295 1h-25l-12-3-8-6-2-2-90-1 2-6 18-43 12-32 5-1 11 11 7 14 4 16 2 5 5-10 9-8 6-1v-27h2l-1-7z" fill="#191B23"/>
<path transform="translate(1380,688)" d="m0 0h17l12 6 9 10 8 16 5 20 1 23-1 14-3 16-6 17-7 17-5 9-7 11-7 1-3 4h-2v4l5 1-2 5-10 15-7 10-8 11h-2l-1 5-11 18-4 5-5-1h-7l-1 5-4 4 9 3-1 5-5 9h-2l-1 4v-2l-32 1-12 1-3 8-5-1-12-13-9-11-5-6 3-26 4-25 3-4 9 6 11 2v-2l2-1v-7l-4-6-7-6-8-5 1-10 2-9 2-6 5-20 1-7h2v-4h2l1-7 3-8 5-14 12-24 3-4 4 2 7 8 5 3 9 2 5-3h2v-7l-3-5-5-10-7-10 1-4 10-9 10-8h2v-2l17-9zm-10 156-2 2 4 4h10l4-3-3-2zm-2 8 1 2 4-1v-1z" fill="#F86656"/>
<path transform="translate(595,875)" d="m0 0 9 1 6 3v2l5 1h13l10-4 6-3h17l8 4 8 3h14l10-4 7-3h14l8 3 8 4h14l6-1v-2l8-4h8l5 4v2l2 1 1 8-5 9-2 5v15l6 11 1 2v16l-4 10-2 3-2 8v7l3 10 3 4 3 13-2 11-3 7-5-2-12-4h-13l-12 3-10-5-4-4-7-2-8-3-8-1h-10l-11 2-13 3-16 5-16 4-14 3h-11v30l105-1 2 1 3 16 1 5h-9l-10-3-4-3-6-2h-11l-11 4-6 3-5 1h-12l-12-6-7-2h-8l-10 4-4 3h-11l-5-5-2-8 1-5 5-7 2-8v-7l-4-10-4-8v-14l3-9 4-8 1-13-3-8-4-8-1-5v-10l3-10 4-8 1-4v-8l-3-7-5-10 2-10 4-4z" fill="#FCF7EB"/>
<path transform="translate(838,554)" d="m0 0h152l1 117 8 3 12 6 7 9 5 12 1 12-3 12-4 8-5 5-7 6-11 4-3 1h-10l-10-2-10-5-10-9-4-9-2-7v-9h-107z" fill="#F75E4E"/>
<path transform="translate(204,659)" d="m0 0 2 4 13 8 17 9 6-2 16-8 17-4 9-1 8-6 3 1 1 5 22 5 17 8 10 8 5 5 9 10v3h2l8 17 3 9 1 7v23l-4 16-5 12-9 14-16 14-10 6h-2l-2 7-5 5h-3v14h-1v-12l-8 3-10 2-19 2-10-2-13-7v-2l-4-1-11-7-13-10-9-8v-2l-4-2v-2h-2l-11-14-9-12-7-12-5-10-5-15-1-6v-10l8-17 8-14 12-24z" fill="#F3B12C"/>
<path transform="translate(1468,854)" d="m0 0h9l7 1 8 4 1 3 4 1 5 5 6 13 3 14v29l-5 22-9 21h-2l-1 5-9 14-10 13-9 11-6 5h-2l-2 4-3 2-3 5-19 19-12 11-3 1-3 5-17 17h-5l-8-4-10-2-6 1-2 1 1 5 12 7 5 2 1 2-7 9-4 1-1 5-9 10-1 2h-2l-2 4h-2l-1 4-3 4-3-1v-142l-3-3-2-1v-2l-5-2-2-4 6-11 1-4h2l1-4 3-6 2-2 3-7 13-20 10-13 9-10 3-3 3 1 6 10 7 6 2 1h10l3-5-4-16-5-11v-6l10-6 10-5 7-3 11-4 7-2z" fill="#FCBEA5"/>
<path transform="translate(606,438)" d="m0 0h388l11 2 5 7v42l-1 2h-2l-1 3-4 2h-402l-6-4-2-4v-41l3-5h2v-2z" fill="#FCF7EB"/>
<path transform="translate(608,552)" d="m0 0 8 1 65 15 46 11 30 7-1 8-21 90-12 51-9-1-115-27-21-5-4-1 1-9 11-47 9-40 6-24 6-27z" fill="#012F4A"/>
<path transform="translate(566,366)" d="m0 0h471v47h-471z" fill="#0089CA"/>
<path transform="translate(838,896)" d="m0 0h152v119h-11l-11 3-11 7-7 10-5 14-42 1h-65z" fill="#02314B"/>
<path transform="translate(1050,503)" d="m0 0h1v623l10 2 4 1v-11l3 1 3 5 9 6 17 6 27 5 18 2h14 3 6l7 10 8 5 17 6 19 4 22 2h40l20-2 20-4 17-6 10-7 3-5 5 2 8 7 6 10 2 8 1 39 3-3 11-20 10-11 6-3 8-1 9 3 7 6 5 9 2 6 1 16 8-6 5-2 10 1 6 4 6 8 1 3v15l-3 7-1 1h-114l-1-6v-45l-1-40-9 8-14 6-21 5-14 2-15 1h-38l-25-3-18-4-16-6-8-6-4-5-1-4h-15l-23-1-19-3-16-4-11-4-10-6-4-4v5l11 6 6 7 1 6-3 6-8 6-11 5-14 4-23 4-14 1h-39l-26-3-21-5-12-5-9-6v-2h-2v15l5 6 13 7 17 5 26 4 11 1h32l23-2 21-4 11-3 11-5 8-6 4-4-1 7-5 5-8 5-13 5-16 4-21 3-17 1h-23l-24-2-18-3-17-5-14-7-5-5-1 13h-1v-46l3-5 4-1v-2l16-7 16-5 17-3 28-2 44 2 12 3 9 2z" fill="#F1C724"/>
<path transform="translate(1066,967)" d="m0 0 7 6 12 6 16 5 16 3 23 2 26 1 3 7 5 5 15 7 20 5 22 3 19 1h18l25-2 18-3 20-6 11-6 5-5 1-2v-6l-1-4 3 3v67l-6 9-9 6-14 5-22 5-17 2h-49l-23-3-20-5-10-4-10-7-3-4v-2h-2l-1-2h-6v2h-2v-2h-6v2h-2l-1-2-21-2-19-3-17-4-16-8-6-5-2-4-1-21v-25z" fill="#D88F0C"/>
<path transform="translate(1052,589)" d="m0 0 4 1 2 3 5 3 3 3 1 15-1 2-1 27v135l1 13 1 4 7-3 11-6 18-5 23-4 13-1h37l14 1 22 4 21 7 9 5 5 4 3 8-1 25-3 5-6 5-10 5-16 5-24 4-11 1h-43l-19-2-20-4-15-5-10-6-5-5-1 13h-1l-2-13-4-3-6-11-1-6z" fill="#F4B22D"/>
<path transform="translate(116,1020)" d="m0 0 3 4 5 9 3 7 8 12h5l3-2 26-5 6 1 2 3-1 5-5 4-14 3-12 2 11 14 1 5h2v2h2v2l4 2 7 9v3h2l9 11 1 4 3 1 6 9 15-3h12l5 3-1 5-2 2-17 6h-2l7 11v2l3 1 6 11 5 8h30l-1 8-10 37-6 26-3 3v-2h-91l-4-5-4-8-1-11 1-3 8-1 5 3 6 5-3-11-1-8-1-21-2-3-2-9-5-8-1-4-8-16-3-8-2-8-3-9-5-23-2-20zm100 166 4 20 2 1 5-10 3-5h-6l-2-4-3-2z" fill="#FCF4E8"/>
<path transform="translate(1050,330)" d="m0 0h1l1 172 8 7 11 12 5 6 1 3h-2l-2-5h-3l-1 6v69l5 8 5 12 4 17 2 16v76l1 17 4 22 4 12v2h3l-1-6v-27l3-16 7-21 7-11 7-6 3-1h7l5 3 4 7 2 13 1 13v24l3 1 2-4 9-5 11-1 7 3 6 4 6 9 2 13 8-3h11l7 4 5 6v2l-11-2-18-3-14-1h-37l-19 2-22 4-15 5-11 6-5 1-2-4-1-13v-135l1-27 1-7-1-10-4-4-5-3v-2h-3v223l2 7 6 11 3 3 2 15v269l-1 11-8-1-6-2-1-623z" fill="#FED7BF"/>
<path transform="translate(551,329)" d="m0 0h1l1 312 11 6v-2h2l1-4 2-3 5-6 3-7 1-2v-14l-2-7v-8l1-7 7-11h2l2-4 3-7 1-4v-9l-2-5-1-10 7-8 8-1 5 2 5 6 4 2v2l11 2h8l8-2h12l7 3 8 5 2 3 12 5h12l10-2h9l10 4 8 6v2l5 2 7 2h10l9-3h6l2 1v2l4 2 2 4v9l-1 2h-2v2l-5 5-1 2h-2l-2 8v12l2 8v11l-4 10-6 7-5 8-1 4-1 13-2 1-1 9-4-1 2 12-5-3v7l2 6-5-3 2 8 1 3-3 7v13l2 6v9l-2 4-5 3h-11v-2h-3l-5-5-1-3-10-3h-9l-8 2h-13l-8-3-4-2-5-5-9-5-5-1h-12l-8 2h-7l-11-3-2-1v-2l-4-2-8-6-6-2h-11l-7 2h-9l-5-3v445h-1l-1-6-1-442-4-4v-5l-5-1-23-11-5-2 4-6 13-17 11-18 6-13 1 2h3zm57 223-4 16-7 30-6 24-8 36-9 39v4l19 5 36 8 56 13 32 8h6l21-89 12-52 1-8-145-34z" fill="#F8F2E5"/>
<path transform="translate(608,896)" d="m0 0h153v76l-5 1-21-9-8-1-11 3-13 9-13 8-11 5-16 4-9 1h-12l-17-3-14-5-3-2z" fill="#00304C"/>
<path transform="translate(387,425)" d="m0 0 10 1 11 3 12 8 7 6 17 3 4 2 2 3v11l-6 12-9 8-1 9-3 10-1 19-12 25-1 5 5 9 15 2v1l-14-1-2 6-6 8-10 6-13 4-14 1-16-3-17-8-9-7 3-1 5-5 2-4 5-32 2-13v-5l-3-8-4-15-3-5-2-7v-11l4-11 8-12 8-7 14-2 5-3z" fill="#FA9E7D"/>
<path transform="translate(1256,932)" d="m0 0 5 5 9 10 9 11 5 4h3l3-8 12-1h32l-1 6-6 12 11 6 6 4v2l3 1 2 4v6l-4 6-10 6-16 6-20 4-15 2-16 1h-18l-28-2-22-4-16-5-11-6-5-5-2-3v-4h-26l-23-2-20-4-17-6-9-6-4-4-2 1 1-25 5 5 10 6 14 5 25 5 23 2h19l30-2 22-4 15-4 12-6 5-4 3-5h1v18l2-1 2-11z" fill="#FAD82B"/>
<path transform="translate(1066,1079)" d="m0 0 5 5 10 6 11 4 14 4 21 3 32 1h7l2 7 8 7 15 6 15 4 30 4h44l28-4 19-5 10-4 9-7 2-5h1l1 24 1 2h-2v15l-4 6-10 7-17 6-20 4-20 2h-40l-22-2-22-5-16-6-9-7-2-5-2-1v-1h-6l-2 3-1-3h-15l-29-4-22-5-11-5-9-6-4-6-1-12v-18z" fill="#D9900D"/>
<path transform="translate(826,533)" d="m0 0h6l5 2v2l10 3h13l15-7h16l15 7h15l10-4 6-3h17l6 3 10 4h12l8-3 4-3 9-1 6 4 2 2 1 9-3 7h-2l-2 8v11l3 11h2l2 8v13l-2 6-5 11v16l3 9h2l2 8v14l-4 9-12-5-5-2-1-1v-117h-152v154l105-1 2 1 2 12 2 9h-9l-7-2-7-4-7-2h-9l-10 3-8 4-3 1h-12l-10-4-11-4h-8l-10 4-5 3h-10l-5-4-2-6 1-7 2-4h2l3-10v-8l-3-10-5-10v-14l3-8 3-4 2-9v-8l-2-6-5-11-1-5v-12l7-15 1-9-2-10-1-4h-2l-3-7v-6l4-5z" fill="#FCF4E7"/>
<path transform="translate(824,875)" d="m0 0h8l8 4v2l6 1h14l15-7h15l12 5 5 2h15l7-3 9-4h13l9 3 5 3 5 1h13l5-1v-2l5-1 1-2 4-1 7 1 5 4 2 4-1 9-4 6-2 5v14l4 9 3 6v15l-5 12-2 5v14l5 13 2 3v16l-4 10-5-2-11-4v-119h-154v154l65-1h43v9l3 10v3h-8l-10-3-8-4-4-1h-11l-18 8h-12l-7-2-11-5h-15l-7 2v2l-5 2h-10l-5-5-2-10 5-8 3-9v-9l-5-11-3-9v-12l4-10h2l1-8 1-4v-7l-4-11-4-10v-11l5-13 2-5 1-12-2-6v-2h-2l-3-5-1-10h2l1-5h3v-2z" fill="#FBF6EA"/>
<path transform="translate(689 1e3)" d="m0 0h10l10 2 6 2 8 3v2l5 2 9 4 11-3h13l12 4 8 4 7 10 4 8 1 4v17l-4 11-5 7-11 8-12 4h-13l-10-3-10-6-5-4-4-6-4-14v-8h-107v-30l15-2 23-5 11-4 10-3 14-3z" fill="#F3B12C"/>
<path transform="translate(907,579)" d="m0 0h17l12 4 8 6 6 7 5 11 2 12-1 14-4 15-2 5v14l1 16 1 7-4 8-2 9h-51l-2-7v-8l3-2h7l1-10h-18l-5-5v-10h-5l-3-3v-6l-1-1v-7l1-4-10-1-3-3 2-5 7-7 5-7v-19l5-8 9-8 11-5z" fill="#002F4A"/>
<path transform="translate(566,366)" d="m0 0h471v47h-471zm1 16v30h469v-29l-1-1z" fill="#0379B0"/>
<path transform="translate(566,1191)" d="m0 0h335v24h-335z" fill="#0089CA"/>
<path transform="translate(292,659)" d="m0 0 3 1 1 5 22 5 17 8 10 8 5 5 9 10v3h2l8 17 3 9 1 7v23l-4 16-5 12-9 14-16 14-10 6h-2l-1 5-2-2-12 3-14 2-19-1-6-3 2-4 6-3 12-4 1 1 16-4 12-6 9-7 7-7 6-9 4-8 3-7 2-8v-23l-4-14v-3h-2l-2-7h-2l-6-10-11-9-5-3v-2l-6-2-10-4-12-2h-15l-10 2-15 6-10 7-5 4-9 12-7 14-3 13v19l2 10 5 12 7 11 4 5 11 9 14 7 8 3-5 5h-3l-2 4-3 2-7-1-10-6-12-9-9-10-7-11-4-8-4-13-2-7v-25l2-6 3-11 4-9 4-7h2l1-4 9-11 6-5v-2l5-1 15-8 16-5 15-2z" fill="#FBDA2B"/>
<path transform="translate(1166,1264)" d="m0 0 4 5 9 6 16 6 19 4 16 2 15 1h26l24-2 25-5 16-6 9-6 4-5v40l-4 6-8 6-12 5-21 5-11 2-17 1h-34l-18-1-17-3-17-4-14-6-8-7-2-4v-25l-2-1 2-2z" fill="#D9910E"/>
<path transform="translate(1248,830)" d="m0 0h1l1 33-2 9-5 6-10 6-14 5-20 4-17 2h-49l-23-3-17-4-13-5-9-6-4-5-1-2-1-21 1-18 5 5 9 6 14 5 17 4 13 2 12 1h43l24-3 15-3 17-6 9-6 3-3z" fill="#D88F0C"/>
<path transform="translate(175,1157)" d="m0 0h11l10 4 10 9 3 2 3 6 3 7 4 11 2 10 6-10 7-6 9-3v-3h-2v-2h-11l-4-7 3-1 11-1h12l2 1-4 16-8 30-5 22-3 3v-2h-91l-4-5-4-8-1-11 1-3 8-1 5 3 6 5-3-11-1-8v-12l2-13 3-7 4-6 7-6z" fill="#F85F50"/>
<path transform="translate(1350,1148)" d="m0 0 5 1 7 8 5 8 2 8 1 39 3-3 11-20 10-11 6-3 8-1 9 3 7 6 5 9 2 6 1 16 8-6 5-2 10 1 6 4 6 8 1 3v15l-3 7-1 1h-114l-1-6v-90z" fill="#F86050"/>
<path transform="translate(1348,1218)" d="m0 0h1l1 28-1 12-5 8-10 6-14 5-18 4-28 3h-33l-28-3-21-5-13-5-9-6-4-6v-15l4 2 8 6 15 6 25 5 16 2h47l28-4 16-4 12-5 8-6 2-2 1-5h-2l-2 4-9 6-16 6-20 4-16 2h-50l-23-3-17-4-13-5-9-6-6-8h-6-3l-6-1v2h-2l-1-3h19v-14l4 5 9 6 16 6 19 4 15 2 16 1h24l26-2 21-4 18-6 11-7z" fill="#D9900D"/>
<path transform="translate(1050,330)" d="m0 0h1l1 172 8 7 11 12 5 6 1 3h-2l-2-5h-3l-1 6v67l-16-8v223l2 7 6 11 3 3 2 15v269l-1 11-8-1-6-2-1-623z" fill="#E1D8D1"/>
<path transform="translate(758,922)" d="m0 0 3 1v49l-5 1-21-9-8-1-11 3-13 9-13 8-11 5-16 4-9 1h-12l-17-3-14-5-3-2v-38l5 1 21 10 3 1h14l5-1 1-3 6-3 4-5 5-2v-2h3v-2l6-2h13l12 6h11l5-1v-2h3l1-3 9-5 12-7z" fill="#0087C7"/>
<path transform="translate(1432,864)" d="m0 0h3l4 11 10 34-1 4-9 11-3 5-5 5-10 13-11 15-2 4h-2l-12-27v-3h-2l6 16 7 15-2 5-4 5-1 3h-2l-2 4-12 18h-2l-8-15-8-16-4-9v-2h-2l-5-13 1-4 11-18 10-13 9-11 4-5 4-1 7 11 7 6 2 1h10l3-5-4-16-5-11v-6l10-6z" fill="#F86050"/>
<path transform="translate(649,576)" d="m0 0 6 1 7 11 11 2 6 4 7-1h11l1 7-7 12h-2l-1 13v23l5 18 1 9h11l8-4 3-8-1-9-6-9-3-5 1-5 5-4h7l6 3 4 5 3 9v13l-3 11-7 10-6 5-5 2h-14l-6-2-8 8-9 4h-14l2-4 7-11 5-11 2-8v-13l-6-12-4-2-14-5h-7l-9 3-8 5-6 10-3 8-1 6-1 16-5-2-6-7-3-7v-11l4-9 7-9 9-9 10-13 8-12 2-2 2-18 3-5z" fill="#F35F4A"/>
<path transform="translate(978,1125)" d="m0 0h31l24 3 16 4 12 5v2l4 1 4 5v7l-7 6-10 5-11 4-16 3-18 1h-29l-31-4-15-5-11-6-3-4v-7l5-6 9-5 15-5 19-3z" fill="#F3B12C"/>
<path transform="translate(1137,782)" d="m0 0h41l27 4 15 5 6 3v2l4 1 3 4v7l-4 5-10 6-16 5-11 2-13 1h-43l-22-3-20-6-10-7-2-4 1-7 5-5 15-7 7-2 17-3z" fill="#F3B12C"/>
<path transform="translate(1235,968)" d="m0 0h44l21 3 15 4 10 5 6 4 3 5-1 6-10 8-13 5-12 3-21 2h-39l-17-2-18-4-14-6-5-5-2-3 1-7 7-6 10-5 19-5z" fill="#F3B12C"/>
<path transform="translate(375,741)" d="m0 0 12 3 26 6 30 5 13 2 5 2 13 1v5h2l4 24v9l-12 1-58 2h-53l1-5 8-14 5-17 1-5 1-18z" fill="#007098"/>
<path transform="translate(1066,1011)" d="m0 0 5 5 5 4 14 6 15 4 26 4 35 1 3 8 10 7 14 5 17 4 21 3 19 1h14l21-1 30-5 19-6 9-6h2v-2l2-1 2-3 1 15-6 9-9 6-14 5-22 5-17 2h-49l-23-3-20-5-10-4-10-7-3-4v-2h-2l-1-2h-6v2h-2v-2h-6v2h-2l-1-2-21-2-19-3-17-4-16-8-6-5-2-4z" fill="#D9900D"/>
<path transform="translate(1066,967)" d="m0 0 7 6 12 6 16 5 16 3 23 2 26 1 3 7 5 5 15 7 20 5 22 3 19 1h18l25-2 18-3 20-6 11-6 5-5 1-2v-6l-1-4 3 3-1 25h-2l-2 5-10 7-10 4-26 6-22 2h-42l-25-3-20-5-11-5-9-6-3-4v-2h-2v-3h-15v3h-2v-2l-15-1-21-3-22-5-16-8-6-5-2-4z" fill="#D88F0C"/>
<path transform="translate(1066,1079)" d="m0 0 5 5 10 6 11 4 14 4 21 3 32 1h7l2 7 8 7 15 6 15 4 30 4h44l28-4 19-5 10-4 9-7 2-5h1l1 23-1-3h-2l-1 4h-2v2l-8 5-16 6-19 4-27 3h-32l-21-2-18-3-17-5-12-6-5-5-4-5v-2h-26l-36-5-24-8-10-7-3-5z" fill="#D88F0C"/>
<path transform="translate(1066,1034)" d="m0 0 5 5 8 5 13 5 15 4 22 3 32 1 5 1 3 7 6 5 13 6 19 5 19 3 12 1h39l26-3 21-5 12-5 9-6 2-2 2-4v21l-7 6-8 5-14 5-19 4-31 3h-25l-31-3-19-4-18-7-6-4v-2h-2l-4-6v-2l-25 1v-2l-17-1-19-3-20-6-8-4-7-5-3-6z" fill="#D9900D"/>
<path transform="translate(990,896)" d="m0 0h2l1 74-1 45 9 2 5 3 5 2 8 11 4 10 1 12-2 10-5 10-5 6h-2v2l-9 5-12 3-16-1-9-4-11-8-4-6-4-14v-12l5-13 7-9 11-7 11-3h10z" fill="#F3B12C"/>
<path transform="translate(781,579)" d="m0 0 5 5 1 5-3 9-6 7-4 10 1 14 1 5v8l-4 11-9 12-2 5-2 17 2 4-1 8v10l-5 10-3 2-3 6h-2l-1 7v10l1 5v10l-3 6-5 2-9-1-4-2v-2h-3l-4-4-1 9-1 1h-109v-16l61-1-5-3v-3l-6-1v-2l-10-2h-10l-4 1h-17l-11-5-5-4-4-3v-2h-17l-12 2-1-2-1 10h-1v-17h-5v-1l14-3h11l7 3 8 6 3 2v2l13 3h7l8-2h12l9 3 6 4 4 3v2l5 2 7 2h13l8-2h9l8 3 8 7v2h3v2l11-1 5-3 1-3v-9l-2-6v-13l3-9-2-3v-6l4 1-2-4v-7h3l2 1-1-3v-7h3l1-8 3-1v-13l3-8 7-9 3-4 3-8v-11l-2-8v-12l3-8h2l2-5 4-2v-2h2z" fill="#C7BFB8"/>
<path transform="translate(607,897)" d="m0 0h1l1 86 12 5 13 3 8 1h12l14-2 16-5 15-8 14-10 9-4 7-1 9 2 18 8h5v42l-18 2-7 2-10-5-4-4-7-2-8-3-8-1h-10l-11 2-13 3-16 5-16 4-14 3h-11v29h-1z" fill="#FCF6EA"/>
<path transform="translate(977,672)" d="m0 0h15l12 4 9 6 7 11 3 8 1 12-3 12-4 8-5 5-7 6-11 4-3 1h-10l-10-2-10-5-10-9-4-9-2-7v-9l-2-1h3l1-9 6-12 8-8 6-4z" fill="#F3B12C"/>
<path transform="translate(689 1e3)" d="m0 0h10l10 2 6 2 8 3v2l5 2 8 4 1 3-8 3-8 9-4 11-1 6-5 1h-103v-30l15-2 23-5 11-4 10-3 14-3z" fill="#F5604C"/>
<path transform="translate(253 1e3)" d="m0 0 3 2 5 13 4 5v7l6 22-4 9 1 5 8 4 4 9 4 3-12 36-11 35-2-3-10-26-3-8 12-10-4 1-8 7-3-4-12-28-12-25-1-4 4-4 4-7h2l2-4 1-3h2l2-5 11-16 1-3h2l2-5z" fill="#F85F4F"/>
<path transform="translate(503,1161)" d="m0 0 5 1 10 10 7 14 4 16 2 5 5-10 9-8 6-1v-27h1l1 68 5 12 1 2h-89l2-6 18-43 12-32z" fill="#F75F50"/>
<path transform="translate(204,659)" d="m0 0 2 4 13 8 18 10-3 2-9 8-7 9-1 3-3 3-4 7-4 12-2 10-1 1v25l2 7 5 16 6 10 10 13 8 7 10 7 8 4h5l5-5 7-4 10-4 15-1v4l-13 5-7 4v2l5 2 20 1 17-3 9-2v5l-5 5h-3v14h-1v-12l-8 3-10 2-19 2-10-2-13-7v-2l-4-1-11-7-13-10-9-8v-2l-4-2v-2h-2l-11-14-9-12-7-12-5-10-5-15-1-6v-10l8-17 8-14 12-24z" fill="#FBA17F"/>
<path transform="translate(1372,1020)" d="m0 0 8 1v2l9 2 30 10 13 5v4l-13 12-3 1-3 5-17 17h-5l-8-4-10-2-6 1-2 1 1 5 12 7 5 2 1 2-7 9-4 1-1 5-9 10-1 2h-2l-2 4h-2l-1 4-3 4-3-1v-71l8-14 7-11z" fill="#F86050"/>
<path transform="translate(838,896)" d="m0 0h55l2 5 2 6v27l-2 9-6 8-14 9-18 12-13 9-5 1z" fill="#0088C8"/>
<path transform="translate(387,425)" d="m0 0 10 1 11 3 12 8 7 6 17 3 4 2 2 3v11l-6 12-8 7h-3l-2-16-3-7-10 2-6 1-12-4-15-2-2 6-8 15-6 8v15h-1l-2-10-2-1h-6l-3 3v8l4 7 7 4v6l-5-2-9-7-5-20-4-7-2-7v-11l4-11 8-12 8-7 14-2 5-3z" fill="#191B23"/>
<path transform="translate(985,966)" d="m0 0 5 1v48h-11l-11 3-11 7-7 10-5 14h-42l2-10 3-9h2l1-6 3-6h2v-3l5-5 3-5 8-7 4-5 14-9 6-5h4l1-3 12-6z" fill="#0088C8"/>
<path transform="translate(1056,591)" d="m0 0 6 2 6 5 6 10 5 12 4 17 2 16v76l1 17 1 7v12h-2v16h2l1 2 4 2-11 4-10 6h-4l-2-4-1-13v-135l1-27 1-7-1-10-4-4-5-3z" fill="#F9D0BE"/>
<path transform="translate(1403,975)" d="m0 0 10 2 14 4 10 4 36 12 1 4-12 13-4 1-2 4-3 2-3 5-13 13-5-1-34-12-21-7-2-1 2-5 7-11 11-16z" fill="#F85E4F"/>
<path transform="translate(732,322)" d="m0 0h138l5 3 3 4 1 5-3 7-4 3h-140l-6-3-3-8 2-7z" fill="#0D0F15"/>
<path transform="translate(902,1288)" d="m0 0 7 6 14 7 18 5 19 3 10 1h45l25-3 16-4 12-4 11-6 5-5v18l-5 6-16 8-14 4-9 2-13 2-16 1h-36l-17-1-25-5-15-5-9-5-5-4-2-4z" fill="#D9910D"/>
<path transform="translate(1248,920)" d="m0 0h1v15l-3 7-8 7-14 6-17 4-6 1v3l-9-1 1 2-4-1h-49l-23-2-22-5-16-6-9-6-4-6v-17l5 5 9 6 17 6 20 4 18 2h44l25-3 21-5 12-5 8-6z" fill="#D88F0C"/>
<path transform="translate(1348,1152)" d="m0 0h1v19l-7 6-8 5-18 6-22 4-19 2h-33l-21-2-22-4-18-6-10-6-6-9-16-1v-1h17v-10h3l7 6 15 6 16 4 19 3 11 1h38l22-2 21-4 17-6 9-6z" fill="#D9900D"/>
<path transform="translate(1349,1194)" d="m0 0 1 4-1 18-8 7-12 6-17 5-15 3-23 2h-33l-22-2-24-5-16-6-8-5-6-8v-2h-5v-1h6v-11l4 2 8 6 16 6 17 4 25 3h44l24-3 17-4 16-6 9-7z" fill="#D88F0C"/>
<path transform="translate(1348,1172)" d="m0 0h1v21h-2l-2 4-10 7-10 4-16 4-18 3-9 1h-49l-23-3-17-4-13-5-9-6-4-5v-2l-2-1h-6l-2 1v-2h-9v-1h18v-14l4 5 10 6 8 4 20 5 22 3 15 1h26l22-2 18-3 21-6 12-7 3-4z" fill="#D9900D"/>
<path transform="translate(1248,875)" d="m0 0h1v16l-4 8-9 6-16 6-13 3-20 3-16 1h-31l-20-2-21-4-13-4-14-7-4-5-2-3v-17l5 5 9 6 13 5 24 5 19 2h43l19-2 20-4 12-4 12-6 5-5z" fill="#D88F0C"/>
<path transform="translate(1248,807)" d="m0 0h1v16l-3 7-7 6-14 6-20 5-22 3h-47l-20-2-20-4-17-6-10-8-3-4v-18l4 5 9 6 16 6 25 5 25 2h25l25-2 25-5 13-5 9-5 5-5z" fill="#D88F0C"/>
<path transform="translate(902,1264)" d="m0 0 4 5 9 6 16 6 25 5 24 2h26l25-2 25-5 15-6 8-5 5-3 1 6v8l-6 8-8 5-17 6-13 3-22 3h-52l-22-3-20-5-11-5-8-6-4-4z" fill="#D9900D"/>
<path transform="translate(1248,853)" d="m0 0h1l1 10-2 9-5 6-10 6-14 5-20 4-17 2h-49l-23-3-17-4-13-5-9-6-4-5-1-2v-16l7 6 6 4 16 6 25 5 21 2h31l29-3 22-5 12-5 10-6z" fill="#D88F0C"/>
<path transform="translate(1166,1264)" d="m0 0 4 5 9 6 16 6 19 4 16 2 15 1h26l24-2 25-5 16-6 9-6 4-5v16l-5 8-9 6-10 4-16 4-17 3-9 1h-51l-22-3-16-4-10-3-11-6-5-5-2-5-2-2 2-2z" fill="#D9900D"/>
<path transform="translate(1248,897)" d="m0 0h1v16l-3 7-8 6-7 4-12 4-20 4-16 2-27 1-23-1-29-4-20-6-9-5-7-6-2-3v-17l5 5 10 6 18 6 21 4 22 2h32l27-3 18-4 10-3 12-6 5-4z" fill="#D88F0C"/>
<path transform="translate(196,1021)" d="m0 0h3l12 23 10 20v4l-23 5-31 6-10 1-13-17v-1l24-4 6-3 2-3-1-5-6-1-31 6-3-1-10-15v-2l2-1 26-4z" fill="#F85E4F"/>
<path transform="translate(1342,707)" d="m0 0 5 1 6 10 10 19 6 11-1 4-7 14-1 4h-2l-2 6-13 28-3 8h-2l-6-9-11-15-13-20-6-10 1-6 5-7 4 2 7 8 5 3 9 2 5-3h2v-7l-3-5-5-10-7-10 1-4 10-9z" fill="#F86051"/>
<path transform="translate(182,907)" d="m0 0 11 6 10 8v5l-10 17-2 5v6l4 5 7 1 1-4 5-4h7l2-4 4-5h2l6 10-1 6-13 24-12 20-6 9-3-4-13-24-9-15-10-16 3-9 3-7 12-26z" fill="#F85F50"/>
<path transform="translate(1281,807)" d="m0 0h2l4 7 9 11 11 14 13 15 1 3-8 20-14 39-5-2-9-6-11-9-11-11 2-11 10 6 11 2v-2l2-1v-7l-4-6-7-6-8-5 1-10 2-9 2-6z" fill="#F85E4F"/>
<path transform="translate(462,584)" d="m0 0 3 3 10 22 10 18 11 16 12 16 7 8 6 7 3-1 6-8v3l-12 16-9 11-4 4-5-1-14-8-13-8-2-1v-3l-5-1-2-3v-15l-2-40z" fill="#02729A"/>
<path transform="translate(645,632)" d="m0 0h7l14 5 5 5 4 5 2 5v13l-4 13-7 13-6 8h-7l-15-5-19-9-3-4 1-16 3-12 5-9 5-5 10-6z" fill="#0087C8"/>
<path transform="translate(926,900)" d="m0 0h61l1 12-1 39-2 2-12 1-20-2-9-2-10-6-1-3h-2l-5-11-1-5v-23z" fill="#025272"/>
<path transform="translate(1139,776)" d="m0 0h37l14 1 22 4 21 7 9 5 5 4 3 8-1 4-4 5-10 6-12 5-22 5-16 2-15 1h-25l-25-2-25-5-16-6-9-6-5-8 1-6 3-4h2l1-3 13-7 18-5 23-4zm-2 6-15 2-15 3-8 3-12 6-5 6 1 7 5 5 9 5 17 5 22 3h43l18-2 8-2 14-4 11-7 3-4v-7l-4-5h-3v-2l-12-5-14-4-22-3z" fill="#FBDA2B"/>
<path transform="translate(1309,893)" d="m0 0 24 2 24 3 10 1-1 4-11 18-4 5-5-1h-7l-1 5-4 4 9 3-1 5-5 9h-46l4-18 3-8z" fill="#F85F4F"/>
<path transform="translate(1065,1028)" d="m0 0 3 1 3 5 10 6 13 5 17 4 22 3 14 1 1 3h2v-2h6v2h2v-2l6-1 1 3h2l5 7 12 7 17 5 15 3 19 2h47l22-3 21-5 12-5 8-6 3-6 2 1-3 9-7 6-10 5-13 4-20 4-20 2h-39l-26-3-21-5-12-5-8-5-5-6-1-4h-15l-21-1-22-3-19-5-16-8-5-5v14l2 6 4 2 9 5 18 6 15 3 25 3 1 1h24l4 6v2h2v2l5 2 8 4 11 4 19 4 31 3h25l31-3 19-4 16-6 6-4h2l2-4 2-2 1 2-2 6-10 7-12 5-19 5-23 3-16 1h-19l-26-2-23-4-15-5-13-7-4-5-1-6h-26l-17-1-23-4-18-6-9-5-5-4-2-2h-1z" fill="#FAD52B"/>
<path transform="translate(231,1091)" d="m0 0h2l12 27 8 20 3 9-4 1-21 1-7 1h-14l-7-10v-2l20-8 1-5-4-2h-12l-15 3-7-10-2-1-4-7-3-3v-2h-2v-2z" fill="#F85E4F"/>
<path transform="translate(592,651)" d="m0 0h11v11l4 10 6 7 6 5 19 9 15 5h21l7-3h5l3 3v2h2l9 13 2 7v3l-8-1-33-8-35-8-11-2-9-3-24-6 1-10 2-5 6-27z" fill="#025070"/>
<path transform="translate(1378,908)" d="m0 0 3 1 9 24 4 8 5 13 6 13-2 5-4 5-1 3h-2l-2 4-12 18h-2l-8-15-8-16-4-9v-2h-2l-5-13 1-4 11-18 10-13z" fill="#F85F4F"/>
<path transform="translate(1300,760)" d="m0 0 3 3 11 18 13 18 7 10 2 1 2 5-4 10-10 24-1 4-4-2-11-14-2-1-3-5-13-16-6-8v-2h-2v-3h2l1-7 3-8 5-14z" fill="#F75E4F"/>
<path transform="translate(230,958)" d="m0 0 3 1 5 9 2 6h2l9 21 1 6-9 14-8 12-1 3h-2l-2 4-10 15-3 3-10-19v-3h-2l-7-16 12-19 10-18 1-3h2l2-6z" fill="#F75E4E"/>
<path transform="translate(1248,943)" d="m0 0h1v15l-1 5-36 4-21 5-12 5-9 6-3 3-8 1-3 1v-2h-15v2l-3-1 1-2-16-1-19-3-20-6-11-6-6-7-1-2v-16l5 5 10 6 14 5 25 5 23 2h19l30-2 22-4 15-4 12-6 5-4z" fill="#D9900D"/>
<path transform="translate(1445,920)" d="m0 0 16 1 9 2 33 6 5 2v8l-6 17-4 9-2 1h-6l-4-2-42-12-13-4-6-2 6-9 6-7 1-3 3-2 1-3z" fill="#F85F4F"/>
<path transform="translate(144,961)" d="m0 0h21l5 7 12 22-34 5-12 2-27 4-2-1-4-13-3-19v-4l13-2z" fill="#F85F4F"/>
<path transform="translate(1385,757)" d="m0 0h46l1 1-1 19-3 16h-20l-53-4-2-1 2-7 10-19 2-4z" fill="#F85E4F"/>
<path transform="translate(1494,863)" d="m0 0 5 1 6 10 4 11 2 10v29l-2 5-27-5-16-3-17-2v-4l3-5 5-5 9-10 9-11 13-14z" fill="#F85F50"/>
<path transform="translate(120,898)" d="m0 0h4l28 42v2h2l3 6v2h2l3 6-1 3-32 1-15 1h-14v-17l1-9 5-16 7-14z" fill="#F85F4F"/>
<path transform="translate(1404,692)" d="m0 0 5 2 9 10 8 16 5 20v14l-37 1-25 1 2-6 16-30 14-24z" fill="#F85F4F"/>
<path transform="translate(1351,791)" d="m0 0h13l25 2 22 1 14 2-1 9-8 20-2 1-19-1-55-6-1-2 10-23z" fill="#F85E4F"/>
<path transform="translate(1423,948)" d="m0 0 16 4 9 2 8 3 38 11-1 6-8 12-7 9-8-1-31-10-14-4-10-4-10-3 4-8 2-1 1-3 5-5z" fill="#F85E4F"/>
<path transform="translate(179,992)" d="m0 0 5 1 13 24v2l-26 5-17 3-26 5-5 1-8-14-5-10-1-6 31-5z" fill="#F85E4F"/>
<path transform="translate(551,329)" d="m0 0h1l1 312 11 6-2 9 1 10 2 8-1 11-5 9-7 7-1 3h-8l-25-12-5-2 4-6 13-17 11-18 6-13 1 2h3z" fill="#F9A181"/>
<path transform="translate(990,896)" d="m0 0h2l1 74-1 45 9 2 5 3 5 2 8 11 4 10 1 12-2 10-5 10-5 6h-2v2l-9 5-12 3-16-1-9-4-11-8-4-6-4-14v-12l5-13 7-9 11-7 11-3h10zm-14 125-11 6-3 2v2h-3v3h-2l-2 3-3 13 1 11 5 10 5 5h2v2l8 4 3 1h15l11-4 6-7 3-3v-3h2l2-7v-11l-2-9-7-9-4-2v-2l-8-4-4-1z" fill="#F9D52B"/>
<path transform="translate(1050,330)" d="m0 0h1l1 172 8 7 11 12 5 6 1 3h-2l-2-5h-3l-1 6v67l-16-8v227l-2-3-1-311z" fill="#DBD2CA"/>
<path transform="translate(902,1259)" d="m0 0 4 5 9 6 12 5 17 4 21 3 11 1h34l28-3 22-5 12-5 9-7 4-4-1 7-5 5-8 5-15 6-25 5-25 2h-26l-31-3-21-5-13-5-9-6-3-3v16l9 8 8 4 12 4 20 4 15 2h52l28-4 19-6 10-5 5-4 3-4 1 3v17h-1l-1-12-7 6-13 6-13 4-24 4-11 1h-45l-23-3-21-5-12-5-9-6-2-3-2 2v-29z" fill="#FAD52B"/>
<path transform="translate(1066,1011)" d="m0 0 5 5 5 4 14 6 15 4 26 4 35 1v18l-8 1v2h-2v-2h-6v2h-2l-1-2-21-2-19-3-17-4-16-8-6-5-2-4z" fill="#D9900D"/>
<path transform="translate(1351,952)" d="m0 0h2l23 46 3 5-1 5-21 33-7 12h-1v-66l-3-3-2-1v-2l-5-2-2-4 6-11 1-4h2l1-4z" fill="#F75F4E"/>
<path transform="translate(1066,1101)" d="m0 0 2 4 4 2 8 5 16 6 19 4 24 2 27 1v18l-7 1-2 3-1-3h-15l-29-4-22-5-11-5-9-6-4-6z" fill="#D9900D"/>
<path transform="translate(1066,1034)" d="m0 0 5 5 8 5 13 5 15 4 22 3 32 1 5 1 1 6-1 11-1 1-25 1v-2l-17-1-19-3-20-6-8-4-7-5-3-6z" fill="#D9900D"/>
<path transform="translate(1066,1057)" d="m0 0 7 6 14 7 13 4 23 4 43 2v18l-11 1-22-1-25-4-18-4-16-8-6-5-2-4z" fill="#D9900D"/>
<path transform="translate(848,720)" d="m0 0h8l11 4 10 4h12l10-4 6-3 5-1h9l11 4 5 3 14 2 9 10 10 6v1h-8l-1-3-6-1h-6l-7-2-8-2v-2l-8-2h-11l-2 2-9 3-12 3-18-3-11-5-7 1-11 4-13 2-5-2-7-6-3-4-1-2 2-5h2l5 5h10l12-6z" fill="#E1D8D1"/>
<path transform="translate(1066,989)" d="m0 0 5 5 10 6 18 6 14 3 16 2 29 1h7l2 5-1 13h-34l-29-4-24-8-8-6-4-5-1-2z" fill="#D88F0C"/>
<path transform="translate(908,1062)" d="m0 0h11l11 4 6 3 13 2 4 5v2l4 2 3 3-3 1-1 2-5-2-4-1-10-1-8-4-8-2h-7l-8 3-6 3-4 1-14 1-10-3-8-4v-2l-14 2-8 5-3 1h-9l-8-4-5-6-2-5v-4l5 2 3 3h10l5-1v-2l7-3h15l12 6 6 1h12l12-6z" fill="#E1D9D2"/>
<path transform="translate(618,1062)" d="m0 0h8l9 3 10 5h12l10-3 8-4 4-1h11l9 4 7 3 13 2 4 5v2l4 2 2 3h-3l-1 3-5-2-1-3-5 2-9-2-5-3-7-1h-11l-16 6-15 1-10-3-8-5h-11l-14 7h-8l-8-4-5-6-1-8 4 1 3 3h11l4-3z" fill="#E1D9D1"/>
<path transform="translate(977,672)" d="m0 0h15l12 4 9 6 7 11 3 8 1 12-3 12-4 8-5 5-7 6-11 4-3 1h-10l-10-2-10-5-10-9-4-9-2-7v-9l-2-1h3l1-9 6-12 8-8 6-4zm-1 7-6 2v2l-5 2-6 4-4 8v3h-2l-1 3 1 15 4 9 7 8 6 4 6 2h16l10-4 7-8v-2h2l4-9v-14l-3-8-5-8-4-2-3-4-9-3z" fill="#F9D52A"/>
<path transform="translate(748,1014)" d="m0 0h13l12 4 8 4 7 10 4 8 1 4v17l-4 11-5 7-11 8-12 4h-13l-10-3-10-6-5-4-4-6-4-14v-8l-2-1h3l1-9 4-9 7-8 2-2 6-2 1-2zm-2 7-6 2v2l-6 1v2l-4 2-1 4h-2l-1 5h-2l-1 3v20l7 12 10 7 6 2h15l7-2 6-4 5-7 2-1 4-13v-8l-4-12-5-6-5-3-4-4-7-2z" fill="#FAD62A"/>
<path transform="translate(777,876)" d="m0 0 10 5 5 8v7l-3 10-2 3-1 6v8l5 13 2 11-1 9-3 11-3 9v9l4 10 3 10v9l-2 8 1 7-1 5-1 3-7-11-2-4-3-1 1-5 3-10-2-12-3-7-3-6-1-5v-7l3-9 4-8 1-10v-10l-6-10-1-3v-15l7-14-1-8-3-4z" fill="#E1D8D1"/>
<path transform="translate(839,1095)" d="m0 0h110v14l-1 1h-109z" fill="#07334A"/>
<path transform="translate(839,753)" d="m0 0h110v14l-1 1h-109z" fill="#00324E"/>
<path transform="translate(608,753)" d="m0 0h109v15h-109z" fill="#00324E"/>
<path transform="translate(608,1095)" d="m0 0h109v15h-108l-1-1z" fill="#05334B"/>
<path transform="translate(870 1e3)" d="m0 0h9l5 3 5 6 1 3v12l-8 16-3 3h-33l-2-5v-20l10-10 10-6z" fill="#025272"/>
<path transform="translate(1007,534)" d="m0 0h5l7 6 2 4 1 13-3 8-3 6v10l5 13 1 1v18l-2 11-3 6h-2l1 11 3 10 2 5 1 6v14l-1 8-4 1 3 5-1 3-7-11-4-3 3-9v-14l-1-8h-2l-4-9v-16l6-12 1-5v-13l-1-8h-2l-3-6-1-5v-11l3-8h2l1-4 1-8-2-5z" fill="#E1D8D1"/>
<path transform="translate(1010,877)" d="m0 0 7 4v2h2l3 6v8l-3 9-3 5-1 14 3 1 3 9 1 6v16l-5 15-1 2v10l2 4 2 8 2 6v19l-1 8-3 4-8-11-2-1 3-10v-16l-6-12-1-4v-14l7-17v-15l-6-12-1-3v-14l7-14v-6z" fill="#E1D8D1"/>
<path transform="translate(134,892)" d="m0 0h13l16 4 13 6 4 2-1 5-13 28-3 9h-2v3h-2l-6-11-7-10-15-23-2-1-4-7v-2z" fill="#F86050"/>
<path transform="translate(1380,688)" d="m0 0h17l4 2-2 6-12 21-8 16h-2l-2 6-4 7-4-5-8-15v-2h-2l-8-16-1-1v-5l17-9z" fill="#F85F50"/>
<path transform="translate(1468,854)" d="m0 0h9l7 1 8 4-1 5-8 8-7 8-9 10-9 11-6 8h-2l-4-16-8-27 1-5 11-4 7-2z" fill="#F85F50"/>
<path transform="translate(839,794)" d="m0 0h153v10h-153z" fill="#C7C1BD"/>
<path transform="translate(839,776)" d="m0 0h153v10h-153z" fill="#C7C1BD"/>
<path transform="translate(608,776)" d="m0 0h153v10h-153z" fill="#C7C1BD"/>
<path transform="translate(608,1118)" d="m0 0h152l1 1v9h-153z" fill="#C7C1BD"/>
<path transform="translate(608,794)" d="m0 0h153v10h-153z" fill="#C7C1BD"/>
<path transform="translate(1263,892)" d="m0 0 7 6 13 11 15 10-3 13-3 7-6 22h-2l-7-8-12-14-4-5-3-3v-18l2-14h2z" fill="#F85F4F"/>
<path transform="translate(565,413)" d="m0 0h472v710h-6l-3-3 2-4h6v-702h-470v218h-1z" fill="#C7B5A1"/>
<path transform="translate(314,1209)" d="m0 0 3 4v3l9-5 4-1h8l8 4 4 4 3 7v9l-3 8-1 1-52 1 2-6 10-19z" fill="#F76050"/>
<path transform="translate(414,547)" d="m0 0h2l6 12 15 2v1l-14-1-2 6-6 8-10 6-13 4-14 1-16-3-17-8-9-7 3-1 5-5 3-4v3l10 3 18 4h15l13-4 4-3 1-12z" fill="#FCF6E9"/>
<path transform="translate(1065,1118)" d="m0 0 3 1 3 5 9 6 17 6 27 5 18 2h14 3 6l7 10 8 5 17 6 19 4 22 2h40l20-2 20-4 17-6 10-7 3-5 3 1-4 8-8 7-14 6-21 5-14 2-15 1h-38l-25-3-18-4-16-6-8-6-4-5-1-4h-15l-23-1-19-3-16-4-11-4-10-6-6-7z" fill="#FAD62B"/>
<path transform="translate(1065,1071)" d="m0 0 3 3 3 5 10 6 13 5 24 5 15 2 22 1h9l3 3 4 6 9 6 17 6 19 4 21 2h43l24-3 21-5 11-5 9-6 4-4-1 7-8 7-10 5-17 5-24 4-9 1h-44l-30-4-15-4-15-6-9-8-1-7-9 1-30-1-21-3-21-6-13-7-5-5-2 3z" fill="#FAD62B"/>
<path transform="translate(779,572)" d="m0 0 7 3 5 6 2 5-1 7-2 6-8 10-2 5v10l1 6v15l-3 10-3 4h-2l-2 4-5 9v14l1 12-2 16-3 5-5 5-4 6-1 4v10l1 5v12l-3 6-5 4-9 2-6-1-10-5-1-9 4 2v2h3l1 2 6 2h6l5-2 2-5v-10l-1-7v-8l2-7 3-3 3-5h2l1-4 3-6v-12l1-6-2-5 2-16 4-8 7-9 4-11v-8l-2-13 1-9 5-10 3-1 2-5 2-8-3-7-1-1-2 2z" fill="#E1D8D1"/>
<path transform="translate(608,1137)" d="m0 0h153v9h-153z" fill="#C7C1BD"/>
<path transform="translate(1065,1088)" d="m0 0h1l1 8 2 5 4 2 8 5 22 7 36 5 26 1 6 8v2l4 2 17 7 16 4 21 3 13 1h32l27-3 19-4 20-8 4-2v-2h2l1-4h2l-1 6-7 7-10 5-11 4-19 4-30 3h-26l-22-2-19-3-17-5-9-4-9-6-3-5v-4h-27l-24-2-22-5-13-5-8-5-5-5-2 3z" fill="#FAD52B"/>
<path transform="translate(1066 1e3)" d="m0 0 4 5 6 5 8 4 19 6 36 5 2 3v-2h16v2l2 1-1-3h8l5 8v2l5 2 10 5 16 5 19 3 26 2h22l26-2 25-5 16-6 8-6 4-4 1 4-2 4h-2v2l-11 7-19 6-30 5-21 1h-14l-28-2-22-4-19-6-11-7-3-3-1-7h-35l-26-4-15-4-16-7-7-7-2 3v-9z" fill="#FAD62B"/>
<path transform="translate(1065,982)" d="m0 0 3 2 3 5 10 6 13 5 25 5 14 2 16 1-1 3h2v-3h15v3h2l5 7 11 6 7 3 26 6 19 2h42l22-2 19-4 17-6 10-7 2-4h2l-1 7-8 7-13 6-19 5-21 3-11 1h-39l-25-3-21-5-12-5-9-6-4-5-1-4h-14l-22-1-22-3-21-6-14-7-6-5h-1z" fill="#FAD62B"/>
<path transform="translate(925,950)" d="m0 0 9 1 3 3 1 3v7l-4 10-7 8-10 6-10 3h-16l-5-3-2-2 1-6 8-8 11-9 10-8z" fill="#F65F4C"/>
<path transform="translate(1084,1245)" d="m0 0 6 1 14 4 18 3 17 2 27 1 5 9 10 6 14 5 25 5 21 2h33l28-3 21-5 15-6 4-3h2l2-4 3-4-1 9-8 7-11 5-17 5-17 3-24 2h-26l-24-2-22-4-18-6-10-6-4-5-1-6h-31l-21-2-18-4-12-4z" fill="#FAD62B"/>
<path transform="translate(1084,1200)" d="m0 0 9 2 16 4 11 2 12 1 2 1 31 1 6 8v2l5 2 10 5 17 5 16 3 22 2h33l23-2 23-5 16-6 6-4h2l2-4 3-1-2 7-11 8-14 5-16 4-20 3-17 1h-24l-24-2-22-4-15-5-12-6-5-6-1-6h-36l-30-5-16-5z" fill="#FAD52B"/>
<path transform="translate(1084,1155)" d="m0 0 9 2 16 4 28 4 29 1 2 4 3 5 10 6 18 6 22 4 21 2h33l25-3 20-4 16-6 6-4h2l2-4 2-2 1 2-3 7-10 7-13 5-16 4-21 3-15 1h-26l-24-2-18-3-17-5-15-8-4-5-1-6h-35l-26-4-15-4-6-2z" fill="#FAD52B"/>
<path transform="translate(1084,1178)" d="m0 0 6 1 20 5 23 3 24 2 1 1v-1h8l5 8 5 4 20 8 21 4 16 2h49l23-3 16-4 10-3 13-8 3-4h2l-1 6-9 8-15 6-15 4-21 3-8 1h-44l-25-3-17-4-16-6-8-6-4-5v-4h-17v-2l-2-1-1 3-27-2-25-5-10-4z" fill="#FAD72B"/>
<path transform="translate(1084,1223)" d="m0 0 6 1 20 5 31 4h6l1 3h2v-2h7 1 7l8 10 11 6 17 5 22 4 10 1h50l22-3 16-4 16-6 8-6 1-2h2v5l-8 7-10 5-13 4-20 4-16 2h-47l-28-4-15-4-13-5-8-6-4-5v-4h-18l-21-1-25-4-17-5z" fill="#FAD62B"/>
<path transform="translate(1317,871)" d="m0 0 16 2 47 6-1 5-9 13h-12l-14-2-16-1-18-3 6-19z" fill="#F85F4F"/>
<path transform="translate(1372,1020)" d="m0 0 8 1v2l9 2 30 10 13 5v4l-12 11-9-1-11-3v-2l-7-1-31-10-1 2 1-4z" fill="#F85F4F"/>
<path transform="translate(220,1070)" d="m0 0 4 1 8 16v2l-23 5-20 3-7 2h-9l-10-12-3-3v-2l50-10z" fill="#F85E4F"/>
<path transform="translate(1066,967)" d="m0 0 7 6 12 6 16 5 16 3 23 2v1h-7v17l-16-1-27-6-16-8-6-5-2-4z" fill="#D9900D"/>
<path transform="translate(296,596)" d="m0 0 4 5 7 14 11 29 8 28 7 4-2 1-16-7-19-4-2-6-5 1 2-3 3-1 1-7 2-23-1-22-1-8z" fill="#00719A"/>
<path transform="translate(1066,1079)" d="m0 0 5 5 10 6 11 4 14 4 27 4v18l-30-4-24-8-10-7-3-5z" fill="#D9900D"/>
<path transform="translate(237,731)" d="m0 0h9l7 10 6 9 1-18 1-1h9l2 2v37l-1 1h-11l-12-18-1 1-1 17h-11v-39z" fill="#FBDD2B"/>
<path transform="translate(619,1027)" d="m0 0h16l13 3 15 8 10 6 11 4v1h-76v-20z" fill="#025070"/>
<path transform="translate(712,631)" d="m0 0h7l6 3 4 5 3 9v13l-3 11-7 10-6 5-5 2h-14l-6-2 1-7 1-4 12-1 8-4 3-8-1-9-6-9-3-5 1-5z" fill="#F7F0E3"/>
<path transform="translate(1248,943)" d="m0 0h1v15l-1 5-36 4-21 5-12 5-9 6-3 3-8 1-3 1v-2h-15v2l-3-1 1-2h-5l1-4 7-6 12-6 8-2 30-2 22-4 15-4 12-6 5-4z" fill="#C87A09"/>
<path transform="translate(840,1118)" d="m0 0h125l1 3-26 4-11 3h-90v-9z" fill="#C7C1BD"/>
<path transform="translate(566,1191)" d="m0 0h335v24h-335zm1 2v21h329l4-2v-18l-1-1z" fill="#047AB1"/>
<path transform="translate(566,364)" d="m0 0h471v2h-471v47h-2l-1-47z" fill="#00405E"/>
<path transform="translate(781,579)" d="m0 0 5 5 1 5-3 9-6 7-4 10 1 14 1 5v8l-4 11-9 12-2 5-2 16-3-1-2-6-4-2h2v-13l3-8 7-9 3-4 3-8v-11l-2-8v-12l3-8h2l2-5 4-2v-2h2z" fill="#C7C1BD"/>
<path transform="translate(218,739)" d="m0 0 2 3v3h3l5 22 6 12 8 10 3 3v2l4 2 7 4v2l9 3 7 3 4 1 25 1 15-3 10-7 5-4h2l1-3h2l2-5 5-7 7-18 2-10h1v10l-3 9-4 9-5 8-9 10-7 6-10 6-12 4-10 2 1-5-15 1-6 2-8-1-14-6-9-7-6-5-9-12-6-13-2-9-1-4z" fill="#D9900D"/>
<path transform="translate(901,1151)" d="m0 0h1l1 19 5 6 13 7 17 5 26 4 11 1h32l23-2 21-4 11-3 11-5 8-6 4-4-1 7-5 5-8 5-13 5-16 4-21 3-17 1h-23l-24-2-18-3-17-5-14-7-5-5-1 13h-1z" fill="#FAD42B"/>
<path transform="translate(1249,863)" d="m0 0h1v12h-2l-1 4-7 6-12 6-14 4-23 4-12 1h-43l-19-2-24-5-15-6-8-6-3-3-2 1v-9h2l4 6 9 6 16 6 20 4 17 2h49l23-3 17-4 15-6 8-6 3-7z" fill="#FAD62B"/>
<path transform="translate(1248,845)" d="m0 0h1v8l-4 6-10 6-12 5-22 5-29 3h-31l-28-3-21-5-15-6-9-7h-3v-8h3l1 4h2v2l4 2 16 7 21 5 27 3h36l20-2 25-5 16-6 6-4h2l2-4z" fill="#FAD52B"/>
<path transform="translate(1166,1280)" d="m0 0 2 2 3 5 9 6 10 4 16 4 17 3 9 1h51l22-3 16-4 12-4 10-6 5-8h1v7l-7 8-12 6-16 5-24 4-9 1h-48l-27-4-19-5-14-7-7-7z" fill="#FAD52B"/>
<path transform="translate(902,1214)" d="m0 0 9 9 14 6 13 4 17 3 24 2h26l26-2 25-5 13-5 9-5 4-4 1-3h2l-1 7-9 8-10 5-18 5-26 4-16 1h-23l-26-2-21-4-18-6-9-5-5-5z" fill="#FAD52B"/>
<path transform="translate(1248,823)" d="m0 0h1v7l-3 5-6 5-10 5-16 5-24 4-11 1h-43l-19-2-20-4-15-5-10-6-5-5-1-7 5 5 8 6 17 6 20 4 20 2h47l22-3 20-5 14-6 7-6z" fill="#FAD62B"/>
<path transform="translate(1083,1237)" d="m0 0h2l-1 6-5 6-16 8-18 5-28 4h-46l-30-4-15-4-12-5-9-6-3-5v-4h2l6 7 13 6 17 5 28 4h50l28-4 20-6 6-3 9-6z" fill="#FAD62B"/>
<path transform="translate(902,1192)" d="m0 0 5 5 5 4 11 5 17 5 29 4h47l25-3 19-5 12-5 9-6 2-4h2l-1 6-5 6-16 8-14 4-15 3-18 2h-44l-25-3-21-5-12-5-9-6-3-5z" fill="#FAD62B"/>
<path transform="translate(1065,911)" d="m0 0h1l2 6 4 5 10 6 15 5 12 3 24 3 26 1 24-1 23-3 19-5 10-4 12-8 1 4-8 7-10 5-16 5-15 3-20 2h-44l-25-3-20-5-14-6-9-8-2 2z" fill="#FAD72B"/>
<path transform="translate(1347,1080)" d="m0 0 2 2-2 6-10 7-12 5-19 5-23 3-16 1h-19l-26-2-23-4-15-5-13-7-4-5v-4h2v2h2v2l5 2 8 4 11 4 19 4 31 3h25l31-3 19-4 16-6 6-4h2l2-4z" fill="#FAD52B"/>
<path transform="translate(1348,1055)" d="m0 0 2 1-3 9-7 6-10 5-13 4-20 4-20 2h-39l-26-3-21-5-12-5-8-5-4-4v-5h2l5 5 10 6 17 5 15 3 19 2h47l22-3 21-5 12-5 8-6z" fill="#FAD72B"/>
<path transform="translate(278,1086)" d="m0 0 3 3-3 11-17 53-2-3-10-26-3-8 12-10 3-3 8-7z" fill="#F75E4E"/>
<path transform="translate(908,1062)" d="m0 0h11l11 4 6 3 13 2 4 6h-12l-14-6h-16l-12 5-1 1h-18l-6-2-10-4h-13l-9 4-6 2h-7l-6-5v-1l9-1 3-2h3v-2l7-3h15l12 6 6 1h12l12-6z" fill="#C8C2BE"/>
<path transform="translate(618,1062)" d="m0 0h8l9 3 10 5h12l10-3 8-4 4-1h11l9 4 7 3 13 2 4 6h-12l-15-6h-14l-12 4-3 2h-17l-12-4-4-2h-13l-11 5-10 1-3-2v-2l-4-2 9-1 6-4z" fill="#C8C2BE"/>
<path transform="translate(1066,938)" d="m0 0 2 1 3 5 10 6 21 7 23 4 15 1h49 2v-1h6l4 2v-2l-3-1 22-5 16-6 6-4 4-4h3l-2 6-8 6-10 5-24 6-24 3-19 1h-19l-23-2-25-5-14-5-10-6-5-4h-1v-7z" fill="#FAD62B"/>
<path transform="translate(848,720)" d="m0 0h8l11 4 10 4h12l10-4 6-3 5-1h9l11 4 5 3 14 2 5 7-4-1-2 1-11-3-6-3-7-1-1-1h-9l-18 7h-16l-7-2-6-3v-2l-4 1h-13l-10 5-10 1-5-3v-2l-2-1 9-1 8-5z" fill="#C8C2BE"/>
<path transform="translate(243,1150)" d="m0 0h14l3 6-5 17-1-2-13 1h-17l-12-19v-1z" fill="#F75E4E"/>
<path transform="translate(123,896)" d="m0 0 4 2 2 3v3l3 1 19 29 8 12v3h2v-3h2l1-6 10-23 6-12 4 1 6 4-1 2-6-4-16 32-4 11 2 5 9 15 10 17 12 22-1 3-4-5-8-15-17 2-52 8-6 1 1-4 27-4 12-2 33-5-8-13-5-9-3-5h-21l-31 1-12 1-1-3 29-2 32-1-2-5v-3h-2l-3-5v-3h-2l-10-16-13-19-5-7v-2l-2-1z" fill="#FCC2A9"/>
<path transform="translate(1353,947)" d="m0 0 2 3 3 6v4h2l9 19 10 19 1 4h2l2-5 12-17h2l1-4 4-4v2l6-1 15 5 10 4 17 5 26 8-3 4-6-3-40-13-9-3-13-4-4 1-16 24-7 10-4 7 11 3 48 17 2 2-4 1-24-9-28-9v-2l-8-1-2 5-7 11-12 20h-2l2-7 15-24 7-10 5-9-1-4-9-17-11-23-4-8v-2l-5 3 2-5z" fill="#FCC1A8"/>
<path transform="translate(301,667)" d="m0 0 10 1 14 5 11 6 9 7 5 5 9 10v3h2l8 17 3 9 1 7v23l-4 16-5 12-9 14-16 14-10 6h-2l-1 5-2-2h-5l4-3 14-9 12-11 9-14 5-11 4-17v-23l-3-14-7-16-12-16-12-10-12-7-20-6z" fill="#D58A0C"/>
<path transform="translate(838,896)" d="m0 0h55l2 5-1 3-2-3-47-1v77l6-2-5 5-4 2h-3z" fill="#01739F"/>
<path transform="translate(565,1191)" d="m0 0h1v24h335l-1 2h-334l-2-2-1-21z" fill="#00405E"/>
<path transform="translate(222,1063)" d="m0 0 3 4 12 26 8 19h2l8-7 4-1-2 4-10 8 10 26 3 8v5l-3-3v-2l-35 2h-9l-3-2 21-2 21-1 3-1-3-8-10-24-9-21v-2l-13 3-46 8v-2h-2l1-2h9l13-3 17-3 15-3h5l-9-18-11 1-12 3-34 7h-6l-1 2v-2h-2v-2l34-7 26-5h4z" fill="#FCBFA6"/>
<path transform="translate(1013,543)" d="m0 0 2 3 1 3v7l-4 10-2 4v7h-2v2h2l1 5 3 7v3l2 1-1 3h2v12l-2 8-5 13v10l2 8 3 4 2 14-1 12-2 3-5-2-1-3 3-7v-14l-1-8h-2l-4-9v-16l6-12 1-5v-13l-1-8h-2l-3-6-1-5v-11l3-8h2l1-4z" fill="#C8C2BE"/>
<path transform="translate(279,731)" d="m0 0h25l1 1v7l-1 1h-15v7h11v8l-10 1-1 14-1 1h-10v-39z" fill="#FCDE2B"/>
<path transform="translate(307,731)" d="m0 0h29l3 1-1 8-9 1-1 30h-11v-30l-10-1-1-2v-6z" fill="#FCDE2B"/>
<path transform="translate(1302,953)" d="m0 0h32l-1 6-7 12-3 1-15-4-21-3 2-10 1-1z" fill="#F4624A"/>
<path transform="translate(1133,1034)" d="m0 0 33 1v18l-8 1v2h-2v-2h-6v2h-2l-1-2-14-1z" fill="#C87A09"/>
<path transform="translate(1133,1057)" d="m0 0h32l2 7-1 11-1 1-25 1v-2h-6l-1-1z" fill="#C77A09"/>
<path transform="translate(1133,1102)" d="m0 0h33v18l-1 1h-26l-6-1z" fill="#C77A09"/>
<path transform="translate(566,726)" d="m0 0 5 2 9-2h12l5 1 4 4 6 3 3 3 7 3h17l4-1h10l10 3v2l6 1v3l4 1 3 3-12-1-5-4-5-1h-9l-9 2-11-1-12-3v-2l-5-2-8-6-3-1h-15l-7 2-3-2z" fill="#E1D9D2"/>
<path transform="translate(1134,1237)" d="m0 0h25l7 1 1 6-1 12h-27l-6-1v-17z" fill="#C77909"/>
<path transform="translate(1077,536)" d="m0 0 7 1 2 4h-2v86l-3 2-5-14z" fill="#E9E4E1"/>
<path transform="translate(1147,1190)" d="m0 0 3 1-1 2h17l1 9-1 8-6 1h-21l-6-2v-17h13z" fill="#C77A09"/>
<path transform="translate(1133,1214)" d="m0 0 33 1 1 11-1 7-26 1-7-1z" fill="#C77909"/>
<path transform="translate(1133,1125)" d="m0 0h33v18l-7 1-2 3-1-3h-15l-8-1z" fill="#C77A09"/>
<path transform="translate(1133,1080)" d="m0 0h33v18l-11 1-22-1z" fill="#C77909"/>
<path transform="translate(1133,1169)" d="m0 0 33 1 1 14-1 4h-33z" fill="#C77A09"/>
<path transform="translate(1133,990)" d="m0 0h33v18h-16v3h-2v-2l-15-1z" fill="#C77909"/>
<path transform="translate(1133,1147)" d="m0 0h33l1 8-1 10-17 1h-12l-4-1z" fill="#C77909"/>
<path transform="translate(894,1136)" d="m0 0h14v2l-4 1-2 5-1 2h-62v-9z" fill="#C7C1BD"/>
<path transform="translate(1133,1260)" d="m0 0h33l1 18h-25l-8-1-1-1z" fill="#C77909"/>
<path transform="translate(1133,1012)" d="m0 0h32l2 5-1 13h-32l-1-3z" fill="#C77909"/>
<path transform="translate(749,678)" d="m0 0 5 1 7 12-1 6-2 7-4 9-5 8-8 3-2-3 2-7-2-3v-6l4 1-2-4v-7h3l2 1-1-3v-7h3z" fill="#FCA17C"/>
<path transform="translate(619,1027)" d="m0 0h16l13 3v1l-8-1-16-1-9 1v13h50v-2l-5-2 1-2 14 8 9 3v1h-76v-20z" fill="#012D48"/>
<path transform="translate(1012,884)" d="m0 0 5 5-2 13-4 8-2 10 6 15v6h2v11l-3 12-4 10v13h-3l-3-8v-14l7-17v-15l-6-12-1-3v-14l7-14z" fill="#C8C1BD"/>
<path transform="translate(759,699)" d="m0 0h1v10l-5 10-3 2-3 6h-2l-1 7v10l1 5v10l-3 6-5 2-9-1-4-2v-2h-3l-5-6 1-3 1 3h3v2l11-1 5-3 1-3v-9l-2-6v-13h3l8-3 6-11z" fill="#C8C2BE"/>
<path transform="translate(935,688)" d="m0 0 7 3 1 5h2l2-5 2-1-3 9-4 3-4-1h-43l-1-2v-8l5-1 5 2 4 4 3-5 3-2 7 1 3 4v2l8-7z" fill="#025170"/>
<path transform="translate(1065,1071)" d="m0 0 3 3 3 5 10 6 13 5 24 5 15 2 22 1h9l3 3 1 3-2 3v-5l-9 1-30-1-21-3-21-6-13-7-5-5-2 3z" fill="#FAD62B"/>
<path transform="translate(781,930)" d="m0 0 3 3 2 5 1 4v10l-1 8-6 13v7l-1 5 5 11 2 3 1 5v13l-3 8-3-1v-2l-3-1 1-5 3-10-2-12-3-7-3-6-1-5v-7l3-9 4-8 1-10z" fill="#C8C2BE"/>
<path transform="translate(1065,1118)" d="m0 0 3 1 3 5 9 6 17 6 27 5 18 2h14 3 6l3 6-2 3-1-4h-15l-23-1-19-3-16-4-11-4-10-6-6-7z" fill="#FAD62B"/>
<path transform="translate(1065,982)" d="m0 0 3 2 3 5 10 6 13 5 25 5 14 2 16 1-1 3h2v-3h15v3h2l1 3-2 3-1-4h-14l-22-1-22-3-21-6-14-7-6-5h-1z" fill="#FAD62B"/>
<path transform="translate(1350,1096)" d="m0 0 6 1 16 3 1 4-9 11-2 3h-2l-2 4h-2l-1 4-3 4-3-1v-31z" fill="#F86250"/>
<path transform="translate(1066 1e3)" d="m0 0 4 5 6 5 8 4 19 6 36 5 2 3v-2h16v2l2 1-1-3h8l2 6-2 2v-4h-35l-26-4-15-4-16-7-7-7-2 3v-9z" fill="#FAD62B"/>
<path transform="translate(1065,960)" d="m0 0h2l4 6 5 4 11 5 22 6 30 4v2l2 1v-2h15v2l3-2h8l-1 4h-26l-23-2-20-4-17-6-9-6-4-4-2 1z" fill="#FAD72B"/>
<path transform="translate(1256,932)" d="m0 0 5 5 9 10 9 11 4 5h-14l-15-1v-14z" fill="#F86251"/>
<path transform="translate(938,1142)" d="m0 0h11l16 7v-7h12l1 1v12l-1 1h-13l-15-7v7h-12v-13z" fill="#FCDE2B"/>
<path transform="translate(1101,799)" d="m0 0h14l13 6 2-6h12v13h-15l-13-6v6h-13z" fill="#FCDE2B"/>
<path transform="translate(1423 1e3)" d="m0 0h9l30 10-4 2-2 4-4 3-8-1-16-5-5-3-2-4 1-5z" fill="#FBEBDD"/>
<path transform="translate(1201,985)" d="m0 0h14l14 6v-6h13v13h-14l-14-6-1 6h-12z" fill="#FCDE2B"/>
<path transform="translate(1256,855)" d="m0 0 7 1 4 1 2-2 1 3 11 7 7 8 1 2v7l-3 1v2h-8l-11-6-1-1-2 2 1-5 4-7-1-4-1-5-11-3z" fill="#FCEFE1"/>
<path transform="translate(1084,1245)" d="m0 0 6 1 14 4 18 3 17 2 27 1 2 5-2 3v-4h-31l-21-2-18-4-12-4z" fill="#FAD42B"/>
<path transform="translate(607,897)" d="m0 0h1l1 86 12 5 4 2h-6l-4-2v30l4 2h-11v29h-1z" fill="#E9BD9C"/>
<path transform="translate(1392,936)" d="m0 0h2l11 25 1 5h2l2-6 8-10 10-13 3-1-2 5-3 4 13 5 19 5 28 8 4 2h7v2h-2l-1 4v-3l-11-2-34-10-7-2-17-5-3 1-8 11h-2l-1 4h-2l-1 4-3 5h-2l1-7-10-22-2-5z" fill="#FCC3AA"/>
<path transform="translate(1084,1200)" d="m0 0 9 2 16 4 11 2 12 1 2 1 31 1 3 5-2 3v-4h-36l-30-5-16-5z" fill="#FAD42B"/>
<path transform="translate(973,454)" d="m0 0 7 1 5 5v9l-1 3 7 6-1 3-4-2-4-5-10 1-5-3-2-4v-8l5-5z" fill="#221F20"/>
<path transform="translate(1084,1178)" d="m0 0 6 1 20 5 23 3 24 2 1 1v-1h8l2 5-2 3v-4h-17v-2l-2-1-1 3-27-2-25-5-10-4z" fill="#FAD62B"/>
<path transform="translate(1063,835)" d="m0 0 2 3 1 11v222l-2 4-1-51 1-25z" fill="#FDD6BE"/>
<path transform="translate(1065,1088)" d="m0 0h1l1 8 2 5 4 2 8 5 22 7 29 4 2 5h-11l-18-3-15-4-12-5-6-4-5-5-2 3z" fill="#FAD62B"/>
<path transform="translate(165,958)" d="m0 0 3 3 12 20 10 18 6 11-1 3-4-5-8-15-17 2-52 8-6 1 1-4 27-4 12-2 33-5-8-13-5-9-4-7z" fill="#FCBEA5"/>
<path transform="translate(1246,941)" d="m0 0h3l-2 6-8 6-10 5-24 6-24 3h-16l1-2 7-1 1-2h15 2v-1h6l4 2v-2l-3-1 22-5 16-6 6-4z" fill="#FAD52B"/>
<path transform="translate(931,1135)" d="m0 0 2 1-6 4-3 5 1 5 2 4 13 6 20 6 16 2 41 1v1l-10 1h-29l-31-4-15-5-11-6-3-4v-7l5-6z" fill="#D9900D"/>
<path transform="translate(893,692)" d="m0 0h1l1 9 44-1 4 1 3-4 2-5 1 3-3 12h-51l-2-7z" fill="#012E4A"/>
<path transform="translate(269,1053)" d="m0 0v3l-2 5 1 5 8 4-1 2-5 3-4 3h-2v2l-8 1-4-3v-9h2l1-4 5-6z" fill="#FBEADC"/>
<path transform="translate(1196,977)" d="m0 0 3 1-8 5-4 5-1 1 4 5 6 5 7 3 11 4 8 1 2 1 26 3h38v1l-11 1h-39l-17-2-18-4-14-6-5-5-2-3 1-7 7-6z" fill="#D9900D"/>
<path transform="translate(551,329)" d="m0 0h1v311l-5 1-2 2 1-6 2-1v2h3z" fill="#C7BEB5"/>
<path transform="translate(753,1044)" d="m0 0h23l2 1-1 4h-4v13l-5 1-1-1v-13h-12v2l5 1v4h-5v7h-5l-1-5v-9l1-4z" fill="#FCDE2B"/>
<path transform="translate(949,1033)" d="m0 0 1 2-5 14h-42l2-10 2-3 1 6h36z" fill="#01729E"/>
<path transform="translate(1379 1e3)" d="m0 0 1 2 2 1-6 9-1 2 11 3 48 17 2 2-4 1-24-9-28-9v-2l-8-1-2 5-7 11-12 20h-2l2-7 15-24 7-10z" fill="#FCC0A7"/>
<path transform="translate(982,1044)" d="m0 0h24l2 1-1 4h-4v14h-5v-14h-13v3h5v4h-5v7h-5l-1-1v-17z" fill="#FCDE2B"/>
<path transform="translate(909,323)" d="m0 0h6l5 4 2 7-3 6-4 3h-7l-6-6v-8l5-5z" fill="#0D0F15"/>
<path transform="translate(689,323)" d="m0 0 8 2 3 4v8l-5 5-7 1-5-3-3-7 3-7 2-2z" fill="#0D0F15"/>
<path transform="translate(893,629)" d="m0 0h8l5 5v8l-4 5-2 1h-8l-5-5v-7l2-4h2v-2z" fill="#0088C8"/>
<path transform="translate(1366,843)" d="m0 0h8l-4 2-1 3 3 1h10l3-2-2-2 20 1v1l-7 1-3 4h-2v4l5 1-1 2-5-1-21-2-5-3-2-2v-5zm2 9 1 2 4-1v-1z" fill="#FACEBA"/>
<path transform="translate(1094,792)" d="m0 0 3 1-6 4-4 3-3 3-1 3 2 1 3-1v2l5 2 3 3 8 4 17 5 27 3h40v1l-9 1h-43l-22-3-20-6-10-7-2-4 1-7 5-5z" fill="#D9900D"/>
<path transform="translate(985,1142)" d="m0 0h28l1 4h-17v2l11-1 2 2-1 2h-12l-1 5h-12v-13z" fill="#FCDE2B"/>
<path transform="translate(1257,921)" d="m0 0h1l1 12 4 2 12 14 9 10v2h2l1-8 2-7h2v5l27-1h16l1 5-1-2-32 1-12 1-3 8-5-1-12-13-9-11-5-6z" fill="#FBC6AE"/>
<path transform="translate(1016,1142)" d="m0 0h34l2 1v3h-12v10h-12v-10h-12z" fill="#FCDE2B"/>
<path transform="translate(1148,799)" d="m0 0h30v3h-17v2h12v3h-12v5h-13z" fill="#FCDE2B"/>
<path transform="translate(1249,985)" d="m0 0h29v3h-17v2h13v3h-13v5h-12l-1-1v-8z" fill="#FCDE2B"/>
<path transform="translate(960,702)" d="m0 0h5l6 8 1-7 5-1v19h-5l-5-6-2 6h-5z" fill="#FCDE2B"/>
<path transform="translate(608,945)" d="m0 0 5 1 8 4-3 1-2-1-1 8-1 27-5-1-1-1z" fill="#006D95"/>
<path transform="translate(733,1044)" d="m0 0 4 2 4 5 2-7 4 1v18h-5l-6-7-1 7h-5v-18z" fill="#FCDE2B"/>
<path transform="translate(258,1104)" d="m0 0v3l-11 9 10 26 3 8v5l-3-3v-2l-35 2h-9l-3-2 21-2 21-1 3-1-3-8-8-20v-4l10-8z" fill="#FAC8B2"/>
<path transform="translate(973,1044)" d="m0 0 4 1v18h-5l-5-6-2 6h-5v-18h6l5 7 1-7z" fill="#FCDE2B"/>
<path transform="translate(1084,1155)" d="m0 0 9 2 16 4 22 3 3 3-1 3-17-2-23-5-9-3z" fill="#FAD62B"/>
<path transform="translate(990,896)" d="m0 0h2l1 74-1 45-2-2z" fill="#D8BD9A"/>
<path transform="translate(1280,985)" d="m0 0h36v3h-11v10h-13v-10h-11z" fill="#FCDE2B"/>
<path transform="translate(782,886)" d="m0 0 3 1 1 8-1 7-5 10v13l1 5-3-3-4-8v-15l5-10z" fill="#C8C2BE"/>
<path transform="translate(1084,1223)" d="m0 0 6 1 20 5 23 3 1 4-1 1-13-1-18-3-17-5z" fill="#FAD72B"/>
<path transform="translate(1181,799)" d="m0 0h35v3l-10 1-1 1-1 8h-12l-1-9-11-1z" fill="#FCDE2B"/>
<path transform="translate(649,576)" d="m0 0 6 1 6 9v3l-12 6-3 3h-2v-10l2-9z" fill="#F3E9DC"/>
<path transform="translate(686,593)" d="m0 0h11l1 7-7 12h-2v2h-2l-3-12-4-5v-2z" fill="#F4E7D8"/>
<path transform="translate(187,1020)" d="m0 0h9v2l-43 8-26 4h-2l11 17h5l-1 2h-5l-11-16 1-5 13-3 21-4 12-2z" fill="#FCC0A7"/>
<path transform="translate(346,558)" d="m0 0 1 3 4 2h-5l-4 6 7 4 3 2v2l5 1 12 4 10 1h8l14-3 11-6 6-7 2-4h2l-2 6-6 7-14 7-16 3-13-1-12-3-15-8-8-6 3-1 5-5z" fill="#DED8D5"/>
<path transform="translate(985,966)" d="m0 0 5 1v48h-11l-11 3-11 7-6 8-1-3 6-7 1-2 5-1v-2l11-4 4-1h10v-46z" fill="#006E96"/>
<path transform="translate(268,682)" d="m0 0h7l-4 3-11 3-13 8-7 5-9 11-4 8-3 14-2 2-1 3h-2l1-10 5-12 7-11 6-7 10-8 14-7z" fill="#D9900D"/>
<path transform="translate(1330,922)" d="m0 0h9l5 1v1l-5 1-1 5-4 4 5 2-3 1-12-3-4-3 1-5 5-3z" fill="#FBF6EB"/>
<path transform="translate(230,953)" d="m0 0 7 2 3 9 4 8 6 7 2 8v10l-3-4-7-17v-2h-2l-5-10-3-5v-2h-2z" fill="#FBCAB5"/>
<path transform="translate(745,968)" d="m0 0 6 2 5 2h5v42h-5l1-40-8-2-4-2z" fill="#F6D2BF"/>
<path transform="translate(767,1017)" d="m0 0 6 1 8 4 7 10 4 8 1 4v17l-4 11-5 7-11 8-5 1 3-3 9-6 4-5 1-3h2l3-11v-15l-3-11h-2l-5-8-5-4-8-4z" fill="#DD9614"/>
<path transform="translate(758,922)" d="m0 0 3 1v49h-4v-34l1-12-8-1 3-2z" fill="#01719D"/>
<path transform="translate(955,1039)" d="m0 0 1 4-1 9 3 10 5 8v2l4 2 9 5 3 1h17l-2 2-3 1h-15l-9-4-2-1v-2l-5-2-5-8-3-10 1-11z" fill="#D9900D"/>
<path transform="translate(979,702)" d="m0 0h13v5h-7l1 2 4 1v4h-5v7h-6z" fill="#FCDE2B"/>
<path transform="translate(1350,820)" d="m0 0 18 1 40 4h7l-2 6-2 2-1-4-14-2-23-2-29-3v-1z" fill="#FCC2A9"/>
<path transform="translate(1248,943)" d="m0 0h1v15l-1 2h-22v-2l10-4 10-7z" fill="#D88F0C"/>
<path transform="translate(1361,789)" d="m0 0 23 1 24 2 19 1-1 7-1-4-14-1-34-2-13-1-4-2z" fill="#FCC9B3"/>
<path transform="translate(1008,1023)" d="m0 0 4 2 5 5 5 10 2 10-1 12-4 10-7 9h-2v2l-5 3-4-1 9-6 6-8 2-7h2v-19l-5-13-7-8z" fill="#E19C17"/>
<path transform="translate(1201,959)" d="m0 0 17 1-4 2-22 4-11 1h-16l1-2 7-1 1-2h15 2v-1h6l4 2v-2l-3-1z" fill="#F1AF2A"/>
<path transform="translate(1394,754)" d="m0 0h37v3l-56 1-3-2 3-1z" fill="#FCB893"/>
<path transform="translate(723,1045)" d="m0 0h1l2 13 5 10 3 3v2l14 7h18l-2 2-3 1h-15l-9-4-7-5-5-8-2-4z" fill="#D9900D"/>
<path transform="translate(1064,970)" d="m0 0h2v101l-2 4-1-51 1-25z" fill="#FED7BF"/>
<path transform="translate(953,706)" d="m0 0h1l3 13v3h2l2 6h2v2h2v2l15 6 5 1 11-1-4 3h-16l-9-4-8-7-4-6-2-6-1-9z" fill="#D9900D"/>
<path transform="translate(1446,917)" d="m0 0 3 1 17 2 23 4 18 4 2 1v5l-1-3-5-1-40-7-2-1-15-2z" fill="#FCC5AD"/>
<path transform="translate(1011,992)" d="m0 0 3 3 2 6h1v15l-2 10h-2l-5-5 3-10z" fill="#C7C1BD"/>
<path transform="translate(163,957)" d="m0 0 2 1-1 3-51 2-12 1-1-3 29-2 33-1z" fill="#FBCBB6"/>
<path transform="translate(1133,1143)" d="m0 0h23 3 6l3 6-2 3-1-4h-15l-23-1v-1h7z" fill="#F3B12C"/>
<path transform="translate(1325,870)" d="m0 0 13 1 4 1 21 2 20 3-2 5-1-3h-8l-46-6-3-2z" fill="#FCC2A9"/>
<path transform="translate(1e3 678)" d="m0 0 5 1 5 4 7 12 3 12-1 12-4 11-5 5v-3l4-7 2-7v-15l-3-10-7-9-6-4z" fill="#E2A017"/>
<path transform="translate(154,993)" d="m0 0h12v2l-52 8-6 1 1-4 27-4 12-2z" fill="#FCC0A7"/>
<path transform="translate(414,547)" d="m0 0h2l6 12 15 2v1l-14-1-1 2v-2h-14v-12z" fill="#F3D3C0"/>
<path transform="translate(1132,1097)" d="m0 0 23 1h9l3 3 1 3-2 3v-5l-9 1-30-1v-1l6-1z" fill="#F2B02B"/>
<path transform="translate(1132,1007)" d="m0 0 17 1-1 3h2v-3h15v3h2l1 3-2 3-1-4h-14l-22-1 4-2z" fill="#F3B12C"/>
<path transform="translate(993,702)" d="m0 0h12l3 1-1 4h-4v14h-5l-1-14h-4z" fill="#FCDE2B"/>
<path transform="translate(972,458)" d="m0 0h6l4 5-1 5-3 3h-7l-3-4 1-6z" fill="#F3EBDE"/>
<path transform="translate(1362,1038)" d="m0 0 9 2 29 9v2l8 1 11 3-3 2-10-2-11-4-29-9-4-2z" fill="#FCBEA4"/>
<path transform="translate(1132,1255)" d="m0 0 34 1 2 5-2 3v-4h-31z" fill="#F3B12C"/>
<path transform="translate(718,1034)" d="m0 0 2 1-3 8-1 6h-20l3-2 11-7z" fill="#052D45"/>
<path transform="translate(1401,691)" d="m0 0 3 1-8 14-16 29-3 6-2-4 2-4h2l1-5 13-24z" fill="#FCC2AA"/>
<path transform="translate(1263,881)" d="m0 0h1v7l13 13 15 11 7 4-2 1-1 2-15-11-13-11-4-4-2 6h-1l1-14z" fill="#FCBCA3"/>
<path transform="translate(1133,1165)" d="m0 0 33 1 2 6-2 2v-4h-29l-4-2z" fill="#F3B12C"/>
<path transform="translate(1132,1120)" d="m0 0 33 1 3 4-2 4v-4h-27l-5-1z" fill="#F3B12C"/>
<path transform="translate(1014,653)" d="m0 0h1l2 14-1 12-2 3-5-2-1-3 3-7 1-16z" fill="#C7C1BD"/>
<path transform="translate(1132,1075)" d="m0 0h8l1 1h24l3 6-2 2v-4h-26l-6-1z" fill="#F3B02B"/>
<path transform="translate(1134,1210)" d="m0 0 31 1 3 5-2 3v-4h-26l-6-1-1-3z" fill="#F2B02B"/>
<path transform="translate(1087,758)" d="m0 0h1l4 16 3 10h-9l1-3h-2v-16z" fill="#FDD6BE"/>
<path transform="translate(815,945)" d="m0 0 2 2 4 10 4 11v10l-3 2-1-6h-1v-6l-3-6v-2h-2l-1-6v-8z" fill="#E1DAD3"/>
<path transform="translate(1133,1188)" d="m0 0h15l9 1 1 1v-1h8l2 5-2 3v-4h-17v-2l-2-1-1 3-13-1z" fill="#F4B22D"/>
<path transform="translate(1282,805)" d="m0 0h2l12 16 9 11 1 4 4 2 3 5-3 1-14-17-9-12-4-5v-3h-2l-1 3v-4z" fill="#FCC0A7"/>
<path transform="translate(688,983)" d="m0 0h2v2l-6 3-9 3-9 2-10 2h-10l-16-2-8-2v-1h7l13 2h12l14-2 16-5z" fill="#DFDAD7"/>
<path transform="translate(1020,1068)" d="m0 0 2 4h-2l5 8 2 9 5 10v2l4 1v3l-5-1-7-12-4-9v-6l-4-2z" fill="#E2D8D0"/>
<path transform="translate(1133,1030)" d="m0 0h6l2 3v-2h16v2l2 1-1-3h8l2 6-2 2v-4h-26l-6-1z" fill="#F3B02B"/>
<path transform="translate(1346,704)" d="m0 0h2l6 11 3 6v3h2l12 22-3 2-14-26-8-14-3-2z" fill="#FCC1A8"/>
<path transform="translate(1133,1233)" d="m0 0h14l1 3h2v-2h7 1 7l3 5-2 3v-4h-18l-15-1z" fill="#F3B12C"/>
<path transform="translate(217,1091)" d="m0 0h8v2l-50 9-1-2h-2l1-2h9l13-3 17-3z" fill="#FCC0A6"/>
<path transform="translate(1132,1052)" d="m0 0 15 1 1 3h2v-2h6v2h2v-2l6-1 1 3h2l1 3-2 3-1-4h-15l-17-1 1-3h-2z" fill="#F4B22D"/>
<path transform="translate(1133,985)" d="m0 0h6v2l2 1v-2h15v2l3-2h8l-1 4h-26l-6-1z" fill="#F3B12C"/>
<path transform="translate(1450,953)" d="m0 0 11 3 18 5 7 2 4 2h7v2h-2l-1 4v-3l-11-2-34-10z" fill="#FCC0A7"/>
<path transform="translate(252,998)" d="m0 0 2 2-1 4-4 7h-2l-1 4-13 20h-2l-1 4-3-2 5-7h2l1-4 7-11 9-14z" fill="#FCC1A8"/>
<path transform="translate(815,667)" d="m0 0 2 1 3 8 3 5 2 9v8l-3 3-2-4-1-11-5-15z" fill="#E2DAD3"/>
<path transform="translate(1353,947)" d="m0 0 2 3 3 6v4h2l9 19 3 5-1 2-3-1-11-23-4-8v-2l-5 3 2-5z" fill="#FCB9A0"/>
<path transform="translate(277,1076)" d="m0 0 4 4 3 2-2 7h-2l-2-2-12 13-5 4-2-1 9-10 10-11z" fill="#FCBDA3"/>
<path transform="translate(585,1012)" d="m0 0h2l7 14 1 4v7l-3 3-3-7-4-17z" fill="#E1DAD3"/>
<path transform="translate(1436,983)" d="m0 0 9 2 32 10-3 4-6-3-34-11z" fill="#FCBFA6"/>
<path transform="translate(1311,843)" d="m0 0h3l7 9 2 1 1-5h1l-1 7-6 15h7l-4 2h-4l-1 4h-2l1-7 5-12-2-4-7-8z" fill="#FCC1A8"/>
<path transform="translate(816,553)" d="m0 0 5 1 4 11v8l-2 7h-3l1-6-1-1-3-17z" fill="#E2DAD4"/>
<path transform="translate(815,1008)" d="m0 0 2 2 3 8 5 11v10h-2l-3-5-4-12z" fill="#E1DAD3"/>
<path transform="translate(223,944)" d="m0 0 5 2 2 5v6l2 1h-2l-2 6-5 10h-2l-1 5-3 6-4 1 2-5 13-24-1-6z" fill="#FCBFA6"/>
<path transform="translate(1320,893)" d="m0 0 24 1 25 3-4 3-27-3-15-2z" fill="#FCC5AD"/>
<path transform="translate(564,365)" d="m0 0h2v48h-2l-1-47z" fill="#00405E"/>
<path transform="translate(585,891)" d="m0 0 3 1 6 11 1 4v8l-3 2-2-8-4-11-2-4z" fill="#E2DAD4"/>
<path transform="translate(727,962)" d="m0 0 11 2 7 3v1l-8-1-5-2-9 1-7 2-6 4-3 4-7 3-3-1 16-11 9-4z" fill="#DCD7D4"/>
<path transform="translate(587,954)" d="m0 0h2l4 7 2 7v7l-2 4-6-16-1-4z" fill="#E1D9D3"/>
<path transform="translate(1429,936)" d="m0 0h2l-2 5-3 4 13 5 11 3v2l-11-2-17-5 2-6z" fill="#FCC3AA"/>
<path transform="translate(1437,862)" d="m0 0 2 1 2 10 6 20-1 5-2-3-9-29z" fill="#FCBCA3"/>
<path transform="translate(815,605)" d="m0 0 1 4h2l6 12 1 6-1 8-2-3v-3h-2l-3-11-2-8z" fill="#E1D9D3"/>
<path transform="translate(815,891)" d="m0 0 5 5v2h2l3 9-1 8-4-5-2-4-1-7-2-5z" fill="#E1DAD3"/>
<path transform="translate(278,820)" d="m0 0 3 1-3 4 6 2 17 1v-2h9l9-2 1 2-15 3-7 1-19-1-6-3 2-4z" fill="#F4B32C"/>
<path transform="translate(356,799)" d="m0 0 1 2h53v1l-23 1h-15l-17 1-1-2z" fill="#003855"/>
<path transform="translate(227,1038)" d="m0 0h2l-1 4h-2l-1 4-5 7h-2l4 8-1 4-8-15v-4h2l3 5 7-11z" fill="#FCC7AE"/>
<path transform="translate(883,619)" d="m0 0h7l7 6-2 2h-9l-3-1z" fill="#ECE4D8"/>
<path transform="translate(1330,922)" d="m0 0h9l5 1v1l-5 1-1 5-4 4 5 2-3 1-12-3-4-3 1-5 5-3zm-3 2-4 1-2 5 4 3 6 1 5-4 1-5-1-1z" fill="#FBC1AA"/>
<path transform="translate(180,905)" d="m0 0 4 1 6 4-1 2-6-4-11 22h-3l2-6z" fill="#FBBBA2"/>
<path transform="translate(462,584)" d="m0 0 3 3 1 5-2-1v49h-1l-1-21z" fill="#047AB1"/>
<path transform="translate(1402,972)" d="m0 0 1 2 6-1 15 5 10 4 2 2-8-1-9-3-13-4-6-1z" fill="#FCBEA4"/>
<path transform="translate(1299,914)" d="m0 0h2l-1 8-3 10-2 6-3 10-2-2 2-10 3-9 2-10h2z" fill="#FCC2A9"/>
<path transform="translate(1256,855)" d="m0 0 7 1 4 1 2-2 1 3 5 3-2 1-4-1 2 3v7l-3 4v2l6 4-2 1-6-4-2 2 1-5 4-7-1-4-1-5-11-3z" fill="#FCCBAD"/>
<path transform="translate(301,667)" d="m0 0 10 1 14 5 11 6 4 4h-4l-9-6-12-5-14-4z" fill="#D0840B"/>
<path transform="translate(394,524)" d="m0 0 22 2-5 5h-8l-9-6z" fill="#15161C"/>
<path transform="translate(1201,959)" d="m0 0 17 1-4 2-15 3h-7l-1-4h6l4 2v-2l-3-1z" fill="#F4B62C"/>
<path transform="translate(1449,910)" d="m0 0h1v5l-3 3-3 4h-2l-1 4-3 1-1 4-5 6-3-2 5-6 3-3 9-12z" fill="#FCBEA4"/>
<path transform="translate(1381,905)" d="m0 0 2 2 8 22 1 7-3-3-9-24v-3z" fill="#FCC5AC"/>
<path transform="translate(1385,846)" d="m0 0 8 1-1 4-4 4-9-1v-3h3v-2z" fill="#FAF1E6"/>
<path transform="translate(1336,819)" d="m0 0 2 1-3 9-9 21-2-4 9-21z" fill="#FCC0A7"/>
<path transform="translate(343,684)" d="m0 0 5 2 2 1 3 5 9 10 5 10 3 8-1 4-5-12-3-6v-2h-2l-3-5-8-10z" fill="#047AB1"/>
<path transform="translate(132,1030)" d="m0 0h11l-2 2-16 2 11 17h5l-1 2h-5l-11-16 1-5z" fill="#FCC3AA"/>
<path transform="translate(346,558)" d="m0 0 1 3 4 2h-5l-4 6 7 4 3 2v2l5 1 2 1v2l-6-2-9-5-8-6 3-1 5-5z" fill="#E2D9D4"/>
<path transform="translate(1064,1076)" d="m0 0h1l1 12v30l-1 11-4-1h3l-1-14z" fill="#FDD6BE"/>
<path transform="translate(1480,923)" d="m0 0 19 3 10 3v5l-1-3-5-1-23-4z" fill="#FCC2A9"/>
<path transform="translate(483,583)" d="m0 0 4 1 14 14 11 9 1 2-4-1-11-10-2-1v-2l-4-2-2-4-4-2v-2h-3z" fill="#2D88B3"/>
<path transform="translate(1363,1030)" d="m0 0h2l-1 5-6 9-7 12h-2l2-7z" fill="#FCC4AC"/>
<path transform="translate(154,993)" d="m0 0h12v2l-26 4h-5l1-3 12-2z" fill="#FCBDA2"/>
<path transform="translate(1383,845)" d="m0 0 20 1v1l-7 1-3 4h-2v4l5 1-1 2-5-1-14-1v-1l12-1 2-4 2-1 1-3-10-1z" fill="#FBBFA6"/>
<path transform="translate(1407,1030)" d="m0 0 7 1 20 7 2 2-4 1-24-9z" fill="#FCC2AA"/>
<path transform="translate(258,1104)" d="m0 0v3l-11 9 3 10h-3l-3-8v-4l10-8z" fill="#FCC5AD"/>
<path transform="translate(1132,1097)" d="m0 0 15 1 3 3-1 1h-22v-1l6-1z" fill="#F2B02B"/>
<path transform="translate(977,672)" d="m0 0h14v2l-18 1-9 4-8 7-2-1 7-7 6-4z" fill="#D99014"/>
<path transform="translate(114,960)" d="m0 0 30 1v1l-31 1-12 1-1-3z" fill="#FCBAA1"/>
<path transform="translate(513,610)" d="m0 0 5 2 10 9 11 8 6 4-3 1-9-6v-2l-4-2-10-7v-2l-4-2z" fill="#2787B3"/>
<path transform="translate(380,480)" d="m0 0h14l9 4v2l-10-2-14-1z" fill="#141823"/>
<path transform="translate(201,1023)" d="m0 0h2l2 4v3h2l7 14-2 4-10-19z" fill="#FCBFA6"/>
<path transform="translate(159,1025)" d="m0 0 9 1v1l-20 4-10-1v-1z" fill="#FCBBA2"/>
<path transform="translate(1132,1007)" d="m0 0 17 1v4h-20l4-2z" fill="#F2B02B"/>
<path transform="translate(1358,874)" d="m0 0 12 1 13 2-2 5-1-3h-8l-14-2z" fill="#FCBA9D"/>
<path transform="translate(1349,789)" d="m0 0 7 1v1h-5l-2 6-8 18h-1v-6z" fill="#FCBEA1"/>
<path transform="translate(1374,739)" d="m0 0h2l-1 5-6 12 6 1v1l-8 1-2 1 1-6 3-7h2l2-6z" fill="#FBCCB7"/>
<path transform="translate(223,1171)" d="m0 0h31v3h-14l-13 1-2 1v-2l-2-1z" fill="#F9C2A9"/>
<path transform="translate(1036,366)" d="m0 0h1v47h-1l-1-32-1-1v-8z" fill="#00688E"/>
<path transform="translate(1263,881)" d="m0 0h1v7l11 11-3 2-8-8-2 6h-1l1-14z" fill="#FCB89D"/>
<path transform="translate(1401,691)" d="m0 0 3 1-12 21-3-1 11-20z" fill="#FCBDA4"/>
<path transform="translate(977,1013)" d="m0 0h10v1l-17 3-10 6-10 10 1-4 6-8 5-1v-2l11-4z" fill="#047AB1"/>
<path transform="translate(234,1092)" d="m0 0 3 1 8 19-2 4-9-21z" fill="#FCC1A8"/>
<path transform="translate(1133,1188)" d="m0 0h15l2 2h-3l-1 3-13-1z" fill="#F3B02B"/>
<path transform="translate(116,1020)" d="m0 0 3 4 3 5-1 2-1-1-2 16h-1l-1-15z" fill="#FBCDB7"/>
<path transform="translate(184,990)" d="m0 0 4 5 8 15-1 3-4-5-7-13z" fill="#FCC1A8"/>
<path transform="translate(1249,902)" d="m0 0h1v40l-3-1 1-6v-15h-2l2-7z" fill="#F9D25A"/>
<path transform="translate(230,953)" d="m0 0 7 2 1 1v10l-5-5-1-4h-2z" fill="#FAE4D4"/>
<path transform="translate(355,505)" d="m0 0 7 3 4 2v6l-5-2-8-6 2-1z" fill="#16171B"/>
<path transform="translate(212,1069)" d="m0 0h7l-2 2-17 4h-8l3-2z" fill="#FCC6AE"/>
<path transform="translate(1350,1096)" d="m0 0 6 1 16 3 1 4-17-4-6-2z" fill="#FCBFA6"/>
<path transform="translate(199,1008)" d="m0 0h2l-1 4-1 3 3 6-1 3-2-1v-2l-7-1v-1h5l-2-4v-3h2z" fill="#FBC8B2"/>
<path transform="translate(456,563)" d="m0 0h6l9 7 10 9-3 1-7-6-5-5-5-3v-2h-5z" fill="#4D94B5"/>
<path transform="translate(217,1091)" d="m0 0h8v2l-17 3h-8v-2l12-2z" fill="#FCC4AB"/>
<path transform="translate(767,1017)" d="m0 0 6 1 8 4 6 8-2 4-5-8-5-4-8-4z" fill="#E9A61F"/>
<path transform="translate(1346,704)" d="m0 0h2l6 11 3 7-2 2-3-6-6-10-3-2z" fill="#FCBEA5"/>
<path transform="translate(1008,1023)" d="m0 0 4 2 5 5 5 10v6l-2-1-5-13-7-8z" fill="#DF9815"/>
<path transform="translate(181,987)" d="m0 0 3 1v5l-18 1-3-2 18-3z" fill="#FCC5AD"/>
<path transform="translate(1350,820)" d="m0 0 18 1 1 3-17-1-8-1v-1z" fill="#FCBCA3"/>
<path transform="translate(1334,808)" d="m0 0h3l1 4h2v6l9 1 1 2h-12l-1-1v-6l-1-4h-2z" fill="#FCCBB4"/>
<path transform="translate(643,717)" d="m0 0 12 2 17 4v1h-9l-17-4-3-1z" fill="#D9CCBD"/>
<path transform="translate(296,596)" d="m0 0 4 5 1 4-2-1v23h-1l-1-6-2-24z" fill="#047AB1"/>
<path transform="translate(348,487)" d="m0 0 3 3 1 8 3 1 3 7-6 1-4-16z" fill="#4A3924"/>
<path transform="translate(149,933)" d="m0 0 5 5 5 8v3h2v3h-2v-2h-2l-3-5v-3h-2l-4-8z" fill="#FBC5AD"/>
<path transform="translate(1311,843)" d="m0 0h3l7 9 2 1 1-5h1l-1 7-1 2h-2l-9-11z" fill="#FCC9B1"/>
<path transform="translate(1021,711)" d="m0 0h2v8l-4 11-5 5v-3l4-7z" fill="#DE9714"/>
<path transform="translate(712,631)" d="m0 0h7l3 2-3 1h-8l-2 4 1 5 4 5-1 3-4-6-3-5 1-5z" fill="#DAD0C7"/>
<path transform="translate(239,1020)" d="m0 0 2 3-8 12h-2l-1 4-3-2 5-7h2l1-4z" fill="#FCBDA3"/>
<path transform="translate(1318,950)" d="m0 0h16l1 5-1-2h-16z" fill="#FCB195"/>
<path transform="translate(1422,945)" d="m0 0 1 4-9 12-4 1 2-4 9-12z" fill="#FCBDA4"/>
<path transform="translate(341,809)" d="m0 0m-1 1m-1 1m-1 1m-1 1m-1 1m-2 1h2v3l-7 4h-2l-1 5-2-2h-5l4-3z" fill="#DB8C14"/>
<path transform="translate(242,973)" d="m0 0 6 5 2 7v4l-3-1-5-12z" fill="#F8E3D5"/>
<path transform="translate(1257,921)" d="m0 0h1l1 12 4 2 4 5-1 4-10-12z" fill="#FCBA9F"/>
<path transform="translate(1323,792)" d="m0 0h2l11 15-3 2-10-14z" fill="#FCBEA4"/>
<path transform="translate(565,1191)" d="m0 0h1v25l-2-1-1-21z" fill="#00405E"/>
<path transform="translate(213,1181)" d="m0 0 2 1v2l5 1 6 3v3l5-1 1 2-3 3v-2l-5-1-5-5-3-1 1 5-2-2z" fill="#F9C8B3"/>
<path transform="translate(1349,1120)" d="m0 0 7 1-1 5-3 4-3-1z" fill="#F9866B"/>
<path transform="translate(1436,983)" d="m0 0 9 2 9 3v3l-11-3-9-3z" fill="#FCBBA1"/>
<path transform="translate(208,952)" d="m0 0h7l-5 5-5 3h-3l1-4z" fill="#FBD2BE"/>
<path transform="translate(658,614)" d="m0 0 7 1 2 4-3 2-5-1-2-5z" fill="#0C2235"/>
<path transform="translate(323,562)" d="m0 0h8l5 4 2 4-4-2-3-3h-21v-1z" fill="#5396B5"/>
<path transform="translate(931,1135)" d="m0 0 2 1-6 4-3 5-2 2-2 4-1-8 6-5z" fill="#DF9815"/>
<path transform="translate(788,1070)" d="m0 0v3l-4 6-11 8-5 1 3-3 9-6 4-5 1-3z" fill="#E7A41C"/>
<path transform="translate(1492,860)" d="m0 0 1 2 3 1-6 5-7 8-2-2 7-8z" fill="#FCBCA3"/>
<path transform="translate(617,665)" d="m0 0h1l2 18 10 4v2l4 2-5-1-11-6-2-3z" fill="#0277AA"/>
<path transform="translate(318,690)" d="m0 0 5 1 9 7 3 3v2l-4-2-12-9z" fill="#D9900D"/>
<path transform="translate(420,563)" d="m0 0h2l-2 6-6 7-10 5 1-3 8-5 5-6z" fill="#DED8D5"/>
<path transform="translate(249,1126)" d="m0 0h2l5 13v5h-2l-2-6-4-9z" fill="#FCBEA5"/>
<path transform="translate(1397,1050)" d="m0 0 11 2 11 3-3 2-10-2-9-4z" fill="#FBC2AB"/>
<path transform="translate(1300,830)" d="m0 0 4 1 2 2v3l4 2 3 5-3 1-10-12z" fill="#FCBEA5"/>
<path transform="translate(1030,1116)" d="m0 0h6v7l-7-1v-3z" fill="#EBD9CD"/>
<path transform="translate(723,1045)" d="m0 0h1l2 13 3 6-1 3-3-1-2-4z" fill="#DA910E"/>
<path transform="translate(1370,985)" d="m0 0 5 5 5 11-3 1-7-14z" fill="#FCC0A7"/>
<path transform="translate(1e3 678)" d="m0 0 5 1 5 4 4 6v2l-4-2-6-7-4-2z" fill="#E7A41D"/>
<path transform="translate(233,681)" d="m0 0 3 1-6 7-9 9-4 5 1-4 9-11 6-5z" fill="#F5BA2C"/>
<path transform="translate(893,629)" d="m0 0h8l5 5v8l-3 3 1-9-3-4h-10v-2z" fill="#0271A0"/>
<path transform="translate(420,567)" d="m0 0 1 3-9 10-11 4-4-1 12-5 8-6z" fill="#047AB1"/>
<path transform="translate(1289,946)" d="m0 0h2v5h12l-1 3-14 1z" fill="#FCB08F"/>
<path transform="translate(1441,879)" d="m0 0 2 1 4 13-1 5-2-3-3-10z" fill="#FCBFA5"/>
<path transform="translate(266,814)" d="m0 0 4 1-5 5h-3l-2 4-3 2-7-1-1-2 7 1 7-7 4-1z" fill="#F4B22D"/>
<path transform="translate(1364,758)" d="m0 0 2 4-7 14-2-4 1-2h2l1-6z" fill="#FCC2A9"/>
<path transform="translate(423,492)" d="m0 0 6 1 1 2-4 1v3l-4-1-3-1 2-4z" fill="#24201F"/>
<path transform="translate(426,484)" d="m0 0h7l2 2-13 3-4 4-2-1 7-7z" fill="#32242C"/>
<path transform="translate(1361,789)" d="m0 0 23 1v1l-10 1h-10l-4-2z" fill="#FCB89B"/>
<path transform="translate(670,545)" d="m0 0 5 2 3 2v2l8 4h-6l-8-5z" fill="#E2DAD4"/>
<path transform="translate(146,1171)" d="m0 0 3 4 1 2 3 2-2 13h-1l-1-9-2-3z" fill="#FBC7AF"/>
<path transform="translate(392,453)" d="m0 0 11 2 9 3 2 2-7-1-17-4z" fill="#0F1118"/>
<path transform="translate(264,1061)" d="m0 0h2l3 6 7 3-1 2-5 2-5-9z" fill="#E6CFC3"/>
<path transform="translate(1375,755)" d="m0 0h14v2l-4 1h-10l-3-2z" fill="#FCBFA5"/>
<path transform="translate(292,659)" d="m0 0 3 1 1 6h-12l5-5z" fill="#E0D0C6"/>
<path transform="translate(425,455)" d="m0 0 6 2 2 4 1 7h-2l-4-10h-9l2-2z" fill="#0F1119"/>
<path transform="translate(256,1142)" d="m0 0 2 2 2 6v5l-3-3v-2h-5v-3l3-1z" fill="#FBB89E"/>
<path transform="translate(835,533)" d="m0 0 8 1 2 4 5 1v1l-10-1-3-2v-2h-2z" fill="#E1D9D3"/>
<path transform="translate(277,1076)" d="m0 0 4 4 3 2-2 7h-2v-4h-2z" fill="#E4D5C4"/>
<path transform="translate(1446,896)" d="m0 0 2 1 2 6v6l3 1-3 3-4-11z" fill="#FBCAB3"/>
<path transform="translate(1480,875)" d="m0 0h2l-2 5-7 7-2-2z" fill="#FCC3AB"/>
<path transform="translate(1256,855)" d="m0 0 7 1 4 1 2-2 1 3 5 3-2 1h-6v-3l-11-3z" fill="#FBD3BE"/>
<path transform="translate(318,824)" d="m0 0 2 2-15 3-7 1-5-1v-1h8v-2h9z" fill="#EFAC27"/>
<path transform="translate(1158,1234)" d="m0 0h7l3 5-2 3v-4h-7l-2-2z" fill="#F4B22D"/>
<path transform="translate(1160,1053)" d="m0 0 5 1v2h2l1 3-2 3-1-4-8-1 1-3z" fill="#F4B22D"/>
<path transform="translate(1158,1031)" d="m0 0h8l2 6-2 2v-4h-8z" fill="#F4B22D"/>
<path transform="translate(1139,985)" d="m0 0h27v1l-7 1-3 1v-2h-15v2l-3-1z" fill="#D9900D"/>
<path transform="translate(1411,961)" d="m0 0 1 3-3 1-1 4-3 5h-2l1-5 2-4 2 1 1-4z" fill="#FCCCB4"/>
<path transform="translate(141,920)" d="m0 0 4 5 5 8h-4l-5-8z" fill="#FCBFA5"/>
<path transform="translate(1381,905)" d="m0 0 2 2 3 8-1 5-2-2-4-11z" fill="#FCBAA0"/>
<path transform="translate(386,490)" d="m0 0h9l2 2-4 1v4l-4-1v-5z" fill="#17181F"/>
<path transform="translate(790,1068)" d="m0 0h1v5l1 3-1 2-7 1 2-4z" fill="#EAD7CB"/>
<path transform="translate(227,1038)" d="m0 0h2l-1 4h-2l-1 4-4 6-2-3z" fill="#FCC4AB"/>
<path transform="translate(1464,921)" d="m0 0h10l6 2v2l-10-1-6-2z" fill="#FCC3AA"/>
<path transform="translate(1330,922)" d="m0 0h9l5 1v1l-5 1-2 2-1-2h-13l3-2z" fill="#FCBDA4"/>
<path transform="translate(174,917)" d="m0 0h3l-3 9-3 4h-2l2-6z" fill="#FCBDA3"/>
<path transform="translate(959,876)" d="m0 0 6 1v2h5v2l2 1h-7l-6-4z" fill="#E2DAD4"/>
<path transform="translate(731,560)" d="m0 0 7 2 5 6-6-1-6-5z" fill="#E2DAD4"/>
<path transform="translate(1160,1098)" d="m0 0 6 1 2 5-2 3v-5l-7 1-1-2z" fill="#F4B22D"/>
<path transform="translate(1139,1030)" d="m0 0h25v1l-5 1v2l-3-1v-1l-15-1v2l-3-1z" fill="#D9900D"/>
<path transform="translate(1400,952)" d="m0 0 2 3 4 8-2 4-5-11z" fill="#FCC0A7"/>
<path transform="translate(1429,936)" d="m0 0h2l-2 5-4 7-3-1 2-5z" fill="#FCC9B2"/>
<path transform="translate(1329,834)" d="m0 0 2 4-5 12-2-4z" fill="#FCBEA4"/>
<path transform="translate(1282,805)" d="m0 0h2l6 8-1 3-5-5-1-4h-2l-1 3v-4z" fill="#FBC1A9"/>
<path transform="translate(889,632)" d="m0 0 2 1-1 2v8l4 3v2l-5-2-2-3v-7z" fill="#0271A1"/>
<path transform="translate(483,583)" d="m0 0 4 1 10 10-3 1-4-4v-2l-4-2v-2h-3z" fill="#4692B5"/>
<path transform="translate(728,876)" d="m0 0 8 1 3 2v2l2 1h-6l-6-4z" fill="#E2DAD4"/>
<path transform="translate(1381,726)" d="m0 0 2 3-6 12-2-4 2-4h2l1-5z" fill="#FCC0A7"/>
<path transform="translate(205,998)" d="m0 0 3 1-5 9-2 1-2-2z" fill="#FCBCA2"/>
<path transform="translate(123,896)" d="m0 0 4 2 2 3v3l3 1-1 3-5-5-2-5-2-1z" fill="#FCC2AA"/>
<path transform="translate(1310,891)" d="m0 0 12 1 1 3-13-1z" fill="#FCB691"/>
<path transform="translate(1390,853)" d="m0 0 1 3 5 1-1 2-5-1-14-1v-1l13-2z" fill="#FABAA2"/>
<path transform="translate(359,580)" d="m0 0 8 1 8 2v2l-9-1-7-2z" fill="#DBD6D2"/>
<path transform="translate(222,1063)" d="m0 0 3 4 1 4h-9v-3h4z" fill="#FCBCA3"/>
<path transform="translate(837,876)" d="m0 0 8 2 1 2 3 2-9-1v-2h-3z" fill="#E2DAD3"/>
<path transform="translate(1299,760)" d="m0 0v3l-4 9-1-3 1-4-6-3 2-1h7z" fill="#FCC9B1"/>
<path transform="translate(227,1089)" d="m0 0h8l1 4h-3v-2l-2 1-9-1v-1z" fill="#FAB9A0"/>
<path transform="translate(201,1023)" d="m0 0h2l2 4v3h2l1 4-2 2-5-10z" fill="#FCBCA2"/>
<path transform="translate(161,946)" d="m0 0h3l-1 7 2 5-3 1-3-7h2z" fill="#FCBCA3"/>
<path transform="translate(1344,801)" d="m0 0h2l-1 5-4 9h-1v-6z" fill="#FCC2A8"/>
<path transform="translate(530,624)" d="m0 0 4 1 11 8-3 1-9-6v-2l-3-1z" fill="#3C8EB4"/>
<path transform="translate(614,534)" d="m0 0 4 1 4 3 3 1v2l-7-1v-2l-4-1z" fill="#E2DAD4"/>
<path transform="translate(983,473)" d="m0 0 5 2 3 3-1 3-4-2-3-4z" fill="#2B241F"/>
<path transform="translate(1013,1076)" d="m0 0h2l-2 4-3 1v2l-5 3-4-1 9-6z" fill="#E8A528"/>
<path transform="translate(259,1016)" d="m0 0 4 4 2 5-1 5-2-2-3-9z" fill="#FABEA7"/>
<path transform="translate(1384,998)" d="m0 0h2l-1 4-3 4h-2l-2-5 4 1z" fill="#FACAB4"/>
<path transform="translate(219,974)" d="m0 0 2 3-4 8-4 1 2-5z" fill="#FBBDA1"/>
<path transform="translate(707,971)" d="m0 0 3 1-3 4-7 3-3-1z" fill="#DFDAD7"/>
<path transform="translate(1480,923)" d="m0 0 14 2-3 2-11-1z" fill="#FCBDA3"/>
<path transform="translate(1458,900)" d="m0 0 3 1-6 8h-3l2-4z" fill="#FCBDA3"/>
<path transform="translate(1231,806)" d="m0 0 1 3-5 5-7 4-3-1 10-6z" fill="#D9900D"/>
<path transform="translate(966,684)" d="m0 0 2 1-12 12 2-5 1-3z" fill="#E19A16"/>
<path transform="translate(347,573)" d="m0 0 5 2v2l5 1 2 1v2l-6-2-8-4z" fill="#DED9D6"/>
<path transform="translate(902,1259)" d="m0 0 2 4-1 1-1 20h-1v-22z" fill="#F4B22D"/>
<path transform="translate(223,1171)" d="m0 0 17 2v1l-13 1-2 1v-2l-2-1z" fill="#FAC8B3"/>
<path transform="translate(1132,1052)" d="m0 0 9 1-2 4h-6l1-3h-2z" fill="#F0AD28"/>
<path transform="translate(1362,1038)" d="m0 0 9 2 4 2-6 1-7-3z" fill="#FCBCA3"/>
<path transform="translate(1423 1e3)" d="m0 0h9l3 2-9-1v2h-3v5l-2-2 1-5z" fill="#FCC2A9"/>
<path transform="translate(184,990)" d="m0 0 4 5 3 5-1 2h-2l-4-7z" fill="#FCBEA5"/>
<path transform="translate(1416,793)" d="m0 0h11l-1 7-1-4h-7z" fill="#FCB196"/>
<path transform="translate(1374,739)" d="m0 0h2l-1 5-3 6h-3v-3h2l2-6z" fill="#FCC8B0"/>
<path transform="translate(411,530)" d="m0 0 2 1-2 3h-8v-3z" fill="#F16A4C"/>
<path transform="translate(1369,1020)" d="m0 0 2 3-5 9-2-4z" fill="#FCBBA1"/>
<path transform="translate(252,998)" d="m0 0 2 2-1 4-3 5h-3l2-5z" fill="#FCBBA2"/>
<path transform="translate(1421,979)" d="m0 0 8 1 7 3v1l-8-1-7-3z" fill="#FCC8AF"/>
<path transform="translate(1273,900)" d="m0 0 4 1 6 5-1 3-9-8z" fill="#FBC4AC"/>
<path transform="translate(1414,825)" d="m0 0v3l-2 5-2-4-8-1v-1z" fill="#FCB79D"/>
<path transform="translate(581,663)" d="m0 0 1 4-3 13h-1v-10z" fill="#D8C5AE"/>
<path transform="translate(361,509)" d="m0 0 5 1v6l-5-2-1-2z" fill="#10131B"/>
<path transform="translate(960,1022)" d="m0 0 2 1-12 12 2-5 5-6z" fill="#E6BB47"/>
<path transform="translate(960,1020)" d="m0 0v3l-10 10 1-4 6-8z" fill="#0379AF"/>
<path transform="translate(971,971)" d="m0 0h2v2l-10 5-3-1 9-5z" fill="#026D9A"/>
<path transform="translate(1191,961)" d="m0 0h6l3 3-1 1h-7z" fill="#F4B22D"/>
<path transform="translate(165,958)" d="m0 0 3 3 3 5-1 4-6-10z" fill="#FCC5AD"/>
<path transform="translate(1287,953)" d="m0 0 2 2-1 7-4 1-2-1v-2l4 1z" fill="#FCC6AE"/>
<path transform="translate(1325,870)" d="m0 0 13 1v1l-12 1-3-2z" fill="#FCB59A"/>
<path transform="translate(590,548)" d="m0 0 2 1 1 5v7l-2 2z" fill="#E4DDD8"/>
<path transform="translate(354,489)" d="m0 0 1 2-1 9-3-2v-7z" fill="#0E1017"/>
<path transform="translate(1132,1075)" d="m0 0h8l-1 4h-5z" fill="#F1AF2A"/>
<path transform="translate(968,1025)" d="m0 0 2 1-10 9-2 1 1-5h3v-2z" fill="#E29B18"/>
<path transform="translate(1379 1e3)" d="m0 0 1 2 2 1-5 7-3-2z" fill="#FCBCA2"/>
<path transform="translate(607,876)" d="m0 0 6 2 5 4h-6l-2-1v-2l-3-1z" fill="#E2DBD4"/>
<path transform="translate(1317,868)" d="m0 0 1 2h7l-4 2h-4l-1 4h-2l1-7z" fill="#FCCEB7"/>
</svg>
