<?xml version="1.0" encoding="UTF-8"?>
<svg version="1.1" viewBox="0 0 2048 2048" width="512" height="512" xmlns="http://www.w3.org/2000/svg">
<path transform="translate(0)" d="m0 0h2048v2048h-2048z" fill="#FDFDFD"/>
<path transform="translate(911,389)" d="m0 0h10l25 5 54 13 60 15 55 13 64 16 111 27 172 42 31 8 16 6 13 8 9 8 9 13 6 12 3 12v19l-7 33-22 89-16 64-11 46-30 120-23 93-19 79-8 31-6 16-7 12-12 12-16 10-14 5-5 1h-16l-15-3-71-18-51-12-40-10h-10l-74 20-146 39-61 16-62 17-79 21-13 3h-22l-13-4-14-7-9-7-9-9-7-11-6-17-10-37-11-46-16-64-14-58-12-49-10-42-32-128-13-55-14-54-4-20v-20l2-10 5-13 7-11 11-12 13-9 11-5 36-12 108-34 50-16 45-14 43-14 5-18 13-51 6-16 7-11 6-7 14-10 16-7z" fill="#B1B1B1"/>
<path transform="translate(923,472)" d="m0 0 10 1 52 12 74 18 93 23 63 15 235 58 17 5-2 12-10 43-17 69-12 49-12 47-13 52-3-1-22-33-14-22-18-27-15-24-10-14-8-8-14-7-9-2h-14l-10 3-11 6-13 10-16 13-10 8-28 22-16 13-13 10-16 13-13 10-16 13-14 11-14 10-6 3h-13l-9-4-6-4-7-8-10-11-9-11-12-14-9-11-12-14-8-9-10-8-15-7-13-3h-19l-16 5-33 16-17 9-19 9h-3l3-15 13-54 16-64 19-79 16-64 17-67z" fill="#FEFEFE"/>
<path transform="translate(804,604)" d="m0 0h4l-4 18-20 81-21 87-28 113-21 83-3 16v13l4 16 7 14 8 10 7 7 11 7 11 5 29 8 91 22 67 17 41 10v3l-35 10-134 36-72 19-32 8-4-2-16-64-13-54-16-64-20-79-13-54-18-73-32-128-2-9v-4l14-5 46-15 50-16 108-34z" fill="#FEFEFE"/>
<path transform="translate(1238,1427)" d="m0 0h23l16 3 12 5 11 7 8 7 10 14 6 12 4 15v23l-4 16-7 14-7 9-9 9-11 7-12 5-12 3-7 1h-15l-17-3-13-5-12-7-12-11-9-14-5-11-3-13v-19l3-16 5-13 10-14 10-9 13-8 18-6z" fill="#787878"/>
<path transform="translate(587,1427)" d="m0 0h24l17 4 16 8 10 8 10 12 8 16 4 13 1 8v9l-2 13-5 16-7 12-9 11-14 10-14 6-12 3-7 1h-15l-17-3-13-5-10-6-10-8-8-10-6-10-5-14-2-10v-18l3-15 6-14 9-13 9-8 11-7 11-5 11-3z" fill="#787878"/>
<path transform="translate(1070,564)" d="m0 0 15 1 13 3 17 8 10 9 7 8 8 14 4 10 3 13v14l-4 15-8 16-8 10-7 7-14 9-12 5-9 2h-19l-17-4-13-7-10-8-7-7-9-14-5-12-3-15v-11l3-14 5-12 5-9 10-12 12-9 12-6 12-3z" fill="#B2B2B2"/>
<path transform="translate(698,1427)" d="m0 0h24l11 12 13 17 13 16 10 13 13 16 14 17v2h2l-1-9v-83l1-1h29l1 4v145l-1 1h-18l-9-3-9-10-11-14-14-18-13-17-11-13-8-10-5-7-1 2-1 89-1 1h-28l-1-2v-147z" fill="#787878"/>
<path transform="translate(1534,1427)" d="m0 0h24l8 8 33 42 12 15 11 14 10 13 2 1v-93h29l1 1v43l-1 106h-19l-7-3-9-9-11-14-28-36-12-15-11-14v-2h-2v92l-1 1h-29z" fill="#777"/>
<path transform="translate(370,1427)" d="m0 0h33l2 1v59h58l1-60h35l1 1v148l-1 1h-34l-1-1v-64l-59 1-1 63-1 1h-33z" fill="#787878"/>
<path transform="translate(1694,1427)" d="m0 0h34l1 2v58h59l1-60h34l1 1v148l-5 1h-30l-1-64h-59l-1 64h-33l-1-1z" fill="#787878"/>
<path transform="translate(1427,1427)" d="m0 0h36l10 25 17 45 29 75 1 4-1 1h-29l-5-3-5-10-7-20-57-1-3 11-6 17-5 5-7 1h-25l-1-2 4-8 18-47 15-39 8-21 10-25z" fill="#787878"/>
<path transform="translate(226,1427)" d="m0 0h34l1 1v59h9l5-2 11-15 20-30 7-9 5-4h37l-4 7-12 16-14 20-12 16-8 9 2 4 9 10 12 19 15 23 14 21 1 5h-33l-6-3-7-8-7-11-13-21-10-15-5-5-15-1-1 63-1 1h-33l-1-1z" fill="#787878"/>
<path transform="translate(911,1427)" d="m0 0h26l14 3 15 6 11 7 3 4-7 9-5 7-4 3-5-1-16-8-9-2h-18l-11 3-8 5-7 7-6 12-2 9v18l4 16 6 10 8 7 11 5 3 1h23l10-3v-14l-1-8-19-1-1-1v-22l5-1h21l26 1 1 2v58l-4 5-15 7-13 4-12 2h-15l-17-3-15-5-12-7-11-9-8-10-8-16-3-12-1-9v-9l2-14 4-12 6-12 7-9 10-9 10-6 13-5z" fill="#787878"/>
<path transform="translate(1102,1427)" d="m0 0h23l15 3 11 5 9 5 6 5-4 7-11 12-3 1-8-3-12-6-4-1h-17l-9 3-9 6-7 10-4 11-1 6v21l3 12 6 11 2 4 4 2 10 6 3 1 15 1 12-2 15-9 6 1 6 5 6 7 2 1-1 5-9 8-16 8-12 3-6 1h-14l-15-2-12-4-11-6-11-9-9-12-6-12-4-14-1-6v-19l3-15 6-15 9-12 10-10 14-8 15-5z" fill="#787878"/>
<path transform="translate(1241,1454)" d="m0 0h19l11 4 11 8 7 11 3 11 1 8v13l-3 14-5 10-9 10-10 5-4 1h-23l-14-6-7-7-7-14-2-10v-21l3-12 4-8 9-10 12-6z" fill="#FEFEFE"/>
<path transform="translate(590,1454)" d="m0 0h18l11 4 6 4 6 5 6 10 3 10 1 7v16l-4 16-7 11-9 8-11 4h-22l-13-5-8-7-6-10-4-15v-21l3-12 6-11 10-9 9-4z" fill="#FEFEFE"/>
<path transform="translate(587,1387)" d="m0 0h26l5 3 9 10 7 8 6 7-1 1h-27l-2-1v-2l-3-1-5-8-4-1-1 5-6 7-3 1h-26l6-8 14-15 3-5z" fill="#797979"/>
<path transform="translate(1444,1460)" d="m0 0h2l12 36 7 20v3h-40l2-9 13-38z" fill="#FEFEFE"/>
<path transform="translate(1255,1384)" d="m0 0h43l-5 5-12 11-8 7-11 9h-30l1-3h2l2-5 8-12 8-10z" fill="#7A7A7A"/>
<path transform="translate(1434,1386)" d="m0 0h18l9 4 6 7 1 6-5 7-13 9-3 1h-12l-1-9 5-3 4-3v-4h-8l-9 1-3-3-4-6 1-3z" fill="#7B7B7B"/>
</svg>
