<?xml version="1.0" encoding="UTF-8"?>
<svg version="1.1" viewBox="0 0 1600 1066" width="2000" height="1333" xmlns="http://www.w3.org/2000/svg">
<path transform="translate(634,144)" d="m0 0h14l25 4h10l6-2 19-1 7-1h18l15 4 47 3 14 2 36 3 21 3 21 4 1 4-7 2-30 6-60 13-4 1v328l3 1 18 1 17 3h5l5-31 4-13 4-9 6-9 5-4 18-8 3-1-2-5-9-6-6-10-4-8-3-3v-5l4-5 2-5v-5l-3-2-1-7 2-7 4-4 10-7 14-7h18l12 5 10 9 4 8 2 8 1 11 7-6 6-2h14l9 4 6 4 3 4-1 5-6 4-1 3 5 10-1 4-10 5-3 8-5 1-4-4-5-10-10-10-4-8-1-6-3 8-6 12-8 8-12 3 2 7 6 2 14 3 15 5 21 11 19 13 12 9 9 8 1 2v9l-3 12-1 9-7 3-3 5-1 4 29 3 26 1 21 4 35 3 25 5 3 4 1 12-3 14-3 5h-11l-27-3-24-3-43-5-22-3-38-4 9 13 13 20 10 16 14 26 5 14-1 4-5 4-23 10-4 2v17l1 17 4 25 4 17 9 29 6 19 4 15 4 17 6 12 2 9 2 20 4 17-1 7-5 4-3 1-29 2-7 1h-19l-7-3-1-5 6-7 14-7 9-6 3-4v-8l-3-9-3-6-3-10-6-15-9-21-12-33-9-31-6-26-3-21-1-3-13 1-2 30v25l4 26 2 20 2 82 3 13v8l-2 4-2 1-34 3h-25l-6-3v-6l5-5 15-8 9-7 2-4-1-8-3-13-1-17-9-45-3-26-2-16-2-22-1-32-7-3-9-2-2-2 1-14 4-20 4-24 4-19 4-21 6-24 1-6h-9l-4 8-8 6-8 2-9-1-10-4-8-5v-2l-4-2-4-5-4-4-3-1h-7v140l-4 16-6 12-7 9-11 11-16 8-39 12-18 6-25 8-14 4-36 12-42 13-18 6-20 6-11 4-42 13-13 4-20 5h-11l-20-5-16-8-12-7-2 5-8 8-13 8-16 7-14 3h-25l-23-4-9-2v-4l25-5 19-6 19-8 12-7 10-9 5-9v-17l-3-5-4-1-9 4-8 6-16 13-9 8-18 12-15 7-9 2h-19l-16-5-9-6-13-12-11-13-3-5-10-5-14-13-7-8-7-7-14-19-10-15-8-13-8-14-10-21-9-21-10-31-9-35-3-13-7-41-3-28v-56l3-25 5-25 6-19 6-16 8-16 7-12 8-11 13-15 10-10 6-4 8-6 13-8 16-8 14-6 8-4 21-7 22-4 17-4 14-2 15-2 49-3h39l14-1 13-10 10-5 15-4 9-3 16-4 17-5 20-5 18-6 18-4 24-7 18-5 29-8 26-9 18-5 13-4 1-1-11 1-9 2-4-1h2l-3-6-58-1-1-4 25-2zm-50 4m122 21m-5 1-15 4-1 2h8l10-3-1-3zm-23 6-13 4-15 3-17 5-9 3-13 4 1 3 16-3 3-2h16l12-2 8-4 7-6 6-2 5-1v-2zm59 11-50 14-36 10-31 9-51 14-26 7-49 14-19 6-9 3-5 4-7 8-5 5-1 13 8 7 1 8-1 3v7h13l7 4 13 3h8l16-4 30-10 22-7 16-4 27-8 13-4 16-4 17-5 24-7 17-4 6 1v11l-1 4-7 3-25 7-31 9-20 6-34 10-16 4-28 9-41 12-11 2-8 4-4 6-9 1-3-3h-2l-2-4-7-1-2 4-1 6-2 25-1 9-1 84 4 2 13-4 15-3 1-1v-20l3-16v-13l-2-5v-11l4-14 5-2-1-2-8-4-3-7v-8l4-4 8-4 20-3h10l18-4 15-5 9-2 11-5 20-5 37-10 38-10 26-8 8-1 1 1v12l-1 3-14 5-17 4-8 2-9 1-14 5-33 11-26 8-15 4-25 8-16 4-7 3-1 4 12 6 7 2 10-1 8-4 2-4 4-1 24-1 9-3 13-3 21-7 6-3 7-4 14-3 6-3 15-1 9-3 19-3 1 1v10l-2 6-10 5-22 5-13 5-1 2 3 1 25-3h10l6 3 4 5-1 9-2 7-16 5-10 4-43 13-13 4-3 3-2 9-10 5-1 26-8 10-5 7-3 1h-10l-2-2h-6l-9 4h-20l-15 4-10 4-8 3-1 3 3 3 9 3 10-1 14-4 26-2 7-3 13-1 4 2 4 8 6 4v32l-1 27v59l-1 7-12 3-7 3-7 10-12 4-8 2h-18l-10 3-5 4v2l8 2 11 1 8-3 9-4 9-1 9 2 12 5 4 4 1 3v13l-1 3v8l5 2h7l18-4 23-7 12-3 10-4 10-3 14-1 7-2 4-3 10-2h5l7 4h7l12-4 6-4 7-9 2-7v-16l-2-5-4-5v-15l5-1 1-2 1-35v-19l-2-7-9-3-18-3-25-3h-40l-4-8-7-6-19-7-6-4-2-6 1-4 10-2 26-2 5-1h24l30 4 14 3 12 1h10l1-269v-46l-3-7-3-3zm-398 70-17 3-38 3-15 3-27 3-9 5-10 9-11 7-18 12-13 8-5 4-7 1-3 5v10l-2 1-1-2-4-3-5 5-8 9-8 16-7 13-1 9v11l2 12 5 14h4v-2l6 1-3 11v9l3 7 6 7 8 7 7 9 3 8v11l-4 7-4 5-11 7-3 4v7l5 10 4 6 2 8-3 6-9 8-6 4-5 8v6l8 6 3 3 5 1h7l18-5 11-4 10-2 9 1 5 8 8 18 4 6 4 3h6l5-3 2-6v-15l-4-12-3-4v-4l11-3 14-1 7 3 7 9 4 9 3 15v40l2 5 5 2 7-3 7-8 4-9 1-5v-24l-3-20-6-16-4-5v-7l-10-7-8-6-7-4h-2l-2-6-6-8-3-12-4-4-3-1-1-7-6-10-2-4v-9l4-6v-12l-3-26 1-16 5-13 2-3 6-3 2-4v-9l2-12 1-21 4-17 2-3 6-1h24l13 2 4 2 2 6 1 21 2 4 7 1 6-5 3-8 1-15 10 1 7 3 5 5 1 4v15l-4 13-8 15-1 10 1 1h7l6-3 7-7 4-7 5-13 1-22v-52l1-16-5-5-4-9-7-2zm256 141-13 3-1 3h11l6-4-1-2zm-33 9-2 2 5-1zm-194 10-3 3v4l8 2 1-7-2-2zm568 80-5 8-4 11-1 4v14l3 2 26 3h9l5-10-2-10 3-3-1-5-4-4-7-3-13-4zm-590 9-10 2-13 4-18 4-9 1-3 2 1 9 7 3 5 1h17l6-2-2-5 16-4-2 5 6-1 6-5 2-7v-5l-4-2zm-6 20m-7 2m35 13-11 5-11 4-11 3-1 2 4 1 18 2 8 4 6 5 4-1 1-8v-14l-2-3zm-23 43-4 2-2 6 1 9 3 4 4 1 5-4 1-2v-9l-3-5zm-5 33-4 5-7 28-5 14 1 7 4 4 9 1 6-4 6-9 4-12v-24l-4-8-3-2zm-212 8-3 4v10l5 23 6 12 4 3 4 2 2 3 4-1 2 1 3-22 9-3-1-6-11-22-7-1-5 1-5-4zm37 45 2 2v-2zm112 26-31 6-2 1 1 5 6 5 17 5h12l6-4 2-2 1-10-4-5zm38 56-9 5-6 3-2 4 1 7 4 3h8l10-5 5-6v-6l-5-5zm-43 27-1 2 4-2z" fill="#86D2FB"/>
<path transform="translate(462,264)" d="m0 0 4 1-14 14h-2l-1 15 8 7 1 8-2 10 13-1 7 4 13 3h8l16-4 30-10 22-7 16-4 27-8 13-4 16-4 17-5 24-7 17-4 7 2v11l-2 5-7 3-25 7-31 9-20 6-34 10-16 4-28 9-41 12-11 2-8 4-4 6-9 1-3-2v-2h-2l-2-3-7-1-2 9-2 25-1 9-1 84 3 1 13-4 15-3v-20l3-16v-13l-2-5v-11l4-14 5-3-8-4-4-8v-8l5-5 8-4 20-3h10l18-4 15-5 9-2 11-5 20-5 37-10 38-10 26-8 8-1 2 2v12l-2 4-14 5-17 4-8 2-9 1-14 5-33 11-26 8-15 4-25 8-16 4-7 3v3l11 5 7 2 10-1 8-4 4-4 2-1 24-1 9-3 13-3 21-7 6-3 7-4 14-3 6-3 15-1 9-3 19-3 2 2v10l-2 6-5 3-6 3-22 5-13 5 2 1 25-3h10l6 3 5 6-1 9-3 8-16 5-10 4-43 13-13 4-2 2-2 9-10 5-1 26-8 10-6 8-3 1h-10l-2-2h-6l-9 4h-20l-15 4-10 4-8 3v4l11 3 10-1 14-4 26-2 7-3 13-1 5 3 3 7 6 4 1 1v32l-1 27v59l-2 7-7 3-12 3-2 4-5 7-12 4-8 2h-18l-10 3-5 5 19 2 8-3 9-4 9-1 9 2 12 5 5 5 1 3v13l-2 11 5 1h7l18-4 23-7 12-3 10-4 10-3 14-1 7-2 4-3 10-2h5l7 4h7l12-3-3 3-24 8-32 10-25 8-67 21-28 9-29 9-27 9-17 5-40 13-10 1-6-5-2-6v-469l1-3h2l1-5 5-9 5-5h2v-2l9-4zm133 134-13 3-1 3h11l6-4-1-2zm-33 9-2 2 5-1z" fill="#E7EBFC"/>
<path transform="translate(883,361)" d="m0 0h18l12 5 10 9 4 8 2 8 1 11 7-6 6-2h14l9 4 6 4 3 4-1 5-6 4-1 3 5 10-1 4-10 5-3 8-5 1-4-4-5-10-10-10-4-8-1-6-3 8-6 12-8 8-12 3 2 7 6 2 14 3 15 5 21 11 19 13 12 9 9 8 1 2v9l-3 12-1 9-7 3-3 5-1 4 29 3 26 1 21 4 35 3 25 5 3 4 1 12-3 14-3 5h-11l-27-3-24-3-43-5-22-3-38-4 9 13 13 20 10 16 14 26 5 14-1 4-5 4-23 10-4 2v17l1 17 4 25 4 17 9 29 6 19 4 15 4 17 6 12 2 9 2 20 4 17-1 7-5 4-3 1-29 2-7 1h-19l-7-3-1-5 6-7 14-7 9-6 3-4v-8l-3-9-3-6-3-10-6-15-9-21-12-33-9-31-6-26-3-21-1-3-13 1-2 30v25l4 26 2 20 2 82 3 13v8l-2 4-2 1-34 3h-25l-6-3v-6l5-5 15-8 9-7 2-4-1-8-3-13-1-17-9-45-3-26-2-16-2-22-1-32-7-3-9-2-2-2 1-14 4-20 4-24 4-19 4-21 6-24 1-6h-9l-4 8-8 6-8 2-9-1-10-4-8-5v-2l-4-2-4-5-4-4-8-2-54-6-14-2-13-1-1-1-24-2-6-1 5-15v-12l-1-7h10l42 5 50 6 26 1 17 3h5l5-31 4-13 4-9 6-9 5-4 18-8 3-1-2-5-9-6-6-10-4-8-3-3v-5l4-5 2-5v-5l-3-2-1-7 2-7 4-4 10-7zm53 136-5 8-4 11-1 4v14l3 2 26 3h9l5-10-2-10 3-3-1-5-4-4-7-3-13-4z" fill="#FDB5AE"/>
<path transform="translate(272,317)" d="m0 0h24l13 2 5 3 2 6 1 21 1 4h7l5-4 3-8 1-15 1-1 10 1 7 3 5 5 2 5v15l-4 13-8 15-1 10h7l6-3 9-10 4-11 2-5h2v42l-2 6-8 9-2 1v8l2 2 9 1 1 1v16l-2 4 2 6v16l-2 11 2 5-1 32 1 12v31l-1 171h-3l-13-10-10-8 3-9 6-15 4-12 4-18 3-24v-20l-2-20-5-20v3l3 13 2 15 1 11v17l-3 26-4 15-4 14-5 12-5 9-4-1v-2l-4-1v-2l-4-2-13-10-4-2v-2l-4-2-7-4-1-2-3-1v-2l-4-2-3-1v-2l-4-2-14-10-4-2v-2l-4-1v-2l-5-2-7-5 1-8 2-7 2-8 1-12v-11l-1-12-3-15-3-8 2 10 2 7 1 10v27l-1 9-3 11-2 4-5-2-4-2v-2l-5-2-2-1v-2l-4-1-5-3v-2h-3v-2l-5-2-4-2v-2h-3v-2l-4-1-5-3v-2h-3v-2l-4-1-7-4 1 1 3 2v2h3v2l4 1 14 9 13 9 5 3v2l5 2 7 4v2l5 2 11 8 8 5v2l5 2 2 1v2l5 2 6 5 3 1v2l4 2 7 4 4 4 19 14 3 4-6 7-11 7-4 1-1 2-7 3-18 5-21 2h-30l-21-2-2-1-9-1-2-1v2l17 2 15 2h39l19-3 16-5 12-6 7-5h2v-2l5-4 1-2 5 2 18 14 16 13 5 4 1 58 1 10-9 10-7 6-1 2 6-4 5-5h2l2-4 4-2 5 7v2h2l-2 5-7 8-8 6-16 8-7 3-14 3h-25l-23-4-9-2v-4l25-5 19-6 19-8 12-7 10-9 5-9v-17l-3-5-4-1-9 4-8 6-16 13-9 8-18 12-15 7-9 2h-19l-16-5-9-6-13-12-11-13-3-7-5-13 6 1 19 6 20 4h21l11-4 5-4 4-9v-9l-2-1h-7l-32 8h-25l-14-7-12-12-9-15-5-11-6-20-4-24v-7l10 2 17 3h12l13-4 5-6 1-3v-9l-1-1h-8l-25 7h-16l-8-4-6-7-3-3-7-14-6-19-3-17v-6l16-8 9-3v-2l21-7 10-2 9 1 6 9 8 18 4 6 3 2h6l4-2 2-6v-15l-4-12-3-4 1-5 11-3 14-1 7 3 6 7 6 12 3 15v40l1 5 5 1 7-3 6-7 4-9 1-5v-24l-3-20-6-16-4-5v-7l-12-8-5-4-9-5-7-12-3-5-2-11-6-2-1-1-1-7-6-10-2-4v-9l4-6v-12l-3-26 1-16 5-13 3-4 5-2 2-4v-9l2-12 1-21 4-17 3-4zm74 189-10 2-13 4-18 4-9 1-3 2 1 9 7 3 5 1h17l6-2-2-5 16-4-2 5 6-1 6-5 2-7v-5l-4-2zm-6 20m-7 2m35 13-11 5-11 4-11 3-1 2 4 1 18 2 8 4 6 5 4-1 1-8v-14l-2-3zm-23 43-4 2-2 6 1 9 3 4 4 1 5-4 1-2v-9l-3-5zm-5 33-4 5-7 28-5 14 1 7 4 4 9 1 6-4 6-9 4-12v-24l-4-8-3-2zm-63 79-31 6-2 1 1 5 6 5 17 5h12l6-4 2-2 1-10-4-5zm38 56-9 5-6 3-2 4 1 7 4 3h8l10-5 5-6v-6l-5-5z" fill="#F8A788"/>
<path transform="translate(883,361)" d="m0 0h18l12 5 10 9 4 8 2 8 1 11 7-6 6-2h14l9 4 6 4 3 4-1 5-6 4-1 3 5 10-1 4-10 5-3 8-5 1-4-4-5-10-10-10-4-8-1-6-3 8-6 12-8 8-12 3 2 7 6 2 14 3 15 5 21 11 19 13 12 9 9 8 1 2v9l-3 12-1 9-7 3-3 5-1 4 29 3 26 1 21 4 35 3 25 5 3 4 1 12-3 14-3 5h-11l-27-3-24-3-43-5-22-3-27-3h-12l-12-1-7-1h-5v-2l-12-2-42-5-19-1-4 8-8 6-8 2-9-1-10-4-8-5v-2l-4-2-4-5-4-4-8-2-54-6-14-2-13-1-1-1-24-2-6-1 5-15v-12l-1-7h10l42 5 50 6 26 1 17 3h5l5-31 4-13 4-9 6-9 5-4 18-8 3-1-2-5-9-6-6-10-4-8-3-3v-5l4-5 2-5v-5l-3-2-1-7 2-7 4-4 10-7zm53 136-5 8-4 11-1 4v14l3 2 26 3h9l5-10-2-10 3-3-1-5-4-4-7-3-13-4z" fill="#F2A323"/>
<path transform="translate(343,242)" d="m0 0h53l-6 9-6 10-5 12-2 12h-1v-12l-5-5-3-8-7-2h-22l-17 3-38 3-15 3-27 3-9 5-10 9-11 7-18 12-13 8-5 4-7 1-2 4v7l-1 2 2 1-4 1-5-4h-2l-2 4-8 9-8 16-7 13-1 9v11l2 12 5 14h2l1-2 6 1-2 11v9l3 7 5 6 8 7 6 7 4 7 1 4v11l-4 7-5 6-11 7-2 3v7l5 10 4 6 2 8-3 6-7 7-9 6-4 7v6l8 6v2l14 1 8-1-4 3-20 9 1 13 4 17 3 10h-7l-5 1-5-4h-7l-2 3v10l5 23 6 12 8 5 1 2 5-1 3-20 5-3h5l-3-10 5 5 5 4 5 2h16l25-7h8l2 2v9l-4 7-5 4-11 3h-12l-17-3-10-3 4 27 6 21 5 12 8 14 9 10 7 6 11 5h25l32-8h7l3 2v9l-5 10-5 4-11 4h-21l-20-4-21-7h-3l5 12 2 5-5-4-8-4-14-13-7-8-7-7-14-19-10-15-8-13-8-14-10-21-9-21-10-31-9-35-3-13-7-41-3-28v-56l3-25 5-25 6-19 6-16 8-16 7-12 8-11 13-15 10-10 6-4 8-6 13-8 16-8 14-6 8-4 21-7 22-4 17-4 14-2 15-2zm-178 428 2 2v-2zm107 109-1 2 4-2z" fill="#FDFDFD"/>
<path transform="translate(1261,631)" d="m0 0 36 1 17 3 8 3 2 3-1 11-4 30-2 11-3 26-6 42-2 7-4 4-15 3-13 2h-18l-1 1-1 31-4 2h-8l-4-2-1-2-1-32-9-2-7-2-3-5-4-26-4 1-16 7-14 4-18 1-1 12-1 95-4 2h-7l-5-2-1-14-1-95-23-6-6-2-1 33-7 3-8-1-2-2-1-37-6-3-27-7-23-7v96l-1 3-2 1h-11l-4-4v-98l-1-3-10-4-5-6-1-3v-10l7 1 21 6 25 7 30 8 18 5 11 1 6 2h9l2-7 3-6 5-2 9-1 1-13-2-20-1-16 2-2h34l2 2v6l7 2 5 6 2 6 3-2h3l-1-17-2-10v-11l7-3 7-2 14-2zm-78 42-1 3v11l4-2 3-4v-6l-1-2z" fill="#E8EBFC"/>
<path transform="translate(272,317)" d="m0 0h24l13 2 5 3 2 6 1 21 1 4h7l5-4 3-8 1-15 1-1 10 1 7 3 5 5 2 5v15l-4 13-8 15-1 10h7l6-3 9-10 4-11 2-5h2v42l-2 6-8 9-2 1v8l2 2 9 1 1 1v16l-2 4 2 6v16l-2 11 2 5-1 32v11l-1 3-3 2h-3v3l-11 5-11 4-9 2h-12l-15-3-17-8-12-8-5-4-9-5-7-12-3-5-2-11-6-2-1-1-1-7-6-10-2-4v-9l4-6v-12l-3-26 1-16 5-13 3-4 5-2 2-4v-9l2-12 1-21 4-17 3-4zm74 189-10 2-13 4-18 4-9 1-3 2 1 9 7 3 5 1h17l6-2-2-5 16-4-2 5 6-1 6-5 2-7v-5l-4-2z" fill="#F18B26"/>
<path transform="translate(714,146)" d="m0 0h19l25 10-4 1h-12l-34 9-54 15-14 4-43 12-30 8-42 12-34 9-49 14-11 6-12 11-9 13-5 12-3 13-1 457v55l3 14 4 8 6 8-7-1-17-9-4-3v-2h-2l-5-8-4 2-5 5-8 7h-2l2-4 10-9 4-5-1-10-1-58-17-14-13-10-11-8-2-1-2 4-4 2v2l-9 6-14 7-19 5-18 2h-35l-30-4-2-1v-2l11 1 2 1 22 2h29l21-2 18-5 16-8 7-5 2-3h2l1-4-11-9-14-10v-2l-4-1-7-5v-2l-4-1-10-7v-2l-5-2-2-1v-2l-5-2-15-11-4-2v-2l-4-1-8-5v-2l-5-2-16-11-11-7-4-2v-2h-3v-2l-5-2 1-2 11 6v2h3v2l5 2 4 2v2h3v2l6 2 3 2v2h3v2l4 1 5 3v2l5 2 2 1v2l5 2 4 2 2-9 2-6 1-9v-27l-1-10-4-14v-5l3 4 4 15 2 18v11l-1 12-3 13-3 10 4 2 8 5v2l4 1v2l4 1 18 13v2l4 1 3 2v2l4 1v2l4 1 7 5v2l5 2 13 10 3 2v2l4 1v2h4l4-8 6-16 4-12 3-13 3-26v-17l-1-14-5-25-1-3h3l5 20 2 20v20l-2 19-1 5-5 22-3 9-6 14-3 9 7 5v2l5 2 11 9h1l1-171v-31l-1-15 1-29-2-7 2-9v-21l-2-1 2-4v-16l-9-1-3-3v-8l2-1v4h5l3 2v-7l-5-2 6-7 1-5v-116l3-16 5-12 6-10 7-10 13-10 10-5 15-4 9-3 16-4 17-5 21-4 36-10 73-20 28-8 32-9 34-9z" fill="#35B9F3"/>
<path transform="translate(864,563)" d="m0 0h10l51 6 4 3h9l2 1 12 1 8 10 15 23 10 16 14 26 3 10-14 7-15 7-13 5-22 6-16 3-1 1-34 2-22-1-9-1-13-3-2-1v-7l4-20 4-24 4-19 4-21 6-24z" fill="#F38B22"/>
<path transform="translate(1261,631)" d="m0 0 36 1 17 3 8 3 2 3-1 11-4 30-2 11-3 26-6 42-2 7-4 4-15 3-13 2h-18l-1 1-1 31-4 2h-8l-4-2-1-2-1-32-9-2-7-2-3-5-3-19v-9l5-3 8-4h2l1-15-1-3 31-15 7-3v-3l-18-5-43-11-2-5-2-16-1-5v-11l7-3 7-2 14-2z" fill="#48A1FA"/>
<path transform="translate(593,512)" d="m0 0 5 1 3 3v32l-1 27v59l-2 7-7 3-11 3-16 4-38 11-21 6-10 2-1-121v-7l4-3 16-4 5-2 12-3 20-6 7-2 5-2 21-5z" fill="#C4E1FD"/>
<path transform="translate(680,507)" d="m0 0h10l42 5 50 6 26 1 17 3 7 2 94 11 23 2 13 2 1 2-6 8-1 1h-13l-9-1 3 3 5 3-2 5-5 5-5 4-5 1-51-6-19-1-4 8-8 6-8 2-9-1-10-4-8-5v-2l-4-2-4-5-4-4-8-2-54-6-14-2-13-1-1-1-24-2-6-1 5-15v-12z" fill="#235DB3"/>
<path transform="translate(967,683)" d="m0 0h3l2 34 4 25 4 17 9 29 6 19 4 15 4 17 6 12 2 9 2 20 4 17-1 7-5 4-3 1-29 2-7 1h-19l-7-3-1-5 6-7 14-7 9-6 3-4v-8l-3-9-3-6-3-10-6-15-9-21-12-33-9-31-6-26-3-21-1-4 16-4 24-7z" fill="#FCB5AF"/>
<path transform="translate(374,534)" d="m0 0 2 1v31l-1 171h-3l-13-10-10-8 3-9 6-15 4-12 4-18 3-24v-20l-2-20-5-20v3l3 13 2 15 1 11v17l-3 26-4 15-4 14-5 12-5 9-4-1v-2l-4-1v-2l-4-2-10-8-2-3v-4l3-3v-12l4-2 3 1 7-3 5-4 6-12 2-7v-24l-4-8-2-1h-7l-3 4-7 28-1 3-3-1-1-3h-2l-1 2v-7-3l-2-2h-3l-1-10v-14l-3-7-1-4v-16l-1-3v-8l-5-3-1-4h-2l-6-16-4-5 1-7 16 7 15 3 10 1 3 2 18 2 8 4 6 5h3l1-8v-14l-1-2-5-1v-2l6-2zm-29 50-4 2-2 6 1 9 3 4 4 1 5-4 1-2v-9l-3-5z" fill="#F79A89"/>
<path transform="translate(272,317)" d="m0 0h24l13 2 5 3 2 6 1 21 1 4h7l5-4 3-8 1-15 1-1 10 1 7 3 5 5 2 5v15l-4 13-8 15-1 10h7l6-3 9-10 4-11 2-5h2v42l-2 6-8 9-3 1-1-4h-2l1-3 4-3-9-1-6-3-5-7-2-3-5-1-1-3-1 2h-5l1 9h-2l-5-8 1-4v-3h2l2-7-4 4-3 5-3-1-2-6-3-4v-2l-2 2 2 5-4 2-4-2-3-1-1 3-5 5-5 3h-8l-12-5-9-6v-2l-6-2-2-3 1-9 1-8 1-21 4-17 3-4zm60 60-2 4 4-2v-2z" fill="#F1A327"/>
<path transform="translate(982,542)" d="m0 0h15l16 2 26 1 21 4 35 3 25 5 3 4 1 12-3 14-3 5h-11l-27-3-24-3-43-5-22-3-27-3-10-2 5-5 9-8 13-17z" fill="#2271D8"/>
<path transform="translate(1126,201)" d="m0 0h15l9 5 12 11 8 10 12 19 9 17 10 22 6 17 4 12 2 3v3l-5-2-16-10-9-7-11-8-20-16-10-9-18-18-10-14-3-6-1-14 3-6 7-6z" fill="#F1A223"/>
<path transform="translate(1204,674)" d="m0 0 13 4 48 12 3 2-1 4-36 17v3l-1 13-3 3-12 6-2 2-4 1-16 7-14 4-18 1-1 12-1 95-4 2h-7l-5-2-1-14-1-95-5-4v-8l-2-5-4-1-2-3 7 1 10 2h29l16-3h3v-2l8-4h2l1-4h2v-2l5-2 2 1 1-5-4-9-1-13 1-3h5l1-4-4 1-3-2-1-3-4-2z" fill="#C3E0FD"/>
<path transform="translate(1398,359)" d="m0 0h8l6 3 4 4 1 3v8l-4 9-11 13-7 7-8 6-7 4 1-4 5-5 8-10 12-10-1-7-18-6h-9l-4 2-6 9-9 12-8 6-11 11-6 8-3 1 1 3 10-4 3-5 14-6h5l1 3-2 7-1 3-9 4-8 6-4 7-13 9-12 8-11 7-5 6-3-1-3-16v-36l4-16 4-10 9-16 9-7 2-1h9l5 5 3 5 1 4v12l-2 8 6-4 9-11 11-9 11-8h2l1-3 15-7zm-73 71-1 3h3v-3zm3 4-1 2h2z" fill="#F2A224"/>
<path transform="translate(333,712)" d="m0 0 10 4 12 10 14 11 6 5 1 58 1 10-9 10-7 6-1 2 6-4 5-5h2l2-4 4-2 5 7v2h2l-2 5-7 8-8 6-16 8-7 3-14 3h-25l-23-4-9-2v-4l25-5 19-6 19-8 12-7 10-9 5-9v-17l-3-5-4-1-9 4-7 5-3-1v-4h-2v-13l-2-8-1-7 1-1v-8l-1-3-4-2-2-5-2-11v-4l2-2 1-4z" fill="#F79888"/>
<path transform="translate(1293,160)" d="m0 0 10 2 3 4 1 5v11l-3 15-9 24-10 19-13 19-22 32-6 8-3 6h-3l-1-2v-30l2-23h2l1-9 5-17 6-15 13-25 7-10 9-10 6-3z" fill="#F28B23"/>
<path transform="translate(883,361)" d="m0 0h18l12 5 10 9 4 8 2 8 1 11 7-6 6-2h14l9 4 6 4 3 4-1 5-6 4-1 3 5 10-1 4-10 5-3 8-5 1-4-4-5-10-10-10-4-8-1-6-3 8-6 12-8 8-6 2h-7l-5-5-1-2v-7l5-3 6-4h2v-9l-3-2-5 1-2 4-3-1-1-2-1-9-4-4h-8l-6 1h-13l-6-3-1-7 2-7 4-4 10-7z" fill="#255FB4"/>
<path transform="translate(1069,304)" d="m0 0 10 1 12 6 12 11 7 7 10 13 9 13 12 19 9 16 7 14v3l-10-3-17-8-23-13-12-7-16-11-11-9-11-11-6-11-1-4v-8l5-10 8-6z" fill="#F0A224"/>
<path transform="translate(1e3 694)" d="m0 0 7 1 21 6 25 7 30 8 18 5 7 3 4 2h-6v8l3 3 1 6-1 33-7 3-8-1-2-2-1-37-6-3-27-7-23-7v96l-1 3-2 1h-11l-4-4v-98l-1-3-10-4-5-6-1-3z" fill="#C6E1FD"/>
<path transform="translate(1151,121)" d="m0 0h15l11 7 11 12 7 11 6 10 8 16 10 24 6 17 4 16-5-2-3-3-6-3-9-7-16-13-15-13-21-21-12-17-4-10-1-4v-7l4-8z" fill="#F38C24"/>
<path transform="translate(699,347)" d="m0 0 4 2v10l-2 6-5 3-6 3-22 5-9 4-11 2-55 16-8 3-16 4-7 3-14 3-52 15-2-1v-18l9-3 23-7 50-14 5-2 7-3 16-4 21-7 6-3 7-4 14-3 6-3 15-1 9-3z" fill="#C5E2F3"/>
<path transform="translate(695,268)" d="m0 0 7 2v11l-2 5-7 3-25 7-31 9-20 6-34 10-16 4-28 9-41 12h-3v-19h2v-2l16-4 30-10 22-7 16-4 27-8 13-4 16-4 17-5 24-7z" fill="#C4E2F3"/>
<path transform="translate(462,264)" d="m0 0 4 1-14 14h-2l-1 15 8 7 1 8-2 10 13-1 7 4 13 3 8 1-2 1v19l-13 4-4 4-3 4-9 1-3-2v-2h-2l-2-3-7-1-2 9-2 25-1 9-1 39-1-4h-2l-1-4v-8l-6 2-2 3-1 6h-1l-1-14 1-123 4-9 4-6 4-4h2v-2l9-4z" fill="#E9ECFD"/>
<path transform="translate(697,387)" d="m0 0h5l1 1-1 9-3 8-16 5-10 4-43 13-42 12-27 8-65 19-2-2v-17l8-3 164-48z" fill="#C4E2F3"/>
<path transform="translate(697,308)" d="m0 0 4 1 1 1v12l-2 4-14 5-17 4-8 2-9 1-14 5-33 11-26 8-15 4-25 8-16 4-22 7-6-1-1-13 2-3 4-1v-2l20-6h4v-2l16-4 11-4 9-2 11-5 20-5 37-10 38-10 26-8z" fill="#C5E2F3"/>
<path transform="translate(1152,317)" d="m0 0h10l10 4 10 8 12 12 9 13 10 19 5 15 3 14v22l-1 5-3-1-21-21-7-8-13-14-7-8-9-11-6-9-6-11-4-10-1-9 2-6 5-3z" fill="#EFA125"/>
<path transform="translate(1406,179)" d="m0 0h6l6 4 4 6v11l-5 14-9 14-9 13-13 16-7 7-7 8-6 7-8 7-14 13-4 4h-3l2-11 8-22 8-20 11-24 10-17 6-9 6-8 5-5 10-7z" fill="#F08B25"/>
<path transform="translate(1156,467)" d="m0 0h10l12 7 14 12 10 9 10 13 9 15 9 21 3 15 1 4-16-6-11-6-18-14-13-13-7-9-9-13-9-20v-11z" fill="#F28B24"/>
<path transform="translate(1333,210)" d="m0 0h8l7 3 3 6v8l-3 14-9 21-10 20-3 5-13 22-10 15-8 11h-1l1-22 1-16 3-20 7-29 6-16 6-11 7-7 4-3z" fill="#EB8929"/>
<path transform="translate(1e3 839)" d="m0 0 4 5 4 11 1 5 2 20 4 17-1 7-5 4-3 1-29 2-7 1h-19l-7-3-1-5 6-7 14-7 9-6 3-4v-8l-3-9-3-6v-5l2-1 14-1 9-4 5-2z" fill="#E8EBFC"/>
<path transform="translate(912,832)" d="m0 0h1l1 10 1 39 3 13v8l-2 4-2 1-34 3h-25l-6-3v-6l5-5 15-8 9-7 2-4-1-8-3-13v-16l2 4 2 7 13-1 17-5h2z" fill="#E7EBFC"/>
<path transform="translate(687,519)" d="m0 0 22 3 16 1 10 2 13 1 10 2 31 3 5 2 8 1v2h4v13l-2-1v-10l-4 10-2 7-10-1-54-6-14-2-13-1-1-1-24-2-6-1 5-15h2l1-6z" fill="#2271D9"/>
<path transform="translate(823,536)" d="m0 0h9l30 4 47 5 16 2 6 3v2l4-1 6 3 1 3-5 7-7 5-5 1-51-6-37-4-16-2-1-4 3-13-3 3-3 8-2-2 3-13h5z" fill="#2271D8"/>
<path transform="translate(599,455)" d="m0 0h2l1 2v16l-8 10-6 8-3 1h-10l-2-2h-6l-9 4h-20l-28 7-15 4-1-1v-18l7-3 53-15z" fill="#C4E2F3"/>
<path transform="translate(1388,445)" d="m0 0h7l6 4 3 7-1 8-5 8-10 9-16 9-12 6-28 11-15 4-5 3h-2l1-4h2l2-4 8-10 9-11h2l2-4 8-8 14-11 9-7 10-6z" fill="#F1A224"/>
<path transform="translate(879,394)" d="m0 0h8l5 5 1 9 3 3 2-5 5-1 4 3v7l-4 4-9 5v7l3 5 5 2-2 1 2 7 3 2-4 4-18 13-8 5h-2l-1 2-1-3v-20l4-2-2-5-9-6-6-10-4-8-3-3v-5l4-5 3-10h15z" fill="#FBB9B3"/>
<path transform="translate(1149,235)" d="m0 0 8 6v3l4 1v2h2v-2h2l1-2-2-1 5-1 1-5 3 1v2l6 2 7 12 11 23 9 22 5 16 2 3v3l-5-2-16-10-9-7-11-8-20-16-8-7 3-1-3-4-3-2 5-1 1-1v-4h4l3-3 4-2-2-7-7-8z" fill="#E88829"/>
<path transform="translate(1268,712)" d="m0 0h2v2l4 1v2l5 1 1 5h2l2 4 5 3 2 5 4 7 4 4 2 5 2 3v3h4v9l-3 5-11 3-19 3h-18l-2 1v-58l6-1 1-2 6-2z" fill="#3994FB"/>
<path transform="translate(373,741)" d="m0 0 2 1 1 58 1 10-9 10-7 6-1 2 6-4 5-5h2l2-4 4-2 5 7v2h2l-2 5-7 8-8 6-16 8-7 3-14 3h-25l-23-4-9-2v-4l25-5 19-6 19-8 12-7 10-9 5-9 1-12h2v12l-3 8 6-1v-2l2-1z" fill="#FCB7B1"/>
<path transform="translate(1293,160)" d="m0 0 10 2 3 4 1 5v11l-3 15-9 24-6 11-1-3 2-7-2-2-4 2-3-2v-2l-4 1-2-1-1 2-1-4 3-9-4 7-2 3h-2v2h-2l-1-7-6-1h-3l-1 2-2-4 13-25 7-10 9-10 6-3z" fill="#F0A225"/>
<path transform="translate(255,383)" d="m0 0 1 3-4 15-1 7v24l2 8 4 10 4 5 9 6 14 4 18 3 5 2 2 4-5 7-7 3h-7l-10-3-14-9-15-12-3-3v14l3 14 4 9 6 9 9 8 12 5 12 2 1 10 2 2-9-1-8-2h-4l3 4-6-2-6-4-7-12-3-5-2-11-6-2-1-1-1-7-6-10-2-4v-9l4-6v-12l-3-26 1-16 5-13 3-4 5-2z" fill="#FDFDFD"/>
<path transform="translate(1151,121)" d="m0 0h15l11 7 11 12 7 11 3 4-1 2h-2l-1-2-2 1-2-5-2 4-2 1v2l-4-1-1 6h2v2l-5-2-12-15-1-1 6 8 1 5-1 3h2v4l-4 2-5 4-3 4-5-3-10-13-6-10-3-10v-7l4-8z" fill="#F2A224"/>
<path transform="translate(1080,642)" d="m0 0h31l3 2v11l-2 13-2 20-1 3-9 2h-12l-6-2-2-7-2-4-6-2-5-5-3-4v-11l3-5 8-3 2-7zm-6 16-3 3v6l4 4 4-1-2-11z" fill="#F38B24"/>
<path transform="translate(1148,657)" d="m0 0h34l2 2v6l7 2 5 6v9l-4 8-7 4h-5v8l-1 4-7 2h-13l-7-2-2-6-3-25-1-16zm35 16-1 3v11l4-2 3-4v-6l-1-2z" fill="#25539F"/>
<path transform="translate(666,503)" d="m0 0h24l30 4 14 3 12 1h11v4l-16-1-43-5-8-1h-9l1 6v12l-4 12-2 3 30 2 1 2h-45l-2-2-3-7-6-5-19-7-7-5-2-6 2-5 10-2 26-2z" fill="#E4EAFC"/>
<path transform="translate(1142,752)" d="m0 0h10l7 1 1 12-1 95-4 2h-7l-5-2-1-14z" fill="#2372D9"/>
<path transform="translate(1020,718)" d="m0 0 7 1 9 2 1 1v96l-1 3-2 1h-11l-4-4v-97z" fill="#2665BC"/>
<path transform="translate(1317,399)" d="m0 0 1 4-1 6 6-2 6 7 4 2 1 6-3 1 1 3 10-4 3-5 14-6h5l1 3-2 7-1 3-9 4-8 6-4 7-13 9-12 8-11 7-5 6-3-1 2-13 7-25zm8 31-1 3h3v-3zm3 4-1 2h2z" fill="#E78829"/>
<path transform="translate(1181,357)" d="m0 0 4 3v2h2l4 6 3 1-2-3v-6l4 2 1-5 4 1 9 9 6 14 5 21v22l-1 5-3-1-21-21-7-8-10-11v-4l-2-1-3-5 3-4h2l2-5 4-2 2 4v-3l-1-5h-2l-3-4z" fill="#F38B23"/>
<path transform="translate(1406,179)" d="m0 0h6l6 4 4 6v11l-5 14-9 14-6 9-4 1-2-12-10-3-5-5v-2l-4-1-6 9-2-1 2-6 8-13 8-11 4-5 12-8z" fill="#F2A324"/>
<path transform="translate(462,264)" d="m0 0 4 1-14 14h-2l-1 15 8 7 1 8-2 10 13-1 7 4 13 3 8 1-4 2-17 2-5 2-10-1-2 4-6 1-13-2-2-3-1-7-2-2-3 1v-32l4-9 4-6 4-4h2v-2l9-4z" fill="#FDFDFD"/>
<path transform="translate(969,558)" d="m0 0h2l-2 4-2 3 5 1h8l6 1 22 3 16 1 19 3 8 1 2 1h11l17 3 16 1 2 1 15 2 5 1h1l-1 7-1 1h-11l-27-3-24-3-43-5-22-3-27-3-10-2 5-5 9-8z" fill="#245EB3"/>
<path transform="translate(1253,720)" d="m0 0 2 1v55l-1 33-4 2h-8l-4-2-1-2-1-34 1-45z" fill="#2463BA"/>
<path transform="translate(1261,631)" d="m0 0 36 1 17 3 8 3 1 4-26 4-10 1h-49l-24-3-13-3 1-3 13-4 14-2z" fill="#235FB5"/>
<path transform="translate(1156,467)" d="m0 0h10l12 7 14 12 10 9-2 1v2l-5 2-1 3h-3v2l-4-2-6-7v-2h-2l-1-1 9 11 3 4-1 3-6-1v2h-2v2l-5 4v-3h-3l-1 3-6-7-7-11-8-18v-11z" fill="#F2A224"/>
<path transform="translate(999,659)" d="m0 0h3l2 4-1 4-5 4-23 10-13 5-24 7-21 4-10 1h-37l-25-4-5-3v-6l3-1 13 3 28 2 25-1 12-1 1-1 16-3 16-4 10-4 12-4 15-7z" fill="#47A0FB"/>
<path transform="translate(968,517)" d="m0 0 11 2 13 3h3l1 3-1 4-7 3-3 5-1 4 2 1-5 2-10 13-9 10-6 5v2l-4 1-12-1-7-1h-5v-2l-2-1 8-5 3-1 2-4 2-5-7-4v-2h22l6-8v-2h2l3-9 1-4-2-3 1-5z" fill="#FABBB6"/>
<path transform="translate(680,507)" d="m0 0h10l42 5 50 6 26 1 17 3 7 2 94 11 23 2 13 2 1 2-5 7-2-1-1-3-14-1-43-6-19-1-9-2-18-2-23-3-31-3-6-1v-2l-3 1h-8l-21-3-31-3-8-2-15-1-14-2-8-1-2 1z" fill="#2956A0"/>
<path transform="translate(883,361)" d="m0 0h18l12 5 10 9 4 8-1 2-3-2-10 2-4-1-5 2h-48v4 2l6 1 2 1v2l-7-1-3-2-1-7 2-7 4-4 10-7z" fill="#286CC1"/>
<path transform="translate(771,150)" d="m0 0 24 1 14 2 36 3 21 3 21 4 1 4-7 2-30 6-9 1-2-2-8-1 1-5h-3l-3-4-7-1-9 1h-9l-15-2-10-3-6-4z" fill="#C4E1F3"/>
<path transform="translate(256,569)" d="m0 0 3 4 4 15 2 18v11l-1 12-3 13-3 10 4 2 8 5v2l4 1v2l4 1 18 13v2l4 1 3 2v2l4 1v2l4 1 7 5v2l5 2 13 10 3 2v2l4 1v2h4l4-8 6-16 4-12 3-13 3-26v-17l-1-14-5-25-1-3h3l5 20 2 20v20l-2 19-1 5-5 22-3 9-6 14-3 9 7 5v2l5 2 13 11v2l-5-2-13-11-13-10-11-8-2-1-2 4-4 2v2l-9 6-14 7-19 5-18 2h-35l-30-4-2-1v-2l11 1 2 1 22 2h29l21-2 18-5 16-8 7-5 2-3h2l1-4-11-9-14-10v-2l-4-1-7-5v-2l-4-1-10-7v-2l-5-2-2-1v-2l-5-2-15-11-4-2v-2l-4-1-8-5v-2l-5-2-16-11-11-7-4-2v-2h-3v-2l-5-2 1-2 11 6v2h3v2l5 2 4 2v2h3v2l6 2 3 2v2h3v2l4 1 5 3v2l5 2 2 1v2l5 2 4 2 2-9 2-6 1-9v-27l-1-10-4-14z" fill="#2860B3"/>
<path transform="translate(1333,210)" d="m0 0h8l7 3 3 6v8l-3 14-6 15h-3v-2h-3v-4l-5-2v-2h-2l-1 4h-3l-1 2-3-3 1-3-4 1-1-1v-5l-3 1-3 4-3 3-2-1 6-16 6-11 7-7 4-3z" fill="#F2A323"/>
<path transform="translate(1008,878)" d="m0 0 4 1 3 9 2 9-1 7-5 4-3 1-29 2-7 1h-19l-7-3-1-5 6-7 9-4 7 2h16l9-2 6-4 4-7h2v-2z" fill="#2460B6"/>
<path transform="translate(1276,205)" d="m0 0 1 2-8 16-9 19h-2l-1 8-8 22-7 25-1 8h-3l-1-2v-30l2-23h2l1-9 5-17 5-13h4l7-1 4 4-1 5h2v-2l3-3z" fill="#DC8633"/>
<path transform="translate(1201,641)" d="m0 0 27 4v2l2 1v3h3l3 7 2 6 2 2 2 8 7 4v5l-1 1-15-1-27-7-2-5-2-16-1-5z" fill="#3A94FB"/>
<path transform="translate(910,878)" d="m0 0 4 1 4 15v8l-2 4-2 1-34 3h-25l-6-3v-6l5-5 7-4 9 1h20l9-4h2l2-6 4-4z" fill="#2460B6"/>
<path transform="translate(1086,339)" d="m0 0 4 2 11 10 8 7 3 2v2l4 2 8 8 8 7 18 18v2l5 2 2 3v3l-10-3-17-8-23-13-12-7-6-4 2-1v-3l-2-1-1-2-3-2v-3l3-1 5 1 1-5 3-2-3-6-8-7z" fill="#DC8530"/>
<path transform="translate(816,532)" d="m0 0 3 1-1 9-2 9 5-10h2l-1 9-1 7 33 4 1 2-4 8-8 6-8 2-9-1-10-4-8-5v-2l-4-2-8-10 2-1 3-12 3-5h1v11l4-13 3-1v11z" fill="#FABAB6"/>
<path transform="translate(1163,144)" d="m0 0 5 5 10 13 5 3v-2h-2v-7l5 2-1-3h3l1-5 7 6 3 1 8 16 8 18 9 23 3 14-1 2h-2l-10-15-10-14-5-8-4-4-7-10-15-20-10-13z" fill="#D98431"/>
<path transform="translate(619,733)" d="m0 0h8l7 4 3 5v14l-4 8-9 8-6 2-9-1-6-5-2-5v-11l5-10 8-7z" fill="#34BAF3"/>
<path transform="translate(1e3 694)" d="m0 0 7 1 21 6 25 7 11 3 5 3-1 4-2-1-5 1-3-3-3 3h5l-1 6-1 4-10-2-14-4-16-4-1 2-1-3-10-4-5-6-1-3z" fill="#C5E2F3"/>
<path transform="translate(943,394)" d="m0 0h14l9 4 6 4 3 4-1 5-6 4-1 3 5 10-1 4-10 5-3 8-5 1-4-4-5-10-10-10-1-4h3l4 3 1-4 3-4h2l2-4 6-10v-3l-11-1z" fill="#296DC2"/>
<path transform="translate(967,683)" d="m0 0h3v20l-6 10-2 1-2-3-6 2-18 1-5 1-1 3-4-4-2-5-2-13 16-4 24-7z" fill="#F69B8C"/>
<path transform="translate(982,542)" d="m0 0h15l16 2 26 1 21 4 35 3 25 5 2 2v7l-1-2-33-4-12-1-10-2-17-2-32-4-31-3-3-1-2 1-2-2z" fill="#2958A3"/>
<path transform="translate(1176,491)" d="m0 0 3 1v2h2l8 10 2 1v-2h3l1-4 5-1v-2l4 2 8 10 9 15 9 21 2 11v5l-5-5-9-11-6-8v-3l-4-2-4-5v-3l-4-2-9-11-12-14z" fill="#D88433"/>
<path transform="translate(1128,730)" d="m0 0 7 1 10 2h29l10-1-4 3 1 5 3 2 1 5-1 2 3 1-8 2-18 1-1 8h-1v-8l-17-1-6-5v-8l-2-5-4-1z" fill="#C3E0FC"/>
<path transform="translate(1225,714)" d="m0 0h5l1 6-1 9-3 3-12 6-2 2-4 1-16 7-9 1-1-7-4-3 1-5 10-4 12-5z" fill="#86D2FB"/>
<path transform="translate(234,702)" d="m0 0h12l-2 1 3 6 7 4 14 4 9 1-2 2-13 2h-35l-14-2-5-6 1-6 4-4 4-1z" fill="#FDFDFD"/>
<path transform="translate(1111,336)" d="m0 0h2l1 3 1-1h2l12 17 12 19 9 16 4 9-1 2-24-24-3-2v-2l-4-2-8-8-2-1v-2l-4-2-2-3v-4l-3-1 4-8h2z" fill="#F38B23"/>
<path transform="translate(1181,357)" d="m0 0 4 3v2h2l4 6 3 1-2-3v-6l4 2 1-5 4 1 9 9 6 14 5 21v22l-2 4-7-19-8-16-8-14-9-13-1-3h-2l-3-4z" fill="#D88333"/>
<path transform="translate(857,696)" d="m0 0 13 1h41l-2 1-1 9-4 2-3 4-15 1-6 3-14 2-2-1-2 5h-1l-2-12-1-13z" fill="#F69D8F"/>
<path transform="translate(1236,728)" d="m0 0h1v45l-3 1-12-2-4-4-2-6-2-15v-9l5-3 14-5z" fill="#3994FA"/>
<path transform="translate(1398,359)" d="m0 0h8l6 3 4 4 1 3v8l-4 9-11 13-7 7-8 6-7 4 1-4 5-5 8-10 12-10-1-7-18-6h-9l-5 2 1-5 3-1 1-3 15-7z" fill="#F2A326"/>
<path transform="translate(726,162)" d="m0 0h12l5 5 12 2 9 1 3 2-1 4-4 2-14 2-8-2-13-2-16-1-5 3-27 5-7 1h-3l5-4 9-3 2 1v-2l13-2 5-1-2-4 15-4z" fill="#C4E2F3"/>
<path transform="translate(681,533)" d="m0 0 5 4v-2l21 3 17 1 12 2h6l1 1 42 4 13 2v7l-10-1-54-6-14-2-13-1-1-1-24-2-6-1 1-3 2-1z" fill="#235CB1"/>
<path transform="translate(277,415)" d="m0 0 10 3 21 7 15 3 5 4v7l-4 4h-11l-18-6-19-10-4-4 1-5z" fill="#FDFDFD"/>
<path transform="translate(1201,677)" d="m0 0h3l-1 4-4 1-1 3 2 6-6 3 1 6 1 5-2 8-2 3-5 2v1l-10 1v-2h-5l-1 2-6-1-2-3h-6l-4-2v-3l-2-1-2-2v-7l2-1 2 6 6 1h13l7-1 1-12 12-4 4-12 3 1z" fill="#C3E1F3"/>
<path transform="translate(824,551)" d="m0 0 14 1 10 2 20 2 36 4 17 3h13v3l-4 3-5 1-51-6-37-4-16-2-1-4 1-2z" fill="#235DB3"/>
<path transform="translate(634,144)" d="m0 0h14l25 4 9 1v1h-10l-2 4-4 4h-6l1-2-11 1-9 2-4-1h2l-3-6-58-1-1-4 25-2z" fill="#C4E1F3"/>
<path transform="translate(927,392)" d="m0 0h1v17l-4 12-6 9-8 7-4 1h-7l-5-5-1-2v-7l5-3 6-4h2l1-9 2-2 7 2h6l2-2 2-5z" fill="#23519D"/>
<path transform="translate(1304,399)" d="m0 0 5 1 1 4 2 1-1 4 1 7-7 22-6 24-1 5-2-2-2-11v-36l3-13 1-2 6 1z" fill="#F38C23"/>
<path transform="translate(983,546)" d="m0 0 13 2 28 3 25 3 12 1 15 3 31 3 11 1 4 4-1 4v-2l-23-2-10-2-30-3-41-5-19-2-14-2h-7l1-5z" fill="#235DB3"/>
<path transform="translate(507,358)" d="m0 0h17l-4 2-17 5h-3l1 3-5 1-1 5v10l9-1 7-1-5 4-2 2-11 1-2 3-6 1 2-3-8-4-4-8v-8l5-5 8-4z" fill="#EBEEFD"/>
<path transform="translate(1094,738)" d="m0 0 16 4 1 1v33l-7 3-8-1-2-2z" fill="#2666BC"/>
<path transform="translate(841,684)" d="m0 0 13 2 2 1 28 2 34-1-3 2-6 5-6 1 4 2h-37l-25-4-5-3v-6z" fill="#3C94F9"/>
<path transform="translate(1142,752)" d="m0 0 7 1 3 2h-2l-1 11v11l-1 20v62l1 2h-5l-1-1-1-14z" fill="#2767BF"/>
<path transform="translate(1266,632)" d="m0 0h1v8l24-2 5-4h14l11 3 2 2v3l-26 4-10 1h-34l-13-1v-1l5-1v-1l15-2 4-2z" fill="#22509D"/>
<path transform="translate(1027,742)" d="m0 0h5l1 2v40l-1 35-1 1h-6l-1-1v-45l1-11v-13l1-7z" fill="#2271D9"/>
<path transform="translate(259,358)" d="m0 0 2 4 3 9 5 4 7 3 20 3 5 2-1 7-5 4-2 1h-8l-12-5-9-6v-2l-6-2-2-3 1-9z" fill="#FDFDFD"/>
<path transform="translate(264,358)" d="m0 0 5 1v2l4 2 21 1v-2h2l-1 8 2 1 2 2h6v4 2h2l-1 3-4-1-5-5-2 5-13-1-9-2-8-5-4-6v-4h2z" fill="#F38D24"/>
<path transform="translate(1361,475)" d="m0 0 2 1-5 3-3 6h3l2 5-3 7-25 10-15 4-5 3h-2l1-4h2l2-4 7-4 11-9 21-14z" fill="#DC8530"/>
<path transform="translate(1246,737)" d="m0 0h4v70l3 3-3 1h-8l-1-11 2-58z" fill="#2271D9"/>
<path transform="translate(861,892)" d="m0 0 9 1 20 1-2 2h-8l1 7h2l1 4h7v1l-11 2h-25l-6-3v-6l5-5z" fill="#2454A1"/>
<path transform="translate(849,460)" d="m0 0h2l-2 9-6 20-1 6v14l5 14 1 3-16-1-6-1 4-2 5-31 4-13 4-9z" fill="#F28D2A"/>
<path transform="translate(960,893)" d="m0 0 11 3 11 1-4 2v3l4 2v5l2 1-12 2h-19l-7-3-1-5 6-7z" fill="#23529E"/>
<path transform="translate(1e3 694)" d="m0 0 7 1 14 4v2l4 1v2l6 2-1 13 1 2-9-2-4-1-1 2-1-3-10-4-5-6-1-3z" fill="#8AD2FB"/>
<path transform="translate(969,558)" d="m0 0h2l-2 4-2 3 5 1h8l6 1 22 3 16 1 19 3 8 1 2 1h11l17 3 16 1 2 1 15 2 1 3-22-2-12-2h-9l-16-2v-2l-25-1-26-4-33-3-9-1v-4z" fill="#286AC0"/>
<path transform="translate(1093,647)" d="m0 0h13l-2 1v3l2 1-1 7v31l1 2-6 1h-12l6-3v-41z" fill="#F2A324"/>
<path transform="translate(255,498)" d="m0 0 3 1 7 8 9 6 8 3 12 2 1 10 2 2-9-1-8-2h-4l3 4-6-2-6-4-7-12-3-5z" fill="#FEFEFE"/>
<path transform="translate(978,551)" d="m0 0 14 1 14 2 29 3 23 3 30 3 11 2 19 2 3 1 1-7h1l1 12-2 8-2 1 1-11-7-1-32-3-30-4-9-1-32-4-19-2h-8l-6-2-4 1z" fill="#296DC1"/>
<path transform="translate(256,569)" d="m0 0 3 4 4 15 2 18v11l-1 12-3 13-3 10 4 2 8 5v2l4 1v2l4 1 18 13 1 4-4-2v-2l-4-1-10-7v-2l-5-2-2-1v-2l-5-2-15-11-4-2v-2l-4-1-8-5v-2l-5-2-16-11-11-7-4-2v-2h-3v-2l-5-2 1-2 11 6v2h3v2l5 2 4 2v2h3v2l6 2 3 2v2h3v2l4 1 5 3v2l5 2 2 1v2l5 2 4 2 2-9 2-6 1-9v-27l-1-10-4-14z" fill="#275DAE"/>
<path transform="translate(1020,718)" d="m0 0 7 1 9 2 1 1v17l-2 3-2-9-1-4h-5l-2 5-2 6-1 9v71h-2l-1-2v-97z" fill="#2B63B4"/>
<path transform="translate(524,532)" d="m0 0 4 1-6 3h-2l-2 5-3 1-1 3-4 4-2 1-2 5-2 1-3 6-2 1-3 10h-1l-1-8v-23l4-3 16-4 5-2z" fill="#C4E2F3"/>
<path transform="translate(1153,754)" d="m0 0h6l1 11-1 95-5-1 1-90v-14z" fill="#235CB0"/>
<path transform="translate(1180,732)" d="m0 0 4 1-4 2 1 5 3 2 1 5-1 2 3 1-4 1h-22l-2-2 2-5-3-4 1-4-5-1v-1l20-1z" fill="#C4E2F3"/>
<path transform="translate(319,834)" d="m0 0h7l1 2h-2v2l-6 2-2 2h-3l-1 3-5 2-1 2h-4l-1 3-2 1-12-1-13-3v-4l25-5z" fill="#F8A88C"/>
<path transform="translate(682,515)" d="m0 0 3 3 6-1 68 8 19 2 7 1 18 2 9 3-3 4-2 7h-1v-8h-4v-2h-8l-5-2-38-4-3-1-13-1-10-2-24-2-14-2-3 2-2 4z" fill="#286BC1"/>
<path transform="translate(595,476)" d="m0 0 4 1-7 9-4 5-3 1h-10l-2-2h-6l-9 4-18-1 2-2 35-10 15-4z" fill="#E9ECFD"/>
<path transform="translate(666,157)" d="m0 0m-10 1h10v2l-35 10-25 7-44 12-36 10-33 9-4-1 25-8 18-4 24-7 18-5 29-8 26-9 18-5z" fill="#90D4FA"/>
<path transform="translate(1112,643)" d="m0 0 2 1v11l-2 13-2 20-1 3-3 1-2-2v-36-3-3l-2-1-14-1v-1l20-1 4 1z" fill="#EA892C"/>
<path transform="translate(1155,662)" d="m0 0h11l-1 7v36l7 2v1h-13l-6-1 3-2h2l-1-25v-9l1-8z" fill="#286CC1"/>
<path transform="translate(683,530)" d="m0 0h2l1 2 23 3 22 2 1 1h12l6 2 21 2 16 2h10v2h2v8h-1v-6l-13-1-42-4-1-1h-7l-21-3h-8l-18-3-2-1v2l-3-1-2-2-2 4-1-3z" fill="#286BC0"/>
<path transform="translate(819,533)" d="m0 0 25 1 1 1 43 5 3 1 30 3h10l2 1 1 8-3-1v-2l-6-2-23-3-40-4-13-2-17-2h-8l-4 1h-1z" fill="#286BC0"/>
<path transform="translate(823,548)" d="m0 0 14 2h8l2 1 16 2 1 1h13l12 2 10 1 15 1 12 2h10l3-1-2 5h-18l-15-3-30-3-6-1-20-2-10-2-17-1z" fill="#286BC0"/>
<path transform="translate(650,511)" d="m0 0h3v11l-2 7-8-1-12-5-4-2v-5l6-2z" fill="#2371D7"/>
<path transform="translate(443,392)" d="m0 0 3 3v38l-1-4h-2l-1-4v-8l-6 2-2 3-1 6h-1l-1-14 1-11 2 3 4-8 5-1z" fill="#FCFCFD"/>
<path transform="translate(1359,411)" d="m0 0h5l1 3-2 7-1 3-9 4-3 1-3-3-4-1-6 2-1 3-5 3-2 2h-2v-6l4-3 6-2 5-2 3-5z" fill="#F2A228"/>
<path transform="translate(953,395)" d="m0 0 2 1v3l-6 10-3 4h-2l-4 8-4-2-5-2 2-10 4-1 1-6 5-4z" fill="#235DB3"/>
<path transform="translate(1153,663)" d="m0 0h5v42l-6 1-2-6-1-5v-7l2-6 1-18z" fill="#225CB2"/>
<path transform="translate(682,271)" d="m0 0h5l-3 2-55 16-35 10-24 7-28 8-3 1v-2l10-4 16-5 16-4 27-8 13-4 16-4 17-5 24-7z" fill="#FAFBFD"/>
<path transform="translate(593,512)" d="m0 0 5 1 3 3v32l-2-4-2-12 1-2 1-10-3 1-2 4-4-2-1-3 1-3-7 1-3 4h-10l-2 1h-9v-2l25-6z" fill="#C8E3F3"/>
<path transform="translate(374,534)" d="m0 0 2 1v31l-1 171h-3l2-1-1-165-4-3 1-2h3l1-8v-14l-1-2-5-1v-2l6-2z" fill="#E8EBFB"/>
<path transform="translate(1102,746)" d="m0 0 4 2v27l-1 2 3 1-8 1-5-2 2-2 1-21 1-7z" fill="#2371D8"/>
<path transform="translate(373,741)" d="m0 0 2 1 1 58 1 10-4 5-6 2-4 2h-3v2l-6 2-2-3 11-11 8-1v-2l2-1z" fill="#F3BBAB"/>
<path transform="translate(1348,473)" d="m0 0h2l-1 3 3 5-20 14-14 11-2-1 10-13 13-12 6-6z" fill="#F38C24"/>
<path transform="translate(755,579)" d="m0 0h1l1 37v25l-1 14h-1l-1-13-2-5-4-5v-11l1-4 5-1z" fill="#E8EBFC"/>
<path transform="translate(968,517)" d="m0 0 11 2 13 3h3l1 3-1 4-2 1-9-1-16-4-2-2 1-5z" fill="#4BA2FA"/>
<path transform="translate(1268,632)" d="m0 0h29l5 1v3l-15 3-7 1h-13v-7z" fill="#2561B6"/>
<path transform="translate(380,828)" d="m0 0 3 1-8 8-13 8-16 7-8 1v-2h4v-2l10-6 3-3 10-2 1-3 10-4z" fill="#E9ECFD"/>
<path transform="translate(687,349)" d="m0 0 4 1-4 2 2 4-4-2v-2l-31 9-27 8-4-1 8-4 7-4 14-3 6-3 15-1 9-3z" fill="#F5F7FD"/>
<path transform="translate(328,477)" d="m0 0 7 1 2 5-3 5-3 1h-12l-3-3 1-7 1-1z" fill="#FEFEFE"/>
<path transform="translate(872,448)" d="m0 0 3 1v15l21-13 4-3h3v3l-6 4-20 14-4 1-1 2-1-3v-20z" fill="#4FA0FB"/>
<path transform="translate(1014,545)" d="m0 0h25l21 4 35 3 18 4v1l-15-1-84-10z" fill="#DEEBFA"/>
<path transform="translate(1184,667)" d="m0 0 5 1 4 4 3 1v9l-4 8-7 4h-5l1-5h3l1-4 3-4v-8l-4-1-1-1z" fill="#255DAF"/>
<path transform="translate(155,344)" d="m0 0 5 1v19l-1 3-7-1-1-1-1-7v-9l2-4z" fill="#FEFEFE"/>
<path transform="translate(1166,662)" d="m0 0h3l1 3v38l1 2-7 1v-43z" fill="#235DB3"/>
<path transform="translate(1407,385)" d="m0 0 2 4-2 4-7 8-11 10-9 5 1-4 5-5 8-10 12-10z" fill="#F29D24"/>
<path transform="translate(558,381)" d="m0 0h23l-1 2-19 5-23 7h-6l-1-3h6l7-2 8-4 4-4z" fill="#F9FAFD"/>
<path transform="translate(294,542)" d="m0 0 16 7 15 3 10 1-1 2-23-1h-14l-4-5z" fill="#FEFEFE"/>
<path transform="translate(589,179)" d="m0 0 4 1-24 7-28 8-48 13-4-1 25-8 18-4 24-7 18-5z" fill="#8AD3FB"/>
<path transform="translate(1028,738)" d="m0 0h4v4l-5 1-1 12v12l-1 12v40l9 2v1h-11l-2-2 1-7 2-70 2-4z" fill="#286BC0"/>
<path transform="translate(1153,754)" d="m0 0h6l1 11h-2v22l-1 32-1 15h-1v-79z" fill="#286BC0"/>
<path transform="translate(859,560)" d="m0 0 20 1 3 1 20 2 2 1 14 1h14v2l-7 2-51-6-12-1-3-1z" fill="#224F9A"/>
<path transform="translate(537,149)" d="m0 0h6l1 2-2 1-2 5h-7l-3-3v2h-2v2l-13 1 1-4h-2l1-3h5l3-2zm0 2 1 2h2v-2zm-11 0-2 2h2l1 3v-3l3-1z" fill="#C4E2F3"/>
<path transform="translate(375,405)" d="m0 0h1v26l-1 1h-9l-3-3v-8l2-1v4h5l3 2v-7l-5-2 6-7z" fill="#FDFDFD"/>
<path transform="translate(1201,677)" d="m0 0h3l-1 4-4 1-1 3 2 6-8 4-2 3-5 2-2 2-3-6v-2l12-4 4-12 3 1z" fill="#BFE0F5"/>
<path transform="translate(986,510)" d="m0 0 1 2 8-2 1 10-1 2-4 1-12-3v-3-3l-1-2h8z" fill="#F39026"/>
<path transform="translate(507,358)" d="m0 0h17l-4 2-17 5h-3l1 3-5 1-2 9h-2v-10l2-5 2-1-2-2z" fill="#F7F8FD"/>
<path transform="translate(1247,734)" d="m0 0 5 1v39l-1 33h-2v-29l1-41-6 2 2-4z" fill="#286BC0"/>
<path transform="translate(432,347)" d="m0 0h1l1 17v18l5-3h6l-1 5h-2l-1 5-6 2-2-1 1 4h-2z" fill="#FEFEFE"/>
<path transform="translate(1253,720)" d="m0 0h1v11l-2-1v-2l-6-1v2h-2l-2 6-2 7-1 8h-1l-1-22z" fill="#224F9A"/>
<path transform="translate(198,730)" d="m0 0 11 1 2 1 22 2 33 1-2 2h-34l-30-4-2-1z" fill="#23529F"/>
<path transform="translate(1192,694)" d="m0 0 2 4 2 7-2 8-3 3-2-3 1-4-3 1-1-6-2-2 1-3 5-2z" fill="#C4E1FD"/>
<path transform="translate(192,608)" d="m0 0 12 6v2h3v2l5 2 4 2v2h3v2l6 2 3 2v2h3v2l4 1 5 3v2l5 2 3 3-3 1-9-6v-2l-5-2-16-11-11-7-4-2v-2h-3v-2l-5-2z" fill="#2559A9"/>
<path transform="translate(338,521)" d="m0 0h5l-1 4 7-1-3 3-10 4-13 1 4-2h2l-2-5z" fill="#FDFCFC"/>
<path transform="translate(701,167)" d="m0 0m-4 1h4v3l-15 4-1 1-10 2-10 3-9 1v-2l23-7z" fill="#93D5FA"/>
<path transform="translate(1013,580)" d="m0 0h21l21 2 16 3v2h-8l-50-6z" fill="#3468B4"/>
<path transform="translate(298,553)" d="m0 0h13l14 1v1l-16 1-1 2 4 1-2 6-3-3-3-1-1 6-2-2-3-8z" fill="#F9AB92"/>
<path transform="translate(854,157)" d="m0 0 28 5v4l-10-2-9 1h-5l-5-4z" fill="#C4E1FD"/>
<path transform="translate(313,721)" d="m0 0 2 1v2l-16 7-17 4-17 2-3-3 21-2 18-5z" fill="#275EAF"/>
<path transform="translate(1107,743)" d="m0 0h4v33l-1 1h-5v-2h2v-17l1-13z" fill="#255CAC"/>
<path transform="translate(1143,752)" d="m0 0 4 1-1 3-1 14-1 75h-1z" fill="#224E99"/>
<path transform="translate(256,569)" d="m0 0 3 4 4 15 2 18v11l-3 2-2-31-4-14z" fill="#2C6DC4"/>
<path transform="translate(1094,738)" d="m0 0 7 2 1 2-5 2v26l1 5-4 1z" fill="#2460B5"/>
<path transform="translate(939,395)" d="m0 0h13v1l-11 1-1 3h-2v6l-5 1v6l-2 2-1-1v-12l7-6z" fill="#25539F"/>
<path transform="translate(1158,765)" d="m0 0h1v67h-1l-1-13-1-2 1-34v-10z" fill="#225AAE"/>
<path transform="translate(1229,632)" d="m0 0h7v2l4 1-17 2v2h-13v-2l-2-1 7-2z" fill="#2C71C7"/>
<path transform="translate(650,511)" d="m0 0h3v11l-2 7-4-1-3-2 5-2 2-5-4-2h-8l-4-2 4-2z" fill="#2766BC"/>
<path transform="translate(332,380)" d="m0 0 2 4 1 9-3-1-1 5 1 7h-2l-5-8 1-4v-3h2l2-7z" fill="#F29222"/>
<path transform="translate(361,580)" d="m0 0 2 1 5 20 1 13v26h-1l-2-28-2-15-4-16z" fill="#23519E"/>
<path transform="translate(755,579)" d="m0 0h1l1 37v25l-1 14h-1l-1-15v-26z" fill="#C4E2F3"/>
<path transform="translate(865,564)" d="m0 0h5l2 1h9l-2 3h-7l-4-1 1 2v7h-2l-1 2-1-4-1 5-3-1 3-13z" fill="#F2A226"/>
<path transform="translate(635,506)" d="m0 0h7l-4 2-1 5-10 1v6l-3-3-1-4 2-5z" fill="#FAFBFD"/>
<path transform="translate(612,331)" d="m0 0h5l-3 2-32 9-17 5-3-1 12-5 17-4z" fill="#F8F9FD"/>
<path transform="translate(232,256)" d="m0 0h7l-3 2-27 8-11 4-3-1 10-5 21-7z" fill="#C4E2F3"/>
<path transform="translate(297,680)" d="m0 0 6 3v2l4 1v2l4 1 7 5v2l5 2 7 5-2 3-18-14-6-4v-2l-4-1-3-2z" fill="#2965BA"/>
<path transform="translate(1014,545)" d="m0 0h25l15 3 4 2h-10l-34-4z" fill="#E8EFFC"/>
<path transform="translate(872,448)" d="m0 0 3 1v18l5-2v2l-5 3h-2l-1 2-1-3v-20z" fill="#2B7BDF"/>
<path transform="translate(1072,653)" d="m0 0h5l-1 3-5 2-1 2v8l4 4v2h5l-1 4-7-3-5-7 1-11z" fill="#F2A422"/>
<path transform="translate(1303,443)" d="m0 0h1l-1 8-2 13 8-11 4-4-2 5-6 9-4 7h-4l2-13z" fill="#2454A1"/>
<path transform="translate(369,621)" d="m0 0h1v20l-2 19-1 5-1 6-3-1 2-14 2-15 1-1z" fill="#2E72CC"/>
<path transform="translate(821,555)" d="m0 0 10 1 5 1 14 1 9 2v2l-13-1-25-3z" fill="#255AAA"/>
<path transform="translate(709,545)" d="m0 0h11l37 5v10h-2l-2-7-12-3-32-4z" fill="#A6D5F7"/>
<path transform="translate(1372,254)" d="m0 0 1 2-11 18-13 18-6 9-3-1 12-16 7-10 1-2h2l2-5z" fill="#224E99"/>
<path transform="translate(1071,585)" d="m0 0h10l2 1 21 2 1 3-14-1-16-2-4-1z" fill="#2D61AF"/>
<path transform="translate(1023,779)" d="m0 0h2v40l9 2v1h-11l-2-2 1-7z" fill="#286BC0"/>
<path transform="translate(1238,774)" d="m0 0 3 1v24l-1 10h-2z" fill="#2256A7"/>
<path transform="translate(579,516)" d="m0 0h4l-2 5-1 1h-10l-2 1h-9v-2z" fill="#C4E2F3"/>
<path transform="translate(756,548)" d="m0 0 23 2 7 2v-2l4 1 5 2v1l-18-1-21-3z" fill="#2353A0"/>
<path transform="translate(1153,754)" d="m0 0h6l1 11h-2l-1 18-2-3v-25z" fill="#2666BA"/>
<path transform="translate(1069,652)" d="m0 0 2 1-3 4-1 11 4 5v2l4 2v2l-4-2-5-5-2-3v-11l3-5z" fill="#F4923A"/>
<path transform="translate(628,515)" d="m0 0 3 1v3l5 4 4-1 10 1-2 3-1 1 1 2-10-3-9-4-2-1v-5z" fill="#4281CE"/>
<path transform="translate(508,382)" d="m0 0 3 1-6 4-1 1-11 1-2 3-6 1 2-3-2-4 6 1z" fill="#FBFBFD"/>
<path transform="translate(148,294)" d="m0 0 2 1-9 9-5 3-4 6-7 6-4 4v-3l14-15 7-6z" fill="#D5E8F6"/>
<path transform="translate(687,349)" d="m0 0 4 1-4 2 2 4-4-2v-2l-24 7-2-1v-2l3-2 11-1 9-3z" fill="#F0F2FD"/>
<path transform="translate(1180,696)" d="m0 0 3 4 2 6-1 4-2 2-6-1 1-5h2z" fill="#C3E0FD"/>
<path transform="translate(375,405)" d="m0 0h1v26h-2l-1-12-5-2 6-7z" fill="#D4E7F4"/>
<path transform="translate(968,888)" d="m0 0h2v3h3l1 4h9v1h-16l-6-3 5-4z" fill="#BADDF7"/>
<path transform="translate(875,883)" d="m0 0h2l1 3h-2v7l-6 1-6-2 5-4z" fill="#BFDEF9"/>
<path transform="translate(1034,793)" d="m0 0h1l1 28h-5l2-27z" fill="#235EB4"/>
<path transform="translate(550,524)" d="m0 0 1 4-6 1-1 3-5 1-5-1-5 1-1-2 13-4z" fill="#C4E2F3"/>
<path transform="translate(969,573)" d="m0 0h10l16 3v2l-24-2-2-1z" fill="#2D5FAC"/>
<path transform="translate(1080,642)" d="m0 0h31l1 3-11-1h-10l-11 1-3-2z" fill="#F2A328"/>
<path transform="translate(301,359)" d="m0 0 3 1 3 4 6 12v2l-4-2-6-10-2-3z" fill="#BE7B3F"/>
<path transform="translate(366,789)" d="m0 0h2v12l-3 8-8 7-4 3 2-4 7-8 3-6z" fill="#FBBAAA"/>
<path transform="translate(374,534)" d="m0 0 2 1v31h-1l-1-12v-10l-1-2-5-1v-2l6-2z" fill="#8DD3FA"/>
<path transform="translate(1104,734)" d="m0 0 6 1 2 8-5-1-1-2-8-3 2-2z" fill="#C4E1F3"/>
<path transform="translate(329,704)" d="m0 0 4 2v3h-2l-2 4-4 2v2l-9 6-2-1 4-4 6-4 2-3h2z" fill="#275EAF"/>
<path transform="translate(734,511)" d="m0 0h23v4l-16-1-7-1z" fill="#CDE4F6"/>
<path transform="translate(1184,667)" d="m0 0 5 1 4 4 1 3-2 8-2-2v-7l-2 1v-2l-4-1-1-1z" fill="#2C6EC2"/>
<path transform="translate(480,408)" d="m0 0h1l1 10 2 5v7l-1 2h-2l-1-9-1-2v-10z" fill="#EFF1FD"/>
<path transform="translate(376,810)" d="m0 0h2l-2 5-12 12-4 1 2-4 10-9z" fill="#2F77D3"/>
<path transform="translate(192,608)" d="m0 0 12 6v2h3v2l5 2 4 2 1 3-5-2-9-6-3-1v-2h-3v-2l-5-2z" fill="#2455A3"/>
<path transform="translate(1094,738)" d="m0 0 7 2 1 2-5 2-2 15h-1z" fill="#23539F"/>
<path transform="translate(738,678)" d="m0 0 2 1-8 4-14 4-5 2-4-1 12-4h2v-2z" fill="#C5E2F4"/>
<path transform="translate(907,566)" d="m0 0h25v2l-7 2-18-2z" fill="#22509C"/>
<path transform="translate(864,563)" d="m0 0h10l15 2-1 4-8-1v-2h-9l-1-1h-6z" fill="#F29222"/>
<path transform="translate(818,537)" d="m0 0 5 1 1 1v9l-2 1 1-8-3 3-3 8-2-2z" fill="#2E77D2"/>
<path transform="translate(343,352)" d="m0 0h1v8l-7 15h-2l3-10z" fill="#D48133"/>
<path transform="translate(1253,720)" d="m0 0h1v11l-2-1v-2l-7-1v-3z" fill="#22519D"/>
<path transform="translate(650,511)" d="m0 0h3v11l-2 7-4-1-3-2 5-2 2-5-3-1-1-3 2-1 2 1 1-3z" fill="#2768BE"/>
<path transform="translate(1333,425)" d="m0 0 3 1v4l-5 3-2 2h-2v-6l4-3z" fill="#F4994E"/>
<path transform="translate(1392,399)" d="m0 0 1 2-2 7-4 4-7 4 1-4 5-5z" fill="#F5964D"/>
<path transform="translate(676,174)" d="m0 0m-4 1h4l-1 3-10 3-9 1v-2z" fill="#8FD4FA"/>
<path transform="translate(610,195)" d="m0 0 6 3-6 3h-9v-3z" fill="#C4E2F3"/>
<path transform="translate(551,641)" d="m0 0 8 1v4l-2 1h-9v-2l2-1z" fill="#C4E1F3"/>
<path transform="translate(722,544)" d="m0 0 16 1 9 2v2l-13-1-12-2z" fill="#265AA9"/>
<path transform="translate(1328,497)" d="m0 0 2 1-14 12-4 4h-2l1-4h2l2-4 7-4z" fill="#416DB4"/>
<path transform="translate(1210,716)" d="m0 0 2 2-2 3h-2v2l-12 6-3-1 8-4h2l1-4h2v-2z" fill="#C4E2F4"/>
<path transform="translate(1187,683)" d="m0 0v3l-2 3h2l1-3 3 1-3 6-8 1 1-5h3l1-4z" fill="#2E6FC2"/>
<path transform="translate(642,506)" d="m0 0 1 2-2 3 3 2-17 3v-3l9-1 2-5z" fill="#DEE9FB"/>
<path transform="translate(313,721)" d="m0 0 2 1v2l-16 7h-2v-3l6-2z" fill="#2A68BE"/>
<path transform="translate(1e3 576)" d="m0 0 24 4v1l-22-1-5-1v-2z" fill="#23529F"/>
<path transform="translate(1108,751)" d="m0 0h1l1 26h-5v-2h2v-17z" fill="#235DB3"/>
<path transform="translate(588,634)" d="m0 0h2l-1 5-1 1h-9l1-4z" fill="#C4E2F3"/>
<path transform="translate(1303,304)" d="m0 0 1 4-9 27h-1v-6l3-7z" fill="#2C5AA5"/>
<path transform="translate(968,424)" d="m0 0 3 1 1 4-1 3-4 2-4-1 2-3v-3l3-2z" fill="#2663B9"/>
<path transform="translate(256,569)" d="m0 0 3 4 4 15-1 3-2-3-4-14z" fill="#265CAC"/>
<path transform="translate(979,520)" d="m0 0 10 1 6 1 1 3h-2v2h-4v-2h-3v-3l-8-1z" fill="#4298F9"/>
<path transform="translate(514,199)" d="m0 0 2 1-1 2-22 6-4-1z" fill="#8FD4FA"/>
<path transform="translate(891,566)" d="m0 0h9l7 1 1 2-4 1h-7l-6-2z" fill="#F29722"/>
<path transform="translate(658,354)" d="m0 0 4 1-5 5-6 2h-5l1-2 5-1 4-4z" fill="#FBFBFD"/>
<path transform="translate(328,391)" d="m0 0 3 3 1 10h-2l-5-8v-3h3z" fill="#F2A322"/>
<path transform="translate(332,377)" d="m0 0h2l-2 4-2-1zm-3 4 2 1-2 5-6 7-2-1v-2l3-2 3-5z" fill="#9C7153"/>
<path transform="translate(1150,686)" d="m0 0h2v19h-1l-2-10v-7z" fill="#366FBD"/>
<path transform="translate(841,558)" d="m0 0h9l9 2v2l-13-1-5-1z" fill="#2558A8"/>
<path transform="translate(1354,282)" d="m0 0v3l-7 9-4 7-3-1 12-16z" fill="#365692"/>
<path transform="translate(1157,807)" d="m0 0h2v25h-1l-1-13-1-2z" fill="#2255A6"/>
<path transform="translate(720,508)" d="m0 0 9 1 5 1v3l-14-2z" fill="#DBE8F9"/>
<path transform="translate(453,345)" d="m0 0h4l2 5-4 1h-5l1-4z" fill="#FEFEFE"/>
<path transform="translate(1013,580)" d="m0 0h21l3 1v2l-17-1-7-1z" fill="#3D79C8"/>
<path transform="translate(802,536)" d="m0 0h4v13l-2-1v-10l-4 10-2-4z" fill="#3483DD"/>
<path transform="translate(882,460)" d="m0 0 3 1-2 4-9 3 1-4z" fill="#378FF3"/>
<path transform="translate(748,550)" d="m0 0h9v10h-2l-2-7-5-2z" fill="#D1E5F7"/>
<path transform="translate(854,384)" d="m0 0h1l1 8 6 1 2 1v2l-7-1-3-2-1-7z" fill="#3176CD"/>
<path transform="translate(1023,813)" d="m0 0h1l1 6 9 2v1h-11l-2-2z" fill="#2F76CC"/>
<path transform="translate(333,706)" d="m0 0 6 4v2l4 1v2h2l-1 3-11-8z" fill="#2A67BC"/>
<path transform="translate(841,684)" d="m0 0 12 3v1h-9l-2-1v5l-2-1v-6z" fill="#317DDB"/>
<path transform="translate(823,548)" d="m0 0 14 3v1h-16z" fill="#286CC2"/>
<path transform="translate(799,152)" d="m0 0 10 1 9 1-4 2h-12v-2l-3-1z" fill="#C4E1FC"/>
<path transform="translate(1172,707)" d="m0 0 2 4-4 1-4-1-6-2v-1z" fill="#C3E0FD"/>
<path transform="translate(1223,686)" d="m0 0 4 1 1 2 2 1-3 3-4-1-1-3z" fill="#E7EBFD"/>
<path transform="translate(804,537)" d="m0 0h1v9l-5 2 1-6z" fill="#EED9E2"/>
<path transform="translate(628,515)" d="m0 0 3 1v3l5 4 2 2-6-1-5-3v-5z" fill="#65A4E3"/>
<path transform="translate(365,599)" d="m0 0h2l1 2v13l-2 1z" fill="#275FB1"/>
<path transform="translate(331,704)" d="m0 0 10 3 1 4 1 2-4-1v-2l-4-2z" fill="#F7B3A1"/>
<path transform="translate(98,616)" d="m0 0 1 3h-2l4 7v8l-2-2-3-10 1-5z" fill="#DAE8F9"/>
<path transform="translate(485,386)" d="m0 0 8 1-2 5-6 1 2-3z" fill="#FEFEFE"/>
<path transform="translate(476,354)" d="m0 0v3l-4 2h-6l-3-2v-2l9 1z" fill="#FEFEFE"/>
<path transform="translate(491,344)" d="m0 0 3 1-3 2-10 4-3 1 2-4z" fill="#FEFEFE"/>
<path transform="translate(277,733)" d="m0 0m-3 0 3 1-1 2-11 1-3-3z" fill="#2B6AC0"/>
<path transform="translate(518,358)" d="m0 0h6l-4 2-10 3h-3v-2l5-2z" fill="#FAFBFD"/>
<path transform="translate(320,697)" d="m0 0 5 2 5 5-2 2-8-6z" fill="#2B6CC3"/>
<path transform="translate(1201,677)" d="m0 0h3l-1 4-4 1-2 2-1-6 3 1z" fill="#C5E2F6"/>
<path transform="translate(1236,632)" d="m0 0h9l4 2-2 1h-7l-4-1z" fill="#2668BD"/>
<path transform="translate(374,534)" d="m0 0 2 2-1 8-2-2-5-1v-2l6-2z" fill="#EDF2F8"/>
<path transform="translate(1374,417)" d="m0 0 4 1-6 5-5 1 3-5z" fill="#F69D66"/>
<path transform="translate(345,337)" d="m0 0h2v8l-2 5h-1v-9z" fill="#CE8036"/>
<path transform="translate(553,737)" d="m0 0 4 1-12 4-4-1 1-2z" fill="#C4E1F4"/>
<path transform="translate(224,734)" d="m0 0h14l-2 2-6 1-6-1z" fill="#2862B5"/>
<path transform="translate(356,697)" d="m0 0 1 4-4 9h-2l1-6z" fill="#2455A3"/>
<path transform="translate(1066,669)" d="m0 0h2l3 4v2l4 2v2l-4-2-5-5z" fill="#F38F33"/>
<path transform="translate(597,376)" d="m0 0h3v2l-4 2-4-1-10 2 2-2z" fill="#F9FAFD"/>
<path transform="translate(307,368)" d="m0 0h2l4 8v2l-4-2-2-6z" fill="#D58233"/>
<path transform="translate(553,308)" d="m0 0m-4 1h4v2l-14 4v-2z" fill="#FAFAFD"/>
<path transform="translate(1171,157)" d="m0 0 7 7v3h-2l-2-4h-3z" fill="#F29627"/>
<path transform="translate(1189,702)" d="m0 0 2 2-1 5-3 1-1-6z" fill="#E9ECFD"/>
<path transform="translate(814,533)" d="m0 0 2 1-4 13h-1l1-13z" fill="#2F79D5"/>
<path transform="translate(480,408)" d="m0 0h1l1 10 1 5-4-4v-8z" fill="#FEFEFE"/>
<path transform="translate(282,377)" d="m0 0h6l6 2v2l-12-1z" fill="#F4A347"/>
<path transform="translate(449,356)" d="m0 0 1 4-1 10-2-1v-10z" fill="#FEFEFE"/>
<path transform="translate(526,650)" d="m0 0h3l1 7-4 2-1-3z" fill="#C4E1F3"/>
<path transform="translate(686,540)" d="m0 0h8l2 3-14-1z" fill="#2864B7"/>
<path transform="translate(679,537)" d="m0 0 7 3v1h-10l1-3z" fill="#2455A3"/>
<path transform="translate(816,532)" d="m0 0 3 1-1 9-2-4-2 2 1-6z" fill="#ECDEEA"/>
<path transform="translate(892,399)" d="m0 0h1v7h4l-1 5-3-1-1-2z" fill="#2558A8"/>
<path transform="translate(296,375)" d="m0 0 4 1 1 5h-6z" fill="#F29F22"/>
<path transform="translate(662,354)" d="m0 0h6l-1 3-8 2v-3z" fill="#EBEEFD"/>
<path transform="translate(455,318)" d="m0 0 6 1 1 3-5 1-3-1z" fill="#E9ECFD"/>
<path transform="translate(1149,235)" d="m0 0 8 6 1 5-5-4-4-5z" fill="#626074"/>
<path transform="translate(758,149)" d="m0 0h10l-2 1v2l-5 1-3-2z" fill="#C4E1F3"/>
<path transform="translate(626,159)" d="m0 0 4 1-1 3h-9l2-3 5 2z" fill="#C4E1F5"/>
<path transform="translate(281,707)" d="m0 0h3l1 4h-4z" fill="#FEFEFE"/>
<path transform="translate(888,163)" d="m0 0 4 1z" fill="#C4E2F3"/>
<path transform="translate(1286,541)" d="m0 0" fill="#91C0FC"/>
<path transform="translate(168,325)" d="m0 0" fill="#FEFEFE"/>
<path transform="translate(512,156)" d="m0 0" fill="#C4E2F3"/>
<path transform="translate(1366,424)" d="m0 0" fill="#F8A686"/>
<path transform="translate(621,158)" d="m0 0" fill="#C4E2F3"/>
</svg>
