<?xml version="1.0" encoding="UTF-8"?>
<svg version="1.1" viewBox="0 0 1576 1532" width="394" height="383" xmlns="http://www.w3.org/2000/svg">
<path transform="translate(810,1)" d="m0 0h762l2 4v65l1-66h1v762h-1l-1-10-1 13-4 5h-2v2h-2l-2 4h-2l-2 4-722 722h-2v2l-8 7-4 5-5 5-6 7h-4l-1-2v-1525z" fill="#fff"/>
<path transform="translate(1,1)" d="m0 0 756 1 1 3v745l-1 19-6 7-4 4h-2v2h-2v2h-2v2h-2v2h-2v2h-2v2h-2l-2 4-718 718h-2l-2 4-5 4-1 2h-3v-1522z" fill="#fff"/>
<path transform="translate(34)" d="m0 0h15v1h-15z" fill="#fff"/>
<path transform="translate(2)" d="m0 0h13v1h-13z" fill="#fff"/>
<path transform="translate(27)" d="m0 0h6v1h-6z" fill="#fff"/>
<path transform="translate(822)" d="m0 0 4 1z" fill="#fff"/>
<path transform="translate(813)" d="m0 0 3 1z" fill="#fff"/>
<path transform="translate(753)" d="m0 0 3 1z" fill="#fff"/>
<path transform="translate(52)" d="m0 0 3 1z" fill="#fff"/>
<path transform="translate(1568)" d="m0 0 2 1z" fill="#fff"/>
<path transform="translate(1575,2)" d="m0 0" fill="#fff"/>
<path transform="translate(50)" d="m0 0" fill="#fff"/>
<path transform="translate(22)" d="m0 0" fill="#fff"/>
<path transform="translate(17)" d="m0 0" fill="#fff"/>
<path transform="translate(0)" d="m0 0" fill="#fff"/>
</svg>
