<svg xmlns="http://www.w3.org/2000/svg" xmlns:xlink="http://www.w3.org/1999/xlink" width="2000" zoomAndPan="magnify" viewBox="0 0 1500 1499.999933" height="2000" preserveAspectRatio="xMidYMid meet" version="1.0"><path fill="#ffffff" d="M 994.921875 880.378906 L 922.019531 868.378906 C 913.453125 839.335938 901.933594 811.515625 887.460938 784.921875 L 930.359375 724.921875 C 930.871094 724.203125 931.347656 723.46875 931.796875 722.710938 C 932.242188 721.953125 932.652344 721.179688 933.03125 720.386719 C 933.410156 719.59375 933.753906 718.785156 934.058594 717.960938 C 934.367188 717.136719 934.636719 716.304688 934.871094 715.457031 C 935.105469 714.609375 935.300781 713.753906 935.460938 712.886719 C 935.617188 712.023438 935.738281 711.15625 935.820312 710.28125 C 935.902344 709.40625 935.945312 708.527344 935.949219 707.648438 C 935.957031 706.769531 935.921875 705.894531 935.851562 705.015625 C 935.777344 704.140625 935.667969 703.269531 935.519531 702.40625 C 935.371094 701.539062 935.183594 700.679688 934.960938 699.832031 C 934.738281 698.980469 934.476562 698.144531 934.179688 697.316406 C 933.878906 696.488281 933.546875 695.675781 933.179688 694.878906 C 932.808594 694.082031 932.40625 693.300781 931.96875 692.539062 C 931.53125 691.777344 931.058594 691.035156 930.558594 690.316406 C 930.054688 689.59375 929.519531 688.898438 928.957031 688.222656 C 928.394531 687.550781 927.800781 686.902344 927.179688 686.28125 L 814.019531 573.121094 C 813.398438 572.5 812.75 571.90625 812.078125 571.34375 C 811.402344 570.777344 810.707031 570.246094 809.984375 569.742188 C 809.265625 569.238281 808.523438 568.769531 807.761719 568.332031 C 807 567.894531 806.21875 567.492188 805.421875 567.121094 C 804.625 566.753906 803.8125 566.417969 802.984375 566.121094 C 802.15625 565.824219 801.320312 565.5625 800.46875 565.339844 C 799.621094 565.117188 798.761719 564.929688 797.894531 564.78125 C 797.03125 564.632812 796.160156 564.523438 795.28125 564.449219 C 794.40625 564.378906 793.53125 564.34375 792.652344 564.347656 C 791.773438 564.355469 790.894531 564.398438 790.019531 564.480469 C 789.144531 564.5625 788.277344 564.683594 787.410156 564.839844 C 786.546875 565 785.691406 565.195312 784.84375 565.429688 C 783.996094 565.664062 783.160156 565.933594 782.339844 566.238281 C 781.515625 566.546875 780.707031 566.890625 779.914062 567.269531 C 779.121094 567.644531 778.34375 568.058594 777.589844 568.503906 C 776.832031 568.949219 776.09375 569.429688 775.378906 569.941406 L 715.378906 612.839844 C 688.78125 598.367188 660.960938 586.847656 631.921875 578.28125 L 619.921875 505.378906 C 619.777344 504.511719 619.59375 503.652344 619.375 502.796875 C 619.152344 501.945312 618.894531 501.105469 618.601562 500.277344 C 618.308594 499.445312 617.976562 498.632812 617.613281 497.832031 C 617.246094 497.03125 616.84375 496.246094 616.410156 495.480469 C 615.976562 494.714844 615.507812 493.972656 615.007812 493.246094 C 614.507812 492.523438 613.976562 491.820312 613.414062 491.144531 C 612.851562 490.464844 612.261719 489.816406 611.640625 489.191406 C 611.023438 488.5625 610.375 487.96875 609.703125 487.398438 C 609.03125 486.828125 608.335938 486.292969 607.617188 485.785156 C 606.898438 485.277344 606.15625 484.800781 605.398438 484.359375 C 604.636719 483.917969 603.855469 483.507812 603.058594 483.136719 C 602.261719 482.761719 601.449219 482.425781 600.625 482.121094 C 599.796875 481.820312 598.957031 481.554688 598.109375 481.328125 C 597.257812 481.097656 596.398438 480.90625 595.53125 480.753906 C 594.664062 480.601562 593.792969 480.488281 592.917969 480.410156 C 592.039062 480.335938 591.160156 480.296875 590.28125 480.300781 L 430.019531 480.300781 C 429.140625 480.296875 428.261719 480.335938 427.382812 480.410156 C 426.507812 480.488281 425.636719 480.601562 424.769531 480.753906 C 423.902344 480.90625 423.042969 481.097656 422.191406 481.328125 C 421.34375 481.554688 420.503906 481.820312 419.675781 482.121094 C 418.851562 482.425781 418.039062 482.761719 417.242188 483.136719 C 416.445312 483.507812 415.664062 483.917969 414.902344 484.359375 C 414.140625 484.800781 413.402344 485.277344 412.683594 485.785156 C 411.964844 486.292969 411.269531 486.828125 410.59375 487.398438 C 409.921875 487.96875 409.277344 488.5625 408.660156 489.191406 C 408.039062 489.816406 407.449219 490.464844 406.886719 491.144531 C 406.324219 491.820312 405.792969 492.523438 405.292969 493.246094 C 404.792969 493.972656 404.324219 494.714844 403.890625 495.480469 C 403.453125 496.246094 403.054688 497.03125 402.6875 497.832031 C 402.320312 498.632812 401.992188 499.445312 401.699219 500.277344 C 401.402344 501.105469 401.148438 501.945312 400.925781 502.796875 C 400.707031 503.652344 400.523438 504.511719 400.378906 505.378906 L 388.378906 578.28125 C 359.335938 586.847656 331.515625 598.367188 304.921875 612.839844 L 244.921875 569.941406 C 244.203125 569.429688 243.46875 568.949219 242.710938 568.503906 C 241.953125 568.058594 241.179688 567.644531 240.386719 567.269531 C 239.59375 566.890625 238.785156 566.546875 237.960938 566.238281 C 237.136719 565.933594 236.304688 565.664062 235.457031 565.429688 C 234.609375 565.195312 233.753906 565 232.886719 564.839844 C 232.023438 564.683594 231.15625 564.5625 230.28125 564.480469 C 229.40625 564.398438 228.527344 564.355469 227.648438 564.347656 C 226.769531 564.34375 225.894531 564.378906 225.015625 564.449219 C 224.140625 564.523438 223.269531 564.632812 222.40625 564.78125 C 221.539062 564.929688 220.679688 565.117188 219.832031 565.339844 C 218.980469 565.5625 218.144531 565.824219 217.316406 566.121094 C 216.488281 566.417969 215.675781 566.753906 214.878906 567.121094 C 214.082031 567.492188 213.300781 567.894531 212.539062 568.332031 C 211.777344 568.769531 211.035156 569.238281 210.316406 569.742188 C 209.59375 570.246094 208.898438 570.777344 208.222656 571.34375 C 207.550781 571.90625 206.902344 572.5 206.28125 573.121094 L 92.820312 685.980469 C 92.199219 686.601562 91.605469 687.25 91.042969 687.921875 C 90.480469 688.597656 89.945312 689.292969 89.441406 690.015625 C 88.941406 690.734375 88.46875 691.476562 88.03125 692.238281 C 87.59375 693 87.191406 693.78125 86.820312 694.578125 C 86.453125 695.375 86.121094 696.1875 85.820312 697.015625 C 85.523438 697.84375 85.261719 698.679688 85.039062 699.53125 C 84.816406 700.378906 84.628906 701.238281 84.480469 702.105469 C 84.332031 702.96875 84.222656 703.839844 84.148438 704.71875 C 84.078125 705.59375 84.042969 706.46875 84.050781 707.347656 C 84.054688 708.226562 84.097656 709.105469 84.179688 709.980469 C 84.261719 710.855469 84.382812 711.722656 84.539062 712.589844 C 84.699219 713.453125 84.894531 714.308594 85.128906 715.15625 C 85.363281 716.003906 85.632812 716.839844 85.941406 717.660156 C 86.246094 718.484375 86.589844 719.292969 86.96875 720.085938 C 87.347656 720.878906 87.757812 721.65625 88.203125 722.410156 C 88.652344 723.167969 89.128906 723.90625 89.640625 724.621094 L 132.539062 784.621094 C 118.066406 811.21875 106.546875 839.039062 97.980469 868.078125 L 25.078125 880.078125 C 24.210938 880.222656 23.351562 880.40625 22.5 880.625 C 21.648438 880.847656 20.804688 881.105469 19.976562 881.398438 C 19.144531 881.691406 18.332031 882.023438 17.53125 882.386719 C 16.730469 882.753906 15.945312 883.15625 15.179688 883.589844 C 14.414062 884.023438 13.671875 884.492188 12.945312 884.992188 C 12.222656 885.492188 11.523438 886.023438 10.84375 886.585938 C 10.167969 887.148438 9.515625 887.738281 8.890625 888.359375 C 8.265625 888.976562 7.667969 889.625 7.097656 890.296875 C 6.53125 890.96875 5.992188 891.664062 5.484375 892.382812 C 4.976562 893.101562 4.503906 893.84375 4.058594 894.601562 C 3.617188 895.363281 3.210938 896.144531 2.835938 896.941406 C 2.460938 897.738281 2.125 898.550781 1.824219 899.375 C 1.519531 900.203125 1.253906 901.042969 1.027344 901.890625 C 0.796875 902.742188 0.609375 903.601562 0.457031 904.46875 C 0.300781 905.335938 0.1875 906.207031 0.113281 907.082031 C 0.0351562 907.960938 0 908.839844 0 909.71875 L 0 1069.679688 C 0 1070.558594 0.0351562 1071.4375 0.113281 1072.316406 C 0.1875 1073.191406 0.300781 1074.066406 0.457031 1074.933594 C 0.609375 1075.800781 0.796875 1076.65625 1.027344 1077.507812 C 1.253906 1078.359375 1.519531 1079.195312 1.824219 1080.023438 C 2.125 1080.851562 2.460938 1081.660156 2.835938 1082.460938 C 3.210938 1083.257812 3.617188 1084.035156 4.058594 1084.796875 C 4.503906 1085.558594 4.976562 1086.296875 5.484375 1087.015625 C 5.992188 1087.738281 6.53125 1088.433594 7.097656 1089.105469 C 7.667969 1089.777344 8.265625 1090.421875 8.890625 1091.042969 C 9.515625 1091.660156 10.167969 1092.25 10.84375 1092.8125 C 11.523438 1093.375 12.222656 1093.90625 12.945312 1094.40625 C 13.671875 1094.90625 14.414062 1095.375 15.179688 1095.8125 C 15.945312 1096.246094 16.730469 1096.644531 17.53125 1097.011719 C 18.332031 1097.378906 19.144531 1097.707031 19.976562 1098 C 20.804688 1098.296875 21.648438 1098.554688 22.5 1098.773438 C 23.351562 1098.992188 24.210938 1099.175781 25.078125 1099.320312 L 97.980469 1111.320312 C 106.546875 1140.363281 118.066406 1168.183594 132.539062 1194.78125 L 89.640625 1254.78125 C 89.128906 1255.496094 88.652344 1256.230469 88.203125 1256.988281 C 87.757812 1257.746094 87.347656 1258.519531 86.96875 1259.3125 C 86.589844 1260.105469 86.246094 1260.914062 85.941406 1261.738281 C 85.632812 1262.5625 85.363281 1263.398438 85.128906 1264.246094 C 84.894531 1265.089844 84.699219 1265.945312 84.539062 1266.8125 C 84.382812 1267.675781 84.261719 1268.546875 84.179688 1269.421875 C 84.097656 1270.296875 84.054688 1271.171875 84.050781 1272.050781 C 84.042969 1272.929688 84.078125 1273.808594 84.148438 1274.683594 C 84.222656 1275.558594 84.332031 1276.429688 84.480469 1277.296875 C 84.628906 1278.160156 84.816406 1279.019531 85.039062 1279.871094 C 85.261719 1280.71875 85.523438 1281.558594 85.820312 1282.382812 C 86.121094 1283.210938 86.453125 1284.023438 86.820312 1284.820312 C 87.191406 1285.617188 87.59375 1286.398438 88.03125 1287.160156 C 88.46875 1287.921875 88.941406 1288.664062 89.441406 1289.382812 C 89.945312 1290.105469 90.480469 1290.800781 91.042969 1291.476562 C 91.605469 1292.148438 92.199219 1292.796875 92.820312 1293.421875 L 205.980469 1406.578125 C 206.601562 1407.199219 207.25 1407.792969 207.921875 1408.355469 C 208.597656 1408.921875 209.292969 1409.453125 210.015625 1409.957031 C 210.738281 1410.460938 211.476562 1410.929688 212.238281 1411.367188 C 213.003906 1411.804688 213.78125 1412.207031 214.578125 1412.578125 C 215.375 1412.945312 216.1875 1413.28125 217.015625 1413.578125 C 217.84375 1413.875 218.679688 1414.136719 219.53125 1414.359375 C 220.378906 1414.585938 221.238281 1414.769531 222.105469 1414.917969 C 222.96875 1415.066406 223.839844 1415.179688 224.71875 1415.25 C 225.59375 1415.324219 226.46875 1415.355469 227.347656 1415.351562 C 228.226562 1415.347656 229.105469 1415.300781 229.980469 1415.21875 C 230.855469 1415.136719 231.722656 1415.019531 232.589844 1414.859375 C 233.453125 1414.703125 234.308594 1414.503906 235.15625 1414.269531 C 236.003906 1414.039062 236.839844 1413.765625 237.660156 1413.460938 C 238.484375 1413.152344 239.292969 1412.808594 240.085938 1412.433594 C 240.878906 1412.054688 241.65625 1411.640625 242.410156 1411.195312 C 243.167969 1410.75 243.90625 1410.269531 244.621094 1409.761719 L 304.621094 1366.859375 C 331.21875 1381.332031 359.039062 1392.851562 388.078125 1401.421875 L 400.078125 1474.320312 C 400.222656 1475.1875 400.40625 1476.046875 400.625 1476.902344 C 400.847656 1477.753906 401.105469 1478.59375 401.398438 1479.425781 C 401.691406 1480.253906 402.023438 1481.070312 402.386719 1481.871094 C 402.753906 1482.671875 403.15625 1483.453125 403.589844 1484.21875 C 404.023438 1484.984375 404.492188 1485.730469 404.992188 1486.453125 C 405.492188 1487.179688 406.023438 1487.878906 406.585938 1488.554688 C 407.148438 1489.234375 407.738281 1489.886719 408.359375 1490.511719 C 408.976562 1491.136719 409.625 1491.734375 410.296875 1492.300781 C 410.96875 1492.871094 411.664062 1493.410156 412.382812 1493.914062 C 413.101562 1494.421875 413.84375 1494.898438 414.601562 1495.339844 C 415.363281 1495.78125 416.144531 1496.191406 416.941406 1496.5625 C 417.738281 1496.9375 418.550781 1497.273438 419.375 1497.578125 C 420.203125 1497.878906 421.042969 1498.144531 421.890625 1498.375 C 422.742188 1498.601562 423.601562 1498.792969 424.46875 1498.945312 C 425.335938 1499.097656 426.207031 1499.210938 427.082031 1499.289062 C 427.960938 1499.363281 428.839844 1499.402344 429.71875 1499.398438 L 589.679688 1499.398438 C 590.558594 1499.402344 591.4375 1499.363281 592.316406 1499.289062 C 593.191406 1499.210938 594.066406 1499.097656 594.933594 1498.945312 C 595.796875 1498.792969 596.65625 1498.601562 597.507812 1498.375 C 598.359375 1498.144531 599.195312 1497.878906 600.023438 1497.578125 C 600.851562 1497.273438 601.660156 1496.9375 602.457031 1496.5625 C 603.257812 1496.191406 604.035156 1495.78125 604.796875 1495.339844 C 605.558594 1494.898438 606.296875 1494.421875 607.015625 1493.914062 C 607.738281 1493.410156 608.433594 1492.871094 609.105469 1492.300781 C 609.777344 1491.734375 610.421875 1491.136719 611.042969 1490.511719 C 611.660156 1489.886719 612.25 1489.234375 612.8125 1488.554688 C 613.375 1487.878906 613.90625 1487.175781 614.40625 1486.453125 C 614.90625 1485.730469 615.375 1484.984375 615.8125 1484.21875 C 616.246094 1483.453125 616.644531 1482.671875 617.011719 1481.871094 C 617.378906 1481.070312 617.707031 1480.253906 618 1479.425781 C 618.296875 1478.59375 618.554688 1477.753906 618.773438 1476.902344 C 618.992188 1476.046875 619.175781 1475.1875 619.320312 1474.320312 L 631.320312 1401.421875 C 660.363281 1392.851562 688.183594 1381.332031 714.78125 1366.859375 L 774.78125 1409.761719 C 775.496094 1410.269531 776.230469 1410.75 776.988281 1411.195312 C 777.746094 1411.640625 778.519531 1412.054688 779.3125 1412.433594 C 780.105469 1412.808594 780.914062 1413.152344 781.738281 1413.460938 C 782.5625 1413.765625 783.398438 1414.039062 784.242188 1414.269531 C 785.089844 1414.503906 785.945312 1414.703125 786.8125 1414.859375 C 787.675781 1415.019531 788.546875 1415.136719 789.421875 1415.21875 C 790.296875 1415.300781 791.171875 1415.347656 792.050781 1415.351562 C 792.929688 1415.355469 793.808594 1415.324219 794.683594 1415.25 C 795.558594 1415.179688 796.429688 1415.066406 797.296875 1414.917969 C 798.160156 1414.769531 799.019531 1414.585938 799.871094 1414.359375 C 800.71875 1414.136719 801.558594 1413.875 802.382812 1413.578125 C 803.210938 1413.28125 804.023438 1412.945312 804.820312 1412.578125 C 805.617188 1412.207031 806.398438 1411.804688 807.160156 1411.367188 C 807.921875 1410.929688 808.664062 1410.460938 809.382812 1409.957031 C 810.105469 1409.453125 810.800781 1408.921875 811.476562 1408.359375 C 812.148438 1407.792969 812.796875 1407.199219 813.417969 1406.578125 L 926.578125 1293.421875 C 927.199219 1292.796875 927.792969 1292.148438 928.355469 1291.476562 C 928.921875 1290.800781 929.453125 1290.105469 929.957031 1289.382812 C 930.460938 1288.664062 930.929688 1287.921875 931.367188 1287.160156 C 931.804688 1286.398438 932.207031 1285.617188 932.578125 1284.820312 C 932.945312 1284.023438 933.28125 1283.210938 933.578125 1282.382812 C 933.875 1281.558594 934.136719 1280.71875 934.359375 1279.871094 C 934.585938 1279.019531 934.769531 1278.160156 934.917969 1277.296875 C 935.066406 1276.429688 935.179688 1275.558594 935.25 1274.683594 C 935.320312 1273.808594 935.355469 1272.929688 935.351562 1272.050781 C 935.347656 1271.171875 935.300781 1270.296875 935.21875 1269.421875 C 935.136719 1268.546875 935.019531 1267.675781 934.859375 1266.8125 C 934.699219 1265.945312 934.503906 1265.089844 934.269531 1264.242188 C 934.039062 1263.398438 933.765625 1262.5625 933.460938 1261.738281 C 933.152344 1260.914062 932.808594 1260.105469 932.433594 1259.3125 C 932.054688 1258.519531 931.640625 1257.746094 931.195312 1256.988281 C 930.75 1256.230469 930.269531 1255.496094 929.761719 1254.78125 L 886.859375 1194.78125 C 901.332031 1168.183594 912.851562 1140.363281 921.417969 1111.320312 L 994.320312 1099.320312 C 995.1875 1099.175781 996.046875 1098.992188 996.902344 1098.773438 C 997.753906 1098.554688 998.59375 1098.296875 999.425781 1098 C 1000.253906 1097.707031 1001.070312 1097.378906 1001.871094 1097.011719 C 1002.671875 1096.644531 1003.453125 1096.246094 1004.21875 1095.8125 C 1004.984375 1095.375 1005.730469 1094.90625 1006.453125 1094.40625 C 1007.175781 1093.90625 1007.878906 1093.375 1008.554688 1092.8125 C 1009.234375 1092.25 1009.886719 1091.660156 1010.511719 1091.042969 C 1011.136719 1090.421875 1011.734375 1089.777344 1012.300781 1089.105469 C 1012.871094 1088.433594 1013.40625 1087.738281 1013.914062 1087.015625 C 1014.421875 1086.296875 1014.898438 1085.558594 1015.339844 1084.796875 C 1015.78125 1084.035156 1016.191406 1083.257812 1016.5625 1082.457031 C 1016.9375 1081.660156 1017.273438 1080.851562 1017.578125 1080.023438 C 1017.878906 1079.195312 1018.144531 1078.359375 1018.371094 1077.507812 C 1018.601562 1076.65625 1018.792969 1075.796875 1018.945312 1074.933594 C 1019.097656 1074.066406 1019.210938 1073.191406 1019.289062 1072.316406 C 1019.363281 1071.4375 1019.402344 1070.558594 1019.398438 1069.679688 L 1019.398438 910.019531 C 1019.402344 909.148438 1019.371094 908.28125 1019.300781 907.414062 C 1019.226562 906.546875 1019.121094 905.6875 1018.972656 904.828125 C 1018.828125 903.972656 1018.644531 903.121094 1018.425781 902.28125 C 1018.203125 901.4375 1017.949219 900.609375 1017.65625 899.789062 C 1017.363281 898.96875 1017.035156 898.164062 1016.675781 897.375 C 1016.3125 896.582031 1015.917969 895.808594 1015.488281 895.054688 C 1015.058594 894.296875 1014.597656 893.558594 1014.101562 892.84375 C 1013.609375 892.128906 1013.085938 891.433594 1012.53125 890.765625 C 1011.976562 890.09375 1011.394531 889.449219 1010.785156 888.828125 C 1010.175781 888.207031 1009.539062 887.613281 1008.878906 887.050781 C 1008.214844 886.484375 1007.53125 885.949219 1006.824219 885.445312 C 1006.117188 884.941406 1005.386719 884.46875 1004.636719 884.023438 C 1003.886719 883.582031 1003.121094 883.175781 1002.335938 882.800781 C 1001.550781 882.425781 1000.75 882.085938 999.9375 881.78125 C 999.125 881.472656 998.296875 881.203125 997.460938 880.96875 C 996.621094 880.738281 995.773438 880.539062 994.921875 880.378906 Z M 960 1044.601562 L 893.160156 1055.761719 C 891.730469 1056.007812 890.324219 1056.359375 888.945312 1056.8125 C 887.566406 1057.265625 886.230469 1057.816406 884.929688 1058.460938 C 883.628906 1059.109375 882.386719 1059.847656 881.191406 1060.671875 C 880 1061.5 878.875 1062.410156 877.816406 1063.402344 C 876.753906 1064.394531 875.773438 1065.457031 874.867188 1066.589844 C 873.960938 1067.722656 873.140625 1068.917969 872.40625 1070.167969 C 871.675781 1071.421875 871.035156 1072.722656 870.492188 1074.066406 C 869.949219 1075.414062 869.503906 1076.789062 869.160156 1078.199219 C 864.722656 1096.390625 858.921875 1114.136719 851.761719 1131.4375 C 844.597656 1148.742188 836.15625 1165.394531 826.441406 1181.398438 C 825.679688 1182.648438 825.015625 1183.941406 824.449219 1185.285156 C 823.878906 1186.628906 823.410156 1188.007812 823.042969 1189.421875 C 822.671875 1190.832031 822.410156 1192.265625 822.25 1193.714844 C 822.089844 1195.167969 822.039062 1196.621094 822.089844 1198.078125 C 822.144531 1199.539062 822.300781 1200.984375 822.566406 1202.421875 C 822.832031 1203.855469 823.199219 1205.265625 823.667969 1206.648438 C 824.136719 1208.027344 824.707031 1209.371094 825.371094 1210.667969 C 826.035156 1211.96875 826.792969 1213.210938 827.640625 1214.398438 L 867.058594 1269.601562 L 789.601562 1346.820312 L 734.398438 1307.398438 C 733.210938 1306.554688 731.96875 1305.796875 730.667969 1305.132812 C 729.371094 1304.464844 728.027344 1303.898438 726.648438 1303.429688 C 725.265625 1302.957031 723.855469 1302.589844 722.421875 1302.328125 C 720.984375 1302.0625 719.539062 1301.902344 718.078125 1301.851562 C 716.621094 1301.796875 715.167969 1301.851562 713.714844 1302.011719 C 712.265625 1302.167969 710.832031 1302.433594 709.421875 1302.800781 C 708.007812 1303.167969 706.628906 1303.640625 705.285156 1304.207031 C 703.941406 1304.777344 702.648438 1305.441406 701.398438 1306.199219 C 685.394531 1315.917969 668.742188 1324.359375 651.4375 1331.519531 C 634.136719 1338.683594 616.390625 1344.480469 598.199219 1348.917969 C 596.789062 1349.265625 595.414062 1349.707031 594.066406 1350.253906 C 592.722656 1350.796875 591.421875 1351.433594 590.167969 1352.167969 C 588.917969 1352.902344 587.722656 1353.71875 586.589844 1354.625 C 585.457031 1355.53125 584.394531 1356.515625 583.402344 1357.574219 C 582.410156 1358.632812 581.5 1359.761719 580.675781 1360.953125 C 579.847656 1362.144531 579.109375 1363.390625 578.460938 1364.691406 C 577.816406 1365.988281 577.265625 1367.328125 576.8125 1368.707031 C 576.359375 1370.085938 576.007812 1371.488281 575.761719 1372.917969 L 564.601562 1440 L 455.398438 1440 L 444 1373.160156 C 443.75 1371.730469 443.398438 1370.324219 442.949219 1368.945312 C 442.496094 1367.566406 441.945312 1366.230469 441.296875 1364.929688 C 440.652344 1363.628906 439.914062 1362.386719 439.085938 1361.191406 C 438.257812 1360 437.347656 1358.875 436.359375 1357.816406 C 435.367188 1356.753906 434.304688 1355.769531 433.171875 1354.867188 C 432.035156 1353.960938 430.84375 1353.140625 429.589844 1352.40625 C 428.335938 1351.675781 427.039062 1351.035156 425.691406 1350.492188 C 424.347656 1349.949219 422.96875 1349.503906 421.558594 1349.160156 C 403.367188 1344.722656 385.621094 1338.921875 368.320312 1331.757812 C 351.019531 1324.597656 334.367188 1316.15625 318.359375 1306.441406 C 317.113281 1305.679688 315.816406 1305.015625 314.472656 1304.449219 C 313.128906 1303.878906 311.75 1303.410156 310.339844 1303.042969 C 308.925781 1302.671875 307.496094 1302.410156 306.042969 1302.25 C 304.59375 1302.089844 303.136719 1302.039062 301.679688 1302.089844 C 300.222656 1302.144531 298.773438 1302.300781 297.339844 1302.566406 C 295.902344 1302.832031 294.496094 1303.199219 293.113281 1303.667969 C 291.730469 1304.136719 290.390625 1304.707031 289.089844 1305.371094 C 287.792969 1306.035156 286.546875 1306.792969 285.359375 1307.640625 L 230.160156 1347.058594 L 153.179688 1269.601562 L 192.601562 1214.398438 C 193.445312 1213.210938 194.203125 1211.96875 194.867188 1210.667969 C 195.535156 1209.371094 196.101562 1208.027344 196.570312 1206.648438 C 197.042969 1205.265625 197.410156 1203.855469 197.671875 1202.421875 C 197.9375 1200.984375 198.097656 1199.539062 198.148438 1198.078125 C 198.203125 1196.621094 198.148438 1195.167969 197.988281 1193.714844 C 197.832031 1192.265625 197.566406 1190.832031 197.199219 1189.421875 C 196.828125 1188.007812 196.359375 1186.628906 195.792969 1185.285156 C 195.222656 1183.941406 194.558594 1182.648438 193.800781 1181.398438 C 184.082031 1165.394531 175.640625 1148.742188 168.480469 1131.4375 C 161.316406 1114.136719 155.519531 1096.390625 151.078125 1078.199219 C 150.734375 1076.789062 150.292969 1075.414062 149.746094 1074.066406 C 149.203125 1072.722656 148.566406 1071.421875 147.832031 1070.167969 C 147.097656 1068.917969 146.28125 1067.722656 145.375 1066.589844 C 144.46875 1065.457031 143.484375 1064.394531 142.425781 1063.402344 C 141.363281 1062.410156 140.238281 1061.5 139.046875 1060.671875 C 137.855469 1059.847656 136.609375 1059.109375 135.308594 1058.460938 C 134.011719 1057.816406 132.671875 1057.265625 131.292969 1056.8125 C 129.914062 1056.359375 128.511719 1056.007812 127.078125 1055.761719 L 60 1044.601562 L 60 935.398438 L 126.839844 924 C 128.269531 923.75 129.675781 923.398438 131.054688 922.949219 C 132.433594 922.496094 133.769531 921.945312 135.070312 921.296875 C 136.371094 920.652344 137.613281 919.914062 138.808594 919.085938 C 140 918.257812 141.125 917.347656 142.183594 916.359375 C 143.246094 915.367188 144.226562 914.304688 145.132812 913.171875 C 146.039062 912.035156 146.859375 910.84375 147.59375 909.589844 C 148.324219 908.335938 148.964844 907.039062 149.507812 905.691406 C 150.050781 904.347656 150.496094 902.96875 150.839844 901.558594 C 155.277344 883.367188 161.078125 865.621094 168.238281 848.320312 C 175.402344 831.019531 183.84375 814.367188 193.558594 798.359375 C 194.320312 797.113281 194.984375 795.816406 195.550781 794.472656 C 196.121094 793.128906 196.589844 791.75 196.957031 790.339844 C 197.328125 788.925781 197.589844 787.496094 197.75 786.042969 C 197.910156 784.59375 197.960938 783.136719 197.910156 781.679688 C 197.855469 780.222656 197.699219 778.773438 197.433594 777.339844 C 197.167969 775.902344 196.800781 774.496094 196.332031 773.113281 C 195.863281 771.730469 195.292969 770.390625 194.628906 769.089844 C 193.964844 767.792969 193.207031 766.546875 192.359375 765.359375 L 152.941406 710.160156 L 230.398438 633.179688 L 285.601562 672.601562 C 286.789062 673.445312 288.03125 674.203125 289.332031 674.867188 C 290.628906 675.535156 291.972656 676.101562 293.351562 676.570312 C 294.734375 677.042969 296.144531 677.410156 297.578125 677.671875 C 299.015625 677.9375 300.460938 678.097656 301.921875 678.148438 C 303.378906 678.203125 304.832031 678.148438 306.285156 677.988281 C 307.734375 677.832031 309.167969 677.566406 310.578125 677.199219 C 311.992188 676.832031 313.371094 676.359375 314.714844 675.792969 C 316.058594 675.222656 317.351562 674.558594 318.601562 673.800781 C 334.605469 664.082031 351.257812 655.640625 368.5625 648.480469 C 385.863281 641.316406 403.609375 635.519531 421.800781 631.078125 C 423.210938 630.734375 424.585938 630.292969 425.933594 629.746094 C 427.277344 629.203125 428.578125 628.566406 429.832031 627.832031 C 431.082031 627.097656 432.277344 626.28125 433.410156 625.375 C 434.542969 624.46875 435.605469 623.484375 436.597656 622.425781 C 437.589844 621.363281 438.5 620.238281 439.324219 619.046875 C 440.152344 617.855469 440.890625 616.609375 441.539062 615.308594 C 442.183594 614.011719 442.734375 612.671875 443.1875 611.292969 C 443.640625 609.914062 443.992188 608.511719 444.238281 607.078125 L 455.398438 540 L 564.601562 540 L 575.761719 606.839844 C 576.007812 608.269531 576.359375 609.675781 576.8125 611.054688 C 577.265625 612.433594 577.816406 613.769531 578.460938 615.070312 C 579.109375 616.371094 579.847656 617.613281 580.675781 618.808594 C 581.5 620 582.410156 621.125 583.402344 622.183594 C 584.394531 623.246094 585.457031 624.226562 586.589844 625.132812 C 587.722656 626.039062 588.917969 626.859375 590.167969 627.59375 C 591.421875 628.324219 592.722656 628.964844 594.066406 629.507812 C 595.414062 630.050781 596.789062 630.496094 598.199219 630.839844 C 616.390625 635.277344 634.136719 641.078125 651.4375 648.238281 C 668.742188 655.402344 685.394531 663.84375 701.398438 673.558594 C 702.648438 674.320312 703.941406 674.980469 705.285156 675.550781 C 706.628906 676.121094 708.007812 676.589844 709.421875 676.957031 C 710.832031 677.328125 712.265625 677.589844 713.714844 677.75 C 715.167969 677.910156 716.621094 677.960938 718.078125 677.910156 C 719.539062 677.855469 720.984375 677.699219 722.421875 677.433594 C 723.855469 677.167969 725.265625 676.800781 726.648438 676.332031 C 728.027344 675.863281 729.371094 675.292969 730.667969 674.628906 C 731.96875 673.964844 733.210938 673.207031 734.398438 672.359375 L 789.601562 632.941406 L 866.820312 710.160156 L 827.398438 765.359375 C 826.554688 766.546875 825.796875 767.792969 825.132812 769.089844 C 824.464844 770.390625 823.898438 771.730469 823.429688 773.113281 C 822.957031 774.496094 822.589844 775.902344 822.328125 777.339844 C 822.0625 778.773438 821.902344 780.222656 821.851562 781.679688 C 821.796875 783.136719 821.851562 784.59375 822.011719 786.042969 C 822.167969 787.496094 822.433594 788.925781 822.800781 790.339844 C 823.167969 791.75 823.640625 793.128906 824.207031 794.472656 C 824.777344 795.816406 825.441406 797.113281 826.199219 798.359375 C 835.917969 814.367188 844.359375 831.019531 851.519531 848.320312 C 858.679688 865.621094 864.480469 883.367188 868.917969 901.558594 C 869.265625 902.96875 869.707031 904.347656 870.253906 905.691406 C 870.796875 907.039062 871.433594 908.335938 872.167969 909.589844 C 872.902344 910.84375 873.71875 912.035156 874.625 913.171875 C 875.53125 914.304688 876.515625 915.367188 877.574219 916.359375 C 878.636719 917.347656 879.761719 918.257812 880.953125 919.085938 C 882.144531 919.914062 883.390625 920.652344 884.691406 921.296875 C 885.988281 921.945312 887.328125 922.496094 888.707031 922.949219 C 890.085938 923.398438 891.488281 923.75 892.917969 924 L 959.761719 935.160156 Z M 960 1044.601562 " fill-opacity="1" fill-rule="nonzero"/><path fill="#ffffff" d="M 510 720 C 505.582031 720 501.164062 720.109375 496.75 720.324219 C 492.339844 720.542969 487.933594 720.867188 483.535156 721.300781 C 479.136719 721.734375 474.753906 722.273438 470.382812 722.921875 C 466.011719 723.570312 461.660156 724.324219 457.324219 725.1875 C 452.992188 726.050781 448.679688 727.019531 444.394531 728.089844 C 440.109375 729.164062 435.851562 730.34375 431.625 731.625 C 427.394531 732.910156 423.199219 734.292969 419.039062 735.78125 C 414.878906 737.273438 410.757812 738.859375 406.675781 740.550781 C 402.59375 742.242188 398.554688 744.035156 394.558594 745.921875 C 390.566406 747.8125 386.621094 749.796875 382.722656 751.882812 C 378.824219 753.964844 374.980469 756.140625 371.191406 758.414062 C 367.402344 760.683594 363.671875 763.046875 359.996094 765.503906 C 356.320312 767.957031 352.710938 770.5 349.160156 773.132812 C 345.613281 775.765625 342.128906 778.484375 338.714844 781.285156 C 335.296875 784.089844 331.953125 786.976562 328.679688 789.941406 C 325.40625 792.910156 322.207031 795.957031 319.082031 799.082031 C 315.957031 802.207031 312.910156 805.40625 309.941406 808.679688 C 306.976562 811.953125 304.089844 815.296875 301.289062 818.714844 C 298.484375 822.128906 295.765625 825.613281 293.132812 829.160156 C 290.5 832.710938 287.957031 836.320312 285.503906 839.996094 C 283.046875 843.667969 280.683594 847.402344 278.414062 851.191406 C 276.140625 854.980469 273.964844 858.824219 271.882812 862.722656 C 269.796875 866.621094 267.8125 870.566406 265.921875 874.558594 C 264.035156 878.554688 262.242188 882.59375 260.550781 886.675781 C 258.863281 890.757812 257.273438 894.878906 255.78125 899.039062 C 254.292969 903.199219 252.910156 907.394531 251.625 911.621094 C 250.34375 915.851562 249.164062 920.109375 248.089844 924.394531 C 247.019531 928.679688 246.050781 932.992188 245.1875 937.324219 C 244.324219 941.660156 243.570312 946.011719 242.921875 950.382812 C 242.273438 954.753906 241.734375 959.136719 241.300781 963.535156 C 240.867188 967.933594 240.542969 972.339844 240.324219 976.75 C 240.109375 981.164062 240 985.582031 240 990 C 240 994.417969 240.109375 998.835938 240.324219 1003.25 C 240.542969 1007.660156 240.867188 1012.066406 241.300781 1016.464844 C 241.734375 1020.863281 242.273438 1025.246094 242.921875 1029.617188 C 243.570312 1033.988281 244.324219 1038.339844 245.1875 1042.675781 C 246.050781 1047.007812 247.019531 1051.316406 248.089844 1055.605469 C 249.164062 1059.890625 250.34375 1064.148438 251.625 1068.375 C 252.910156 1072.605469 254.292969 1076.800781 255.78125 1080.960938 C 257.273438 1085.121094 258.863281 1089.242188 260.550781 1093.324219 C 262.242188 1097.40625 264.035156 1101.445312 265.921875 1105.441406 C 267.8125 1109.433594 269.796875 1113.378906 271.882812 1117.277344 C 273.964844 1121.175781 276.140625 1125.019531 278.414062 1128.808594 C 280.683594 1132.597656 283.046875 1136.328125 285.503906 1140.003906 C 287.957031 1143.679688 290.5 1147.289062 293.132812 1150.839844 C 295.765625 1154.386719 298.484375 1157.871094 301.289062 1161.285156 C 304.089844 1164.703125 306.976562 1168.046875 309.941406 1171.320312 C 312.910156 1174.59375 315.957031 1177.792969 319.082031 1180.917969 C 322.207031 1184.042969 325.40625 1187.089844 328.679688 1190.058594 C 331.953125 1193.023438 335.296875 1195.910156 338.714844 1198.710938 C 342.128906 1201.515625 345.613281 1204.234375 349.160156 1206.867188 C 352.710938 1209.5 356.320312 1212.042969 359.996094 1214.496094 C 363.671875 1216.953125 367.402344 1219.316406 371.191406 1221.585938 C 374.980469 1223.859375 378.824219 1226.035156 382.722656 1228.117188 C 386.621094 1230.203125 390.566406 1232.1875 394.558594 1234.078125 C 398.554688 1235.964844 402.59375 1237.757812 406.675781 1239.449219 C 410.757812 1241.136719 414.878906 1242.726562 419.039062 1244.214844 C 423.199219 1245.707031 427.394531 1247.089844 431.625 1248.375 C 435.851562 1249.65625 440.109375 1250.835938 444.394531 1251.910156 C 448.679688 1252.980469 452.992188 1253.949219 457.324219 1254.8125 C 461.660156 1255.675781 466.011719 1256.429688 470.382812 1257.078125 C 474.753906 1257.726562 479.136719 1258.265625 483.535156 1258.699219 C 487.933594 1259.132812 492.339844 1259.457031 496.75 1259.675781 C 501.164062 1259.890625 505.582031 1260 510 1260 C 514.417969 1260 518.835938 1259.890625 523.25 1259.675781 C 527.660156 1259.457031 532.066406 1259.132812 536.464844 1258.699219 C 540.863281 1258.265625 545.246094 1257.726562 549.617188 1257.078125 C 553.988281 1256.429688 558.339844 1255.675781 562.675781 1254.8125 C 567.007812 1253.949219 571.316406 1252.980469 575.605469 1251.910156 C 579.890625 1250.835938 584.148438 1249.65625 588.375 1248.375 C 592.605469 1247.089844 596.800781 1245.707031 600.960938 1244.214844 C 605.121094 1242.726562 609.242188 1241.136719 613.324219 1239.449219 C 617.40625 1237.757812 621.445312 1235.964844 625.441406 1234.078125 C 629.433594 1232.1875 633.378906 1230.203125 637.277344 1228.117188 C 641.175781 1226.035156 645.019531 1223.859375 648.808594 1221.585938 C 652.597656 1219.316406 656.328125 1216.953125 660.003906 1214.496094 C 663.679688 1212.042969 667.289062 1209.5 670.839844 1206.867188 C 674.386719 1204.234375 677.871094 1201.515625 681.285156 1198.710938 C 684.703125 1195.910156 688.046875 1193.023438 691.320312 1190.054688 C 694.59375 1187.089844 697.792969 1184.042969 700.917969 1180.917969 C 704.042969 1177.792969 707.089844 1174.59375 710.058594 1171.320312 C 713.023438 1168.046875 715.910156 1164.703125 718.710938 1161.285156 C 721.515625 1157.871094 724.234375 1154.386719 726.867188 1150.839844 C 729.5 1147.289062 732.042969 1143.679688 734.496094 1140.003906 C 736.953125 1136.328125 739.316406 1132.597656 741.585938 1128.808594 C 743.859375 1125.019531 746.035156 1121.175781 748.117188 1117.277344 C 750.203125 1113.378906 752.1875 1109.433594 754.078125 1105.441406 C 755.964844 1101.445312 757.757812 1097.40625 759.449219 1093.324219 C 761.136719 1089.242188 762.726562 1085.121094 764.214844 1080.960938 C 765.707031 1076.800781 767.089844 1072.605469 768.375 1068.375 C 769.65625 1064.148438 770.835938 1059.890625 771.910156 1055.605469 C 772.980469 1051.316406 773.949219 1047.007812 774.8125 1042.675781 C 775.675781 1038.339844 776.429688 1033.988281 777.078125 1029.617188 C 777.726562 1025.246094 778.265625 1020.863281 778.699219 1016.464844 C 779.132812 1012.066406 779.457031 1007.660156 779.675781 1003.25 C 779.890625 998.835938 780 994.417969 780 990 C 779.996094 985.582031 779.882812 981.167969 779.660156 976.757812 C 779.4375 972.34375 779.109375 967.941406 778.671875 963.542969 C 778.234375 959.148438 777.691406 954.765625 777.039062 950.398438 C 776.386719 946.027344 775.628906 941.679688 774.761719 937.347656 C 773.898438 933.015625 772.925781 928.707031 771.847656 924.421875 C 770.773438 920.136719 769.59375 915.882812 768.308594 911.65625 C 767.019531 907.429688 765.632812 903.238281 764.144531 899.078125 C 762.652344 894.921875 761.058594 890.800781 759.367188 886.722656 C 757.675781 882.640625 755.882812 878.605469 753.992188 874.613281 C 752.101562 870.621094 750.113281 866.675781 748.03125 862.78125 C 745.945312 858.886719 743.769531 855.046875 741.496094 851.257812 C 739.222656 847.46875 736.859375 843.738281 734.40625 840.066406 C 731.949219 836.394531 729.40625 832.785156 726.773438 829.238281 C 724.140625 825.6875 721.425781 822.207031 718.621094 818.792969 C 715.816406 815.378906 712.933594 812.035156 709.964844 808.761719 C 707 805.492188 703.953125 802.292969 700.832031 799.167969 C 697.707031 796.046875 694.507812 793 691.238281 790.035156 C 687.964844 787.066406 684.621094 784.179688 681.207031 781.378906 C 677.792969 778.574219 674.308594 775.859375 670.761719 773.226562 C 667.214844 770.59375 663.605469 768.050781 659.933594 765.59375 C 656.261719 763.140625 652.53125 760.777344 648.742188 758.503906 C 644.953125 756.230469 641.113281 754.054688 637.21875 751.96875 C 633.324219 749.886719 629.378906 747.898438 625.386719 746.007812 C 621.394531 744.117188 617.359375 742.324219 613.277344 740.632812 C 609.199219 738.941406 605.078125 737.347656 600.921875 735.855469 C 596.761719 734.367188 592.570312 732.976562 588.34375 731.691406 C 584.117188 730.40625 579.863281 729.226562 575.578125 728.152344 C 571.292969 727.074219 566.984375 726.101562 562.652344 725.238281 C 558.320312 724.371094 553.972656 723.613281 549.601562 722.960938 C 545.234375 722.308594 540.851562 721.765625 536.457031 721.328125 C 532.058594 720.890625 527.65625 720.5625 523.242188 720.339844 C 518.832031 720.117188 514.417969 720.003906 510 720 Z M 510 1200 C 506.5625 1200 503.128906 1199.914062 499.695312 1199.746094 C 496.261719 1199.578125 492.835938 1199.324219 489.417969 1198.988281 C 485.996094 1198.652344 482.585938 1198.230469 479.1875 1197.726562 C 475.785156 1197.222656 472.402344 1196.636719 469.03125 1195.964844 C 465.660156 1195.292969 462.308594 1194.542969 458.972656 1193.707031 C 455.640625 1192.871094 452.328125 1191.953125 449.039062 1190.957031 C 445.75 1189.960938 442.488281 1188.882812 439.253906 1187.722656 C 436.015625 1186.566406 432.8125 1185.328125 429.636719 1184.015625 C 426.460938 1182.699219 423.320312 1181.308594 420.214844 1179.835938 C 417.105469 1178.367188 414.039062 1176.824219 411.007812 1175.203125 C 407.976562 1173.582031 404.984375 1171.890625 402.039062 1170.121094 C 399.089844 1168.355469 396.1875 1166.519531 393.332031 1164.609375 C 390.472656 1162.699219 387.664062 1160.71875 384.902344 1158.671875 C 382.144531 1156.625 379.433594 1154.511719 376.777344 1152.332031 C 374.121094 1150.152344 371.519531 1147.90625 368.972656 1145.597656 C 366.425781 1143.292969 363.9375 1140.921875 361.507812 1138.492188 C 359.078125 1136.0625 356.707031 1133.574219 354.398438 1131.027344 C 352.09375 1128.480469 349.847656 1125.878906 347.667969 1123.222656 C 345.488281 1120.566406 343.375 1117.855469 341.328125 1115.097656 C 339.277344 1112.335938 337.300781 1109.527344 335.390625 1106.667969 C 333.480469 1103.8125 331.644531 1100.910156 329.875 1097.960938 C 328.109375 1095.011719 326.417969 1092.023438 324.796875 1088.992188 C 323.175781 1085.960938 321.632812 1082.894531 320.164062 1079.785156 C 318.691406 1076.679688 317.300781 1073.539062 315.984375 1070.363281 C 314.671875 1067.1875 313.433594 1063.980469 312.277344 1060.746094 C 311.117188 1057.511719 310.039062 1054.25 309.042969 1050.960938 C 308.042969 1047.671875 307.128906 1044.359375 306.292969 1041.027344 C 305.457031 1037.691406 304.707031 1034.339844 304.035156 1030.96875 C 303.363281 1027.597656 302.777344 1024.210938 302.273438 1020.8125 C 301.769531 1017.414062 301.347656 1014.003906 301.011719 1010.582031 C 300.675781 1007.164062 300.421875 1003.738281 300.253906 1000.304688 C 300.085938 996.871094 300 993.4375 300 990 C 300 986.5625 300.085938 983.128906 300.253906 979.695312 C 300.421875 976.261719 300.675781 972.835938 301.011719 969.417969 C 301.347656 965.996094 301.769531 962.585938 302.273438 959.1875 C 302.777344 955.785156 303.363281 952.402344 304.035156 949.03125 C 304.707031 945.660156 305.457031 942.308594 306.292969 938.972656 C 307.128906 935.640625 308.042969 932.328125 309.042969 929.039062 C 310.039062 925.75 311.117188 922.488281 312.277344 919.253906 C 313.433594 916.015625 314.671875 912.8125 315.984375 909.636719 C 317.300781 906.460938 318.691406 903.320312 320.164062 900.214844 C 321.632812 897.105469 323.175781 894.039062 324.796875 891.007812 C 326.417969 887.976562 328.109375 884.984375 329.875 882.039062 C 331.644531 879.089844 333.480469 876.1875 335.390625 873.332031 C 337.300781 870.472656 339.277344 867.664062 341.328125 864.902344 C 343.375 862.140625 345.488281 859.433594 347.667969 856.777344 C 349.847656 854.121094 352.09375 851.519531 354.398438 848.972656 C 356.707031 846.425781 359.078125 843.9375 361.507812 841.507812 C 363.9375 839.078125 366.425781 836.707031 368.972656 834.398438 C 371.519531 832.09375 374.121094 829.847656 376.777344 827.667969 C 379.433594 825.488281 382.144531 823.375 384.902344 821.328125 C 387.664062 819.277344 390.472656 817.300781 393.332031 815.390625 C 396.1875 813.480469 399.089844 811.644531 402.039062 809.875 C 404.984375 808.109375 407.976562 806.417969 411.007812 804.796875 C 414.039062 803.175781 417.105469 801.632812 420.214844 800.164062 C 423.320312 798.691406 426.460938 797.300781 429.636719 795.984375 C 432.8125 794.671875 436.015625 793.433594 439.253906 792.277344 C 442.488281 791.117188 445.75 790.039062 449.039062 789.042969 C 452.328125 788.046875 455.640625 787.128906 458.972656 786.292969 C 462.308594 785.457031 465.660156 784.707031 469.03125 784.035156 C 472.402344 783.363281 475.785156 782.777344 479.1875 782.273438 C 482.585938 781.769531 485.996094 781.347656 489.417969 781.011719 C 492.835938 780.675781 496.261719 780.421875 499.695312 780.253906 C 503.128906 780.085938 506.5625 780 510 780 C 513.4375 780 516.871094 780.085938 520.304688 780.253906 C 523.738281 780.421875 527.164062 780.675781 530.582031 781.011719 C 534.003906 781.347656 537.414062 781.769531 540.8125 782.273438 C 544.214844 782.777344 547.597656 783.363281 550.96875 784.035156 C 554.339844 784.707031 557.691406 785.457031 561.027344 786.292969 C 564.359375 787.128906 567.671875 788.042969 570.960938 789.042969 C 574.25 790.039062 577.511719 791.117188 580.746094 792.277344 C 583.984375 793.433594 587.1875 794.671875 590.363281 795.984375 C 593.539062 797.300781 596.679688 798.691406 599.785156 800.164062 C 602.894531 801.632812 605.960938 803.175781 608.992188 804.796875 C 612.023438 806.417969 615.011719 808.109375 617.960938 809.875 C 620.910156 811.644531 623.8125 813.480469 626.667969 815.390625 C 629.527344 817.300781 632.335938 819.277344 635.097656 821.328125 C 637.855469 823.375 640.566406 825.488281 643.222656 827.667969 C 645.878906 829.847656 648.480469 832.09375 651.027344 834.398438 C 653.574219 836.707031 656.0625 839.078125 658.492188 841.507812 C 660.921875 843.9375 663.292969 846.425781 665.601562 848.972656 C 667.90625 851.519531 670.152344 854.121094 672.332031 856.777344 C 674.511719 859.433594 676.625 862.144531 678.671875 864.902344 C 680.722656 867.664062 682.699219 870.472656 684.609375 873.332031 C 686.519531 876.1875 688.355469 879.089844 690.121094 882.039062 C 691.890625 884.984375 693.582031 887.976562 695.203125 891.007812 C 696.824219 894.039062 698.367188 897.105469 699.835938 900.214844 C 701.308594 903.320312 702.699219 906.460938 704.015625 909.636719 C 705.328125 912.8125 706.566406 916.015625 707.722656 919.253906 C 708.882812 922.488281 709.960938 925.75 710.957031 929.039062 C 711.953125 932.328125 712.871094 935.640625 713.707031 938.972656 C 714.542969 942.308594 715.292969 945.660156 715.964844 949.03125 C 716.636719 952.402344 717.222656 955.785156 717.726562 959.1875 C 718.230469 962.585938 718.652344 965.996094 718.988281 969.417969 C 719.324219 972.835938 719.578125 976.261719 719.746094 979.695312 C 719.914062 983.128906 720 986.5625 720 990 C 720 993.4375 719.914062 996.871094 719.746094 1000.304688 C 719.578125 1003.738281 719.324219 1007.164062 718.988281 1010.582031 C 718.652344 1014.003906 718.230469 1017.414062 717.726562 1020.8125 C 717.222656 1024.210938 716.636719 1027.597656 715.964844 1030.96875 C 715.292969 1034.339844 714.542969 1037.691406 713.707031 1041.027344 C 712.871094 1044.359375 711.953125 1047.671875 710.957031 1050.960938 C 709.960938 1054.25 708.882812 1057.511719 707.722656 1060.746094 C 706.566406 1063.980469 705.328125 1067.1875 704.015625 1070.363281 C 702.699219 1073.539062 701.308594 1076.679688 699.835938 1079.785156 C 698.367188 1082.894531 696.824219 1085.960938 695.203125 1088.992188 C 693.582031 1092.023438 691.890625 1095.011719 690.121094 1097.960938 C 688.355469 1100.910156 686.519531 1103.8125 684.609375 1106.667969 C 682.699219 1109.527344 680.722656 1112.335938 678.671875 1115.097656 C 676.625 1117.855469 674.511719 1120.566406 672.332031 1123.222656 C 670.152344 1125.878906 667.90625 1128.480469 665.601562 1131.027344 C 663.292969 1133.574219 660.921875 1136.0625 658.492188 1138.492188 C 656.0625 1140.921875 653.574219 1143.292969 651.027344 1145.597656 C 648.480469 1147.90625 645.878906 1150.152344 643.222656 1152.332031 C 640.566406 1154.511719 637.855469 1156.625 635.097656 1158.671875 C 632.335938 1160.71875 629.527344 1162.699219 626.667969 1164.609375 C 623.8125 1166.519531 620.910156 1168.355469 617.960938 1170.121094 C 615.011719 1171.890625 612.023438 1173.582031 608.992188 1175.203125 C 605.960938 1176.824219 602.894531 1178.367188 599.785156 1179.835938 C 596.679688 1181.308594 593.539062 1182.699219 590.363281 1184.015625 C 587.1875 1185.328125 583.984375 1186.566406 580.746094 1187.722656 C 577.511719 1188.882812 574.25 1189.960938 570.960938 1190.957031 C 567.671875 1191.953125 564.359375 1192.871094 561.027344 1193.707031 C 557.691406 1194.542969 554.339844 1195.292969 550.96875 1195.964844 C 547.597656 1196.636719 544.214844 1197.222656 540.8125 1197.726562 C 537.414062 1198.230469 534.003906 1198.652344 530.582031 1198.988281 C 527.164062 1199.324219 523.738281 1199.578125 520.304688 1199.746094 C 516.871094 1199.914062 513.4375 1200 510 1200 Z M 510 1200 " fill-opacity="1" fill-rule="nonzero"/><path fill="#ffffff" d="M 1474.921875 250.378906 L 1436.21875 243.960938 C 1431.632812 229.710938 1425.914062 215.929688 1419.058594 202.621094 L 1441.921875 170.640625 C 1442.429688 169.925781 1442.910156 169.1875 1443.355469 168.433594 C 1443.800781 167.675781 1444.214844 166.898438 1444.59375 166.105469 C 1444.96875 165.3125 1445.3125 164.503906 1445.621094 163.679688 C 1445.925781 162.859375 1446.199219 162.023438 1446.429688 161.175781 C 1446.664062 160.328125 1446.859375 159.472656 1447.019531 158.609375 C 1447.179688 157.746094 1447.296875 156.875 1447.378906 156 C 1447.460938 155.125 1447.507812 154.246094 1447.511719 153.367188 C 1447.515625 152.492188 1447.484375 151.613281 1447.410156 150.738281 C 1447.339844 149.863281 1447.226562 148.992188 1447.078125 148.125 C 1446.929688 147.257812 1446.746094 146.398438 1446.519531 145.550781 C 1446.296875 144.699219 1446.035156 143.863281 1445.738281 143.035156 C 1445.441406 142.207031 1445.105469 141.398438 1444.738281 140.597656 C 1444.367188 139.800781 1443.964844 139.023438 1443.527344 138.261719 C 1443.089844 137.496094 1442.621094 136.757812 1442.117188 136.035156 C 1441.613281 135.316406 1441.082031 134.617188 1440.519531 133.945312 C 1439.953125 133.269531 1439.359375 132.621094 1438.738281 132 L 1368 61.261719 C 1367.378906 60.640625 1366.730469 60.046875 1366.054688 59.484375 C 1365.382812 58.917969 1364.683594 58.386719 1363.964844 57.882812 C 1363.242188 57.378906 1362.503906 56.910156 1361.738281 56.472656 C 1360.976562 56.035156 1360.199219 55.632812 1359.402344 55.261719 C 1358.601562 54.894531 1357.789062 54.558594 1356.964844 54.261719 C 1356.136719 53.964844 1355.300781 53.703125 1354.449219 53.480469 C 1353.597656 53.253906 1352.742188 53.070312 1351.875 52.921875 C 1351.007812 52.773438 1350.136719 52.660156 1349.261719 52.589844 C 1348.386719 52.515625 1347.507812 52.484375 1346.628906 52.488281 C 1345.75 52.492188 1344.875 52.539062 1344 52.621094 C 1343.125 52.703125 1342.253906 52.820312 1341.390625 52.980469 C 1340.527344 53.140625 1339.671875 53.335938 1338.824219 53.570312 C 1337.976562 53.800781 1337.140625 54.074219 1336.316406 54.378906 C 1335.496094 54.6875 1334.6875 55.03125 1333.894531 55.40625 C 1333.101562 55.785156 1332.324219 56.199219 1331.566406 56.644531 C 1330.8125 57.089844 1330.074219 57.570312 1329.359375 58.078125 L 1297.378906 80.941406 C 1284.070312 74.085938 1270.289062 68.367188 1256.039062 63.78125 L 1249.621094 25.078125 C 1249.476562 24.210938 1249.292969 23.351562 1249.074219 22.5 C 1248.851562 21.648438 1248.597656 20.804688 1248.300781 19.976562 C 1248.007812 19.144531 1247.675781 18.332031 1247.3125 17.53125 C 1246.945312 16.730469 1246.546875 15.945312 1246.109375 15.179688 C 1245.675781 14.414062 1245.207031 13.671875 1244.707031 12.945312 C 1244.207031 12.222656 1243.675781 11.519531 1243.113281 10.84375 C 1242.550781 10.167969 1241.960938 9.515625 1241.339844 8.890625 C 1240.722656 8.265625 1240.078125 7.667969 1239.402344 7.097656 C 1238.730469 6.53125 1238.035156 5.992188 1237.316406 5.484375 C 1236.597656 4.976562 1235.855469 4.503906 1235.097656 4.058594 C 1234.335938 3.617188 1233.554688 3.210938 1232.757812 2.835938 C 1231.960938 2.460938 1231.148438 2.125 1230.324219 1.824219 C 1229.496094 1.519531 1228.65625 1.253906 1227.808594 1.027344 C 1226.957031 0.796875 1226.097656 0.609375 1225.230469 0.457031 C 1224.363281 0.300781 1223.492188 0.1875 1222.617188 0.113281 C 1221.738281 0.0351562 1220.859375 0 1219.980469 0 L 1120.019531 0 C 1119.140625 0 1118.261719 0.0351562 1117.382812 0.113281 C 1116.507812 0.1875 1115.636719 0.300781 1114.769531 0.457031 C 1113.902344 0.609375 1113.042969 0.796875 1112.191406 1.027344 C 1111.34375 1.253906 1110.503906 1.519531 1109.675781 1.824219 C 1108.851562 2.125 1108.039062 2.460938 1107.242188 2.835938 C 1106.445312 3.210938 1105.664062 3.617188 1104.902344 4.058594 C 1104.140625 4.503906 1103.402344 4.976562 1102.683594 5.484375 C 1101.964844 5.992188 1101.265625 6.53125 1100.59375 7.097656 C 1099.921875 7.667969 1099.277344 8.265625 1098.660156 8.890625 C 1098.039062 9.515625 1097.449219 10.167969 1096.886719 10.84375 C 1096.324219 11.519531 1095.792969 12.222656 1095.292969 12.945312 C 1094.792969 13.671875 1094.324219 14.414062 1093.890625 15.179688 C 1093.453125 15.945312 1093.054688 16.730469 1092.6875 17.53125 C 1092.320312 18.332031 1091.992188 19.144531 1091.699219 19.976562 C 1091.402344 20.804688 1091.148438 21.648438 1090.925781 22.5 C 1090.707031 23.351562 1090.523438 24.210938 1090.378906 25.078125 L 1083.960938 63.78125 C 1069.710938 68.367188 1055.929688 74.085938 1042.621094 80.941406 L 1010.640625 58.078125 C 1009.925781 57.570312 1009.1875 57.089844 1008.433594 56.644531 C 1007.675781 56.199219 1006.898438 55.785156 1006.105469 55.40625 C 1005.3125 55.03125 1004.503906 54.6875 1003.679688 54.378906 C 1002.859375 54.074219 1002.023438 53.800781 1001.175781 53.570312 C 1000.328125 53.335938 999.472656 53.140625 998.609375 52.980469 C 997.746094 52.820312 996.875 52.703125 996 52.621094 C 995.125 52.539062 994.246094 52.492188 993.367188 52.488281 C 992.492188 52.484375 991.613281 52.515625 990.738281 52.589844 C 989.863281 52.660156 988.992188 52.773438 988.125 52.921875 C 987.257812 53.070312 986.398438 53.253906 985.550781 53.480469 C 984.699219 53.703125 983.863281 53.964844 983.035156 54.261719 C 982.210938 54.558594 981.398438 54.894531 980.597656 55.261719 C 979.800781 55.632812 979.023438 56.035156 978.261719 56.472656 C 977.496094 56.910156 976.757812 57.378906 976.035156 57.882812 C 975.316406 58.386719 974.617188 58.917969 973.945312 59.484375 C 973.269531 60.046875 972.621094 60.640625 972 61.261719 L 901.261719 132 C 900.640625 132.621094 900.046875 133.269531 899.484375 133.945312 C 898.917969 134.617188 898.386719 135.316406 897.882812 136.035156 C 897.378906 136.757812 896.910156 137.496094 896.472656 138.261719 C 896.035156 139.023438 895.632812 139.800781 895.261719 140.597656 C 894.894531 141.398438 894.558594 142.207031 894.261719 143.035156 C 893.964844 143.863281 893.703125 144.699219 893.480469 145.550781 C 893.253906 146.398438 893.070312 147.257812 892.921875 148.125 C 892.773438 148.992188 892.660156 149.863281 892.589844 150.738281 C 892.515625 151.613281 892.484375 152.492188 892.488281 153.367188 C 892.492188 154.246094 892.539062 155.125 892.621094 156 C 892.703125 156.875 892.820312 157.746094 892.980469 158.609375 C 893.140625 159.472656 893.335938 160.328125 893.570312 161.175781 C 893.800781 162.023438 894.074219 162.859375 894.378906 163.679688 C 894.6875 164.503906 895.03125 165.3125 895.40625 166.105469 C 895.785156 166.898438 896.199219 167.675781 896.644531 168.433594 C 897.089844 169.1875 897.570312 169.925781 898.078125 170.640625 L 920.941406 202.621094 C 914.085938 215.929688 908.367188 229.710938 903.78125 243.960938 L 865.078125 250.378906 C 864.210938 250.523438 863.351562 250.707031 862.5 250.925781 C 861.648438 251.148438 860.804688 251.402344 859.976562 251.699219 C 859.144531 251.992188 858.332031 252.324219 857.53125 252.6875 C 856.730469 253.054688 855.945312 253.453125 855.179688 253.890625 C 854.414062 254.324219 853.671875 254.792969 852.945312 255.292969 C 852.222656 255.792969 851.523438 256.324219 850.84375 256.886719 C 850.167969 257.449219 849.515625 258.039062 848.890625 258.660156 C 848.265625 259.277344 847.667969 259.921875 847.097656 260.59375 C 846.53125 261.265625 845.992188 261.964844 845.484375 262.683594 C 844.976562 263.402344 844.503906 264.140625 844.058594 264.902344 C 843.617188 265.664062 843.210938 266.445312 842.835938 267.242188 C 842.460938 268.039062 842.125 268.851562 841.824219 269.675781 C 841.519531 270.503906 841.253906 271.34375 841.027344 272.191406 C 840.796875 273.042969 840.609375 273.902344 840.457031 274.769531 C 840.300781 275.636719 840.1875 276.507812 840.113281 277.382812 C 840.035156 278.261719 840 279.140625 840 280.019531 L 840 379.980469 C 840 380.859375 840.035156 381.738281 840.113281 382.617188 C 840.1875 383.492188 840.300781 384.363281 840.457031 385.230469 C 840.609375 386.097656 840.796875 386.957031 841.027344 387.808594 C 841.253906 388.65625 841.519531 389.496094 841.824219 390.324219 C 842.125 391.148438 842.460938 391.960938 842.835938 392.757812 C 843.210938 393.554688 843.617188 394.335938 844.058594 395.097656 C 844.503906 395.859375 844.976562 396.597656 845.484375 397.316406 C 845.992188 398.035156 846.53125 398.730469 847.097656 399.40625 C 847.667969 400.078125 848.265625 400.722656 848.890625 401.339844 C 849.515625 401.960938 850.167969 402.550781 850.84375 403.113281 C 851.519531 403.675781 852.222656 404.207031 852.945312 404.707031 C 853.671875 405.207031 854.414062 405.675781 855.179688 406.109375 C 855.945312 406.546875 856.730469 406.945312 857.53125 407.3125 C 858.332031 407.675781 859.144531 408.007812 859.976562 408.300781 C 860.804688 408.597656 861.648438 408.851562 862.5 409.074219 C 863.351562 409.292969 864.210938 409.476562 865.078125 409.621094 L 903.78125 416.039062 C 908.367188 430.289062 914.085938 444.070312 920.941406 457.378906 L 898.078125 489.359375 C 897.570312 490.074219 897.089844 490.8125 896.644531 491.566406 C 896.199219 492.324219 895.785156 493.101562 895.40625 493.894531 C 895.03125 494.6875 894.6875 495.496094 894.378906 496.320312 C 894.074219 497.140625 893.800781 497.976562 893.570312 498.824219 C 893.335938 499.671875 893.140625 500.527344 892.980469 501.390625 C 892.820312 502.253906 892.703125 503.125 892.621094 504 C 892.539062 504.875 892.492188 505.753906 892.488281 506.628906 C 892.484375 507.507812 892.515625 508.386719 892.589844 509.261719 C 892.660156 510.136719 892.773438 511.007812 892.921875 511.875 C 893.070312 512.742188 893.253906 513.601562 893.480469 514.449219 C 893.703125 515.300781 893.964844 516.136719 894.261719 516.964844 C 894.558594 517.789062 894.894531 518.601562 895.261719 519.402344 C 895.632812 520.199219 896.035156 520.976562 896.472656 521.738281 C 896.910156 522.503906 897.378906 523.242188 897.882812 523.964844 C 898.386719 524.683594 898.917969 525.382812 899.484375 526.054688 C 900.046875 526.730469 900.640625 527.378906 901.261719 528 L 972 598.738281 C 972.621094 599.359375 973.269531 599.953125 973.945312 600.515625 C 974.617188 601.082031 975.316406 601.613281 976.035156 602.117188 C 976.757812 602.621094 977.496094 603.089844 978.261719 603.527344 C 979.023438 603.964844 979.800781 604.367188 980.597656 604.738281 C 981.398438 605.105469 982.207031 605.441406 983.035156 605.738281 C 983.863281 606.035156 984.699219 606.296875 985.550781 606.519531 C 986.398438 606.746094 987.257812 606.929688 988.125 607.078125 C 988.992188 607.226562 989.863281 607.339844 990.738281 607.410156 C 991.613281 607.480469 992.492188 607.515625 993.367188 607.511719 C 994.246094 607.507812 995.125 607.460938 996 607.378906 C 996.875 607.296875 997.746094 607.179688 998.609375 607.019531 C 999.472656 606.859375 1000.328125 606.664062 1001.175781 606.429688 C 1002.023438 606.199219 1002.859375 605.925781 1003.679688 605.621094 C 1004.503906 605.3125 1005.3125 604.96875 1006.105469 604.59375 C 1006.898438 604.214844 1007.675781 603.800781 1008.433594 603.355469 C 1009.1875 602.910156 1009.925781 602.429688 1010.640625 601.921875 L 1042.621094 579.058594 C 1055.929688 585.914062 1069.710938 591.632812 1083.960938 596.21875 L 1090.378906 634.921875 C 1090.523438 635.789062 1090.707031 636.648438 1090.925781 637.5 C 1091.148438 638.355469 1091.402344 639.195312 1091.699219 640.023438 C 1091.992188 640.855469 1092.324219 641.667969 1092.6875 642.46875 C 1093.054688 643.269531 1093.453125 644.054688 1093.890625 644.820312 C 1094.324219 645.585938 1094.792969 646.328125 1095.292969 647.054688 C 1095.792969 647.777344 1096.324219 648.480469 1096.886719 649.15625 C 1097.449219 649.832031 1098.039062 650.484375 1098.660156 651.109375 C 1099.277344 651.734375 1099.921875 652.332031 1100.59375 652.902344 C 1101.265625 653.46875 1101.964844 654.007812 1102.683594 654.515625 C 1103.402344 655.023438 1104.140625 655.496094 1104.902344 655.941406 C 1105.664062 656.382812 1106.445312 656.789062 1107.242188 657.164062 C 1108.039062 657.539062 1108.851562 657.875 1109.675781 658.175781 C 1110.503906 658.480469 1111.34375 658.746094 1112.191406 658.972656 C 1113.042969 659.203125 1113.902344 659.390625 1114.769531 659.542969 C 1115.636719 659.699219 1116.507812 659.8125 1117.382812 659.886719 C 1118.261719 659.964844 1119.140625 660 1120.019531 660 L 1219.980469 660 C 1220.859375 660 1221.738281 659.964844 1222.617188 659.886719 C 1223.492188 659.8125 1224.363281 659.699219 1225.230469 659.542969 C 1226.097656 659.390625 1226.957031 659.203125 1227.808594 658.972656 C 1228.65625 658.746094 1229.496094 658.480469 1230.324219 658.175781 C 1231.148438 657.875 1231.960938 657.539062 1232.757812 657.164062 C 1233.554688 656.789062 1234.335938 656.382812 1235.097656 655.941406 C 1235.859375 655.496094 1236.597656 655.023438 1237.316406 654.515625 C 1238.035156 654.007812 1238.734375 653.46875 1239.40625 652.902344 C 1240.078125 652.332031 1240.722656 651.734375 1241.339844 651.109375 C 1241.960938 650.484375 1242.550781 649.832031 1243.113281 649.15625 C 1243.675781 648.480469 1244.207031 647.777344 1244.707031 647.054688 C 1245.207031 646.328125 1245.675781 645.585938 1246.109375 644.820312 C 1246.546875 644.054688 1246.945312 643.269531 1247.3125 642.46875 C 1247.675781 641.667969 1248.007812 640.855469 1248.300781 640.023438 C 1248.597656 639.195312 1248.851562 638.355469 1249.074219 637.5 C 1249.292969 636.648438 1249.476562 635.789062 1249.621094 634.921875 L 1256.039062 596.21875 C 1270.289062 591.632812 1284.070312 585.914062 1297.378906 579.058594 L 1329.359375 601.921875 C 1330.074219 602.429688 1330.8125 602.910156 1331.566406 603.355469 C 1332.324219 603.800781 1333.101562 604.214844 1333.894531 604.59375 C 1334.6875 604.96875 1335.496094 605.3125 1336.320312 605.621094 C 1337.140625 605.925781 1337.976562 606.199219 1338.824219 606.429688 C 1339.671875 606.664062 1340.527344 606.859375 1341.390625 607.019531 C 1342.253906 607.179688 1343.125 607.296875 1344 607.378906 C 1344.875 607.460938 1345.753906 607.507812 1346.632812 607.511719 C 1347.507812 607.515625 1348.386719 607.480469 1349.261719 607.410156 C 1350.136719 607.339844 1351.007812 607.226562 1351.875 607.078125 C 1352.742188 606.929688 1353.597656 606.746094 1354.449219 606.519531 C 1355.300781 606.296875 1356.136719 606.035156 1356.964844 605.738281 C 1357.792969 605.441406 1358.601562 605.105469 1359.402344 604.738281 C 1360.199219 604.367188 1360.976562 603.964844 1361.738281 603.527344 C 1362.503906 603.089844 1363.242188 602.621094 1363.964844 602.117188 C 1364.683594 601.613281 1365.382812 601.082031 1366.054688 600.515625 C 1366.730469 599.953125 1367.378906 599.359375 1368 598.738281 L 1438.738281 528 C 1439.359375 527.378906 1439.953125 526.730469 1440.515625 526.054688 C 1441.082031 525.382812 1441.613281 524.683594 1442.117188 523.964844 C 1442.621094 523.242188 1443.089844 522.503906 1443.527344 521.738281 C 1443.964844 520.976562 1444.367188 520.199219 1444.738281 519.402344 C 1445.105469 518.601562 1445.441406 517.789062 1445.738281 516.964844 C 1446.035156 516.136719 1446.296875 515.300781 1446.519531 514.449219 C 1446.746094 513.601562 1446.929688 512.742188 1447.078125 511.875 C 1447.226562 511.007812 1447.339844 510.136719 1447.410156 509.261719 C 1447.484375 508.386719 1447.515625 507.507812 1447.511719 506.628906 C 1447.503906 505.753906 1447.460938 504.875 1447.378906 504 C 1447.296875 503.125 1447.179688 502.253906 1447.019531 501.390625 C 1446.859375 500.527344 1446.664062 499.671875 1446.429688 498.824219 C 1446.199219 497.976562 1445.925781 497.140625 1445.621094 496.320312 C 1445.3125 495.496094 1444.96875 494.6875 1444.59375 493.894531 C 1444.214844 493.101562 1443.800781 492.324219 1443.355469 491.566406 C 1442.910156 490.8125 1442.429688 490.074219 1441.917969 489.359375 L 1419.058594 457.378906 C 1425.914062 444.070312 1431.632812 430.289062 1436.21875 416.039062 L 1474.917969 409.621094 C 1475.789062 409.476562 1476.648438 409.292969 1477.5 409.074219 C 1478.351562 408.851562 1479.195312 408.597656 1480.023438 408.300781 C 1480.855469 408.007812 1481.667969 407.675781 1482.46875 407.3125 C 1483.269531 406.945312 1484.054688 406.546875 1484.820312 406.109375 C 1485.585938 405.675781 1486.328125 405.207031 1487.054688 404.707031 C 1487.777344 404.207031 1488.476562 403.675781 1489.15625 403.113281 C 1489.832031 402.550781 1490.484375 401.960938 1491.109375 401.339844 C 1491.734375 400.722656 1492.332031 400.078125 1492.902344 399.40625 C 1493.46875 398.730469 1494.007812 398.035156 1494.515625 397.316406 C 1495.023438 396.597656 1495.496094 395.859375 1495.941406 395.097656 C 1496.382812 394.335938 1496.789062 393.554688 1497.164062 392.757812 C 1497.539062 391.960938 1497.875 391.148438 1498.175781 390.324219 C 1498.480469 389.496094 1498.746094 388.65625 1498.972656 387.808594 C 1499.203125 386.957031 1499.390625 386.097656 1499.542969 385.230469 C 1499.699219 384.363281 1499.8125 383.492188 1499.886719 382.617188 C 1499.964844 381.738281 1500 380.859375 1500 379.980469 L 1500 280.019531 C 1500 279.140625 1499.964844 278.261719 1499.886719 277.382812 C 1499.8125 276.507812 1499.699219 275.636719 1499.542969 274.769531 C 1499.390625 273.902344 1499.203125 273.042969 1498.972656 272.191406 C 1498.746094 271.34375 1498.480469 270.503906 1498.175781 269.675781 C 1497.875 268.851562 1497.539062 268.039062 1497.164062 267.242188 C 1496.789062 266.445312 1496.382812 265.664062 1495.941406 264.902344 C 1495.496094 264.140625 1495.023438 263.402344 1494.515625 262.683594 C 1494.007812 261.964844 1493.46875 261.265625 1492.902344 260.59375 C 1492.332031 259.921875 1491.734375 259.277344 1491.109375 258.660156 C 1490.484375 258.039062 1489.832031 257.449219 1489.15625 256.886719 C 1488.476562 256.324219 1487.777344 255.792969 1487.054688 255.292969 C 1486.328125 254.792969 1485.585938 254.324219 1484.820312 253.890625 C 1484.054688 253.453125 1483.269531 253.054688 1482.46875 252.6875 C 1481.667969 252.320312 1480.855469 251.992188 1480.023438 251.699219 C 1479.195312 251.402344 1478.355469 251.148438 1477.5 250.925781 C 1476.648438 250.707031 1475.789062 250.523438 1474.921875 250.378906 Z M 1440 354.601562 L 1407.601562 360 C 1406.171875 360.25 1404.765625 360.597656 1403.386719 361.050781 C 1402.007812 361.503906 1400.667969 362.054688 1399.371094 362.703125 C 1398.070312 363.347656 1396.824219 364.085938 1395.632812 364.914062 C 1394.441406 365.742188 1393.316406 366.652344 1392.253906 367.640625 C 1391.195312 368.632812 1390.210938 369.695312 1389.304688 370.828125 C 1388.398438 371.964844 1387.582031 373.15625 1386.847656 374.410156 C 1386.113281 375.664062 1385.476562 376.960938 1384.933594 378.308594 C 1384.386719 379.652344 1383.945312 381.03125 1383.601562 382.441406 C 1380.925781 393.292969 1377.441406 403.882812 1373.148438 414.203125 C 1368.851562 424.519531 1363.796875 434.453125 1357.980469 444 C 1357.222656 445.25 1356.5625 446.546875 1355.996094 447.890625 C 1355.429688 449.234375 1354.960938 450.613281 1354.59375 452.027344 C 1354.230469 453.441406 1353.96875 454.871094 1353.8125 456.324219 C 1353.65625 457.773438 1353.605469 459.230469 1353.660156 460.6875 C 1353.714844 462.148438 1353.878906 463.59375 1354.144531 465.03125 C 1354.410156 466.464844 1354.78125 467.871094 1355.253906 469.253906 C 1355.726562 470.636719 1356.296875 471.972656 1356.964844 473.273438 C 1357.632812 474.570312 1358.390625 475.8125 1359.238281 477 L 1378.320312 503.699219 L 1343.519531 538.5 L 1316.820312 519.417969 C 1315.632812 518.570312 1314.390625 517.8125 1313.09375 517.144531 C 1311.792969 516.476562 1310.453125 515.90625 1309.074219 515.433594 C 1307.691406 514.960938 1306.285156 514.589844 1304.847656 514.324219 C 1303.414062 514.058594 1301.96875 513.894531 1300.507812 513.839844 C 1299.050781 513.785156 1297.59375 513.835938 1296.144531 513.992188 C 1294.691406 514.148438 1293.261719 514.410156 1291.847656 514.777344 C 1290.433594 515.140625 1289.054688 515.609375 1287.710938 516.175781 C 1286.367188 516.742188 1285.070312 517.402344 1283.820312 518.160156 C 1264.664062 529.78125 1244.203125 538.261719 1222.441406 543.601562 C 1221.03125 543.945312 1219.652344 544.386719 1218.308594 544.933594 C 1216.960938 545.476562 1215.664062 546.113281 1214.410156 546.847656 C 1213.15625 547.582031 1211.964844 548.398438 1210.828125 549.304688 C 1209.695312 550.210938 1208.632812 551.195312 1207.640625 552.253906 C 1206.652344 553.316406 1205.742188 554.441406 1204.914062 555.632812 C 1204.085938 556.824219 1203.347656 558.070312 1202.703125 559.371094 C 1202.054688 560.667969 1201.503906 562.007812 1201.050781 563.386719 C 1200.597656 564.765625 1200.25 566.171875 1200 567.601562 L 1194.601562 600 L 1145.398438 600 L 1140 567.601562 C 1139.75 566.171875 1139.398438 564.765625 1138.949219 563.386719 C 1138.496094 562.007812 1137.945312 560.667969 1137.296875 559.371094 C 1136.652344 558.070312 1135.914062 556.824219 1135.085938 555.632812 C 1134.257812 554.441406 1133.347656 553.316406 1132.359375 552.253906 C 1131.367188 551.195312 1130.304688 550.210938 1129.167969 549.304688 C 1128.035156 548.398438 1126.84375 547.582031 1125.589844 546.847656 C 1124.335938 546.113281 1123.039062 545.476562 1121.691406 544.933594 C 1120.347656 544.386719 1118.96875 543.945312 1117.558594 543.601562 C 1095.796875 538.261719 1075.335938 529.78125 1056.179688 518.160156 C 1054.929688 517.402344 1053.632812 516.742188 1052.289062 516.175781 C 1050.945312 515.609375 1049.566406 515.140625 1048.152344 514.777344 C 1046.738281 514.410156 1045.308594 514.148438 1043.855469 513.992188 C 1042.40625 513.835938 1040.949219 513.785156 1039.492188 513.839844 C 1038.03125 513.894531 1036.585938 514.058594 1035.152344 514.324219 C 1033.714844 514.589844 1032.308594 514.960938 1030.925781 515.433594 C 1029.546875 515.90625 1028.207031 516.476562 1026.90625 517.144531 C 1025.609375 517.8125 1024.367188 518.570312 1023.179688 519.417969 L 996.480469 538.5 L 961.679688 503.699219 L 980.761719 477 C 981.609375 475.8125 982.367188 474.570312 983.035156 473.273438 C 983.703125 471.972656 984.273438 470.636719 984.746094 469.253906 C 985.21875 467.871094 985.589844 466.464844 985.855469 465.03125 C 986.121094 463.59375 986.285156 462.148438 986.339844 460.6875 C 986.394531 459.230469 986.34375 457.773438 986.1875 456.324219 C 986.03125 454.871094 985.769531 453.441406 985.40625 452.027344 C 985.039062 450.613281 984.570312 449.234375 984.003906 447.890625 C 983.4375 446.546875 982.777344 445.25 982.019531 444 C 970.398438 424.84375 961.917969 404.382812 956.578125 382.621094 C 956.234375 381.210938 955.792969 379.832031 955.246094 378.488281 C 954.703125 377.140625 954.066406 375.84375 953.332031 374.589844 C 952.597656 373.335938 951.78125 372.144531 950.875 371.011719 C 949.96875 369.875 948.984375 368.8125 947.925781 367.820312 C 946.863281 366.832031 945.738281 365.921875 944.546875 365.09375 C 943.355469 364.265625 942.109375 363.527344 940.808594 362.882812 C 939.511719 362.234375 938.171875 361.683594 936.792969 361.230469 C 935.414062 360.78125 934.007812 360.429688 932.578125 360.179688 L 900.179688 354.78125 L 900.179688 305.398438 L 932.578125 300 C 934.007812 299.75 935.414062 299.398438 936.792969 298.949219 C 938.171875 298.496094 939.511719 297.945312 940.808594 297.296875 C 942.109375 296.652344 943.355469 295.914062 944.546875 295.085938 C 945.738281 294.257812 946.863281 293.347656 947.925781 292.359375 C 948.984375 291.367188 949.96875 290.304688 950.875 289.171875 C 951.78125 288.035156 952.597656 286.84375 953.332031 285.589844 C 954.066406 284.335938 954.703125 283.039062 955.246094 281.691406 C 955.792969 280.347656 956.234375 278.96875 956.578125 277.558594 C 959.226562 266.710938 962.679688 256.125 966.945312 245.804688 C 971.210938 235.488281 976.234375 225.550781 982.019531 216 C 982.777344 214.75 983.4375 213.453125 984.003906 212.109375 C 984.570312 210.765625 985.039062 209.386719 985.40625 207.972656 C 985.769531 206.558594 986.03125 205.128906 986.1875 203.675781 C 986.34375 202.222656 986.394531 200.769531 986.339844 199.3125 C 986.285156 197.851562 986.121094 196.40625 985.855469 194.96875 C 985.589844 193.535156 985.21875 192.128906 984.746094 190.746094 C 984.273438 189.363281 983.703125 188.027344 983.035156 186.726562 C 982.367188 185.429688 981.609375 184.1875 980.761719 183 L 961.679688 156.300781 L 996.480469 121.5 L 1023.179688 140.578125 C 1024.367188 141.429688 1025.609375 142.1875 1026.90625 142.855469 C 1028.207031 143.523438 1029.542969 144.09375 1030.925781 144.566406 C 1032.308594 145.039062 1033.714844 145.410156 1035.152344 145.675781 C 1036.585938 145.941406 1038.03125 146.105469 1039.492188 146.160156 C 1040.949219 146.214844 1042.40625 146.164062 1043.855469 146.007812 C 1045.308594 145.851562 1046.738281 145.589844 1048.152344 145.222656 C 1049.566406 144.859375 1050.945312 144.390625 1052.289062 143.824219 C 1053.632812 143.257812 1054.929688 142.597656 1056.179688 141.839844 C 1075.335938 130.21875 1095.796875 121.738281 1117.558594 116.398438 C 1118.96875 116.054688 1120.347656 115.613281 1121.691406 115.066406 C 1123.039062 114.523438 1124.335938 113.882812 1125.589844 113.152344 C 1126.84375 112.417969 1128.035156 111.601562 1129.171875 110.695312 C 1130.304688 109.789062 1131.367188 108.804688 1132.359375 107.746094 C 1133.347656 106.683594 1134.257812 105.558594 1135.085938 104.367188 C 1135.914062 103.175781 1136.652344 101.929688 1137.296875 100.628906 C 1137.945312 99.332031 1138.496094 97.992188 1138.949219 96.613281 C 1139.398438 95.234375 1139.75 93.828125 1140 92.398438 L 1145.398438 60 L 1194.601562 60 L 1200 92.398438 C 1200.25 93.828125 1200.601562 95.234375 1201.050781 96.613281 C 1201.503906 97.992188 1202.054688 99.332031 1202.703125 100.628906 C 1203.347656 101.929688 1204.085938 103.175781 1204.914062 104.367188 C 1205.742188 105.558594 1206.652344 106.683594 1207.640625 107.746094 C 1208.632812 108.804688 1209.695312 109.789062 1210.828125 110.695312 C 1211.964844 111.601562 1213.15625 112.417969 1214.410156 113.152344 C 1215.664062 113.882812 1216.960938 114.523438 1218.308594 115.066406 C 1219.652344 115.613281 1221.03125 116.054688 1222.441406 116.398438 C 1244.203125 121.738281 1264.664062 130.21875 1283.820312 141.839844 C 1285.070312 142.597656 1286.367188 143.257812 1287.710938 143.824219 C 1289.054688 144.390625 1290.433594 144.859375 1291.847656 145.222656 C 1293.261719 145.589844 1294.691406 145.851562 1296.144531 146.007812 C 1297.59375 146.164062 1299.050781 146.214844 1300.507812 146.160156 C 1301.96875 146.105469 1303.414062 145.941406 1304.847656 145.675781 C 1306.285156 145.410156 1307.691406 145.039062 1309.074219 144.566406 C 1310.453125 144.09375 1311.792969 143.523438 1313.09375 142.855469 C 1314.390625 142.1875 1315.632812 141.429688 1316.820312 140.578125 L 1343.519531 121.5 L 1378.320312 156.300781 L 1359.238281 183 C 1358.390625 184.1875 1357.632812 185.429688 1356.964844 186.726562 C 1356.296875 188.027344 1355.726562 189.363281 1355.253906 190.746094 C 1354.78125 192.128906 1354.410156 193.535156 1354.144531 194.96875 C 1353.878906 196.40625 1353.714844 197.851562 1353.660156 199.3125 C 1353.605469 200.769531 1353.65625 202.222656 1353.8125 203.675781 C 1353.96875 205.128906 1354.230469 206.558594 1354.59375 207.972656 C 1354.960938 209.386719 1355.429688 210.765625 1355.996094 212.109375 C 1356.5625 213.453125 1357.222656 214.75 1357.980469 216 C 1369.601562 235.15625 1378.082031 255.617188 1383.417969 277.378906 C 1383.765625 278.789062 1384.207031 280.167969 1384.753906 281.511719 C 1385.296875 282.859375 1385.933594 284.15625 1386.667969 285.410156 C 1387.402344 286.664062 1388.21875 287.855469 1389.125 288.988281 C 1390.03125 290.125 1391.015625 291.1875 1392.074219 292.175781 C 1393.136719 293.167969 1394.261719 294.078125 1395.453125 294.90625 C 1396.644531 295.734375 1397.890625 296.472656 1399.191406 297.117188 C 1400.488281 297.765625 1401.828125 298.316406 1403.207031 298.769531 C 1404.585938 299.21875 1405.988281 299.570312 1407.417969 299.820312 L 1439.820312 305.21875 Z M 1440 354.601562 " fill-opacity="1" fill-rule="nonzero"/><path fill="#ffffff" d="M 1170 180 C 1167.546875 180 1165.089844 180.058594 1162.640625 180.179688 C 1160.1875 180.300781 1157.742188 180.480469 1155.296875 180.722656 C 1152.855469 180.960938 1150.417969 181.261719 1147.992188 181.625 C 1145.5625 181.984375 1143.144531 182.402344 1140.738281 182.882812 C 1138.328125 183.359375 1135.933594 183.898438 1133.554688 184.496094 C 1131.171875 185.089844 1128.804688 185.746094 1126.457031 186.457031 C 1124.109375 187.171875 1121.777344 187.941406 1119.464844 188.769531 C 1117.15625 189.59375 1114.867188 190.480469 1112.597656 191.417969 C 1110.328125 192.355469 1108.085938 193.351562 1105.867188 194.402344 C 1103.648438 195.449219 1101.457031 196.554688 1099.289062 197.710938 C 1097.125 198.867188 1094.988281 200.078125 1092.882812 201.339844 C 1090.777344 202.601562 1088.707031 203.914062 1086.664062 205.28125 C 1084.625 206.644531 1082.617188 208.054688 1080.644531 209.519531 C 1078.671875 210.980469 1076.738281 212.492188 1074.839844 214.046875 C 1072.941406 215.605469 1071.085938 217.207031 1069.265625 218.855469 C 1067.445312 220.503906 1065.667969 222.199219 1063.933594 223.933594 C 1062.199219 225.667969 1060.503906 227.445312 1058.855469 229.265625 C 1057.207031 231.085938 1055.605469 232.941406 1054.046875 234.839844 C 1052.492188 236.738281 1050.980469 238.671875 1049.519531 240.644531 C 1048.054688 242.617188 1046.644531 244.625 1045.28125 246.664062 C 1043.914062 248.707031 1042.601562 250.777344 1041.339844 252.882812 C 1040.078125 254.988281 1038.867188 257.125 1037.710938 259.289062 C 1036.554688 261.457031 1035.449219 263.648438 1034.402344 265.867188 C 1033.351562 268.085938 1032.355469 270.328125 1031.417969 272.597656 C 1030.480469 274.867188 1029.59375 277.15625 1028.769531 279.464844 C 1027.941406 281.777344 1027.171875 284.109375 1026.457031 286.457031 C 1025.746094 288.804688 1025.089844 291.171875 1024.496094 293.554688 C 1023.898438 295.933594 1023.359375 298.328125 1022.882812 300.738281 C 1022.402344 303.144531 1021.984375 305.5625 1021.625 307.992188 C 1021.261719 310.417969 1020.960938 312.855469 1020.722656 315.296875 C 1020.480469 317.742188 1020.300781 320.1875 1020.179688 322.640625 C 1020.058594 325.089844 1020 327.546875 1020 330 C 1020 332.453125 1020.058594 334.90625 1020.179688 337.359375 C 1020.300781 339.8125 1020.480469 342.257812 1020.722656 344.703125 C 1020.960938 347.144531 1021.261719 349.582031 1021.625 352.007812 C 1021.984375 354.4375 1022.402344 356.855469 1022.882812 359.261719 C 1023.359375 361.671875 1023.898438 364.066406 1024.496094 366.445312 C 1025.089844 368.828125 1025.746094 371.195312 1026.457031 373.542969 C 1027.171875 375.890625 1027.941406 378.222656 1028.769531 380.535156 C 1029.59375 382.84375 1030.480469 385.132812 1031.417969 387.402344 C 1032.355469 389.671875 1033.351562 391.914062 1034.402344 394.132812 C 1035.449219 396.351562 1036.554688 398.542969 1037.710938 400.710938 C 1038.867188 402.875 1040.078125 405.007812 1041.339844 407.113281 C 1042.601562 409.222656 1043.914062 411.292969 1045.28125 413.335938 C 1046.644531 415.375 1048.054688 417.382812 1049.519531 419.355469 C 1050.980469 421.328125 1052.492188 423.261719 1054.046875 425.160156 C 1055.605469 427.054688 1057.207031 428.914062 1058.855469 430.734375 C 1060.503906 432.550781 1062.199219 434.328125 1063.933594 436.066406 C 1065.667969 437.800781 1067.445312 439.492188 1069.265625 441.140625 C 1071.085938 442.792969 1072.941406 444.394531 1074.839844 445.953125 C 1076.738281 447.507812 1078.671875 449.019531 1080.644531 450.480469 C 1082.617188 451.945312 1084.625 453.355469 1086.664062 454.71875 C 1088.707031 456.085938 1090.777344 457.398438 1092.882812 458.660156 C 1094.988281 459.921875 1097.125 461.132812 1099.289062 462.289062 C 1101.457031 463.445312 1103.648438 464.546875 1105.867188 465.597656 C 1108.085938 466.648438 1110.328125 467.640625 1112.597656 468.582031 C 1114.867188 469.519531 1117.15625 470.40625 1119.464844 471.230469 C 1121.777344 472.058594 1124.109375 472.828125 1126.457031 473.539062 C 1128.804688 474.253906 1131.171875 474.90625 1133.554688 475.503906 C 1135.933594 476.101562 1138.328125 476.640625 1140.738281 477.117188 C 1143.144531 477.597656 1145.5625 478.015625 1147.992188 478.375 C 1150.417969 478.738281 1152.855469 479.035156 1155.296875 479.277344 C 1157.742188 479.519531 1160.1875 479.699219 1162.640625 479.820312 C 1165.09375 479.941406 1167.546875 480 1170 480 C 1172.453125 480 1174.910156 479.941406 1177.359375 479.820312 C 1179.8125 479.699219 1182.257812 479.519531 1184.703125 479.277344 C 1187.144531 479.035156 1189.582031 478.738281 1192.007812 478.375 C 1194.4375 478.015625 1196.855469 477.597656 1199.261719 477.117188 C 1201.671875 476.640625 1204.066406 476.101562 1206.445312 475.503906 C 1208.828125 474.90625 1211.195312 474.253906 1213.542969 473.539062 C 1215.890625 472.828125 1218.222656 472.058594 1220.535156 471.230469 C 1222.84375 470.40625 1225.132812 469.519531 1227.402344 468.582031 C 1229.671875 467.640625 1231.914062 466.648438 1234.132812 465.597656 C 1236.351562 464.546875 1238.542969 463.445312 1240.710938 462.289062 C 1242.875 461.132812 1245.007812 459.921875 1247.113281 458.660156 C 1249.222656 457.398438 1251.292969 456.085938 1253.335938 454.71875 C 1255.375 453.355469 1257.382812 451.945312 1259.355469 450.480469 C 1261.328125 449.019531 1263.261719 447.507812 1265.160156 445.953125 C 1267.054688 444.394531 1268.914062 442.792969 1270.734375 441.140625 C 1272.550781 439.492188 1274.332031 437.800781 1276.066406 436.066406 C 1277.800781 434.328125 1279.492188 432.550781 1281.144531 430.734375 C 1282.792969 428.914062 1284.394531 427.054688 1285.953125 425.160156 C 1287.507812 423.261719 1289.019531 421.328125 1290.480469 419.355469 C 1291.945312 417.382812 1293.355469 415.375 1294.71875 413.335938 C 1296.085938 411.292969 1297.398438 409.222656 1298.660156 407.113281 C 1299.921875 405.007812 1301.132812 402.875 1302.289062 400.710938 C 1303.445312 398.542969 1304.546875 396.351562 1305.597656 394.132812 C 1306.648438 391.914062 1307.640625 389.671875 1308.582031 387.402344 C 1309.519531 385.132812 1310.40625 382.84375 1311.230469 380.535156 C 1312.058594 378.222656 1312.828125 375.890625 1313.539062 373.542969 C 1314.253906 371.195312 1314.90625 368.828125 1315.503906 366.445312 C 1316.101562 364.066406 1316.636719 361.671875 1317.117188 359.261719 C 1317.597656 356.855469 1318.015625 354.4375 1318.375 352.007812 C 1318.738281 349.582031 1319.035156 347.144531 1319.277344 344.703125 C 1319.519531 342.257812 1319.699219 339.8125 1319.820312 337.359375 C 1319.941406 334.90625 1320 332.453125 1320 330 C 1320 327.546875 1319.941406 325.089844 1319.820312 322.640625 C 1319.699219 320.1875 1319.519531 317.742188 1319.277344 315.296875 C 1319.035156 312.855469 1318.738281 310.417969 1318.375 307.992188 C 1318.015625 305.5625 1317.597656 303.144531 1317.117188 300.738281 C 1316.640625 298.328125 1316.101562 295.933594 1315.503906 293.554688 C 1314.90625 291.171875 1314.253906 288.804688 1313.542969 286.457031 C 1312.828125 284.109375 1312.058594 281.777344 1311.230469 279.464844 C 1310.40625 277.15625 1309.519531 274.867188 1308.582031 272.597656 C 1307.640625 270.328125 1306.648438 268.085938 1305.597656 265.867188 C 1304.546875 263.648438 1303.445312 261.457031 1302.289062 259.289062 C 1301.132812 257.125 1299.921875 254.988281 1298.660156 252.882812 C 1297.398438 250.777344 1296.085938 248.707031 1294.71875 246.664062 C 1293.355469 244.625 1291.945312 242.617188 1290.480469 240.644531 C 1289.019531 238.671875 1287.507812 236.738281 1285.953125 234.839844 C 1284.394531 232.941406 1282.792969 231.085938 1281.144531 229.265625 C 1279.492188 227.445312 1277.800781 225.667969 1276.066406 223.933594 C 1274.332031 222.199219 1272.550781 220.503906 1270.734375 218.855469 C 1268.914062 217.207031 1267.054688 215.605469 1265.160156 214.046875 C 1263.261719 212.492188 1261.328125 210.980469 1259.355469 209.519531 C 1257.382812 208.054688 1255.375 206.644531 1253.335938 205.28125 C 1251.292969 203.914062 1249.222656 202.601562 1247.113281 201.339844 C 1245.007812 200.078125 1242.875 198.867188 1240.710938 197.710938 C 1238.542969 196.554688 1236.351562 195.449219 1234.132812 194.402344 C 1231.914062 193.351562 1229.671875 192.355469 1227.402344 191.417969 C 1225.132812 190.480469 1222.84375 189.59375 1220.535156 188.769531 C 1218.222656 187.941406 1215.890625 187.171875 1213.542969 186.457031 C 1211.195312 185.746094 1208.828125 185.089844 1206.445312 184.496094 C 1204.066406 183.898438 1201.671875 183.359375 1199.261719 182.882812 C 1196.855469 182.402344 1194.4375 181.984375 1192.007812 181.625 C 1189.582031 181.261719 1187.144531 180.960938 1184.703125 180.722656 C 1182.257812 180.480469 1179.8125 180.300781 1177.359375 180.179688 C 1174.90625 180.058594 1172.453125 180 1170 180 Z M 1170 420 C 1168.527344 420 1167.054688 419.964844 1165.582031 419.890625 C 1164.113281 419.820312 1162.644531 419.710938 1161.179688 419.566406 C 1159.710938 419.421875 1158.25 419.242188 1156.792969 419.027344 C 1155.335938 418.808594 1153.886719 418.558594 1152.441406 418.269531 C 1150.996094 417.984375 1149.558594 417.660156 1148.132812 417.300781 C 1146.703125 416.945312 1145.285156 416.550781 1143.875 416.125 C 1142.464844 415.695312 1141.066406 415.234375 1139.679688 414.738281 C 1138.292969 414.242188 1136.917969 413.710938 1135.558594 413.148438 C 1134.199219 412.585938 1132.851562 411.988281 1131.519531 411.359375 C 1130.1875 410.730469 1128.875 410.066406 1127.574219 409.371094 C 1126.273438 408.679688 1124.992188 407.953125 1123.730469 407.195312 C 1122.46875 406.4375 1121.222656 405.652344 1120 404.832031 C 1118.773438 404.015625 1117.570312 403.164062 1116.386719 402.289062 C 1115.203125 401.410156 1114.042969 400.503906 1112.90625 399.570312 C 1111.765625 398.636719 1110.652344 397.675781 1109.558594 396.683594 C 1108.46875 395.695312 1107.402344 394.679688 1106.359375 393.640625 C 1105.320312 392.597656 1104.304688 391.53125 1103.3125 390.441406 C 1102.324219 389.347656 1101.363281 388.234375 1100.429688 387.09375 C 1099.496094 385.957031 1098.589844 384.796875 1097.710938 383.613281 C 1096.832031 382.429688 1095.984375 381.226562 1095.167969 380 C 1094.347656 378.777344 1093.5625 377.53125 1092.804688 376.269531 C 1092.046875 375.003906 1091.320312 373.726562 1090.625 372.425781 C 1089.933594 371.125 1089.269531 369.8125 1088.640625 368.480469 C 1088.011719 367.148438 1087.414062 365.800781 1086.851562 364.441406 C 1086.285156 363.082031 1085.757812 361.707031 1085.261719 360.320312 C 1084.765625 358.933594 1084.304688 357.535156 1083.875 356.125 C 1083.449219 354.714844 1083.054688 353.296875 1082.695312 351.867188 C 1082.339844 350.4375 1082.015625 349.003906 1081.730469 347.558594 C 1081.441406 346.113281 1081.191406 344.664062 1080.972656 343.207031 C 1080.757812 341.75 1080.578125 340.289062 1080.433594 338.820312 C 1080.289062 337.355469 1080.179688 335.886719 1080.109375 334.417969 C 1080.035156 332.945312 1080 331.472656 1080 330 C 1080 328.527344 1080.035156 327.054688 1080.109375 325.582031 C 1080.179688 324.113281 1080.289062 322.644531 1080.433594 321.179688 C 1080.578125 319.710938 1080.757812 318.25 1080.972656 316.792969 C 1081.191406 315.335938 1081.441406 313.886719 1081.730469 312.441406 C 1082.015625 310.996094 1082.339844 309.558594 1082.695312 308.132812 C 1083.054688 306.703125 1083.449219 305.285156 1083.875 303.875 C 1084.304688 302.464844 1084.765625 301.066406 1085.261719 299.679688 C 1085.757812 298.292969 1086.285156 296.917969 1086.851562 295.558594 C 1087.414062 294.199219 1088.011719 292.851562 1088.640625 291.519531 C 1089.269531 290.1875 1089.933594 288.875 1090.625 287.574219 C 1091.320312 286.273438 1092.046875 284.992188 1092.804688 283.730469 C 1093.5625 282.46875 1094.347656 281.222656 1095.167969 280 C 1095.984375 278.773438 1096.832031 277.570312 1097.710938 276.386719 C 1098.589844 275.203125 1099.496094 274.042969 1100.429688 272.90625 C 1101.363281 271.765625 1102.324219 270.652344 1103.3125 269.558594 C 1104.304688 268.46875 1105.320312 267.402344 1106.359375 266.359375 C 1107.402344 265.320312 1108.46875 264.304688 1109.558594 263.3125 C 1110.652344 262.324219 1111.765625 261.363281 1112.90625 260.429688 C 1114.042969 259.496094 1115.203125 258.589844 1116.386719 257.710938 C 1117.570312 256.832031 1118.773438 255.984375 1120 255.167969 C 1121.222656 254.347656 1122.46875 253.5625 1123.730469 252.804688 C 1124.992188 252.046875 1126.273438 251.320312 1127.574219 250.628906 C 1128.875 249.933594 1130.1875 249.269531 1131.519531 248.640625 C 1132.851562 248.011719 1134.199219 247.414062 1135.558594 246.851562 C 1136.917969 246.289062 1138.292969 245.757812 1139.679688 245.261719 C 1141.066406 244.765625 1142.464844 244.304688 1143.875 243.875 C 1145.285156 243.449219 1146.703125 243.054688 1148.132812 242.695312 C 1149.558594 242.339844 1150.996094 242.015625 1152.441406 241.730469 C 1153.886719 241.441406 1155.335938 241.191406 1156.792969 240.972656 C 1158.25 240.757812 1159.710938 240.578125 1161.179688 240.433594 C 1162.644531 240.289062 1164.113281 240.179688 1165.582031 240.109375 C 1167.054688 240.035156 1168.527344 240 1170 240 C 1171.472656 240 1172.945312 240.035156 1174.414062 240.109375 C 1175.886719 240.179688 1177.355469 240.289062 1178.820312 240.433594 C 1180.289062 240.578125 1181.75 240.757812 1183.207031 240.972656 C 1184.664062 241.191406 1186.113281 241.441406 1187.558594 241.730469 C 1189.003906 242.015625 1190.4375 242.339844 1191.867188 242.695312 C 1193.296875 243.054688 1194.714844 243.449219 1196.125 243.875 C 1197.535156 244.304688 1198.933594 244.765625 1200.320312 245.261719 C 1201.707031 245.757812 1203.082031 246.289062 1204.441406 246.851562 C 1205.800781 247.414062 1207.148438 248.011719 1208.480469 248.640625 C 1209.8125 249.269531 1211.125 249.933594 1212.425781 250.628906 C 1213.726562 251.320312 1215.003906 252.046875 1216.269531 252.804688 C 1217.53125 253.5625 1218.777344 254.347656 1220 255.167969 C 1221.226562 255.984375 1222.429688 256.832031 1223.613281 257.710938 C 1224.796875 258.589844 1225.957031 259.496094 1227.09375 260.429688 C 1228.234375 261.363281 1229.347656 262.324219 1230.441406 263.3125 C 1231.53125 264.304688 1232.597656 265.320312 1233.640625 266.359375 C 1234.679688 267.402344 1235.695312 268.46875 1236.683594 269.558594 C 1237.675781 270.652344 1238.636719 271.765625 1239.570312 272.90625 C 1240.503906 274.042969 1241.410156 275.203125 1242.289062 276.386719 C 1243.164062 277.570312 1244.015625 278.773438 1244.832031 280 C 1245.648438 281.222656 1246.4375 282.46875 1247.195312 283.730469 C 1247.953125 284.992188 1248.679688 286.273438 1249.371094 287.574219 C 1250.066406 288.875 1250.730469 290.1875 1251.359375 291.519531 C 1251.988281 292.851562 1252.585938 294.199219 1253.148438 295.558594 C 1253.710938 296.917969 1254.242188 298.292969 1254.738281 299.679688 C 1255.234375 301.066406 1255.695312 302.464844 1256.125 303.875 C 1256.550781 305.285156 1256.945312 306.703125 1257.300781 308.132812 C 1257.660156 309.558594 1257.984375 310.996094 1258.269531 312.441406 C 1258.558594 313.886719 1258.808594 315.335938 1259.027344 316.792969 C 1259.242188 318.25 1259.421875 319.710938 1259.566406 321.179688 C 1259.710938 322.644531 1259.820312 324.113281 1259.890625 325.582031 C 1259.964844 327.054688 1260 328.527344 1260 330 C 1260 331.472656 1259.964844 332.945312 1259.890625 334.417969 C 1259.820312 335.886719 1259.710938 337.355469 1259.566406 338.820312 C 1259.421875 340.289062 1259.242188 341.75 1259.027344 343.207031 C 1258.808594 344.664062 1258.558594 346.113281 1258.269531 347.558594 C 1257.984375 349.003906 1257.660156 350.4375 1257.300781 351.867188 C 1256.945312 353.296875 1256.550781 354.714844 1256.125 356.125 C 1255.695312 357.535156 1255.234375 358.933594 1254.738281 360.320312 C 1254.242188 361.707031 1253.710938 363.082031 1253.148438 364.441406 C 1252.585938 365.800781 1251.988281 367.148438 1251.359375 368.480469 C 1250.730469 369.8125 1250.066406 371.125 1249.375 372.425781 C 1248.679688 373.722656 1247.953125 375.003906 1247.195312 376.269531 C 1246.4375 377.53125 1245.648438 378.777344 1244.832031 380 C 1244.015625 381.226562 1243.164062 382.429688 1242.289062 383.613281 C 1241.410156 384.796875 1240.503906 385.957031 1239.570312 387.09375 C 1238.636719 388.234375 1237.675781 389.347656 1236.683594 390.441406 C 1235.695312 391.53125 1234.679688 392.597656 1233.640625 393.640625 C 1232.597656 394.679688 1231.53125 395.695312 1230.441406 396.683594 C 1229.347656 397.675781 1228.234375 398.636719 1227.09375 399.570312 C 1225.957031 400.503906 1224.796875 401.410156 1223.613281 402.289062 C 1222.429688 403.167969 1221.226562 404.015625 1220 404.832031 C 1218.777344 405.652344 1217.53125 406.4375 1216.269531 407.195312 C 1215.003906 407.953125 1213.722656 408.679688 1212.425781 409.371094 C 1211.125 410.066406 1209.8125 410.730469 1208.480469 411.359375 C 1207.148438 411.988281 1205.800781 412.585938 1204.441406 413.148438 C 1203.082031 413.710938 1201.707031 414.242188 1200.320312 414.738281 C 1198.933594 415.234375 1197.535156 415.695312 1196.125 416.125 C 1194.714844 416.550781 1193.296875 416.945312 1191.867188 417.300781 C 1190.4375 417.660156 1189.003906 417.984375 1187.558594 418.269531 C 1186.113281 418.558594 1184.664062 418.808594 1183.207031 419.027344 C 1181.75 419.242188 1180.289062 419.421875 1178.820312 419.566406 C 1177.355469 419.710938 1175.886719 419.820312 1174.414062 419.890625 C 1172.945312 419.964844 1171.472656 420 1170 420 Z M 1170 420 " fill-opacity="1" fill-rule="nonzero"/></svg>