<svg xmlns="http://www.w3.org/2000/svg" xmlns:xlink="http://www.w3.org/1999/xlink" width="1080" zoomAndPan="magnify" viewBox="0 0 810 1439.999935" height="1920" preserveAspectRatio="xMidYMid meet" version="1.0"><defs><clipPath id="aafa5b6375"><path d="M 137.699219 43 L 580 43 L 580 1440 L 137.699219 1440 Z M 137.699219 43 " clip-rule="nonzero"/></clipPath></defs><g clip-path="url(#aafa5b6375)"><path fill="#ffffff" d="M 358.835938 1439.132812 C 236.910156 1439.132812 137.699219 1339.027344 137.699219 1215.953125 C 137.699219 1092.875 236.910156 992.738281 358.835938 992.738281 C 406.421875 992.738281 451.855469 1007.703125 490.207031 1036.078125 C 496.441406 1040.710938 497.757812 1049.480469 493.15625 1055.746094 C 488.523438 1061.945312 479.792969 1063.378906 473.507812 1058.679688 C 440.019531 1033.910156 400.371094 1020.808594 358.835938 1020.808594 C 252.394531 1020.808594 165.804688 1108.351562 165.804688 1215.953125 C 165.804688 1323.53125 252.390625 1411.070312 358.835938 1411.070312 C 465.269531 1411.070312 551.878906 1323.53125 551.878906 1215.953125 C 551.878906 1201.6875 550.3125 1186.886719 547.226562 1171.949219 C 545.644531 1164.386719 550.527344 1156.953125 558.128906 1155.351562 C 565.628906 1153.785156 573.164062 1158.652344 574.730469 1166.285156 C 578.214844 1183.050781 579.980469 1199.789062 579.980469 1215.953125 C 579.980469 1339.027344 480.773438 1439.132812 358.835938 1439.132812 Z M 358.835938 1367.960938 C 276.089844 1367.960938 208.792969 1299.792969 208.792969 1215.953125 C 208.792969 1132.117188 276.09375 1063.910156 358.835938 1063.910156 C 388.386719 1063.910156 416.9375 1072.476562 441.40625 1088.746094 C 447.871094 1093.046875 449.640625 1101.746094 445.339844 1108.214844 C 441.054688 1114.679688 432.304688 1116.476562 425.871094 1112.148438 C 405.722656 1098.78125 383.171875 1091.980469 358.835938 1091.980469 C 291.59375 1091.980469 236.894531 1147.621094 236.894531 1215.953125 C 236.894531 1284.296875 291.597656 1339.898438 358.835938 1339.898438 C 369.417969 1339.898438 380.484375 1338.335938 390.867188 1335.398438 C 391.585938 1335.199219 392.304688 1335.066406 393.019531 1334.964844 C 436.757812 1322.230469 470.492188 1285.160156 479.179688 1240.121094 C 480.640625 1232.523438 487.976562 1227.585938 495.644531 1228.984375 C 503.257812 1230.453125 508.242188 1237.820312 506.78125 1245.457031 C 495.980469 1301.359375 453.710938 1347.296875 399.089844 1362.464844 C 398.355469 1362.664062 397.625 1362.796875 396.90625 1362.898438 C 384.535156 1366.230469 371.414062 1367.960938 358.835938 1367.960938 Z M 358.835938 964.636719 C 236.910156 964.636719 137.699219 864.496094 137.699219 741.417969 C 137.699219 617.996094 236.910156 517.585938 358.835938 517.585938 C 405.902344 517.585938 451.320312 532.789062 490.207031 561.542969 C 496.441406 566.160156 497.757812 574.957031 493.15625 581.191406 C 488.523438 587.460938 479.792969 588.777344 473.507812 584.140625 C 439.492188 558.992188 399.835938 545.691406 358.835938 545.691406 C 252.394531 545.691406 165.804688 633.496094 165.804688 741.417969 C 165.804688 849.027344 252.390625 936.566406 358.835938 936.566406 C 465.269531 936.566406 551.878906 849.027344 551.878906 741.417969 C 551.878906 726.96875 550.28125 711.550781 547.226562 696.816406 C 545.644531 689.214844 550.527344 681.78125 558.128906 680.214844 C 565.628906 678.632812 573.164062 683.515625 574.730469 691.117188 C 578.214844 707.933594 579.980469 724.855469 579.980469 741.417969 C 579.980469 864.496094 480.773438 964.636719 358.835938 964.636719 Z M 358.835938 892.832031 C 276.089844 892.832031 208.792969 824.925781 208.792969 741.417969 C 208.792969 657.582031 276.09375 589.375 358.835938 589.375 C 387.933594 589.375 416.402344 597.695312 441.175781 613.445312 C 447.726562 617.59375 449.660156 626.28125 445.488281 632.832031 C 441.339844 639.367188 432.660156 641.296875 426.109375 637.148438 C 405.554688 624.09375 382.9375 617.480469 358.835938 617.480469 C 291.597656 617.480469 236.894531 673.085938 236.894531 741.417969 C 236.894531 809.425781 291.597656 864.761719 358.835938 864.761719 C 369.953125 864.761719 379.921875 863.660156 388.523438 861.492188 C 389.457031 860.996094 390.472656 860.5625 391.558594 860.261719 C 436.078125 847.894531 470.480469 810.722656 479.179688 765.589844 C 480.644531 757.988281 487.980469 752.988281 495.648438 754.453125 C 503.261719 755.917969 508.246094 763.289062 506.785156 770.917969 C 496.230469 825.558594 455.113281 870.695312 401.691406 886.59375 C 400.707031 887.128906 399.644531 887.59375 398.507812 887.925781 C 386.898438 891.195312 373.550781 892.832031 358.835938 892.832031 Z M 358.835938 489.488281 C 236.910156 489.488281 137.699219 389.347656 137.699219 266.273438 C 137.699219 143.195312 236.910156 43.054688 358.835938 43.054688 C 406.4375 43.054688 451.875 58.042969 490.207031 86.394531 C 496.441406 91.007812 497.757812 99.808594 493.15625 106.046875 C 488.523438 112.296875 479.792969 113.597656 473.507812 108.996094 C 440.039062 84.246094 400.386719 71.160156 358.835938 71.160156 C 252.394531 71.160156 165.804688 158.683594 165.804688 266.273438 C 165.804688 373.863281 252.390625 461.386719 358.835938 461.386719 C 465.269531 461.386719 551.878906 373.867188 551.878906 266.273438 C 551.878906 251.839844 550.363281 237.457031 547.226562 222.304688 C 545.644531 214.703125 550.527344 207.269531 558.128906 205.703125 C 565.628906 204.152344 573.164062 209.003906 574.730469 216.601562 C 578.214844 233.421875 579.980469 250.121094 579.980469 266.273438 C 579.980469 389.347656 480.773438 489.488281 358.835938 489.488281 Z M 358.835938 418.316406 C 276.089844 418.316406 208.792969 350.113281 208.792969 266.273438 C 208.792969 182.449219 276.09375 114.246094 358.835938 114.246094 C 388.386719 114.246094 416.9375 122.832031 441.40625 139.0625 C 447.871094 143.347656 449.640625 152.0625 445.339844 158.53125 C 441.054688 164.980469 432.304688 166.730469 425.871094 162.464844 C 405.738281 149.113281 383.1875 142.347656 358.835938 142.347656 C 291.59375 142.347656 236.894531 197.9375 236.894531 266.273438 C 236.894531 334.609375 291.597656 390.214844 358.835938 390.214844 C 369.417969 390.214844 380.484375 388.664062 390.867188 385.746094 C 391.585938 385.550781 392.304688 385.398438 393.019531 385.3125 C 436.757812 372.5625 470.492188 335.492188 479.179688 290.457031 C 480.640625 282.855469 487.976562 277.972656 495.644531 279.320312 C 503.257812 280.804688 508.242188 288.171875 506.78125 295.789062 C 495.980469 351.691406 453.710938 397.628906 399.089844 412.796875 C 398.355469 412.996094 397.625 413.144531 396.90625 413.230469 C 384.535156 416.550781 371.414062 418.316406 358.835938 418.316406 Z M 358.835938 418.316406 " fill-opacity="1" fill-rule="nonzero"/></g><path fill="#ffffff" d="M 393.449219 1318.625 C 389.816406 1318.625 386.300781 1317.226562 383.683594 1314.691406 L 264.992188 1199.816406 C 259.445312 1194.449219 259.28125 1185.582031 264.609375 1180.015625 L 319.015625 1123.210938 C 321.664062 1120.410156 324.597656 1118.675781 329.164062 1118.878906 C 332.832031 1118.878906 336.367188 1120.3125 339 1122.875 L 389.839844 1172.679688 L 589.597656 955.433594 C 592.132812 952.667969 595.683594 951.035156 599.433594 950.898438 C 603.070312 950.765625 606.851562 952.132812 609.585938 954.734375 L 666.457031 1008.4375 C 672.042969 1013.703125 672.355469 1022.503906 667.140625 1028.140625 L 403.789062 1314.089844 C 401.226562 1316.890625 397.640625 1318.527344 393.855469 1318.625 C 393.714844 1318.625 393.585938 1318.625 393.449219 1318.625 Z M 294.578125 1189.351562 L 392.867188 1284.488281 L 637.066406 1019.335938 L 600.628906 984.933594 L 400.699219 1202.351562 C 398.136719 1205.152344 394.535156 1206.789062 390.734375 1206.886719 C 386.933594 1206.789062 383.25 1205.519531 380.535156 1202.886719 L 329.480469 1152.882812 Z M 393.449219 844.128906 C 389.785156 844.128906 386.25 842.691406 383.613281 840.125 C 345.050781 802.359375 306.445312 765.1875 267.839844 728.050781 L 265.027344 725.320312 C 259.441406 719.953125 259.261719 711.085938 264.609375 705.484375 L 319.015625 648.664062 C 321.613281 645.964844 325.179688 644.398438 328.929688 644.328125 C 332.296875 643.992188 336.296875 645.691406 338.996094 648.34375 L 389.816406 698.113281 L 589.582031 480.296875 C 592.117188 477.53125 595.667969 475.898438 599.433594 475.761719 C 603.066406 475.230469 606.847656 477 609.582031 479.578125 L 666.4375 533.25 C 672.039062 538.535156 672.351562 547.316406 667.152344 552.984375 L 403.804688 839.585938 C 401.21875 842.386719 397.617188 844.019531 393.816406 844.121094 C 393.703125 844.128906 393.570312 844.128906 393.449219 844.128906 Z M 294.59375 714.804688 C 327.382812 746.355469 360.148438 777.921875 392.917969 809.925781 L 637.082031 544.191406 L 600.648438 509.804688 L 400.71875 727.820312 C 398.152344 730.617188 394.554688 732.253906 390.75 732.371094 C 386.667969 732.269531 383.265625 731.019531 380.535156 728.351562 L 329.480469 678.367188 Z M 393.449219 368.996094 C 389.816406 368.996094 386.300781 367.582031 383.683594 365.046875 L 264.992188 250.15625 C 262.304688 247.558594 260.777344 244.007812 260.707031 240.289062 C 260.65625 236.554688 262.074219 232.953125 264.65625 230.289062 L 319.0625 174.101562 C 321.660156 171.414062 325.210938 169.886719 328.949219 169.816406 C 332.964844 170.46875 336.28125 171.183594 338.949219 173.78125 L 389.785156 223.050781 L 589.597656 5.769531 C 592.128906 3.019531 595.679688 1.382812 599.433594 1.253906 C 603.070312 0.816406 606.847656 2.488281 609.582031 5.070312 L 666.453125 58.753906 C 672.039062 64.039062 672.351562 72.839844 667.136719 78.488281 L 403.789062 364.457031 C 401.222656 367.242188 397.636719 368.875 393.851562 368.992188 C 393.714844 368.996094 393.585938 368.996094 393.449219 368.996094 Z M 294.628906 239.738281 L 392.867188 334.824219 L 637.066406 69.65625 L 600.628906 35.269531 L 400.699219 252.6875 C 398.152344 255.472656 394.566406 257.105469 390.765625 257.203125 C 387.082031 257.867188 383.332031 255.902344 380.582031 253.253906 L 329.480469 203.734375 Z M 294.628906 239.738281 " fill-opacity="1" fill-rule="nonzero"/></svg>